<svg width="2000" height="2000" viewBox="0 0 2000 2000" fill="none" xmlns="http://www.w3.org/2000/svg">
<path d="M994.727 1049.13H1132.58" stroke="#FFDFD4" stroke-width="4.27648" stroke-miterlimit="10"/>
<path d="M1086.33 852.363V917.412" stroke="#FFDFD4" stroke-width="4.27648" stroke-miterlimit="10"/>
<path d="M959.108 918.223H1217.23" stroke="#FFDFD4" stroke-width="4.27648" stroke-miterlimit="10"/>
<path d="M1153.4 918.223H1036V982.198H1153.4V918.223Z" stroke="#FFDFD4" stroke-width="4.27648" stroke-miterlimit="10"/>
<path d="M972.612 982.039H1279" stroke="#FFDFD4" stroke-width="4.27648" stroke-miterlimit="10"/>
<path d="M1096.15 981.633V1047.91" stroke="#FFDFD4" stroke-width="4.27648" stroke-miterlimit="10"/>
<path d="M1202.1 1150.71V1215.76" stroke="#FFDFD4" stroke-width="4.27648" stroke-miterlimit="10"/>
<path d="M1074.88 1216.57H1333.01" stroke="#FFDFD4" stroke-width="4.27648" stroke-miterlimit="10"/>
<path d="M1269.18 1216.57H1151.77V1280.55H1269.18V1216.57Z" stroke="#FFDFD4" stroke-width="4.27648" stroke-miterlimit="10"/>
<path d="M1088.38 1280.39H1394.78" stroke="#FFDFD4" stroke-width="4.27648" stroke-miterlimit="10"/>
<path d="M381.479 1299.75H519.337" stroke="#FFDFD4" stroke-width="4.27648" stroke-miterlimit="10"/>
<path d="M473.11 1144.41V1168.02" stroke="#FFDFD4" stroke-width="4.27648" stroke-miterlimit="10"/>
<path d="M345.89 1168.84H604.018" stroke="#FFDFD4" stroke-width="4.27648" stroke-miterlimit="10"/>
<path d="M540.185 1168.84H422.781V1232.81H540.185V1168.84Z" stroke="#FFDFD4" stroke-width="4.27648" stroke-miterlimit="10"/>
<path d="M359.394 1232.65H665.785" stroke="#FFDFD4" stroke-width="4.27648" stroke-miterlimit="10"/>
<path d="M482.927 1232.25V1298.51" stroke="#FFDFD4" stroke-width="4.27648" stroke-miterlimit="10"/>
<path d="M225.862 1533.88H320.502" stroke="#FFDFD4" stroke-width="4.27648" stroke-miterlimit="10"/>
<path d="M288.763 1398.8V1443.44" stroke="#FFDFD4" stroke-width="4.27648" stroke-miterlimit="10"/>
<path d="M201.427 1444.01H378.632" stroke="#FFDFD4" stroke-width="4.27648" stroke-miterlimit="10"/>
<path d="M334.807 1444.01H254.207V1487.93H334.807V1444.01Z" stroke="#FFDFD4" stroke-width="4.27648" stroke-miterlimit="10"/>
<path d="M210.696 1487.81H421.039" stroke="#FFDFD4" stroke-width="4.27648" stroke-miterlimit="10"/>
<path d="M295.51 1487.53V1533.03" stroke="#FFDFD4" stroke-width="4.27648" stroke-miterlimit="10"/>
<path d="M787.535 577.043V603.504" stroke="#FFDFD4" stroke-width="2.13824" stroke-miterlimit="10"/>
<path d="M735.767 603.836H840.792" stroke="#FFDFD4" stroke-width="2.13824" stroke-miterlimit="10"/>
<path d="M814.827 603.836H767.061V629.77H814.827V603.836Z" stroke="#FFDFD4" stroke-width="2.13824" stroke-miterlimit="10"/>
<path d="M741.258 629.801H852.665" stroke="#FFDFD4" stroke-width="2.13824" stroke-miterlimit="10"/>
<path d="M750.244 657.102H806.297" stroke="#FFDFD4" stroke-width="2.13824" stroke-miterlimit="10"/>
<path d="M791.526 629.637V656.604" stroke="#FFDFD4" stroke-width="2.13824" stroke-miterlimit="10"/>
<path d="M246.954 499.145V539.394" stroke="#FFDFD4" stroke-width="2.13824" stroke-miterlimit="10"/>
<path d="M168.229 539.898H327.959" stroke="#FFDFD4" stroke-width="2.13824" stroke-miterlimit="10"/>
<path d="M288.459 539.898H215.812V579.337H288.459V539.898Z" stroke="#FFDFD4" stroke-width="2.13824" stroke-miterlimit="10"/>
<path d="M176.586 579.383H346.011" stroke="#FFDFD4" stroke-width="2.13824" stroke-miterlimit="10"/>
<path d="M190.253 620.898H275.553" stroke="#FFDFD4" stroke-width="2.13824" stroke-miterlimit="10"/>
<path d="M253.032 579.133V620.142" stroke="#FFDFD4" stroke-width="2.13824" stroke-miterlimit="10"/>
<g opacity="0.7">
<path d="M1641.77 1563.77H1736.41" stroke="#E0A07C" stroke-width="4.27648" stroke-miterlimit="10"/>
<path d="M1704.67 1428.7V1473.34" stroke="#E0A07C" stroke-width="4.27648" stroke-miterlimit="10"/>
<path d="M1617.34 1473.91H1794.54" stroke="#E0A07C" stroke-width="4.27648" stroke-miterlimit="10"/>
<path d="M1750.73 1473.91H1670.13V1517.83H1750.73V1473.91Z" stroke="#E0A07C" stroke-width="4.27648" stroke-miterlimit="10"/>
<path d="M1626.61 1517.71H1836.95" stroke="#E0A07C" stroke-width="4.27648" stroke-miterlimit="10"/>
<path d="M1711.42 1517.44V1562.92" stroke="#E0A07C" stroke-width="4.27648" stroke-miterlimit="10"/>
</g>
<path d="M392.329 672.973V761.981" stroke="#E0A07C" stroke-width="4.27648" stroke-miterlimit="10"/>
<path d="M218.243 763.094H571.448" stroke="#E0A07C" stroke-width="4.27648" stroke-miterlimit="10"/>
<path d="M484.133 763.094H323.481V850.308H484.133V763.094Z" stroke="#E0A07C" stroke-width="4.27648" stroke-miterlimit="10"/>
<path d="M236.722 850.422H611.374" stroke="#E0A07C" stroke-width="4.27648" stroke-miterlimit="10"/>
<path d="M313.593 942.23H455.584" stroke="#E0A07C" stroke-width="4.27648" stroke-miterlimit="10"/>
<path d="M405.762 849.852V940.531" stroke="#E0A07C" stroke-width="4.27648" stroke-miterlimit="10"/>
<path d="M994.727 682.574H1132.58" stroke="#E0A07C" stroke-width="4.27648" stroke-miterlimit="10"/>
<path d="M1086.33 485.809V550.847" stroke="#E0A07C" stroke-width="4.27648" stroke-miterlimit="10"/>
<path d="M959.108 551.668H1217.23" stroke="#E0A07C" stroke-width="4.27648" stroke-miterlimit="10"/>
<path d="M1153.4 551.668H1036V615.643H1153.4V551.668Z" stroke="#E0A07C" stroke-width="4.27648" stroke-miterlimit="10"/>
<path d="M972.612 615.48H1279" stroke="#E0A07C" stroke-width="4.27648" stroke-miterlimit="10"/>
<path d="M1096.15 615.078V681.343" stroke="#E0A07C" stroke-width="4.27648" stroke-miterlimit="10"/>
<path d="M471.733 580.645H583.646" stroke="#E0A07C" stroke-width="4.27648" stroke-miterlimit="10"/>
<path d="M546.122 420.898V473.709" stroke="#E0A07C" stroke-width="4.27648" stroke-miterlimit="10"/>
<path d="M442.84 474.367H652.393" stroke="#E0A07C" stroke-width="4.27648" stroke-miterlimit="10"/>
<path d="M600.564 474.367H505.255V526.307H600.564V474.367Z" stroke="#E0A07C" stroke-width="4.27648" stroke-miterlimit="10"/>
<path d="M453.791 526.18H702.539" stroke="#E0A07C" stroke-width="4.27648" stroke-miterlimit="10"/>
<path d="M554.095 525.84V579.644" stroke="#E0A07C" stroke-width="4.27648" stroke-miterlimit="10"/>
<path d="M1609.34 522.5H1682.74" stroke="#E0A07C" stroke-width="4.27648" stroke-miterlimit="10"/>
<path d="M1658.13 417.734V452.361" stroke="#E0A07C" stroke-width="4.27648" stroke-miterlimit="10"/>
<path d="M1590.39 452.793H1727.82" stroke="#E0A07C" stroke-width="4.27648" stroke-miterlimit="10"/>
<path d="M1693.83 452.793H1631.33V486.852H1693.83V452.793Z" stroke="#E0A07C" stroke-width="4.27648" stroke-miterlimit="10"/>
<path d="M1597.58 486.777H1760.72" stroke="#E0A07C" stroke-width="4.27648" stroke-miterlimit="10"/>
<path d="M1663.36 486.555V521.84" stroke="#E0A07C" stroke-width="4.27648" stroke-miterlimit="10"/>
<path d="M1705.7 886.355V945.954" stroke="#E0A07C" stroke-width="4.27648" stroke-miterlimit="10"/>
<path d="M1589.13 946.703H1825.64" stroke="#E0A07C" stroke-width="4.27648" stroke-miterlimit="10"/>
<path d="M1767.17 946.703H1659.59V1005.05H1767.17V946.703Z" stroke="#E0A07C" stroke-width="4.27648" stroke-miterlimit="10"/>
<path d="M1621.74 1066.64H1748.05" stroke="#E0A07C" stroke-width="4.27648" stroke-miterlimit="10"/>
<path d="M1714.69 1004.8V1065.53" stroke="#E0A07C" stroke-width="4.27648" stroke-miterlimit="10"/>
<path d="M1659.59 1005.05H1825.64" stroke="#E0A07C" stroke-width="4.27648" stroke-miterlimit="10"/>
<g opacity="0.2">
<path d="M1487.14 1218.12V1261.69" stroke="#E0A07C" stroke-width="4.27648" stroke-miterlimit="10"/>
<path d="M1401.92 1262.24H1574.83" stroke="#E0A07C" stroke-width="4.27648" stroke-miterlimit="10"/>
<path d="M1532.08 1262.24H1453.43V1304.89H1532.08V1262.24Z" stroke="#E0A07C" stroke-width="4.27648" stroke-miterlimit="10"/>
<path d="M1425.76 1349.93H1518.11" stroke="#E0A07C" stroke-width="4.27648" stroke-miterlimit="10"/>
<path d="M1493.71 1304.71V1349.1" stroke="#E0A07C" stroke-width="4.27648" stroke-miterlimit="10"/>
<path d="M1453.43 1304.89H1574.83" stroke="#E0A07C" stroke-width="4.27648" stroke-miterlimit="10"/>
</g>
<g opacity="0.4">
<path d="M1753.46 1192.15V1213.78" stroke="#E0A07C" stroke-width="2.13824" stroke-miterlimit="10"/>
<path d="M1711.15 1214.05H1797" stroke="#E0A07C" stroke-width="2.13824" stroke-miterlimit="10"/>
<path d="M1775.78 1214.05H1736.73V1235.22H1775.78V1214.05Z" stroke="#E0A07C" stroke-width="2.13824" stroke-miterlimit="10"/>
<path d="M1722.98 1257.59H1768.84" stroke="#E0A07C" stroke-width="2.13824" stroke-miterlimit="10"/>
<path d="M1756.72 1235.14V1257.17" stroke="#E0A07C" stroke-width="2.13824" stroke-miterlimit="10"/>
<path d="M1736.73 1235.22H1797" stroke="#E0A07C" stroke-width="2.13824" stroke-miterlimit="10"/>
</g>
<g opacity="0.2">
<path d="M1747.81 645.703V672.164" stroke="#E0A07C" stroke-width="4.27648" stroke-miterlimit="10"/>
<path d="M1696.05 672.496H1801.08" stroke="#E0A07C" stroke-width="4.27648" stroke-miterlimit="10"/>
<path d="M1775.1 672.496H1727.33V698.431H1775.1V672.496Z" stroke="#E0A07C" stroke-width="4.27648" stroke-miterlimit="10"/>
<path d="M1701.54 698.461H1812.95" stroke="#E0A07C" stroke-width="4.27648" stroke-miterlimit="10"/>
<path d="M1710.53 725.766H1766.62" stroke="#E0A07C" stroke-width="4.27648" stroke-miterlimit="10"/>
<path d="M1751.81 698.297V725.265" stroke="#E0A07C" stroke-width="4.27648" stroke-miterlimit="10"/>
</g>
<path opacity="0.6" d="M203.838 351.711H1810.62C1823.39 351.711 1835.63 356.783 1844.66 365.811C1853.69 374.839 1858.76 387.084 1858.76 399.852V1620.53H155.667V399.852C155.667 393.527 156.913 387.265 159.334 381.422C161.755 375.579 165.304 370.271 169.778 365.8C174.251 361.33 179.562 357.784 185.406 355.367C191.25 352.949 197.513 351.707 203.838 351.711Z" fill="#FCF2E6"/>
<path opacity="0.6" d="M1324.77 349.43H1809.44C1822.52 349.43 1835.07 354.625 1844.32 363.874C1853.56 373.123 1858.76 385.666 1858.76 398.746V1618.84H1324.77V349.43Z" fill="#F7E0CA"/>
<path opacity="0.15" d="M1613.24 790.08C1613.24 790.08 1588.6 768.715 1600.07 744.685C1611.55 720.655 1633.96 734.828 1636.02 711.406C1638.07 687.984 1544.61 640.329 1529.4 619.784C1514.2 599.239 1519.34 590.618 1542.35 586.92C1565.36 583.223 1591.85 584.459 1583.02 575.209C1574.2 565.96 1494.89 542.143 1489.14 525.711C1489.14 525.711 1487.12 521.112 1508.65 525.498C1533.59 530.564 1578.64 504.224 1560.15 462.982C1560.08 462.813 1559.94 462.678 1559.78 462.603C1559.61 462.528 1559.42 462.519 1559.24 462.578C1559.07 462.636 1558.92 462.759 1558.84 462.92C1558.75 463.081 1558.73 463.27 1558.77 463.448C1561.37 474.511 1563.33 495.512 1545.83 509.036C1521.19 528.142 1502.5 519.106 1479.9 514.993C1457.31 510.88 1476.41 538.82 1506.81 553.824C1506.81 553.824 1537.42 566.76 1521.19 572.515C1504.96 578.269 1483.6 580.528 1486.47 596.139C1489.34 611.751 1530.64 640.501 1550.57 649.133C1570.49 657.764 1609.11 691.864 1593.7 716.309C1578.29 740.754 1562.3 734.544 1567.2 755.747C1572.1 776.951 1596.58 791.904 1596.58 791.904L1613.24 790.08Z" fill="#E0A07C"/>
<path opacity="0.15" d="M1220.64 860.647C1220.64 860.647 1262.84 824.076 1243.15 782.935C1223.46 741.795 1185.12 766.057 1181.61 725.971C1178.09 685.884 1338.1 604.291 1364.12 569.128C1390.15 533.964 1381.34 519.194 1341.97 512.862C1302.59 506.531 1257.21 508.648 1272.34 492.824C1287.46 477 1423.19 436.204 1433.04 408.081C1433.04 408.081 1436.61 400.22 1399.61 407.726C1356.94 416.388 1279.81 371.327 1311.47 300.706C1311.61 300.431 1311.84 300.215 1312.12 300.097C1312.4 299.979 1312.72 299.968 1313 300.067C1313.29 300.165 1313.54 300.365 1313.69 300.63C1313.84 300.895 1313.89 301.207 1313.83 301.507C1309.36 320.431 1306.02 356.384 1335.97 379.594C1378.16 412.295 1410.16 396.816 1448.84 389.795C1487.52 382.775 1454.82 430.581 1402.78 456.252C1402.78 456.252 1350.38 478.408 1378.16 488.255C1405.94 498.102 1442.5 501.962 1437.61 528.707C1432.72 555.452 1362 604.686 1327.89 619.427C1293.78 634.167 1227.73 692.56 1254.07 734.409C1280.41 776.259 1307.88 765.703 1299.44 801.92C1291 838.137 1249.15 863.808 1249.15 863.808L1220.64 860.647Z" fill="#E0A07C"/>
<path d="M1677.28 864.467H1228.49C1227.15 864.467 1225.86 863.933 1224.91 862.983C1223.96 862.033 1223.43 860.745 1223.43 859.401C1223.43 858.058 1223.96 856.769 1224.91 855.82C1225.86 854.87 1227.15 854.336 1228.49 854.336H1677.33C1678.67 854.336 1679.96 854.87 1680.91 855.82C1681.86 856.769 1682.4 858.058 1682.4 859.401C1682.4 860.745 1681.86 862.033 1680.91 862.983C1679.96 863.933 1678.67 864.467 1677.33 864.467H1677.28Z" fill="#1841A1"/>
<path d="M1234.82 863.562L1235.24 864.12C1241.44 872.124 1249.38 878.604 1258.47 883.064C1267.56 887.524 1277.54 889.846 1287.66 889.851H1618.77C1629.02 889.841 1639.12 887.458 1648.28 882.888C1657.45 878.318 1665.43 871.685 1671.61 863.512L1234.82 863.562Z" fill="#335CDF"/>
<path d="M1263.95 853.894V843.409C1263.95 793.215 1283.89 745.077 1319.39 709.585C1354.88 674.092 1403.02 654.151 1453.21 654.148C1503.41 654.148 1551.55 674.088 1587.04 709.581C1622.54 745.074 1642.48 793.213 1642.48 843.409V853.894H1263.95Z" fill="#4497F3"/>
<mask id="mask0_140_657" style="mask-type:alpha" maskUnits="userSpaceOnUse" x="1263" y="654" width="380" height="200">
<path d="M1263.95 853.898V843.413C1263.95 793.219 1283.89 745.081 1319.39 709.589C1354.88 674.096 1403.02 654.155 1453.21 654.152C1503.41 654.152 1551.55 674.092 1587.04 709.585C1622.54 745.078 1642.48 793.217 1642.48 843.413V853.898H1263.95Z" fill="#4497F3"/>
</mask>
<g mask="url(#mask0_140_657)">
<path d="M1443.51 649.062C1443.51 649.062 1279.94 716.3 1283.19 899.127L1214.75 866.79L1253.94 687.052L1369.84 649.062H1443.51Z" fill="#7EB7FA"/>
</g>
<path d="M1467.06 655.044L1436.67 655.176C1433.33 651.407 1430.43 647.271 1428.03 642.846C1426.39 640.187 1425.12 637.313 1424.26 634.306C1423.4 630.682 1423.59 626.891 1424.79 623.368C1426 619.845 1428.17 616.733 1431.06 614.39C1438.74 608.311 1449.59 608.97 1459.23 610.56C1459.27 610.56 1491.32 616.304 1467.06 655.044Z" fill="#1841A1"/>
<g opacity="0.6">
<path d="M299.937 1297.52C367.687 1297.52 422.609 1242.59 422.609 1174.84C422.609 1107.09 367.687 1052.17 299.937 1052.17C232.187 1052.17 177.265 1107.09 177.265 1174.84C177.265 1242.59 232.187 1297.52 299.937 1297.52Z" fill="#F7E0CA"/>
<path d="M292.886 1287.44C360.636 1287.44 415.558 1232.52 415.558 1164.77C415.558 1097.02 360.636 1042.09 292.886 1042.09C225.136 1042.09 170.214 1097.02 170.214 1164.77C170.214 1232.52 225.136 1287.44 292.886 1287.44Z" fill="#EFBC96"/>
<path d="M305.843 1077.64C321.645 1077.61 337.262 1081.04 351.593 1087.7C352.069 1087.97 352.632 1088.04 353.158 1087.89C353.684 1087.74 354.131 1087.39 354.399 1086.92C354.668 1086.44 354.737 1085.88 354.591 1085.35C354.444 1084.83 354.095 1084.38 353.619 1084.11C335.795 1072.08 314.765 1065.69 293.261 1065.77C236.033 1065.77 189.645 1109.63 189.645 1163.74C189.669 1184.71 196.705 1205.07 209.633 1221.58C209.932 1222.03 210.4 1222.35 210.934 1222.46C211.468 1222.57 212.024 1222.46 212.479 1222.16C212.935 1221.86 213.252 1221.4 213.363 1220.86C213.473 1220.33 213.366 1219.77 213.067 1219.32C205.925 1205.86 202.193 1190.85 202.197 1175.61C202.268 1121.51 248.666 1077.64 305.843 1077.64Z" fill="#F7C6A4"/>
<path d="M262.14 1047.4L270.629 1039.99C271.654 1039.1 272.466 1038 273.005 1036.75C273.543 1035.5 273.794 1034.15 273.739 1032.8L268.552 902.711C268.426 899.525 268.943 896.347 270.075 893.366C271.207 890.385 272.929 887.664 275.138 885.365C277.347 883.066 279.997 881.237 282.931 879.988C285.864 878.738 289.019 878.094 292.208 878.094C295.413 878.094 298.585 878.746 301.532 880.009C304.478 881.272 307.137 883.121 309.347 885.443C311.557 887.765 313.273 890.512 314.389 893.517C315.506 896.522 316 899.722 315.842 902.924L309.45 1033.07C309.382 1034.52 309.658 1035.95 310.255 1037.27C310.852 1038.59 311.753 1039.74 312.884 1040.64L320.685 1046.8C320.685 1046.8 288.996 1040.47 262.14 1047.4Z" fill="#EFBC96"/>
<path d="M291.103 898.004C294.13 898.004 296.584 895.551 296.584 892.524C296.584 889.497 294.13 887.043 291.103 887.043C288.076 887.043 285.622 889.497 285.622 892.524C285.622 895.551 288.076 898.004 291.103 898.004Z" fill="#E0A07C"/>
<g opacity="0.6">
<path d="M490.252 1158.32C541.832 1158.32 583.646 1116.51 583.646 1064.93C583.646 1013.35 541.832 971.535 490.252 971.535C438.671 971.535 396.857 1013.35 396.857 1064.93C396.857 1116.51 438.671 1158.32 490.252 1158.32Z" fill="#F7E0CA"/>
<path d="M485.399 1148.03C536.979 1148.03 578.793 1106.22 578.793 1054.64C578.793 1003.06 536.979 961.242 485.399 961.242C433.819 961.242 392.005 1003.06 392.005 1054.64C392.005 1106.22 433.819 1148.03 485.399 1148.03Z" fill="#EFBC96"/>
<path d="M495.297 988.312C505.59 988.295 515.795 990.205 525.385 993.944C525.838 994.068 526.321 994.031 526.75 993.838C527.179 993.646 527.528 993.31 527.736 992.888C527.944 992.466 528 991.985 527.892 991.527C527.785 991.07 527.522 990.663 527.147 990.378C514.579 983.048 500.283 979.201 485.733 979.235C442.172 979.235 406.846 1012.67 406.846 1053.83C406.85 1068.07 411.124 1081.99 419.114 1093.78C419.417 1094.14 419.836 1094.38 420.298 1094.47C420.761 1094.55 421.238 1094.47 421.649 1094.25C422.059 1094.02 422.378 1093.65 422.549 1093.21C422.721 1092.78 422.735 1092.29 422.589 1091.85C418.507 1082.73 416.401 1072.85 416.409 1062.86C416.409 1021.71 451.725 988.312 495.297 988.312Z" fill="#F7C6A4"/>
<path d="M461.987 964.484L468.45 958.842C469.231 958.164 469.85 957.32 470.26 956.371C470.671 955.423 470.862 954.394 470.821 953.361L466.87 854.324C466.773 851.899 467.167 849.479 468.028 847.211C468.889 844.942 470.199 842.87 471.881 841.12C473.562 839.37 475.579 837.977 477.811 837.025C480.044 836.074 482.445 835.583 484.872 835.582C487.314 835.582 489.731 836.078 491.975 837.04C494.22 838.002 496.245 839.41 497.929 841.179C499.612 842.948 500.919 845.041 501.769 847.33C502.619 849.619 502.995 852.057 502.874 854.496L497.981 953.574C497.931 954.674 498.142 955.77 498.598 956.772C499.055 957.774 499.742 958.654 500.605 959.338L506.542 964.018C506.542 964.018 482.441 959.196 461.987 964.484Z" fill="#EFBC96"/>
<path d="M485.075 856.259C487.928 856.259 490.241 853.946 490.241 851.092C490.241 848.239 487.928 845.926 485.075 845.926C482.221 845.926 479.908 848.239 479.908 851.092C479.908 853.946 482.221 856.259 485.075 856.259Z" fill="#E0A07C"/>
</g>
</g>
<path d="M578.125 1571.22V1621.63H748.461" fill="#DD8F28"/>
<path d="M578.125 1571.22V1621.63H748.461" stroke="#9D6434" stroke-width="6.41472" stroke-miterlimit="10"/>
<path d="M890.26 1525.24C902.751 1521.72 915.242 1518.15 927.115 1512.8C933.011 1510.21 938.649 1507.06 943.953 1503.41C946.505 1501.63 948.846 1499.56 951.439 1497.84C952.541 1497.03 953.771 1496.42 955.076 1496.02C955.983 1495.79 956.934 1495.79 957.842 1496.02C959.868 1496.82 961.073 1498.75 962.046 1500.95C962.502 1502.09 962.881 1503.26 963.181 1504.45C963.668 1506.27 964.041 1508.12 964.295 1509.98C965.227 1516.52 964.67 1523.19 962.664 1529.48C962.316 1530.53 961.726 1531.48 960.942 1532.26C960.638 1532.58 961.043 1532.18 961.104 1532.14L960.526 1532.53C960.05 1532.86 959.513 1533.16 959.078 1533.46C957.244 1534.57 955.36 1535.62 953.445 1536.6C947.843 1539.44 942.119 1542.15 936.294 1544.51C930.713 1546.82 924.953 1548.67 919.072 1550.05C913.229 1551.35 907.289 1552.17 901.313 1552.49C900.511 1552.51 899.747 1552.83 899.181 1553.4C898.614 1553.97 898.289 1554.73 898.273 1555.53C898.273 1556.34 898.594 1557.11 899.164 1557.68C899.734 1558.25 900.507 1558.57 901.313 1558.57C912.851 1557.92 924.224 1555.53 935.048 1551.48C941.379 1549.07 947.549 1546.22 953.637 1543.24C955.957 1542.12 958.247 1540.94 960.486 1539.66C962.512 1538.52 964.69 1537.37 966.159 1535.6C968.459 1532.79 969.279 1528.96 969.897 1525.47C971.281 1517.96 970.99 1510.24 969.046 1502.86C968.383 1500 967.191 1497.29 965.531 1494.87C964.618 1493.5 963.423 1492.33 962.025 1491.46C960.628 1490.59 959.06 1490.02 957.426 1489.8C954.043 1489.45 950.801 1490.93 948.076 1492.84C945.351 1494.76 942.696 1497.01 939.87 1498.92C937.146 1500.76 934.325 1502.45 931.421 1503.99C918.018 1511.16 903.258 1515.3 888.69 1519.4C884.931 1520.42 886.532 1526.32 890.311 1525.26L890.26 1525.24Z" fill="#9D6434"/>
<path d="M637.024 876.432C638.219 882.338 643.102 886.765 648.502 888.893C655.462 891.628 663.293 890.595 670.405 889.055C674.285 888.214 678.124 887.191 682.035 886.451C684.014 886.064 686.012 885.784 688.022 885.611C689.866 885.469 691.598 885.499 693.087 886.715C694.213 887.755 695.231 888.905 696.126 890.149C697.169 891.409 698.364 892.535 699.682 893.502C702.251 895.426 705.332 896.547 708.536 896.724C712.761 896.906 716.823 895.377 720.622 893.685C724.766 891.851 728.858 889.896 732.971 888.001C733.569 887.728 733.052 886.846 732.465 887.12L721.615 892.185C718.252 893.725 714.757 895.225 711.049 895.66C707.66 896.044 704.242 895.265 701.354 893.452C700.032 892.629 698.823 891.638 697.757 890.504C696.744 889.379 695.822 888.082 694.718 886.948C693.742 885.802 692.419 885.005 690.95 884.679C689.19 884.483 687.411 884.551 685.671 884.881C681.859 885.437 678.079 886.191 674.345 887.14C667.092 888.852 659.443 890.605 652.058 888.954C645.615 887.525 639.374 882.966 638.007 876.199C637.875 875.561 636.903 875.835 636.994 876.473L637.024 876.432Z" fill="#E7AB44"/>
<path d="M633.063 908.62C641.613 912.672 648.441 919.307 654.955 926.014C658.278 929.438 661.56 932.913 665.035 936.145C668.525 939.632 672.455 942.649 676.726 945.12C681.67 947.775 687.758 948.899 692.935 946.133C693.512 945.829 693.006 944.958 692.428 945.262C687.789 947.714 682.237 946.762 677.749 944.462C673.467 942.083 669.535 939.12 666.069 935.658C659.301 929.357 653.324 922.235 646.304 916.187C642.473 912.79 638.199 909.928 633.6 907.677C633.012 907.404 632.496 908.275 633.083 908.549L633.063 908.62Z" fill="#E7AB44"/>
<path d="M797.818 834.344C803.153 833.892 808.525 834.148 813.794 835.104C814.432 835.225 814.706 834.253 814.057 834.091C808.713 833.108 803.263 832.839 797.848 833.29C797.2 833.341 797.19 834.354 797.848 834.303L797.818 834.344Z" fill="#E7AB44"/>
<path d="M1506.97 902.359C1506.97 902.359 1486.71 902.359 1467.54 929.975C1448.38 957.591 1436.4 965.098 1420.14 927.666C1420.14 927.666 1415.7 897.142 1400.2 898.216C1384.7 899.29 1372.29 898.064 1370.44 916.775C1368.6 935.486 1390.7 949.912 1390.38 964.024C1390.06 978.136 1373.51 996.858 1373.97 1009.43C1374.25 1017.21 1376.89 1025.47 1380.55 1033.2C1385.23 1043.07 1392.77 1051.3 1402.19 1056.83C1413.03 1063.18 1424.97 1067.43 1437.38 1069.37C1462.47 1073.26 1487.41 1061.81 1499.99 1039.75C1507.81 1026.02 1515.1 1005.6 1519.24 986.575C1525.47 957.946 1540.41 951.118 1557.28 908.802C1557.28 908.802 1562.5 897.142 1557.28 894.072C1552.06 891.003 1538.57 885.785 1529.68 895.298C1520.78 904.811 1506.97 902.359 1506.97 902.359Z" fill="#E7AB43"/>
<path d="M1518.4 985.613C1526.5 968.979 1532.44 950.065 1532.26 931.374C1532.15 920.473 1527.03 893.891 1510.75 897.862C1495.38 901.61 1493.81 923.492 1491.29 935.912C1489.51 944.655 1486.71 952.557 1479.77 958.544C1472.35 964.957 1463.27 969.465 1454.45 973.548C1445.79 977.539 1438.01 982.128 1432.16 989.838C1426.68 997.141 1423.46 1005.88 1422.88 1014.99C1422.6 1018.89 1428.68 1018.87 1428.96 1014.99C1430.1 998.996 1440.1 987.103 1454.16 980.345C1467.09 974.135 1482.67 967.794 1490.77 955.211C1497.94 944.068 1497.44 930.199 1501.33 917.931C1503.3 911.741 1509.8 898.784 1517.72 905.632C1523.44 910.576 1525.47 920.169 1526.02 927.301C1527.45 946.074 1521.33 965.879 1513.15 982.544C1511.43 986.049 1516.68 989.129 1518.4 985.583V985.613Z" fill="#9D6434"/>
<path d="M1434.84 948.017C1425.73 951.4 1420.94 959.454 1416.79 967.781C1415.05 971.277 1420.3 974.356 1422.04 970.821C1425.35 964.175 1429.02 956.638 1436.45 953.842C1440.09 952.494 1438.48 946.619 1434.84 947.986V948.017Z" fill="#9D6434"/>
<path d="M1550.35 896.005C1556.58 896.846 1557.96 903.745 1556.21 908.901C1554.18 914.757 1549.47 919.67 1545.99 924.654C1538.54 935.312 1532.29 946.729 1526.06 958.086C1524.19 961.52 1529.43 964.589 1531.31 961.125C1535.57 953.344 1539.83 945.554 1544.48 937.996C1548.79 930.986 1553.9 924.594 1558.39 917.735C1561.72 912.67 1564.16 906.591 1562.59 900.513C1561.27 895.316 1557.43 890.879 1551.97 890.149C1548.14 889.633 1546.49 895.488 1550.35 896.005Z" fill="#9D6434"/>
<path d="M1475.03 955.476C1479.99 948.805 1486.25 943.214 1493.44 939.044C1496.82 937.068 1493.76 931.81 1490.4 933.796C1482.33 938.526 1475.33 944.86 1469.8 952.406C1467.48 955.557 1472.75 958.596 1475.05 955.445L1475.03 955.476Z" fill="#9D6434"/>
<path d="M1433.63 1268.84C1450.46 1146.1 1485.18 1056.99 1485.18 1056.99C1485.18 1056.99 1420.19 1082.31 1376.73 1023.73L1376.51 1024.31C1371.49 1037.29 1365.76 1049.98 1359.36 1062.33C1339.32 1100.95 1291.12 1196.94 1259.75 1284.75C1227.07 1376.25 1105.68 1261.32 989.074 1179.32C948.509 1150.8 901.147 1133.47 851.753 1129.06C809.62 1125.32 748.421 1127.53 685.125 1145.09C572.725 1176.26 507.646 1260.12 461.855 1377.35C416.065 1494.58 572.654 1621.27 823.519 1622.65L1106.03 1619.32C1106.03 1619.32 1111.37 1536.66 1085.85 1428.73C1084.84 1424.48 1090.03 1421.42 1093.59 1423.93C1093.59 1423.93 1220.8 1530.71 1310.69 1475.46C1353.17 1449.36 1384.8 1416.59 1402.88 1376.74C1418.3 1342.45 1428.66 1306.1 1433.63 1268.84Z" fill="#F1A81F"/>
<mask id="mask1_140_657" style="mask-type:alpha" maskUnits="userSpaceOnUse" x="453" y="1023" width="1033" height="600">
<path d="M1433.63 1268.83C1450.46 1146.1 1485.18 1056.98 1485.18 1056.98C1485.18 1056.98 1420.19 1082.31 1376.73 1023.72L1376.51 1024.31C1371.49 1037.29 1365.76 1049.98 1359.36 1062.33C1339.32 1100.95 1291.12 1196.94 1259.75 1284.75C1227.07 1376.25 1105.68 1261.32 989.074 1179.32C948.51 1150.8 901.147 1133.46 851.753 1129.06C809.62 1125.31 748.421 1127.52 685.125 1145.09C572.725 1176.26 507.646 1260.11 461.855 1377.34C416.065 1494.57 572.654 1621.27 823.519 1622.65L1106.03 1619.31C1106.03 1619.31 1111.37 1536.66 1085.85 1428.73C1084.84 1424.48 1090.03 1421.41 1093.59 1423.92C1093.59 1423.92 1220.8 1530.71 1310.69 1475.46C1353.17 1449.35 1384.8 1416.59 1402.88 1376.74C1418.3 1342.45 1428.66 1306.1 1433.63 1268.83Z" fill="#F1A81F"/>
</mask>
<g mask="url(#mask1_140_657)">
<path d="M1120.35 1274.87C1120.35 1274.87 1212.84 1339.99 1222.61 1383.02C1222.7 1383.43 1222.93 1383.81 1223.26 1384.08C1223.6 1384.35 1224.01 1384.5 1224.44 1384.51C1224.87 1384.52 1225.28 1384.38 1225.63 1384.12C1225.97 1383.86 1226.21 1383.5 1226.32 1383.09C1229.88 1370.17 1233.52 1345.88 1217.49 1329.47C1217.49 1329.47 1262.56 1353.07 1280.11 1231.91C1297.65 1110.74 1210.99 1289.48 1210.99 1289.48L1120.35 1274.87Z" fill="#DD8F28"/>
<path d="M566.9 1220.24C566.9 1220.24 465.391 1369.42 476.96 1430.31C488.205 1489.53 556.607 1537.43 588.255 1554.85L661.429 1596.94L643.406 1616.26C624.158 1642.31 561.429 1599.2 550.478 1599.84C550.115 1599.87 549.751 1599.81 549.415 1599.67C549.079 1599.53 548.781 1599.32 548.543 1599.04L416.986 1445.79C416.773 1445.53 416.615 1445.24 416.525 1444.92C416.434 1444.6 416.412 1444.27 416.46 1443.94L439.953 1281.3C439.993 1281 440.092 1280.71 440.243 1280.45C440.394 1280.19 440.595 1279.97 440.834 1279.79L530.186 1211.56C530.471 1211.34 530.801 1211.19 531.153 1211.12C531.504 1211.05 531.867 1211.07 532.212 1211.16L566.94 1220.28" fill="#DD8F28"/>
<path d="M1516.45 1024.19C1516.45 1024.19 1470.04 1078.57 1449.91 1091.77C1429.78 1104.97 1403.79 1093.4 1412.42 1104.94C1421.05 1116.48 1436.91 1119.54 1444.2 1112.96C1451.5 1106.39 1410.3 1241.35 1408.1 1303.65C1405.9 1365.95 1387.26 1407.14 1387.26 1407.14L1460.09 1295.7L1477.51 1162.7L1516.45 1024.19Z" fill="#DD8F28"/>
</g>
<path d="M1433.63 1268.84C1450.46 1146.1 1485.18 1056.99 1485.18 1056.99C1485.18 1056.99 1420.19 1082.31 1376.73 1023.73L1376.51 1024.31C1371.49 1037.29 1365.76 1049.98 1359.36 1062.33C1339.32 1100.95 1291.12 1196.94 1259.75 1284.75C1227.07 1376.25 1105.68 1261.32 989.074 1179.32C948.509 1150.8 901.147 1133.47 851.753 1129.06C809.62 1125.32 748.421 1127.53 685.125 1145.09C572.725 1176.26 507.646 1260.12 461.855 1377.35C416.065 1494.58 572.654 1621.27 823.519 1622.65L1106.03 1619.32C1106.03 1619.32 1111.37 1536.66 1085.85 1428.73C1084.84 1424.48 1090.03 1421.42 1093.59 1423.93C1093.59 1423.93 1220.8 1530.71 1310.69 1475.46C1353.17 1449.36 1384.8 1416.59 1402.88 1376.74C1418.3 1342.45 1428.66 1306.1 1433.63 1268.84V1268.84Z" stroke="#9D6434" stroke-width="5.3456" stroke-miterlimit="10"/>
<path d="M916.103 1618.8L911.555 1590.79C911.555 1590.79 941.865 1578.35 943.456 1576.86L946.698 1618.05" fill="#DD8F28"/>
<path d="M902.012 1471.5C902.012 1471.5 895.781 1422.87 892.246 1403.96C892.011 1402.74 891.464 1401.59 890.656 1400.64C889.848 1399.69 888.808 1398.97 887.636 1398.54C875.48 1394.11 837.398 1373.33 835.291 1286.74C835.166 1281.1 837.246 1275.64 841.089 1271.51C844.932 1267.38 850.234 1264.92 855.867 1264.64L919.477 1260.87C924.848 1260.6 930.124 1262.35 934.279 1265.76C938.434 1269.18 941.171 1274.01 941.957 1279.33C945.898 1305.74 943.77 1354.94 924.927 1392.25C924.326 1393.43 924.059 1394.76 924.157 1396.08L929.577 1464.24C929.577 1464.24 909.984 1468.31 902.012 1471.5Z" fill="#DD8F28"/>
<path d="M892.661 1471.5C892.661 1471.5 886.43 1422.87 882.895 1403.96C882.661 1402.74 882.113 1401.59 881.305 1400.64C880.497 1399.69 879.457 1398.97 878.285 1398.54C866.129 1394.11 828.048 1373.33 825.94 1286.74C825.815 1281.1 827.897 1275.63 831.742 1271.51C835.587 1267.38 840.892 1264.92 846.526 1264.64L910.126 1260.87C915.497 1260.6 920.773 1262.35 924.928 1265.76C929.083 1269.18 931.82 1274.01 932.606 1279.33C936.547 1305.74 934.419 1354.94 915.586 1392.25C914.977 1393.43 914.707 1394.76 914.806 1396.08L920.236 1464.24C920.236 1464.24 900.634 1468.31 892.661 1471.5Z" fill="#1099FA"/>
<mask id="mask2_140_657" style="mask-type:alpha" maskUnits="userSpaceOnUse" x="825" y="1260" width="110" height="212">
<path d="M892.661 1471.5C892.661 1471.5 886.431 1422.87 882.895 1403.96C882.661 1402.73 882.113 1401.59 881.305 1400.64C880.497 1399.69 879.457 1398.96 878.286 1398.54C866.129 1394.11 828.048 1373.32 825.941 1286.74C825.815 1281.1 827.897 1275.63 831.742 1271.5C835.587 1267.38 840.892 1264.91 846.526 1264.64L910.126 1260.86C915.497 1260.6 920.773 1262.35 924.929 1265.76C929.084 1269.17 931.82 1274.01 932.606 1279.33C936.547 1305.74 934.419 1354.93 915.587 1392.25C914.977 1393.43 914.707 1394.75 914.807 1396.08L920.237 1464.23C920.237 1464.23 900.634 1468.31 892.661 1471.5Z" fill="#1099FA"/>
</mask>
<g mask="url(#mask2_140_657)">
<path opacity="0.5" d="M883.888 1262.42C883.888 1262.42 842.686 1260.16 837.013 1277.77C831.543 1294.71 837.976 1373.65 882.277 1396.17C883.838 1396.95 885.131 1398.17 885.99 1399.68C886.85 1401.2 887.236 1402.94 887.099 1404.67L885.681 1420.95C885.681 1420.95 845.29 1390.73 842.403 1388.53C839.516 1386.34 800.513 1339.64 800.513 1339.64L802.924 1271.28L839.029 1250.78L889.45 1253.95L883.888 1262.4" fill="#0F76B5"/>
</g>
<path d="M914.037 1350.27C910.886 1350.27 908.252 1348.18 908.06 1345.46L903.653 1283.18C903.45 1280.37 905.973 1277.94 909.275 1277.78C912.578 1277.62 915.424 1279.81 915.617 1282.57L920.024 1344.85C920.226 1347.66 917.704 1350.08 914.401 1350.26L914.037 1350.27Z" fill="#7EB7FA"/>
<path d="M886.785 1352.72C883.634 1352.78 880.96 1350.69 880.707 1348.04L875.104 1285.86C874.841 1283.05 877.313 1280.58 880.616 1280.35C883.918 1280.11 886.805 1282.2 887.059 1285.02L892.671 1347.2C892.924 1350.01 890.452 1352.48 887.15 1352.71L886.785 1352.72Z" fill="#7EB7FA"/>
<path d="M858.875 1352.84C855.725 1352.9 853.05 1350.87 852.797 1348.16L847.184 1285.97C846.931 1283.16 849.403 1280.69 852.695 1280.46C855.988 1280.23 858.885 1282.31 859.139 1285.13L864.751 1347.31C865.004 1350.12 862.532 1352.59 859.23 1352.82L858.875 1352.84Z" fill="#7EB7FA"/>
<path d="M906.378 1388.03C913.631 1382.02 918.587 1373.69 920.409 1364.44C920.523 1363.97 920.453 1363.47 920.212 1363.05C919.971 1362.62 919.578 1362.31 919.112 1362.17C918.638 1362.04 918.135 1362.11 917.71 1362.35C917.284 1362.59 916.97 1362.99 916.833 1363.46C915.165 1372.08 910.538 1379.84 903.754 1385.4C903.411 1385.76 903.218 1386.23 903.218 1386.72C903.218 1387.21 903.411 1387.68 903.754 1388.03C904.108 1388.37 904.578 1388.55 905.066 1388.55C905.554 1388.55 906.024 1388.37 906.378 1388.03Z" fill="#7EB7FA"/>
<path d="M824.35 1620.17C826.092 1628.56 841.298 1621.74 849.676 1619.98C864.325 1616.94 878.964 1613.52 892.934 1608.15C906.904 1602.78 920.287 1595.36 931.106 1585.04C934.348 1582 937.347 1578.64 940.335 1575.32C944.773 1570.37 949.332 1565.19 951.064 1558.75C952.725 1552.61 951.591 1546.11 950.446 1539.86L953.12 1538.71C956.957 1537.04 960.282 1534.39 962.754 1531.02C965.225 1527.65 966.754 1523.68 967.182 1519.52C967.374 1517.63 967.526 1515.47 967.617 1513.16C967.839 1508.21 966.779 1503.3 964.54 1498.88C962.302 1494.47 958.962 1490.71 954.843 1487.97C956.869 1485.95 956.869 1482.76 957.112 1479.87C959.138 1457.31 940.71 1456.57 940.71 1456.57C935.645 1456.12 927.54 1457.86 923.286 1460.54C908.606 1469.77 896.845 1470.91 879.633 1472.98L908.586 1466.38C908.91 1460.64 909.913 1441.9 909.204 1436.18C908.819 1433.05 908.191 1429.75 906.043 1427.44C903.896 1425.13 900.644 1424.25 897.574 1423.5C894.201 1422.67 890.604 1421.86 887.302 1422.96C885.032 1423.87 882.981 1425.25 881.284 1427.02C865.075 1441.97 853.415 1461.34 837.266 1476.39C837.276 1476.51 801.444 1509.52 824.35 1620.17Z" fill="#E7AB43"/>
<path d="M902.69 1604.51C902.69 1604.51 932.991 1584.57 934.592 1582.22L937.823 1644.36C938.027 1648.26 936.73 1652.09 934.197 1655.06C931.665 1658.04 928.09 1659.93 924.208 1660.35C920.187 1660.78 916.159 1659.6 913.005 1657.07C909.852 1654.54 907.829 1650.86 907.381 1646.84L902.69 1604.51Z" fill="#1099FA"/>
<path d="M821.422 1621C823.631 1630.77 836.7 1626.77 843.163 1624.91C854.418 1621.69 865.997 1619.76 877.273 1616.56C889.662 1613.2 901.606 1608.38 912.852 1602.19C918.196 1599.17 923.279 1595.7 928.048 1591.83C932.937 1587.7 937.503 1583.21 941.704 1578.38C946.283 1573.32 950.943 1568.1 953.374 1561.59C956.079 1554.33 954.752 1546.47 953.374 1539.08L951.976 1542.51C956.271 1540.65 960.243 1538.54 963.434 1535C967.498 1530.37 969.92 1524.53 970.323 1518.39C970.849 1512.46 970.88 1506.53 968.732 1500.89C967.15 1496.73 964.737 1492.94 961.641 1489.74C960.069 1488.06 958.285 1486.58 956.332 1485.36L956.95 1490.13C958.654 1488.1 959.662 1485.58 959.827 1482.94C960.121 1480.66 960.263 1478.35 960.253 1476.05C960.247 1472.18 959.411 1468.36 957.801 1464.84C955.454 1460.12 951.341 1456.52 946.354 1454.81C943.138 1453.7 939.716 1453.32 936.334 1453.69C931.617 1454.05 927.012 1455.31 922.769 1457.4C920.632 1458.52 918.636 1459.9 916.499 1461.02C914.524 1462.06 912.495 1463 910.42 1463.83C900.543 1467.69 889.997 1468.79 879.583 1470.04L880.393 1476.01L905.72 1470.24L909.356 1469.41C909.993 1469.22 910.553 1468.84 910.954 1468.31C911.355 1467.79 911.577 1467.14 911.585 1466.48C911.842 1461.93 912.058 1457.38 912.234 1452.85C912.406 1447.91 912.629 1442.93 912.345 1438C912.265 1435.03 911.679 1432.1 910.613 1429.32C909.861 1427.58 908.751 1426.03 907.354 1424.75C905.957 1423.47 904.306 1422.5 902.508 1421.91C898.964 1420.53 895.223 1419.71 891.425 1419.51C887.029 1419.31 883.422 1421.15 880.18 1423.96C868.793 1433.82 859.919 1446.32 850.305 1457.84C845.509 1463.61 840.413 1469.12 835.038 1474.35C834.846 1474.54 834.653 1474.74 834.471 1474.93C832.929 1476.63 831.526 1478.45 830.277 1480.37C828.08 1483.72 826.172 1487.25 824.573 1490.93C822.049 1496.66 820.015 1502.61 818.495 1508.69C816.462 1516.93 815.087 1525.33 814.382 1533.79C813.453 1544.71 813.304 1555.68 813.936 1566.61C814.769 1580.91 816.477 1595.15 819.052 1609.24C819.727 1613.16 820.484 1617.07 821.321 1620.98C821.555 1621.74 822.073 1622.37 822.766 1622.75C823.46 1623.13 824.274 1623.23 825.036 1623.02C825.798 1622.81 826.447 1622.31 826.847 1621.62C827.247 1620.94 827.365 1620.13 827.177 1619.36C824.184 1605.17 822.023 1590.81 820.703 1576.37C819.658 1564.92 819.391 1553.41 819.903 1541.92C820.126 1537.23 820.511 1532.55 821.088 1527.89C821.149 1527.37 821.22 1526.88 821.281 1526.33C821.331 1525.98 821.281 1526.48 821.281 1526.51C821.281 1526.54 821.281 1526.25 821.281 1526.13L821.402 1525.25C821.554 1524.24 821.716 1523.22 821.878 1522.21C822.192 1520.28 822.547 1518.34 822.891 1516.43C824.163 1510.05 825.952 1503.8 828.24 1497.71C828.473 1497.09 828.727 1496.47 828.97 1495.85C829.091 1495.56 829.213 1495.27 829.324 1494.99C829.527 1494.5 829.051 1495.63 829.264 1495.15L829.466 1494.68C829.932 1493.59 830.479 1492.52 830.935 1491.45C831.817 1489.65 832.759 1487.88 833.772 1486.16C834.562 1484.8 835.406 1483.5 836.304 1482.25L836.851 1481.49C837.145 1481.1 837.682 1480.54 836.932 1481.37C837.247 1481.03 837.52 1480.63 837.824 1480.27C839.789 1477.94 842.16 1475.96 844.267 1473.77C854.489 1463.15 863.07 1451.11 872.825 1440.09C875.257 1437.34 877.769 1434.65 880.383 1432.08C882.652 1429.85 885.195 1426.83 888.366 1425.93C891.537 1425.03 895.528 1426.24 898.719 1427.15C901.465 1427.93 903.926 1429.12 904.99 1431.93C906.581 1436.14 906.287 1441.04 906.216 1445.49C906.145 1450.73 905.922 1455.96 905.659 1461.18C905.568 1462.98 905.476 1464.76 905.375 1466.55L907.614 1463.62L882.287 1469.39L878.65 1470.22C877.943 1470.42 877.331 1470.86 876.927 1471.48C876.523 1472.09 876.356 1472.83 876.454 1473.56C876.553 1474.28 876.912 1474.95 877.465 1475.44C878.018 1475.92 878.727 1476.19 879.461 1476.19C888.578 1475.09 897.787 1474.16 906.601 1471.58C911.042 1470.25 915.345 1468.5 919.447 1466.34C921.473 1465.27 923.418 1463.98 925.434 1462.88C927.09 1461.99 928.849 1461.31 930.671 1460.85C933.888 1459.89 937.25 1459.51 940.599 1459.72H940.883C941.39 1459.72 941.531 1460.07 940.691 1459.72C941.224 1459.87 941.77 1459.97 942.322 1460.02C943.076 1460.2 943.82 1460.42 944.55 1460.68L945.108 1460.89C945.736 1461.12 944.459 1460.58 945.178 1460.89C945.634 1461.11 946.09 1461.33 946.526 1461.57C946.961 1461.81 947.346 1462.03 947.741 1462.3L948.339 1462.71C949.018 1463.19 947.985 1462.38 948.623 1462.95C949.018 1463.29 949.403 1463.64 949.778 1463.96C949.991 1464.18 950.203 1464.4 950.406 1464.64C950.608 1464.87 951.085 1465.51 950.659 1464.93C951.107 1465.53 951.517 1466.16 951.885 1466.81C952.077 1467.15 952.25 1467.5 952.422 1467.82C952.493 1467.96 952.564 1468.11 952.624 1468.26C952.452 1467.87 952.554 1468.06 952.624 1468.35C952.928 1469.13 953.182 1469.94 953.384 1470.76C953.506 1471.22 953.607 1471.69 953.688 1472.15C953.688 1472.35 953.759 1472.55 953.79 1472.74C953.952 1473.76 953.79 1472.15 953.85 1473.15C954.048 1475.37 954.048 1477.6 953.85 1479.82C953.678 1481.85 953.719 1484.37 952.472 1485.74C952.144 1486.07 951.896 1486.47 951.746 1486.91C951.596 1487.35 951.55 1487.82 951.609 1488.28C951.669 1488.74 951.834 1489.18 952.09 1489.57C952.347 1489.95 952.689 1490.28 953.09 1490.51C953.445 1490.72 953.779 1490.96 954.104 1491.2C954.273 1491.3 954.432 1491.42 954.58 1491.56C953.871 1490.78 954.478 1491.48 954.732 1491.7C955.228 1492.1 955.745 1492.52 956.16 1492.95C956.575 1493.39 957.173 1493.91 957.609 1494.41C957.913 1494.75 958.217 1495.09 958.51 1495.43C958.612 1495.55 958.703 1495.67 958.814 1495.79C958.926 1495.91 959.017 1496.03 959.108 1496.16C958.885 1495.86 958.885 1495.87 959.108 1496.16C960.279 1497.75 961.296 1499.45 962.147 1501.23C962.995 1503.18 963.624 1505.22 964.021 1507.31C964.404 1509.99 964.482 1512.71 964.254 1515.41C963.94 1520.62 963.019 1525.44 959.848 1529.6C956.9 1533.43 953.07 1535.36 948.704 1537.25C947.407 1537.82 947.083 1539.47 947.306 1540.69C948.37 1546.54 949.504 1552.73 947.741 1558.57C946.202 1563.72 942.615 1567.97 939.11 1571.91C935.167 1576.51 930.956 1580.88 926.498 1584.98C922.332 1588.64 917.858 1591.94 913.125 1594.83C903.179 1600.8 892.536 1605.52 881.436 1608.89C875.358 1610.79 869.28 1612.42 863.049 1613.89C857.488 1615.21 851.835 1616.18 846.313 1617.63C841.907 1618.8 837.571 1620.33 833.052 1621.05L832.475 1621.13C833.113 1621.04 832.202 1621.13 832.151 1621.13C831.654 1621.13 831.138 1621.21 830.662 1621.21C830.185 1621.21 829.74 1621.21 829.284 1621.21C828.514 1621.21 829.719 1621.3 829.284 1621.21C829.071 1621.21 828.848 1621.13 828.625 1621.07L828.109 1620.91C827.541 1620.77 828.524 1621.23 828.109 1620.91C827.971 1620.81 827.825 1620.73 827.673 1620.65C827.491 1620.53 827.562 1620.58 827.896 1620.83L827.673 1620.63C827.673 1620.55 827.389 1620.33 827.329 1620.26C827.896 1620.9 827.329 1620.35 827.329 1620.19C827.329 1619.78 827.329 1620.19 827.329 1620.32C827.224 1620.02 827.136 1619.71 827.065 1619.4C826.832 1618.65 826.313 1618.01 825.62 1617.63C824.926 1617.26 824.113 1617.16 823.351 1617.37C822.589 1617.58 821.939 1618.08 821.54 1618.76C821.14 1619.45 821.021 1620.26 821.21 1621.02L821.422 1621Z" fill="#9D6434"/>
<path opacity="0.6" d="M964.568 1334.15C972.983 1334.15 979.805 1327.33 979.805 1318.92C979.805 1310.5 972.983 1303.68 964.568 1303.68C956.153 1303.68 949.332 1310.5 949.332 1318.92C949.332 1327.33 956.153 1334.15 964.568 1334.15Z" fill="#CC8F3F"/>
<path opacity="0.6" d="M979.815 1407.15C988.23 1407.15 995.051 1400.33 995.051 1391.91C995.051 1383.5 988.23 1376.68 979.815 1376.68C971.4 1376.68 964.578 1383.5 964.578 1391.91C964.578 1400.33 971.4 1407.15 979.815 1407.15Z" fill="#CC8F3F"/>
<path opacity="0.6" d="M988.841 1480.15C997.256 1480.15 1004.08 1473.33 1004.08 1464.92C1004.08 1456.5 997.256 1449.68 988.841 1449.68C980.426 1449.68 973.605 1456.5 973.605 1464.92C973.605 1473.33 980.426 1480.15 988.841 1480.15Z" fill="#CC8F3F"/>
<path d="M961.732 1329.47C970.147 1329.47 976.968 1322.65 976.968 1314.23C976.968 1305.82 970.147 1299 961.732 1299C953.317 1299 946.495 1305.82 946.495 1314.23C946.495 1322.65 953.317 1329.47 961.732 1329.47Z" fill="#FEF2E5"/>
<mask id="mask3_140_657" style="mask-type:alpha" maskUnits="userSpaceOnUse" x="946" y="1298" width="31" height="32">
<path d="M961.732 1329.47C970.147 1329.47 976.968 1322.65 976.968 1314.23C976.968 1305.82 970.147 1299 961.732 1299C953.317 1299 946.495 1305.82 946.495 1314.23C946.495 1322.65 953.317 1329.47 961.732 1329.47Z" fill="#FEF2E5"/>
</mask>
<g mask="url(#mask3_140_657)">
<path d="M971.011 1299.95C971.011 1299.95 947.883 1310.34 957.507 1334.16C967.131 1357.97 935.362 1312.71 935.362 1312.71L956.545 1292L971.011 1299.95Z" fill="#F7E5D2"/>
</g>
<path d="M961.732 1329.47C970.147 1329.47 976.968 1322.65 976.968 1314.23C976.968 1305.82 970.147 1299 961.732 1299C953.317 1299 946.495 1305.82 946.495 1314.23C946.495 1322.65 953.317 1329.47 961.732 1329.47Z" stroke="#E0A07C" stroke-width="2.13824" stroke-miterlimit="10"/>
<path d="M976.968 1402.07C985.383 1402.07 992.205 1395.25 992.205 1386.83C992.205 1378.42 985.383 1371.6 976.968 1371.6C968.553 1371.6 961.732 1378.42 961.732 1386.83C961.732 1395.25 968.553 1402.07 976.968 1402.07Z" fill="#FEF2E5"/>
<mask id="mask4_140_657" style="mask-type:alpha" maskUnits="userSpaceOnUse" x="961" y="1371" width="32" height="32">
<path d="M976.968 1402.07C985.383 1402.07 992.205 1395.25 992.205 1386.84C992.205 1378.42 985.383 1371.6 976.968 1371.6C968.553 1371.6 961.732 1378.42 961.732 1386.84C961.732 1395.25 968.553 1402.07 976.968 1402.07Z" fill="#FEF2E5"/>
</mask>
<g mask="url(#mask4_140_657)">
<path d="M986.248 1372.55C986.248 1372.55 963.119 1382.95 972.754 1406.76C982.388 1430.58 950.598 1385.32 950.598 1385.32L971.791 1364.61L986.248 1372.55Z" fill="#F7E5D2"/>
</g>
<path d="M976.968 1402.07C985.383 1402.07 992.205 1395.25 992.205 1386.83C992.205 1378.42 985.383 1371.6 976.968 1371.6C968.553 1371.6 961.732 1378.42 961.732 1386.83C961.732 1395.25 968.553 1402.07 976.968 1402.07Z" stroke="#E0A07C" stroke-width="2.13824" stroke-miterlimit="10"/>
<path d="M985.782 1475.46C994.196 1475.46 1001.02 1468.64 1001.02 1460.22C1001.02 1451.81 994.196 1444.98 985.782 1444.98C977.367 1444.98 970.545 1451.81 970.545 1460.22C970.545 1468.64 977.367 1475.46 985.782 1475.46Z" fill="#FEF2E5"/>
<mask id="mask5_140_657" style="mask-type:alpha" maskUnits="userSpaceOnUse" x="970" y="1444" width="32" height="32">
<path d="M985.782 1475.46C994.196 1475.46 1001.02 1468.64 1001.02 1460.22C1001.02 1451.81 994.196 1444.98 985.782 1444.98C977.367 1444.98 970.545 1451.81 970.545 1460.22C970.545 1468.64 977.367 1475.46 985.782 1475.46Z" fill="#FEF2E5"/>
</mask>
<g mask="url(#mask5_140_657)">
<path d="M995.051 1445.91C995.051 1445.91 971.933 1456.3 981.557 1480.11C991.181 1503.93 959.412 1458.67 959.412 1458.67L980.595 1437.97L995.051 1445.91Z" fill="#F7E5D2"/>
</g>
<path d="M985.782 1475.46C994.196 1475.46 1001.02 1468.64 1001.02 1460.22C1001.02 1451.81 994.196 1444.98 985.782 1444.98C977.367 1444.98 970.545 1451.81 970.545 1460.22C970.545 1468.64 977.367 1475.46 985.782 1475.46Z" stroke="#E0A07C" stroke-width="2.13824" stroke-miterlimit="10"/>
<path d="M996.024 932.496C990.432 915.092 979.055 910.209 960.111 907.169C950.001 905.696 939.709 906.039 929.719 908.183C929.547 908.638 929.354 909.084 929.152 909.53C928.919 909.279 928.668 909.045 928.402 908.831L928.057 908.537L929.658 908.183C932.93 899.886 930.671 891.041 923.691 884.629C913.561 875.42 898.709 871.662 883.26 872.715C877.06 873.151 871.012 874.225 864.873 875.268C848.512 877.882 835.717 883.373 821.382 888.985C814.173 891.904 807.505 896.013 801.657 901.142C803.151 902.481 804.228 904.222 804.757 906.156C805.163 907.684 805.222 909.283 804.93 910.837C803.663 911.009 802.407 911.222 801.161 911.505C797.071 912.346 793.194 914.007 789.764 916.388C789.964 915.628 790.26 914.896 790.645 914.21C793.569 909.287 797.29 904.885 801.657 901.182C801.362 900.919 801.047 900.679 800.715 900.463C794.769 896.877 786.634 893.959 780.018 895.732C756.049 902.094 743.791 929.913 736.335 958.248C734.825 964.573 733.829 971.011 733.357 977.496C730.885 1005.24 734.238 1022.22 740.448 1039.55C747.458 1059.22 756.657 1068.93 774.548 1081.08L761.854 1130.95C760.971 1134.44 761.477 1138.14 763.267 1141.26C765.056 1144.39 767.989 1146.7 771.448 1147.7C790.088 1153.14 826.326 1160.23 862.35 1147.06C865.002 1146.1 867.296 1144.35 868.926 1142.04C870.555 1139.74 871.442 1136.99 871.468 1134.17C871.539 1127.51 871.701 1118.43 872.146 1111.23C911.372 1095.54 921.787 1072.92 929.182 1049.19C935.017 1030.37 935.99 1003.6 935.189 983.939C958.703 979.087 967 977.75 985.336 964.519C992.255 959.515 993.866 955.047 995.72 950.944C998.253 945.159 997.959 938.504 996.024 932.496Z" fill="#E7AB43"/>
<mask id="mask6_140_657" style="mask-type:alpha" maskUnits="userSpaceOnUse" x="732" y="872" width="266" height="283">
<path d="M996.024 932.5C990.432 915.096 979.055 910.213 960.111 907.173C950 905.7 939.708 906.043 929.719 908.186C929.546 908.642 929.354 909.088 929.151 909.534C928.919 909.283 928.668 909.049 928.402 908.835L928.057 908.541L929.658 908.186C932.93 899.889 930.671 891.045 923.691 884.633C913.56 875.424 898.709 871.665 883.259 872.719C877.06 873.155 871.012 874.229 864.872 875.272C848.511 877.886 835.716 883.376 821.382 888.989C814.172 891.908 807.505 896.017 801.657 901.146C803.151 902.484 804.227 904.226 804.757 906.16C805.163 907.688 805.222 909.287 804.929 910.841C803.663 911.013 802.407 911.226 801.161 911.509C797.071 912.35 793.194 914.011 789.764 916.392C789.964 915.632 790.26 914.9 790.645 914.214C793.569 909.291 797.29 904.889 801.657 901.186C801.361 900.923 801.046 900.683 800.715 900.467C794.768 896.881 786.633 893.963 780.018 895.736C756.049 902.098 743.791 929.917 736.335 958.252C734.824 964.577 733.828 971.014 733.356 977.5C730.884 1005.25 734.238 1022.23 740.448 1039.55C747.458 1059.22 756.657 1068.93 774.548 1081.09L761.854 1130.95C760.97 1134.44 761.477 1138.14 763.266 1141.26C765.056 1144.39 767.989 1146.7 771.448 1147.71C790.088 1153.15 826.325 1160.24 862.35 1147.07C865.002 1146.1 867.296 1144.35 868.926 1142.04C870.555 1139.74 871.442 1136.99 871.467 1134.17C871.538 1127.51 871.7 1118.44 872.146 1111.24C911.372 1095.54 921.786 1072.92 929.182 1049.19C935.017 1030.37 935.989 1003.61 935.189 983.943C958.702 979.091 966.999 977.754 985.336 964.523C992.255 959.518 993.866 955.051 995.72 950.948C998.252 945.163 997.959 938.507 996.024 932.5Z" fill="#E7AB43"/>
</mask>
<g mask="url(#mask6_140_657)">
<path opacity="0.6" d="M935.017 1011C935.017 1011 923.57 1072.16 892.681 1088.35C866.514 1102.08 845.169 1097.02 847.174 1104.25C849.18 1111.47 870.222 1120.25 870.84 1127.19L894.657 1125.69L943.618 1080.41L935.017 1011Z" fill="#CC8F3F"/>
</g>
<path opacity="0.6" d="M928.989 903.93C928.989 903.93 763.961 903.99 732.728 994.265C731.663 980.451 734.388 966.608 740.61 954.228C750.964 933.967 787.211 912.136 813.926 904.355C840.64 896.575 870.495 885.441 928.989 903.93Z" fill="#CC8F3F"/>
<path d="M952.685 1484.76C933.965 1495.24 913.571 1502.4 892.408 1505.92C886.542 1506.93 880.636 1507.55 874.699 1507.95C873.899 1507.96 873.136 1508.29 872.57 1508.86C872.004 1509.42 871.678 1510.18 871.66 1510.98C871.66 1511.79 871.98 1512.56 872.55 1513.13C873.12 1513.7 873.893 1514.02 874.699 1514.02C896.912 1512.54 918.701 1507.23 939.1 1498.31C944.793 1495.82 950.352 1493.05 955.775 1490C959.189 1488.09 956.129 1482.83 952.736 1484.76H952.685Z" fill="#9D6434"/>
<path d="M949.868 1536.97C934.42 1544.81 917.298 1548.78 899.975 1548.54C896.065 1548.54 896.065 1554.62 899.975 1554.62C918.373 1554.84 936.549 1550.58 952.938 1542.22C953.634 1541.81 954.139 1541.15 954.345 1540.37C954.55 1539.59 954.437 1538.76 954.032 1538.06C953.615 1537.38 952.948 1536.88 952.171 1536.68C951.395 1536.47 950.569 1536.58 949.868 1536.97Z" fill="#9D6434"/>
<path d="M934.845 1578.08C934.461 1578.33 934.062 1578.56 933.649 1578.75L933.052 1579.03C933.771 1578.71 933.052 1579.03 932.9 1579.03C931.795 1579.41 930.691 1579.77 929.567 1580.04C926.896 1580.72 924.191 1581.25 921.462 1581.64L919.963 1581.85L917.683 1582.13C916.346 1582.27 914.999 1582.39 913.631 1582.49C911.533 1582.67 909.426 1582.74 907.32 1582.7C903.409 1582.6 903.409 1588.68 907.32 1588.78C912.591 1588.82 917.856 1588.39 923.053 1587.51C925.885 1587.1 928.692 1586.54 931.461 1585.82C933.728 1585.3 935.901 1584.44 937.904 1583.25C938.278 1583.07 938.61 1582.81 938.88 1582.49C939.15 1582.17 939.351 1581.8 939.472 1581.41C939.593 1581.01 939.631 1580.59 939.583 1580.17C939.535 1579.76 939.403 1579.36 939.194 1579C938.985 1578.64 938.705 1578.33 938.369 1578.08C938.034 1577.83 937.652 1577.66 937.246 1577.56C936.84 1577.47 936.419 1577.46 936.01 1577.54C935.6 1577.61 935.21 1577.77 934.865 1578L934.845 1578.08Z" fill="#9D6434"/>
<path d="M733.356 977.545C730.581 990.39 669.067 990.958 660.7 986.308C652.332 981.658 617.492 981.242 605.872 954.71C594.253 928.178 629.112 846.454 632.364 833.446C635.616 820.439 665.35 790.705 671.387 786.987C677.425 783.269 681.609 754.458 689.977 756.322C698.345 758.186 752.696 753.07 760.132 751.672C767.568 750.274 794.049 734.014 803.339 726.122C812.629 718.231 823.783 713.104 849.342 711.251C874.902 709.397 902.346 720.571 913.034 720.571C918.368 720.618 923.636 721.755 928.514 723.914C933.392 726.072 937.777 729.206 941.399 733.123C948.835 741.014 954.873 771.68 965.561 777.697C976.249 783.715 992.975 846.464 980.423 845.573C967.871 844.681 925.14 873.442 925.14 873.442C921.888 886.46 929.78 908.292 929.78 908.292C864.113 880.108 801.738 907.471 767.466 928.847C758.871 934.21 751.438 941.242 745.609 949.529C739.78 957.815 735.672 967.187 733.529 977.089C733.468 977.21 733.438 977.372 733.356 977.545Z" fill="#FCF2E6"/>
<mask id="mask7_140_657" style="mask-type:alpha" maskUnits="userSpaceOnUse" x="603" y="711" width="382" height="278">
<path d="M733.357 977.541C730.581 990.386 669.068 990.954 660.7 986.304C652.332 981.654 617.493 981.238 605.873 954.706C594.253 928.174 629.112 846.45 632.364 833.442C635.616 820.435 665.35 790.701 671.388 786.983C677.425 783.265 681.609 754.454 689.977 756.318C698.345 758.182 752.696 753.066 760.132 751.668C767.568 750.27 794.049 734.01 803.339 726.118C812.629 718.227 823.783 713.101 849.342 711.247C874.902 709.393 902.346 720.567 913.034 720.567C918.368 720.614 923.636 721.751 928.515 723.91C933.393 726.069 937.778 729.202 941.4 733.119C948.836 741.011 954.873 771.676 965.561 777.694C976.249 783.711 992.975 846.46 980.423 845.569C967.871 844.677 925.14 873.438 925.14 873.438C921.888 886.456 929.78 908.288 929.78 908.288C864.113 880.104 801.739 907.467 767.467 928.843C758.871 934.206 751.439 941.238 745.609 949.525C739.78 957.811 735.672 967.183 733.529 977.085C733.468 977.206 733.438 977.369 733.357 977.541Z" fill="#FCF2E6"/>
</mask>
<g mask="url(#mask7_140_657)">
<path d="M983.199 826.938C983.199 826.938 940.447 842.731 928.837 857.603C917.228 872.475 937.195 898.49 937.195 898.49L1006.43 842.772L983.199 826.938Z" fill="#F7E0CA"/>
<path d="M926.974 877.115C926.974 877.115 922.02 867.207 928.838 857.603C935.656 848 905.598 843.36 895.072 848C884.546 852.639 884.85 854.503 873.697 850.167C862.543 845.832 830.641 831.588 816.084 834.374C801.526 837.16 803.38 852.953 777.364 865.039C751.349 877.125 732.141 887.955 732.141 887.955C732.141 887.955 740.246 892.605 728.737 911.498C717.229 930.392 712.629 938.76 697.14 943.714C681.65 948.668 701.192 953.318 703.643 962.304C706.095 971.289 705.811 983.051 705.811 983.051L720.055 987.103L749.181 970.378L784.486 932.58C784.486 932.58 856.971 911.215 857.903 911.215C858.835 911.215 903.744 911.833 903.744 911.833C903.744 911.833 930.084 927.94 935.959 927.323C941.835 926.705 955.208 906.565 954.539 905.329C953.87 904.093 926.974 877.115 926.974 877.115Z" fill="#F7E0CA"/>
</g>
<path d="M732.729 887.569C732.729 887.569 749.536 900.049 762.543 933.511C762.543 933.511 740.195 948.667 739.729 959.81L734.663 959.496C734.663 959.496 728.778 937.817 717.31 930.695C717.31 930.695 741.724 899.574 732.769 887.559" fill="#EFBC96"/>
<path d="M702.093 959.51C702.093 959.51 691.254 958.588 681.964 962.924C672.674 967.26 633.945 913.669 623.723 908.401C613.501 903.133 640.155 905.959 653.152 923.273C666.15 940.586 684.719 951.851 692.662 945.773C692.662 945.773 688.498 946.786 693.138 951.456C697.778 956.126 699.956 953.624 702.124 959.56" fill="#F7E0CA"/>
<path d="M639.375 881.648C639.375 881.648 645.058 899.306 671.317 900.704C697.575 902.102 693.604 908.14 700.695 911.969C707.787 915.799 724.847 914.056 731.472 907.785C731.472 907.785 741.117 886.876 729.841 888.973C729.841 888.973 712.427 900.35 702.316 894.666C692.206 888.983 696.238 885.154 688.377 885.093C680.515 885.032 653.183 897.331 639.365 881.648" fill="#F7E0CA"/>
<path d="M730.92 983.61C733.03 982.282 734.818 980.524 735.399 978.202C735.44 978.094 735.467 978.008 735.482 977.964C735.482 977.963 735.482 977.963 735.482 977.963L735.562 977.804L735.619 977.541C737.701 967.919 741.693 958.811 747.358 950.759C753.022 942.707 760.245 935.872 768.598 930.661C802.687 909.399 864.257 882.497 928.936 910.257L933.466 912.201L931.791 907.565L931.79 907.565L931.79 907.563L931.787 907.554L931.772 907.512C931.758 907.474 931.737 907.415 931.71 907.338C931.656 907.182 931.575 906.949 931.473 906.646C931.27 906.04 930.98 905.155 930.642 904.051C929.965 901.84 929.096 898.761 928.328 895.287C926.836 888.538 925.81 880.661 927.035 874.748C927.329 874.553 927.712 874.299 928.175 873.995C929.361 873.214 931.071 872.1 933.163 870.765C937.348 868.093 943.054 864.543 949.144 861.025C955.242 857.501 961.687 854.032 967.359 851.504C970.197 850.241 972.802 849.23 975.05 848.565C977.337 847.888 979.085 847.621 980.271 847.706C981.527 847.795 982.704 847.479 983.703 846.75C984.662 846.05 985.323 845.066 985.783 844.021C986.685 841.972 987.022 839.216 987.037 836.201C987.068 830.098 985.776 821.957 983.785 813.723C981.788 805.466 979.053 796.969 976.123 790.125C974.659 786.707 973.127 783.652 971.587 781.231C970.094 778.882 968.429 776.858 966.61 775.834C964.467 774.628 962.324 772.017 960.181 768.247C958.073 764.538 956.129 760.009 954.245 755.316C953.649 753.831 953.057 752.324 952.468 750.826C951.22 747.648 949.988 744.512 948.769 741.716C946.996 737.652 945.102 733.938 942.962 731.663C939.143 727.536 934.521 724.234 929.38 721.958C924.235 719.682 918.678 718.482 913.052 718.433L913.043 718.433H913.034C910.636 718.433 907.141 717.793 902.642 716.769C900.654 716.316 898.515 715.8 896.234 715.249L895.425 715.054C892.845 714.432 890.099 713.774 887.234 713.129C875.799 710.558 862.294 708.167 849.188 709.118C823.342 710.993 811.699 716.214 801.955 724.493C797.445 728.324 788.622 734.29 779.94 739.499C775.614 742.094 771.365 744.476 767.754 746.289C764.064 748.142 761.263 749.284 759.737 749.57C756.154 750.244 740.829 751.865 725.237 753.088C717.469 753.698 709.691 754.204 703.343 754.441C700.168 754.56 697.371 754.611 695.122 754.577C692.819 754.541 691.252 754.415 690.442 754.235C686.903 753.446 684.316 756.06 682.612 758.619C680.801 761.337 679.232 765.087 677.812 768.797C677.323 770.073 676.852 771.344 676.391 772.587C675.474 775.061 674.597 777.428 673.698 779.521C673.03 781.077 672.387 782.389 671.76 783.397C671.109 784.445 670.596 784.963 670.266 785.167C668.536 786.232 665.39 788.945 661.725 792.438C657.998 795.989 653.577 800.499 649.244 805.301C644.914 810.098 640.647 815.216 637.244 819.98C633.89 824.676 631.208 829.254 630.29 832.928C629.649 835.492 627.69 840.943 625.021 848.371C624.447 849.969 623.839 851.658 623.206 853.43C619.659 863.343 615.345 875.648 611.495 888.388C607.647 901.117 604.243 914.343 602.536 926.091C600.845 937.729 600.749 948.341 603.914 955.568C610.068 969.621 622.343 976.643 633.787 980.729C639.494 982.766 645.083 984.105 649.688 985.207L649.739 985.219C652.065 985.776 654.108 986.266 655.83 986.759C657.576 987.259 658.839 987.72 659.661 988.177C661.062 988.955 663.267 989.497 665.767 989.904C668.352 990.324 671.531 990.639 675.07 990.841C682.152 991.247 690.803 991.209 699.273 990.62C707.725 990.032 716.102 988.889 722.594 987.044C725.832 986.124 728.712 984.999 730.92 983.61ZM980.423 845.573C967.871 844.681 925.14 873.442 925.14 873.442L913.034 720.571C918.368 720.618 923.636 721.755 928.514 723.914C933.392 726.072 937.777 729.206 941.399 733.123C944.516 736.431 947.388 743.741 950.459 751.559C954.714 762.393 959.353 774.202 965.561 777.697C976.249 783.715 992.975 846.464 980.423 845.573Z" stroke="#E0A07C" stroke-width="4.27648" stroke-miterlimit="10"/>
<path d="M899.813 847.918C904.119 846.905 907.999 844.231 911.595 841.789C915.647 839.034 919.598 836.035 923.954 833.746C924.461 833.472 924.967 833.219 925.494 832.976C925.959 832.753 926.436 832.557 926.923 832.388C927.439 832.196 927.936 832.023 928.513 831.882L929.293 831.699L929.557 831.649H929.779C930.179 831.638 930.56 831.475 930.843 831.192C931.125 830.909 931.289 830.529 931.299 830.129C931.299 829.726 931.139 829.339 930.854 829.054C930.569 828.769 930.182 828.609 929.779 828.609C925.271 829.167 921.209 831.649 917.481 834.12C913.348 836.835 909.376 839.844 905.152 842.336C903.259 843.555 901.183 844.461 899.003 845.021C898.627 845.143 898.312 845.404 898.124 845.751C897.935 846.098 897.887 846.504 897.989 846.885C898.103 847.271 898.362 847.597 898.711 847.796C899.061 847.994 899.474 848.049 899.864 847.949L899.813 847.918Z" fill="#E0A07C"/>
<mask id="path-169-inside-1_140_657" fill="white">
<path d="M928.878 857.604C928.878 857.604 935.969 848.314 911.22 846.46C886.471 844.606 890.463 855.76 882.105 852.964C873.747 850.168 825.11 826.948 810.552 836.552C795.994 846.156 799.084 854.514 786.39 859.468C773.697 864.421 729.081 889.515 729.081 889.515C729.081 889.515 736.173 885.463 734.967 896.951C733.762 908.439 716.074 934.738 709.57 938.152C703.066 941.566 683.858 943.724 693.148 951.464C702.438 959.204 706.166 958.9 705.852 983.061"/>
</mask>
<path d="M926.328 855.657C925.254 857.065 925.524 859.078 926.932 860.153C928.34 861.228 930.353 860.958 931.427 859.55L926.328 855.657ZM729.081 889.515L727.49 886.73L730.654 892.311L729.081 889.515ZM702.645 983.02C702.622 984.791 704.039 986.246 705.81 986.269C707.581 986.292 709.036 984.874 709.059 983.103L702.645 983.02ZM928.878 857.604C931.427 859.55 931.429 859.547 931.431 859.545C931.431 859.544 931.433 859.542 931.434 859.54C931.437 859.537 931.44 859.534 931.442 859.53C931.448 859.523 931.454 859.515 931.46 859.506C931.473 859.489 931.487 859.47 931.503 859.448C931.535 859.403 931.573 859.349 931.616 859.284C931.702 859.156 931.81 858.986 931.927 858.779C932.158 858.37 932.442 857.787 932.664 857.07C933.11 855.625 933.335 853.488 932.179 851.254C931.045 849.061 928.857 847.31 925.616 846.007C922.378 844.706 917.82 843.738 911.46 843.261L910.981 849.658C916.995 850.109 920.831 850.997 923.224 851.959C925.614 852.92 926.294 853.838 926.481 854.2C926.646 854.52 926.645 854.821 926.535 855.176C926.478 855.359 926.402 855.517 926.342 855.623C926.313 855.674 926.293 855.705 926.287 855.713C926.284 855.717 926.286 855.715 926.292 855.706C926.296 855.702 926.3 855.695 926.306 855.687C926.309 855.683 926.312 855.679 926.316 855.674C926.318 855.671 926.32 855.669 926.322 855.666C926.323 855.665 926.325 855.662 926.325 855.662C926.327 855.66 926.328 855.657 928.878 857.604ZM911.46 843.261C898.555 842.295 892.572 844.7 888.671 847.441C887.785 848.064 887.019 848.697 886.468 849.135C885.863 849.616 885.509 849.869 885.209 850.026C884.931 850.172 884.542 850.397 883.122 849.922L881.087 856.005C883.847 856.929 886.092 856.808 888.19 855.706C889.078 855.24 889.847 854.644 890.46 854.156C891.128 853.626 891.676 853.17 892.36 852.689C894.741 851.016 899.136 848.771 910.981 849.658L911.46 843.261ZM883.122 849.922C881.159 849.265 876.764 847.378 870.652 844.897C864.665 842.468 857.27 839.572 849.658 837.062C842.068 834.559 834.141 832.399 827.109 831.491C820.274 830.608 813.464 830.788 808.786 833.875L812.318 839.229C814.919 837.514 819.648 836.995 826.288 837.853C832.731 838.684 840.215 840.703 847.649 843.154C855.06 845.598 862.301 848.431 868.24 850.841C874.053 853.201 878.871 855.264 881.087 856.005L883.122 849.922ZM808.786 833.875C800.953 839.042 797.795 843.98 795.112 847.961C793.794 849.918 792.707 851.457 791.269 852.818C789.872 854.14 788.046 855.379 785.224 856.48L787.556 862.455C791.082 861.08 793.63 859.416 795.678 857.477C797.686 855.578 799.117 853.498 800.432 851.546C803.017 847.709 805.594 843.666 812.318 839.229L808.786 833.875ZM785.224 856.48C778.648 859.046 764.117 866.675 751.45 873.528C745.067 876.981 739.083 880.279 734.695 882.712C732.501 883.929 730.706 884.93 729.458 885.628C728.834 885.976 728.348 886.249 728.017 886.435C727.851 886.527 727.724 886.599 727.639 886.647C727.596 886.67 727.564 886.689 727.542 886.701C727.531 886.707 727.523 886.712 727.518 886.715C727.515 886.716 727.513 886.718 727.511 886.718C727.511 886.719 727.51 886.719 727.51 886.719C727.509 886.719 727.509 886.72 729.081 889.515C730.654 892.311 730.654 892.311 730.654 892.31C730.654 892.31 730.655 892.31 730.656 892.31C730.657 892.309 730.659 892.308 730.661 892.306C730.667 892.303 730.675 892.299 730.685 892.293C730.707 892.281 730.738 892.263 730.78 892.239C730.865 892.192 730.99 892.122 731.154 892.03C731.483 891.845 731.967 891.574 732.588 891.227C733.83 890.532 735.62 889.535 737.807 888.322C742.181 885.895 748.144 882.609 754.502 879.17C767.315 872.238 781.439 864.843 787.556 862.455L785.224 856.48ZM729.081 889.515C730.673 892.3 730.671 892.301 730.67 892.302C730.669 892.302 730.668 892.303 730.667 892.303C730.665 892.304 730.663 892.305 730.661 892.306C730.658 892.308 730.655 892.31 730.652 892.311C730.647 892.314 730.643 892.317 730.64 892.318C730.635 892.321 730.636 892.32 730.641 892.318C730.652 892.312 730.682 892.297 730.727 892.276C730.821 892.233 730.96 892.175 731.121 892.125C731.513 892.003 731.689 892.034 731.667 892.029C731.428 891.966 731.436 891.78 731.579 892.136C731.795 892.674 732.055 893.974 731.777 896.616L738.157 897.286C738.483 894.184 738.308 891.682 737.533 889.749C736.685 887.634 735.147 886.307 733.286 885.821C731.642 885.393 730.12 885.719 729.22 885.998C728.735 886.149 728.33 886.318 728.04 886.451C727.894 886.519 727.772 886.579 727.68 886.627C727.634 886.651 727.595 886.672 727.563 886.69C727.547 886.698 727.533 886.706 727.521 886.713C727.515 886.716 727.509 886.72 727.504 886.722C727.501 886.724 727.499 886.725 727.497 886.727C727.496 886.727 727.494 886.728 727.493 886.729C727.492 886.729 727.49 886.73 729.081 889.515ZM731.777 896.616C731.533 898.943 730.389 902.347 728.499 906.399C726.642 910.377 724.188 914.724 721.552 918.854C718.916 922.984 716.135 926.839 713.644 929.842C712.397 931.345 711.25 932.603 710.253 933.564C709.217 934.562 708.489 935.097 708.079 935.312L711.06 940.992C712.277 940.354 713.524 939.321 714.705 938.182C715.925 937.007 717.236 935.559 718.581 933.937C721.274 930.691 724.209 926.613 726.959 922.305C729.709 917.997 732.309 913.402 734.311 909.112C736.279 904.895 737.799 900.703 738.157 897.286L731.777 896.616ZM708.079 935.312C706.765 936.002 704.658 936.691 701.997 937.523C699.492 938.306 696.579 939.193 694.159 940.244C692.939 940.773 691.721 941.396 690.676 942.145C689.657 942.877 688.57 943.895 687.948 945.299C687.263 946.843 687.292 948.513 687.979 950.09C688.61 951.539 689.741 952.8 691.095 953.928L695.201 949C694.233 948.193 693.932 947.694 693.86 947.529C693.845 947.494 693.901 947.699 693.812 947.899C693.786 947.958 693.864 947.754 694.417 947.357C694.945 946.978 695.706 946.565 696.714 946.128C698.747 945.245 701.275 944.469 703.91 943.645C706.39 942.871 709.123 942.01 711.06 940.992L708.079 935.312ZM691.095 953.928C692.297 954.929 693.408 955.8 694.39 956.573C695.388 957.359 696.234 958.029 696.99 958.688C698.467 959.973 699.484 961.114 700.262 962.596C701.895 965.706 702.802 970.903 702.645 983.02L709.059 983.103C709.215 971.059 708.416 964.326 705.941 959.613C704.665 957.183 703.027 955.439 701.202 953.85C700.308 953.071 699.34 952.306 698.358 951.533C697.359 950.747 696.322 949.933 695.201 949L691.095 953.928Z" fill="#E0A07C" mask="url(#path-169-inside-1_140_657)"/>
<path d="M637.399 883.565C647.53 894.132 663.242 893.696 676.473 890.768C679.907 890.018 683.342 888.995 686.877 888.874C688.472 888.783 690.07 888.975 691.598 889.441C693.27 890.086 694.821 891.007 696.187 892.166C700.863 895.687 706.544 897.615 712.396 897.667C719.06 897.759 725.534 895.446 730.631 891.153C732.121 889.877 729.963 887.739 728.484 889.005C724.208 892.558 718.846 894.541 713.288 894.628C707.66 894.762 702.154 892.975 697.676 889.563C695.3 887.582 692.407 886.321 689.339 885.926C686.064 885.741 682.78 886.083 679.613 886.939C672.522 888.529 665.431 890.039 658.126 889.502C651.238 888.995 644.359 886.463 639.506 881.397C638.149 879.979 636.001 882.137 637.359 883.545L637.399 883.565Z" fill="#E0A07C"/>
<path d="M621.919 907.461C633.012 908.832 643.358 913.77 651.4 921.533C653.359 923.405 655.159 925.438 656.779 927.611C658.602 930.073 660.082 932.757 661.773 935.3C664.779 939.945 669.317 943.389 674.599 945.036C680.545 946.92 686.938 947.011 693.128 946.981C693.531 946.981 693.917 946.821 694.202 946.536C694.487 946.251 694.647 945.864 694.647 945.461C694.647 945.058 694.487 944.672 694.202 944.387C693.917 944.102 693.531 943.941 693.128 943.941C687.627 943.941 681.984 943.941 676.665 942.473C674.096 941.818 671.661 940.718 669.473 939.221C667.122 937.445 665.152 935.216 663.678 932.666C660.578 927.773 657.478 923.123 653.253 919.121C644.664 910.935 633.637 905.774 621.848 904.422C619.914 904.199 619.924 907.238 621.848 907.461H621.919Z" fill="#E0A07C"/>
<path d="M841.917 824.08C853.567 828.183 865.349 832.357 875.692 839.114C879.826 841.809 884.678 845.051 889.267 843.258C892.063 842.163 893.857 839.459 896.298 837.736C900.766 834.586 907.705 834.343 909.984 829.379C900.553 830.614 890.645 831.8 881.801 828.295C885.12 827.932 888.251 826.568 890.777 824.384L862.715 818.184C856.059 816.705 848.927 815.267 842.595 817.779C842 817.949 841.446 818.241 840.97 818.637C840.493 819.033 840.105 819.524 839.83 820.079C839.414 821.244 840.326 822.844 841.542 822.621" fill="#F7E0CA"/>
<path d="M749.707 755.366C750.893 762.458 749.707 767.178 745.493 773.004C742.778 776.792 739.08 779.903 737.004 784.076C735.879 786.335 735.535 789.577 737.652 790.945C740.154 792.566 743.224 790.053 745.209 787.815C755.766 775.931 770.1 765.811 775.824 750.969C776.058 750.477 776.163 749.933 776.128 749.389C775.946 748.143 774.376 747.535 773.15 747.839C771.488 748.434 769.884 749.18 768.358 750.068C765.283 751.753 761.948 752.914 758.491 753.502C755.087 754.211 752.716 754.161 749.525 754.647" fill="#F7E0CA"/>
<path d="M676.159 783.223C676.28 788.197 672.704 787.933 671.853 792.827C671.575 794.806 671.493 796.808 671.61 798.804C671.742 804.092 674.041 814.111 675.531 820.574C675.595 820.847 675.573 821.133 675.468 821.393C675.364 821.652 675.181 821.873 674.946 822.025C674.711 822.177 674.434 822.253 674.155 822.242C673.875 822.23 673.605 822.133 673.383 821.962C669.817 819.065 665.896 812.328 664.113 809.674L660.254 803.92C659.639 803.06 659.375 801.999 659.514 800.951C659.788 799.229 661.084 798.307 662.381 797.071C663.232 796.251 664.407 795.106 665.299 794.316C666.19 793.526 668.044 791.662 668.936 790.871C672.066 788.106 672.461 788.896 674.72 785.695" fill="#F7E0CA"/>
<path d="M930.62 906.709C922.204 907.007 913.934 909.002 906.307 912.575C902.731 914.246 898.871 916.211 896.014 918.987C893.157 921.763 891.577 926.231 893.907 929.776C895.933 932.876 899.823 934.001 903.359 933.504C907.685 932.886 911.788 930.465 915.516 928.328C922.07 924.66 928.777 919.99 932.231 913.071C935.686 906.152 935.341 897.054 929.374 891.797C927.551 890.176 924.856 892.81 926.69 894.481C930.975 898.28 931.441 904.531 929.587 909.677C927.46 915.614 922.05 919.919 916.873 923.141C913.737 925.108 910.474 926.868 907.107 928.409C904.372 929.645 900.857 930.739 898.152 928.844C895.447 926.95 896.784 923.475 898.82 921.55C901.272 919.23 904.585 917.609 907.594 916.161C914.798 912.713 922.638 910.795 930.62 910.528C933.062 910.437 933.072 906.638 930.62 906.729V906.709Z" fill="#9D6434"/>
<path d="M788.467 916.762C787.333 919.447 786.765 922.76 789.197 924.958C789.733 925.456 790.381 925.816 791.087 926.008C791.793 926.201 792.534 926.219 793.249 926.062C794.362 925.778 795.427 925.33 796.41 924.735C800.867 922.223 803.187 917.796 806.074 913.814C806.325 913.377 806.394 912.859 806.265 912.371C806.136 911.884 805.82 911.467 805.385 911.211C804.949 910.97 804.436 910.906 803.953 911.032C803.47 911.158 803.055 911.465 802.792 911.89C801.708 913.389 800.766 914.99 799.682 916.499C798.592 918.052 797.286 919.44 795.802 920.622C795.119 921.115 794.393 921.545 793.634 921.909C793.351 922.053 793.056 922.172 792.753 922.263L792.236 922.395C792.489 922.395 792.499 922.395 792.236 922.395C792.368 922.395 792.368 922.395 792.236 922.395C791.988 922.332 791.766 922.194 791.599 922C791.432 921.806 791.329 921.566 791.304 921.311C791.202 920.408 791.36 919.494 791.76 918.677C791.998 918.242 792.062 917.732 791.94 917.251C791.818 916.77 791.518 916.353 791.101 916.084C790.665 915.836 790.149 915.769 789.664 915.898C789.179 916.027 788.764 916.341 788.508 916.773L788.467 916.762Z" fill="#9D6434"/>
<path d="M958.257 1238.1C958.257 1238.1 1038.03 1350.34 1038.75 1471.1C1039.48 1591.87 1021.83 1603.81 1021.83 1603.81C1021.83 1603.81 1031.52 1526.26 1019.89 1426.31C1009.65 1338.28 960.404 1248.81 960.404 1248.81L958.257 1238.1Z" fill="#DD8F28"/>
<path d="M949.889 1225.34C942.575 1221.65 934.146 1213.69 928.716 1196.75C922.638 1177.8 902.954 1166.05 885.985 1159.27C888.011 1156.67 889.409 1153.74 889.156 1150.46C888.67 1144.38 882.399 1140.1 876.351 1139.94C870.303 1139.78 864.619 1142.76 859.655 1146.21C855.881 1148.8 852.405 1151.79 849.292 1155.15C843.963 1155.15 837.844 1155.54 837.844 1155.54C836.589 1156.49 835.385 1157.51 834.238 1158.58C827.146 1151.16 802.62 1137.25 786.877 1129.45C784.022 1127.86 780.95 1126.7 777.759 1126.01C774.39 1125.48 770.942 1125.75 767.698 1126.81C764.455 1127.86 761.508 1129.67 759.099 1132.09C755.046 1136.48 753.902 1141.99 753.932 1147.29C753.932 1151.67 754.763 1156.17 757.599 1160.03C761.287 1165.1 768.024 1168.52 774.821 1171.36C791.922 1178.45 798.01 1182.81 816.256 1184.26C811.454 1195.98 809.093 1211.11 814.138 1229.27C827.237 1276.44 839.04 1234.6 852.25 1212.16C855.976 1205.54 858.42 1198.28 859.453 1190.76C861.003 1193.9 862.826 1197.28 864.964 1200.89C883.31 1232.21 925.748 1232.86 948.815 1230.6C949.409 1230.54 949.967 1230.29 950.409 1229.88C950.851 1229.48 951.154 1228.95 951.273 1228.36C951.393 1227.78 951.323 1227.17 951.074 1226.63C950.825 1226.08 950.41 1225.63 949.889 1225.34Z" fill="#DD8F28"/>
<path d="M1019.81 1599.91C1019.01 1599.81 1018.28 1599.4 1017.79 1598.77C1017.29 1598.14 1017.06 1597.33 1017.16 1596.53C1027.85 1503.38 1017.79 1409.01 987.686 1320.21C968.003 1262.46 945.624 1225.16 939.546 1215.54C939.127 1214.87 938.983 1214.07 939.146 1213.3C939.308 1212.53 939.764 1211.85 940.417 1211.41C940.754 1211.18 941.133 1211.02 941.531 1210.94C941.93 1210.87 942.34 1210.87 942.738 1210.95C943.135 1211.03 943.512 1211.2 943.846 1211.43C944.18 1211.66 944.464 1211.95 944.682 1212.3C950.983 1222.28 973.615 1260.13 993.441 1318.24C1023.96 1407.88 1034.13 1503.19 1023.19 1597.24C1023.15 1597.64 1023.02 1598.02 1022.83 1598.37C1022.63 1598.72 1022.37 1599.03 1022.06 1599.28C1021.74 1599.52 1021.38 1599.71 1021 1599.82C1020.61 1599.92 1020.21 1599.95 1019.81 1599.91Z" fill="#FEF2E5"/>
<path d="M944.368 1212.63C937.053 1208.94 928.625 1200.99 923.205 1184.05C917.127 1165.08 897.433 1153.34 880.464 1146.57C882.49 1143.96 883.898 1141.03 883.635 1137.75C883.158 1131.67 876.888 1127.4 870.84 1127.23C864.792 1127.05 859.108 1130.05 854.134 1133.51C850.363 1136.08 846.89 1139.06 843.781 1142.4C838.442 1142.4 832.323 1142.79 832.323 1142.79C831.067 1143.73 829.863 1144.75 828.716 1145.83C821.625 1138.4 797.109 1124.49 781.366 1116.68C778.51 1115.1 775.438 1113.95 772.248 1113.26C768.88 1112.72 765.434 1113 762.193 1114.05C758.951 1115.11 756.005 1116.92 753.598 1119.33C749.545 1123.73 748.401 1129.23 748.431 1134.53C748.431 1138.92 749.252 1143.42 752.088 1147.28C755.786 1152.35 762.513 1155.77 769.31 1158.61C786.411 1165.7 792.499 1170.07 810.745 1171.51C805.943 1183.24 803.592 1198.35 808.637 1216.53C821.736 1263.7 833.528 1221.86 846.749 1199.42C850.47 1192.79 852.911 1185.53 853.942 1178C855.502 1181.14 857.315 1184.53 859.453 1188.18C877.799 1219.51 920.237 1220.15 943.304 1217.9C943.896 1217.83 944.452 1217.57 944.891 1217.17C945.329 1216.76 945.629 1216.23 945.747 1215.65C945.865 1215.06 945.796 1214.46 945.548 1213.91C945.3 1213.37 944.887 1212.92 944.368 1212.63Z" fill="#FEF2E5"/>
<mask id="mask8_140_657" style="mask-type:alpha" maskUnits="userSpaceOnUse" x="748" y="1113" width="198" height="126">
<path d="M944.368 1212.64C937.053 1208.95 928.625 1201 923.205 1184.06C917.126 1165.09 897.432 1153.35 880.463 1146.57C882.49 1143.97 883.898 1141.04 883.634 1137.76C883.158 1131.68 876.887 1127.41 870.839 1127.23C864.791 1127.06 859.108 1130.06 854.134 1133.52C850.362 1136.09 846.89 1139.07 843.78 1142.41C838.442 1142.41 832.323 1142.79 832.323 1142.79C831.066 1143.74 829.862 1144.76 828.716 1145.83C821.625 1138.41 797.109 1124.5 781.366 1116.69C778.509 1115.11 775.438 1113.96 772.248 1113.26C768.88 1112.73 765.434 1113.01 762.192 1114.06C758.951 1115.12 756.005 1116.93 753.597 1119.34C749.545 1123.74 748.4 1129.24 748.431 1134.54C748.431 1138.92 749.251 1143.42 752.088 1147.29C755.786 1152.36 762.512 1155.78 769.31 1158.62C786.411 1165.71 792.499 1170.08 810.744 1171.52C805.942 1183.25 803.592 1198.36 808.637 1216.54C821.736 1263.7 833.528 1221.86 846.749 1199.43C850.47 1192.8 852.91 1185.54 853.941 1178.01C855.502 1181.15 857.315 1184.53 859.452 1188.19C877.799 1219.51 920.236 1220.16 943.304 1217.9C943.896 1217.83 944.451 1217.58 944.89 1217.18C945.329 1216.77 945.629 1216.24 945.747 1215.66C945.865 1215.07 945.795 1214.46 945.547 1213.92C945.3 1213.38 944.887 1212.93 944.368 1212.64Z" fill="#FEF2E5"/>
</mask>
<g mask="url(#mask8_140_657)">
<path d="M748.461 1110.02C748.461 1110.02 764.407 1161.29 825.93 1165.63C825.93 1165.63 805.851 1201.73 821.736 1253.76L784.911 1196.71L748.441 1165.66L729.608 1125.69L748.461 1110.02Z" fill="#F9E4CF"/>
</g>
<path d="M246.883 598.789C247.286 598.789 247.673 598.629 247.958 598.344C248.243 598.059 248.403 597.673 248.403 597.27C248.403 596.867 248.243 596.48 247.958 596.195C247.673 595.91 247.286 595.75 246.883 595.75C246.48 595.75 246.094 595.91 245.809 596.195C245.524 596.48 245.364 596.867 245.364 597.27C245.364 597.673 245.524 598.059 245.809 598.344C246.094 598.629 246.48 598.789 246.883 598.789Z" fill="#F9E4CF"/>
<path d="M121.222 559.785C121.625 559.785 122.012 559.625 122.297 559.34C122.582 559.055 122.742 558.669 122.742 558.266C122.742 557.863 122.582 557.476 122.297 557.191C122.012 556.906 121.625 556.746 121.222 556.746C120.819 556.746 120.433 556.906 120.148 557.191C119.863 557.476 119.703 557.863 119.703 558.266C119.703 558.669 119.863 559.055 120.148 559.34C120.433 559.625 120.819 559.785 121.222 559.785Z" fill="#F9E4CF"/>
<path d="M944.368 1212.63C937.053 1208.94 928.625 1200.99 923.205 1184.05C917.127 1165.08 897.433 1153.34 880.464 1146.57C882.49 1143.96 883.898 1141.03 883.635 1137.75C883.158 1131.67 876.888 1127.4 870.84 1127.23C864.792 1127.05 859.108 1130.05 854.134 1133.51C850.363 1136.08 846.89 1139.06 843.781 1142.4C838.442 1142.4 832.323 1142.79 832.323 1142.79C831.067 1143.73 829.863 1144.75 828.716 1145.83C821.625 1138.4 797.109 1124.49 781.366 1116.68C778.51 1115.1 775.438 1113.95 772.248 1113.26C768.88 1112.72 765.434 1113 762.193 1114.05C758.951 1115.11 756.005 1116.92 753.598 1119.33C749.545 1123.73 748.401 1129.23 748.431 1134.53C748.431 1138.92 749.252 1143.42 752.088 1147.28C755.786 1152.35 762.513 1155.77 769.31 1158.61C786.411 1165.7 792.499 1170.07 810.745 1171.51C805.943 1183.24 803.592 1198.35 808.637 1216.53C821.736 1263.7 833.528 1221.86 846.749 1199.42C850.47 1192.79 852.911 1185.53 853.942 1178C855.502 1181.14 857.315 1184.53 859.453 1188.18C877.799 1219.51 920.237 1220.15 943.304 1217.9C943.896 1217.83 944.452 1217.57 944.891 1217.17C945.329 1216.76 945.629 1216.23 945.747 1215.65C945.865 1215.06 945.796 1214.46 945.548 1213.91C945.3 1213.37 944.887 1212.92 944.368 1212.63V1212.63Z" stroke="#E0A07C" stroke-width="2.13824" stroke-miterlimit="10"/>
<path d="M696.44 1299.56C679.836 1327.22 637.683 1394.17 604.778 1418.09C604.283 1418.45 603.913 1418.95 603.719 1419.53C603.524 1420.11 603.516 1420.73 603.695 1421.32C603.873 1421.9 604.23 1422.41 604.715 1422.79C605.2 1423.16 605.789 1423.37 606.399 1423.39C627.603 1424.09 702.701 1434.53 699.095 1434.34C699.095 1434.34 667.163 1410.43 651.784 1409.35C637.713 1408.33 693.715 1354.16 702.438 1301.8C702.537 1301.06 702.383 1300.31 702 1299.67C701.618 1299.04 701.03 1298.55 700.333 1298.29C699.635 1298.03 698.871 1298.01 698.163 1298.24C697.456 1298.47 696.849 1298.94 696.44 1299.56Z" fill="#DD8F28"/>
<path d="M801.445 1468.21C801.445 1468.21 812.224 1470.78 832.525 1482.62C832.525 1482.62 800.482 1501.32 824.35 1620.17C824.35 1620.17 782.743 1591.71 801.445 1468.21Z" fill="#DD8F28"/>
<path d="M634.411 1423.18C634.411 1423.18 747.479 1437 832.525 1482.63C832.525 1482.63 798.294 1519.84 826.589 1625.96" stroke="#9D6434" stroke-width="6.41472" stroke-miterlimit="10"/>
<path d="M790.736 983.937C791.607 983.937 792.445 983.619 793.095 983.048H793.14L793.299 982.874C797.752 977.997 803.166 974.094 809.201 971.411C815.235 968.728 821.76 967.323 828.363 967.285C829.492 967.284 830.375 966.84 830.968 966.149C831.552 965.469 831.832 964.58 831.833 963.712C831.834 962.843 831.555 961.954 830.971 961.273C830.377 960.582 829.493 960.137 828.362 960.137L828.359 960.137C820.806 960.173 813.342 961.765 806.432 964.813C799.523 967.861 793.316 972.3 788.199 977.853C787.554 978.53 787.194 979.43 787.194 980.366C787.194 981.303 787.555 982.205 788.202 982.883L788.202 982.883L788.211 982.892C788.881 983.561 789.789 983.937 790.736 983.937Z" fill="#9D6434" stroke="#9D6434" stroke-width="1.06912"/>
<path d="M888.181 959.615V959.593C892.67 959.632 897.099 960.647 901.161 962.568C905.382 964.565 909.098 967.49 912.03 971.125L912.048 971.147L912.068 971.168C912.738 971.837 913.647 972.213 914.594 972.213C915.541 972.213 916.449 971.837 917.119 971.168L917.119 971.168L917.128 971.158C917.775 970.48 918.137 969.579 918.137 968.642C918.137 967.711 917.78 966.815 917.142 966.139C913.553 961.812 909.044 958.34 903.944 955.976C898.838 953.609 893.268 952.414 887.64 952.476L887.638 952.476C886.509 952.493 885.628 952.951 885.037 953.648C884.456 954.335 884.176 955.225 884.175 956.094C884.174 956.963 884.453 957.85 885.039 958.524C885.636 959.209 886.523 959.64 887.655 959.623L888.181 959.615Z" fill="#9D6434" stroke="#9D6434" stroke-width="1.06912"/>
<path d="M808.743 1006.93C809.188 1006.85 809.614 1006.66 809.997 1006.38V1007L810.997 1005.23C811.027 1005.18 811.056 1005.13 811.085 1005.08C811.412 1004.5 811.732 1003.93 812.093 1003.38L812.093 1003.38L812.097 1003.37C812.124 1003.33 812.228 1003.18 812.329 1003.03L812.353 1003C812.392 1002.94 812.429 1002.89 812.456 1002.84C812.483 1002.81 812.519 1002.77 812.554 1002.73C812.634 1002.63 812.729 1002.51 812.763 1002.47C813.636 1001.49 814.59 1000.59 815.616 999.776L815.616 999.777L815.623 999.771C817.724 998.041 820.194 996.817 822.842 996.191L822.843 996.19C824.971 995.682 827.208 995.912 829.188 996.843L829.196 996.847L829.205 996.851C830.128 997.247 830.962 997.827 831.656 998.554C832.346 999.278 832.883 1000.13 833.235 1001.07C833.508 1001.96 834.111 1002.71 834.921 1003.17C835.736 1003.64 836.698 1003.77 837.608 1003.54L837.608 1003.54L837.62 1003.54C838.074 1003.42 838.498 1003.2 838.869 1002.92C839.24 1002.63 839.55 1002.27 839.783 1001.86C840.015 1001.45 840.165 1001 840.223 1000.54C840.281 1000.07 840.247 999.598 840.122 999.145L840.118 999.131L840.114 999.117C837.593 991.587 829.688 987.929 822.224 989.063C814.945 990.156 808.319 995.359 804.817 1001.65C804.267 1002.64 804.223 1003.63 804.529 1004.49C804.831 1005.34 805.46 1006.03 806.211 1006.46C806.961 1006.9 807.867 1007.1 808.743 1006.93Z" fill="#9D6434" stroke="#9D6434" stroke-width="1.06912"/>
<path d="M883.006 1000.17L883.374 1000.56C885.058 998.964 887.137 997.847 889.397 997.322C891.653 996.797 894.008 996.883 896.22 997.568C898.307 998.308 900.176 999.557 901.657 1001.2C903.141 1002.85 904.188 1004.85 904.703 1007L904.703 1007L904.704 1007.01C904.976 1008.1 905.619 1008.84 906.435 1009.24C907.235 1009.63 908.162 1009.66 908.999 1009.43C909.836 1009.2 910.622 1008.7 911.134 1007.95C911.652 1007.2 911.868 1006.23 911.598 1005.13C910.797 1001.7 909.096 998.54 906.67 995.982C904.243 993.423 901.178 991.556 897.791 990.574C894.403 989.593 890.815 989.531 887.396 990.396C883.978 991.26 880.852 993.019 878.34 995.491C877.521 996.268 877.191 997.193 877.249 998.097C877.306 998.986 877.735 999.809 878.35 1000.42C878.964 1001.04 879.793 1001.47 880.692 1001.55C881.604 1001.63 882.556 1001.34 883.375 1000.56L883.006 1000.17ZM883.006 1000.17C880.17 1002.87 875.864 998.57 878.711 995.876L896.389 997.061C894.083 996.344 891.628 996.255 889.276 996.801C886.924 997.348 884.76 998.511 883.006 1000.17Z" fill="#9D6434" stroke="#9D6434" stroke-width="1.06912"/>
<path d="M874.692 1061.08C877.87 1059.46 880.733 1057.28 883.145 1054.64C883.791 1053.97 884.153 1053.07 884.157 1052.14C884.162 1051.2 883.807 1050.3 883.167 1049.62L883.167 1049.62L883.157 1049.61C882.827 1049.27 882.433 1049.01 882 1048.83C881.566 1048.64 881.101 1048.55 880.631 1048.55C880.16 1048.54 879.694 1048.63 879.259 1048.81C879.096 1048.88 878.938 1048.96 878.788 1049.05L878.739 1048.86L878.074 1049.58C873.732 1054.29 867.745 1057.14 861.356 1057.55L861.354 1057.55C854.483 1058.02 847.672 1056.02 842.138 1051.92L842.116 1051.9L842.092 1051.89C841.688 1051.65 841.24 1051.49 840.774 1051.43C840.308 1051.36 839.834 1051.39 839.379 1051.5C838.923 1051.62 838.495 1051.83 838.12 1052.11C837.744 1052.39 837.428 1052.75 837.19 1053.15L837.19 1053.15L837.184 1053.17C836.729 1053.98 836.606 1054.95 836.84 1055.85C837.073 1056.75 837.639 1057.53 838.425 1058.03C843.619 1061.78 849.736 1064.05 856.122 1064.59C862.513 1065.13 868.93 1063.92 874.685 1061.09L874.685 1061.09L874.692 1061.08Z" fill="#9D6434" stroke="#9D6434" stroke-width="1.06912"/>
<path d="M190.863 1627.94L902.225 1625.92M1831.67 1623.3L941.457 1625.83" stroke="#255DE8" stroke-width="10.4619" stroke-miterlimit="10" stroke-linecap="round"/>
<path d="M191.814 1694H786.364" stroke="#255DE8" stroke-width="10.4619" stroke-miterlimit="10" stroke-linecap="round"/>
<path d="M1625.63 1673.34H1800.44" stroke="#255DE8" stroke-width="10.4619" stroke-miterlimit="10" stroke-linecap="round"/>
<path d="M1536.18 1673.34H1580.38" stroke="#255DE8" stroke-width="10.4619" stroke-miterlimit="10" stroke-linecap="round"/>
</svg>
