<svg width="2000" height="2000" viewBox="0 0 2000 2000" fill="none" xmlns="http://www.w3.org/2000/svg">
<g opacity="0.6">
<path d="M324.525 279.879H1745.06C1758.77 279.879 1771.92 285.325 1781.62 295.02C1791.31 304.715 1796.76 317.865 1796.76 331.575V1231.25C1796.76 1240.57 1793.05 1249.51 1786.47 1256.1C1779.88 1262.69 1770.94 1266.39 1761.62 1266.39H307.965C298.646 1266.39 289.709 1262.69 283.12 1256.1C276.531 1249.51 272.829 1240.57 272.829 1231.25V331.575C272.829 317.865 278.275 304.715 287.97 295.02C297.665 285.325 310.815 279.879 324.525 279.879Z" fill="#FFF3E5"/>
<path d="M512.42 1174.22C511.802 1174.22 511.209 1173.97 510.772 1173.54C510.335 1173.1 510.089 1172.51 510.089 1171.89V388.749C510.089 388.131 510.335 387.538 510.772 387.101C511.209 386.664 511.802 386.418 512.42 386.418C513.038 386.418 513.631 386.664 514.068 387.101C514.505 387.538 514.751 388.131 514.751 388.749V1171.89C514.751 1172.51 514.505 1173.1 514.068 1173.54C513.631 1173.97 513.038 1174.22 512.42 1174.22Z" fill="#F7E0CA"/>
<path d="M803.696 1178.29C803.078 1178.29 802.485 1178.04 802.048 1177.6C801.611 1177.17 801.366 1176.57 801.366 1175.95V388.714C801.366 388.095 801.611 387.503 802.048 387.065C802.485 386.628 803.078 386.383 803.696 386.383C804.315 386.383 804.907 386.628 805.345 387.065C805.782 387.503 806.027 388.095 806.027 388.714V1175.95C806.027 1176.57 805.782 1177.17 805.345 1177.6C804.907 1178.04 804.315 1178.29 803.696 1178.29Z" fill="#F7E0CA"/>
<path d="M1099.08 1178.29C1098.46 1178.29 1097.86 1178.04 1097.43 1177.6C1096.99 1177.17 1096.74 1176.57 1096.74 1175.95V388.714C1096.74 388.095 1096.99 387.503 1097.43 387.065C1097.86 386.628 1098.46 386.383 1099.08 386.383C1099.69 386.383 1100.29 386.628 1100.72 387.065C1101.16 387.503 1101.41 388.095 1101.41 388.714V1175.95C1101.41 1176.57 1101.16 1177.17 1100.72 1177.6C1100.29 1178.04 1099.69 1178.29 1099.08 1178.29Z" fill="#F7E0CA"/>
<path d="M1394.47 1178.29C1393.85 1178.29 1393.25 1178.04 1392.82 1177.6C1392.38 1177.17 1392.13 1176.57 1392.13 1175.95V388.714C1392.13 388.095 1392.38 387.503 1392.82 387.065C1393.25 386.628 1393.85 386.383 1394.47 386.383C1395.08 386.383 1395.68 386.628 1396.11 387.065C1396.55 387.503 1396.8 388.095 1396.8 388.714V1175.95C1396.8 1176.57 1396.55 1177.17 1396.11 1177.6C1395.68 1178.04 1395.08 1178.29 1394.47 1178.29Z" fill="#F7E0CA"/>
<path d="M1689.86 1178.29C1689.24 1178.29 1688.64 1178.04 1688.21 1177.6C1687.77 1177.17 1687.52 1176.57 1687.52 1175.95V388.714C1687.52 388.095 1687.77 387.503 1688.21 387.065C1688.64 386.628 1689.24 386.383 1689.86 386.383C1690.47 386.383 1691.07 386.628 1691.5 387.065C1691.94 387.503 1692.19 388.095 1692.19 388.714V1175.95C1692.19 1176.57 1691.94 1177.17 1691.5 1177.6C1691.07 1178.04 1690.47 1178.29 1689.86 1178.29Z" fill="#F7E0CA"/>
<path d="M292.559 839.926H229.5C226.333 839.926 223.766 842.493 223.766 845.659V855.868C223.766 859.035 226.333 861.602 229.5 861.602H292.559C295.725 861.602 298.292 859.035 298.292 855.868V845.659C298.292 842.493 295.725 839.926 292.559 839.926Z" fill="#FFE5D0"/>
<path d="M414.038 906.109H229.5C226.333 906.109 223.766 908.676 223.766 911.843V922.052C223.766 925.218 226.333 927.786 229.5 927.786H414.038C417.205 927.786 419.772 925.218 419.772 922.052V911.843C419.772 908.676 417.205 906.109 414.038 906.109Z" fill="#FFE5D0"/>
<path d="M414.038 942.926H229.5C226.333 942.926 223.766 945.493 223.766 948.659V958.868C223.766 962.035 226.333 964.602 229.5 964.602H414.038C417.205 964.602 419.772 962.035 419.772 958.868V948.659C419.772 945.493 417.205 942.926 414.038 942.926Z" fill="#FFE5D0"/>
<path d="M330.119 979.508H229.5C226.333 979.508 223.766 982.075 223.766 985.241V995.45C223.766 998.617 226.333 1001.18 229.5 1001.18H330.119C333.286 1001.18 335.853 998.617 335.853 995.45V985.241C335.853 982.075 333.286 979.508 330.119 979.508Z" fill="#FFE5D0"/>
<path d="M654.772 487.629C671.609 487.629 685.258 473.98 685.258 457.143C685.258 440.306 671.609 426.656 654.772 426.656C637.935 426.656 624.286 440.306 624.286 457.143C624.286 473.98 637.935 487.629 654.772 487.629Z" fill="#FFE5D0"/>
<path d="M969.263 638.793C986.1 638.793 999.749 625.144 999.749 608.307C999.749 591.47 986.1 577.82 969.263 577.82C952.426 577.82 938.776 591.47 938.776 608.307C938.776 625.144 952.426 638.793 969.263 638.793Z" fill="#FFE5D0"/>
<path d="M654.772 576.551C671.609 576.551 685.258 562.902 685.258 546.065C685.258 529.227 671.609 515.578 654.772 515.578C637.935 515.578 624.286 529.227 624.286 546.065C624.286 562.902 637.935 576.551 654.772 576.551Z" fill="#FFE5D0"/>
<path d="M752.222 822.819L752.816 751.299C752.822 750.719 752.713 750.142 752.495 749.604C752.277 749.065 751.954 748.576 751.546 748.163C751.137 747.75 750.651 747.422 750.115 747.198C749.578 746.974 749.003 746.859 748.422 746.859H698.521C697.922 746.859 697.329 746.983 696.78 747.221C696.231 747.46 695.736 747.809 695.327 748.246L661.951 783.732C661.165 784.563 660.735 785.667 660.753 786.81C660.77 787.953 661.233 789.044 662.044 789.85L698.369 826.187C698.783 826.597 699.275 826.922 699.814 827.142C700.354 827.362 700.933 827.473 701.516 827.469L747.851 827.178C749.006 827.169 750.11 826.707 750.927 825.892C751.745 825.077 752.209 823.973 752.222 822.819Z" fill="#F7E0CA"/>
<path d="M850.836 774.679L850.242 703.159C850.237 702.579 850.348 702.004 850.566 701.467C850.785 700.93 851.108 700.441 851.517 700.03C851.925 699.618 852.411 699.291 852.946 699.068C853.481 698.845 854.056 698.73 854.636 698.73H904.526C905.127 698.729 905.721 698.851 906.273 699.09C906.824 699.329 907.32 699.678 907.731 700.117L941.107 735.615C941.89 736.447 942.318 737.551 942.301 738.693C942.283 739.835 941.822 740.926 941.014 741.733L904.677 778.07C904.266 778.483 903.778 778.809 903.24 779.031C902.701 779.253 902.125 779.366 901.542 779.364L855.207 779.061C854.048 779.051 852.94 778.586 852.122 777.766C851.305 776.946 850.843 775.837 850.836 774.679Z" fill="#FFD4B0"/>
<path d="M1041.35 904.058L1041.96 832.538C1041.96 831.958 1041.85 831.383 1041.64 830.846C1041.42 830.309 1041.09 829.82 1040.69 829.409C1040.28 828.997 1039.79 828.67 1039.26 828.447C1038.72 828.224 1038.15 828.109 1037.57 828.109H987.665C987.066 828.109 986.473 828.233 985.924 828.471C985.375 828.71 984.88 829.059 984.471 829.496L951.083 864.971C950.303 865.804 949.877 866.907 949.894 868.049C949.911 869.19 950.371 870.28 951.176 871.089L987.513 907.426C987.927 907.837 988.418 908.164 988.958 908.386C989.497 908.608 990.076 908.721 990.66 908.719L1037 908.416C1038.15 908.41 1039.25 907.949 1040.07 907.133C1040.89 906.317 1041.35 905.212 1041.35 904.058Z" fill="#FFD4B0"/>
<path d="M939.86 697.028H1041.94C1042.51 697.028 1043.09 697.142 1043.62 697.363C1044.15 697.585 1044.64 697.909 1045.05 698.319C1045.46 698.728 1045.78 699.214 1046 699.748C1046.22 700.282 1046.33 700.855 1046.33 701.433V775.913C1046.33 776.494 1046.21 777.07 1045.99 777.607C1045.77 778.143 1045.44 778.631 1045.03 779.04C1044.61 779.45 1044.12 779.773 1043.59 779.993C1043.05 780.212 1042.47 780.322 1041.89 780.318L939.965 779.152C939.098 779.143 938.254 778.877 937.538 778.389C936.821 777.9 936.266 777.211 935.941 776.407C935.615 775.604 935.535 774.722 935.71 773.873C935.885 773.024 936.307 772.245 936.924 771.636L967.631 741.173C968.046 740.765 968.375 740.279 968.6 739.742C968.824 739.206 968.94 738.631 968.94 738.049C968.94 737.468 968.824 736.892 968.6 736.356C968.375 735.82 968.046 735.334 967.631 734.926L936.795 704.626C936.149 704.02 935.701 703.233 935.51 702.367C935.319 701.502 935.394 700.599 935.726 699.777C936.057 698.955 936.629 698.253 937.367 697.762C938.105 697.272 938.974 697.016 939.86 697.028Z" fill="#FFD4B0"/>
<path d="M956.712 826.77H854.636C853.471 826.77 852.353 827.233 851.529 828.057C850.705 828.881 850.242 829.998 850.242 831.163V905.655C850.241 906.236 850.355 906.812 850.578 907.349C850.801 907.886 851.129 908.373 851.542 908.782C851.955 909.19 852.446 909.513 852.985 909.731C853.524 909.948 854.101 910.056 854.682 910.048L956.607 908.883C957.474 908.873 958.318 908.608 959.035 908.119C959.751 907.631 960.306 906.941 960.632 906.138C960.957 905.334 961.037 904.452 960.862 903.603C960.687 902.754 960.265 901.976 959.649 901.366L928.941 870.903C928.525 870.496 928.195 870.01 927.969 869.474C927.743 868.937 927.627 868.362 927.627 867.78C927.627 867.198 927.743 866.622 927.969 866.086C928.195 865.549 928.525 865.063 928.941 864.656L959.777 834.356C960.419 833.75 960.863 832.963 961.052 832.1C961.24 831.237 961.164 830.337 960.833 829.517C960.502 828.698 959.932 827.998 959.196 827.507C958.461 827.017 957.595 826.76 956.712 826.77Z" fill="#FFD4B0"/>
<path d="M1340.94 517.266H1151.1C1149.22 517.266 1147.7 518.789 1147.7 520.669V532.159C1147.7 534.039 1149.22 535.562 1151.1 535.562H1340.94C1342.82 535.562 1344.34 534.039 1344.34 532.159V520.669C1344.34 518.789 1342.82 517.266 1340.94 517.266Z" fill="#FFE5D0"/>
<path d="M1224.8 549.281H1151.1C1149.22 549.281 1147.7 550.805 1147.7 552.684V564.175C1147.7 566.054 1149.22 567.578 1151.1 567.578H1224.8C1226.68 567.578 1228.2 566.054 1228.2 564.175V552.684C1228.2 550.805 1226.68 549.281 1224.8 549.281Z" fill="#FFE5D0"/>
<path d="M1240.42 486.269C1257.68 486.269 1271.67 472.281 1271.67 455.025C1271.67 437.77 1257.68 423.781 1240.42 423.781C1223.17 423.781 1209.18 437.77 1209.18 455.025C1209.18 472.281 1223.17 486.269 1240.42 486.269Z" fill="#FFE5D0"/>
<path d="M1322.49 486.269C1339.75 486.269 1353.74 472.281 1353.74 455.025C1353.74 437.77 1339.75 423.781 1322.49 423.781C1305.24 423.781 1291.25 437.77 1291.25 455.025C1291.25 472.281 1305.24 486.269 1322.49 486.269Z" fill="#FFE5D0"/>
</g>
<g opacity="0.8">
<path d="M1745.83 732.116C1742.93 726.149 1736.09 723.049 1729.51 722.222C1722.94 721.394 1716.25 722.338 1709.62 722.024H1709.25C1709.76 717.726 1710.02 713.403 1710.03 709.076C1710.06 689 1704.59 669.299 1694.21 652.112C1696.17 651.385 1698.2 650.881 1700.27 650.609C1707.46 649.7 1715.77 651.25 1721.13 646.379C1725.16 642.719 1725.88 636.717 1725.9 631.229C1725.9 627.01 1725.64 622.64 1723.75 618.852C1720.96 613.305 1714.97 609.844 1708.83 608.923C1702.69 608.002 1696.41 609.331 1690.54 611.37C1689.42 611.661 1688.4 612.268 1687.61 613.118C1687.01 614.089 1686.64 615.186 1686.53 616.323C1685.93 619.154 1684.75 621.833 1683.08 624.198C1681.41 626.563 1679.28 628.566 1676.82 630.086C1664.51 618.024 1649.56 609.008 1633.15 603.76C1633.53 602.288 1633.75 600.781 1633.81 599.262C1633.86 596.798 1633.49 594.344 1632.73 592.002C1632.06 589.692 1630.93 587.541 1629.42 585.674C1626.93 582.76 1623.3 581.082 1619.72 579.66C1616.28 578.161 1612.64 577.161 1608.92 576.688C1605.16 576.234 1601.36 577.055 1598.13 579.019C1596.17 580.43 1594.46 582.141 1593.04 584.089C1589.61 588.436 1586.45 593.796 1587.44 599.239C1567.38 601.42 1548.31 609.08 1532.31 621.381C1529.87 616.242 1528.9 609.972 1525.96 604.984C1520.93 596.488 1509.64 592.526 1500.24 595.544C1490.83 598.563 1484.04 607.967 1483.59 617.815C1483.26 621.992 1484.4 626.154 1486.82 629.574C1492.53 636.974 1504 636.694 1511.41 642.393C1499.85 657.674 1492.46 675.697 1489.96 694.695C1487.47 713.693 1489.95 733.013 1497.17 750.762C1493.86 752.551 1490.33 753.929 1486.68 754.864C1483.19 755.762 1479.59 756.344 1476.4 758.022C1467.54 762.684 1464.83 775.154 1469.05 784.244C1473.27 793.334 1482.78 799.067 1492.56 801.235C1498.86 802.633 1505.97 802.61 1511.2 798.799C1515.46 795.711 1517.74 790.642 1520.25 785.98C1533.64 799.813 1550.42 809.903 1568.91 815.249C1587.41 820.594 1606.98 821.01 1625.69 816.455C1625.69 819.951 1626.13 823.54 1625.57 827.013C1625.01 830.486 1623.45 833.761 1623.36 837.257C1623.14 844.96 1630.6 851.405 1638.29 851.918C1645.98 852.43 1653.34 848.235 1658.66 842.653C1663.48 837.569 1666.97 831.366 1668.81 824.601C1669.12 823.714 1669.2 822.765 1669.04 821.839C1668.59 820.651 1667.78 819.638 1666.71 818.949L1654.71 808.985C1653.73 808.169 1652.75 807.33 1651.81 806.456C1674.56 794.191 1692.33 774.365 1702.02 750.401C1703.86 751.406 1705.6 752.576 1707.22 753.897C1712.41 758.092 1717.29 763.29 1723.82 764.665C1730.02 765.959 1736.63 763.325 1740.95 758.663C1745.12 753.834 1747.44 747.672 1747.47 741.288C1747.67 738.143 1747.11 734.997 1745.83 732.116Z" fill="#FFE8CE"/>
<path d="M1564.53 670.956C1560.22 670.758 1556.24 668.695 1551.85 669.184C1547.97 669.657 1544.35 671.388 1541.55 674.114C1535.87 679.533 1533.48 688.04 1534.56 695.697C1535.01 699.413 1536.38 702.959 1538.53 706.022C1540.68 709.086 1543.56 711.571 1546.9 713.259C1553.73 716.58 1561.41 715.59 1567.82 711.791C1571.33 709.61 1574.43 706.825 1576.98 703.563C1579.31 700.603 1581.73 696.967 1585.68 696.14C1587.88 695.685 1586.95 692.305 1584.76 692.772C1578.29 694.123 1575.26 700.929 1570.78 705.125C1566.01 709.588 1559.37 712.921 1552.7 711.593C1549.49 710.905 1546.52 709.386 1544.09 707.19C1541.65 704.993 1539.84 702.195 1538.82 699.076C1537.74 695.685 1537.47 692.087 1538.02 688.571C1538.57 685.054 1539.94 681.716 1542.02 678.822C1543.17 677.202 1544.62 675.825 1546.31 674.771C1547.99 673.717 1549.87 673.007 1551.83 672.68C1556.13 672.086 1560.24 674.254 1564.51 674.452C1566.76 674.557 1566.76 671.061 1564.51 670.956H1564.53Z" fill="#EFBC96"/>
<path d="M1586.63 743.83C1584.75 750.985 1578.22 755.612 1574.41 761.672C1572.25 765.307 1570.94 769.389 1570.59 773.605C1569.89 778.236 1570.2 782.963 1571.5 787.462C1572.66 791.13 1574.96 794.334 1578.06 796.61C1581.56 799.116 1586.12 799.547 1590.34 799.127C1598.5 798.3 1606.66 794.314 1610.16 786.576C1612.28 781.915 1611.68 777.172 1611.41 772.219C1611.2 768.35 1611.6 763.467 1615.47 761.462C1617.46 760.413 1615.7 757.407 1613.7 758.444C1612.26 759.282 1611.03 760.429 1610.09 761.801C1609.14 763.173 1608.52 764.737 1608.26 766.38C1607.46 770.308 1608.26 774.212 1608.26 778.151C1608.41 786.425 1602.57 792.531 1594.88 794.734C1591.01 795.829 1586.43 796.377 1582.56 795.049C1580.9 794.404 1579.4 793.423 1578.14 792.167C1576.89 790.911 1575.91 789.408 1575.26 787.753C1573.98 783.798 1573.49 779.626 1573.83 775.481C1574.17 771.335 1575.33 767.299 1577.24 763.607C1581.27 757.127 1587.92 752.419 1589.92 744.751C1590.02 744.313 1589.94 743.855 1589.71 743.472C1589.48 743.088 1589.11 742.809 1588.68 742.691C1588.24 742.573 1587.78 742.625 1587.39 742.837C1586.99 743.049 1586.7 743.404 1586.56 743.83H1586.63Z" fill="#EFBC96"/>
<path d="M1633.95 730.951C1635.63 734.002 1638.03 736.592 1640.94 738.491C1643.92 740.736 1647.29 742.401 1650.87 743.398C1654.79 744.295 1658.52 743.234 1662.12 741.708C1665.53 740.45 1668.63 738.461 1671.19 735.881C1673.76 733.049 1675.23 729.308 1676.42 725.719C1677.73 722.117 1678.28 718.285 1678.04 714.461C1677.75 710.786 1676.54 707.242 1674.53 704.153C1672.51 701.065 1669.76 698.53 1666.51 696.781C1663.27 695.032 1659.64 694.124 1655.95 694.141C1652.26 694.157 1648.64 695.097 1645.41 696.875C1643.43 697.936 1645.19 700.954 1647.18 699.894C1649.75 698.5 1652.61 697.731 1655.53 697.65C1658.45 697.568 1661.34 698.177 1663.99 699.425C1666.63 700.674 1668.94 702.528 1670.73 704.837C1672.52 707.146 1673.74 709.844 1674.29 712.713C1674.84 715.868 1674.67 719.106 1673.8 722.188C1673.03 725.405 1671.81 728.497 1670.17 731.371C1668.46 733.994 1666.03 736.079 1663.18 737.384C1660.28 738.841 1656.95 740.333 1653.64 740.228C1650.14 740.123 1646.74 738.048 1643.87 736.207C1641.01 734.507 1638.65 732.073 1637.04 729.157C1636.02 727.152 1633 728.912 1634.02 730.916L1633.95 730.951Z" fill="#EFBC96"/>
<path d="M1638.39 638.687C1636.68 638.172 1634.85 638.206 1633.16 638.785C1631.47 639.363 1630 640.457 1628.96 641.913C1627.92 643.368 1627.37 645.112 1627.37 646.9C1627.38 648.688 1627.94 650.429 1628.99 651.879C1630.02 653.321 1631.46 654.423 1633.12 655.046C1634.78 655.668 1636.59 655.783 1638.31 655.375C1641.9 654.466 1643.65 651.029 1643.33 647.509C1643.02 643.99 1641.28 639.911 1637.51 639.107C1637.28 639.032 1637.04 639.005 1636.81 639.025C1636.57 639.046 1636.34 639.115 1636.13 639.227C1635.92 639.339 1635.74 639.493 1635.59 639.678C1635.44 639.864 1635.34 640.077 1635.27 640.306C1635.21 640.535 1635.2 640.774 1635.23 641.009C1635.26 641.243 1635.34 641.469 1635.46 641.672C1635.59 641.875 1635.75 642.051 1635.94 642.189C1636.14 642.327 1636.35 642.424 1636.59 642.475C1637 642.569 1637.4 642.75 1637.74 643.007C1638.09 643.264 1638.37 643.591 1638.58 643.966C1639.16 644.853 1639.56 645.848 1639.74 646.891C1639.94 647.841 1639.94 648.821 1639.74 649.77C1639.66 650.187 1639.49 650.583 1639.25 650.935C1638.94 651.323 1638.54 651.631 1638.09 651.833C1637.12 652.195 1636.07 652.267 1635.06 652.039C1634.06 651.812 1633.14 651.295 1632.42 650.552C1631.7 649.809 1631.21 648.873 1631.02 647.859C1630.83 646.844 1630.94 645.795 1631.33 644.84C1631.84 643.707 1632.75 642.799 1633.89 642.287C1635.02 641.774 1636.3 641.692 1637.5 642.055C1637.94 642.163 1638.4 642.095 1638.8 641.865C1639.19 641.635 1639.47 641.262 1639.6 640.824C1639.72 640.385 1639.66 639.917 1639.45 639.518C1639.23 639.12 1638.86 638.821 1638.43 638.687H1638.39Z" fill="#EFBC96"/>
<path d="M1560.82 749.086C1559.48 748.397 1557.96 748.125 1556.46 748.303C1554.97 748.482 1553.55 749.103 1552.41 750.089C1551.39 750.994 1550.64 752.163 1550.24 753.468C1550.01 754.238 1549.93 755.045 1550.01 755.845C1550.09 756.645 1550.33 757.421 1550.71 758.13C1551.87 760.53 1554.47 762.721 1557.27 762.791C1560.07 762.861 1562.32 760.286 1563.47 757.838C1564.28 756.327 1564.55 754.584 1564.24 752.897C1564.09 752.152 1563.77 751.452 1563.31 750.846C1562.85 750.241 1562.26 749.747 1561.58 749.401C1561.19 749.197 1560.73 749.149 1560.3 749.265C1559.86 749.382 1559.49 749.654 1559.25 750.03C1559.02 750.431 1558.96 750.907 1559.08 751.354C1559.19 751.801 1559.48 752.184 1559.88 752.419C1560.06 752.509 1560.24 752.61 1560.41 752.722C1560.13 752.524 1560.51 752.862 1560.59 752.955C1560.37 752.711 1560.67 753.119 1560.74 753.223C1560.74 753.305 1560.89 753.503 1560.74 753.223C1560.8 753.367 1560.85 753.515 1560.88 753.666L1560.95 753.969C1560.95 753.62 1560.95 753.899 1560.95 753.969C1560.96 754.194 1560.96 754.42 1560.95 754.645C1560.95 754.575 1560.95 754.354 1560.95 754.727C1560.95 754.855 1560.89 754.971 1560.87 755.1C1560.8 755.369 1560.71 755.634 1560.6 755.892C1560.5 756.184 1560.7 755.717 1560.6 755.997L1560.43 756.335C1560.32 756.556 1560.2 756.766 1560.07 756.988C1559.94 757.209 1559.83 757.384 1559.71 757.57L1559.52 757.85C1559.46 757.932 1559.29 758.153 1559.44 757.967C1559.16 758.308 1558.86 758.621 1558.52 758.899C1558.74 758.724 1558.3 759.027 1558.2 759.085C1558.1 759.144 1558.11 759.144 1558.2 759.085C1558.05 759.146 1557.9 759.197 1557.74 759.237C1557.4 759.237 1557.67 759.237 1557.74 759.237H1557.41H1557.08C1557.17 759.237 1557.39 759.318 1557.08 759.237C1556.87 759.194 1556.66 759.132 1556.45 759.05C1556.34 758.98 1556.21 758.922 1556.09 758.841C1555.92 758.743 1555.75 758.634 1555.59 758.514C1555.59 758.514 1555.8 758.666 1555.59 758.514L1555.34 758.281C1555.16 758.118 1555.01 757.955 1554.85 757.78L1554.63 757.524C1554.82 757.768 1554.49 757.326 1554.49 757.326C1554.35 757.127 1554.22 756.921 1554.1 756.708C1554.04 756.603 1553.98 756.498 1553.94 756.393C1553.89 756.288 1553.82 756.09 1553.94 756.323C1553.85 756.101 1553.79 755.87 1553.75 755.636C1553.75 755.729 1553.75 755.892 1553.75 755.554C1553.75 755.216 1553.75 755.24 1553.75 755.088C1553.75 754.937 1553.75 755.298 1553.75 754.995C1553.75 754.878 1553.75 754.75 1553.83 754.634L1553.95 754.284C1553.84 754.482 1554.03 753.981 1553.95 754.284C1554.04 754.084 1554.15 753.889 1554.26 753.701L1554.45 753.433C1554.56 753.282 1554.32 753.561 1554.53 753.34C1554.74 753.119 1554.9 752.944 1555.11 752.757C1555.11 752.757 1555.37 752.559 1555.11 752.757L1555.46 752.524C1555.67 752.394 1555.88 752.277 1556.1 752.175C1555.83 752.303 1556.1 752.175 1556.1 752.175C1556.1 752.175 1556.45 752.07 1556.64 752.035L1556.99 751.965C1556.76 751.965 1557.07 751.965 1557.17 751.965C1557.44 751.942 1557.72 751.942 1557.99 751.965C1557.72 751.965 1557.99 751.965 1558.06 751.965C1558.24 751.995 1558.42 752.038 1558.6 752.093L1558.95 752.198C1559.26 752.314 1558.88 752.198 1559.19 752.326C1559.6 752.548 1560.07 752.606 1560.52 752.489C1560.97 752.372 1561.35 752.088 1561.59 751.697C1561.82 751.293 1561.88 750.817 1561.77 750.369C1561.65 749.921 1561.36 749.536 1560.96 749.296L1560.82 749.086Z" fill="#EFBC96"/>
<path d="M1504.16 743.423C1499.9 752.525 1488.9 753.539 1480.33 755.904C1476.31 757.07 1472.17 758.643 1469.27 761.731C1466.02 765.227 1464.95 769.959 1464.53 774.55C1464.19 777.113 1464.46 779.72 1465.31 782.16C1466.3 784.341 1467.49 786.421 1468.88 788.372C1471.38 792.241 1474.25 795.947 1478.2 798.441C1482.11 800.743 1486.49 802.13 1491.02 802.496C1493.3 802.743 1495.6 802.856 1497.89 802.834C1500.28 802.963 1502.67 802.565 1504.89 801.669C1507.29 800.43 1509.56 798.933 1511.65 797.206C1513.83 795.629 1515.76 793.722 1517.36 791.553C1518.87 789.386 1519.81 786.892 1521.19 784.631C1522.59 782.353 1524.45 780.392 1526.66 778.874C1528.49 777.592 1526.74 774.562 1524.88 775.856C1521.39 778.319 1518.58 781.632 1516.73 785.482C1515.82 787.527 1514.65 789.44 1513.23 791.169C1511.67 792.794 1509.94 794.251 1508.08 795.516C1506.17 796.879 1504.19 798.499 1501.87 799.012C1499.71 799.366 1497.51 799.44 1495.33 799.233C1491.08 799.233 1486.86 798.443 1482.9 796.903C1478.98 795.078 1475.66 792.191 1473.32 788.57C1472.06 786.775 1470.88 784.911 1469.82 783.034C1468.57 781.025 1467.95 778.687 1468.04 776.322C1468.15 772.068 1468.96 767.15 1472.02 763.98C1474.83 761.067 1478.86 759.808 1482.69 758.841C1491.83 756.51 1502.85 754.622 1507.31 745.09C1508.27 743.062 1505.25 741.29 1504.29 743.33L1504.16 743.423Z" fill="#EFBC96"/>
<path d="M1509.27 643.736L1509.73 644.074L1509.97 644.249C1509.68 644.027 1510.14 644.377 1509.97 644.249C1510.26 644.47 1510.56 644.727 1510.85 644.983C1511.43 645.493 1511.99 646.034 1512.51 646.603C1512.76 646.883 1513.02 647.174 1513.27 647.465L1513.63 647.92C1513.77 648.095 1513.63 647.92 1513.63 647.838L1513.8 648.071C1514.27 648.704 1514.71 649.361 1515.11 650.041C1515.22 650.248 1515.37 650.43 1515.55 650.578C1515.73 650.725 1515.95 650.834 1516.17 650.898C1516.4 650.962 1516.63 650.979 1516.87 650.95C1517.1 650.92 1517.32 650.844 1517.53 650.726C1517.73 650.607 1517.91 650.449 1518.05 650.261C1518.19 650.073 1518.29 649.858 1518.35 649.63C1518.4 649.402 1518.41 649.165 1518.37 648.933C1518.33 648.701 1518.25 648.479 1518.12 648.281C1516.36 645.298 1513.97 642.727 1511.13 640.741C1510.73 640.511 1510.26 640.448 1509.81 640.566C1509.36 640.684 1508.98 640.973 1508.74 641.37C1508.54 641.767 1508.49 642.227 1508.6 642.658C1508.72 643.09 1508.99 643.462 1509.37 643.701L1509.27 643.736Z" fill="#EFBC96"/>
<path d="M1596.37 619.705C1594.36 615.567 1592.35 611.442 1590.36 607.305C1589.39 605.557 1588.69 603.67 1588.3 601.711C1588.08 599.595 1588.37 597.456 1589.15 595.476C1590.42 591.928 1592.23 588.601 1594.53 585.617C1596.51 582.773 1599.46 580.741 1602.82 579.895C1604.69 579.559 1606.58 579.391 1608.48 579.394C1610.62 579.25 1612.77 579.351 1614.89 579.697C1618.79 580.645 1622.39 582.542 1625.38 585.221C1628.09 587.47 1630.18 590.372 1631.47 593.654C1632.75 596.937 1633.17 600.491 1632.71 603.983C1632.11 608.26 1629.91 611.465 1627.8 615.113C1625.55 619.03 1624.26 623.422 1624.02 627.932C1623.89 630.181 1627.39 630.17 1627.52 627.932C1627.81 623.515 1629.21 619.243 1631.61 615.521C1633.94 612.127 1635.5 608.259 1636.17 604.193C1636.68 600.283 1636.22 596.307 1634.83 592.614C1633.45 588.922 1631.18 585.627 1628.22 583.018C1625.02 580.089 1621.22 577.893 1617.09 576.585C1612.78 575.42 1607.77 575.606 1603.38 576.224C1595.13 577.389 1590.17 584.557 1586.94 591.619C1584.76 596.397 1583.96 601.198 1586.01 606.163C1588.16 611.36 1590.89 616.372 1593.34 621.418C1594.33 623.445 1597.35 621.674 1596.36 619.658L1596.37 619.705Z" fill="#EFBC96"/>
<path d="M1692.27 748.982C1701.5 750.508 1705.97 760.484 1713.25 765.297C1721.17 770.553 1731.79 768.164 1739.14 762.966C1746.32 757.85 1750.86 749.564 1750.16 740.626C1749.45 731.489 1743.42 724.31 1734.94 721.106C1729.65 719.284 1723.97 718.882 1718.48 719.94C1715.61 720.418 1712.8 721.502 1709.9 721.642C1707 721.781 1703.9 720.709 1701.07 719.684C1698.95 718.915 1698.04 722.294 1700.13 723.052C1702.35 723.938 1704.66 724.587 1707.01 724.986C1709.39 725.252 1711.81 725.082 1714.13 724.485C1718.79 723.413 1723.33 722.516 1728.12 723.087C1736.41 724.089 1744.15 729.391 1746.17 737.806C1747.02 741.71 1746.75 745.775 1745.4 749.537C1744.06 753.299 1741.68 756.607 1738.55 759.085C1732.29 764.248 1722.42 767.173 1715.16 762.477C1707.36 757.431 1703.09 747.327 1693.14 745.672C1690.95 745.299 1690 748.667 1692.22 749.04L1692.27 748.982Z" fill="#EFBC96"/>
</g>
<g opacity="0.7">
<g opacity="0.7">
<path d="M1887.41 1002.93L1822.46 1039.78C1821.04 1040.59 1819.43 1041.01 1817.79 1040.99C1816.16 1040.98 1814.55 1040.54 1813.14 1039.71L1748.79 1001.88C1747.36 1001.05 1746.18 999.86 1745.37 998.428C1744.55 996.996 1744.12 995.374 1744.13 993.724L1744.71 919.07C1744.73 917.425 1745.17 915.813 1746.01 914.396C1746.84 912.978 1748.03 911.805 1749.47 910.994L1814.4 874.179C1815.82 873.372 1817.43 872.953 1819.07 872.965C1820.71 872.977 1822.31 873.42 1823.72 874.249L1888.08 912.078C1889.5 912.908 1890.68 914.1 1891.5 915.532C1892.32 916.964 1892.75 918.586 1892.74 920.235L1892.14 994.89C1892.13 996.528 1891.69 998.133 1890.86 999.545C1890.03 1000.96 1888.84 1002.12 1887.41 1002.93Z" fill="#FCF2E6" stroke="#EFBC96" stroke-width="4.66154" stroke-miterlimit="10"/>
<path d="M1930.51 887.801L1891.13 913.801" stroke="#EFBC96" stroke-width="4.66154" stroke-miterlimit="10"/>
<path d="M1811.21 1020.76L1870.02 988.305" stroke="#EFBC96" stroke-width="4.66154" stroke-miterlimit="10"/>
</g>
<g opacity="0.7">
<path d="M1889.77 1243.31L1854.3 1268.95C1853.13 1269.79 1851.77 1270.31 1850.34 1270.46C1848.91 1270.6 1847.46 1270.37 1846.15 1269.79L1806.15 1251.88C1804.83 1251.28 1803.68 1250.35 1802.84 1249.18C1801.99 1248 1801.46 1246.62 1801.31 1245.18L1796.85 1201.65C1796.7 1200.21 1796.94 1198.75 1797.53 1197.43C1798.12 1196.1 1799.05 1194.96 1800.23 1194.11L1835.7 1168.47C1836.87 1167.64 1838.24 1167.12 1839.67 1166.97C1841.1 1166.83 1842.55 1167.05 1843.86 1167.63L1883.79 1185.53C1885.11 1186.13 1886.25 1187.06 1887.1 1188.24C1887.95 1189.41 1888.48 1190.79 1888.62 1192.23L1893.09 1235.77C1893.25 1237.21 1893.02 1238.67 1892.44 1239.99C1891.86 1241.31 1890.93 1242.46 1889.77 1243.31Z" fill="#FCF2E6" stroke="#EFBC96" stroke-width="4.66154" stroke-miterlimit="10"/>
<path d="M1845.91 1254.27L1877.03 1231.01" stroke="#EFBC96" stroke-width="4.66154" stroke-miterlimit="10"/>
<path d="M1798.63 1197.19L1743.7 1159.18" stroke="#EFBC96" stroke-width="4.66154" stroke-miterlimit="10"/>
</g>
<g opacity="0.7">
<path d="M1619.14 146.395L1662.52 249.473L1552.15 233.565" stroke="#EFBC96" stroke-width="4.66154" stroke-miterlimit="10"/>
<path d="M1659.1 267.594L1641.64 358.785" stroke="#EFBC96" stroke-width="4.66154" stroke-miterlimit="10"/>
<path d="M1662.52 275.998C1677.16 275.998 1689.04 264.122 1689.04 249.473C1689.04 234.824 1677.16 222.949 1662.52 222.949C1647.87 222.949 1635.99 234.824 1635.99 249.473C1635.99 264.122 1647.87 275.998 1662.52 275.998Z" fill="#F7E0CA"/>
<path d="M1641.64 370.625C1650.15 370.625 1657.04 363.733 1657.04 355.231C1657.04 346.728 1650.15 339.836 1641.64 339.836C1633.14 339.836 1626.25 346.728 1626.25 355.231C1626.25 363.733 1633.14 370.625 1641.64 370.625Z" fill="#F7E0CA"/>
<path d="M1553.52 248.809C1562.02 248.809 1568.91 241.917 1568.91 233.414C1568.91 224.912 1562.02 218.02 1553.52 218.02C1545.01 218.02 1538.12 224.912 1538.12 233.414C1538.12 241.917 1545.01 248.809 1553.52 248.809Z" fill="#F7E0CA"/>
<path d="M1620.32 161.789C1628.82 161.789 1635.71 154.897 1635.71 146.395C1635.71 137.892 1628.82 131 1620.32 131C1611.81 131 1604.92 137.892 1604.92 146.395C1604.92 154.897 1611.81 161.789 1620.32 161.789Z" fill="#F7E0CA"/>
</g>
<g opacity="0.7">
<path d="M121.545 596.288L163.673 620.388C166.477 621.992 169.653 622.831 172.883 622.818C176.114 622.806 179.284 621.944 182.075 620.318L224.029 595.845C226.819 594.216 229.131 591.883 230.735 589.079C232.339 586.274 233.177 583.098 233.165 579.867L232.944 531.422C232.923 528.186 232.05 525.012 230.414 522.219C228.777 519.427 226.434 517.115 223.621 515.515L181.504 491.415C178.698 489.81 175.52 488.972 172.288 488.985C169.056 488.997 165.884 489.859 163.091 491.485L121.137 515.958C118.344 517.583 116.03 519.916 114.426 522.721C112.822 525.526 111.985 528.704 112 531.935L112.222 580.369C112.237 583.608 113.107 586.786 114.744 589.581C116.381 592.376 118.727 594.69 121.545 596.288Z" fill="#FCF2E6" stroke="#EFBC96" stroke-width="4.66154" stroke-miterlimit="10"/>
<path d="M241.917 596.288L284.034 620.388C286.84 621.992 290.018 622.831 293.25 622.818C296.482 622.806 299.654 621.944 302.447 620.318L344.401 595.845C347.191 594.217 349.504 591.883 351.108 589.079C352.711 586.275 353.549 583.098 353.538 579.868L353.328 531.423C353.317 528.191 352.454 525.019 350.828 522.227C349.202 519.434 346.868 517.12 344.063 515.515L301.935 491.415C299.131 489.81 295.955 488.972 292.725 488.985C289.494 488.997 286.324 489.859 283.533 491.485L241.579 515.958C238.789 517.585 236.475 519.919 234.872 522.723C233.268 525.528 232.43 528.705 232.443 531.935L232.629 580.462C232.661 583.681 233.535 586.836 235.164 589.613C236.794 592.389 239.122 594.691 241.917 596.288Z" fill="#FCF2E6" stroke="#EFBC96" stroke-width="4.66154" stroke-miterlimit="10"/>
<path d="M294.931 598.025L255.343 574.508" stroke="#EFBC96" stroke-width="4.66154" stroke-miterlimit="10"/>
<path d="M172.006 598.025L132.418 574.508" stroke="#EFBC96" stroke-width="4.66154" stroke-miterlimit="10"/>
<path d="M352.734 522.053L409.139 488" stroke="#EFBC96" stroke-width="4.66154" stroke-miterlimit="10"/>
</g>
</g>
<path d="M441.192 1225.07L493.017 1337.69C494.095 1340.03 496.056 1341.84 498.472 1342.74C500.888 1343.64 503.561 1343.54 505.906 1342.47L594.662 1301.99C596.997 1300.92 598.818 1298.98 599.728 1296.58C600.638 1294.18 600.564 1291.52 599.521 1289.17L481.281 1021.82C480.455 1019.95 479.265 1018.26 477.781 1016.86C476.297 1015.45 474.548 1014.35 472.636 1013.63C470.725 1012.91 468.688 1012.57 466.645 1012.64C464.602 1012.71 462.594 1013.18 460.736 1014.03L362.703 1058.96C360.357 1060.04 358.317 1061.68 356.772 1063.75C355.227 1065.82 354.225 1068.24 353.858 1070.8L339.186 1172.84C339.029 1173.92 338.593 1174.95 337.921 1175.81C337.248 1176.67 336.363 1177.34 335.352 1177.76C331.512 1179.34 328.078 1181.76 325.307 1184.85C322.537 1187.95 320.5 1191.62 319.351 1195.61C319.045 1196.71 318.451 1197.69 317.631 1198.48C316.811 1199.26 315.795 1199.81 314.689 1200.06C291.58 1205.05 170.718 1237.72 166.417 1376.25C162.106 1514.93 290.414 1551.06 314.724 1556.7C315.847 1556.95 316.849 1557.58 317.565 1558.49C318.281 1559.39 318.669 1560.51 318.663 1561.66V1658.6C318.663 1659.5 318.305 1660.37 317.667 1661C317.029 1661.64 316.163 1662 315.26 1662H218.091C214.572 1662 211.198 1663.4 208.709 1665.88C206.22 1668.37 204.82 1671.74 204.817 1675.26V1703.86C204.817 1704.53 204.948 1705.18 205.203 1705.8C205.458 1706.41 205.832 1706.97 206.302 1707.44C206.773 1707.91 207.332 1708.28 207.947 1708.54C208.562 1708.79 209.221 1708.92 209.886 1708.92H619.717C621.165 1708.92 622.553 1708.34 623.578 1707.32C624.603 1706.3 625.18 1704.91 625.183 1703.46V1668.18C625.183 1666.73 624.607 1665.34 623.582 1664.31C622.557 1663.29 621.167 1662.71 619.717 1662.71H489.975C488.828 1662.71 487.729 1662.26 486.918 1661.44C486.107 1660.63 485.652 1659.53 485.652 1658.39V1656.22C485.653 1655.34 485.384 1654.48 484.882 1653.75L368.798 1487.29C366.389 1483.84 363.184 1481.02 359.455 1479.08C355.726 1477.14 351.584 1476.12 347.378 1476.12C342.393 1476.12 337.511 1477.54 333.31 1480.23C329.109 1482.91 325.765 1486.75 323.675 1491.27L321.344 1496.42C320.802 1497.6 319.844 1498.53 318.656 1499.03C317.468 1499.54 316.133 1499.59 314.911 1499.17C295.437 1492.46 219.594 1460.71 220.212 1374.28C220.841 1286.87 299.458 1257.4 318.279 1251.59C319.378 1251.25 320.554 1251.25 321.651 1251.6C322.748 1251.94 323.714 1252.61 324.42 1253.52C330.317 1261.19 348.276 1280.01 378.296 1272.94C409.901 1265.48 416.346 1240.83 417.605 1232.93C417.73 1232.17 418.041 1231.45 418.511 1230.84C418.981 1230.23 419.594 1229.75 420.297 1229.43L435.109 1222.77C436.223 1222.28 437.483 1222.25 438.619 1222.68C439.756 1223.11 440.679 1223.97 441.192 1225.07Z" fill="#7EB7FA"/>
<mask id="mask0_146_3457" style="mask-type:alpha" maskUnits="userSpaceOnUse" x="166" y="1012" width="460" height="697">
<path d="M441.192 1225.07L493.017 1337.69C494.095 1340.03 496.056 1341.84 498.472 1342.74C500.888 1343.64 503.561 1343.54 505.906 1342.47L594.662 1301.99C596.997 1300.92 598.818 1298.98 599.728 1296.58C600.638 1294.18 600.564 1291.52 599.521 1289.17L481.281 1021.82C480.455 1019.95 479.265 1018.26 477.781 1016.86C476.297 1015.45 474.548 1014.35 472.636 1013.63C470.725 1012.91 468.688 1012.57 466.645 1012.64C464.602 1012.71 462.594 1013.18 460.736 1014.03L362.703 1058.96C360.357 1060.04 358.317 1061.68 356.772 1063.75C355.227 1065.82 354.225 1068.24 353.858 1070.8L339.186 1172.84C339.029 1173.92 338.593 1174.95 337.921 1175.81C337.248 1176.67 336.363 1177.34 335.352 1177.76C331.512 1179.34 328.078 1181.76 325.307 1184.85C322.537 1187.95 320.5 1191.62 319.351 1195.61C319.045 1196.71 318.451 1197.69 317.631 1198.48C316.811 1199.26 315.795 1199.81 314.689 1200.06C291.58 1205.05 170.718 1237.72 166.417 1376.25C162.106 1514.93 290.414 1551.06 314.724 1556.7C315.847 1556.95 316.849 1557.58 317.565 1558.49C318.281 1559.39 318.669 1560.51 318.663 1561.66V1658.6C318.663 1659.5 318.305 1660.37 317.667 1661C317.029 1661.64 316.163 1662 315.26 1662H218.091C214.572 1662 211.198 1663.4 208.709 1665.88C206.22 1668.37 204.82 1671.74 204.817 1675.26V1703.86C204.817 1704.53 204.948 1705.18 205.203 1705.8C205.458 1706.41 205.832 1706.97 206.302 1707.44C206.773 1707.91 207.332 1708.28 207.947 1708.54C208.562 1708.79 209.221 1708.92 209.886 1708.92H619.717C621.165 1708.92 622.553 1708.34 623.578 1707.32C624.603 1706.3 625.18 1704.91 625.183 1703.46V1668.18C625.183 1666.73 624.607 1665.34 623.582 1664.31C622.557 1663.29 621.167 1662.71 619.717 1662.71H489.975C488.828 1662.71 487.729 1662.26 486.918 1661.44C486.107 1660.63 485.652 1659.53 485.652 1658.39V1656.22C485.653 1655.34 485.384 1654.48 484.882 1653.75L368.798 1487.29C366.389 1483.84 363.184 1481.02 359.455 1479.08C355.726 1477.14 351.584 1476.12 347.378 1476.12C342.393 1476.12 337.511 1477.54 333.31 1480.23C329.109 1482.91 325.765 1486.75 323.675 1491.27L321.344 1496.42C320.802 1497.6 319.844 1498.53 318.656 1499.03C317.468 1499.54 316.133 1499.59 314.911 1499.17C295.437 1492.46 219.594 1460.71 220.212 1374.28C220.841 1286.87 299.458 1257.4 318.279 1251.59C319.378 1251.25 320.554 1251.25 321.651 1251.6C322.748 1251.94 323.714 1252.61 324.42 1253.52C330.317 1261.19 348.276 1280.01 378.296 1272.94C409.901 1265.48 416.346 1240.83 417.605 1232.93C417.73 1232.17 418.041 1231.45 418.511 1230.84C418.981 1230.23 419.594 1229.75 420.297 1229.43L435.109 1222.77C436.223 1222.28 437.483 1222.25 438.619 1222.68C439.756 1223.11 440.679 1223.97 441.192 1225.07Z" fill="#7EB7FA"/>
</mask>
<g mask="url(#mask0_146_3457)">
<path opacity="0.5" d="M489.113 1012.63C489.113 1012.63 371.083 1061.19 366.549 1072.41C362.016 1083.63 351.492 1179.16 349.546 1181.66C347.6 1184.15 334.594 1188.58 326.239 1203.8C317.883 1219.02 182.768 1242.42 182.768 1364C182.768 1474.98 235.362 1516.03 321.717 1554.66L315.202 1661.97L150.126 1562.14L84.0715 1410.04L223.755 1149.67L377.585 1027.21L469.395 1008.89L489.113 1012.63Z" fill="#4497F3"/>
<path opacity="0.5" d="M491.199 1658.09L629.938 1660.58L625.183 1694.22C625.183 1694.22 625.183 1678.45 609.311 1675.67C581.178 1670.77 489.975 1662.68 489.975 1662.68L491.199 1658.09Z" fill="#4497F3"/>
</g>
<path d="M372.889 1498.53L405.007 1545.28H612.527C614.936 1545.28 617.246 1544.32 618.95 1542.62C620.655 1540.91 621.614 1538.61 621.617 1536.2V1506.23C621.617 1505.04 621.38 1503.85 620.92 1502.75C620.46 1501.64 619.786 1500.64 618.937 1499.79C618.088 1498.95 617.08 1498.28 615.972 1497.83C614.864 1497.38 613.677 1497.15 612.48 1497.16L372.889 1498.53Z" fill="#335CDF"/>
<path d="M450.107 1117.21C468.534 1117.21 483.472 1102.27 483.472 1083.84C483.472 1065.41 468.534 1050.48 450.107 1050.48C431.68 1050.48 416.742 1065.41 416.742 1083.84C416.742 1102.27 431.68 1117.21 450.107 1117.21Z" fill="#335CDF"/>
<path d="M450.107 1103.11C460.746 1103.11 469.371 1094.48 469.371 1083.84C469.371 1073.2 460.746 1064.58 450.107 1064.58C439.468 1064.58 430.843 1073.2 430.843 1083.84C430.843 1094.48 439.468 1103.11 450.107 1103.11Z" fill="#4497F3"/>
<path d="M366.665 1244.79C380.458 1244.79 391.64 1233.61 391.64 1219.82C391.64 1206.03 380.458 1194.84 366.665 1194.84C352.872 1194.84 341.691 1206.03 341.691 1219.82C341.691 1233.61 352.872 1244.79 366.665 1244.79Z" fill="#4497F3"/>
<path d="M511.535 1293.71C517.347 1293.71 522.058 1289 522.058 1283.18C522.058 1277.37 517.347 1272.66 511.535 1272.66C505.723 1272.66 501.011 1277.37 501.011 1283.18C501.011 1289 505.723 1293.71 511.535 1293.71Z" fill="#4497F3"/>
<path d="M514.203 1339.03L525.274 1364L597.831 1329.98L586.644 1305.48L514.203 1339.03Z" fill="#1841A1"/>
<path d="M387.887 1047L377.562 1027.19C377.146 1026.38 377.061 1025.44 377.327 1024.57C377.592 1023.7 378.187 1022.97 378.984 1022.53L382.538 1020.57C383.339 1020.14 383.939 1019.41 384.209 1018.53C384.479 1017.66 384.398 1016.72 383.983 1015.91L366.922 982.207C366.71 981.787 366.585 981.329 366.554 980.86C366.524 980.39 366.588 979.919 366.744 979.475C366.899 979.032 367.143 978.624 367.46 978.276C367.777 977.928 368.161 977.648 368.588 977.453L418.222 954.704C418.643 954.51 419.099 954.402 419.562 954.385C420.026 954.369 420.488 954.444 420.922 954.608C421.355 954.772 421.752 955.02 422.089 955.339C422.426 955.658 422.696 956.04 422.884 956.464L439.001 992.556C439.188 992.981 439.457 993.365 439.793 993.685C440.13 994.004 440.527 994.254 440.961 994.419C441.394 994.584 441.857 994.661 442.321 994.645C442.785 994.629 443.241 994.521 443.663 994.327L446.541 992.929C447.374 992.527 448.333 992.472 449.207 992.776C450.08 993.08 450.798 993.717 451.203 994.549L460.677 1014.09L387.887 1047Z" fill="#1841A1"/>
<path d="M349.325 1532.92C359.243 1532.92 367.283 1524.88 367.283 1514.97C367.283 1505.05 359.243 1497.01 349.325 1497.01C339.407 1497.01 331.366 1505.05 331.366 1514.97C331.366 1524.88 339.407 1532.92 349.325 1532.92Z" fill="#4497F3"/>
<path d="M671.566 1394.43H453.545C449.207 1394.43 445.691 1397.94 445.691 1402.28C445.691 1406.61 449.207 1410.13 453.545 1410.13H671.566C675.904 1410.13 679.42 1406.61 679.42 1402.28C679.42 1397.94 675.904 1394.43 671.566 1394.43Z" fill="#1841A1"/>
<path d="M471.748 1410.04H656.94V1433.72C656.94 1436.52 655.826 1439.21 653.844 1441.19C651.862 1443.17 649.173 1444.29 646.37 1444.29H482.318C479.515 1444.29 476.827 1443.17 474.844 1441.19C472.862 1439.21 471.748 1436.52 471.748 1433.72V1410.04Z" fill="#335CDF"/>
<path d="M504.927 1444.65H624.833V1450.65C624.833 1453.89 623.548 1456.99 621.26 1459.28C618.971 1461.57 615.868 1462.85 612.632 1462.85H517.07C513.834 1462.85 510.731 1461.57 508.442 1459.28C506.154 1456.99 504.869 1453.89 504.869 1450.65V1444.65H504.927Z" fill="#7EB7FA"/>
<path d="M506.186 1514.24L508.668 1432.66C508.807 1427.94 510.781 1423.46 514.171 1420.17C517.561 1416.87 522.099 1415.03 526.825 1415.03C529.756 1415.03 532.643 1415.74 535.241 1417.1C537.839 1418.45 540.069 1420.42 541.741 1422.83L598.659 1504.77C600.453 1507.35 601.506 1510.38 601.704 1513.51C601.902 1516.65 601.238 1519.79 599.784 1522.58C598.329 1525.37 596.139 1527.7 593.452 1529.34C590.764 1530.97 587.68 1531.84 584.534 1531.85L523.538 1532.05C521.216 1532.06 518.916 1531.61 516.774 1530.71C514.631 1529.82 512.692 1528.5 511.072 1526.84C509.451 1525.17 508.183 1523.2 507.344 1521.04C506.504 1518.87 506.11 1516.56 506.186 1514.24Z" fill="#7EB7FA"/>
<path d="M528.118 1520.34C532.682 1520.34 536.381 1516.64 536.381 1512.08C536.381 1507.51 532.682 1503.81 528.118 1503.81C523.555 1503.81 519.856 1507.51 519.856 1512.08C519.856 1516.64 523.555 1520.34 528.118 1520.34Z" fill="#335CDF"/>
<path d="M585.082 1520.32C587.76 1520.32 589.93 1518.15 589.93 1515.48C589.93 1512.8 587.76 1510.63 585.082 1510.63C582.405 1510.63 580.234 1512.8 580.234 1515.48C580.234 1518.15 582.405 1520.32 585.082 1520.32Z" fill="#335CDF"/>
<path opacity="0.61" d="M1514.24 1705.22V1555.88C1514.24 1540.41 1527.25 1527.91 1543.3 1527.91H1835.81C1851.86 1527.91 1864.86 1540.47 1864.86 1555.88V1707.71" stroke="#1841A1" stroke-width="13.9846" stroke-miterlimit="10"/>
<path d="M1550.56 1498.93H1600.31V1656.93C1600.31 1663.53 1597.69 1669.86 1593.02 1674.53C1588.35 1679.19 1582.03 1681.81 1575.43 1681.81C1568.83 1681.81 1562.5 1679.19 1557.83 1674.53C1553.17 1669.86 1550.55 1663.53 1550.55 1656.93V1498.93H1550.56Z" fill="#7EB7FA"/>
<mask id="mask1_146_3457" style="mask-type:alpha" maskUnits="userSpaceOnUse" x="1550" y="1498" width="51" height="184">
<path d="M1550.56 1498.93H1600.31V1656.93C1600.31 1663.53 1597.69 1669.86 1593.02 1674.53C1588.35 1679.19 1582.03 1681.81 1575.43 1681.81C1568.83 1681.81 1562.5 1679.19 1557.83 1674.53C1553.17 1669.86 1550.55 1663.53 1550.55 1656.93V1498.93H1550.56Z" fill="#7EB7FA"/>
</mask>
<g mask="url(#mask1_146_3457)">
<path d="M1606.36 1569.18H1540.8V1692.89H1606.36V1569.18Z" fill="#218DFF"/>
</g>
<path d="M1626.87 1498.93H1676.62V1656.93C1676.62 1663.53 1674 1669.86 1669.33 1674.53C1664.66 1679.19 1658.33 1681.81 1651.74 1681.81C1645.14 1681.81 1638.81 1679.19 1634.14 1674.53C1629.48 1669.86 1626.86 1663.53 1626.86 1656.93V1498.93H1626.87Z" fill="#218DFF"/>
<mask id="mask2_146_3457" style="mask-type:alpha" maskUnits="userSpaceOnUse" x="1626" y="1498" width="51" height="184">
<path d="M1626.87 1498.93H1676.62V1656.93C1676.62 1663.53 1674 1669.86 1669.33 1674.53C1664.66 1679.19 1658.34 1681.81 1651.74 1681.81C1645.14 1681.81 1638.81 1679.19 1634.14 1674.53C1629.48 1669.86 1626.86 1663.53 1626.86 1656.93V1498.93H1626.87Z" fill="#218DFF"/>
</mask>
<g mask="url(#mask2_146_3457)">
<path d="M1618.13 1579.61H1685.02V1698.94H1616.77L1618.13 1579.61Z" fill="#7EB7FA"/>
</g>
<path d="M1703.18 1498.93H1752.93V1656.93C1752.93 1663.53 1750.31 1669.86 1745.64 1674.53C1740.97 1679.19 1734.64 1681.81 1728.05 1681.81C1721.45 1681.81 1715.12 1679.19 1710.45 1674.53C1705.79 1669.86 1703.16 1663.53 1703.16 1656.93V1498.93H1703.18Z" fill="#7EB7FA"/>
<mask id="mask3_146_3457" style="mask-type:alpha" maskUnits="userSpaceOnUse" x="1703" y="1498" width="50" height="184">
<path d="M1703.18 1498.93H1752.93V1656.93C1752.93 1663.53 1750.31 1669.86 1745.64 1674.53C1740.97 1679.19 1734.64 1681.81 1728.05 1681.81C1721.45 1681.81 1715.12 1679.19 1710.45 1674.53C1705.79 1669.86 1703.16 1663.53 1703.16 1656.93V1498.93H1703.18Z" fill="#7EB7FA"/>
</mask>
<g mask="url(#mask3_146_3457)">
<path d="M1693.42 1551.7H1761.71V1690.87C1761.71 1690.87 1699.18 1695.24 1699.18 1690.87C1699.18 1686.5 1693.42 1551.7 1693.42 1551.7Z" fill="#218DFF"/>
</g>
<path d="M1779.49 1498.93H1829.24V1656.93C1829.24 1663.53 1826.61 1669.86 1821.95 1674.53C1817.28 1679.19 1810.95 1681.81 1804.36 1681.81C1797.76 1681.81 1791.43 1679.19 1786.76 1674.53C1782.1 1669.86 1779.47 1663.53 1779.47 1656.93V1498.93H1779.49Z" fill="#7EB7FA"/>
<mask id="mask4_146_3457" style="mask-type:alpha" maskUnits="userSpaceOnUse" x="1779" y="1498" width="51" height="184">
<path d="M1779.49 1498.93H1829.24V1656.93C1829.24 1663.53 1826.61 1669.86 1821.95 1674.53C1817.28 1679.19 1810.95 1681.81 1804.36 1681.81C1797.76 1681.81 1791.43 1679.19 1786.76 1674.53C1782.1 1669.86 1779.47 1663.53 1779.47 1656.93V1498.93H1779.49Z" fill="#7EB7FA"/>
</mask>
<g mask="url(#mask4_146_3457)">
<path d="M1770.75 1621.3H1838.64V1693.9H1770.41L1770.75 1621.3Z" fill="#218DFF"/>
</g>
<path d="M1078.31 937.736C1078.31 937.736 1141.62 921.304 1198.03 917.68C1198.03 917.68 1120.87 1176.87 1160.47 1709.48L980.603 1711.72C980.603 1711.72 983.236 1258.03 1078.31 937.736Z" fill="#F2A91F"/>
<mask id="mask5_146_3457" style="mask-type:alpha" maskUnits="userSpaceOnUse" x="980" y="917" width="219" height="795">
<path d="M1078.31 937.736C1078.31 937.736 1141.62 921.304 1198.03 917.68C1198.03 917.68 1120.87 1176.87 1160.47 1709.48L980.602 1711.72C980.602 1711.72 983.236 1258.03 1078.31 937.736Z" fill="#E7AB44"/>
</mask>
<g mask="url(#mask5_146_3457)">
<path opacity="0.6" d="M1099.29 932.027C1099.29 932.027 1034.62 1362.75 1053.05 1723.32L980.602 1738.29C980.602 1738.29 997.57 1142.26 1062.77 941.7L1099.29 932.051" fill="#CC8F3F"/>
</g>
<path d="M1099.29 932.026C1066.63 940.101 1035 951.873 1005.02 967.116C942.18 999.071 851.932 1012.57 808.3 1039.3L766.346 779.116C766.075 777.438 765.172 775.927 763.821 774.896C762.471 773.864 760.776 773.389 759.086 773.569C731.909 776.447 624.997 791.807 598.111 791.632C563.453 791.434 615.72 1213.18 692.03 1267.11C768.339 1321.04 918.114 1240.08 918.114 1240.08C918.114 1240.08 845.01 1550.96 846.315 1711.66L1019.96 1710.49C1002.92 1256.71 1098.99 932.97 1099.29 932.026Z" fill="#CAE7FF"/>
<mask id="mask6_146_3457" style="mask-type:alpha" maskUnits="userSpaceOnUse" x="587" y="773" width="513" height="939">
<path d="M1099.29 932.03C1066.63 940.105 1035 951.877 1005.02 967.12C942.18 999.075 851.932 1012.57 808.3 1039.3L766.346 779.12C766.076 777.442 765.172 775.931 763.821 774.899C762.471 773.868 760.776 773.393 759.086 773.572C731.909 776.451 624.997 791.811 598.111 791.636C563.453 791.438 615.72 1213.18 692.03 1267.11C768.339 1321.05 918.114 1240.09 918.114 1240.09C918.114 1240.09 845.01 1550.97 846.315 1711.66L1019.96 1710.5C1002.92 1256.72 1098.99 932.974 1099.29 932.03Z" fill="#CAE7FF"/>
</mask>
<g mask="url(#mask6_146_3457)">
<path d="M918.138 1240.14C918.138 1240.14 859.228 1630.63 889.131 1722.89L824.336 1724.14C824.336 1724.14 869.868 1350.58 918.138 1240.14Z" fill="#A1E0FF"/>
<path opacity="0.7" d="M778.723 884.18C778.723 884.18 621.804 889.447 612.166 942.927C602.528 996.406 701.539 1279.63 779.061 1276.36C973.459 1268.2 735.86 1334.74 735.86 1334.74L595.023 1219.81L573.859 1072.41L514.751 942.927C514.751 942.927 471.632 915.086 778.723 884.18Z" fill="#A1E0FF"/>
<path opacity="0.8" d="M810.071 1029.89C810.071 1029.89 803.697 1075.86 789.024 1097.48C775.518 1117.37 817.273 1091.93 837.213 1044.3C847.795 1019.01 1003.79 1003.08 1039.02 957.224C1074.25 911.366 810.071 1029.89 810.071 1029.89Z" fill="#A1E0FF"/>
</g>
<path d="M1372.67 914.593C1357.9 901.773 1258.28 912.39 1197.87 917.681H1197.98C1102.42 1172.03 1131.55 1709.48 1131.55 1709.48L1115.67 1709.8L1496.37 1707.12C1496.37 1707.12 1470.03 1437.08 1441.06 1397.57C1441.06 1397.57 1579.35 1439.73 1584.63 1323.81C1589.91 1207.89 1402.97 940.954 1372.67 914.593Z" fill="#CAE7FF"/>
<path d="M1282.38 1045.17C1282.38 1045.17 1391.34 1368.44 1533.4 1401.1C1533.4 1401.1 1477.28 1411.7 1441.14 1397.61C1403.7 1382.97 1295.55 1176.18 1282.38 1045.21" fill="#A1E0FF"/>
<mask id="mask7_146_3457" style="mask-type:alpha" maskUnits="userSpaceOnUse" x="1115" y="908" width="470" height="802">
<path d="M1372.67 914.589C1357.9 901.769 1258.28 912.386 1197.87 917.677H1197.98C1102.42 1172.02 1131.55 1709.47 1131.55 1709.47L1115.67 1709.8L1496.37 1707.12C1496.37 1707.12 1470.03 1437.08 1441.06 1397.57C1441.06 1397.57 1579.35 1439.72 1584.63 1323.8C1589.91 1207.88 1402.97 940.95 1372.67 914.589Z" fill="#CAE7FF"/>
</mask>
<g mask="url(#mask7_146_3457)">
<path d="M1510.5 1117.86L1484.11 1008.9C1484.11 1008.9 1411.53 894.335 1360.95 918.797C1310.37 943.258 1267.36 967.393 1267.36 967.393C1267.36 967.393 1347.77 939.074 1372.67 952.371C1417.4 976.308 1510.5 1117.86 1510.5 1117.86Z" fill="#A1E0FF"/>
<path d="M1441.14 1397.55C1441.14 1397.55 1476.36 1639.95 1468.05 1706.53H1523.99C1523.99 1706.53 1489.55 1406.33 1441.14 1397.55Z" fill="#A1E0FF"/>
</g>
<path d="M752.816 775.376C752.816 775.376 759.983 759.282 752.49 734.797C750.509 724.728 753.154 712.899 754.914 702.795C757.932 686.55 762.897 679.628 742.642 664.664C742.642 664.664 729.206 657.881 714.918 662.52C700.63 667.158 686.063 636.718 686.063 636.718C686.063 636.718 669.748 635.646 664.154 672.542C664.154 672.542 638.842 673.066 642.279 689.498C645.923 700.543 651.093 711.024 657.639 720.637C658.805 722.381 659.384 724.451 659.294 726.546C659.204 728.642 658.449 730.654 657.138 732.291L645.484 705.394C645.484 705.394 637.42 681.259 617.165 688.042C607.586 691.27 597.459 696.969 596.596 706.933C595.641 718.039 604.754 733.736 608.938 742.547C616.909 759.212 632.514 789.162 632.514 789.162L752.816 775.376Z" fill="#E7AB44"/>
<path d="M1225.32 913.917C1218.04 907.589 1216.85 879.375 1214.72 869.959V864.505C1214.72 862.268 1215.28 860.067 1216.35 858.102C1217.42 856.138 1218.97 854.473 1220.85 853.259C1239.13 841.034 1253.3 806.644 1257.13 796.493C1259.64 789.711 1261.6 778.476 1262.95 768.081C1265.82 747.537 1263.73 726.603 1256.83 707.038C1251.01 690.932 1242.25 677.297 1229.07 669.746C1222.83 666.25 1213.81 666.972 1206.93 669C1206.53 669.13 1206.14 669.289 1205.77 669.478C1205.91 669.664 1206.02 669.862 1206.16 670.072L1205.15 669.827C1205.35 669.711 1205.55 669.583 1205.77 669.478C1201.2 662.696 1195.53 656.725 1189 651.811C1175.96 642.208 1164.43 633.269 1148.52 626.172C1142.57 623.527 1136.66 620.811 1130.55 618.702C1115.18 613.481 1099.09 613.295 1086.47 619.949C1077.88 624.459 1073.33 632.523 1074.17 641.567L1073.4 641.87C1064.1 637.226 1054.05 634.245 1043.72 633.059C1023.75 630.985 1010.93 632.92 1000.68 649.095C996.946 654.549 995.33 661.18 996.137 667.741C996.953 672.403 997.407 677.402 1003.13 684.325C1018.21 702.691 1026.27 706.362 1048.82 717.503C1042.85 737.245 1035.56 763.583 1034.47 779.84C1032.77 805.851 1036.04 868.794 1106.92 878.431C1106.92 878.431 1107.28 912.228 1098.2 935.733" fill="#F2A91F"/>
<mask id="mask8_146_3457" style="mask-type:alpha" maskUnits="userSpaceOnUse" x="995" y="614" width="270" height="322">
<path d="M1225.32 913.917C1218.04 907.589 1216.85 879.375 1214.72 869.959V864.505C1214.72 862.268 1215.28 860.067 1216.35 858.102C1217.42 856.138 1218.97 854.473 1220.85 853.259C1239.13 841.034 1253.3 806.644 1257.13 796.493C1259.64 789.711 1261.6 778.476 1262.95 768.081C1265.82 747.537 1263.73 726.603 1256.83 707.038C1251.01 690.932 1242.25 677.297 1229.07 669.746C1222.83 666.25 1213.81 666.972 1206.93 669C1206.53 669.13 1206.14 669.289 1205.77 669.478C1205.91 669.664 1206.02 669.862 1206.16 670.072L1205.15 669.827C1205.35 669.711 1205.55 669.583 1205.77 669.478C1201.2 662.696 1195.53 656.725 1189 651.811C1175.96 642.208 1164.43 633.269 1148.52 626.172C1142.57 623.527 1136.66 620.811 1130.55 618.702C1115.18 613.481 1099.09 613.295 1086.47 619.949C1077.88 624.459 1073.33 632.523 1074.17 641.567L1073.4 641.87C1064.1 637.226 1054.05 634.245 1043.72 633.059C1023.75 630.985 1010.93 632.92 1000.68 649.095C996.946 654.549 995.33 661.18 996.137 667.741C996.953 672.403 997.407 677.402 1003.13 684.325C1018.21 702.691 1026.27 706.362 1048.82 717.503C1042.85 737.245 1035.56 763.583 1034.47 779.84C1032.77 805.851 1036.04 868.794 1106.92 878.431C1106.92 878.431 1107.28 912.228 1098.2 935.733" fill="#E7AB44"/>
</mask>
<g mask="url(#mask8_146_3457)">
<path opacity="0.6" d="M1124.66 903.055C1128.8 896.203 1138.76 880.645 1139.34 872.044C1139.92 863.444 1121.92 868.466 1087.7 859.773C1048.82 849.879 1017.14 787.391 1017.14 787.391L1023.66 867.581L1090.87 947.922C1090.87 947.922 1120.51 909.919 1124.66 903.055Z" fill="#CC8F3F"/>
<path opacity="0.6" d="M1073.36 641.939C1073.36 641.939 1022.08 629.05 1010.84 650.785C990.904 689.417 1048.8 717.596 1048.8 717.596L985.089 727.211C985.089 727.211 948.962 671.517 949.778 663.021C950.594 654.526 975.952 614.938 975.952 614.938L1059.86 619.995L1073.36 641.939Z" fill="#CC8F3F"/>
</g>
<path opacity="0.6" d="M1034.79 776.156C1034.79 776.156 1051.82 801.573 1115.45 803.543C1179.08 805.512 1194.37 779.07 1198.19 779.07C1202.01 779.07 1199.52 801.352 1181.15 807.272C1163.36 813.076 1081.99 829.24 1034.79 776.156Z" fill="#CC8F3F"/>
<path d="M665.785 669.655C667.615 663.071 669.176 656.183 672.23 650.065C674.84 644.972 678.802 640.217 684.326 638.19C686.366 637.444 685.492 634.181 683.429 634.926C669.444 640.008 666.018 656.032 662.452 668.723C662.334 669.158 662.393 669.623 662.615 670.016C662.84 670.41 663.212 670.698 663.648 670.818C664.085 670.938 664.552 670.88 664.946 670.657C665.338 670.434 665.627 670.065 665.75 669.632L665.785 669.655Z" fill="#9E6635"/>
<path d="M719.241 664.525C722.707 663.072 726.438 662.356 730.196 662.422C733.953 662.489 737.656 663.335 741.069 664.909C744.227 666.503 746.975 668.804 749.098 671.633C751.422 674.723 753.135 678.227 754.145 681.959C755.169 686.08 755.289 690.374 754.494 694.545C753.632 699.568 752.245 704.369 751.662 709.462C751.019 714.657 750.883 719.903 751.254 725.125C751.737 730.339 752.491 735.524 753.515 740.659C755.415 751.148 757.478 762.802 753.597 772.917C752.816 774.968 755.24 776.763 756.032 774.689C759.68 765.179 758.794 754.492 757.093 744.54C756.172 739.133 755.042 733.76 754.389 728.225C753.749 722.851 753.69 717.424 754.214 712.037C754.914 706.785 755.854 701.599 757.035 696.479C758.023 691.848 758.075 687.065 757.186 682.413C756.331 678.357 754.751 674.489 752.525 670.992C750.464 667.76 747.739 665.003 744.53 662.905C736.512 657.789 727.049 657.835 718.542 661.028C718.35 661.104 718.174 661.217 718.026 661.361C717.878 661.505 717.76 661.677 717.68 661.867C717.492 662.288 717.447 662.759 717.552 663.208C717.631 663.636 717.868 664.018 718.216 664.28C718.367 664.394 718.543 664.469 718.73 664.5C718.917 664.53 719.108 664.515 719.288 664.455L719.241 664.525Z" fill="#9E6635"/>
<path d="M1055.02 791.552C1075.43 799.873 1119.29 811.993 1175.94 794.698C1188.48 790.864 1199.25 781.681 1203.24 769.211C1205.54 762.112 1205.73 754.496 1203.79 747.29C1196.86 720.487 1168.58 718.657 1133.52 730.719C1099.08 742.559 1076.85 721.594 1052.79 724.484C1038.46 726.197 1019.55 751.136 1032.71 773.197C1037.75 781.728 1045.88 787.869 1055.02 791.552Z" fill="#FFD89F" stroke="#9D6434" stroke-width="2.33077" stroke-miterlimit="10"/>
<g opacity="0.6">
<path d="M595.652 909.26L666.951 899.307L738.039 889.378L778.128 883.796C779.212 883.645 778.758 882.001 777.686 882.106L706.469 892.07L635.38 902.011L595.326 907.605C594.242 907.757 594.697 909.388 595.769 909.306L595.652 909.26Z" fill="#218DFF"/>
<path d="M595.652 909.886C595.431 909.89 595.211 909.842 595.011 909.747L592.261 909.199L594.219 908.907C594.155 908.763 594.112 908.61 594.091 908.453C594.068 908.282 594.081 908.108 594.128 907.943C594.175 907.777 594.256 907.623 594.365 907.489C594.474 907.356 594.61 907.247 594.763 907.168C594.916 907.089 595.084 907.042 595.256 907.031L777.581 881.521C777.786 881.498 777.994 881.517 778.192 881.576C778.39 881.635 778.575 881.734 778.734 881.865C778.894 881.996 779.026 882.158 779.122 882.341C779.218 882.525 779.276 882.725 779.294 882.931C779.322 883.104 779.313 883.281 779.268 883.45C779.223 883.619 779.143 883.777 779.033 883.914C778.924 884.05 778.786 884.162 778.63 884.241C778.474 884.321 778.303 884.367 778.128 884.376L599.113 909.385L599.941 909.548L595.78 909.886H595.652ZM777.755 882.675L595.373 908.185C595.268 908.185 595.244 908.185 595.256 908.325C595.266 908.411 595.299 908.492 595.353 908.56C595.406 908.628 595.478 908.68 595.559 908.709L778.012 883.222C778.105 883.222 778.14 883.222 778.128 883.071C778.117 882.919 778.012 882.675 777.755 882.675Z" fill="#218DFF"/>
</g>
<path d="M1069.58 786.358C1084.73 792.546 1117.36 801.566 1159.52 788.688C1168.85 785.833 1176.82 779.016 1179.82 769.728C1181.54 764.444 1181.68 758.775 1180.23 753.412C1175.08 733.449 1154.05 732.109 1127.98 741.071C1102.34 749.881 1085.81 734.3 1067.92 736.409C1057.26 737.691 1043.2 756.221 1052.98 772.653C1056.88 778.902 1062.71 783.713 1069.58 786.358Z" fill="#EFBB7B"/>
<g opacity="0.6">
<path d="M1017.45 1710.52C1006.29 1293.7 1099.29 932.039 1099.29 932.039" stroke="#218DFF" stroke-width="5.82693" stroke-linecap="round" stroke-linejoin="round"/>
<path d="M1194.87 921.34C1194.87 921.34 1128.08 1157 1129.34 1434.38L1131.78 1706.55" stroke="#218DFF" stroke-width="5.82693" stroke-linecap="round" stroke-linejoin="round"/>
</g>
<g opacity="0.8">
<path d="M1131.85 773.084L1137.5 782.256C1137.7 782.519 1137.96 782.74 1138.24 782.909C1138.54 783.072 1138.86 783.175 1139.19 783.212C1139.84 783.296 1140.5 783.13 1141.03 782.745C1141.29 782.547 1141.52 782.297 1141.68 782.01C1141.85 781.724 1141.96 781.407 1142 781.079C1142.05 780.421 1141.86 779.766 1141.48 779.226L1135.84 770.054C1135.64 769.789 1135.38 769.567 1135.09 769.402C1134.8 769.239 1134.47 769.135 1134.14 769.099C1133.47 769.014 1132.79 769.194 1132.25 769.6C1131.99 769.799 1131.77 770.049 1131.6 770.335C1131.44 770.621 1131.33 770.938 1131.29 771.266C1131.25 771.924 1131.43 772.577 1131.8 773.119L1131.85 773.084Z" fill="white"/>
<path d="M1137.18 760.415L1141.5 767.034C1141.7 767.3 1141.96 767.519 1142.25 767.675C1142.54 767.84 1142.87 767.944 1143.2 767.978C1143.86 768.061 1144.53 767.886 1145.07 767.489C1145.61 767.08 1145.96 766.477 1146.05 765.811C1146.1 765.153 1145.91 764.5 1145.52 763.969L1141.2 757.35C1140.78 756.823 1140.17 756.48 1139.5 756.396C1138.83 756.311 1138.16 756.49 1137.62 756.896C1137.09 757.306 1136.74 757.903 1136.65 758.562C1136.6 759.222 1136.79 759.878 1137.17 760.415H1137.18Z" fill="white"/>
<path d="M1041.51 760.438L1047.12 769.901C1047.32 770.169 1047.58 770.392 1047.87 770.553C1048.16 770.727 1048.48 770.834 1048.81 770.868C1049.14 770.915 1049.48 770.895 1049.8 770.808C1050.13 770.721 1050.43 770.569 1050.69 770.362C1050.95 770.155 1051.17 769.897 1051.33 769.603C1051.49 769.31 1051.59 768.987 1051.62 768.654C1051.68 767.976 1051.5 767.301 1051.11 766.742L1045.51 757.291C1045.31 757.022 1045.05 756.796 1044.76 756.627C1044.47 756.455 1044.15 756.348 1043.81 756.312C1043.48 756.271 1043.14 756.296 1042.82 756.386C1042.49 756.476 1042.19 756.629 1041.93 756.837C1041.39 757.262 1041.04 757.881 1040.95 758.561C1040.9 759.238 1041.08 759.909 1041.46 760.473L1041.51 760.438Z" fill="white"/>
<path d="M1048.14 748.937L1052.43 755.754C1052.63 756.024 1052.89 756.249 1053.18 756.419C1053.47 756.59 1053.79 756.698 1054.13 756.733C1054.46 756.774 1054.8 756.749 1055.12 756.659C1055.44 756.569 1055.74 756.416 1056 756.209C1056.55 755.788 1056.91 755.168 1056.99 754.484C1057.04 753.806 1056.85 753.133 1056.47 752.573L1052.18 745.755C1051.76 745.22 1051.15 744.869 1050.48 744.776C1049.81 744.706 1049.13 744.893 1048.59 745.301C1048.05 745.73 1047.71 746.354 1047.62 747.037C1047.57 747.713 1047.75 748.386 1048.13 748.949L1048.14 748.937Z" fill="white"/>
</g>
<path opacity="0.6" d="M1277.86 1047.69L1382.96 989.097L1412.61 972.572C1412.93 972.377 1413.17 972.063 1413.26 971.698C1413.31 971.519 1413.32 971.333 1413.29 971.151C1413.26 970.968 1413.2 970.794 1413.1 970.637C1412.91 970.31 1412.59 970.071 1412.23 969.973C1411.86 969.867 1411.47 969.905 1411.13 970.078L1306.05 1028.67L1276.4 1045.2C1276.08 1045.39 1275.84 1045.71 1275.75 1046.07C1275.66 1046.43 1275.72 1046.82 1275.91 1047.13C1276.1 1047.46 1276.42 1047.7 1276.78 1047.8C1276.98 1047.86 1277.18 1047.88 1277.38 1047.86C1277.58 1047.84 1277.77 1047.79 1277.95 1047.69H1277.86Z" fill="#218DFF"/>
<path opacity="0.6" d="M1192.89 1033.24C1192.89 1033.24 1230.97 1046.06 1204.62 1114.74C1178.28 1183.41 1132.86 1287.3 1133.54 1314.69C1133.54 1314.69 1136.29 1148.42 1194.87 921.342L1250.94 911.926C1250.94 911.926 1233.86 945.349 1234.23 994.388C1234.23 994.388 1235.95 1012.36 1226.27 1016.24C1216.58 1020.12 1192.89 1033.24 1192.89 1033.24Z" stroke="#218DFF" stroke-width="4.66154" stroke-linecap="round" stroke-linejoin="round"/>
<path d="M1088.43 745.111C1087.81 742.305 1086.35 739.752 1084.26 737.789L1084.24 737.776L1084.23 737.764C1082.98 736.773 1081.73 736.341 1080.5 736.356C1079.29 736.37 1078.15 736.825 1077.15 737.517C1075.14 738.892 1073.55 741.26 1072.63 743.348L1072.63 743.354L1072.62 743.361C1069.6 750.749 1068.95 758.894 1070.76 766.668L1070.76 766.669C1071.25 768.77 1072.25 771.632 1073.86 773.752C1074.67 774.815 1075.64 775.718 1076.82 776.229C1078 776.745 1079.35 776.845 1080.84 776.353C1083.9 775.359 1085.8 772.246 1086.87 769.66L1086.87 769.659C1088.54 765.607 1089.47 761.289 1089.61 756.91L1088.43 745.111ZM1085.22 756.861C1085.21 757.046 1085.22 757.222 1085.25 757.387C1085.05 760.267 1084.5 763.114 1083.62 765.867L1083.62 765.881L1083.62 765.894C1083.07 767.991 1082.01 769.916 1080.51 771.485C1079.76 772.148 1079.16 772.246 1078.69 772.121C1078.17 771.985 1077.65 771.548 1077.16 770.867C1076.18 769.512 1075.51 767.476 1075.19 766.269C1073.73 760.294 1073.86 754.038 1075.57 748.13L1075.57 748.129C1075.86 747.124 1076.6 744.824 1077.67 743.031C1078.2 742.13 1078.79 741.412 1079.41 741.03C1079.7 740.844 1080 740.745 1080.29 740.734C1080.57 740.722 1080.89 740.794 1081.24 740.999L1081.24 740.999C1082.04 741.468 1082.67 742.324 1083.17 743.36C1083.66 744.388 1084 745.534 1084.26 746.519C1085.1 749.894 1085.43 753.379 1085.22 756.853L1085.22 756.853L1085.22 756.861Z" fill="#9E6534" stroke="#9E6635"/>
<path d="M1168.85 762.602L1168.85 762.602L1168.85 762.608C1168.71 765.67 1168.18 768.703 1167.26 771.628L1167.26 771.641L1167.26 771.653C1166.71 773.75 1165.65 775.675 1164.15 777.244C1163.4 777.904 1162.8 778.001 1162.33 777.875C1161.81 777.738 1161.29 777.302 1160.8 776.621C1159.82 775.266 1159.15 773.228 1158.83 772.016C1157.37 766.045 1157.5 759.793 1159.21 753.889L1159.21 753.887C1159.5 752.877 1160.24 750.574 1161.31 748.78C1161.84 747.878 1162.43 747.159 1163.05 746.778C1163.34 746.591 1163.64 746.493 1163.93 746.481C1164.21 746.469 1164.53 746.541 1164.88 746.746L1164.88 746.747C1165.68 747.215 1166.31 748.073 1166.8 749.111C1167.29 750.14 1167.63 751.286 1167.9 752.268C1168.74 755.633 1169.06 759.108 1168.85 762.571C1168.85 762.581 1168.85 762.592 1168.85 762.602ZM1170.51 775.383C1172.17 771.34 1173.09 767.034 1173.24 762.666L1173.24 762.661C1173.48 758.688 1173.09 754.702 1172.06 750.857C1171.44 748.053 1169.99 745.502 1167.9 743.537L1167.88 743.523L1167.86 743.511C1166.62 742.523 1165.37 742.094 1164.14 742.11C1162.93 742.126 1161.79 742.582 1160.79 743.274C1158.79 744.651 1157.2 747.02 1156.28 749.108L1156.28 749.108L1156.28 749.12C1153.25 756.503 1152.59 764.643 1154.4 772.415L1154.4 772.416C1154.89 774.529 1155.89 777.391 1157.5 779.508C1158.31 780.57 1159.29 781.471 1160.46 781.979C1161.65 782.493 1163 782.592 1164.49 782.1L1164.49 782.1C1167.53 781.093 1169.38 777.964 1170.51 775.393L1170.51 775.393L1170.51 775.383Z" fill="#9E6534" stroke="#9E6635"/>
<path d="M1063.65 639.702C1070.35 643.872 1077.31 647.605 1084.48 650.878C1088.08 652.45 1091.55 654.297 1094.87 656.402C1097.85 658.512 1101.65 662.229 1102 666.052C1102.14 666.76 1102.05 667.495 1101.74 668.149C1101.44 668.798 1100.94 669.332 1100.31 669.676C1098.61 670.364 1096.14 668.814 1094.61 667.986C1091.36 666.332 1088.39 664.185 1085.79 661.623C1080.21 656.213 1076.99 648.815 1076.84 641.042C1076.89 637.687 1077.68 634.385 1079.14 631.365C1080.61 628.346 1082.71 625.683 1085.31 623.562C1087.39 621.86 1084.38 618.795 1082.32 620.555C1079.56 622.869 1077.28 625.709 1075.63 628.911C1073.98 632.112 1072.99 635.61 1072.7 639.201C1072.51 643.794 1073.27 648.378 1074.93 652.663C1076.59 656.949 1079.12 660.845 1082.36 664.105C1085.41 667.224 1088.95 669.809 1092.85 671.75C1096.35 673.452 1100.79 675.386 1104.05 672.158C1111.27 665.096 1100.92 654.747 1094.9 651.275C1085.42 645.774 1075.09 642.045 1065.87 636.008C1063.54 634.505 1061.46 638.164 1063.73 639.679L1063.65 639.702Z" fill="#9E6534"/>
<path d="M1200.71 666.54C1204.31 669.899 1207.15 673.993 1209.03 678.544C1210 680.822 1210.6 683.236 1210.82 685.699C1210.82 687.599 1210.98 690.792 1209.66 692.482C1206.96 695.745 1203.66 685.233 1203.28 683.753C1202.61 681.411 1202.56 678.932 1203.13 676.563C1203.45 675.557 1204 674.636 1204.72 673.868C1205.44 673.099 1206.33 672.503 1207.32 672.123C1211.82 670.048 1216.82 669.266 1221.74 669.862C1222.02 669.862 1222.3 669.807 1222.55 669.701C1222.81 669.595 1223.04 669.44 1223.24 669.244C1223.44 669.05 1223.59 668.819 1223.7 668.562C1223.81 668.306 1223.87 668.031 1223.87 667.753C1223.85 667.194 1223.63 666.661 1223.24 666.261C1222.84 665.866 1222.3 665.641 1221.74 665.631C1215.99 665.003 1210.17 666.017 1204.96 668.557C1203.61 669.181 1202.4 670.07 1201.4 671.171C1200.4 672.272 1199.63 673.562 1199.14 674.966C1198.25 678.005 1198.21 681.229 1199.02 684.289C1199.72 687.36 1200.86 690.313 1202.41 693.053C1203 694.288 1203.93 695.334 1205.08 696.071C1206.23 696.818 1207.57 697.222 1208.94 697.237C1210.37 697.033 1211.69 696.357 1212.69 695.316C1213.69 694.275 1214.31 692.928 1214.46 691.491C1215.15 688.386 1215.15 685.168 1214.46 682.063C1213.67 678.553 1212.33 675.187 1210.5 672.088C1208.54 669.033 1206.27 666.193 1203.72 663.615C1201.82 661.646 1198.81 664.653 1200.71 666.599V666.54Z" fill="#9E6534"/>
<path d="M1099.87 842.016C1100.58 842.726 1101.83 843.102 1102.87 842.318H1102.91L1103.07 842.175C1107.39 838.419 1112.49 835.666 1118.01 834.116C1123.52 832.566 1129.31 832.256 1134.95 833.208C1136.38 833.458 1137.37 832.464 1137.66 831.435C1137.8 830.916 1137.79 830.329 1137.52 829.819C1137.25 829.291 1136.75 828.911 1136.05 828.785L1136.05 828.785L1136.05 828.785C1129.66 827.685 1123.1 828.021 1116.86 829.768C1110.62 831.514 1104.84 834.627 1099.95 838.882C1099.41 839.349 1099.16 839.937 1099.18 840.534C1099.21 841.112 1099.49 841.633 1099.87 842.016Z" fill="#9E6534" stroke="#9E6534" stroke-width="1.16539" stroke-miterlimit="10"/>
<path d="M1148.06 718.084L1148.06 718.084L1148.06 718.083C1157.88 714.073 1168.76 709.863 1179.18 713.202C1179.84 713.411 1180.44 713.317 1180.92 713.011C1181.39 712.713 1181.7 712.239 1181.85 711.734C1182 711.23 1181.99 710.659 1181.77 710.15C1181.54 709.63 1181.1 709.204 1180.44 708.998C1168.69 705.24 1156.67 709.862 1146.04 714.197L1146.04 714.198C1145.4 714.458 1145.01 714.913 1144.87 715.461C1144.73 715.99 1144.85 716.541 1145.1 716.996C1145.61 717.898 1146.77 718.602 1148.06 718.084Z" fill="#9E6534" stroke="#9E6635"/>
<path d="M1200.07 737.654C1200.07 737.654 1228.83 749.669 1261.95 732.992L1264.2 755.135C1264.2 755.135 1245.26 762.243 1204.76 755.344V754.983C1204.18 749.317 1202.73 743.775 1200.46 738.551L1200.07 737.654Z" fill="#FFD89F" stroke="#9D6434" stroke-width="2.33077" stroke-miterlimit="10"/>
<path opacity="0.6" d="M1040.82 1265.62C1039.23 1280.06 1028.36 1228.33 1026.05 1213.92C1019.7 1174.49 1013.34 1135.05 1006.99 1095.61C1006.35 1091.59 1005.72 1087.34 1007.2 1083.54C1009.21 1078.36 1014.55 1075.38 1019.5 1072.85C1027.89 1068.54 1036.61 1064.14 1046.05 1063.53C1037.23 1055.76 1041.39 1054.49 1032.3 1047.76C1031.13 1046.89 1025.43 1043.69 1024.55 1042.53C1023.78 1041.28 1023.4 1039.82 1023.48 1038.36C1022.39 1009.37 1036.66 981.975 1039.51 953.121L1099.29 931.969C1099.29 931.969 1060.98 1083.21 1040.82 1265.62Z" stroke="#218DFF" stroke-width="4.66154" stroke-linecap="round" stroke-linejoin="round"/>
<path opacity="0.6" d="M1264.2 973.949C1264.2 973.949 1298.71 1226.92 1423.26 1382.65" stroke="#218DFF" stroke-width="4.66154" stroke-linecap="round" stroke-linejoin="round"/>
<path opacity="0.6" d="M1372.67 969.076C1379.15 969.076 1384.4 963.828 1384.4 957.353C1384.4 950.878 1379.15 945.629 1372.67 945.629C1366.2 945.629 1360.95 950.878 1360.95 957.353C1360.95 963.828 1366.2 969.076 1372.67 969.076Z" stroke="#218DFF" stroke-width="3.49616" stroke-miterlimit="10"/>
<path opacity="0.6" d="M630.229 881.522C636.704 881.522 641.953 876.273 641.953 869.798C641.953 863.323 636.704 858.074 630.229 858.074C623.754 858.074 618.505 863.323 618.505 869.798C618.505 876.273 623.754 881.522 630.229 881.522Z" stroke="#218DFF" stroke-width="3.49616" stroke-miterlimit="10"/>
<path d="M674.59 579.942L715.507 577.991C715.834 577.975 716.154 578.09 716.397 578.31C716.639 578.531 716.784 578.838 716.8 579.166L727.03 793.714C727.304 799.466 725.283 805.091 721.409 809.352C717.536 813.613 712.129 816.16 706.378 816.435C700.626 816.709 695.001 814.687 690.74 810.814C686.479 806.941 683.931 801.534 683.657 795.782L673.427 581.234C673.411 580.907 673.526 580.587 673.747 580.344C673.967 580.102 674.275 579.957 674.602 579.941L674.59 579.942Z" fill="#7EB7FA"/>
<path d="M633.935 789.946C629.46 780.261 624.437 770.833 619.589 761.335C614.741 751.838 609.567 741.99 605.395 731.944C602.819 725.721 599.72 719.37 598.612 712.669C598.019 709.346 598.251 705.929 599.288 702.717C600.099 700.603 601.364 698.693 602.994 697.123C606.814 693.384 611.548 690.712 616.722 689.373C619.046 688.698 621.459 688.383 623.878 688.441C626.778 688.585 629.59 689.485 632.036 691.051C637.769 694.547 641.289 700.491 644.097 706.446C647.349 713.438 650.251 720.559 653.304 727.609L655.635 732.97C655.823 733.288 656.109 733.538 656.451 733.681C656.799 733.82 657.183 733.845 657.546 733.751C658.936 733.205 660.109 732.216 660.881 730.938C661.654 729.659 661.985 728.162 661.823 726.677C661.532 722.889 659.026 719.556 657.161 716.398L650.938 705.91C648.92 702.742 647.143 699.427 645.624 695.992C644.123 692.826 643.631 689.274 644.214 685.819C644.922 682.951 646.592 680.413 648.945 678.628C654.469 674.211 661.881 673.967 668.629 674.13C676.717 674.316 684.828 674.677 692.927 674.957C696.097 675.062 699.71 674.957 702.39 676.973C704.283 678.634 705.522 680.915 705.886 683.406C706.398 686.136 706.563 688.921 706.376 691.692C706.366 694.506 706.014 697.308 705.327 700.036C705.051 701.296 704.519 702.486 703.765 703.532C703.011 704.594 702.047 705.491 700.933 706.166C698.101 707.681 694.594 707.122 691.61 706.481C687.963 705.688 684.361 704.791 680.656 704.29C678.721 704.033 676.763 703.87 674.829 703.789C673.059 703.482 671.238 703.676 669.573 704.348C666.181 706.329 668.57 710.455 670.109 712.821L673.605 718.484L676.996 723.565C678.162 725.36 681.157 723.67 679.921 721.876L673.139 711.702L672.976 710.944C672.506 710.307 672.088 709.633 671.729 708.928C671.612 708.648 671.239 707.891 671.414 707.588C671.589 707.285 672.579 707.378 672.976 707.378C674.057 707.359 675.138 707.398 676.215 707.495C678.138 707.6 680.073 707.809 682.042 708.089C685.69 708.672 689.209 709.791 692.857 710.362C696.224 711.163 699.764 710.806 702.903 709.348C705.466 707.855 707.4 705.482 708.345 702.67C709.304 699.852 709.834 696.905 709.918 693.93C710.175 691.061 710.175 688.175 709.918 685.306C709.697 682.448 708.79 679.685 707.273 677.253C706.39 675.965 705.261 674.864 703.952 674.013C702.642 673.165 701.176 672.586 699.64 672.312C695.779 671.777 691.883 671.54 687.986 671.601L675.726 670.972C668.174 670.715 660.017 669.888 652.814 672.673C646.824 675.004 641.673 679.793 640.823 686.401C639.82 694.058 644.319 701.12 648.025 707.378L654.376 718.041C655.355 719.731 656.404 721.433 657.325 723.123C658.223 724.505 658.656 726.138 658.56 727.784C658.521 728.326 658.349 728.851 658.059 729.311C657.766 729.763 657.366 730.135 656.893 730.395L658.816 731.175C655.592 723.678 652.364 716.2 649.132 708.742C646.3 702.227 643.13 695.538 637.699 690.783C635.444 688.679 632.763 687.085 629.837 686.108C626.912 685.13 623.81 684.793 620.743 685.119C615.006 685.831 609.537 687.966 604.836 691.331C600.082 694.293 596.7 699.021 595.431 704.476C594.021 712.005 596.596 719.23 599.393 726.106C601.526 731.339 603.67 736.594 606.071 741.675C608.472 746.757 611.164 752.327 613.891 757.618C619.147 767.99 624.624 778.269 629.658 788.769C630.136 789.748 630.591 790.75 631.057 791.729C631.164 791.924 631.311 792.094 631.488 792.23C631.666 792.364 631.868 792.463 632.082 792.521C632.301 792.568 632.528 792.568 632.747 792.521C632.969 792.498 633.184 792.426 633.376 792.311C633.569 792.196 633.739 792.046 633.877 791.869C634.011 791.691 634.109 791.489 634.168 791.274C634.215 791.055 634.215 790.829 634.168 790.61C634.135 790.388 634.06 790.175 633.947 789.981L633.935 789.946Z" fill="#9E6635"/>
<path d="M653.898 675.9C653.898 675.9 659.445 672.8 671.694 674.257C683.942 675.713 697.798 673.359 702.39 677.019C706.981 680.678 706.422 691.737 706.422 691.737C706.422 691.737 707.587 707.354 696.202 707.214C684.816 707.074 682.217 702.762 670.225 703.543L653.898 675.9Z" fill="#E7AB44"/>
<path d="M1328.67 853.447C1324.3 846.945 1320.66 839.981 1317.82 832.68C1315.67 827.331 1311.73 822.366 1310.1 816.749C1307.45 807.647 1311.07 798.01 1315.03 789.409C1319 780.809 1323.44 771.812 1322.53 762.396C1322.4 759.903 1321.55 757.501 1320.08 755.485C1318.31 753.713 1314.74 749.739 1312.55 748.493C1311.24 747.511 1309.73 746.828 1308.12 746.488C1293.86 743.073 1289.29 754.413 1285.62 764.132L1280.65 769.33V768.84C1282.09 748.632 1275.05 747.863 1275.05 747.863C1265.49 740.871 1235.43 761.941 1232.7 764.68C1231.28 765.969 1230.38 767.729 1230.16 769.633C1230.61 777.068 1244.99 786.123 1246.47 786.647C1247.95 787.172 1252.99 780.983 1252.99 780.983L1265.33 768.292L1252.18 798.954L1247.45 803.907C1240.47 800.645 1234.48 795.577 1230.1 789.225C1225.73 782.874 1223.14 775.47 1222.58 767.78C1222.43 765.204 1222.33 762.244 1220.25 760.717C1218.93 759.918 1217.41 759.513 1215.87 759.552C1210.04 759.179 1203.81 758.864 1198.49 761.405C1192.42 764.272 1188.4 770.6 1187.12 777.196C1185.55 785.051 1187.26 793.267 1189.63 800.748C1191.98 808.059 1194.99 815.142 1198.61 821.912C1209.82 843.237 1222.21 863.919 1235.73 883.864C1235.73 883.864 1258.27 918.581 1263.06 969.916C1263.06 969.916 1335.97 926.319 1371.2 915.038L1328.67 853.447Z" fill="#F2A91F"/>
<path d="M1237.09 757.953L1255.3 746.812C1255.3 746.812 1249.84 727.816 1244.7 717.386C1240.79 709.414 1215.02 720.754 1218.4 728.597C1224.04 741.684 1237.09 757.953 1237.09 757.953Z" fill="#E7AB44"/>
<path d="M1230.17 755.902L1237.78 757.254C1235.27 754.748 1220.72 734.797 1220.72 734.797C1215.57 735.449 1211 741.241 1212.48 743.118C1221.1 754.072 1230.17 755.902 1230.17 755.902Z" fill="#E7AB44"/>
<path d="M1283.53 785.726C1283.63 779.348 1283.74 772.973 1283.86 766.602C1283.86 761.346 1284.07 755.881 1281.78 751.021C1280.91 748.966 1279.52 747.169 1277.75 745.801C1275.99 744.432 1273.9 743.538 1271.69 743.201C1266.53 742.537 1261.38 744.879 1256.72 746.767C1251.76 748.852 1246.96 751.278 1242.34 754.028C1237.93 756.673 1232.85 759.552 1229.33 763.351C1221.45 771.765 1233.36 781.857 1239.82 786.658C1241.79 788.115 1244.04 790.306 1246.66 790.271C1249.28 790.236 1251.32 787.649 1253.07 785.878L1267.74 770.728C1269.26 769.178 1266.87 766.789 1265.35 768.397L1254.86 779.247L1249.59 784.666C1249 785.41 1248.3 786.052 1247.51 786.565C1246 787.241 1244.7 785.971 1243.54 785.132C1240 782.763 1236.75 779.981 1233.86 776.846C1232.4 775.224 1231.26 773.332 1230.51 771.275C1229.65 768.56 1230.75 766.614 1232.76 764.784C1236.29 761.803 1240.1 759.165 1244.13 756.906C1247.98 754.604 1251.96 752.53 1256.05 750.695C1260.14 748.877 1264.69 746.709 1269.21 746.429C1271.29 746.302 1273.35 746.841 1275.1 747.966C1276.86 749.091 1278.2 750.745 1278.95 752.687C1281.14 757.466 1280.64 763.176 1280.54 768.222L1280.21 785.773C1280.19 786.006 1280.22 786.24 1280.3 786.461C1280.37 786.682 1280.49 786.885 1280.65 787.057C1280.81 787.229 1281 787.366 1281.22 787.46C1281.43 787.554 1281.66 787.603 1281.9 787.603C1282.13 787.603 1282.36 787.554 1282.57 787.46C1282.79 787.366 1282.98 787.229 1283.14 787.057C1283.3 786.885 1283.42 786.682 1283.49 786.461C1283.57 786.24 1283.6 786.006 1283.58 785.773L1283.53 785.726Z" fill="#9E6635"/>
<path d="M1240.79 819.151C1231.78 805.446 1222.01 764.786 1222.01 764.786V764.693C1221.7 763.486 1221.06 762.387 1220.17 761.516C1219.28 760.645 1218.17 760.035 1216.95 759.751C1211.55 758.46 1205.88 758.764 1200.64 760.625C1175.14 770.962 1191.11 805.05 1191.11 805.05C1191.11 805.05 1196.54 830.257 1225.71 868.657C1225.71 868.657 1259.32 918.081 1263.07 969.917" stroke="#9E6635" stroke-width="3.49616" stroke-linecap="round" stroke-linejoin="round"/>
<mask id="mask9_146_3457" style="mask-type:alpha" maskUnits="userSpaceOnUse" x="673" y="577" width="55" height="240">
<path d="M674.59 579.946L715.507 577.995C715.834 577.979 716.154 578.094 716.396 578.314C716.639 578.535 716.784 578.842 716.799 579.17L727.03 793.718C727.304 799.47 725.282 805.095 721.409 809.356C717.536 813.617 712.129 816.164 706.378 816.439C700.626 816.713 695.001 814.691 690.74 810.818C686.479 806.945 683.931 801.538 683.657 795.786L673.427 581.238C673.411 580.911 673.526 580.59 673.746 580.348C673.967 580.106 674.274 579.961 674.602 579.945L674.59 579.946Z" fill="#7EB7FA"/>
</mask>
<g mask="url(#mask9_146_3457)">
<path d="M665.016 726.47L732.795 721.867L742.677 837.042L681.459 836.378L665.016 726.47Z" fill="#218DFF"/>
</g>
<path d="M1371.24 915.082C1371.24 915.082 1342.5 877.347 1322.68 843.364C1302.85 809.381 1310.52 801.41 1315.07 789.523C1319.61 777.636 1325.14 759.223 1318.79 752.464C1318.13 751.928 1315.38 749.725 1314.74 749.178C1312.79 747.506 1310.49 746.304 1308.01 745.663C1305.52 745.023 1302.92 744.962 1300.41 745.484C1297.9 746.006 1295.54 747.099 1293.52 748.677C1291.49 750.255 1289.86 752.276 1288.74 754.585C1286.13 759.957 1284.23 765.33 1282.26 765.843C1282.17 766.227 1285.49 752.697 1276.84 747.196C1268.2 741.696 1257.6 747.558 1255.3 748.607C1252.99 749.655 1250.03 717.223 1241.38 714.95C1234.6 713.167 1228.15 715.486 1222.07 719.064C1217.97 721.488 1216.99 727.012 1218.78 731.429C1220.26 735.065 1223.34 737.792 1222.55 737.792C1217.49 736.626 1207.99 740.262 1211.21 744.167C1213.68 747.173 1229.02 757.557 1235.16 759.014" stroke="#9E6635" stroke-width="3.49616" stroke-linecap="round" stroke-linejoin="round"/>
<path d="M1220.52 737.946C1225.55 744.705 1230.73 751.363 1236.03 757.92C1236.36 758.229 1236.8 758.397 1237.25 758.389C1237.71 758.381 1238.14 758.198 1238.46 757.878C1238.78 757.557 1238.96 757.125 1238.97 756.672C1238.98 756.219 1238.81 755.781 1238.5 755.45C1233.39 749.133 1228.4 742.708 1223.54 736.174C1223.29 735.802 1222.92 735.534 1222.49 735.42C1222.06 735.306 1221.6 735.354 1221.21 735.557C1220.83 735.792 1220.55 736.164 1220.43 736.597C1220.31 737.03 1220.37 737.492 1220.58 737.887L1220.52 737.946Z" fill="#9E6635"/>
<g opacity="0.6">
<path d="M1230.93 792.203C1234.2 796.808 1238.76 800.345 1244.03 802.37C1249.31 804.395 1255.06 804.819 1260.57 803.589C1263.06 802.995 1265.45 802.051 1267.93 801.445C1268.13 801.364 1268.36 801.33 1268.58 801.344C1268.8 801.358 1269.01 801.42 1269.21 801.526C1269.36 801.681 1269.47 801.865 1269.53 802.066C1269.6 802.267 1269.63 802.48 1269.61 802.692C1269.86 805.225 1269.65 807.784 1268.99 810.243C1267.52 814.753 1263.35 817.83 1259.09 819.951C1254.11 822.422 1247.62 823.82 1243.33 820.254C1241 818.284 1239.83 815.219 1238.82 812.306L1232.77 795.047" fill="#CC8F3F"/>
</g>
<g opacity="0.6">
<path d="M1253.16 757.625C1251.32 757.67 1249.52 758.249 1248 759.291C1243.82 761.65 1239.87 764.38 1236.18 767.449C1235.66 767.784 1235.29 768.298 1235.12 768.894C1235.12 769.221 1235.18 769.545 1235.3 769.848C1235.43 770.15 1235.61 770.424 1235.85 770.654C1237.43 772.582 1239.42 774.138 1241.67 775.211C1241.9 775.352 1242.18 775.402 1242.44 775.35C1242.62 775.278 1242.78 775.152 1242.88 774.989C1244.17 773.393 1244.42 771.248 1244.95 769.279C1245.69 766.493 1247.05 763.909 1248.92 761.716C1250 760.325 1251.45 759.273 1253.1 758.685" fill="#CC8F3F"/>
</g>
<path d="M700.048 808.066C707.856 806.469 714.895 803.206 718.426 795.748C718.997 794.746 719.37 793.65 720.022 792.566C720.145 793.791 720.145 795.025 720.022 796.249C719.148 805.572 708.497 811.399 700.001 808.066H700.048Z" fill="#066FCE"/>
<g opacity="0.7">
<path opacity="0.4" d="M1206.19 1513.13H1331.93C1333.78 1513.12 1335.56 1513.82 1336.91 1515.08C1338.26 1516.34 1339.08 1518.06 1339.2 1519.91C1340.93 1544.94 1343.57 1631 1299.11 1635.28C1247.95 1640.16 1190.19 1648.69 1198.89 1519.91C1199.02 1518.06 1199.84 1516.33 1201.2 1515.07C1202.55 1513.81 1204.34 1513.12 1206.19 1513.13Z" fill="#218DFF"/>
<mask id="mask10_146_3457" style="mask-type:alpha" maskUnits="userSpaceOnUse" x="1198" y="1513" width="142" height="125">
<path opacity="0.4" d="M1206.19 1513.13H1331.93C1333.78 1513.12 1335.56 1513.82 1336.91 1515.08C1338.26 1516.34 1339.08 1518.07 1339.2 1519.91C1340.93 1544.94 1343.57 1631.01 1299.11 1635.28C1247.95 1640.17 1190.18 1648.7 1198.89 1519.91C1199.02 1518.07 1199.84 1516.34 1201.2 1515.08C1202.55 1513.82 1204.34 1513.12 1206.19 1513.13Z" fill="#218DFF"/>
</mask>
<g mask="url(#mask10_146_3457)">
<path opacity="0.2" d="M1216.87 1510.21C1216.87 1510.21 1197.77 1621.54 1255.5 1641.06H1192.78L1159.97 1575.31L1162.1 1514.78L1188.21 1491.94L1216.87 1510.21Z" fill="#0067D4"/>
</g>
<path opacity="0.4" d="M1201.57 1538.87H1336.45" stroke="#117AF6" stroke-width="6.99231" stroke-linecap="round" stroke-linejoin="round"/>
</g>
<path d="M1071.45 713.276L1071.45 713.276L1071.45 713.275C1074.75 711.783 1078.45 711.409 1081.98 712.211C1084.54 712.809 1086.88 713.943 1089.27 715.101C1090.17 715.539 1091.09 715.981 1092.02 716.399C1095.36 717.893 1099.14 719.237 1102.96 718.533C1104.57 718.27 1106.07 717.567 1107.31 716.502C1108.54 715.435 1109.45 714.048 1109.95 712.492L1109.95 712.492L1109.95 712.481C1110.15 711.803 1110.04 711.185 1109.71 710.701C1109.4 710.228 1108.91 709.914 1108.39 709.772C1107.86 709.629 1107.28 709.648 1106.76 709.887C1106.23 710.131 1105.81 710.593 1105.61 711.269L1105.61 711.27C1105.21 712.646 1104.2 713.465 1102.92 713.884C1101.63 714.306 1100.1 714.303 1098.79 714.031L1098.79 714.03C1096.18 713.508 1093.81 712.345 1091.39 711.157C1090.64 710.792 1089.89 710.425 1089.13 710.073C1086.09 708.546 1082.79 707.62 1079.4 707.345L1079.39 707.344L1079.38 707.343C1075.9 707.182 1072.43 707.869 1069.28 709.346C1068.64 709.635 1068.25 710.114 1068.12 710.678C1068 711.223 1068.13 711.787 1068.4 712.249C1068.94 713.166 1070.14 713.859 1071.45 713.276Z" fill="#9E6534" stroke="#9E6635"/>
<path opacity="0.7" d="M617.468 803.393C617.083 801.963 616.271 800.685 615.141 799.729C614.01 798.773 612.614 798.185 611.14 798.044C605.931 797.449 597.156 797.379 596.48 803.544C595.571 811.376 592.529 853.096 596.783 873.164C596.835 873.407 596.976 873.622 597.177 873.769C597.378 873.915 597.626 873.982 597.873 873.958C598.12 873.933 598.35 873.819 598.519 873.636C598.687 873.453 598.783 873.215 598.787 872.966C598.88 857.105 599.649 818.263 604.777 814.184C610.115 809.942 618.96 809.488 617.468 803.393Z" fill="#A1E0FF"/>
<path d="M182.814 1709.8H1901.16" stroke="#255DE8" stroke-width="11" stroke-miterlimit="10" stroke-linecap="round"/>
<path d="M182.814 1791.05H514.203" stroke="#255DE8" stroke-width="11" stroke-miterlimit="10" stroke-linecap="round"/>
<path d="M1663.01 1759.03H1901.9" stroke="#255DE8" stroke-width="11" stroke-miterlimit="10" stroke-linecap="round"/>
<path d="M574.489 1791.05H660.751" stroke="#255DE8" stroke-width="11" stroke-miterlimit="10" stroke-linecap="round"/>
</svg>
