<svg width="2000" height="2055" viewBox="0 0 2000 2055" fill="none" xmlns="http://www.w3.org/2000/svg">
<g clip-path="url(#clip0_305_961)">
<path d="M319.645 1487.46C319.675 1497.9 319.795 1508.74 324.315 1518.14C339.745 1550.26 386.295 1541.54 421.905 1540.15C502.205 1537.02 569.125 1596.2 634.785 1642.53C718.335 1701.48 813.335 1744.13 912.905 1767.4C969.065 1780.52 1031.98 1786.47 1080.96 1756.04C1132.67 1723.91 1154.5 1660.68 1193.84 1614.22C1251.05 1546.65 1341.99 1518.43 1429.38 1504.17C1516.76 1489.91 1607.15 1485.95 1689.3 1452.93C1771.45 1419.91 1846.28 1348.34 1849.94 1259.87C1854.12 1158.91 1767.9 1077.96 1681.22 1026.03C1671.04 1019.93 1659.85 1012.87 1656.89 1001.38C1654.4 991.728 1658.54 981.688 1663.11 972.838C1722.21 858.328 1864.63 794.948 1897.12 670.238C1920.26 581.408 1871.18 479.398 1787.34 442.038C1714.01 409.368 1629.63 424.388 1549.66 431.358C1469.69 438.328 1378.53 432.028 1325.84 371.458C1308.42 351.428 1296.86 327.048 1281.7 305.248C1216.91 212.158 1095.44 177.508 982.345 168.828C873.305 160.448 753.765 174.008 674.055 248.888C601.565 316.988 577.475 420.188 544.685 514.088C537.475 534.738 528.675 556.518 510.505 568.688C487.955 583.798 458.325 579.638 431.205 578.378C271.925 570.948 118.775 703.208 102.925 861.878C93.6645 954.618 125.915 1046.88 169.475 1129.27C206.475 1199.23 251.815 1264.52 290.495 1333.51C303.495 1356.7 311.325 1382.42 313.425 1408.92L319.635 1487.47L319.645 1487.46Z" fill="#FCF2E6"/>
<path d="M435.59 1188.34C435.59 1188.34 358.25 1762.96 463.19 1775.9C657.39 1799.84 942.05 1790.24 1210.53 1784.16C1281.86 1782.55 1164.19 1283.45 1164.19 1283.45C1164.19 1283.45 834.35 1539.04 435.59 1188.34Z" fill="#F7D5B4"/>
<path d="M608.18 1149.76C608.18 1149.76 396.32 1108.69 440.62 1198.51C493.2 1305.12 750.55 1380.08 904.85 1378.08C1059.15 1376.08 1164.19 1283.44 1164.19 1283.44L1158.82 1222.42C1158.82 1222.42 854.92 1416.46 701.95 1254.84L608.17 1149.76H608.18Z" fill="#F9DFC5"/>
<path d="M651.42 605.759C644.3 592.029 635.69 579.239 625.77 567.379C623.8 565.029 619.71 566.969 619.8 569.849C620.16 582.269 619.26 594.599 617 606.809L623.4 605.969C608.92 585.869 594.43 565.769 579.95 545.669C578.04 543.019 573.37 543.699 573.43 547.439C573.71 565.829 576.89 584.019 583.02 601.359C583.72 603.329 585.31 606.229 585.01 608.379C584.69 610.659 582.12 611.879 580.45 612.949C576.14 615.739 571.81 618.509 567.49 621.289C559.39 626.499 551.29 631.709 543.19 636.919C540.38 638.729 541.35 643.529 544.96 643.439C569.21 642.879 593.41 641.299 617.53 638.679L614.16 634.249C611.8 644.339 609.44 654.439 607.08 664.529C606.24 668.139 610.28 670.069 612.93 667.939C623.38 659.549 633.25 650.519 642.55 640.859C645.67 637.609 640.73 632.659 637.6 635.909C628.31 645.569 618.43 654.599 607.98 662.989L613.83 666.399C616.19 656.309 618.55 646.209 620.91 636.119C621.38 634.119 619.91 631.429 617.54 631.689C593.43 634.309 569.22 635.889 544.97 636.449L546.74 642.969C555.92 637.069 565.1 631.159 574.28 625.259C580.34 621.359 591.95 617.009 592.02 608.389C592.06 604.109 589.88 599.949 588.56 595.979C586.89 590.969 585.48 585.869 584.31 580.719C581.83 569.779 580.61 558.659 580.43 547.449L573.91 549.219C588.39 569.319 602.88 589.419 617.36 609.519C618.93 611.699 623.16 611.929 623.76 608.679C626.13 595.849 627.18 582.899 626.81 569.859L620.84 572.329C630.38 583.729 638.55 596.109 645.39 609.299C647.47 613.299 653.51 609.759 651.43 605.769L651.42 605.759Z" fill="#F7D5B4"/>
<path d="M1427.4 822.87C1429.2 809.24 1415.82 798.83 1403.66 796.65C1390.57 794.31 1375.91 797.75 1366.61 807.69C1357.31 817.63 1355.23 831.66 1360.58 843.59C1366.27 856.29 1379.96 861.58 1393.17 859.43C1424.93 854.28 1433.76 816.25 1443.23 790.88C1449.47 774.16 1455.71 757.43 1461.95 740.71C1464.16 734.8 1465.93 725.83 1473.14 724.31C1479.61 722.95 1486.61 725.43 1492.79 727.07C1531.57 737.33 1570.35 747.59 1609.12 757.85L1606.03 746.15C1582.33 776.21 1563.53 809.67 1550.57 845.71C1545.9 858.7 1542.16 878.87 1524.13 876.66C1510.68 875.01 1505.16 860.8 1512.32 849.76C1520.94 836.47 1540.74 843.04 1543.73 857.31C1545.58 866.12 1559.07 862.39 1557.23 853.59C1553.32 834.92 1531.33 823.19 1513.74 830.81C1497.3 837.93 1490.13 859.98 1498.89 875.54C1508.09 891.88 1532.17 895.56 1546.46 883.98C1554.81 877.21 1558.19 866.68 1561.49 856.86C1565.19 845.84 1569.4 835.01 1574.25 824.45C1585.39 800.14 1599.37 777.06 1615.93 756.06C1619.05 752.1 1618.4 745.83 1612.84 744.36C1582.33 736.29 1551.81 728.21 1521.3 720.14C1507.98 716.62 1494.35 711.65 1480.6 710.24C1466.85 708.83 1456.83 715.6 1451.68 728.4C1440.35 756.53 1430.83 785.39 1419.81 813.64C1415.48 824.75 1409.77 837.14 1398.72 842.98C1389.99 847.59 1377.07 847.62 1372.9 836.98C1368.73 826.34 1375.88 814.73 1386.58 811.3C1395.09 808.58 1415.15 809.68 1413.41 822.87C1412.91 826.65 1416.99 829.83 1420.41 829.87C1424.6 829.91 1426.92 826.6 1427.41 822.87H1427.4Z" fill="#F7D5B4"/>
<path d="M1455.55 759.89C1473.46 768.14 1493.23 773.17 1512.25 778.17C1524.04 781.27 1535.87 784.53 1547.92 786.5C1560.13 788.49 1572.43 789.03 1584.78 789.12C1593.79 789.19 1593.8 775.19 1584.78 775.12C1573.29 775.04 1561.74 774.74 1550.39 772.8C1539.04 770.86 1527.35 767.68 1515.96 764.68C1498.18 760 1479.35 755.52 1462.61 747.81C1454.48 744.07 1447.36 756.13 1455.54 759.9L1455.55 759.89Z" fill="#F7D5B4"/>
<path d="M1115 472.459C1107.23 459.789 1097.27 449.099 1085.41 440.169C1081.34 437.109 1074.34 441.199 1074.88 446.209C1077.03 466.309 1078.78 486.449 1080.09 506.619C1080.76 517.029 1081.32 527.449 1081.76 537.869C1082.11 546.209 1084.28 555.599 1075.86 560.479C1061.79 568.629 1043.7 558.579 1042.9 542.439C1042.71 538.639 1043.43 536.609 1046.62 534.509C1050.21 532.149 1054.24 529.989 1058.29 528.549C1064.44 526.359 1073.24 525.539 1077.42 531.789C1082.4 539.239 1094.54 532.239 1089.51 524.719C1078.7 508.549 1058.58 511.809 1043.76 519.989C1035.6 524.489 1029.66 529.679 1028.95 539.489C1028.34 547.879 1031.28 556.509 1036.31 563.159C1047.19 577.549 1068.11 581.729 1083.61 572.169C1091.59 567.249 1095.78 559.769 1096.13 550.459C1096.53 539.829 1095.4 528.939 1094.8 518.329C1093.45 494.239 1091.46 470.189 1088.89 446.199C1085.38 448.209 1081.87 450.229 1078.36 452.239C1088.23 459.669 1096.48 468.999 1102.93 479.509C1107.63 487.179 1119.75 480.149 1115.02 472.439L1115 472.459Z" fill="#F7D5B4"/>
<path d="M1535.51 593.269C1538.76 588.079 1542.76 583.539 1547.63 579.809L1542.36 576.789C1540.69 592.469 1539.47 608.209 1538.88 623.969C1538.67 629.599 1538.96 634.669 1543.85 638.269C1548.53 641.719 1554.91 642.499 1560.35 640.559C1568.65 637.589 1576.66 624.759 1569.73 616.829C1562.8 608.899 1548.63 606.629 1542.06 615.559C1539.39 619.189 1545.46 622.689 1548.1 619.089C1550.96 615.209 1556.4 616.819 1559.92 618.579C1563.45 620.349 1565.86 622.149 1564.74 626.479C1563.7 630.509 1560.4 633.729 1556.27 634.469C1551.84 635.259 1546.61 633.429 1545.85 628.609C1545.23 624.689 1546.04 620.069 1546.24 616.099C1546.46 611.829 1546.71 607.569 1547.01 603.309C1547.62 594.459 1548.42 585.619 1549.36 576.799C1549.63 574.309 1546.12 572.229 1544.09 573.779C1538.22 578.269 1533.38 583.469 1529.46 589.749C1527.07 593.579 1533.12 597.099 1535.5 593.279L1535.51 593.269Z" fill="#F7D5B4"/>
<path d="M847.77 670.701C869.834 670.701 887.72 652.815 887.72 630.751C887.72 608.687 869.834 590.801 847.77 590.801C825.706 590.801 807.82 608.687 807.82 630.751C807.82 652.815 825.706 670.701 847.77 670.701Z" fill="#0757B5"/>
<path d="M1244.04 637.18L1196.15 605.26C1186.41 598.23 1172.78 600.78 1166.25 610.86C1142.01 648.32 1040.14 808.71 1017.2 833.18C987.27 865.1 982.71 841.19 982.71 841.19C980.17 834.27 962.45 798.36 958.02 792.52C942.93 772.41 918.07 747.24 887.54 734.06C853.56 719.39 813.46 720.21 776.94 713.8L775.99 713.58C775.01 713.34 774.17 712.73 773.64 711.87C773.11 711.01 772.95 709.98 773.18 709L775.08 703.18C775.37 702.17 775.93 701.25 776.72 700.55C777.5 699.85 778.47 699.38 779.51 699.2C856.47 689.49 855.45 589.88 855.45 589.88C855.45 589.88 906.7 609.41 905.97 558.25C905.68 537.52 871.64 537.59 852.46 541.7L852.66 540.95C872.13 522.55 869.71 484.49 807.07 491.86C780.52 494.98 770.8 501.71 760.85 505.24C761 505.57 761.77 505.93 761.9 506.26L762.84 506.43C763.88 505.97 760.31 505.71 761.5 505.27C758.01 497.73 751.66 486.78 734.96 490.74C696.87 499.81 656.08 570.79 671.01 627.45C673.93 638.51 677.09 642.93 680.12 649.68C682.05 653.89 682.45 658.65 681.25 663.13L672.18 705.62C671.83 706.86 671.94 708.12 671.05 709.05L668.68 711.53C643.6 737.23 588.92 741.94 557 788.82C524.35 845.49 494.62 942.98 496.48 1008.3C496.48 1008.3 473 1156.07 673.27 1149.26C680.97 1167.31 679.4 1203.56 691.19 1232.25C713.44 1286.38 765.38 1327.58 876.21 1320.73C1051.12 1310.09 1158.82 1222.42 1158.82 1222.42L1204.94 1772.7C1205.29 1777.09 1207.29 1781.18 1210.53 1784.15C1213.77 1787.13 1218.02 1788.77 1222.42 1788.74L1479.44 1787.53C1488.81 1787.53 1544.81 1790.29 1547.66 1779.45C1551.46 1764.94 1523.19 1733.27 1423.06 1699.65L1340.59 1667.55L1346.81 1152.14C1362.29 1159.88 1671.67 1314 1695.1 1311.96C1718.53 1309.93 1816.13 1049.63 1810.03 1027.24C1804.21 1005.87 1696.42 1096.49 1676 1129.03C1673.09 1133.67 1667.72 1136.15 1662.29 1135.51C1601.98 1128.42 1360.34 947.73 1198.56 926.86C1189.39 925.68 1180.07 926.72 1171.38 929.87C1156.36 935.31 1130.16 946.28 1099.83 965.41C1108.68 923.08 1161.86 799.25 1161.86 799.25L1196.78 714.45" fill="#F2A91F"/>
<path d="M780.6 564.109C781.56 564.249 782.36 563.989 782.92 563.449C783.47 562.929 783.77 562.189 783.83 561.449C783.95 559.969 783.11 558.269 781.15 557.979C774.94 557.089 768.61 557.479 762.56 559.119C756.51 560.759 750.85 563.629 745.95 567.539C745.19 568.149 744.84 568.919 744.83 569.709C744.81 570.479 745.11 571.219 745.59 571.789C746.07 572.359 746.74 572.799 747.5 572.939C748.27 573.079 749.11 572.899 749.87 572.299C754.16 568.899 759.1 566.419 764.39 565.009C769.68 563.599 775.2 563.289 780.61 564.109H780.6Z" fill="#9D6434"/>
<path d="M825.47 573.631V573.611C829.19 573.931 832.79 575.061 836.03 576.911C839.29 578.771 842.11 581.331 844.29 584.391C844.7 585.071 845.34 585.581 846.11 585.811C846.88 586.041 847.71 585.971 848.43 585.611C849.14 585.221 849.67 584.561 849.91 583.781C850.15 583.001 850.06 582.161 849.68 581.441V581.411L849.65 581.391C846.92 577.421 843.34 574.111 839.17 571.711C835 569.301 830.35 567.851 825.55 567.461H825.52H825.49C824.69 567.481 823.93 567.801 823.37 568.361C822.8 568.921 822.48 569.681 822.45 570.481C822.45 571.301 822.76 572.081 823.32 572.671C823.88 573.261 824.65 573.601 825.46 573.631H825.47Z" fill="#9D6434"/>
<path d="M754.12 497.66C756.94 501.46 758.22 506.18 757.69 510.88C757.41 514.57 755.89 518.06 753.38 520.79C752.15 522.32 750.47 523.42 748.58 523.94C746.84 524.37 743.16 524.7 743.06 522.06C742.96 519.42 745.82 517.29 747.78 515.99C750.19 514.43 752.68 513 755.25 511.7C761.29 508.51 767.46 505.59 773.45 502.27C775.4 501.19 773.66 498.21 771.71 499.29C765.24 502.86 758.53 506 752.03 509.5C747.28 512.08 738.62 516.21 739.71 522.94C740.7 529.19 749.37 528.32 753.23 525.55C757.03 522.75 759.67 518.66 760.64 514.04C761.36 510.94 761.42 507.72 760.8 504.59C760.18 501.47 758.9 498.51 757.05 495.92C755.67 494.17 752.73 495.92 754.07 497.66H754.11H754.12Z" fill="#9D6434"/>
<g opacity="0.68">
<path d="M647.79 877.609C659.1 909.529 660.4 948.949 656.42 981.129C655.71 988.579 652.61 1009.89 650.44 1017.41C650.1 1018.69 649.53 1019.9 648.79 1020.94C647.95 1021.8 647.01 1022.38 646.09 1022.58C638.1 1025.19 626.02 1020.5 620.86 1016.29C620.24 1016.46 619.64 1016.46 619.1 1016.28C618.57 1016.09 616.57 1011.15 616.2 1010.64C615.72 1009.11 616.28 1002.24 616.87 1000.33C625.57 960.979 629.59 925.649 644.8 887.599" fill="#CC8F3F"/>
</g>
<path d="M817.32 682.1C817.32 682.1 787.52 700.51 764.52 693.05C733.83 683.09 758.38 719.11 770.32 720.16C782.25 721.21 815.42 719.27 835.76 720.5C835.76 720.5 781.59 713.72 775.49 713.12C769.39 712.52 775.49 701.91 775.49 701.91C775.49 701.91 775.91 699.6 782.88 699.27C789.84 698.95 808.82 690.92 817.33 682.11L817.32 682.1Z" fill="#CC8F3F"/>
<path opacity="0.54" d="M737.03 490.529C737.03 490.529 687.5 528.799 681.74 570.739C675.98 612.679 684.7 638.039 691.42 652.479C693.97 657.989 682.03 715.539 679.41 719.729C677.77 722.349 626.84 746.689 588.04 768.859C562.32 783.559 545.26 810.549 537.05 829.379C537.05 829.379 553.23 785.709 574.74 768.639C600.01 747.139 622.94 739.909 647.23 726.959C656.36 722.089 663.95 716.039 668.24 712.289C670.69 710.149 672.37 707.269 673.04 704.089L681.82 662.009C682.36 658.019 682.13 657.919 680.55 654.219C677.93 647.979 665.45 627.859 668.59 592.709C671.52 562.529 684.14 534.109 704.56 511.699C704.56 511.699 721.83 493.609 737.02 490.539L737.03 490.529Z" fill="#CC8F3F"/>
<path d="M515.88 1065.9C515.71 1068.33 516.23 1070.76 517.37 1072.92C518.51 1075.08 520.22 1076.88 522.33 1078.1C522.87 1078.4 523.51 1078.47 524.11 1078.29C524.7 1078.12 525.2 1077.72 525.5 1077.17C525.8 1076.62 525.86 1075.99 525.69 1075.4C525.52 1074.8 525.11 1074.31 524.57 1074.01L523.89 1073.64C523.68 1073.53 523.66 1073.33 524.01 1073.71L523.7 1073.54C523.33 1073.23 522.98 1072.9 522.65 1072.54C522.52 1072.36 522.37 1072.19 522.21 1072.04C522.46 1072.17 522.64 1072.27 522.21 1072.04L522 1071.74C521.73 1071.34 521.49 1070.93 521.26 1070.51L521.11 1070.19C520.96 1069.87 521.11 1070.19 521.11 1070.19C521.05 1069.97 520.97 1069.76 520.87 1069.56C520.71 1069.1 520.59 1068.63 520.49 1068.15C520.47 1068.03 520.44 1067.93 520.41 1067.81C520.47 1068.13 520.48 1068.22 520.46 1068.05L520.43 1067.85L520.36 1067.15C520.34 1066.65 520.36 1066.16 520.4 1065.66C520.38 1065.06 520.13 1064.48 519.7 1064.06C519.25 1063.64 518.65 1063.41 518.03 1063.42C517.43 1063.43 516.86 1063.68 516.43 1064.11C516.03 1064.58 515.81 1065.17 515.79 1065.78L515.86 1065.9H515.88Z" fill="#9D6434"/>
<path opacity="0.79" d="M1217.27 1118.66C1213.9 1121.78 1210.87 1125.25 1208.18 1128.98C1199.98 1140.32 1174.15 1175.72 1154.92 1198.51C1087.02 1279.01 978.67 1304.26 978.67 1304.26C978.67 1304.26 1068.46 1297.61 1185.51 1203.17C1204.95 1184.78 1230.34 1165.24 1246.03 1149.3C1273.03 1122.02 1317.01 1143.39 1323.17 1181.62C1323.27 1182.17 1323.36 1182.71 1323.44 1183.25C1331.63 1237.91 1341.81 1591.58 1341.81 1591.58L1347.61 1159.37C1347.61 1159.37 1342.63 1087.35 1281.61 1091.96C1250.19 1092.33 1227.68 1109.02 1217.27 1118.66Z" fill="#CC8F3F"/>
<path d="M1346.52 1130.17L1341.8 1132.67C1320.52 1081.46 1271.17 1088.66 1242.95 1102.09C1225.68 1110.31 1211.1 1123.27 1200.66 1139.31C1190.58 1154.79 1170.99 1181.96 1137.62 1217.81C1083.75 1275.67 978.67 1304.27 978.67 1304.27" stroke="#9D6434" stroke-width="6" stroke-linecap="round" stroke-linejoin="round"/>
<path opacity="0.79" d="M1571.26 1094.1L1427.27 1013.63C1378.05 988.36 1331.5 968.07 1303.9 956.43C1303.9 956.43 1649.29 1173.61 1674.71 1172.58C1700.13 1171.54 1716.21 1096.51 1809.82 1026.82C1809.82 1026.82 1807.02 1016.83 1784.89 1032.45C1762.76 1048.06 1727.9 1071.38 1698.08 1103.52C1698.08 1103.52 1685.08 1115.66 1676.01 1129.04C1676.01 1129.04 1671.7 1135.66 1665.27 1135.55C1665.27 1135.55 1659.66 1135.92 1649.79 1132.68C1646.29 1131.53 1634.45 1127.02 1622.15 1121.03L1571.27 1094.09L1571.26 1094.1Z" fill="#CC8F3F"/>
<path d="M889.08 541.189C889.08 541.189 900.05 552.289 897.33 572.149C896.25 580.219 891.6 587.899 883.66 590.189C876.16 592.379 873.61 592.079 855.55 589.359C855.55 589.359 884.07 604.039 898.62 583.849C913.17 563.659 905.9 542.469 889.08 541.199V541.189Z" fill="#CC8F3F"/>
<path d="M1036.49 827.201C1036.49 827.201 979.29 775.321 914.78 806.581C850.27 837.841 846.28 925.631 846.28 925.631C846.28 925.631 847.61 988.151 794.4 1003.44C741.19 1018.74 608.84 1051.99 608.84 1163.06C608.84 1274.13 757.82 1387.86 850.26 1403.15C942.71 1418.45 1011.87 1287.43 1011.87 1209.61C1011.87 1131.79 1017.86 1107.85 1044.46 1097.21C1071.06 1086.57 1161.51 1038.02 1158.19 979.491C1154.86 920.961 1124.27 904.341 1124.27 904.341L1036.48 827.191L1036.49 827.201Z" fill="#117AF6"/>
<mask id="mask0_305_961" style="mask-type:alpha" maskUnits="userSpaceOnUse" x="608" y="796" width="551" height="609">
<path d="M1036.49 827.201C1036.49 827.201 979.29 775.321 914.78 806.581C850.27 837.841 846.28 925.631 846.28 925.631C846.28 925.631 847.61 988.151 794.4 1003.44C741.19 1018.74 608.84 1051.99 608.84 1163.06C608.84 1274.13 757.82 1387.86 850.26 1403.15C942.71 1418.45 1011.87 1287.43 1011.87 1209.61C1011.87 1131.79 1017.86 1107.85 1044.46 1097.21C1071.06 1086.57 1161.51 1038.02 1158.19 979.491C1154.86 920.961 1124.27 904.341 1124.27 904.341L1036.48 827.191L1036.49 827.201Z" fill="#117AF6"/>
</mask>
<g mask="url(#mask0_305_961)">
<path opacity="0.33" d="M726.61 1340.84C726.61 1340.84 823.71 1406.02 898.2 1363.45C972.69 1320.88 968.7 1178.56 997.96 1110.72C1027.22 1042.88 1145.61 1052.19 1142.95 956.42C1142.95 956.42 1142.95 931.15 1124.33 917.85C1105.71 904.55 1157.58 892.58 1157.58 892.58L1221.43 998.99L1200.15 1157.28L1075.11 1225.12L1024.56 1362.13L926.13 1487.17L762.52 1452.59L726.61 1340.86" fill="#0757B5"/>
</g>
<path d="M926.2 1124.16C968.113 1124.16 1002.09 1090.18 1002.09 1048.27C1002.09 1006.36 968.113 972.381 926.2 972.381C884.287 972.381 850.31 1006.36 850.31 1048.27C850.31 1090.18 884.287 1124.16 926.2 1124.16Z" fill="#072FB5"/>
<path d="M811.03 1111.19C811.03 1111.19 1162.86 666.92 1164.19 659.6C1165.52 652.28 1148.89 644.97 1150.22 634.33C1151.55 623.69 1299.86 402.22 1311.83 399.56C1323.8 396.9 1333.11 398.89 1338.43 401.56C1343.75 404.22 1502.71 535.24 1504.7 541.23C1506.7 547.22 1508.69 560.52 1504.03 565.17C1499.37 569.83 1303.18 765.36 1294.53 766.02C1285.88 766.69 1273.91 754.71 1267.93 755.38C1262.58 755.97 940.24 1097.49 872.13 1169.71C865.16 1177.1 853.55 1177.53 846.04 1170.69L799.05 1127.83L811.02 1111.2L811.03 1111.19Z" fill="#0757B5"/>
<path d="M839.63 1120.5L1305.19 526.58" stroke="#7EB7FA" stroke-width="6" stroke-linecap="round" stroke-linejoin="round"/>
<path d="M858.25 1125.16L1325.8 547.199" stroke="#7EB7FA" stroke-width="6" stroke-linecap="round" stroke-linejoin="round"/>
<path d="M865.57 1145.77L1347.79 570.68" stroke="#7EB7FA" stroke-width="6" stroke-linecap="round" stroke-linejoin="round"/>
<path d="M894.83 1131.14L1370.36 591.76" stroke="#7EB7FA" stroke-width="6" stroke-linecap="round" stroke-linejoin="round"/>
<path d="M706.33 670.701C728.394 670.701 746.28 652.815 746.28 630.751C746.28 608.687 728.394 590.801 706.33 590.801C684.266 590.801 666.38 608.687 666.38 630.751C666.38 652.815 684.266 670.701 706.33 670.701Z" fill="#0757B5"/>
<path d="M690.21 623.631L679.31 608.951C671.22 598.471 665.75 586.661 663.07 573.861C658.5 552.031 662.97 527.941 675.33 507.751C687.93 487.171 707.57 472.761 729.19 468.221L730.08 468.081L766.95 464.361C779.77 463.071 800.09 463.931 820.71 491.201L799.43 492.861C794.77 486.541 784.31 479.691 768.66 481.271L732.25 484.951C696.94 492.641 671.93 533.231 679.7 570.381C681.85 580.651 686.24 590.131 692.75 598.561L703.65 613.241L690.2 623.631H690.21Z" fill="#7EB7FA"/>
<path d="M618.86 1016.28C618.86 1016.28 843.62 1075.94 866.23 1067.96C888.84 1059.98 903.47 1013.42 923.43 1025.39C943.38 1037.36 947.37 1049.33 924.76 1066.63C902.15 1083.92 968.66 1058.65 977.97 1079.93C987.28 1101.21 975.31 1103.87 975.31 1109.19C975.31 1114.51 918.78 1096.55 914.79 1107.86C910.8 1119.17 966.67 1103.87 981.3 1117.84C995.93 1131.81 977.31 1143.78 975.98 1151.76C974.65 1159.74 916.79 1139.12 911.47 1141.12C906.15 1143.12 968 1153.76 964.68 1165.06C961.35 1176.37 952.71 1193.66 945.39 1192.99C938.07 1192.32 903.49 1159.74 900.16 1165.06C896.83 1170.38 937.4 1183.02 930.09 1193.66C922.77 1204.3 915.46 1215.61 911.47 1212.95C907.48 1210.29 863.58 1165.06 852.94 1161.74C842.3 1158.41 607.9 1141.98 607.9 1141.98" fill="#E7AB44"/>
<path d="M618.86 1016.28C618.86 1016.28 843.62 1075.94 866.23 1067.96C888.84 1059.98 903.47 1013.42 923.43 1025.39C943.38 1037.36 947.37 1049.33 924.76 1066.63C902.15 1083.92 968.66 1058.65 977.97 1079.93C987.28 1101.21 975.31 1103.87 975.31 1109.19C975.31 1114.51 918.78 1096.55 914.79 1107.86C910.8 1119.17 966.67 1103.87 981.3 1117.84C995.93 1131.81 977.31 1143.78 975.98 1151.76C974.65 1159.74 916.79 1139.12 911.47 1141.12C906.15 1143.12 968 1153.76 964.68 1165.06C961.35 1176.37 952.71 1193.66 945.39 1192.99C938.07 1192.32 903.49 1159.74 900.16 1165.06C896.83 1170.38 937.4 1183.02 930.09 1193.66C922.77 1204.3 915.46 1215.61 911.47 1212.95C907.48 1210.29 863.58 1165.06 852.94 1161.74C842.3 1158.41 607.9 1141.98 607.9 1141.98" stroke="#9D6434" stroke-width="5" stroke-linecap="round" stroke-linejoin="round"/>
<path d="M708.38 661.38C722.839 661.38 734.56 649.658 734.56 635.2C734.56 620.741 722.839 609.02 708.38 609.02C693.921 609.02 682.2 620.741 682.2 635.2C682.2 649.658 693.921 661.38 708.38 661.38Z" fill="#007CFF"/>
<path d="M641.8 878.609C639.89 894.329 635.39 909.489 631.25 924.729C627.11 939.969 624.42 955.869 620.79 971.389C618.6 980.789 616.27 990.149 613.98 999.519C613.06 1003.27 618.85 1004.87 619.77 1001.12C623.82 984.579 627.93 968.059 631.33 951.369C632.9 943.679 634.44 936.029 636.47 928.449C638.5 920.869 640.57 913.809 642.46 906.439C644.8 897.269 646.68 888.009 647.82 878.609C648.02 876.999 646.3 875.609 644.82 875.609C643.04 875.609 642.02 876.989 641.82 878.609H641.8Z" fill="#9D6434"/>
<path d="M860.5 526.72C858.55 528.82 857.03 531.25 855.3 533.52C853.66 535.67 851.88 537.72 850 539.67C848.12 541.62 846.16 543.44 844.09 545.16C842.19 546.74 840.06 548.62 837.56 549.11C835.51 549.51 833.97 548.2 834.25 546.11C834.54 543.87 836.29 542.46 838.36 541.87C840.8 541.18 843.43 541.4 845.93 541.47C849.05 541.56 852.18 541.62 855.31 541.64C862.22 541.69 869.13 541.55 876.03 541.25C877.95 541.16 877.96 538.16 876.03 538.25C868.96 538.56 861.89 538.7 854.81 538.64C851.24 538.61 847.68 538.51 844.11 538.41C841.26 538.34 838.3 538.41 835.68 539.68C831.64 541.63 829.09 548.18 833.49 551.21C838.61 554.74 845 548.46 848.51 545.28C851.1 542.94 853.52 540.41 855.75 537.73C858.14 534.85 860.07 531.58 862.61 528.84C863.92 527.43 861.81 525.3 860.49 526.72H860.5Z" fill="#9D6434"/>
<path d="M754.82 594.881C763.93 601.571 776.43 601.711 785.73 595.321C788.5 593.421 785.87 588.871 783.08 590.791C775.17 596.221 765.18 596.011 757.47 590.351C754.74 588.351 752.12 592.901 754.82 594.881Z" fill="#9D6434"/>
<path d="M813.66 599.211C815.02 603.961 818.07 607.991 822.53 610.231C827.42 612.691 833.09 612.021 838.36 611.741C841.72 611.561 841.74 606.311 838.36 606.491C830.3 606.921 821.42 607.281 818.72 597.811C817.79 594.571 812.73 595.951 813.66 599.211Z" fill="#9D6434"/>
<path d="M771.95 636.32C775.48 649.46 789.66 657.89 802.87 656.51C805.72 656.21 805.75 651.71 802.87 652.01C791.62 653.18 779.33 646.47 776.29 635.12C775.54 632.33 771.2 633.51 771.95 636.32Z" fill="#9D6434"/>
<path d="M1343.79 1664.54C1330.13 1669.01 1317.08 1675.36 1305.21 1683.48C1303.05 1684.95 1301.88 1687.94 1303.42 1690.32C1304.8 1692.46 1307.95 1693.69 1310.26 1692.11C1315.95 1688.22 1321.91 1684.72 1328.09 1681.66C1329.57 1680.93 1331.06 1680.22 1332.56 1679.54C1333.38 1679.17 1334.2 1678.8 1335.03 1678.45C1335.11 1678.42 1336.47 1677.85 1335.49 1678.25C1335.91 1678.08 1336.32 1677.91 1336.74 1677.74C1339.94 1676.44 1343.18 1675.26 1346.45 1674.19C1348.93 1673.38 1350.8 1670.69 1349.94 1668.04C1349.14 1665.56 1346.45 1663.68 1343.79 1664.55V1664.54Z" fill="#9D6434"/>
<path d="M1663.36 1139.99V1145.31C1663.33 1146 1663.48 1146.64 1663.79 1147.24C1663.99 1147.86 1664.34 1148.4 1664.82 1148.85C1665.27 1149.34 1665.81 1149.68 1666.43 1149.88C1667.03 1150.19 1667.67 1150.34 1668.36 1150.31L1669.69 1150.13C1670.54 1149.89 1671.27 1149.46 1671.9 1148.84C1672.8 1147.86 1673.36 1146.66 1673.36 1145.3V1139.98C1673.39 1139.29 1673.24 1138.65 1672.93 1138.05C1672.73 1137.43 1672.38 1136.89 1671.9 1136.44C1671.45 1135.95 1670.91 1135.61 1670.29 1135.41C1669.69 1135.1 1669.05 1134.95 1668.36 1134.98L1667.03 1135.16C1666.18 1135.4 1665.45 1135.83 1664.82 1136.45C1663.92 1137.43 1663.36 1138.63 1663.36 1139.99Z" fill="#9D6434"/>
<path d="M283.5 1791.58H1885.4" stroke="#335CDF" stroke-width="11" stroke-linecap="round" stroke-linejoin="round"/>
<path d="M1592.61 1849.62H1890.11" stroke="#335CDF" stroke-width="11" stroke-linecap="round" stroke-linejoin="round"/>
<path d="M1513.57 1849.62H1572.35" stroke="#335CDF" stroke-width="11" stroke-linecap="round" stroke-linejoin="round"/>
</g>
<defs>
<clipPath id="clip0_305_961">
<rect width="1801.51" height="1656.12" fill="white" transform="translate(99 199)"/>
</clipPath>
</defs>
</svg>
