<svg width="2000" height="2055" viewBox="0 0 2000 2055" fill="none" xmlns="http://www.w3.org/2000/svg">
<g opacity="0.7">
<path d="M1851.51 1497.76C1851.58 1519.84 1833.75 1537.8 1811.68 1537.89L302.089 1544.03C280.052 1544.12 262.093 1526.37 261.927 1504.33L253.7 408.637C253.534 386.493 271.392 368.427 293.537 368.337L1807.92 362.194C1830.02 362.104 1848.01 379.962 1848.08 402.068L1851.51 1497.76Z" fill="#FDF1E4"/>
<path d="M345.347 1375.08H1121.09" stroke="#FDD2AE" stroke-width="14.7441" stroke-linecap="round" stroke-linejoin="round"/>
<path d="M345.347 1433.87H1031.87" stroke="#FDD2AE" stroke-width="14.7441" stroke-linecap="round" stroke-linejoin="round"/>
<g opacity="0.26">
<path d="M1143.15 446.607H326.585V1307.46H1143.15V446.607Z" fill="white"/>
<path d="M1015.82 445.887C1015.82 445.887 972.413 501.896 811.057 526.924C811.057 526.924 574.617 538.074 596.899 871.899C619.181 1205.72 327.027 1307.46 327.027 1307.46V446.329L1015.82 445.887Z" fill="#FDDDC1"/>
</g>
<path d="M1197.11 550.758H1656.61" stroke="#FDD2AE" stroke-width="14.7441" stroke-linecap="round" stroke-linejoin="round"/>
<path d="M1197.11 609.551H1603.77" stroke="#FDD2AE" stroke-width="14.7441" stroke-linecap="round" stroke-linejoin="round"/>
<path d="M1197.11 665.945H1603.77" stroke="#FDD2AE" stroke-width="14.7441" stroke-linecap="round" stroke-linejoin="round"/>
<g opacity="0.7">
<path d="M1285.71 751.404H1197.11V839.998H1285.71V751.404Z" fill="#EA9C75"/>
<path d="M1392.91 751.404H1304.32V839.998H1392.91V751.404Z" fill="#F7B98F"/>
<path d="M1499.97 751.404H1411.38V839.998H1499.97V751.404Z" fill="#FDD2AE"/>
</g>
<path d="M1565.14 914.881H1224.39C1209.32 914.881 1197.11 927.093 1197.11 942.157V1012.63C1197.11 1027.7 1209.32 1039.91 1224.39 1039.91H1565.14C1580.21 1039.91 1592.42 1027.7 1592.42 1012.63V942.157C1592.42 927.093 1580.21 914.881 1565.14 914.881Z" fill="#EA9C75"/>
<path d="M1306.99 981.768L1310.16 991.113H1314.26L1304.12 961.401H1299.49L1289.4 991.113H1293.37L1296.45 981.768H1306.99ZM1297.25 978.77L1300.16 970.174C1300.73 968.366 1301.21 966.559 1301.65 964.795H1301.74C1302.18 966.515 1302.62 968.278 1303.29 970.218L1306.2 978.77H1297.25ZM1332.54 959.814V972.554H1332.45C1331.48 970.835 1329.28 969.292 1326.01 969.292C1320.81 969.292 1316.4 973.656 1316.45 980.754C1316.45 987.234 1320.42 991.598 1325.57 991.598C1329.06 991.598 1331.66 989.791 1332.85 987.41H1332.94L1333.11 991.113H1336.59C1336.46 989.659 1336.42 987.498 1336.42 985.603V959.814H1332.54ZM1332.54 982.164C1332.54 982.781 1332.49 983.31 1332.36 983.839C1331.66 986.749 1329.28 988.468 1326.68 988.468C1322.49 988.468 1320.37 984.897 1320.37 980.577C1320.37 975.86 1322.75 972.334 1326.76 972.334C1329.67 972.334 1331.79 974.361 1332.36 976.83C1332.49 977.315 1332.54 977.976 1332.54 978.461V982.164ZM1357.42 959.814V972.554H1357.33C1356.36 970.835 1354.16 969.292 1350.9 969.292C1345.7 969.292 1341.29 973.656 1341.33 980.754C1341.33 987.234 1345.3 991.598 1350.46 991.598C1353.94 991.598 1356.54 989.791 1357.73 987.41H1357.82L1358 991.113H1361.48C1361.35 989.659 1361.3 987.498 1361.3 985.603V959.814H1357.42ZM1357.42 982.164C1357.42 982.781 1357.38 983.31 1357.25 983.839C1356.54 986.749 1354.16 988.468 1351.56 988.468C1347.37 988.468 1345.26 984.897 1345.26 980.577C1345.26 975.86 1347.64 972.334 1351.65 972.334C1354.56 972.334 1356.67 974.361 1357.25 976.83C1357.38 977.315 1357.42 977.976 1357.42 978.461V982.164ZM1377.98 964.663V969.777H1374.68V972.73H1377.98V984.368C1377.98 986.881 1378.38 988.777 1379.48 989.923C1380.41 990.981 1381.86 991.554 1383.67 991.554C1385.17 991.554 1386.36 991.334 1387.11 991.025L1386.93 988.116C1386.45 988.248 1385.7 988.38 1384.68 988.38C1382.52 988.38 1381.77 986.881 1381.77 984.236V972.73H1387.33V969.777H1381.77V963.649L1377.98 964.663ZM1400.47 969.292C1394.57 969.292 1389.89 973.48 1389.89 980.621C1389.89 987.366 1394.35 991.598 1400.12 991.598C1405.28 991.598 1410.74 988.16 1410.74 980.269C1410.74 973.744 1406.6 969.292 1400.47 969.292ZM1400.38 972.201C1404.97 972.201 1406.78 976.786 1406.78 980.401C1406.78 985.206 1404 988.689 1400.3 988.689C1396.51 988.689 1393.82 985.162 1393.82 980.489C1393.82 976.433 1395.8 972.201 1400.38 972.201ZM1445.07 987.102C1443.53 987.851 1441.15 988.336 1438.81 988.336C1431.58 988.336 1427.4 983.663 1427.4 976.389C1427.4 968.586 1432.03 964.134 1438.99 964.134C1441.46 964.134 1443.53 964.663 1444.99 965.368L1445.91 962.238C1444.9 961.709 1442.56 960.916 1438.86 960.916C1429.64 960.916 1423.34 967.22 1423.34 976.522C1423.34 986.264 1429.64 991.554 1438.02 991.554C1441.64 991.554 1444.46 990.849 1445.87 990.143L1445.07 987.102ZM1465.58 991.113C1465.32 989.659 1465.23 987.851 1465.23 986V978.02C1465.23 973.744 1463.64 969.292 1457.12 969.292C1454.43 969.292 1451.87 970.041 1450.11 971.187L1450.99 973.744C1452.49 972.774 1454.56 972.157 1456.55 972.157C1460.91 972.157 1461.4 975.331 1461.4 977.095V977.535C1453.15 977.491 1448.57 980.313 1448.57 985.471C1448.57 988.556 1450.77 991.598 1455.09 991.598C1458.13 991.598 1460.43 990.099 1461.62 988.424H1461.75L1462.06 991.113H1465.58ZM1461.48 983.928C1461.48 984.324 1461.4 984.765 1461.26 985.162C1460.65 986.969 1458.88 988.733 1456.11 988.733C1454.12 988.733 1452.45 987.542 1452.45 985.03C1452.45 980.886 1457.25 980.136 1461.48 980.225V983.928ZM1471.51 991.113H1475.34V979.74C1475.34 979.078 1475.43 978.461 1475.52 977.932C1476.05 975.023 1477.99 972.951 1480.72 972.951C1481.25 972.951 1481.65 972.995 1482.05 973.083V969.424C1481.69 969.336 1481.38 969.292 1480.94 969.292C1478.34 969.292 1476.01 971.099 1475.04 973.965H1474.86L1474.73 969.777H1471.33C1471.47 971.761 1471.51 973.921 1471.51 976.433V991.113ZM1487.89 964.663V969.777H1484.58V972.73H1487.89V984.368C1487.89 986.881 1488.29 988.777 1489.39 989.923C1490.31 990.981 1491.77 991.554 1493.58 991.554C1495.08 991.554 1496.27 991.334 1497.01 991.025L1496.84 988.116C1496.35 988.248 1495.6 988.38 1494.59 988.38C1492.43 988.38 1491.68 986.881 1491.68 984.236V972.73H1497.24V969.777H1491.68V963.649L1487.89 964.663Z" fill="white"/>
</g>
<g clip-path="url(#clip0_305_962)">
<path d="M176.957 888.67C182.541 893.921 189.25 898.254 196.782 899.681C204.314 901.109 210.46 900.015 218.065 899.067C223.607 898.369 228.524 892.91 230.305 888.826C237.774 871.69 245.254 854.553 252.703 837.406C259.63 821.467 251.651 819.904 250.088 814.466C248.338 808.383 242.369 804.684 236.868 801.549" fill="#DE9E40"/>
<path d="M1310.78 489.274C1310.78 489.274 1330.91 491.483 1325.8 505.848C1320.68 520.214 1270.85 547.841 1258.51 546.737C1246.15 545.633 1233.38 560.55 1233.38 560.55C1233.38 560.55 1246.37 537.038 1269.35 527.965C1270.08 527.683 1270.82 527.444 1271.56 527.183C1274.81 526.069 1289.17 519.724 1310.78 489.264V489.274Z" fill="#E7AB43" stroke="#9D6434" stroke-width="3.12524" stroke-miterlimit="10"/>
<path d="M887.96 1539.79V1540.49C887.96 1547.64 893.753 1553.44 900.909 1553.44H1164.01C1171.16 1553.44 1176.96 1547.65 1176.96 1540.49C1176.96 1533.36 1171.19 1527.56 1164.05 1527.54L900.951 1526.85C893.784 1526.82 887.971 1532.63 887.971 1539.79H887.96Z" fill="#7EB7FA"/>
<path d="M1373.98 1241.52C1418.22 1210.18 1635.07 1236.58 1694.77 1234.22C1729.91 1232.83 1817.39 1241.33 1850.71 1236.15C1864.66 1233.97 1872.69 1219.35 1867.32 1205.87C1839.57 1136.34 1786.84 987.345 1769.46 996.262C1748.99 1006.76 1776.01 1107.58 1750.29 1123.68C1724.57 1139.76 1382.12 1047.1 1291.47 1123.52" fill="#DE9E40"/>
<path d="M1882.25 1304.75C1857.06 1298.95 1812.84 1405.31 1778.85 1402.48C1744.86 1399.65 1520.04 1092.9 1386.9 1099.99C1319.98 1103.55 1273.22 1124.88 1231.87 1146.51C1221.4 1151.99 1208.83 1151.43 1198.82 1145.17C1116.68 1093.75 1063.35 1040.52 1030.36 1003.13C1021.13 992.666 1017.45 978.405 1020.6 964.81C1031.04 919.744 1071.41 856.301 1093.11 822.84C1120.49 780.629 1244.15 571.613 1240.09 560.185C1234.46 544.319 1199.64 515.056 1166.56 520.765C1133.47 526.474 1075.1 624.69 1015.51 710.603C984.989 754.616 934.735 812.256 906.045 846.405C884.731 871.761 853.76 910.983 823.435 924.317L817.601 926.88C813.455 922.327 808.1 917.535 806.652 915.618C803.6 911.577 799.485 906.034 796.401 901.482C808.35 867.875 805.579 840.165 788.64 813.496C782.254 803.433 773.66 801.037 770.128 788.942C765.19 772.045 779.327 754.741 767.826 739.438C757.534 725.739 736.022 719.218 722.823 730.156C714.489 737.063 707.592 753.45 705.321 764.034C704.3 742.522 692.935 738.271 681.83 739.407C670.246 740.584 660.245 748.053 655.359 758.627C649.525 771.253 642.327 783.337 647.754 795.755C643.702 788.557 632.024 789.557 626.596 795.786C612.731 811.715 618.002 853.562 627.492 870.969C639.504 892.971 646.775 904.774 667.006 917.775C680.361 926.359 699.79 934.714 716.197 933.714L735.584 959.768C710.176 964.612 683.694 961.33 660.016 950.048C613.408 927.859 485.387 878.011 443.915 865.115L243.681 808.298C243.681 808.298 263.776 880.355 193.104 894.909C174.03 898.836 308.947 939.485 408.579 983.592C491.107 1020.14 635.774 1089.35 671.631 1105.11C677.288 1107.59 682.153 1111.58 685.716 1116.62C773.92 1241.31 850.114 1300.61 876.939 1305.08C892.002 1307.59 943.736 1281.87 1072.04 1270.1L1052.24 1310.42C1052.24 1310.42 1301.88 1285.29 1352.87 1286.71C1413.81 1288.4 1598.18 1455.13 1653.42 1491.95C1685.93 1513.63 1758.77 1577.93 1792.24 1595.15C1806.25 1602.36 1823.35 1594.93 1827.63 1579.77C1849.72 1501.55 1909.98 1311.15 1882.24 1304.76L1882.25 1304.75Z" fill="#F2A91F"/>
<mask id="mask0_305_962" style="mask-type:alpha" maskUnits="userSpaceOnUse" x="191" y="520" width="1699" height="1078">
<path d="M1882.25 1304.75C1857.06 1298.95 1812.84 1405.31 1778.85 1402.48C1744.86 1399.65 1520.04 1092.9 1386.9 1099.99C1319.98 1103.55 1273.22 1124.88 1231.87 1146.51C1221.4 1151.99 1208.83 1151.43 1198.82 1145.17C1116.68 1093.75 1063.35 1040.52 1030.36 1003.13C1021.13 992.666 1017.45 978.405 1020.6 964.81C1031.04 919.744 1071.41 856.301 1093.11 822.84C1120.49 780.629 1244.15 571.613 1240.09 560.185C1234.46 544.319 1199.64 515.056 1166.56 520.765C1133.47 526.474 1075.1 624.69 1015.51 710.603C984.989 754.616 934.735 812.256 906.045 846.405C884.731 871.761 853.76 910.983 823.435 924.317L817.601 926.88C813.455 922.327 808.1 917.535 806.652 915.618C803.6 911.577 799.485 906.034 796.401 901.482C808.35 867.875 805.579 840.165 788.64 813.496C782.254 803.433 773.66 801.037 770.128 788.942C765.19 772.045 779.327 754.741 767.826 739.438C757.534 725.739 736.022 719.218 722.823 730.156C714.489 737.063 707.592 753.45 705.321 764.034C704.3 742.522 692.935 738.271 681.83 739.407C670.246 740.584 660.245 748.053 655.359 758.627C649.525 771.253 642.327 783.337 647.754 795.755C643.702 788.557 632.024 789.557 626.596 795.786C612.731 811.715 618.002 853.562 627.492 870.969C639.504 892.971 646.775 904.774 667.006 917.775C680.361 926.359 699.79 934.714 716.197 933.714L735.584 959.768C710.176 964.612 683.694 961.33 660.016 950.048C613.408 927.859 485.387 878.011 443.915 865.115L243.681 808.298C243.681 808.298 263.776 880.355 193.104 894.909C174.03 898.836 308.947 939.485 408.579 983.592C491.107 1020.14 635.774 1089.35 671.631 1105.11C677.288 1107.59 682.153 1111.58 685.716 1116.62C773.92 1241.31 850.114 1300.61 876.939 1305.08C892.002 1307.59 943.736 1281.87 1072.04 1270.1L1052.24 1310.42C1052.24 1310.42 1301.88 1285.29 1352.87 1286.71C1413.81 1288.4 1598.18 1455.13 1653.42 1491.95C1685.93 1513.63 1758.77 1577.93 1792.24 1595.15C1806.25 1602.36 1823.35 1594.93 1827.63 1579.77C1849.72 1501.55 1909.98 1311.15 1882.24 1304.76L1882.25 1304.75Z" fill="#F2A91F"/>
</mask>
<g mask="url(#mask0_305_962)">
<path opacity="0.6" d="M626.617 795.788C626.617 795.788 616.794 825.28 625.461 853.345C634.128 881.409 660.797 912.933 688.507 923.319C716.218 933.705 724.187 930.601 741.168 926.1C758.148 921.6 739.084 932.674 740.47 940.643C741.855 948.612 755.711 957.967 754.325 961.426C752.94 964.885 721.416 977.011 676.382 956.228C631.347 935.445 624.419 926.09 612.637 908.422C600.855 890.754 590.114 868.585 594.625 839.479C599.136 810.373 603.636 802.757 607.095 798.945C610.553 795.132 626.617 795.778 626.617 795.778" fill="#CC8F3F"/>
<path opacity="0.6" d="M712.759 745.951C712.759 745.951 709.29 725.855 710.676 723.084C712.061 720.313 756.409 706.458 758.482 705.76C760.555 705.062 806.287 706.458 806.287 706.458C806.287 706.458 829.154 789.6 829.841 800.684C830.529 811.768 822.216 867.2 822.216 867.2L817.611 926.892C817.611 926.892 783.004 910.984 789.661 903.921C800.745 892.139 797.287 876.898 798.672 862.355C800.297 845.323 788.974 820.092 774.42 807.622C759.867 795.152 763.565 779.099 764.951 763.16C766.336 747.221 762.753 736.137 743.814 731.054C726.302 726.355 710.613 770.077 702.592 776.317C701.55 777.13 705.134 742.481 680.882 745.951C661.485 748.722 643.316 775.817 639.316 782.672C625.305 806.622 640.014 724.47 657.328 716.855C668.235 712.052 712.759 745.951 712.759 745.951Z" fill="#CC8F3F"/>
<path opacity="0.6" d="M425.227 982.906C425.227 982.906 666.037 1074.48 691.976 1093.76C718.999 1113.85 789.672 1210.85 789.672 1210.85L743.939 1211.55C743.939 1211.55 689.893 1156.82 678.809 1141.57C667.725 1126.33 664.953 1110.4 603.292 1082.68C541.631 1054.97 465.417 1045.96 421.768 1018.25C378.119 990.542 344.168 962.134 344.168 959.363C344.168 956.592 425.227 982.917 425.227 982.917V982.906Z" fill="#CC8F3F"/>
<path opacity="0.6" d="M1097.29 813.152C1097.29 813.152 1003.06 951.028 1000.98 975.967C998.896 1000.91 1050.87 1025.86 1050.87 1025.86C1050.87 1025.86 1035.63 959.341 1055.03 929.547C1074.42 899.753 1097.29 813.152 1097.29 813.152Z" fill="#CC8F3F"/>
<path opacity="0.6" d="M1198.83 1145.17C1198.83 1145.17 1218.23 1165.83 1259.42 1142.95C1315.54 1111.77 1386.21 1106.93 1406.3 1109C1426.4 1111.07 1484.59 1138.1 1533.09 1182.44C1581.6 1226.79 1763.81 1425.63 1781.82 1430.48C1799.83 1435.34 1873.97 1299.53 1887.83 1316.86C1901.69 1334.18 1915.54 1274.6 1906.54 1272.51C1897.54 1270.43 1858.73 1291.22 1836.57 1306.46C1814.4 1321.7 1786.68 1345.26 1778.36 1339.72C1770.05 1334.17 1742.34 1319.62 1704.92 1300.22C1667.5 1280.83 1654.34 1239.95 1623.86 1218.47C1593.38 1196.99 1571.2 1174.82 1553.89 1158.88C1536.57 1142.94 1526.86 1119.39 1514.39 1113.15C1501.92 1106.91 1470.75 1086.82 1444.42 1081.97C1418.1 1077.11 1433.34 1070.18 1400.07 1072.27C1366.81 1074.35 1359.89 1076.42 1328.71 1093.75C1297.53 1111.07 1239.33 1129.77 1233.1 1131.16C1226.87 1132.54 1198.84 1145.16 1198.84 1145.16" fill="#CC8F3F"/>
</g>
<path d="M698.071 1194.74C700.602 1203.56 708.655 1209.62 717.833 1209.55C818.059 1208.71 1373.88 1204.42 1396.02 1212.73C1420.36 1221.85 1329.1 1526.06 1283.46 1529.11C1242.13 1531.86 845.238 1527.13 770.722 1526.21C763.513 1526.12 757.138 1521.51 754.794 1514.69L652.223 1215.77L641.233 1177.29C638.639 1168.2 631.336 1161.24 622.138 1159.09C576.53 1148.38 441.551 1115.59 437.759 1101.7C433.196 1084.97 431.675 1056.07 440.801 1056.07C449.926 1056.07 617.835 1104.17 662.87 1119.95C686.914 1128.38 691.112 1170.56 698.06 1194.75L698.071 1194.74Z" fill="#117AF6"/>
<mask id="mask1_305_962" style="mask-type:alpha" maskUnits="userSpaceOnUse" x="434" y="1056" width="967" height="474">
<path d="M698.071 1194.74C700.602 1203.56 708.655 1209.62 717.833 1209.55C818.059 1208.71 1373.88 1204.42 1396.02 1212.73C1420.36 1221.85 1329.1 1526.06 1283.46 1529.11C1242.13 1531.86 845.238 1527.13 770.722 1526.21C763.513 1526.12 757.138 1521.51 754.794 1514.69L652.223 1215.77L641.233 1177.29C638.639 1168.2 631.336 1161.24 622.138 1159.09C576.53 1148.38 441.551 1115.59 437.759 1101.7C433.196 1084.97 431.675 1056.07 440.801 1056.07C449.926 1056.07 617.835 1104.17 662.87 1119.95C686.914 1128.38 691.112 1170.56 698.06 1194.75L698.071 1194.74Z" fill="#117AF6"/>
</mask>
<g mask="url(#mask1_305_962)">
<path opacity="0.4" d="M652.223 1215.77C652.223 1215.77 755.023 1496.3 791.047 1503.23C829.748 1510.67 1055.01 1519.44 1262.44 1503.85C1267.86 1503.45 1272.84 1500.74 1276.2 1496.45C1291.71 1476.55 1336.16 1410.04 1375.33 1259.79C1375.64 1258.57 1375.84 1257.32 1375.93 1256.07L1378.23 1218.16C1378.46 1214.3 1379.85 1210.59 1382.22 1207.53C1391.19 1195.92 1409.31 1198.16 1415.18 1211.61L1432.67 1251.69C1434.44 1255.74 1434.76 1260.28 1433.59 1264.55L1382.01 1451.01C1381.58 1452.56 1380.96 1454.05 1380.15 1455.45C1370.59 1472.12 1307.4 1581.68 1300.99 1575.29C1294.06 1568.36 1162.42 1540.65 1158.26 1540.65C1154.11 1540.65 909.608 1560.69 900.909 1553.44C892.211 1546.19 739.782 1558.66 725.927 1550.35C712.072 1542.03 634.472 1429.8 623.388 1410.39C615.064 1395.82 612.21 1282.85 611.304 1227.44C611.074 1213.27 625.68 1203.69 638.576 1209.56L652.223 1215.76" fill="#0757B5"/>
</g>
<path d="M1248.41 1551.98H791.849C788.345 1551.98 785.505 1554.82 785.505 1558.32V1572.19C785.505 1575.69 788.345 1578.53 791.849 1578.53H1248.41C1251.91 1578.53 1254.75 1575.69 1254.75 1572.19V1558.32C1254.75 1554.82 1251.91 1551.98 1248.41 1551.98Z" fill="#117AF6"/>
<path d="M880.481 1691.1C910.721 1691.1 935.235 1666.58 935.235 1636.34C935.235 1606.1 910.721 1581.59 880.481 1581.59C850.241 1581.59 825.726 1606.1 825.726 1636.34C825.726 1666.58 850.241 1691.1 880.481 1691.1Z" fill="#0757B5"/>
<path d="M1169.7 1691.1C1199.94 1691.1 1224.46 1666.58 1224.46 1636.34C1224.46 1606.1 1199.94 1581.59 1169.7 1581.59C1139.46 1581.59 1114.95 1606.1 1114.95 1636.34C1114.95 1666.58 1139.46 1691.1 1169.7 1691.1Z" fill="#0757B5"/>
<path d="M880.877 1651.21C889.909 1651.21 897.232 1643.89 897.232 1634.85C897.232 1625.82 889.909 1618.5 880.877 1618.5C871.844 1618.5 864.521 1625.82 864.521 1634.85C864.521 1643.89 871.844 1651.21 880.877 1651.21Z" fill="#117AF6"/>
<path d="M1169.46 1651.21C1178.49 1651.21 1185.82 1643.89 1185.82 1634.85C1185.82 1625.82 1178.49 1618.5 1169.46 1618.5C1160.43 1618.5 1153.11 1625.82 1153.11 1634.85C1153.11 1643.89 1160.43 1651.21 1169.46 1651.21Z" fill="#117AF6"/>
<path d="M138.538 930.223C138.538 930.223 174.561 913.639 176.322 895.158" stroke="#5995EC" stroke-width="5.20874" stroke-linecap="round" stroke-linejoin="round"/>
<path d="M250.588 945.913C250.588 945.913 184.895 927.578 131.058 930.047C123.974 930.37 117.859 935.089 115.65 941.819C106.973 968.227 86.7107 1037.84 92.659 1096.16C93.9196 1108.54 101.389 1119.45 112.411 1125.22C131.193 1135.05 165.019 1148.42 210.095 1148.42C210.095 1148.42 171.144 1090.39 169.53 990.208C169.373 980.655 175.384 972.082 184.416 968.935L250.598 945.913H250.588Z" fill="#7EB7FA"/>
<mask id="mask2_305_962" style="mask-type:alpha" maskUnits="userSpaceOnUse" x="91" y="929" width="160" height="220">
<path d="M250.588 945.913C250.588 945.913 184.895 927.578 131.058 930.047C123.974 930.37 117.859 935.089 115.65 941.819C106.973 968.227 86.7107 1037.84 92.659 1096.16C93.9196 1108.54 101.389 1119.45 112.411 1125.22C131.193 1135.05 165.019 1148.42 210.095 1148.42C210.095 1148.42 171.144 1090.39 169.53 990.208C169.373 980.655 175.384 972.082 184.416 968.935L250.598 945.913H250.588Z" fill="#7EB7FA"/>
</mask>
<g mask="url(#mask2_305_962)">
<path opacity="0.48" d="M243.004 933.715C243.004 933.715 157.779 940.986 150.507 964.894C143.236 988.802 145.309 1127.02 198.313 1163.4C251.317 1199.78 260.672 1172.75 231.566 1111.44C202.47 1050.12 181.676 1005.43 206.626 987.761C231.576 970.093 244.64 947.737 250.578 945.924C256.516 944.111 243.004 933.715 243.004 933.715Z" fill="#007CFF"/>
</g>
<path d="M173.634 968.926C196.334 957.654 251.255 935.944 320.979 946.674C331.178 948.247 339.793 955.071 343.522 964.686C352.169 986.948 365.816 1034.52 365.201 1112.07C365.118 1123.15 358.003 1132.95 347.502 1136.48C318.052 1146.39 256.203 1162.96 202.813 1149.45C202.813 1149.45 163.748 1088.4 162.3 987.448C162.185 979.614 166.613 972.406 173.634 968.926Z" fill="#5995EC"/>
<path d="M176.395 889.732C176.395 889.732 170.228 913.505 182.562 962.811" stroke="#5995EC" stroke-width="5.20874" stroke-linecap="round" stroke-linejoin="round"/>
<path d="M236.264 804.33C236.264 804.33 283.372 821.508 300.102 943.893" stroke="#5995EC" stroke-width="5.20874" stroke-linecap="round" stroke-linejoin="round"/>
<path d="M230.659 814.895C230.659 814.895 275.007 812.249 263.558 943.436" stroke="#5995EC" stroke-width="5.20874" stroke-linecap="round" stroke-linejoin="round"/>
<path d="M1138.17 540.871C1138.17 540.871 1173.34 478.783 1225.29 488.179C1277.25 497.576 1280.66 447.291 1301.1 450.051C1321.54 452.812 1323.24 457.239 1322.82 465.521C1322.39 473.813 1292.58 520.775 1270.85 527.411C1249.13 534.047 1233.77 578.978 1233.77 578.978" fill="#F2A91F"/>
<path d="M1138.17 540.871C1138.17 540.871 1173.34 478.783 1225.29 488.179C1277.25 497.576 1280.66 447.291 1301.1 450.051C1321.54 452.812 1323.24 457.239 1322.82 465.521C1322.39 473.813 1292.58 520.775 1270.85 527.411C1249.13 534.047 1233.77 578.978 1233.77 578.978" stroke="#9D6434" stroke-width="3.12524" stroke-linecap="round" stroke-linejoin="round"/>
<path d="M1189.51 492.597C1189.51 492.597 1220.17 448.948 1234.65 452.813C1249.13 456.678 1256.37 463.313 1255.09 468.835C1253.81 474.356 1240.19 489.284 1240.19 489.284C1240.19 489.284 1235.07 490.941 1225.28 488.18C1215.49 485.419 1198.44 488.18 1189.5 492.597H1189.51Z" fill="#E7AB43" stroke="#9D6434" stroke-width="3.12524" stroke-miterlimit="10"/>
<path d="M1240.2 489.275C1240.2 489.275 1254.68 438.989 1264.9 445.073C1275.12 451.157 1286.62 456.126 1286.62 456.126C1286.62 456.126 1266.18 489.837 1240.2 489.285V489.275Z" fill="#E7AB43" stroke="#9D6434" stroke-width="3.12524" stroke-miterlimit="10"/>
<path d="M1292.87 512.516C1292.87 512.516 1298.43 588.594 1291.77 629.171" stroke="#5995EC" stroke-width="5.20874" stroke-linecap="round" stroke-linejoin="round"/>
<path d="M1295.79 509.266C1295.79 509.266 1326.3 557.707 1334.17 629.765" stroke="#5995EC" stroke-width="5.20874" stroke-linecap="round" stroke-linejoin="round"/>
<path d="M1256.04 628.326C1256.04 628.326 1205.34 603.97 1160.91 617.554C1116.48 631.149 1118.57 771.753 1134.25 785.859C1149.93 799.974 1206.38 813.559 1223.63 809.902C1223.63 809.902 1180.25 752.929 1203.77 651.525C1203.77 651.525 1211.61 636.68 1256.03 628.315L1256.04 628.326Z" fill="#5995EC"/>
<mask id="mask3_305_962" style="mask-type:alpha" maskUnits="userSpaceOnUse" x="1124" y="613" width="133" height="198">
<path d="M1256.04 628.326C1256.04 628.326 1205.34 603.97 1160.91 617.554C1116.48 631.149 1118.57 771.753 1134.25 785.859C1149.93 799.974 1206.38 813.559 1223.63 809.902C1223.63 809.902 1180.25 752.929 1203.77 651.525C1203.77 651.525 1211.61 636.68 1256.03 628.315L1256.04 628.326Z" fill="#5995EC"/>
</mask>
<g mask="url(#mask3_305_962)">
<path opacity="0.48" d="M1244.86 614.658C1241.75 614.658 1182.5 625.055 1176.27 647.911C1170.04 670.767 1160.69 797.568 1190.83 824.591C1220.97 851.614 1253.19 819.393 1259.42 792.37C1265.65 765.347 1217.85 693.644 1230.32 666.621C1242.79 639.598 1263.57 627.128 1263.57 627.128L1244.86 614.658Z" fill="#007CFF"/>
</g>
<path d="M136.336 1696.56H1593.35" stroke="#335CDF" stroke-width="9.54608" stroke-linecap="round" stroke-linejoin="round"/>
<path d="M1651.62 1698.84H1888.4" stroke="#335CDF" stroke-width="9.54608" stroke-linecap="round" stroke-linejoin="round"/>
<path d="M148.174 797.964C166.623 772.764 182.676 775.129 195.417 771.337C203.532 768.92 212.668 770.191 220.273 773.868C227.878 777.546 233.93 784.796 234.753 793.078C235.42 799.777 232.764 806.361 229.576 812.319C228.815 813.747 227.836 815.299 226.242 815.684C225.117 815.955 223.95 815.57 222.857 815.184C214.919 812.413 206.98 809.642 199.042 806.871C205.553 815.028 217.387 816.153 227.617 818.747C231.389 819.705 240.837 826.258 241.639 829.987C242.171 832.456 240.973 834.925 239.806 837.165C237.212 842.165 234.524 847.28 230.295 851.052C226.065 854.833 219.898 857.042 214.512 855.146C211.345 854.031 203.647 846.947 200.98 844.916C193.813 839.436 184.989 836.071 175.936 835.363C177.311 838.519 181.02 839.905 184.343 840.967C190.187 842.822 196.032 844.686 201.876 846.541C205.032 847.541 213.366 856.114 214.669 859.115C217.252 865.073 209.387 869.761 205.095 874.668C203.074 876.981 201.667 879.866 199.178 881.689C193.865 885.585 186.218 883.033 180.655 879.491C175.093 875.949 164.727 864.073 158.091 864.084C157.664 871.314 172.853 875.668 177.332 881.439C182.395 887.961 176.228 897.149 169.665 902.233C167.519 903.889 165.081 905.525 162.362 905.472C158.529 905.41 155.674 902.16 153.122 899.357C148.507 894.263 139.642 886.252 135.475 880.804C119.88 860.427 118.234 840.019 136.933 816.861L148.163 797.964H148.174Z" fill="#F2A91F"/>
<path d="M150.424 799.277C156.299 791.307 163.487 784.14 172.592 779.983C178.249 777.4 185.062 776.316 191.406 774.993C195.407 774.16 199.209 772.816 203.334 772.712C208.939 772.566 214.679 773.879 219.669 776.462C224.003 778.712 227.701 782.119 230.024 786.432C232.545 791.099 232.753 796.318 231.368 801.381C230.482 804.6 229.118 807.642 227.555 810.59C227.169 811.319 226.503 813.017 225.555 813.173C224.919 813.278 224.128 812.871 223.555 812.673C222.742 812.392 221.94 812.111 221.127 811.83C214.002 809.34 206.876 806.85 199.751 804.36C198.678 803.985 197.365 804.61 196.813 805.558C196.188 806.621 196.48 807.808 197.219 808.715C203.136 815.976 212.783 818.07 221.471 819.987C223.461 820.424 225.544 820.768 227.482 821.414C227.638 821.466 228.336 821.758 227.888 821.56C228.201 821.695 228.503 821.841 228.805 821.997C229.628 822.414 230.441 822.872 231.222 823.362C232.743 824.31 234.212 825.341 235.556 826.487C236.212 827.05 236.858 827.633 237.462 828.268C237.722 828.539 237.962 828.81 238.212 829.091C238.285 829.164 238.618 829.623 238.368 829.269C238.483 829.425 238.597 829.591 238.702 829.758C238.806 829.925 239.202 830.769 238.972 830.154C239.066 830.404 239.129 830.644 239.16 830.904C239.295 832.144 238.733 833.467 238.212 834.561C237.097 836.884 235.858 839.176 234.555 841.394C232.087 845.603 229.045 849.572 224.586 851.781C222.7 852.718 220.575 853.26 218.46 853.229C217.315 853.208 216.304 852.968 215.21 852.635C214.877 852.531 215.585 852.875 214.971 852.51C214.627 852.312 214.283 852.124 213.95 851.916C210.939 850.02 208.293 847.624 205.564 845.322C201.865 842.197 197.98 839.436 193.563 837.394C187.979 834.811 182.072 833.258 175.936 832.748C173.79 832.571 172.926 835.05 173.686 836.665C175.676 840.915 180.489 842.457 184.625 843.78C190.062 845.509 195.469 847.364 200.938 848.968C201.751 849.208 200.657 848.739 201.324 849.114C201.563 849.249 201.803 849.385 202.032 849.53C202.647 849.926 203.116 850.281 203.449 850.562C204.814 851.687 206.105 852.885 207.345 854.145C208.585 855.406 209.689 856.604 210.762 857.917C210.877 858.052 210.991 858.198 211.106 858.344C210.877 858.052 211.137 858.385 211.168 858.427C211.356 858.677 211.533 858.927 211.7 859.177C211.866 859.427 212.012 859.677 212.168 859.927C212.231 860.021 212.272 860.125 212.325 860.219C212.325 860.24 212.283 860.031 212.387 860.427C212.762 861.781 212.46 862.802 211.543 864.209C210.502 865.803 209.043 867.136 207.668 868.449C206.21 869.834 204.699 871.178 203.355 872.689C201.782 874.46 200.605 876.553 199.011 878.304C196.042 881.554 191.865 881.45 187.948 880.168C185.833 879.47 183.822 878.449 181.958 877.241C180.614 876.376 179.947 875.793 178.687 874.72C175.301 871.845 172.04 868.824 168.498 866.146C165.508 863.886 161.977 861.542 158.091 861.469C156.643 861.438 155.539 862.688 155.487 864.073C155.278 869.73 161.019 873.366 165.227 875.97C167.686 877.491 170.228 878.897 172.582 880.585C174.259 881.783 176.155 883.471 176.53 885.887C176.989 888.867 175.353 891.971 173.676 894.378C171.696 897.211 168.998 899.774 166.05 901.587C164.685 902.43 163.154 903.108 161.519 902.743C159.883 902.378 158.591 901.243 157.445 900.128C155.049 897.795 152.872 895.242 150.507 892.878C145.59 887.95 140.246 883.033 136.277 877.512C132.006 871.595 128.485 865.073 126.87 857.917C125.391 851.374 125.787 844.624 127.776 838.238C128.912 834.613 130.516 831.175 132.423 827.893C133.485 826.07 134.631 824.289 135.85 822.57C136.912 821.06 138.183 819.664 139.204 818.132C140.965 815.507 142.455 812.653 144.069 809.944L150.038 799.912L150.414 799.277C152.132 796.391 147.632 793.766 145.913 796.651C142.246 802.819 138.538 808.954 134.923 815.142C134.537 815.799 134.423 815.851 133.818 816.632C132.287 818.611 130.818 820.632 129.474 822.737C127.193 826.299 125.245 830.071 123.734 834.029C121.015 841.134 120.151 848.728 121.255 856.25C122.359 863.771 125.651 870.97 129.808 877.335C133.964 883.7 139.308 889.117 144.726 894.513C147.226 897.003 149.695 899.503 152.07 902.107C154.799 905.087 158.07 908.025 162.352 908.108C166.634 908.191 170.55 905.139 173.561 902.358C176.384 899.743 178.874 896.597 180.395 893.044C181.916 889.492 182.333 885.596 180.676 882.002C179.405 879.241 176.936 877.303 174.488 875.637C172.04 873.97 169.415 872.532 166.915 870.928C165.779 870.209 164.498 869.345 163.654 868.647C163.165 868.24 162.696 867.824 162.258 867.365C161.633 866.719 161.706 866.834 161.341 866.261C161.196 866.032 161.071 865.803 160.935 865.563C160.758 865.105 160.883 865.459 160.935 865.563C160.894 865.459 160.852 865.355 160.831 865.25C160.768 865 160.696 864.761 160.654 864.511C160.737 865.094 160.685 864.282 160.696 864.105L158.091 866.709C158.206 866.709 158.414 866.688 158.539 866.73C159.237 866.917 158.206 866.646 158.643 866.751C159.008 866.823 159.362 866.917 159.716 867.021C160.466 867.261 160.748 867.396 161.612 867.865C163.217 868.73 164.727 869.782 166.165 870.897C169.311 873.334 172.217 876.074 175.259 878.637C181.593 883.981 191.813 889.367 199.855 884.408C202.157 882.981 203.751 880.845 205.314 878.679C206.585 876.897 208.012 875.345 209.606 873.834C212.616 870.97 216.387 867.928 217.502 863.729C218.513 859.896 216.617 856.864 214.293 854.052C211.97 851.239 209.272 848.541 206.355 846.28C204.855 845.124 203.428 844.322 201.615 843.749C198.365 842.717 195.125 841.686 191.875 840.655C188.906 839.707 185.885 838.863 182.968 837.769C180.999 837.03 179.124 836.04 178.207 834.071L175.957 837.988C181.26 838.425 186.541 839.821 191.354 842.113C193.834 843.29 196.209 844.676 198.438 846.27C198.74 846.489 199.032 846.707 199.334 846.926C199.438 847.009 200.032 847.478 199.438 846.999C199.657 847.176 199.865 847.343 200.084 847.52C200.772 848.082 201.449 848.655 202.126 849.228C205.147 851.781 208.168 854.51 211.554 856.573C215.523 859 220.648 858.917 224.909 857.312C230.138 855.333 234.087 851.551 237.212 846.989C238.733 844.77 240.025 842.415 241.275 840.04C242.629 837.467 244.16 834.811 244.369 831.852C244.66 827.685 241.504 824.622 238.504 822.205C235.503 819.789 232.284 817.476 228.68 816.351C223.742 814.809 218.523 814.194 213.564 812.684C208.606 811.173 204.157 809.038 200.897 805.037L198.365 809.392C205.251 811.798 212.137 814.205 219.013 816.601C222.096 817.674 225.649 819.455 228.722 817.403C231.284 815.684 232.607 812.319 233.837 809.611C236.608 803.496 238.379 796.839 236.92 790.13C235.733 784.703 232.472 779.723 228.305 776.108C223.721 772.129 218.002 769.566 212.075 768.347C206.147 767.128 199.928 767.42 193.875 769.076C187.208 770.91 180.291 771.504 173.77 773.92C162.112 778.233 153.195 786.776 145.924 796.651C145.09 797.787 145.736 799.558 146.861 800.214C148.184 800.985 149.591 800.412 150.424 799.277Z" fill="#9D6434"/>
<path d="M1196.34 652.016C1200.05 633.493 1252.04 612.94 1345.01 629.42C1352.61 630.764 1359.06 635.806 1362.21 642.859C1371.47 663.641 1388.94 712.802 1387.93 786.297C1387.7 802.569 1377.78 817.205 1362.61 823.112C1339.2 832.227 1298.82 841.801 1241.06 834.217C1236.01 833.55 1231.27 831.373 1227.48 827.967C1211.26 813.372 1173.56 765.847 1196.32 652.016H1196.34Z" fill="#7EB7FA"/>
<path d="M1240.52 486.493C1234.52 491.691 1230.79 498.827 1228.02 506.151C1224.92 514.349 1222.67 522.933 1220.62 531.444C1216.29 549.456 1213.6 567.874 1212.58 586.376C1212.01 596.824 1211.98 607.304 1212.49 617.764C1212.65 621.097 1217.86 621.118 1217.69 617.764C1216.82 599.648 1217.55 581.469 1219.92 563.489C1222.3 545.508 1226.05 528.309 1231.65 511.474C1234.28 503.578 1237.8 495.744 1244.21 490.181C1245.27 489.254 1245.15 487.441 1244.21 486.493C1243.15 485.441 1241.59 485.566 1240.52 486.493Z" fill="#5995EC"/>
<path d="M1257.34 483.461C1253.18 492.712 1249.06 502.004 1246.02 511.692C1243.19 520.714 1241.14 529.985 1239.86 539.361C1237.29 558.3 1237.83 577.572 1241.53 596.334C1243.59 606.814 1246.67 617.086 1250.7 626.982C1251.23 628.285 1252.43 629.201 1253.91 628.806C1255.13 628.462 1256.26 626.91 1255.73 625.597C1248.72 608.419 1244.64 590.105 1243.69 571.582C1242.74 553.133 1244.8 534.569 1249.92 516.807C1252.98 506.202 1257.32 496.129 1261.84 486.086C1262.42 484.805 1262.21 483.284 1260.91 482.523C1259.79 481.867 1257.93 482.169 1257.34 483.461Z" fill="#5995EC"/>
<path d="M203.511 1019.99C212.898 1019.99 212.908 1005.41 203.511 1005.41C194.115 1005.41 194.115 1019.99 203.511 1019.99Z" fill="#7EB7FA"/>
<path d="M253.401 986.729C262.787 986.729 262.797 972.145 253.401 972.145C244.004 972.145 244.004 986.729 253.401 986.729Z" fill="#7EB7FA"/>
<path d="M312.989 1003.37C322.375 1003.37 322.385 988.781 312.989 988.781C303.592 988.781 303.592 1003.37 312.989 1003.37Z" fill="#7EB7FA"/>
<path d="M263.099 1050.48C272.486 1050.48 272.496 1035.89 263.099 1035.89C253.703 1035.89 253.703 1050.48 263.099 1050.48Z" fill="#7EB7FA"/>
<path d="M221.523 1080.96C230.909 1080.96 230.92 1066.37 221.523 1066.37C212.127 1066.37 212.127 1080.96 221.523 1080.96Z" fill="#7EB7FA"/>
<path d="M315.76 1074.03C325.146 1074.03 325.156 1059.44 315.76 1059.44C306.363 1059.44 306.363 1074.03 315.76 1074.03Z" fill="#7EB7FA"/>
<path d="M271.413 1114.22C280.799 1114.22 280.809 1099.63 271.413 1099.63C262.016 1099.63 262.016 1114.22 271.413 1114.22Z" fill="#7EB7FA"/>
<path d="M232.618 1137.77C242.004 1137.77 242.014 1123.19 232.618 1123.19C223.221 1123.19 223.221 1137.77 232.618 1137.77Z" fill="#7EB7FA"/>
<path d="M329.615 1116.99C339.001 1116.99 339.011 1102.41 329.615 1102.41C320.218 1102.41 320.218 1116.99 329.615 1116.99Z" fill="#7EB7FA"/>
<path d="M1237.25 677.727C1246.63 677.727 1246.64 663.143 1237.25 663.143C1227.85 663.143 1227.85 677.727 1237.25 677.727Z" fill="#5995EC"/>
<path d="M1287.13 658.319C1296.51 658.319 1296.52 643.734 1287.13 643.734C1277.73 643.734 1277.73 658.319 1287.13 658.319Z" fill="#5995EC"/>
<path d="M1332.86 679.112C1342.25 679.112 1342.26 664.527 1332.86 664.527C1323.46 664.527 1323.46 679.112 1332.86 679.112Z" fill="#5995EC"/>
<path d="M1281.58 712.366C1290.97 712.366 1290.98 697.781 1281.58 697.781C1272.19 697.781 1272.19 712.366 1281.58 712.366Z" fill="#5995EC"/>
<path d="M1238.63 742.846C1248.02 742.846 1248.03 728.262 1238.63 728.262C1229.24 728.262 1229.24 742.846 1238.63 742.846Z" fill="#5995EC"/>
<path d="M1338.4 733.147C1347.79 733.147 1347.8 718.562 1338.4 718.562C1329 718.562 1329 733.147 1338.4 733.147Z" fill="#5995EC"/>
<path d="M1294.05 767.795C1303.44 767.795 1303.45 753.211 1294.05 753.211C1284.66 753.211 1284.66 767.795 1294.05 767.795Z" fill="#5995EC"/>
<path d="M1251.1 809.362C1260.49 809.362 1260.5 794.777 1251.1 794.777C1241.71 794.777 1241.71 809.362 1251.1 809.362Z" fill="#5995EC"/>
<path d="M1346.71 802.434C1356.1 802.434 1356.11 787.85 1346.71 787.85C1337.32 787.85 1337.32 802.434 1346.71 802.434Z" fill="#5995EC"/>
<path d="M1302.37 820.446C1311.75 820.446 1311.76 805.861 1302.37 805.861C1292.97 805.861 1292.97 820.446 1302.37 820.446Z" fill="#5995EC"/>
<path d="M749.325 1215.3C755.481 1262.45 766.628 1308.68 781.108 1353.94C794.328 1395.24 809.871 1436.43 833.112 1473.25C845.801 1493.35 860.656 1514.23 880.762 1527.49C888.617 1532.67 895.93 1520.05 888.127 1514.9C871.407 1503.87 858.948 1486.26 848.166 1469.7C837.384 1453.15 827.372 1433.98 819.101 1415.07C801.652 1375.17 788.671 1332.86 778.285 1290.62C772.181 1265.78 767.222 1240.65 763.909 1215.28C763.399 1211.34 760.93 1208.03 756.617 1207.99C753.075 1207.95 748.814 1211.37 749.325 1215.28V1215.3Z" fill="#5995EC"/>
<path d="M1014.04 1211.69C1007.67 1254.73 1004.78 1298.15 1005.82 1341.66C1006.75 1380.52 1010.63 1419.2 1015.33 1457.77C1017.99 1479.52 1020.86 1501.25 1023.5 1523C1023.98 1526.94 1026.51 1530.25 1030.79 1530.29C1034.37 1530.34 1038.57 1526.91 1038.09 1523C1028.68 1445.69 1017.46 1368.63 1020.91 1290.5C1022.01 1265.42 1024.44 1240.41 1028.12 1215.56C1028.7 1211.63 1027.14 1207.77 1023.02 1206.59C1019.6 1205.6 1014.63 1207.8 1014.05 1211.69H1014.04Z" fill="#5995EC"/>
<path d="M1238.53 1213.42C1235.82 1257.2 1234.69 1301.42 1228.78 1344.91C1223.49 1383.9 1214.15 1422.57 1199.13 1458.99C1190.48 1479.96 1179.72 1500.05 1167.2 1518.95C1162 1526.79 1174.63 1534.11 1179.8 1526.31C1225.72 1457 1243.12 1374.95 1248.19 1293.07C1249.83 1266.52 1251.47 1239.97 1253.11 1213.42C1253.7 1204.05 1239.1 1204.09 1238.53 1213.42Z" fill="#5995EC"/>
<path d="M682.976 830.874C673.194 835.53 666.912 846.698 668.047 857.48C668.193 858.876 669.141 860.084 670.652 860.084C671.944 860.084 673.402 858.886 673.256 857.48C672.287 848.344 677.288 839.333 685.601 835.374C686.872 834.77 687.205 832.947 686.538 831.811C685.778 830.509 684.247 830.269 682.976 830.874Z" fill="#9D6434"/>
<path d="M732.177 806.018C739.522 803.122 747.512 802.841 755.013 805.299C758.2 806.341 759.575 801.32 756.398 800.278C748.116 797.559 738.907 797.788 730.792 800.997C729.49 801.518 728.573 802.737 728.969 804.205C729.313 805.456 730.854 806.539 732.177 806.028V806.018Z" fill="#9D6434"/>
<path d="M695.623 862.877C695.477 862.461 695.341 862.033 695.248 861.596C695.195 861.377 695.164 861.158 695.123 860.94C695.248 861.544 695.123 860.846 695.112 860.752C695.081 860.304 695.07 859.856 695.091 859.419C695.091 859.2 695.123 858.971 695.143 858.752C695.195 858.189 695.039 859.169 695.175 858.564C695.279 858.127 695.362 857.689 695.487 857.262C695.55 857.054 695.633 856.845 695.706 856.627C695.862 856.158 695.602 856.793 695.748 856.533C695.956 856.137 696.143 855.741 696.373 855.356C696.487 855.168 696.633 854.991 696.737 854.804C696.841 854.658 696.821 854.679 696.664 854.887C696.737 854.804 696.8 854.71 696.873 854.627C697.133 854.324 697.404 854.033 697.706 853.762C697.862 853.616 698.029 853.47 698.196 853.335C698.644 852.949 697.904 853.512 698.362 853.21C698.727 852.97 699.092 852.731 699.477 852.522C699.675 852.418 699.862 852.324 700.06 852.231C700.696 851.928 699.571 852.387 700.248 852.158C700.665 852.012 701.071 851.876 701.498 851.772C701.706 851.72 701.925 851.689 702.144 851.637C702.696 851.512 701.706 851.658 702.321 851.606C702.717 851.574 703.123 851.543 703.519 851.553C703.738 851.553 703.957 851.553 704.175 851.574C704.873 851.626 703.925 851.512 704.457 851.595C705.8 851.803 707.321 851.251 707.665 849.772C707.946 848.522 707.29 846.793 705.842 846.563C701.227 845.845 696.279 847.293 693.185 850.939C690.091 854.585 688.987 859.742 690.591 864.273C691.049 865.555 692.393 866.544 693.8 866.096C695.06 865.69 696.102 864.263 695.623 862.888V862.877Z" fill="#9D6434"/>
<path d="M737.167 831.103C737.272 830.728 737.386 830.363 737.532 830.009C737.626 829.759 737.417 830.207 737.626 829.811C737.709 829.655 737.782 829.509 737.855 829.353C738.063 828.978 738.293 828.624 738.532 828.259C738.605 828.145 738.751 827.947 738.584 828.165C738.72 827.999 738.855 827.832 739.001 827.676C739.261 827.384 739.532 827.113 739.814 826.853C739.97 826.707 740.136 826.571 740.293 826.426C740.626 826.155 740.022 826.613 740.376 826.363C740.689 826.144 741.011 825.926 741.345 825.738C741.532 825.634 741.72 825.53 741.907 825.436C741.97 825.405 742.491 825.176 742.105 825.332C743.772 824.644 744.803 824.561 746.554 824.675C747.408 824.738 746.335 824.623 746.824 824.707C747.054 824.748 747.283 824.79 747.502 824.842C747.908 824.936 748.304 825.051 748.7 825.186C748.752 825.207 749.179 825.363 749.033 825.301C748.845 825.228 749.418 825.478 749.481 825.509C749.898 825.717 750.283 825.957 750.669 826.207C751.846 826.978 753.544 826.436 754.231 825.269C754.971 823.998 754.471 822.477 753.294 821.706C749.585 819.269 744.606 818.706 740.48 820.394C736.355 822.082 733.334 825.478 732.136 829.718C731.771 831.03 732.584 832.614 733.959 832.926C735.334 833.239 736.772 832.509 737.167 831.103Z" fill="#9D6434"/>
<path d="M727.917 886.754C739.386 879.347 750.856 871.929 762.336 864.523L758.513 862.97C761.065 871.429 764.534 882.826 757.815 890.368C754.888 893.66 750.669 894.744 746.397 894.754C742.126 894.765 737.574 894.025 733.428 892.733C729.74 891.587 725.604 889.587 724.198 885.712L722.375 888.92C726.948 887.201 731.344 885.087 735.501 882.514C738.345 880.753 735.73 876.242 732.875 878.013C729.104 880.347 725.146 882.337 721 883.899C719.76 884.368 718.666 885.681 719.176 887.108C722.729 896.911 735.094 899.369 744.303 899.911C749.773 900.234 755.356 899.265 759.721 895.754C763.794 892.483 765.972 887.347 766.649 882.274C767.586 875.232 765.576 868.263 763.555 861.585C763.086 860.043 761.18 859.095 759.732 860.033C748.262 867.44 736.792 874.857 725.312 882.264C722.51 884.076 725.114 888.587 727.938 886.764L727.917 886.754Z" fill="#9D6434"/>
<path d="M1033.45 693.28C1039.51 695.717 1045.83 697.447 1052.28 698.447C1053.66 698.666 1055.08 698.093 1055.48 696.624C1055.83 695.395 1055.07 693.634 1053.66 693.415C1047.2 692.415 1040.89 690.686 1034.84 688.248C1033.53 687.727 1031.97 688.821 1031.63 690.071C1031.22 691.561 1032.14 692.749 1033.45 693.28Z" fill="#9D6434"/>
<g opacity="0.6">
<path d="M467.667 949.479C471.074 950.77 477.356 934.165 473.949 932.873C473.949 932.873 487.586 935.446 487.586 943.759C487.586 952.072 483.429 953.114 480.314 953.114C477.199 953.114 467.667 949.479 467.667 949.479Z" fill="#CC8F3F"/>
</g>
<path d="M473.084 935.56C473.157 935.591 472.366 935.227 472.647 935.383C472.741 935.435 472.887 935.56 472.491 935.258C472.095 934.956 472.324 935.143 472.418 935.247C472.324 935.143 471.98 934.622 472.189 934.997C472.189 934.997 471.98 934.289 472.074 934.747C472.095 934.841 472.126 934.956 472.147 935.049C472.282 935.518 472.126 934.695 472.116 934.789C472.116 935.06 472.147 935.331 472.147 935.612C472.147 935.904 472.116 936.185 472.095 936.477C472.053 937.029 472.126 936.3 472.116 936.383C472.084 936.57 472.053 936.758 472.022 936.935C471.897 937.654 471.72 938.373 471.522 939.081C471.313 939.841 471.063 940.592 470.793 941.331C470.657 941.696 470.522 942.05 470.376 942.415C470.157 942.967 470.543 942.05 470.355 942.477C470.261 942.675 470.178 942.873 470.084 943.071C469.772 943.748 469.428 944.415 469.053 945.071C468.886 945.363 468.709 945.644 468.532 945.925C468.449 946.061 468.355 946.186 468.272 946.311C468.219 946.384 468.167 946.446 468.115 946.519C467.928 946.811 468.251 946.321 468.292 946.29C468.063 946.457 467.886 946.78 467.688 946.977C467.594 947.071 467.49 947.165 467.386 947.259C467.011 947.634 467.782 947.03 467.542 947.134C467.459 947.175 467.282 947.259 467.219 947.321C467.188 947.342 467.949 947.082 467.49 947.186C467.074 947.28 468.251 947.123 467.844 947.134C467.844 947.134 468.636 947.311 468.178 947.155C466.886 946.707 465.271 947.665 464.969 948.978C464.636 950.426 465.407 951.707 466.792 952.186C470.345 953.405 473.001 948.905 474.262 946.342C475.876 943.06 477.335 939.216 477.356 935.508C477.366 933.31 476.574 931.435 474.46 930.559C473.199 930.039 471.543 931.122 471.251 932.383C470.907 933.904 471.72 935.029 473.074 935.591L473.084 935.56Z" fill="#9D6434"/>
<path d="M1097.22 1067.95C1097.04 1067.83 1096.87 1067.69 1096.7 1067.57C1096.59 1067.5 1096.5 1067.41 1096.4 1067.34C1096.13 1067.14 1096.96 1067.78 1096.49 1067.4C1096.04 1067.05 1095.6 1066.7 1095.15 1066.35C1094.06 1065.48 1092.98 1064.58 1091.9 1063.67C1089.11 1061.33 1086.35 1058.94 1083.61 1056.54C1076.21 1050.06 1068.9 1043.48 1061.63 1036.87C1053.4 1029.4 1045.22 1021.89 1037.08 1014.35C1029.69 1007.5 1022.33 1000.65 1015 993.73C1010.14 989.136 1005.25 984.542 1000.51 979.823C1000.18 979.489 999.844 979.156 999.521 978.822C997.167 976.426 993.479 980.114 995.833 982.51C1000.13 986.865 1004.58 991.042 1009.02 995.24C1016.16 1002 1023.34 1008.7 1030.54 1015.39C1038.72 1022.97 1046.94 1030.52 1055.19 1038.04C1062.66 1044.84 1070.16 1051.61 1077.75 1058.29C1082.76 1062.7 1087.76 1067.16 1093.04 1071.26C1093.56 1071.65 1094.07 1072.06 1094.6 1072.44C1095.74 1073.28 1097.51 1072.63 1098.16 1071.51C1098.94 1070.18 1098.36 1068.79 1097.23 1067.94L1097.22 1067.95Z" fill="#9D6434"/>
<path d="M1518.75 1157.2C1529.11 1164.89 1506.8 1181.9 1493.93 1180.95C1483.77 1180.21 1475.42 1173.05 1467.18 1167.04C1451.64 1155.7 1433.84 1147.47 1415.14 1142.97C1409.14 1141.52 1402.83 1140.37 1397.83 1136.75C1391.15 1131.92 1387.99 1123.46 1387.12 1115.25C1386.78 1111.99 1386.77 1108.54 1388.3 1105.64C1392.33 1098 1403.4 1098.87 1411.81 1100.84C1411.81 1100.84 1451.07 1107 1518.76 1157.19L1518.75 1157.2Z" fill="#F1BA66"/>
</g>
<path d="M136.336 1741.34H290.267" stroke="#335CDF" stroke-width="9.54608" stroke-linecap="round" stroke-linejoin="round"/>
<path d="M1808.74 1740.81H1888.4" stroke="#335CDF" stroke-width="9.54608" stroke-linecap="round" stroke-linejoin="round"/>
<defs>
<clipPath id="clip0_305_962">
<rect width="1817.83" height="1297.58" fill="white" transform="translate(91.5756 443)"/>
</clipPath>
</defs>
</svg>
