<svg width="2000" height="2000" viewBox="0 0 2000 2000" fill="none" xmlns="http://www.w3.org/2000/svg">
<path d="M842.52 1511.86H362.897C361.294 1511.86 359.994 1513.16 359.994 1514.76V1746.64C359.994 1748.24 361.294 1749.54 362.897 1749.54H842.52C844.123 1749.54 845.423 1748.24 845.423 1746.64V1514.76C845.423 1513.16 844.123 1511.86 842.52 1511.86Z" fill="#FFF3E5"/>
<mask id="mask0_142_1496" style="mask-type:alpha" maskUnits="userSpaceOnUse" x="359" y="1511" width="487" height="239">
<path d="M842.52 1511.86H362.897C361.294 1511.86 359.994 1513.16 359.994 1514.76V1746.64C359.994 1748.24 361.294 1749.54 362.897 1749.54H842.52C844.123 1749.54 845.423 1748.24 845.423 1746.64V1514.76C845.423 1513.16 844.123 1511.86 842.52 1511.86Z" fill="#FFF3E5"/>
</mask>
<g mask="url(#mask0_142_1496)">
<path opacity="0.5" d="M527.221 1461.45L293.423 1744.35L362.846 1746.79L587.333 1465.11L527.221 1461.45Z" fill="#FFE7CF"/>
<path opacity="0.5" d="M481.798 1464.18L248 1747.09L283.064 1749.53L507.55 1467.86L481.798 1464.18Z" fill="#FFE7CF"/>
<path opacity="0.5" d="M913.988 1561.64L680.189 1844.56L708.381 1847L932.868 1565.32L913.988 1561.64Z" fill="#FFE7CF"/>
<path opacity="0.6" d="M868.701 1665.48L771.516 1783.81L784.641 1785.03L876.054 1674.84L868.701 1665.48Z" fill="#FFE7CF"/>
</g>
<path d="M401.26 1511.86V1440.89C401.209 1437.7 402.426 1434.63 404.642 1432.34C406.858 1430.05 409.893 1428.73 413.079 1428.68H796.856C800.043 1428.73 803.077 1430.05 805.294 1432.34C807.51 1434.63 808.726 1437.7 808.676 1440.89V1511.86" stroke="#FFD4B0" stroke-width="10.3078" stroke-miterlimit="10"/>
<path d="M759.49 1415.88H448.057V1442.07H759.49V1415.88Z" fill="#FFE7CF"/>
<path d="M363.43 1511.86H841.97C842.881 1511.86 843.755 1512.22 844.399 1512.87C845.044 1513.51 845.406 1514.38 845.406 1515.3V1547.51H359.994V1515.3C359.994 1514.38 360.356 1513.51 361 1512.87C361.645 1512.22 362.519 1511.86 363.43 1511.86Z" fill="#FFD4B0"/>
<path d="M754.337 1711.49C790.097 1711.49 819.087 1682.5 819.087 1646.74C819.087 1610.98 790.097 1581.99 754.337 1581.99C718.576 1581.99 689.586 1610.98 689.586 1646.74C689.586 1682.5 718.576 1711.49 754.337 1711.49Z" fill="#FFE7CF"/>
<path d="M754.336 1664.04C763.891 1664.04 771.636 1656.29 771.636 1646.74C771.636 1637.18 763.891 1629.44 754.336 1629.44C744.782 1629.44 737.036 1637.18 737.036 1646.74C737.036 1656.29 744.782 1664.04 754.336 1664.04Z" fill="#FFD4B0"/>
<path d="M457.661 1711.49C493.421 1711.49 522.411 1682.5 522.411 1646.74C522.411 1610.98 493.421 1581.99 457.661 1581.99C421.9 1581.99 392.911 1610.98 392.911 1646.74C392.911 1682.5 421.9 1711.49 457.661 1711.49Z" fill="#FFE7CF"/>
<path d="M457.66 1664.04C467.215 1664.04 474.96 1656.29 474.96 1646.74C474.96 1637.18 467.215 1629.44 457.66 1629.44C448.106 1629.44 440.36 1637.18 440.36 1646.74C440.36 1656.29 448.106 1664.04 457.66 1664.04Z" fill="#FFD4B0"/>
<path d="M667.459 1547.51H541.91V1746.79H667.459V1547.51Z" fill="#FFD4B0"/>
<path d="M565.223 1595.5C571.789 1595.5 577.111 1590.18 577.111 1583.61C577.111 1577.05 571.789 1571.73 565.223 1571.73C558.657 1571.73 553.334 1577.05 553.334 1583.61C553.334 1590.18 558.657 1595.5 565.223 1595.5Z" fill="#FFE7CF"/>
<path d="M604.684 1595.5C611.25 1595.5 616.573 1590.18 616.573 1583.61C616.573 1577.05 611.25 1571.73 604.684 1571.73C598.118 1571.73 592.796 1577.05 592.796 1583.61C592.796 1590.18 598.118 1595.5 604.684 1595.5Z" fill="#FFE7CF"/>
<path d="M644.146 1595.5C650.712 1595.5 656.034 1590.18 656.034 1583.61C656.034 1577.05 650.712 1571.73 644.146 1571.73C637.58 1571.73 632.258 1577.05 632.258 1583.61C632.258 1590.18 637.58 1595.5 644.146 1595.5Z" fill="#FFE7CF"/>
<path d="M667.459 1613.32H541.91V1679.6H667.459V1613.32Z" fill="#FFE7CF"/>
<path d="M641.002 1638.92H568.366C566.63 1638.92 565.222 1640.33 565.222 1642.06V1654.52C565.222 1656.25 566.63 1657.66 568.366 1657.66H641.002C642.738 1657.66 644.146 1656.25 644.146 1654.52V1642.06C644.146 1640.33 642.738 1638.92 641.002 1638.92Z" fill="#FFD4B0"/>
<path d="M584.189 1653.56C587.092 1653.56 589.446 1651.2 589.446 1648.3C589.446 1645.4 587.092 1643.04 584.189 1643.04C581.285 1643.04 578.932 1645.4 578.932 1648.3C578.932 1651.2 581.285 1653.56 584.189 1653.56Z" fill="#FCC69D"/>
<path d="M625.334 1653.56C628.237 1653.56 630.591 1651.2 630.591 1648.3C630.591 1645.4 628.237 1643.04 625.334 1643.04C622.431 1643.04 620.077 1645.4 620.077 1648.3C620.077 1651.2 622.431 1653.56 625.334 1653.56Z" fill="#FCC69D"/>
<path d="M562.439 1688.55H550.585V1706.33H562.439V1688.55Z" fill="#FFE7CF"/>
<path d="M586.56 1688.55H574.706V1706.33H586.56V1688.55Z" fill="#FFE7CF"/>
<path d="M610.68 1688.55H598.826V1706.33H610.68V1688.55Z" fill="#FFE7CF"/>
<path d="M634.8 1688.55H622.947V1706.33H634.8V1688.55Z" fill="#FFE7CF"/>
<path d="M658.92 1688.55H647.066V1706.33H658.92V1688.55Z" fill="#FFE7CF"/>
<path d="M658.92 1717.55H550.585V1736.74H658.92V1717.55Z" fill="#FFE7CF"/>
<path d="M1511.7 738.197C1433.38 879.62 1402.77 932.069 1362.75 951.792C1354.35 955.925 1345.15 958.197 1335.78 958.452C1326.41 958.707 1317.1 956.939 1308.48 953.269C1279.78 941.054 1235.83 905.011 1208.55 882.18C1206.93 880.811 1204.93 879.964 1202.82 879.752C1200.71 879.54 1198.59 879.972 1196.73 880.991C1194.87 882.01 1193.36 883.569 1192.41 885.461C1191.45 887.354 1191.09 889.492 1191.37 891.594L1210.9 1041.64C1210.9 1041.64 1251.84 1288.56 1246.1 1359.33C1240.37 1430.09 1193.64 1649.1 1196.51 1656.74C1199.38 1664.39 1361.43 1700.62 1344.46 1740.46C1335.87 1760.58 1067.14 1741.66 1058.54 1735.92C1051.05 1730.92 1088.53 1502.73 1100.21 1426.88C1102.46 1412.37 1101.11 1397.54 1096.3 1383.67C1078.21 1331.55 1060.48 1209.37 1042.46 1166.59C1034.26 1147.11 1012.03 1152.54 1001.23 1166.59C993.924 1176.18 906.583 1263.12 877.257 1292.26C874.455 1295.03 872.72 1298.71 872.359 1302.64C871.998 1306.56 873.032 1310.49 875.281 1313.73C904.624 1356.03 996.329 1465.1 1001.5 1495.55C1005.8 1520.89 903.422 1705.14 866.125 1705.14C843.173 1705.14 879.868 1543.91 879.868 1543.91C879.868 1543.91 721.214 1373.83 717.864 1302.41C715.236 1245.94 812.352 1159.12 859.098 1106.1C871.674 1091.82 894.059 1056.11 891.74 1028.31C885.727 959.265 888.544 890.615 882.737 855.74C881.693 850.32 878.817 845.424 874.591 841.874C870.365 838.324 865.046 836.335 859.528 836.241C801.804 837.117 735.439 839.677 682.577 816.107C612.295 784.651 562.663 721.481 522.6 655.717C500.266 619.176 470.253 550.114 449.226 510.412L539.47 466.947C636.501 661.782 701.767 679.219 732.467 697.155C770.984 710.727 797.131 708.167 813.211 705.504C876.072 695.093 909.246 695.093 968.206 690.833C974.563 677.742 981.177 662.039 981.744 657.487L982.122 652.745C964.547 648.571 949.48 642.437 938.159 629.157C928.195 617.458 920.55 605.192 914.228 582.772C912.662 577.581 911.513 572.273 910.792 566.898C908.198 542.538 909.521 517.198 926.254 505.052C931.15 501.513 938.898 501.616 944.722 502.784V502.887C942.41 507.071 940.814 511.612 939.997 516.321C939.482 519.603 941.337 524.276 944.584 523.056C945.553 522.59 946.352 521.833 946.869 520.891C949.099 517.917 950.305 514.301 950.305 510.583C950.227 508.904 949.658 507.285 948.669 505.926C947.679 504.567 946.313 503.528 944.739 502.938C947.784 497.198 951.767 492.007 956.524 487.58C966.042 478.887 974.425 470.847 986.434 463.941C990.935 461.347 995.35 458.787 1000.06 456.536C1011.81 451.125 1024.54 449.664 1035.17 453.839C1038.61 455.033 1041.59 457.281 1043.68 460.263C1045.77 463.245 1046.87 466.81 1046.82 470.452C1040.54 474.459 1034.66 479.061 1029.26 484.195C1027.15 485.855 1025.59 488.121 1024.8 490.689C1024.28 493.266 1026.02 496.324 1028.75 496.273C1030.26 496.102 1031.68 495.445 1032.78 494.4C1039.79 488.886 1045.5 481.292 1046.67 472.788C1046.77 471.985 1046.82 471.176 1046.82 470.366C1053.97 465.724 1061.9 462.396 1070.22 460.539C1086.02 457.206 1096.4 457.704 1106 469.902C1109.51 474.351 1111.26 479.933 1110.92 485.587C1110.83 489.959 1109.44 494.205 1106.93 497.785C1096.54 513.556 1090.46 517.077 1073.52 527.849C1079.99 542.95 1082.24 560.748 1083.29 577.189C1084.6 597.805 1085.46 614.847 1065.15 640.977C1067.61 648.88 1072.19 663.311 1075.89 672.536C1077.34 677.814 1079.18 682.981 1081.37 687.998H1086.52C1140.38 680.336 1191.49 705.916 1231.33 742.973C1249.47 759.843 1282.59 780.94 1295.55 791.076C1308.5 801.212 1327.36 806.538 1341.57 798.154C1348.67 793.962 1353.6 786.987 1358.46 780.304C1395.09 729.607 1406.17 686.538 1454.18 630.841C1467.04 615.964 1488.54 580.814 1508.18 579.302C1508.18 579.302 1528.3 582.738 1517.84 608.009C1517.84 608.009 1592.82 588.717 1600.47 619.88C1608.11 651.044 1547.37 640.496 1547.37 640.496C1547.37 640.496 1596.07 619.021 1613.58 641.321C1613.58 641.321 1625.84 658.414 1609.73 660.631C1609.73 660.631 1619.13 683.205 1595.9 683.806C1595.9 683.806 1598.25 710.452 1578.72 710.022C1559.19 709.593 1544.65 706.174 1522.03 726.721L1511.7 738.197Z" fill="#F2A91F"/>
<mask id="mask1_142_1496" style="mask-type:alpha" maskUnits="userSpaceOnUse" x="449" y="451" width="1170" height="1299">
<path d="M1511.7 738.197C1433.38 879.62 1402.77 932.069 1362.75 951.792C1354.35 955.925 1345.15 958.197 1335.78 958.452C1326.41 958.707 1317.1 956.939 1308.48 953.269C1279.78 941.054 1235.83 905.011 1208.55 882.18C1206.93 880.811 1204.93 879.964 1202.82 879.752C1200.71 879.54 1198.59 879.972 1196.73 880.991C1194.87 882.01 1193.36 883.569 1192.41 885.461C1191.45 887.354 1191.09 889.492 1191.37 891.594L1210.9 1041.64C1210.9 1041.64 1251.84 1288.56 1246.1 1359.33C1240.37 1430.09 1193.64 1649.1 1196.51 1656.74C1199.38 1664.39 1361.43 1700.62 1344.46 1740.46C1335.87 1760.58 1067.14 1741.66 1058.54 1735.92C1051.05 1730.92 1088.53 1502.73 1100.21 1426.88C1102.46 1412.37 1101.11 1397.54 1096.3 1383.67C1078.21 1331.55 1060.48 1209.37 1042.46 1166.59C1034.26 1147.11 1012.03 1152.54 1001.23 1166.59C993.924 1176.18 906.583 1263.12 877.257 1292.26C874.455 1295.03 872.72 1298.71 872.359 1302.64C871.998 1306.56 873.032 1310.49 875.281 1313.73C904.624 1356.03 996.329 1465.1 1001.5 1495.55C1005.8 1520.89 903.422 1705.14 866.125 1705.14C843.173 1705.14 879.868 1543.91 879.868 1543.91C879.868 1543.91 721.214 1373.83 717.864 1302.41C715.236 1245.94 812.352 1159.12 859.098 1106.1C871.674 1091.82 894.059 1056.11 891.74 1028.31C885.727 959.265 888.544 890.615 882.737 855.74C881.693 850.32 878.817 845.424 874.591 841.874C870.365 838.324 865.046 836.335 859.528 836.241C801.804 837.117 735.439 839.677 682.577 816.107C612.295 784.651 562.663 721.481 522.6 655.717C500.266 619.176 470.253 550.114 449.226 510.412L539.47 466.947C636.501 661.782 701.767 679.219 732.467 697.155C770.984 710.727 797.131 708.167 813.211 705.504C876.072 695.093 909.246 695.093 968.206 690.833C974.563 677.742 981.177 662.039 981.744 657.487L982.122 652.745C964.547 648.571 949.48 642.437 938.159 629.157C928.195 617.458 920.55 605.192 914.228 582.772C912.662 577.581 911.513 572.273 910.792 566.898C908.198 542.538 909.521 517.198 926.254 505.052C931.15 501.513 938.898 501.616 944.722 502.784V502.887C942.41 507.071 940.814 511.612 939.997 516.321C939.482 519.603 941.337 524.276 944.584 523.056C945.553 522.59 946.352 521.833 946.869 520.891C949.099 517.917 950.305 514.301 950.305 510.583C950.227 508.904 949.658 507.285 948.669 505.926C947.679 504.567 946.313 503.528 944.739 502.938C947.784 497.198 951.767 492.007 956.524 487.58C966.042 478.887 974.425 470.847 986.434 463.941C990.935 461.347 995.35 458.787 1000.06 456.536C1011.81 451.125 1024.54 449.664 1035.17 453.839C1038.61 455.033 1041.59 457.281 1043.68 460.263C1045.77 463.245 1046.87 466.81 1046.82 470.452C1040.54 474.459 1034.66 479.061 1029.26 484.195C1027.15 485.855 1025.59 488.121 1024.8 490.689C1024.28 493.266 1026.02 496.324 1028.75 496.273C1030.26 496.102 1031.68 495.445 1032.78 494.4C1039.79 488.886 1045.5 481.292 1046.67 472.788C1046.77 471.985 1046.82 471.176 1046.82 470.366C1053.97 465.724 1061.9 462.396 1070.22 460.539C1086.02 457.206 1096.4 457.704 1106 469.902C1109.51 474.351 1111.26 479.933 1110.92 485.587C1110.83 489.959 1109.44 494.205 1106.93 497.785C1096.54 513.556 1090.46 517.077 1073.52 527.849C1079.99 542.95 1082.24 560.748 1083.29 577.189C1084.6 597.805 1085.46 614.847 1065.15 640.977C1067.61 648.88 1072.19 663.311 1075.89 672.536C1077.34 677.814 1079.18 682.981 1081.37 687.998H1086.52C1140.38 680.336 1191.49 705.916 1231.33 742.973C1249.47 759.843 1282.59 780.94 1295.55 791.076C1308.5 801.212 1327.36 806.538 1341.57 798.154C1348.67 793.962 1353.6 786.987 1358.46 780.304C1395.09 729.607 1406.17 686.538 1454.18 630.841C1467.04 615.964 1488.54 580.814 1508.18 579.302C1508.18 579.302 1528.3 582.738 1517.84 608.009C1517.84 608.009 1592.82 588.717 1600.47 619.88C1608.11 651.044 1547.37 640.496 1547.37 640.496C1547.37 640.496 1596.07 619.021 1613.58 641.321C1613.58 641.321 1625.84 658.414 1609.73 660.631C1609.73 660.631 1619.13 683.205 1595.9 683.806C1595.9 683.806 1598.25 710.452 1578.72 710.022C1559.19 709.593 1544.65 706.174 1522.03 726.721L1511.7 738.197Z" fill="#F2A91F"/>
</mask>
<g mask="url(#mask1_142_1496)">
<path opacity="0.3" d="M940.994 614.947C940.994 614.947 963.19 633.638 973.893 607.474C984.596 581.309 1004.16 568.63 1046.43 569.455C1088.69 570.28 1068.88 526.867 1068.88 526.867C1068.88 526.867 1113.07 506.852 1107 471.892C1100.94 436.931 1051.94 426.297 1051.94 426.297L933.194 448.218L895.605 474.331L919.863 511.422C919.863 511.422 910.105 550.025 925.515 588.937C925.515 588.937 927.233 600.43 940.976 614.947" fill="#D78D28"/>
</g>
<path d="M980.348 540.104L980.348 540.104C981.299 539.913 981.956 539.39 982.307 538.697C982.65 538.019 982.678 537.226 982.479 536.508C982.084 535.079 980.718 533.768 978.776 534.159L978.773 534.159C972.631 535.436 966.815 537.956 961.684 541.564C956.552 545.172 952.213 549.793 948.934 555.141L948.934 555.141L948.933 555.143C948.43 555.973 948.363 556.819 948.613 557.561C948.858 558.29 949.394 558.882 950.037 559.258C950.681 559.635 951.462 559.816 952.226 559.685C953.002 559.552 953.728 559.1 954.236 558.275C957.109 553.617 960.909 549.6 965.402 546.474C969.894 543.348 974.981 541.18 980.348 540.104Z" fill="#9D6434" stroke="#9D6434"/>
<path d="M1027.64 524.157L1027.63 524.141C1031.28 523.386 1035.06 523.43 1038.69 524.272C1042.35 525.121 1045.78 526.758 1048.75 529.071C1049.33 529.61 1050.1 529.91 1050.89 529.91C1051.7 529.91 1052.47 529.604 1053.06 529.055L1053.06 529.048L1053.07 529.041C1053.64 528.462 1053.96 527.682 1053.96 526.869C1053.96 526.056 1053.64 525.276 1053.07 524.697L1053.05 524.676L1053.03 524.658C1049.27 521.64 1044.9 519.496 1040.21 518.383C1035.53 517.269 1030.65 517.213 1025.95 518.219L1025.92 518.225L1025.9 518.233C1025.14 518.478 1024.5 519.006 1024.12 519.707C1023.74 520.408 1023.64 521.229 1023.85 521.999L1023.85 521.999L1023.85 522.01C1024.08 522.789 1024.6 523.448 1025.31 523.849C1026.02 524.25 1026.85 524.36 1027.64 524.157Z" fill="#9D6434" stroke="#9D6434"/>
<path d="M972.462 573.252L972.637 572.705C973.3 570.931 974.291 569.297 975.56 567.887C976.958 566.335 978.663 565.09 980.567 564.23C983.865 562.882 988.014 563.545 989.783 566.534L989.787 566.54L989.791 566.546C990.217 567.22 990.887 567.701 991.661 567.89C992.435 568.079 993.252 567.961 993.941 567.559C994.629 567.158 995.135 566.505 995.352 565.739C995.569 564.972 995.48 564.151 995.103 563.449L995.093 563.429L995.08 563.41C993.374 560.821 990.826 558.901 987.868 557.974C984.909 557.048 981.721 557.171 978.843 558.324L978.842 558.325C975.945 559.498 973.341 561.292 971.213 563.58C969.085 565.869 967.486 568.597 966.528 571.572L966.527 571.573C966.231 572.502 966.366 573.34 966.792 573.997C967.21 574.641 967.881 575.074 968.602 575.272C970.039 575.665 971.853 575.149 972.462 573.252Z" fill="#9D6434" stroke="#9D6434"/>
<path d="M1030.43 557.889L1030.57 557.979L1030.85 557.608C1031.98 556.091 1033.48 554.892 1035.2 554.129C1036.93 553.367 1038.82 553.066 1040.7 553.254C1042.51 553.504 1044.24 554.204 1045.72 555.29C1047.2 556.378 1048.39 557.819 1049.17 559.481L1049.18 559.504L1049.19 559.526C1049.61 560.22 1050.28 560.725 1051.07 560.931C1051.85 561.137 1052.68 561.03 1053.39 560.631L1053.4 560.627L1053.4 560.622C1054.09 560.198 1054.59 559.523 1054.8 558.74L1054.32 558.613L1054.8 558.74C1055.01 557.959 1054.9 557.13 1054.51 556.423C1053.2 553.837 1051.26 551.626 1048.86 549.996C1046.47 548.365 1043.69 547.37 1040.8 547.105L1040.8 547.105L1040.79 547.105C1037.83 546.897 1034.87 547.461 1032.2 548.742C1029.52 550.024 1027.23 551.978 1025.54 554.413L1025.52 554.437L1025.51 554.462C1025.13 555.158 1025.04 555.969 1025.25 556.731C1025.45 557.493 1025.94 558.147 1026.61 558.56L1026.63 558.569L1026.64 558.577C1027.34 558.941 1028.14 559.032 1028.9 558.831C1029.49 558.673 1030.03 558.344 1030.43 557.889Z" fill="#9D6434" stroke="#9D6434"/>
<path d="M919.846 510.426C914.472 536.997 916.687 564.545 926.237 589.916C937.008 617.988 959.204 632.178 988.53 638.792C995.652 640.494 1003.01 641.016 1010.3 640.338C1039.5 637.177 972.639 680.419 972.639 680.419C972.639 680.419 983.668 657.003 981.572 653.343C969.566 651.424 958.186 646.686 948.365 639.519C938.543 632.352 930.559 622.96 925.068 612.112C906.136 574.609 905.38 527.245 919.846 510.426Z" fill="#D78D28" fill-opacity="0.8"/>
<path opacity="0.72" d="M503.324 591.635C503.324 591.635 512.996 624.998 528.304 633.571C543.611 642.144 594.394 588.045 587.058 555.094L581.423 545.852C581.423 545.852 582.213 558.942 571.751 567.24C561.288 575.538 536.051 595.776 503.324 591.635Z" fill="#D78D28"/>
<path d="M643.493 794.082C643.493 794.082 743.582 835.313 862.276 824.25C870.194 823.407 878.179 825.027 885.142 828.888C893.595 833.716 902.322 842.993 903.061 860.722C904.676 896.181 891.705 1028.34 891.705 1028.34C891.705 1028.34 888.492 977.544 888.063 963.061C887.633 948.579 886.001 870.291 882.703 855.757C879.404 841.223 868.341 836.086 859.51 836.241C850.68 836.396 742.07 846.205 677.045 813.512C665.328 808.003 654.103 801.503 643.493 794.082Z" fill="#D78D28"/>
<path d="M1025.38 1153.95C1025.38 1153.95 1042.56 1151.87 1053.38 1165.77C1064.21 1179.66 1129.59 1370.87 1129.59 1404.41C1129.59 1440.69 1070.08 1738.28 1070.08 1738.28C1070.08 1738.28 1061.6 1737.56 1058.59 1735.99C1055.58 1734.43 1062.2 1680.42 1062.2 1680.42L1074.94 1594.21L1098.33 1439.13C1098.33 1439.13 1105.82 1409.15 1096.3 1383.67C1086.78 1358.2 1065.68 1254.02 1065.68 1254.02C1065.68 1254.02 1052.22 1189.58 1042.53 1166.59C1042.51 1166.59 1037.66 1154.03 1025.38 1153.95Z" fill="#D78D28"/>
<path d="M750.282 1379.58C750.282 1379.58 890.812 1519.79 905.913 1530.76C916.787 1538.63 869.148 1603.3 858.703 1681.94C858.703 1681.94 858.995 1629.87 879.92 1544.08C879.92 1543.92 794.966 1453.97 750.282 1379.58Z" fill="#D78D28"/>
<path d="M1208.55 882.145C1208.55 882.145 1265.84 917.861 1318.14 933.684C1347.76 942.634 1375.79 945.915 1390.86 930.986C1390.86 930.986 1356.86 972.458 1308.48 953.234C1260.11 934.01 1208.55 882.145 1208.55 882.145Z" fill="#D78D28"/>
<g opacity="0.4">
<path d="M1451.61 656.784C1455.59 665.137 1462.02 672.077 1470.04 676.678C1470.68 677.006 1471.21 677.497 1471.6 678.101C1471.98 678.705 1472.2 679.399 1472.22 680.114C1472.22 682.571 1469.75 683.309 1467.71 683.756C1454.42 686.609 1441.9 692.306 1431.03 700.455C1430.22 701.056 1429.22 701.726 1428.26 701.4C1427.3 701.073 1426.78 699.682 1426.77 698.428C1426.77 693.016 1429.46 688.017 1432.14 683.292L1442.19 665.649C1443.19 663.931 1444.27 662.213 1445.44 660.581L1448.33 656.544C1448.52 656.27 1448.77 656.05 1449.07 655.906C1449.37 655.762 1449.7 655.7 1450.04 655.724C1450.37 655.748 1450.69 655.859 1450.96 656.045C1451.24 656.231 1451.46 656.486 1451.61 656.784Z" fill="#D78D28"/>
</g>
<path d="M928.487 510.271C928.642 498.967 927.542 496.029 927.817 484.708C929.043 431.852 932.427 379.099 937.97 326.449C938.159 324.645 938.726 322.394 940.53 322.051C955.734 333.011 968.705 346.772 981.555 360.43C987.276 366.291 992.656 372.474 997.67 378.95C1002 385.036 1006.02 391.343 1009.7 397.847L1024.56 422.947C1031.96 435.488 1039.42 448.081 1044.52 461.721C1001.14 459.248 955.287 481.598 930.119 517.092C929.982 517.282 929.786 517.423 929.561 517.493C929.337 517.563 929.096 517.558 928.874 517.478C928.653 517.398 928.464 517.249 928.335 517.052C928.206 516.855 928.145 516.622 928.161 516.387L928.487 510.271Z" fill="#255DE8"/>
<mask id="mask2_142_1496" style="mask-type:alpha" maskUnits="userSpaceOnUse" x="927" y="322" width="118" height="196">
<path d="M928.487 510.275C928.642 498.971 927.542 496.033 927.817 484.712C929.043 431.856 932.427 379.103 937.97 326.453C938.159 324.649 938.726 322.398 940.53 322.055C955.734 333.015 968.705 346.776 981.555 360.434C987.276 366.295 992.656 372.478 997.67 378.954C1002 385.039 1006.02 391.347 1009.7 397.851L1024.56 422.951C1031.96 435.492 1039.42 448.085 1044.52 461.725C1001.14 459.252 955.287 481.602 930.119 517.095C929.982 517.286 929.786 517.427 929.561 517.497C929.337 517.567 929.096 517.561 928.874 517.482C928.653 517.402 928.464 517.253 928.335 517.056C928.206 516.859 928.145 516.626 928.161 516.391L928.487 510.275Z" fill="#255DE8"/>
</mask>
<g mask="url(#mask2_142_1496)">
<path d="M911.995 539.443C911.995 539.443 942.918 456.156 1041.48 443.907C1140.04 431.658 1005.71 497.628 985.867 504.757C966.025 511.887 911.995 541.144 911.995 541.144" fill="#0242A8"/>
</g>
<path d="M936.544 470.917C943.742 457.345 956.095 447.295 970.13 441.368C987.31 434.135 1006.31 433.139 1024.61 434.599C1025.87 434.59 1027.08 434.087 1027.97 433.197C1028.86 432.307 1029.37 431.101 1029.38 429.84C1029.36 428.581 1028.85 427.379 1027.96 426.488C1027.07 425.597 1025.87 425.087 1024.61 425.064C995.402 422.728 964.083 427.641 941.938 448.36C936.433 453.479 931.807 459.469 928.246 466.09C925.377 471.518 933.606 476.397 936.493 470.917H936.544Z" fill="#65ADEF"/>
<path d="M951.92 358.765C958.053 358.765 958.07 349.23 951.92 349.23C945.77 349.23 945.77 358.765 951.92 358.765Z" fill="#65ADEF"/>
<path d="M949.154 380.394C955.287 380.394 955.287 370.859 949.154 370.859C943.021 370.859 943.004 380.394 949.154 380.394Z" fill="#65ADEF"/>
<path d="M968 374.847C974.133 374.847 974.133 365.312 968 365.312C961.867 365.312 961.85 374.847 968 374.847Z" fill="#65ADEF"/>
<path d="M948.037 406.992C954.17 406.992 954.188 397.457 948.037 397.457C941.887 397.457 941.887 406.992 948.037 406.992Z" fill="#65ADEF"/>
<path d="M965.217 399.789C971.367 399.789 971.367 390.254 965.217 390.254C959.067 390.254 959.067 399.789 965.217 399.789Z" fill="#65ADEF"/>
<path d="M985.73 394.806C991.863 394.806 991.88 385.254 985.73 385.254C979.58 385.254 979.58 394.806 985.73 394.806Z" fill="#65ADEF"/>
<path d="M945.821 433.05C951.954 433.05 951.971 423.516 945.821 423.516C939.67 423.516 939.67 433.05 945.821 433.05Z" fill="#65ADEF"/>
<path d="M964.118 421.968H964.667C965.305 421.99 965.938 421.848 966.506 421.556C967.093 421.361 967.619 421.018 968.035 420.559C968.493 420.144 968.836 419.617 969.031 419.03C969.323 418.463 969.465 417.83 969.443 417.192L969.272 415.921C969.056 415.124 968.628 414.399 968.035 413.825L967.073 413.069C966.341 412.648 965.512 412.423 964.667 412.416H964.118C963.48 412.395 962.847 412.537 962.279 412.828C961.691 413.03 961.16 413.372 960.733 413.825C960.28 414.241 959.943 414.768 959.754 415.354C959.462 415.921 959.32 416.554 959.342 417.192L959.514 418.463C959.73 419.257 960.151 419.979 960.733 420.559L961.713 421.315C962.445 421.737 963.273 421.962 964.118 421.968Z" fill="#65ADEF"/>
<path d="M983.514 417.519C989.647 417.519 989.664 407.984 983.514 407.984C977.363 407.984 977.363 417.519 983.514 417.519Z" fill="#65ADEF"/>
<path d="M1004.03 418.086C1010.16 418.086 1010.18 408.551 1004.03 408.551C997.876 408.551 997.876 418.086 1004.03 418.086Z" fill="#65ADEF"/>
<path d="M926.305 295.05L916.478 273.128C921.985 279.641 928.196 285.524 934.998 290.669C936.619 281.945 940.235 273.713 945.563 266.617C945.46 275.31 946.079 283.934 945.46 292.558C954.668 289.38 961.197 286.065 970.405 282.886L952.177 298.039C961.065 302.162 969.89 306.394 978.651 310.735C969.288 312.383 959.833 313.468 950.339 313.982C952.225 321.472 954.76 328.784 957.915 335.834C951.807 331.912 946.258 327.179 941.423 321.764C936.132 327.972 931.018 334.317 926.081 340.799L932.369 315.407L907.442 323.001C911.579 318.225 916.183 313.874 921.185 310.013C912.443 306.393 903.999 302.09 895.931 297.145C910.19 296.613 913.592 295.84 925.532 295.428" fill="#65ADEF"/>
<path d="M928.247 293.967L918.42 272.046L914.984 274.64C920.619 281.261 926.956 287.251 933.882 292.507C934.165 292.674 934.483 292.775 934.812 292.799C935.14 292.824 935.47 292.773 935.776 292.651C936.081 292.528 936.354 292.336 936.574 292.091C936.794 291.845 936.954 291.553 937.043 291.236C938.668 282.726 942.191 274.693 947.35 267.734L943.348 266.651C943.262 275.241 943.811 283.951 943.244 292.593C943.254 292.924 943.34 293.249 943.496 293.543C943.651 293.836 943.872 294.089 944.141 294.283C944.41 294.478 944.72 294.608 945.047 294.663C945.374 294.718 945.71 294.698 946.028 294.603C954.463 291.665 962.554 287.868 970.99 284.931L968.894 281.34L950.666 296.458C950.421 296.69 950.234 296.976 950.12 297.293C950.006 297.611 949.969 297.95 950.011 298.285C950.052 298.619 950.172 298.94 950.361 299.219C950.549 299.499 950.801 299.73 951.096 299.894C959.983 304.017 968.808 308.243 977.569 312.573L978.085 308.656C968.907 310.247 959.642 311.291 950.34 311.782C950.011 311.788 949.688 311.868 949.394 312.016C949.101 312.164 948.844 312.376 948.644 312.637C948.445 312.898 948.306 313.201 948.24 313.523C948.173 313.845 948.181 314.178 948.261 314.497C950.166 321.993 952.7 329.314 955.837 336.384L958.998 333.961C953.074 330.099 947.679 325.479 942.952 320.218C942.547 319.818 942.001 319.594 941.432 319.594C940.863 319.594 940.317 319.818 939.912 320.218C934.506 326.551 929.277 333.039 924.227 339.682L928.161 341.4L934.448 316.009C934.545 315.643 934.544 315.257 934.446 314.892C934.347 314.526 934.154 314.193 933.886 313.925C933.618 313.657 933.285 313.465 932.92 313.366C932.554 313.267 932.169 313.266 931.803 313.363L906.875 320.974L908.971 324.564C913.126 319.8 917.728 315.445 922.715 311.559C922.959 311.326 923.145 311.039 923.258 310.721C923.37 310.403 923.406 310.063 923.363 309.728C923.319 309.393 923.197 309.074 923.007 308.795C922.817 308.516 922.564 308.286 922.268 308.123C913.583 304.379 905.148 300.081 897.014 295.256L895.932 299.258C905.81 298.881 915.654 297.884 925.532 297.541C928.281 297.437 928.298 293.143 925.532 293.246C915.654 293.624 905.81 294.62 895.932 294.964C895.465 294.97 895.013 295.127 894.644 295.413C894.275 295.699 894.009 296.098 893.887 296.548C893.765 296.999 893.792 297.477 893.966 297.91C894.14 298.343 894.45 298.708 894.849 298.949C902.979 303.787 911.415 308.091 920.103 311.834L919.674 308.398C914.684 312.273 910.081 316.622 905.93 321.386C905.607 321.726 905.403 322.161 905.349 322.627C905.295 323.093 905.394 323.563 905.63 323.968C905.866 324.373 906.228 324.69 906.66 324.872C907.092 325.054 907.571 325.09 908.026 324.976L932.937 317.366L930.308 314.72L924.02 340.129C923.851 340.637 923.877 341.19 924.094 341.68C924.312 342.17 924.704 342.561 925.195 342.776C925.685 342.991 926.239 343.015 926.746 342.843C927.254 342.671 927.679 342.316 927.937 341.847C932.725 335.548 937.73 329.374 942.952 323.327H939.912C944.899 328.838 950.581 333.678 956.816 337.724C958.294 338.669 960.699 337.054 959.977 335.284C956.845 328.213 954.311 320.892 952.401 313.397L950.34 316.129C960.029 315.594 969.679 314.481 979.236 312.796C979.635 312.674 979.99 312.44 980.259 312.121C980.528 311.802 980.699 311.412 980.752 310.999C980.804 310.585 980.736 310.165 980.556 309.789C980.375 309.413 980.09 309.097 979.734 308.879C970.961 304.55 962.136 300.318 953.26 296.183L953.69 299.619L971.935 284.484C972.274 284.147 972.493 283.707 972.556 283.233C972.619 282.759 972.524 282.277 972.284 281.863C972.045 281.449 971.675 281.126 971.233 280.944C970.79 280.763 970.3 280.733 969.839 280.859C961.403 283.797 953.312 287.611 944.894 290.548L947.608 292.61C948.175 284.02 947.608 275.327 947.711 266.669C947.702 266.202 947.542 265.751 947.255 265.382C946.969 265.014 946.571 264.748 946.12 264.624C945.67 264.501 945.192 264.526 944.757 264.696C944.323 264.866 943.955 265.173 943.708 265.569C938.325 272.83 934.644 281.209 932.937 290.085L936.081 288.813C929.461 283.741 923.398 277.982 917.99 271.634C916.272 269.624 913.695 272.183 914.554 274.228L924.381 296.166C925.515 298.674 929.226 296.493 928.092 293.984L928.247 293.967Z" fill="#255DE8"/>
<path d="M944.189 523.092C945.16 522.621 945.959 521.858 946.474 520.91C948.704 517.936 949.91 514.319 949.91 510.602C949.815 508.928 949.239 507.316 948.252 505.96C947.265 504.604 945.908 503.562 944.344 502.957C942.027 507.147 940.425 511.693 939.602 516.409C939.104 519.535 940.959 524.225 944.189 523.092Z" fill="#F2A91F"/>
<path d="M1024.45 490.656C1023.94 493.215 1025.69 496.273 1028.4 496.239C1029.93 496.07 1031.35 495.406 1032.46 494.349C1039.47 488.835 1045.15 481.241 1046.32 472.737C1046.43 471.94 1046.49 471.137 1046.49 470.332C1040.2 474.357 1034.32 478.989 1028.94 484.162C1026.82 485.822 1025.25 488.087 1024.45 490.656Z" fill="#F2A91F"/>
<path d="M1107 471.824C1107 471.824 1108.72 496.237 1092.57 509.516C1074.55 524.308 1068.88 526.868 1068.88 526.868C1077.09 542.978 1081.89 560.613 1082.97 578.665C1082.82 561.255 1079.49 544.019 1073.12 527.813C1073.12 527.813 1089.63 517.969 1094.8 512.351C1099.97 506.733 1119.23 489.966 1107 471.824Z" fill="#D78D28"/>
<path d="M1446.33 646.216L1447.54 651.043C1447.66 651.588 1447.93 652.091 1448.31 652.503C1448.6 652.975 1449.02 653.361 1449.51 653.62C1449.99 653.926 1450.54 654.098 1451.11 654.118C1451.67 654.272 1452.27 654.272 1452.83 654.118C1453.9 653.809 1454.82 653.102 1455.39 652.143L1455.82 651.112C1456.02 650.364 1456.02 649.575 1455.82 648.827L1454.61 643.999C1454.49 643.454 1454.22 642.951 1453.84 642.539C1453.55 642.072 1453.13 641.692 1452.64 641.44C1452.17 641.121 1451.61 640.943 1451.04 640.924C1450.48 640.77 1449.89 640.77 1449.32 640.924C1448.25 641.234 1447.33 641.94 1446.76 642.9L1446.33 643.931C1446.13 644.678 1446.13 645.468 1446.33 646.216Z" fill="#F2A91F"/>
<path d="M405.4 399.396C437.938 461.381 468.364 526.646 500.902 588.63C501.818 590.746 503.219 592.618 504.991 594.093C507.586 595.597 510.606 596.201 513.581 595.811C535.289 594.852 556.061 586.699 572.627 572.636C577.781 568.29 582.626 562.947 583.605 556.315C584.43 550.835 582.437 545.355 580.461 540.167C558.563 482.477 534.946 425.475 509.612 369.16C508.984 367.382 507.9 365.801 506.468 364.573C504.389 363.13 501.624 363.353 499.115 363.628C472.521 366.566 445.463 369.641 420.879 380.224C414.231 383.076 406.843 387.096 405.228 394.156C403.287 402.626 404.627 397.764 405.417 399.31C407.135 402.609 411.533 403.021 415.21 402.832C446.953 401.251 477.485 390.146 502.826 370.964" fill="#FFDFC2"/>
<path d="M403.545 400.427C428.937 448.822 452.542 498.128 477.126 546.935C483.207 559.029 489.369 571.055 495.611 583.012C498.188 587.96 500.473 594.901 506.194 596.979C511.348 598.835 517.773 597.649 523.013 596.979C534.726 595.369 546.061 591.699 556.496 586.139C561.521 583.462 566.304 580.353 570.789 576.845C575.42 573.539 579.428 569.439 582.626 564.733C589.79 553.24 582.935 540.682 578.64 529.395C573.727 516.624 568.739 503.888 563.677 491.187C553.461 465.589 542.907 440.14 532.015 414.841C526.597 402.242 521.111 389.707 515.557 377.234C514.251 374.296 512.928 371.376 511.623 368.438C510.77 365.955 509.129 363.819 506.95 362.357C504.487 361.256 501.745 360.944 499.099 361.463C495.663 361.807 492.227 362.219 488.911 362.614C476.163 363.944 463.491 365.922 450.944 368.541C438.81 370.927 427.024 374.829 415.863 380.155C411.482 382.371 407.033 385.309 404.61 389.775C403.545 391.943 402.815 394.26 402.446 396.647C402.002 397.821 402.002 399.116 402.446 400.289C402.603 400.558 402.814 400.79 403.066 400.972C403.318 401.154 403.605 401.282 403.909 401.346C404.213 401.411 404.527 401.411 404.831 401.348C405.135 401.284 405.423 401.158 405.676 400.976C405.676 400.976 405.864 400.891 405.899 400.839C404.61 402.746 403.133 399.31 403.872 400.839C404.517 401.909 405.436 402.787 406.534 403.382C410.932 405.993 417.048 404.928 421.859 404.498C445.696 402.304 468.747 394.834 489.341 382.629C494.376 379.612 499.245 376.326 503.926 372.785C506.091 371.067 503.926 367.407 501.761 369.091C483.51 382.882 462.477 392.537 440.121 397.386C434.575 398.595 428.966 399.49 423.319 400.066C420.467 400.341 417.581 400.599 414.729 400.684C412.685 400.684 410.005 400.77 408.304 399.413C407.273 398.589 407.067 397.197 405.641 396.871C405.025 396.726 404.377 396.811 403.82 397.111C401.999 398.056 407.943 397.111 406.449 399.07C406.672 398.76 406.174 399.568 406.449 398.898C406.517 398.68 406.563 398.455 406.586 398.228C406.809 397.025 407.067 395.84 407.376 394.654C407.965 392.352 409.199 390.266 410.932 388.642C414.368 385.206 419.213 383.144 423.697 381.306C429.267 379.034 434.963 377.084 440.756 375.465C452.638 372.29 464.728 369.954 476.937 368.473C483.001 367.648 489.1 366.961 495.182 366.274C497.875 365.715 500.632 365.53 503.376 365.724C506.4 366.256 507.31 369.383 508.427 371.84C513.81 383.808 519.107 395.834 524.318 407.917C534.626 431.556 544.59 455.333 554.211 479.247C559.147 491.41 563.992 503.608 568.745 515.84C571.036 521.818 573.326 527.808 575.617 533.81C577.833 539.565 580.771 545.561 581.458 551.745C582.695 563.256 571.614 571.468 563.179 577.206C553.892 583.485 543.586 588.106 532.719 590.863C527.335 592.239 521.838 593.13 516.295 593.526C513.722 593.87 511.111 593.835 508.547 593.423C505.455 592.684 504.081 590.211 502.689 587.616C496.625 576.158 490.663 564.613 484.891 553.051C461.664 507.233 439.451 460.899 415.932 415.236C413.046 409.601 410.131 403.983 407.187 398.382C405.899 395.943 402.188 398.107 403.476 400.547L403.545 400.427Z" fill="#9D6434"/>
<path d="M430.843 390.942C416.997 382.902 413.045 374.433 412.186 358.456C411.983 350.762 412.945 343.082 415.038 335.675C419.625 317.517 427.373 299.598 440.962 286.713C445.79 282.144 452.009 278.124 458.606 278.897C465.203 279.67 470.632 287.847 466.886 293.276C465.77 294.857 464.069 295.956 463.021 297.588C462.501 298.522 462.197 299.561 462.132 300.628C462.068 301.696 462.244 302.764 462.648 303.753C463.053 304.743 463.674 305.63 464.467 306.347C465.26 307.064 466.205 307.593 467.23 307.896C470.133 308.549 473.346 307.295 476.06 308.514C479.187 309.94 480.08 314.201 478.981 317.465C477.881 320.729 475.356 323.237 473.037 325.797C463.616 336.22 456.861 348.77 453.349 362.373C452.593 365.293 452.112 368.746 454.122 370.963C454.883 371.682 455.788 372.233 456.777 372.579C457.765 372.925 458.816 373.059 459.86 372.973C466.045 372.852 471.422 368.987 477.16 366.736C482.898 364.486 490.903 364.554 493.79 369.966C494.05 370.343 494.214 370.778 494.268 371.233C494.321 371.688 494.264 372.15 494.099 372.577C493.708 373.172 493.136 373.624 492.467 373.866C475.562 382.215 458.108 390.719 439.313 392.025" fill="#255DE8"/>
<path d="M479.359 278.536C477.32 274.442 476.301 269.915 476.387 265.341C476.474 260.768 477.664 256.283 479.857 252.269C482.657 247.269 488.447 242.837 493.79 245.07C497.706 246.788 499.51 251.599 498.754 255.79C497.74 259.951 495.48 263.703 492.278 266.545C489.083 269.356 486.06 272.357 483.224 275.53" fill="#255DE8"/>
<path d="M443.213 475.913C447.972 466.722 461.99 469.883 471.353 465.451C478.225 462.221 482.073 455.04 487.33 449.594C493.609 443.143 501.948 439.095 510.901 438.152C512.661 437.886 514.458 438.021 516.158 438.548C517.899 439.328 519.435 440.505 520.642 441.983C531.121 453.271 536.773 468.079 542.202 482.493L565.756 545.182C566.102 545.815 566.311 546.514 566.37 547.233C566.43 547.952 566.337 548.675 566.099 549.356C565.543 550.187 564.763 550.842 563.849 551.246C543.766 562.361 522.308 573.803 499.39 572.618" fill="#255DE8"/>
<path d="M402.686 402.831C405.709 409.497 414.488 408.775 420.501 408.414C427.968 407.96 435.396 406.996 442.732 405.528C457.275 402.566 471.341 397.612 484.53 390.805C491.931 386.998 499.015 382.604 505.712 377.663C506.654 377.08 507.344 376.167 507.646 375.102C507.948 374.037 507.84 372.897 507.344 371.907C506.758 370.932 505.813 370.225 504.713 369.936C503.612 369.647 502.442 369.8 501.452 370.361C479.813 386.366 454.328 396.364 427.579 399.343C423.817 399.739 420.02 400.013 416.241 400.116C414.869 400.221 413.489 400.152 412.135 399.91C410.932 399.635 410.64 399.481 410.245 398.587C409.665 397.61 408.723 396.9 407.624 396.611C406.525 396.321 405.356 396.476 404.369 397.041C403.405 397.634 402.707 398.575 402.419 399.669C402.131 400.763 402.276 401.927 402.823 402.917L402.686 402.831Z" fill="#D78D28"/>
<path d="M539.883 465.226C544.367 464.041 549.143 466.807 551.754 470.655C554.365 474.503 558.471 478.54 559.33 483.11C560.378 488.745 565.412 496.012 566.46 501.664C566.498 502.323 566.794 502.94 567.285 503.382C568.041 503.88 569.003 503.382 569.81 502.918C577.764 497.61 576.682 488.762 579.499 479.606C582.059 471.016 581.578 458.99 576.459 451.757C574.502 449.249 572.132 447.093 569.449 445.384C562.348 440.321 555.024 435.603 547.476 431.228C543.542 428.96 538.887 426.726 534.66 428.118C529.816 429.664 527.462 435.093 526.191 440.024C524.816 445.435 524.078 451.345 526.191 456.516C528.304 461.687 534.111 465.69 539.471 464.127" fill="#F2A91F"/>
<path d="M543.611 465.811C546.772 466.223 548.009 467.855 549.658 470.381C552.048 473.54 554.212 476.864 556.135 480.328C556.802 482.061 557.342 483.841 557.75 485.653C558.348 487.471 559.059 489.25 559.88 490.979C561.644 494.313 563.093 497.804 564.209 501.407C564.317 502.79 564.928 504.086 565.927 505.049C566.728 505.516 567.655 505.723 568.578 505.64C569.502 505.556 570.376 505.188 571.081 504.585C573.76 502.801 575.956 500.381 577.472 497.542C580.581 491.649 580.908 484.605 581.767 478.111C582.712 470.913 583.485 463.217 581.372 456.121C579.001 448.081 572.077 443.821 565.515 439.371C561.684 436.76 557.767 434.217 553.815 431.864C550.181 429.372 546.251 427.34 542.116 425.816C534.368 423.428 528.51 428.033 525.744 435.025C522.703 442.687 521.208 453.287 526.517 460.296C527.64 461.853 529.064 463.169 530.705 464.167C532.345 465.164 534.169 465.823 536.069 466.103C537.494 466.173 538.923 466.086 540.329 465.845C541.377 465.759 542.477 465.845 543.542 465.845C544.112 465.845 544.658 465.619 545.06 465.216C545.463 464.813 545.69 464.267 545.69 463.698C545.69 463.128 545.463 462.582 545.06 462.179C544.658 461.776 544.112 461.55 543.542 461.55C541.917 461.512 540.291 461.604 538.68 461.825C537.241 462 535.78 461.822 534.425 461.307C533.069 460.793 531.859 459.956 530.898 458.87C525.744 453.579 527.118 444.886 529.077 438.478C529.774 435.557 531.33 432.913 533.543 430.884C536.601 428.531 540.415 429.544 543.662 431.056C550.76 434.691 557.572 438.861 564.037 443.529C567.375 445.601 570.515 447.976 573.418 450.624C575.626 452.972 577.111 455.906 577.695 459.076C579.018 465.175 578.314 471.686 577.523 477.819C576.802 483.506 576.561 489.948 573.899 495.136C573.338 496.271 572.64 497.333 571.82 498.297C571.376 498.792 570.906 499.263 570.411 499.706C569.891 500.298 569.316 500.839 568.693 501.321V501.579L568.538 500.806C568.453 500.548 568.401 500.256 568.332 499.981C568.161 499.294 567.937 498.624 567.697 497.954C567.113 496.236 566.408 494.741 565.669 493.178C563.967 489.962 562.592 486.584 561.564 483.093C560.611 479.409 558.954 475.944 556.684 472.889C554.881 470.295 553.249 467.408 551.187 465.003C549.224 462.919 546.523 461.686 543.662 461.567C540.879 461.241 540.896 465.45 543.611 465.811Z" fill="#9D6434"/>
<path d="M455.325 561.419C471.886 563.257 467.917 560.285 482.812 560.096C482.812 560.096 492.192 560.096 496.728 556.883C508.582 548.294 503.428 541.525 503.428 541.525C501.401 535.632 494.838 532.42 488.739 531.561C482.64 530.702 476.232 531.561 470.048 530.856C463.863 530.152 457.3 527.145 454.981 521.356C467.213 524.792 480.321 527.592 492.467 523.847C494.482 523.374 496.315 522.323 497.741 520.823C499.22 518.568 499.903 515.883 499.683 513.196C499.683 510.928 498.326 506.324 496.951 501.943C496.065 499.057 494.219 496.56 491.719 494.867C489.22 493.174 486.216 492.385 483.207 492.632L448.848 494.264C446.94 494.088 445.17 493.191 443.9 491.755C440.19 487.34 442.526 486.825 446.855 486.687C449.654 486.596 452.457 486.711 455.239 487.031C470.872 488.749 472.023 489.402 483.104 488.371C487.056 488.01 491.522 487.375 493.859 484.145C495.903 481.293 495.577 477.428 494.993 473.957C494.254 469.405 493.275 464.869 492.295 460.385C492.105 458.896 491.414 457.515 490.337 456.468C489.155 455.774 487.787 455.462 486.42 455.575C474.296 455.433 462.194 456.655 450.343 459.217C444.003 460.591 437.389 462.344 431.136 460.609H430.964C423.474 458.392 426.222 447.088 433.919 448.342C444.891 450.145 455.991 451.059 467.11 451.074C468.143 451.184 469.184 450.961 470.082 450.438C471.8 449.167 471.233 446.487 470.426 444.494C467.303 436.723 463.653 429.175 459.499 421.903C458.878 420.53 457.906 419.345 456.682 418.467C454.929 417.703 452.974 417.535 451.116 417.986C436.771 419.876 432.218 417.986 417.856 419.944L410.125 423.38C401.381 426.816 393.598 437.588 393.495 446.985C393.601 451.696 394.721 456.329 396.778 460.569C398.835 464.808 401.782 468.554 405.418 471.552C408.682 474.352 412.565 476.792 414.248 480.743C416.378 485.725 414.368 491.584 415.829 496.806C416.877 500.534 419.557 503.541 422.082 506.478C422.082 506.478 431.737 520.703 431.789 533.966C431.748 537.626 432.634 541.237 434.366 544.463C437.922 550.939 444.794 560.251 455.325 561.419Z" fill="#F2A91F"/>
<path d="M455.324 562.347C459.516 562.962 463.765 563.089 467.986 562.725C470.597 562.399 473.14 561.729 475.734 561.437C482.606 560.629 490.096 561.66 496.538 558.293C502.311 555.287 508.667 547.985 506.125 540.942C504.865 537.664 502.753 534.782 500.008 532.593C497.263 530.403 493.984 528.986 490.508 528.486C480.115 526.545 462.231 531.613 456.836 519.055L454.414 522.216C466.577 525.652 479.805 528.503 492.209 524.93C494.852 524.363 497.274 523.045 499.184 521.133C500.883 518.894 501.773 516.144 501.709 513.334C501.779 511.177 501.519 509.021 500.936 506.943C500.281 503.851 499.326 500.83 498.085 497.924C497.007 495.713 495.418 493.792 493.449 492.319C491.48 490.846 489.188 489.864 486.763 489.454C484.878 489.265 482.979 489.265 481.094 489.454L463.244 490.313L454.105 490.743C452.393 490.919 450.672 491 448.951 490.983C447.55 490.853 446.255 490.181 445.343 489.11C445.017 488.542 444.643 488.002 444.226 487.496L444.123 487.238C444.13 487.524 444.025 487.801 443.831 488.011C444.825 488.02 445.816 487.916 446.786 487.702C452.782 487.739 458.766 488.233 464.687 489.179C472.374 490.274 480.187 490.129 487.828 488.75C492.982 487.633 496.899 484.3 497.415 478.82C497.55 476.355 497.365 473.884 496.865 471.467C496.298 468.031 495.611 464.509 494.855 461.073C494.288 458.548 493.876 455.61 491.78 453.823C489.684 452.037 485.87 452.277 483.035 452.294C476.416 452.354 469.807 452.819 463.244 453.686C456.768 454.528 450.445 455.971 444.037 457.225C440.802 457.974 437.468 458.211 434.159 457.929C432.218 457.706 429.795 457.294 428.902 455.318C428.641 454.712 428.519 454.055 428.545 453.396C428.571 452.737 428.745 452.092 429.053 451.508C429.361 450.925 429.796 450.418 430.326 450.025C430.856 449.632 431.467 449.362 432.115 449.236C433.318 449.214 434.519 449.347 435.688 449.632C437.251 449.872 438.815 450.095 440.378 450.284C443.951 450.765 447.559 451.126 451.15 451.418C454.191 451.659 457.249 451.831 460.307 451.934C463.364 452.037 467.178 452.69 469.996 451.642C475.528 449.614 472.47 442.914 470.906 439.238C468.276 433.023 465.311 426.956 462.024 421.062C460.736 418.777 459.482 416.337 456.991 415.204C454.5 414.07 451.322 414.723 448.538 415.032C443.36 415.527 438.159 415.757 432.956 415.719C430.792 415.719 428.644 415.719 426.48 415.874C423.347 415.834 420.219 416.133 417.151 416.767C414.644 417.689 412.199 418.774 409.833 420.014C406.154 421.568 402.811 423.82 399.989 426.645C396.268 430.241 393.607 434.789 392.295 439.794C390.983 444.799 391.071 450.068 392.55 455.026C394.134 460.125 396.814 464.815 400.401 468.77C403.837 472.67 409.695 475.401 411.997 480.229C414.557 485.589 411.997 492.048 414.076 497.649C415.502 501.411 418.371 503.971 420.57 507.235C425.243 514.227 429.16 523.143 429.486 531.596C429.486 534.41 429.827 537.213 430.5 539.945C431.284 542.41 432.399 544.756 433.815 546.92C436.106 550.7 439.009 554.073 442.405 556.901C446.078 559.946 450.541 561.883 455.273 562.485C458.004 562.846 457.97 558.534 455.273 558.19C446.408 557.073 439.588 549.274 435.825 541.663C433.352 536.698 434.108 531.115 433.094 525.823C432.074 521.163 430.488 516.646 428.37 512.372C427.139 509.717 425.715 507.156 424.109 504.71C421.652 501.068 418.251 498.37 417.529 493.783C416.67 488.269 418.405 482.634 415.485 477.497C412.994 473.133 408.372 470.625 404.902 467.189C397.669 460.008 393.117 448.841 397.068 438.911C398.941 434.275 402.012 430.22 405.967 427.161C408.538 425.387 411.312 423.928 414.231 422.814C415.502 422.247 416.773 421.629 418.062 421.096C419.744 420.653 421.476 420.434 423.216 420.443C427.889 420.048 432.561 420.083 437.234 420.031C439.588 420.031 441.941 419.928 444.278 419.756C447.25 419.55 450.256 418.88 453.228 418.846C456.201 418.811 457.403 421.474 458.795 424C460.364 426.828 461.853 429.692 463.261 432.589C464.567 435.252 465.804 437.967 466.972 440.698C467.505 441.918 470.271 446.78 468.347 447.725C467.247 448.257 464.911 447.725 463.725 447.725L459.551 447.604C456.229 447.49 452.902 447.284 449.569 446.986C446.357 446.711 443.127 446.35 439.914 445.921C437.2 445.56 434.228 444.632 431.479 445.045C429.897 445.297 428.42 445.997 427.223 447.063C426.027 448.129 425.16 449.515 424.727 451.058C424.273 452.563 424.25 454.166 424.659 455.684C425.069 457.202 425.896 458.575 427.047 459.647C430.757 462.894 436.942 462.516 441.46 461.915C447.765 461.073 453.933 459.321 460.221 458.342C466.712 457.357 473.259 456.783 479.823 456.624C481.197 456.624 482.571 456.624 483.963 456.624C485.504 456.393 487.076 456.474 488.584 456.864C489.77 457.431 489.959 458.702 490.302 459.871C490.766 461.709 491.144 463.582 491.522 465.437C492.106 468.306 492.69 471.192 493.085 474.027C493.429 476.587 493.755 479.765 492.037 481.929C489.34 485.365 483.258 485.125 479.376 485.365C476.1 485.623 472.808 485.623 469.532 485.365C465.048 484.987 460.599 484.352 456.149 483.854C453.089 483.482 450.005 483.332 446.924 483.407C445.07 483.282 443.217 483.643 441.546 484.455C437.801 486.98 441.667 492.031 444.295 493.732C446.1 494.875 448.231 495.394 450.36 495.209L482.142 493.715C484.715 493.399 487.324 493.84 489.649 494.986C494.511 497.683 495.628 503.198 496.882 508.18C497.49 510.323 497.666 512.566 497.397 514.777C496.951 518.213 495.061 519.673 491.917 520.652C486.027 522.341 479.854 522.814 473.775 522.044C467.606 521.268 461.514 519.969 455.565 518.161C453.589 517.594 452.455 519.69 453.143 521.322C457.163 530.668 468.415 532.231 477.366 532.214C482.692 532.214 488.155 531.905 493.24 533.76C495.278 534.466 497.149 535.582 498.737 537.042C499.968 538.346 500.946 539.866 501.624 541.526C502.247 542.525 502.519 543.704 502.397 544.876C502.07 548.535 498.841 551.541 496.092 553.586C490.629 557.64 483.052 556.524 476.696 557.125C473.775 557.4 470.958 558.087 468.106 558.499C463.864 558.912 459.588 558.791 455.376 558.138C452.576 557.76 452.593 562.055 455.324 562.347Z" fill="#9D6434"/>
<path d="M732.501 1347.97C708.33 1300.97 717.572 1282.22 733.395 1253.48C750.489 1222.4 757.343 1223 762.514 1221.68C768.012 1220.29 777.358 1225.12 780.278 1229.09C781.601 1230.8 782.254 1234.7 782.683 1238.88C783.215 1248.77 781.603 1258.65 777.959 1267.86C767.514 1292.22 769.369 1310.95 773.544 1339.76C780.69 1389.72 743.617 1369.56 732.501 1347.97Z" fill="#FCB753"/>
<path d="M1232.33 1454.1C1227.79 1467.68 1200.06 1453.9 1200.06 1423.66C1200.06 1409.35 1205.72 1395.56 1206.3 1381.25C1206.9 1366.66 1202.43 1352.28 1202.06 1337.68C1201.68 1323.07 1213.26 1304.23 1226.66 1298.4C1232.24 1295.97 1239.18 1295.9 1244.06 1299.52C1244.06 1299.52 1248.2 1340.96 1246.24 1359.32C1246.16 1359.32 1239.63 1431.89 1232.33 1454.1Z" fill="#FCB753"/>
<path opacity="0.79" d="M939.791 511.919C939.791 511.919 984.458 471.821 1046.96 476.735C1046.96 476.735 1046.84 465.362 1041.53 461.479C1023.16 460.499 983.157 464.498 947.657 497.498C945.269 499.996 941.552 507.758 940.203 510.939L939.791 511.919Z" fill="#D78D28"/>
<path d="M945.615 492.358C944.069 495.325 942.563 498.325 941.097 501.361C938.885 505.341 937.117 509.553 935.823 513.919C935.015 517.475 935.032 521.736 937.919 524.364C940.805 526.993 944.79 526.082 947.333 523.299C949.88 520.388 951.454 516.754 951.834 512.905C952.123 511.501 952.063 510.048 951.659 508.673C951.254 507.298 950.518 506.043 949.515 505.02C943.605 499.557 933.606 499.368 926.254 501.068C923.574 501.704 924.707 505.844 927.405 505.226C933.125 503.886 940.049 503.972 945.203 507.133C945.955 507.45 946.591 507.991 947.025 508.683C947.458 509.375 947.668 510.183 947.625 510.998C947.654 514 946.734 516.934 944.997 519.382C944.378 520.258 943.279 521.736 942.128 521.787C940.977 521.839 940.049 520.413 939.808 519.382C939.474 517.257 939.735 515.08 940.564 513.094C941.983 509.421 943.594 505.826 945.392 502.323C946.68 499.711 947.986 497.169 949.326 494.523C950.666 491.877 946.903 489.902 945.615 492.358Z" fill="#9D6434"/>
<path d="M1039.21 459.764C1042.72 464.489 1044.31 470.371 1043.66 476.222C1043.31 480.819 1041.42 485.165 1038.3 488.557C1036.77 490.46 1034.68 491.831 1032.32 492.474C1030.16 493.007 1025.57 493.419 1025.45 490.138C1025.33 486.856 1028.89 484.194 1031.32 482.579C1034.33 480.635 1037.43 478.852 1040.62 477.236C1048.14 473.267 1055.82 469.625 1063.28 465.502C1065.7 464.162 1063.54 460.451 1061.11 461.791C1053.06 466.241 1044.71 470.141 1036.62 474.504C1030.71 477.717 1019.92 482.854 1021.27 491.237C1022.51 499.02 1033.3 497.937 1038.11 494.484C1042.84 491.004 1046.13 485.904 1047.34 480.156C1048.24 476.295 1048.31 472.286 1047.54 468.396C1046.77 464.506 1045.18 460.826 1042.87 457.599C1041.15 455.418 1037.49 457.599 1039.16 459.764H1039.21Z" fill="#9D6434"/>
<path d="M1026.08 598.906L1106.06 613.606L1104.44 624.266L1024.36 607.386L1026.08 598.906Z" fill="#117AF6"/>
<path d="M1103.25 623.868C1103.41 623.078 1103.56 622.348 1103.71 621.618C1104.24 619.028 1104.78 616.438 1105.28 613.848C1105.39 613.258 1105.78 613.378 1106.15 613.408C1107.48 613.498 1108.81 613.648 1110.14 613.668C1113.21 613.708 1116.2 613.338 1118.93 611.788C1121.2 610.498 1122.73 608.658 1122.74 605.948C1122.76 602.608 1121.36 599.898 1118.67 597.908C1115.96 595.908 1112.87 595.558 1109.67 596.178C1108.13 596.478 1106.64 597.068 1105.14 597.548C1104.94 597.608 1104.7 597.738 1104.59 597.908C1103.31 599.808 1102.48 601.858 1102.72 604.208C1102.9 606.028 1104.03 607.138 1105.56 607.908C1107.26 608.748 1109.05 609.008 1110.9 608.478C1111.31 608.358 1111.71 608.188 1112.08 607.968C1114.01 606.828 1114.27 605.168 1112.75 603.538C1112.17 602.918 1111.5 602.368 1110.81 601.728C1112.05 601.148 1113.24 600.578 1114.44 600.028C1114.54 599.978 1114.71 599.988 1114.81 600.038C1116.59 601.018 1118.15 602.218 1118.94 604.178C1119.5 605.558 1119.27 606.888 1118.56 608.158C1117.34 610.338 1115.39 611.538 1113.01 611.888C1107.32 612.728 1102.09 611.748 1097.79 607.608C1095.81 605.698 1094.44 603.458 1094.85 600.568C1095.14 598.518 1095.89 596.578 1096.93 594.788C1100.47 588.788 1105.86 585.928 1112.67 586.368C1120.87 586.898 1128.08 590.078 1133.85 596.028C1137.52 599.818 1139.54 604.398 1139.19 609.788C1138.9 614.278 1136.99 618.028 1133.57 620.938C1129.21 624.648 1124.05 626.258 1118.4 625.818C1113.54 625.438 1108.7 624.648 1103.86 624.028C1103.69 624.008 1103.52 623.938 1103.24 623.868H1103.25Z" fill="#396BE1"/>
<path d="M1094.08 611.326C1093.69 613.456 1093.31 615.456 1092.96 617.456C1092.73 618.746 1092.54 620.036 1092.35 621.326C1092.28 621.766 1092.12 621.926 1091.63 621.826C1088.82 621.256 1086 620.706 1083.18 620.176C1082.74 620.096 1082.6 619.916 1082.69 619.506C1083.32 616.366 1083.94 613.226 1084.57 610.076C1084.59 609.966 1084.64 609.866 1084.71 609.656C1087.81 610.206 1090.91 610.756 1094.08 611.316V611.326Z" fill="#7EB7FA"/>
<path d="M1065.76 606.39C1065.25 608.1 1064.73 609.79 1064.26 611.48C1063.9 612.78 1063.6 614.11 1063.31 615.43C1063.21 615.91 1062.99 616 1062.55 615.9C1059.79 615.29 1057.03 614.69 1054.27 614.11C1053.78 614.01 1053.62 613.79 1053.75 613.32C1054.57 610.57 1055.38 607.82 1056.22 605.09C1056.27 604.92 1056.61 604.7 1056.78 604.72C1059.72 605.21 1062.65 605.74 1065.59 606.26C1065.63 606.26 1065.66 606.31 1065.74 606.37L1065.76 606.39Z" fill="#7EB7FA"/>
<path d="M1024.36 607.387C1025.07 604.657 1025.76 601.997 1026.46 599.297C1028.52 599.667 1030.61 600.037 1032.7 600.407C1033.57 600.567 1034.43 600.737 1035.3 600.877C1035.62 600.927 1035.8 600.997 1035.71 601.387C1035.13 603.947 1034.58 606.507 1034.01 609.067C1033.98 609.217 1033.88 609.347 1033.8 609.527C1030.66 608.817 1027.53 608.107 1024.36 607.387Z" fill="#7EB7FA"/>
<path d="M1025.31 616.82L1025.44 616.886L1025.69 616.561C1032.75 607.452 1030.25 594.264 1022.2 586.686C1021.5 586.018 1020.68 585.767 1019.89 585.835C1019.12 585.902 1018.4 586.275 1017.87 586.803C1017.35 587.33 1016.98 588.038 1016.93 588.805C1016.88 589.588 1017.16 590.387 1017.87 591.055L1017.87 591.056C1024.06 596.854 1025.64 606.412 1020.4 613.271L1020.38 613.296L1020.36 613.324C1019.95 614.031 1019.84 614.872 1020.04 615.662C1020.25 616.453 1020.76 617.13 1021.47 617.545L1021.48 617.552L1021.49 617.559C1022.19 617.916 1022.99 618.001 1023.75 617.797C1024.36 617.633 1024.9 617.291 1025.31 616.82Z" fill="#9D6434" stroke="#9D6434"/>
<g opacity="0.4">
<path d="M1271.56 552.934C1277.1 552.934 1277.1 544.344 1271.56 544.344C1266.03 544.344 1266.03 552.934 1271.56 552.934Z" fill="#FCC69D"/>
</g>
<g opacity="0.4">
<path d="M1249.51 596.961C1255.04 596.961 1255.04 588.371 1249.51 588.371C1243.97 588.371 1243.97 596.961 1249.51 596.961Z" fill="#FCC69D"/>
</g>
<g opacity="0.4">
<path d="M1193.19 606.824C1198.72 606.824 1198.72 598.234 1193.19 598.234C1187.66 598.234 1187.66 606.824 1193.19 606.824Z" fill="#FCC69D"/>
</g>
<g opacity="0.4">
<path d="M1232.33 648.496C1237.86 648.496 1237.86 639.906 1232.33 639.906C1226.79 639.906 1226.79 648.496 1232.33 648.496Z" fill="#FCC69D"/>
</g>
<g opacity="0.4">
<path d="M1173.59 543.141C1179.12 543.141 1179.12 534.551 1173.59 534.551C1168.06 534.551 1168.06 543.141 1173.59 543.141Z" fill="#FCC69D"/>
</g>
<g opacity="0.4">
<path d="M741.761 1036.76C746.957 1041.2 751.105 1046.74 753.908 1052.98C756.712 1059.22 758.102 1066 757.979 1072.83C757.979 1078.37 766.569 1078.37 766.569 1072.83C766.697 1064.88 765.09 1057 761.859 1049.73C758.628 1042.47 753.85 1035.99 747.86 1030.76C747.044 1029.98 745.958 1029.54 744.828 1029.54C743.698 1029.54 742.611 1029.98 741.796 1030.76C740.997 1031.57 740.55 1032.66 740.55 1033.79C740.55 1034.93 740.997 1036.02 741.796 1036.83L741.761 1036.76Z" fill="#FCC69D"/>
</g>
<g opacity="0.4">
<path d="M725.234 1102.16C709.584 1115.63 707.556 1140.75 718.019 1157.93C721.059 1162.91 725.166 1167.16 730.045 1170.37C734.666 1173.41 738.978 1165.97 734.374 1162.95C720.63 1153.91 716.679 1133.95 722.984 1119.5C724.852 1115.15 727.704 1111.29 731.316 1108.23C732.11 1107.42 732.555 1106.33 732.555 1105.2C732.555 1104.06 732.11 1102.97 731.316 1102.16C730.499 1101.38 729.409 1100.94 728.275 1100.94C727.141 1100.94 726.051 1101.38 725.234 1102.16Z" fill="#FCC69D"/>
</g>
<g opacity="0.4">
<path d="M811.081 915.437C816.613 915.437 816.613 906.848 811.081 906.848C805.549 906.848 805.549 915.437 811.081 915.437Z" fill="#FCC69D"/>
</g>
<g opacity="0.4">
<path d="M695.96 908.086C701.492 908.086 701.492 899.496 695.96 899.496C690.428 899.496 690.428 908.086 695.96 908.086Z" fill="#FCC69D"/>
</g>
<g opacity="0.4">
<path d="M752.292 966.875C757.824 966.875 757.841 958.285 752.292 958.285C746.743 958.285 746.76 966.875 752.292 966.875Z" fill="#FCC69D"/>
</g>
<g opacity="0.4">
<path d="M566.151 888.504C571.665 888.504 571.682 879.914 566.151 879.914C560.619 879.914 560.619 888.504 566.151 888.504Z" fill="#FCC69D"/>
</g>
<g opacity="0.4">
<path d="M629.836 841.961C635.351 841.961 635.368 833.371 629.836 833.371C624.304 833.371 624.287 841.961 629.836 841.961Z" fill="#FCC69D"/>
</g>
<g opacity="0.4">
<path d="M639.628 944.836C645.16 944.836 645.16 936.246 639.628 936.246C634.096 936.246 634.096 944.836 639.628 944.836Z" fill="#FCC69D"/>
</g>
<g opacity="0.4">
<path d="M678.815 1001.16C684.347 1001.16 684.347 992.574 678.815 992.574C673.283 992.574 673.283 1001.16 678.815 1001.16Z" fill="#FCC69D"/>
</g>
<g opacity="0.4">
<path d="M563.213 901.348C566.391 929.162 573.898 957.715 590.889 980.461C595.004 986.031 599.672 991.171 604.822 995.802C610.577 1000.96 617.019 1005.63 624.458 1007.93C627.841 1009.06 631.424 1009.47 634.976 1009.13C638.527 1008.79 641.968 1007.71 645.074 1005.96C651.001 1002.43 655.381 996.042 654.918 988.93C654.368 981.027 649.214 974.396 644.008 968.813C639.093 963.568 633.445 959.06 627.241 955.43C614.832 947.96 600.474 944.37 586.01 945.122C578.187 945.453 570.664 948.229 564.501 953.059C559.47 957.552 555.748 963.322 553.729 969.758C551.588 976.298 550.267 983.078 549.795 989.944C549.103 997.246 548.89 1004.59 549.16 1011.92C549.726 1026.69 552.595 1041.53 559.296 1054.87C565.6 1067.25 576.991 1081.36 592.212 1081.39C595.612 1081.35 598.955 1080.51 601.968 1078.94C604.981 1077.36 607.578 1075.09 609.546 1072.32C611.56 1069.43 612.592 1065.96 612.49 1062.43C612.388 1058.91 611.157 1055.51 608.979 1052.74C604.684 1046.96 598.173 1042.67 591.799 1039.47C585.468 1036.26 578.666 1034.06 571.648 1032.98C557.732 1030.88 543.129 1032.89 530.932 1040.21C519.368 1047.29 510.619 1058.17 506.176 1070.98C503.912 1077.28 502.945 1083.97 503.331 1090.66C503.718 1097.34 505.451 1103.88 508.427 1109.87C514.612 1121.81 525.197 1130.86 537.941 1135.13C544.239 1137.22 550.933 1137.84 557.509 1136.95C561.163 1136.69 564.602 1135.12 567.198 1132.53C568.234 1131.37 569.028 1130.01 569.535 1128.54C570.042 1127.06 570.252 1125.5 570.153 1123.95C569.191 1109.48 553.695 1102.47 541.222 1100.72C526.212 1098.9 511.021 1102.07 497.981 1109.72C484.719 1117.26 474.033 1128.62 464.996 1140.64C460.633 1146.52 456.664 1152.67 452.971 1158.89C450.084 1163.63 457.523 1167.94 460.375 1163.22C473.689 1141.3 490.714 1118.69 516.432 1111.11C528.166 1107.68 541.446 1107.4 552.63 1112.83C554.74 1113.81 556.62 1115.22 558.148 1116.98C559.675 1118.73 560.816 1120.79 561.495 1123.02C561.736 1123.63 561.806 1124.29 561.697 1124.94C561.588 1125.59 561.304 1126.2 560.876 1126.69C559.33 1128.24 556.272 1128.41 554.004 1128.6C531.791 1129.85 511.897 1110.13 511.897 1088.16C512.029 1077.1 516.022 1066.44 523.184 1058.01C530.619 1049.14 540.975 1043.21 552.389 1041.29C564.267 1039.39 576.442 1041.24 587.212 1046.6C594.789 1050.35 610.783 1060.12 600.733 1069.33C591.387 1077.92 579.069 1068.37 573.074 1060.55C565.308 1050.45 561.048 1038.22 559.072 1025.68C557.232 1012.99 557.099 1000.11 558.677 987.384C559.845 976.921 562.663 964.294 572.129 958.178C582.437 951.478 596.85 953.025 608.051 956.461C619.83 959.959 630.425 966.62 638.683 975.719C642.325 979.739 647.273 985.511 646.362 991.387C645.572 996.094 640.933 999.255 636.587 1000.35C630.814 1001.81 624.767 999.444 619.871 996.489C614.598 993.167 609.786 989.164 605.56 984.584C588.535 966.82 579.464 942.94 574.637 919.146C573.469 913.288 572.558 907.395 571.871 901.451C571.841 900.322 571.378 899.247 570.579 898.448C569.78 897.649 568.706 897.187 567.576 897.156C566.44 897.165 565.353 897.621 564.549 898.424C563.746 899.228 563.29 900.315 563.281 901.451L563.213 901.348Z" fill="#FFD4B0"/>
</g>
<g opacity="0.4">
<path d="M1435.68 1025.66C1441.2 1025.66 1441.21 1017.07 1435.68 1017.07C1430.15 1017.07 1430.13 1025.66 1435.68 1025.66Z" fill="#FCC69D"/>
</g>
<g opacity="0.4">
<path d="M1492.01 1006.06C1497.55 1006.06 1497.55 997.473 1492.01 997.473C1486.48 997.473 1486.48 1006.06 1492.01 1006.06Z" fill="#FCC69D"/>
</g>
<g opacity="0.4">
<path d="M1482.22 1059.96C1487.74 1059.96 1487.75 1051.37 1482.22 1051.37C1476.69 1051.37 1476.67 1059.96 1482.22 1059.96Z" fill="#FCC69D"/>
</g>
<g opacity="0.4">
<path d="M1462.62 971.77C1468.15 971.77 1468.15 963.18 1462.62 963.18C1457.09 963.18 1457.09 971.77 1462.62 971.77Z" fill="#FCC69D"/>
</g>
<g opacity="0.4">
<path d="M1494.45 920.332C1499.99 920.332 1500 911.742 1494.45 911.742C1488.9 911.742 1488.92 920.332 1494.45 920.332Z" fill="#FCC69D"/>
</g>
<g opacity="0.4">
<path d="M1452.23 918.498V916.041C1452.26 915.445 1452.13 914.85 1451.85 914.323C1451.68 913.789 1451.37 913.309 1450.95 912.932C1450.58 912.524 1450.11 912.222 1449.58 912.055C1449.05 911.773 1448.46 911.642 1447.86 911.678L1446.71 911.832C1446 912.036 1445.35 912.414 1444.82 912.932L1444.15 913.808C1443.76 914.463 1443.56 915.211 1443.57 915.972V918.429C1443.52 919.025 1443.64 919.622 1443.93 920.147C1444.1 920.682 1444.41 921.162 1444.82 921.539C1445.19 921.946 1445.67 922.249 1446.2 922.415C1446.72 922.696 1447.32 922.826 1447.91 922.793L1449.05 922.638C1449.76 922.441 1450.41 922.062 1450.94 921.539L1451.61 920.663C1451.99 920.006 1452.2 919.26 1452.21 918.498H1452.23Z" fill="#FCC69D"/>
</g>
<g opacity="0.4">
<path d="M1374.92 1101.37C1352.81 1110.85 1340.4 1134.87 1338.74 1158.06C1338.26 1164.69 1338.53 1171.81 1344.03 1176.51C1349.18 1180.79 1356.19 1182.87 1362.31 1185.24C1375.62 1190.4 1389.8 1194.36 1404.16 1192.11C1415.77 1190.4 1427.3 1184.11 1433.36 1173.73C1436.66 1168.03 1438.16 1160.66 1434.45 1154.83C1432.92 1152.63 1430.95 1150.77 1428.66 1149.38C1426.37 1147.99 1423.81 1147.09 1421.15 1146.76C1409.5 1144.85 1397.85 1149.83 1388.88 1157.07C1379.57 1164.48 1373.33 1175.08 1371.36 1186.82C1369.68 1198.61 1372.58 1210.59 1379.47 1220.31C1382.9 1225.21 1387.27 1229.38 1392.32 1232.59C1398.24 1236.1 1404.85 1238.3 1411.7 1239.03C1423.4 1240.59 1435.75 1239.72 1446.54 1234.79C1456.19 1230.37 1465.09 1220.61 1463.89 1209.29C1463.2 1202.89 1459.3 1197.27 1452.6 1196.19C1445.9 1195.1 1439.29 1198.28 1433.79 1201.55C1423.12 1207.77 1415.28 1217.89 1411.92 1229.79C1410.48 1235.49 1410.3 1241.45 1411.41 1247.23C1412.52 1253 1414.88 1258.47 1418.33 1263.24C1421.88 1268.18 1426.67 1272.1 1432.21 1274.61C1438.91 1277.36 1446.12 1278.67 1453.36 1278.46C1465.18 1278.46 1480.35 1277.51 1487.96 1267.03C1493.73 1259.08 1491.4 1244.86 1481.24 1241.64C1474.78 1239.58 1468.44 1243.64 1464.06 1248.12C1460 1252.4 1456.77 1257.41 1454.55 1262.88C1450.13 1273.61 1449.42 1285.51 1452.54 1296.69C1454.02 1302.02 1456.44 1307.05 1459.7 1311.53C1460.3 1312.49 1461.25 1313.18 1462.34 1313.47C1463.44 1313.75 1464.6 1313.6 1465.59 1313.06C1466.57 1312.48 1467.28 1311.54 1467.57 1310.44C1467.85 1309.33 1467.69 1308.17 1467.12 1307.18C1456.25 1292.39 1456.45 1270.11 1468.53 1255.95C1471.11 1252.93 1475.3 1248.77 1478.84 1249.92C1478.84 1249.92 1479.82 1250.46 1479.54 1250.25C1480.07 1250.63 1480.53 1251.11 1480.88 1251.66C1481.72 1252.99 1482.21 1254.52 1482.31 1256.09C1482.47 1257.75 1482.17 1259.43 1481.46 1260.94C1480.75 1262.45 1479.64 1263.75 1478.25 1264.68C1474.34 1267.27 1469.84 1268.8 1465.16 1269.15C1454.46 1270.52 1441.76 1271 1432.32 1265.02C1428.6 1262.52 1425.5 1259.21 1423.24 1255.34C1420.98 1251.48 1419.62 1247.15 1419.26 1242.69C1418.92 1238 1419.55 1233.29 1421.12 1228.85C1422.69 1224.42 1425.16 1220.35 1428.38 1216.92C1431.69 1213.3 1435.59 1210.26 1439.93 1207.95C1443.22 1206.24 1449.41 1202.92 1452.95 1205.34C1455.95 1207.4 1455.59 1212.21 1454.49 1215.41C1453.17 1218.91 1450.84 1221.95 1447.79 1224.14C1440.77 1229.29 1431.47 1231.11 1422.9 1231.21C1412.11 1231.35 1400.67 1229.5 1392.32 1222.13C1385.38 1215.96 1380.86 1207.53 1379.57 1198.33C1377 1179.19 1391.03 1160.92 1409.21 1155.93C1413.07 1154.77 1417.18 1154.67 1421.1 1155.66C1424.53 1156.57 1427.45 1158.42 1427.97 1161.95C1428.57 1166.53 1425.2 1171.33 1422.16 1174.44C1418.96 1177.64 1415.1 1180.12 1410.84 1181.69C1400.53 1185.55 1389.54 1184.81 1379.02 1181.99C1372.84 1180.25 1366.76 1178.13 1360.83 1175.64C1358.27 1174.61 1355.68 1173.63 1353.19 1172.41C1351.16 1171.62 1349.41 1170.25 1348.17 1168.47C1347.17 1166.11 1346.82 1163.53 1347.16 1160.98C1347.22 1158.68 1347.4 1156.39 1347.72 1154.11C1348.44 1149.17 1349.68 1144.31 1351.42 1139.63C1354.67 1130.66 1360.12 1122.66 1367.27 1116.35C1370.87 1113.29 1374.93 1110.81 1379.3 1109C1380.28 1108.42 1380.99 1107.48 1381.27 1106.38C1381.56 1105.27 1381.4 1104.11 1380.83 1103.12C1380.24 1102.16 1379.29 1101.46 1378.2 1101.17C1377.11 1100.88 1375.94 1101.03 1374.95 1101.58L1374.92 1101.37Z" fill="#FFD4B0"/>
</g>
<g opacity="0.4">
<path d="M1284.74 1047.79C1288.17 1043.45 1292.48 1039.88 1297.39 1037.33C1302.29 1034.77 1307.69 1033.28 1313.21 1032.95C1314.34 1032.93 1315.42 1032.47 1316.22 1031.67C1317.02 1030.87 1317.48 1029.79 1317.5 1028.65C1317.49 1027.52 1317.03 1026.43 1316.23 1025.63C1315.43 1024.83 1314.34 1024.37 1313.21 1024.36C1306.2 1024.73 1299.35 1026.63 1293.15 1029.93C1286.95 1033.22 1281.55 1037.84 1277.32 1043.45C1276.76 1044.43 1276.61 1045.6 1276.9 1046.7C1277.19 1047.8 1277.89 1048.74 1278.87 1049.32C1279.86 1049.87 1281.02 1050.01 1282.11 1049.73C1283.2 1049.44 1284.14 1048.75 1284.74 1047.79Z" fill="#FCC69D"/>
</g>
<g opacity="0.4">
<path d="M1531.72 1119.94C1542.71 1123.72 1554.5 1124.6 1565.94 1122.49C1577.37 1120.38 1588.07 1115.36 1597 1107.92C1597.8 1107.11 1598.25 1106.02 1598.25 1104.88C1598.25 1103.75 1597.8 1102.66 1597 1101.85C1596.18 1101.06 1595.09 1100.62 1593.96 1100.62C1592.82 1100.62 1591.73 1101.06 1590.92 1101.85C1583.07 1108.25 1573.7 1112.52 1563.72 1114.25C1553.74 1115.98 1543.48 1115.1 1533.93 1111.71C1532.83 1111.42 1531.66 1111.57 1530.67 1112.14C1529.68 1112.7 1528.95 1113.63 1528.64 1114.72C1528.36 1115.82 1528.52 1116.98 1529.08 1117.97C1529.64 1118.95 1530.56 1119.68 1531.65 1119.99L1531.72 1119.94Z" fill="#FCC69D"/>
</g>
<g opacity="0.4">
<path d="M1539.26 1221.05C1534.42 1233.91 1532.74 1247.74 1534.38 1261.38C1534.41 1262.51 1534.87 1263.59 1535.67 1264.39C1536.47 1265.19 1537.55 1265.65 1538.67 1265.68C1539.81 1265.67 1540.9 1265.21 1541.7 1264.41C1542.51 1263.61 1542.96 1262.52 1542.97 1261.38C1541.39 1248.52 1542.95 1235.46 1547.54 1223.33C1547.83 1222.23 1547.68 1221.06 1547.12 1220.07C1546.56 1219.09 1545.63 1218.36 1544.53 1218.06C1543.44 1217.78 1542.28 1217.93 1541.3 1218.49C1540.31 1219.05 1539.58 1219.96 1539.26 1221.05Z" fill="#FCC69D"/>
</g>
<path d="M1367.5 541.657C1430.14 541.657 1480.92 490.877 1480.92 428.237C1480.92 365.596 1430.14 314.816 1367.5 314.816C1304.86 314.816 1254.08 365.596 1254.08 428.237C1254.08 490.877 1304.86 541.657 1367.5 541.657Z" fill="#FFF3E5"/>
<mask id="mask3_142_1496" style="mask-type:alpha" maskUnits="userSpaceOnUse" x="1254" y="314" width="227" height="228">
<path d="M1367.5 541.657C1430.14 541.657 1480.92 490.877 1480.92 428.237C1480.92 365.596 1430.14 314.816 1367.5 314.816C1304.86 314.816 1254.08 365.596 1254.08 428.237C1254.08 490.877 1304.86 541.657 1367.5 541.657Z" fill="#FFF3E5"/>
</mask>
<g mask="url(#mask3_142_1496)">
<path d="M1313.55 328.459C1313.55 328.459 1260.55 488.075 1460.32 512.281L1368.49 594.967L1255.74 574.489L1199.05 512.281L1193.9 450.091L1229.01 379.104L1255.74 340.983L1291.29 319.938L1313.62 328.527" fill="#FFE7CF"/>
</g>
<g opacity="0.7">
<path d="M1368.34 541.657C1390.28 541.657 1408.07 490.877 1408.07 428.237C1408.07 365.596 1390.28 314.816 1368.34 314.816C1346.39 314.816 1328.6 365.596 1328.6 428.237C1328.6 490.877 1346.39 541.657 1368.34 541.657Z" stroke="#FCC69D" stroke-width="1.71797" stroke-miterlimit="10"/>
<path d="M1367.5 471.957C1429.23 471.957 1479.27 453.936 1479.27 431.705C1479.27 409.475 1429.23 391.453 1367.5 391.453C1305.77 391.453 1255.73 409.475 1255.73 431.705C1255.73 453.936 1305.77 471.957 1367.5 471.957Z" stroke="#FCC69D" stroke-width="1.71797" stroke-miterlimit="10"/>
<path d="M1367.5 512.21C1429.23 512.21 1479.27 475.513 1479.27 430.245C1479.27 384.978 1429.23 348.281 1367.5 348.281C1305.77 348.281 1255.73 384.978 1255.73 430.245C1255.73 475.513 1305.77 512.21 1367.5 512.21Z" stroke="#FCC69D" stroke-width="1.71797" stroke-miterlimit="10"/>
<path d="M1368.48 534.89C1413.94 534.89 1450.8 486.771 1450.8 427.414C1450.8 368.056 1413.94 319.938 1368.48 319.938C1323.01 319.938 1286.15 368.056 1286.15 427.414C1286.15 486.771 1323.01 534.89 1368.48 534.89Z" stroke="#FCC69D" stroke-width="1.71797" stroke-miterlimit="10"/>
<path d="M1255.73 430.246H1479.27" stroke="#FCC69D" stroke-width="1.71797" stroke-miterlimit="10"/>
</g>
<path d="M1418 575.537C1413.9 565.229 1420.29 553.1 1429.91 548.359C1434.87 546.038 1440.38 545.151 1445.82 545.799C1451.24 546.369 1456.46 548.129 1461.13 550.953L1459.96 552.018C1453.09 535.336 1476.31 515.597 1492.26 520.648C1479.34 518.037 1466.49 527.76 1461.59 539.236C1460.73 541.122 1460.28 543.165 1460.26 545.235C1460.23 547.305 1460.64 549.357 1461.45 551.262L1462.64 553.702C1453.29 547.654 1440.96 544.665 1430.51 549.561C1421.15 553.856 1414.76 565.263 1418 575.468V575.537Z" fill="#FCC69D"/>
<path d="M1474.97 310.645C1468.67 317.791 1462.52 326.106 1461.54 335.83C1459.73 356.875 1482.79 368.471 1501.05 368.145C1509.23 368.145 1517.92 364.967 1522.35 357.837C1522.83 356.995 1523.21 356.119 1522.35 355.501C1518.49 353.336 1513.11 354.59 1509.31 356.6C1496.43 363.472 1493.66 381.751 1500.6 393.88C1502.93 398.109 1505.62 402.132 1508.63 405.906C1513.78 412.211 1520.53 418.224 1528.93 419.134C1533.69 419.07 1538.41 418.264 1542.92 416.746C1543.43 416.596 1543.93 416.382 1544.4 416.111C1544.4 416.111 1544.55 415.956 1544.4 416.111C1544.36 416.2 1544.36 416.297 1544.37 416.391C1544.39 416.485 1544.44 416.572 1544.5 416.643C1533.06 417.571 1516.58 419.976 1508.51 430.782C1504.66 436.163 1501.91 442.256 1500.44 448.706C1498.97 455.156 1498.79 461.835 1499.92 468.354C1501.38 476.944 1505.36 485.929 1513.42 490.086C1509.43 488.042 1506.14 484.862 1503.95 480.947C1495.14 465.279 1497.25 444.594 1507.56 430.095C1515.91 418.859 1531 416.643 1543.88 415.063C1544.65 415.063 1546.16 415.492 1545.77 416.626C1545.65 416.918 1545.44 417.16 1545.17 417.313C1543.45 418.149 1541.63 418.761 1539.76 419.134C1537.37 419.701 1534.96 420.165 1532.52 420.509C1527.46 421.011 1522.39 419.709 1518.2 416.832C1509.83 411.455 1503.94 403.191 1499.06 394.722C1491.6 381.837 1494.78 362.561 1508.49 355.209C1511.84 353.344 1515.69 352.575 1519.5 353.01C1521.31 353.199 1524.45 354.058 1524.26 356.6C1523.73 358.53 1522.68 360.277 1521.22 361.651C1516.07 367.234 1508.3 369.674 1500.91 369.588C1482.02 369.725 1458.43 357.459 1460.75 335.83C1461.95 325.986 1468.27 317.808 1474.77 310.713L1474.97 310.645Z" fill="#FCC69D"/>
<path d="M1494.18 304.703C1490.4 309.015 1486.55 313.551 1484.9 319.1C1483.25 324.649 1484.18 330.816 1488.44 334.836C1483.03 331.727 1481.57 324.305 1483.29 318.601C1485.3 312.894 1489.13 308.009 1494.2 304.703H1494.18Z" fill="#FCC69D"/>
<path d="M1233.08 468.272C1233.29 459.372 1231.22 450.566 1227.07 442.689C1222.92 434.813 1216.83 428.125 1209.37 423.261L1211.8 423.794C1222.84 426.216 1236.83 420.736 1240.38 409.431C1241.11 405.621 1240.95 401.692 1239.9 397.955C1238.1 390.302 1234.35 383.247 1229.01 377.478C1223.66 371.709 1216.92 367.423 1209.43 365.039L1210.01 363.459C1230.94 372.908 1255.93 363.459 1269.01 345.403C1278.75 333.188 1279.02 322.176 1273.87 307.831L1273.37 306.388L1274.61 307.281C1281.4 311.906 1289.49 314.223 1297.7 313.889C1305.91 313.555 1313.79 310.587 1320.18 305.426C1313.82 310.805 1305.88 313.972 1297.56 314.453C1289.23 314.933 1280.98 312.7 1274.04 308.089L1274.79 307.522C1280.26 322.124 1280.09 333.686 1270.17 346.279C1256.84 364.867 1230.87 374.814 1209.32 365.005L1209.92 363.424C1217.68 365.928 1224.65 370.401 1230.16 376.405C1235.67 382.409 1239.53 389.74 1241.36 397.681C1242.45 401.652 1242.6 405.823 1241.79 409.861C1237.88 421.887 1223.22 427.505 1211.57 424.824L1211.97 423.931C1218.87 429.018 1224.41 435.732 1228.1 443.477C1231.78 451.222 1233.49 459.757 1233.08 468.323V468.272Z" fill="#FCC69D"/>
<path d="M1243.68 500.754C1256.14 501.063 1265.21 515.941 1259.14 527.073C1257 531.643 1249.83 535.663 1245.85 530.87C1243.73 527.812 1246.29 523.998 1248.84 522.28C1250.56 521.162 1252.48 520.395 1254.5 520.024C1256.51 519.652 1258.58 519.683 1260.59 520.115C1264.51 520.866 1268.12 522.791 1270.93 525.634C1273.74 528.477 1275.62 532.106 1276.32 536.041C1275.36 532.322 1273.34 528.962 1270.51 526.365C1267.67 523.769 1264.15 522.046 1260.36 521.404C1255.21 520.614 1248.24 522.246 1246.77 527.692C1246.69 528.074 1246.69 528.47 1246.76 528.854C1246.84 529.239 1246.99 529.603 1247.21 529.926C1247.43 530.248 1247.72 530.521 1248.05 530.728C1248.39 530.935 1248.76 531.071 1249.15 531.128C1252.58 532.004 1256.14 529.41 1257.74 526.334C1263.46 515.889 1255.48 502.128 1243.7 500.771L1243.68 500.754Z" fill="#FCC69D"/>
<ellipse cx="1370.3" cy="164.066" rx="95.4753" ry="16.9336" fill="#FFF3E5"/>
<path d="M1368.34 314.82L1368.34 164.066" stroke="#FCC69D" stroke-width="2.72" stroke-miterlimit="10"/>
<path d="M1460.38 644.986C1461.23 640.716 1462.26 636.496 1463.94 632.466C1465.73 628.176 1468.1 623.726 1470.35 619.516C1472.6 615.306 1475.45 611.246 1478 607.086C1480.69 602.696 1483.26 598.216 1486.37 594.106C1488.93 590.726 1492 587.576 1495.58 585.286C1497.4 584.126 1499.3 583.176 1501.36 582.556C1503.42 581.936 1504.77 581.736 1506.9 581.826C1508.62 581.896 1510.23 582.236 1512.07 582.926C1513.39 583.426 1515.2 584.516 1516.26 585.496C1519 588.026 1520.16 591.496 1519.64 595.606C1518.94 601.226 1516 606.446 1513.97 611.656C1511.77 617.316 1510.06 623.156 1508.83 629.096C1508.5 630.686 1509.29 632.336 1510.93 632.786C1512.42 633.196 1514.29 632.286 1514.62 630.686C1515.78 625.046 1517.38 619.506 1519.42 614.116C1521.33 609.066 1523.93 604.206 1525.1 598.906C1526.27 593.606 1525.9 588.166 1522.71 583.796C1520.04 580.146 1516.08 577.646 1511.71 576.526C1501.94 574.006 1492.43 578.826 1485.69 585.716C1481.93 589.556 1478.92 594.066 1476.11 598.616C1474.68 600.936 1473.29 603.286 1471.84 605.606C1470.47 607.796 1468.96 609.896 1467.62 612.106C1464.53 617.206 1461.8 622.636 1459.34 628.076C1457.1 633.016 1455.63 638.076 1454.57 643.396C1454.25 644.986 1455.02 646.636 1456.67 647.086C1458.15 647.496 1460.04 646.586 1460.36 644.986H1460.38Z" fill="#9D6434"/>
<path d="M1522.57 609.343C1530.91 606.593 1539.68 605.193 1548.42 604.493C1557.27 603.783 1566.44 603.513 1575.26 604.723C1583.44 605.843 1591.92 608.993 1596.03 616.613C1596.84 618.123 1597.51 620.053 1597.7 621.603C1597.89 623.153 1598.01 625.393 1597.17 626.423C1597 626.633 1596.85 626.743 1596.7 626.813C1596.46 626.933 1595.9 627.083 1595.52 627.143C1594.86 627.263 1593.67 627.253 1592.79 627.243C1590.19 627.223 1587.59 627.273 1584.99 627.413C1573.31 628.023 1561.71 630.203 1550.61 633.903C1549.07 634.413 1548.07 635.973 1548.51 637.593C1548.92 639.093 1550.66 640.203 1552.2 639.693C1562.57 636.233 1573.36 634.093 1584.28 633.463C1587.11 633.303 1589.95 633.243 1592.79 633.263C1595.12 633.273 1597.6 633.183 1599.69 632.013C1604.31 629.403 1604.34 622.983 1603.16 618.463C1600.62 608.703 1591.71 602.483 1582.39 600.053C1573.07 597.623 1562.86 597.723 1553.27 598.203C1542.41 598.753 1531.34 600.173 1520.98 603.583C1519.44 604.093 1518.44 605.653 1518.88 607.273C1519.29 608.783 1521.03 609.883 1522.57 609.373V609.343Z" fill="#9D6434"/>
<path d="M1596.52 633.435C1599.07 634.555 1601.6 635.735 1604.08 637.015C1605.27 637.625 1606.45 638.265 1607.6 638.955C1608.17 639.295 1608.74 639.645 1609.3 640.025C1609.55 640.195 1609.81 640.375 1610.05 640.545C1610.34 640.765 1610.36 640.775 1610.12 640.595C1610.26 640.705 1610.39 640.815 1610.53 640.935C1612.76 642.835 1614.61 645.265 1615.34 648.135C1615.91 650.355 1615.71 653.195 1613.6 654.065C1610.98 655.145 1607.38 654.625 1604.48 654.515C1600.92 654.385 1597.36 654.155 1593.8 653.935C1586.72 653.495 1579.62 653.045 1572.53 653.385C1564.31 653.775 1556.28 655.295 1548.77 658.745C1547.3 659.425 1546.93 661.545 1547.69 662.845C1548.57 664.355 1550.32 664.605 1551.79 663.925C1565.42 657.665 1581.05 659.145 1595.57 660.045C1599.34 660.275 1603.12 660.505 1606.89 660.595C1610.36 660.675 1614.3 660.835 1617.33 658.845C1624.55 654.085 1621.41 643.995 1616.73 638.665C1614.47 636.085 1611.55 634.255 1608.56 632.635C1605.57 631.015 1602.59 629.625 1599.53 628.275C1598.05 627.625 1596.31 627.845 1595.43 629.355C1594.68 630.625 1595.02 632.805 1596.51 633.455L1596.52 633.435Z" fill="#9D6434"/>
<path d="M1556.24 694.403C1565.88 690.643 1576.03 688.513 1586.2 686.763C1591.31 685.883 1596.43 685.093 1601.55 684.223C1604 683.803 1606.71 683.613 1609 682.583C1611.55 681.433 1612.7 678.893 1613.64 676.413C1615.65 671.093 1615.77 665.073 1614.18 659.633C1613.1 655.933 1607.31 657.503 1608.39 661.233C1609.57 665.303 1609.55 669.553 1608.27 673.603C1607.97 674.563 1607.62 675.513 1607.13 676.393C1606.71 677.143 1606.38 677.253 1605.53 677.443C1603.24 677.963 1600.89 678.293 1598.58 678.683C1589.13 680.273 1579.63 681.623 1570.3 683.833C1564.98 685.093 1559.74 686.643 1554.65 688.633C1553.14 689.223 1552.09 690.643 1552.55 692.323C1552.95 693.763 1554.72 695.013 1556.24 694.423V694.403Z" fill="#9D6434"/>
<path d="M1517.79 734.727C1526.93 724.367 1538.98 716.827 1552.29 713.107C1555.54 712.197 1558.9 711.477 1562.22 711.057C1566.13 710.567 1570.05 710.527 1573.99 710.447C1577.93 710.367 1582.16 710.317 1585.96 709.067C1589.19 708.007 1592.34 706.247 1594.68 703.747C1597.52 700.717 1598.68 696.547 1599.79 692.637C1601.01 688.307 1601.15 684.037 1598.22 680.387C1597.2 679.127 1595.04 679.327 1593.98 680.387C1592.73 681.637 1592.96 683.357 1593.98 684.627C1594.63 685.437 1594.73 686.547 1594.67 687.697C1594.6 689.177 1594.11 690.797 1593.64 692.287C1592.63 695.507 1592.03 698.107 1589.7 700.247C1587.76 702.027 1585.21 703.207 1582.54 703.777C1578.73 704.597 1574.69 704.427 1570.81 704.497C1556.83 704.767 1543.2 708.477 1531.21 715.757C1524.64 719.747 1518.64 724.717 1513.55 730.477C1512.48 731.687 1512.35 733.527 1513.55 734.717C1514.64 735.807 1516.72 735.937 1517.79 734.717V734.727Z" fill="#9D6434"/>
<path d="M314.245 1752.41H1751.44" stroke="#255DE8" stroke-width="11" stroke-miterlimit="10" stroke-linecap="round"/>
<path d="M314.245 1812.69H964.169" stroke="#255DE8" stroke-width="11" stroke-miterlimit="10" stroke-linecap="round"/>
<path d="M1598.31 1812.69H1750.41" stroke="#255DE8" stroke-width="11" stroke-miterlimit="10" stroke-linecap="round"/>
</svg>
