<svg width="2013" height="2055" viewBox="0 0 2013 2055" fill="none" xmlns="http://www.w3.org/2000/svg">
<rect opacity="0.7" x="103.307" y="668.482" width="1783.72" height="1150.19" fill="url(#paint0_linear_209_3)"/>
<path d="M487.71 377.153C485.055 381.324 484.91 369.015 480.691 369.131C475.748 369.266 474.088 376.265 473.296 381.15C472.891 383.651 472.649 386.267 473.46 388.671C476.105 396.462 487.989 396.539 494.197 391.142C500.405 385.746 502.982 377.414 507.124 370.299C520.456 347.419 553.434 338.759 576.285 352.149C574.905 340.845 580.755 329.337 589.811 322.434C598.866 315.522 610.702 312.886 622.075 313.572C647.194 315.078 671.639 335.815 671.416 360.983C680.742 344.417 707.523 341.858 719.812 356.368C732.092 370.878 725.161 396.877 707.281 403.335C700.601 405.749 693.312 405.681 686.216 405.594L500.965 403.161C500.965 403.161 460.669 410.064 465.756 380.706C470.854 351.348 495.317 365.221 487.729 377.153H487.71Z" fill="#FCF2E6"/>
<path d="M1322.65 425.656C1320.91 428.378 1320.83 420.336 1318.06 420.414C1314.84 420.5 1313.75 425.077 1313.23 428.272C1312.97 429.904 1312.8 431.622 1313.33 433.186C1315.06 438.274 1322.82 438.322 1326.89 434.798C1330.94 431.274 1332.63 425.82 1335.34 421.176C1344.05 406.222 1365.6 400.565 1380.55 409.311C1379.65 401.916 1383.46 394.406 1389.39 389.887C1395.31 385.369 1403.04 383.651 1410.47 384.095C1426.89 385.08 1442.87 398.634 1442.72 415.085C1448.81 404.253 1466.32 402.583 1474.34 412.073C1482.38 421.553 1477.84 438.544 1466.16 442.772C1461.79 444.346 1457.03 444.307 1452.39 444.249C1412.03 443.718 1371.66 443.188 1331.31 442.666C1331.31 442.666 1304.97 447.175 1308.29 427.992C1311.63 408.8 1327.62 417.865 1322.66 425.675L1322.65 425.656Z" fill="#FCF2E6"/>
<path d="M376.282 669.834C378.319 673.03 378.425 663.598 381.669 663.685C385.454 663.791 386.738 669.159 387.336 672.904C387.645 674.825 387.838 676.833 387.211 678.668C385.183 684.644 376.07 684.702 371.31 680.56C366.551 676.418 364.572 670.027 361.396 664.583C351.172 647.031 325.878 640.399 308.356 650.661C309.409 641.992 304.929 633.168 297.978 627.868C291.027 622.568 281.953 620.55 273.235 621.072C253.965 622.221 235.227 638.13 235.391 657.429C228.247 644.724 207.703 642.764 198.281 653.886C188.858 665.017 194.178 684.953 207.887 689.905C213.013 691.759 218.593 691.71 224.047 691.633C271.401 691.015 318.763 690.388 366.117 689.77C366.117 689.77 397.019 695.06 393.119 672.547C389.209 650.034 370.451 660.673 376.273 669.825L376.282 669.834Z" fill="#FCF2E6"/>
<path d="M1798.25 649.215C1800.9 653.395 1801.05 641.067 1805.28 641.182C1810.22 641.318 1811.89 648.336 1812.68 653.221C1813.09 655.721 1813.33 658.347 1812.52 660.751C1809.87 668.552 1797.97 668.629 1791.75 663.223C1785.53 657.816 1782.96 649.466 1778.8 642.351C1765.45 619.432 1732.42 610.762 1709.54 624.172C1710.92 612.848 1705.07 601.33 1695.99 594.409C1686.92 587.496 1675.07 584.851 1663.68 585.536C1638.52 587.042 1614.04 607.818 1614.26 633.025C1604.92 616.429 1578.1 613.871 1565.8 628.4C1553.5 642.93 1560.44 668.967 1578.35 675.445C1585.04 677.868 1592.34 677.8 1599.45 677.704C1661.29 676.893 1723.15 676.082 1784.99 675.271C1784.99 675.271 1825.36 682.183 1820.25 652.777C1815.15 623.371 1790.64 637.263 1798.25 649.224V649.215Z" fill="#FCF2E6"/>
<path d="M1075.37 1197.68C1071.92 1201.99 1070.51 1207.57 1071.49 1213.01C1071.69 1214.13 1073.4 1213.66 1073.2 1212.54C1072.34 1207.79 1073.61 1202.7 1076.63 1198.92C1077.33 1198.05 1076.09 1196.78 1075.37 1197.67V1197.68Z" fill="#9D6434"/>
<path d="M873.254 1241.32C867.326 1240.66 861.736 1237.96 857.498 1233.78C856.687 1232.98 855.432 1234.23 856.243 1235.03C860.829 1239.57 866.843 1242.39 873.244 1243.09C874.373 1243.22 874.364 1241.45 873.244 1241.33L873.254 1241.32Z" fill="#9D6434"/>
<path d="M867.075 1252.8C859.844 1249.98 851.6 1250.51 844.726 1254.09C843.713 1254.62 844.61 1256.14 845.614 1255.61C852.092 1252.23 859.796 1251.86 866.593 1254.5C867.655 1254.92 868.118 1253.21 867.066 1252.79L867.075 1252.8Z" fill="#9D6434"/>
<path d="M979.304 1529.93C979.304 1529.93 887.957 1515.55 898.403 1563.96C910.702 1620.97 1031.93 1742.16 1138.54 1741.81C1138.54 1741.81 1241.91 1786.76 1256.04 1701.36C1256.04 1701.36 1135.86 1698.21 988.832 1532.55L985.733 1528.54L979.313 1529.93H979.304Z" fill="#117AF6"/>
<path d="M1729.33 834.872C1673.01 874.521 1660.29 922.782 1623.49 985.495C1445.01 1072.55 1257.65 1148.39 1257.65 1148.39L1557.86 1158.62C1588.4 1140.72 1618.75 1117.05 1642.14 1113.1C1642.33 1112.44 1697.28 1105.12 1697.47 1104.45C1697.47 1104.45 1738.02 1108.66 1736.68 982.685C1736.68 982.685 1768.69 807.146 1729.33 834.862V834.872Z" fill="#DE9E40"/>
<path opacity="0.79" d="M1293.7 1134.65C1293.7 1134.65 1403.65 1124.23 1487.46 1122.64C1565.63 1121.15 1587.37 1131.41 1618.21 1122.64C1618.21 1122.64 1599.13 1129.24 1556.23 1158.63H1246.28C1246.28 1158.63 1256.89 1149.95 1293.7 1134.65Z" fill="#CC8F3F"/>
<path d="M1512.71 1282.06C1512.71 1282.06 1564.15 1522.06 1435.82 1648.69C1426.05 1648.69 1472.53 1456.21 1339.92 1297.17C1339.92 1297.17 1371.45 1292.2 1512.72 1282.06H1512.71Z" fill="#DE9E40"/>
<path d="M973.173 1332.8C985.077 1340.21 998.351 1339.8 995.947 1340.1L973.173 1332.8Z" fill="#E7AB43"/>
<path opacity="0.74" d="M1378.52 1345.89C1378.52 1345.89 1492.09 1296.76 1506.67 1349.14C1530.16 1433.58 1489.39 1540.66 1480.11 1557.51C1480.11 1557.51 1439.02 1638.55 1435.82 1648.69C1435.82 1648.69 1505.81 1600.53 1519.9 1442.57C1528.21 1349.46 1512.72 1283.67 1512.72 1283.67L1339.92 1291.81L1334.87 1321.07L1378.52 1345.88V1345.89Z" fill="#CC8F3F"/>
<path d="M1786.51 1216.19C1800.9 1184.05 1800.26 1183.87 1814.74 1150.23C1850.05 1068.25 1843.75 1014.05 1804.65 1059.42C1782.23 1085.43 1722.04 1146.45 1672.21 1157.8C1622.39 1169.15 1268.03 1111.18 1163.34 1165.42C1118.46 1188.67 1153.09 1312.72 1153.09 1312.72C1115.31 1303.34 1066.2 1315.87 1055.67 1319.47C1053.56 1320.18 1051.23 1319.9 1049.37 1318.68C1049.17 1318.54 1048.97 1318.41 1048.77 1318.27C1044.93 1315.57 1044.49 1310.08 1047.87 1306.82C1057.44 1297.56 1056.98 1276.13 1056.98 1276.13C1058.45 1246.18 1040.15 1224.09 1028.03 1212.83C1024.43 1209.49 1025.06 1203.66 1029.22 1201.04C1044.64 1191.34 1048.74 1164.1 1017.7 1161.34C979.864 1157.99 965.489 1201.1 979.864 1193.43C992.742 1186.56 994.229 1140.75 957.833 1162.3C921.437 1183.86 935.05 1213.54 935.05 1213.54C935.05 1213.54 944.655 1217.05 934.364 1197.26C928.321 1185.65 900.488 1221.59 903.838 1252.24C904.91 1262.04 905.943 1262.33 909.196 1274.82C912.092 1285.91 916.89 1295.07 921.901 1302.29C928.9 1312.39 936.797 1318.26 947.619 1324.07C964.977 1333.38 971.831 1339.22 973.984 1348.31C975.037 1352.75 971.889 1357.07 967.352 1357.45C939.008 1359.83 818.467 1398.27 744.314 1470.51C679.439 1533.69 939.133 1509.17 969.93 1512.02C972.015 1512.21 973.907 1513.25 975.172 1514.92C1019.3 1573.22 1104.18 1649.82 1180.99 1683.77C1247.89 1713.35 1330.79 1704.28 1377.75 1689.66C1419.41 1676.69 1502.11 1604.98 1463.13 1491.11C1437.77 1417.04 1378.15 1345.21 1356.52 1317.99C1339.94 1297.14 1403.84 1299.57 1411.82 1298.36C1463.95 1290.52 1487.82 1290.27 1497.84 1290.93C1505.54 1291.44 1513.25 1291.78 1520.96 1291.81C1566.8 1291.98 1594.2 1292.86 1620.05 1293.8C1637.19 1294.42 1668.64 1297.2 1680.44 1297.7C1707.85 1298.86 1735.51 1298.84 1742.28 1292.18C1767.54 1267.32 1776.13 1239.38 1786.53 1216.15L1786.51 1216.19Z" fill="#F2A91F"/>
<path d="M1012.78 1235.29C1017.42 1232 1020.2 1226.74 1022.85 1221.72L1022.92 1221.59L1012.78 1235.29ZM1012.78 1235.29C1012.57 1235.43 1012.36 1235.57 1012.15 1235.71L1012.15 1235.71C1012.11 1235.74 1012.07 1235.76 1012.03 1235.79L1011.88 1235.9L1011.89 1235.92C1011.16 1236.58 1010.86 1237.65 1011.41 1238.6L1011.41 1238.6C1011.9 1239.45 1013.05 1239.9 1014 1239.52L1014.02 1239.56L1014.33 1239.35C1014.49 1239.25 1014.65 1239.14 1014.8 1239.03C1019.46 1236 1025.45 1234.07 1031.21 1234.28C1031.87 1234.31 1032.4 1234.08 1032.77 1233.7C1033.13 1233.32 1033.31 1232.82 1033.33 1232.32C1033.34 1231.82 1033.19 1231.31 1032.85 1230.91C1032.51 1230.51 1031.99 1230.24 1031.33 1230.21L1031.33 1230.21C1028.3 1230.1 1025.21 1230.46 1022.23 1231.22C1023.86 1228.81 1025.25 1226.24 1026.59 1223.71L1026.59 1223.71C1027.23 1222.5 1026.61 1221.36 1025.73 1220.84C1025.29 1220.58 1024.75 1220.46 1024.23 1220.56C1023.71 1220.67 1023.23 1221 1022.92 1221.59L1012.78 1235.29Z" fill="#9D6434" stroke="#9D6434" stroke-width="0.7"/>
<path d="M979.593 1252.93L979.394 1252.64C979.363 1252.66 979.331 1252.68 979.3 1252.71L979.288 1252.69L979.192 1252.78C972.596 1257.29 964.939 1260.08 956.965 1260.73L956.965 1260.73C955.615 1260.84 954.949 1261.97 954.945 1262.99C954.943 1263.5 955.104 1264.02 955.457 1264.41C955.816 1264.8 956.345 1265.02 957.007 1264.97H957.017L957.031 1264.97C961.562 1264.6 966.013 1263.64 970.258 1262.11C967.04 1266.1 964.39 1270.52 962.989 1275.57L962.989 1275.57C962.81 1276.22 962.924 1276.79 963.226 1277.24C963.522 1277.69 963.986 1277.99 964.481 1278.12C964.976 1278.26 965.528 1278.24 966.009 1278.01C966.499 1277.78 966.893 1277.34 967.071 1276.69C969.385 1268.37 975.568 1261.96 981.794 1256.13L981.891 1256.07L981.881 1256.05C981.912 1256.02 981.944 1256 981.975 1255.97L981.976 1255.96C982.865 1255.13 982.688 1253.93 982.11 1253.17C981.817 1252.78 981.403 1252.47 980.922 1252.35C980.432 1252.22 979.895 1252.29 979.394 1252.64L979.593 1252.93ZM979.593 1252.93C981.263 1251.77 983.175 1254.36 981.736 1255.71L979.514 1252.98C979.54 1252.97 979.567 1252.95 979.593 1252.93Z" fill="#9D6434" stroke="#9D6434" stroke-width="0.7"/>
<path d="M1069.03 1191.31C1067.38 1195.09 1064.51 1198.21 1060.86 1200.15C1059.86 1200.68 1060.74 1202.22 1061.75 1201.68C1065.63 1199.62 1068.79 1196.23 1070.54 1192.2C1070.74 1191.76 1070.67 1191.25 1070.23 1190.99C1069.85 1190.77 1069.21 1190.87 1069.02 1191.31H1069.03Z" fill="#9D6434"/>
<path d="M928.89 1429.59C928.89 1429.59 769.164 1440.56 735.635 1481.12C702.116 1521.69 723.123 1602.1 796.485 1581.17C856.282 1564.11 926.728 1548.58 968.974 1537.77C1046.46 1517.94 1066.76 1516.51 1054.88 1506.15C1037.55 1491.03 1068.51 1456.3 1019.96 1436.27C971.406 1416.24 928.89 1429.59 928.89 1429.59Z" fill="#F2A91F"/>
<path opacity="0.6" d="M780.691 1584.28C812.366 1577.44 805.27 1578.6 838.065 1569.85C870.859 1561.11 937.202 1545.93 937.202 1545.93L932.703 1546.33C906.84 1548.65 881.122 1552.01 855.664 1556.62C821.74 1562.75 803.648 1564.53 779.281 1564.8C759.287 1565.02 742.982 1558.38 735.741 1532.07C733.337 1523.33 734.631 1493.75 735.635 1481.13C735.635 1481.13 706.605 1519.9 727.613 1557.76C745.27 1589.58 780.691 1584.29 780.691 1584.29V1584.28Z" fill="#CC8F3F"/>
<path d="M1142.65 1274.45C1145.15 1294.73 1149.99 1315.07 1156.35 1334.48C1159.65 1344.55 1164.2 1354.11 1168.53 1363.77C1173.69 1375.26 1178.89 1386.73 1184.22 1398.13C1200.7 1433.45 1218.4 1468.25 1240.08 1500.71C1251.82 1518.29 1264.58 1535.16 1277.79 1551.65C1279.56 1553.87 1282.68 1550.72 1280.92 1548.52C1258.2 1520.14 1237.35 1490.49 1219.65 1458.7C1210.04 1441.43 1201.21 1423.72 1192.74 1405.86C1187.79 1395.46 1182.98 1384.99 1178.22 1374.51C1173.08 1363.18 1167.45 1351.9 1163.06 1340.25C1155.18 1319.36 1149.81 1296.6 1147.08 1274.45C1146.73 1271.66 1142.31 1271.63 1142.66 1274.45H1142.65Z" fill="#9D6434"/>
<path d="M931.929 1192.25C931.91 1192.84 931.889 1193.43 931.867 1194.01C930.552 1193.78 929.173 1193.87 927.983 1194.37C925.707 1195.32 923.266 1197.07 921.916 1199.18C921.653 1199.58 921.612 1200 921.731 1200.36C921.848 1200.72 922.114 1201.02 922.436 1201.2C923.076 1201.58 924.009 1201.56 924.54 1200.73C925.427 1199.35 926.978 1198.38 928.419 1197.56L928.42 1197.56C929.431 1196.98 930.634 1196.82 931.75 1197.11C931.658 1199.85 931.617 1202.6 931.828 1205.32L931.828 1205.32C931.935 1206.7 932.11 1208.09 932.572 1209.42C932.64 1209.62 932.707 1209.82 932.774 1210.02C933.439 1212.01 934.128 1214.07 936.242 1215.14L936.243 1215.14C938.336 1216.19 940.673 1215.5 941.972 1213.62C943.286 1211.72 943.196 1209.32 942.399 1207.28L942.398 1207.28C941.945 1206.14 941.368 1205.04 940.774 1203.95C940.647 1203.72 940.519 1203.49 940.392 1203.26C939.923 1202.41 939.458 1201.57 939.043 1200.71C937.995 1198.55 936.831 1196.61 934.878 1195.24C934.883 1195.11 934.887 1194.98 934.892 1194.84C934.927 1193.82 934.962 1192.8 934.988 1191.77C935.002 1191.29 934.822 1190.91 934.533 1190.65C934.248 1190.4 933.87 1190.28 933.497 1190.28C933.125 1190.28 932.743 1190.4 932.447 1190.65C932.148 1190.9 931.947 1191.27 931.934 1191.76L931.92 1192.26L931.929 1192.25ZM934.805 1204.05C934.742 1202.48 934.739 1200.92 934.764 1199.36C935.261 1200.04 935.677 1200.79 936.058 1201.55C936.11 1201.65 936.161 1201.75 936.213 1201.85C937.049 1203.51 937.881 1205.15 938.774 1206.79L938.774 1206.79C939.179 1207.52 939.581 1208.3 939.793 1209.11C940.003 1209.91 940.022 1210.71 939.674 1211.49C939.322 1212.28 938.756 1212.58 938.194 1212.54C937.616 1212.5 936.993 1212.12 936.56 1211.44L936.559 1211.44C935.858 1210.34 935.458 1208.73 935.167 1207.4C934.93 1206.31 934.853 1205.18 934.805 1204.05Z" fill="#9D6434" stroke="#9D6434" stroke-width="0.4"/>
<path d="M994.291 1227.7L994.29 1227.7C993.817 1228.17 993.632 1228.73 993.673 1229.27C993.713 1229.8 993.968 1230.29 994.331 1230.65C994.694 1231.02 995.183 1231.27 995.714 1231.31C996.255 1231.35 996.812 1231.17 997.286 1230.69L997.388 1230.59V1230.58C1003.82 1224.1 1006.48 1215.12 1008.2 1206.48C1008.47 1205.14 1007.57 1204.2 1006.58 1203.93C1006.09 1203.79 1005.54 1203.81 1005.08 1204.05C1004.6 1204.29 1004.24 1204.75 1004.11 1205.4C1002.51 1213.47 1000.2 1221.8 994.291 1227.7Z" fill="#9D6434" stroke="#9D6434" stroke-width="0.7"/>
<path d="M972.015 1224.6C974.814 1228.39 978.039 1231.84 981.659 1234.86C982.026 1235.17 982.547 1235.22 982.914 1234.86C983.233 1234.54 983.281 1233.91 982.914 1233.6C979.41 1230.69 976.253 1227.37 973.54 1223.7C973.26 1223.31 972.777 1223.12 972.333 1223.38C971.957 1223.6 971.735 1224.2 972.015 1224.59V1224.6Z" fill="#9D6434"/>
<path d="M981.099 1230.36C981.997 1231.38 983.136 1232.23 984.382 1232.8C984.604 1232.91 984.816 1232.96 985.067 1232.89C985.27 1232.83 985.492 1232.68 985.598 1232.48C985.801 1232.1 985.733 1231.48 985.28 1231.28C984.7 1231.01 984.14 1230.69 983.629 1230.3C983.6 1230.28 983.571 1230.26 983.542 1230.24C983.416 1230.15 983.658 1230.34 983.58 1230.27C983.522 1230.22 983.455 1230.18 983.397 1230.13C983.281 1230.03 983.156 1229.93 983.049 1229.82C982.808 1229.6 982.576 1229.36 982.364 1229.11C982.055 1228.77 981.418 1228.78 981.109 1229.11C980.771 1229.49 980.781 1229.99 981.109 1230.37L981.099 1230.36Z" fill="#9D6434"/>
<path d="M977.679 1241.89L977.68 1241.89C978.184 1241.45 978.4 1240.91 978.374 1240.38C978.349 1239.85 978.095 1239.37 977.732 1239.01C977.01 1238.29 975.746 1237.96 974.719 1238.86C969.752 1243.19 962.052 1243.68 956.483 1240.22L956.483 1240.22C955.913 1239.87 955.331 1239.81 954.818 1239.98C954.316 1240.15 953.909 1240.52 953.651 1240.96C953.392 1241.41 953.268 1241.95 953.358 1242.48C953.45 1243.01 953.76 1243.51 954.327 1243.86C961.557 1248.36 971.292 1247.44 977.679 1241.89Z" fill="#9D6434" stroke="#9D6434" stroke-width="0.7"/>
<path d="M1023.9 1318.65C1022.7 1318.62 1022.23 1320.14 1023.26 1320.75C1027.22 1323.12 1035.83 1328.5 1043.82 1328.15C1049.81 1327.88 1054.65 1323.38 1061.31 1317.49C1061.31 1317.49 1052.54 1322.19 1048.14 1317.75C1043.73 1313.31 1046.04 1313.64 1047.25 1307.65C1047.25 1307.65 1038.91 1318.99 1023.91 1318.65H1023.9Z" fill="#CC8F3F"/>
<path opacity="0.6" d="M919.912 1202.94C919.912 1202.94 904.456 1260.33 934.412 1293.45C946.557 1306.88 960.391 1315.18 968.742 1324.35C980.993 1337.8 983.967 1339.78 981.379 1351.78C977.025 1371.95 929.836 1375.81 894.541 1379.69C894.541 1379.69 933.003 1360.67 967.304 1357.48C967.304 1357.48 974.699 1356.22 973.965 1348.32C973.231 1340.42 963.017 1332.2 952.321 1326.23C947.194 1323.38 938.264 1320.46 930.937 1313.63C923.889 1307.04 917.991 1298.81 914.506 1289.53C907.323 1270.39 898.21 1246.38 907.989 1224.15C917.189 1203.25 919.902 1202.94 919.902 1202.94H919.912Z" fill="#CC8F3F"/>
<path opacity="0.6" d="M1117.37 1647.77C1117.37 1647.77 1263.12 1740.54 1424.92 1658.32C1424.92 1658.32 1371.63 1729.6 1203.66 1692.17C1172.92 1685.32 1151.01 1669.07 1117.38 1647.78L1117.37 1647.77Z" fill="#CC8F3F"/>
<path opacity="0.79" d="M1703.54 1159.71C1703.54 1159.71 1722.93 1162.48 1730.5 1190.23C1730.5 1190.23 1746.05 1180.97 1742.48 1148.6C1742.48 1148.6 1732.93 1154.41 1703.54 1159.71Z" fill="#CC8F3F"/>
<path d="M1319.72 1297.27C1331.59 1296.62 1343.16 1301.82 1350.61 1311.07C1352.39 1313.29 1355.5 1310.14 1353.74 1307.94C1345.63 1297.87 1332.62 1292.14 1319.72 1292.85C1316.9 1293.01 1316.88 1297.44 1319.72 1297.27Z" fill="#9D6434"/>
<path d="M1140.37 1226.77C1140.64 1212.03 1140.65 1194.04 1147.87 1181.19C1155.08 1168.33 1168 1160.21 1182.52 1157.65C1185.68 1157.09 1190.37 1154.98 1193.51 1154.32C1199.18 1153.14 1203 1152.35 1208.69 1151.23C1214.39 1150.12 1235.73 1143.96 1239.23 1148.6C1241.12 1151.12 1237.79 1158.63 1235.43 1162.14C1230.73 1169.14 1221.18 1173.37 1213.92 1177.66C1208.53 1180.83 1202.15 1181.83 1196.38 1184.26C1183.89 1189.53 1177.29 1196.1 1168.61 1208.34C1165.64 1212.53 1160.31 1226.45 1155.76 1228.82C1151.21 1231.2 1145.6 1232.06 1140.92 1229.94L1140.37 1226.76V1226.77Z" fill="#F1B965"/>
<path opacity="0.6" d="M1026.76 1211.29C1026.76 1211.29 1021.3 1208.5 1023.36 1202.93C1025.43 1197.37 1033.67 1194.49 1035.18 1183.15C1036.7 1171.8 1027.18 1162.95 1017.7 1161.35C1017.7 1161.35 1043.11 1162.74 1040.81 1183.38C1040.81 1183.38 1039.9 1194.31 1029.22 1201.05C1029.22 1201.05 1023.37 1204.49 1026.76 1211.29Z" fill="#CC8F3F"/>
<path d="M943.883 1173.19C943.883 1173.19 981.234 1148.97 987.104 1174.32C987.104 1174.32 990.637 1152.61 968.52 1157.5C968.52 1157.5 958.007 1159.66 943.883 1173.19Z" fill="#CC8F3F"/>
<path d="M984.421 1164.72C984.319 1165.03 984.331 1165.38 984.493 1165.73L984.462 1165.74L984.579 1165.93C985.243 1166.99 985.752 1168.1 986.122 1169.25C980.916 1172.98 976.628 1177.98 973.89 1183.81L973.89 1183.81C972.642 1186.47 971.567 1189.43 971.99 1192.48C972.188 1193.91 972.747 1195 973.648 1195.65C974.551 1196.29 975.758 1196.46 977.196 1196.13C979.954 1195.5 982.121 1193.73 983.838 1191.54C985.555 1189.35 986.832 1186.73 987.81 1184.38C989.625 1180.02 990.479 1175.14 989.618 1170.53C992.433 1168.76 995.498 1167.39 998.705 1166.47L998.706 1166.47C999.17 1166.33 999.481 1166.05 999.646 1165.7C999.808 1165.35 999.824 1164.95 999.725 1164.59C999.627 1164.23 999.411 1163.9 999.094 1163.69C998.771 1163.47 998.357 1163.39 997.89 1163.53L997.89 1163.53C994.693 1164.45 991.625 1165.79 988.777 1167.5C988.374 1166.43 987.86 1165.38 987.225 1164.36L987.225 1164.36C986.7 1163.53 985.769 1163.51 985.127 1163.88C984.805 1164.07 984.539 1164.36 984.421 1164.72ZM985.804 1173.32C986.133 1173.05 986.466 1172.78 986.804 1172.51C987.075 1175.11 986.756 1177.78 986.005 1180.34C985.38 1182.46 984.49 1184.84 983.27 1187C982.049 1189.15 980.506 1191.06 978.58 1192.26L978.58 1192.26C978.212 1192.49 977.711 1192.78 977.191 1192.99C976.665 1193.21 976.15 1193.34 975.743 1193.27L975.741 1193.27C975.496 1193.24 975.322 1193.1 975.192 1192.89C975.059 1192.67 974.976 1192.38 974.933 1192.03C974.847 1191.35 974.926 1190.57 974.984 1190.1L974.984 1190.1C975.269 1187.74 976.371 1185.45 977.528 1183.35L977.529 1183.35C979.631 1179.53 982.462 1176.14 985.804 1173.32Z" fill="#9D6434" stroke="#9D6434" stroke-width="0.4"/>
<path d="M1023.59 1267.65C1019.78 1264.77 1014.07 1264.52 1010.03 1267.1C1006 1269.69 1003.74 1274.76 1004.61 1279.57C1005.41 1284.02 1009.1 1287.89 1013.48 1288.97C1018.73 1290.26 1023.64 1287.15 1026.47 1282.87C1027.95 1280.62 1028.88 1277.85 1028.93 1275.15C1028.98 1272.1 1027.4 1268.91 1024.22 1268.16C1022.96 1267.87 1021.61 1268.56 1021.25 1269.85C1020.91 1271.08 1021.67 1272.53 1022.94 1272.83C1023.34 1272.92 1023.61 1273.04 1023.86 1273.59C1024.17 1274.26 1024.15 1275.14 1024.05 1275.87C1023.86 1277.42 1023.32 1278.78 1022.52 1280.07C1021.07 1282.45 1018.2 1285 1015.07 1284.4C1012.3 1283.87 1010.08 1281.66 1009.4 1278.98C1009.05 1277.64 1009.16 1276.26 1009.68 1274.82C1010.12 1273.62 1011 1272.37 1012.14 1271.5C1014.72 1269.51 1018.47 1269.82 1021.13 1271.84C1022.18 1272.63 1023.84 1272.01 1024.44 1270.97C1025.16 1269.74 1024.61 1268.46 1023.57 1267.67L1023.59 1267.65Z" fill="#9D6434"/>
<path d="M1191.51 1413.71C1181.87 1390.92 1170.64 1378.08 1170.64 1378.08L1121.52 1309.38C1116.06 1308.73 1100.33 1310.34 1100.33 1310.34L1089.74 1311.63C1101.84 1321.01 1145.52 1382.47 1149.77 1388.68C1114.17 1401.63 1081.76 1425.37 1073.35 1436.19C1045.25 1410.69 1010.42 1384.26 967.313 1357.49C967.313 1357.49 944.954 1360.76 926.969 1367.18C926.969 1367.18 1134.48 1498.93 1131.47 1656.43L1161.65 1678.26L1180.91 1687.57C1180.91 1687.57 1217.83 1589.14 1104.28 1466.71C1124.32 1421.9 1191.5 1413.73 1191.5 1413.73L1191.51 1413.71Z" fill="#117AF6"/>
<path opacity="0.65" d="M897.756 1555.18C897.756 1555.18 895.352 1580.97 936.604 1628.8C936.604 1628.8 963.413 1659.78 992.626 1681.94C1021.84 1704.09 1077.54 1742.13 1138.54 1741.81C1138.54 1741.81 1200.84 1769.85 1235.09 1741.17C1235.09 1741.17 1187.98 1760 1144.96 1727.04C1101.94 1694.08 1030.67 1720.41 995.136 1660.05C959.609 1599.69 955.97 1605.69 934.567 1582.14C913.164 1558.6 908.24 1552.82 908.24 1552.82L897.756 1555.18Z" fill="#0757B5"/>
<path d="M1421.64 818.72C1421.64 818.72 645.601 605.964 385.753 1448.28C385.753 1448.28 324.72 1531.99 265.425 1425.61C265.425 1425.61 12.5561 1214.59 289.84 1033.23C289.84 1033.23 223.574 783.85 497.363 748.97C497.363 748.97 535.729 513.537 790.345 583.297C790.345 583.297 912.42 374.026 1123.44 522.264C1123.44 522.264 1297.83 374.026 1442.57 574.579C1442.57 574.579 1486.17 649.572 1468.73 714.09C1468.73 714.09 1522.01 736.236 1477.45 804.77C1454.78 839.65 1421.64 818.72 1421.64 818.72Z" fill="#7EB7FA"/>
<path opacity="0.85" d="M289.84 1033.22C289.84 1033.22 337.898 1177.58 500.665 1186.89" stroke="#117AF6" stroke-width="3.86162" stroke-linecap="round" stroke-linejoin="round"/>
<path opacity="0.85" d="M497.364 748.959C497.364 748.959 514.606 877.619 653.344 997.763" stroke="#117AF6" stroke-width="3.86162" stroke-linecap="round" stroke-linejoin="round"/>
<path opacity="0.85" d="M790.345 583.287C790.345 583.287 855.645 703.229 876.575 807.869L888.198 851.274" stroke="#117AF6" stroke-width="3.86162" stroke-linecap="round" stroke-linejoin="round"/>
<path opacity="0.85" d="M1123.43 522.254C1123.43 522.254 1219.15 607.905 1160.25 793.147" stroke="#117AF6" stroke-width="3.86162" stroke-linecap="round" stroke-linejoin="round"/>
<path opacity="0.85" d="M1468.73 714.09C1468.73 714.09 1486.16 737.346 1421.64 818.73" stroke="#117AF6" stroke-width="3.86162" stroke-linecap="round" stroke-linejoin="round"/>
<g opacity="0.14">
<path d="M501.988 749.983C509.267 747.067 516.546 744.161 523.825 741.246C525.235 740.676 526.75 740.107 528.247 740.396C531.713 741.082 532.775 745.696 535.787 747.521C539.629 749.848 544.321 746.797 548.24 744.605C552.16 742.414 558.657 742.095 559.651 746.478C559.98 747.946 559.487 749.471 558.966 750.881C557.103 755.949 554.892 760.882 552.363 765.651C551.754 766.8 551.108 768.017 551.156 769.32C551.223 771.048 552.488 772.477 553.83 773.577C562.905 781.059 576.7 779.794 586.383 786.475C595.912 793.05 599.165 806.121 597.186 817.532C595.207 828.943 588.961 839.099 582.686 848.831C576.401 858.562 569.846 868.438 567.114 879.685C566.477 882.301 566.052 884.985 565.038 887.476C563.89 890.314 562.017 892.795 560.385 895.383C550.692 910.781 549.534 931.199 557.421 947.592C553.627 952.312 546.261 951.028 540.459 949.31C530.236 946.279 519.703 943.083 511.497 936.277C503.291 929.471 497.952 918.021 501.457 907.952C502.355 905.374 503.735 902.333 502.094 900.152C501.225 898.993 499.748 898.51 498.358 898.105C484.099 893.963 469.154 891.588 455.919 884.86C442.683 878.131 431.03 865.638 430.664 850.79C430.48 843.26 433.183 835.962 436.253 829.078C449.441 799.518 470.226 773.394 496.051 753.893" fill="#335CDF"/>
</g>
<g opacity="0.14">
<path d="M821.692 827.69C827.127 816.617 832.282 805.167 833.914 792.945C835.545 780.723 833.219 767.448 825.119 758.142C817.984 749.946 807.413 745.785 798.367 739.761C777.177 725.627 764.443 699.716 766.181 674.306C766.953 662.972 770.39 651.754 769.338 640.43C768.343 629.675 763.352 618.795 766.49 608.456C769.27 599.275 777.717 593.164 785.643 587.738C788.655 585.682 792.382 583.529 795.732 584.968C797.199 585.595 798.309 586.821 799.391 587.999C817.511 607.79 840.256 623.304 865.289 632.948C871.622 635.391 879.172 638.692 880.05 645.421C881.537 656.688 862.586 664.305 866.467 674.982C869.354 682.937 880.881 681.595 888.662 684.906C896.993 688.449 901.135 698.152 901.511 707.198C901.897 716.243 899.378 725.125 898.297 734.113C896.047 752.861 900.082 771.735 900.807 790.609C900.864 792.192 900.874 793.891 899.976 795.185C898.808 796.874 896.54 797.318 894.512 797.666C875.61 800.89 857.373 807.986 841.26 818.383C834.29 822.882 827.416 828.124 819.249 829.621" fill="#335CDF"/>
</g>
<g opacity="0.14">
<path d="M1103.25 515.823C1096.58 516.151 1090.57 519.771 1085.03 523.488C1067.86 534.986 1052 548.415 1037.83 563.446C1033.42 568.119 1029.16 572.975 1025.87 578.487C1021.41 585.988 1018.92 595.517 1022.61 603.424C1027.55 614.043 1041.01 617.403 1049.21 625.773C1060.75 637.57 1059.65 656.753 1054.89 672.556C1050.12 688.35 1042.38 703.855 1043.17 720.344C1043.23 721.589 1043.37 722.902 1044.13 723.887C1045.3 725.403 1047.46 725.615 1049.37 725.682C1069.7 726.387 1090.72 725.287 1109.66 732.72C1115.39 734.96 1120.8 737.953 1126.63 739.913C1138.97 744.054 1152.34 743.349 1165.33 742.596C1167.39 742.481 1169.59 742.316 1171.26 741.081C1172.79 739.951 1173.61 738.127 1174.36 736.389C1188.37 703.932 1202.67 669.882 1200.18 634.616C1197.05 590.391 1167.59 551.842 1132.55 524.685C1130.35 522.976 1128.03 521.268 1125.32 520.65C1121.81 519.848 1118.16 521.007 1114.56 520.93C1110.96 520.852 1106.77 518.613 1106.87 515.012" fill="#335CDF"/>
</g>
<g opacity="0.14">
<path d="M445.039 1170.7C472.254 1118.09 455.378 1103.58 544.9 1024.25C536.25 1021.6 527.6 1018.93 518.96 1016.28C516.015 1015.37 512.974 1014.46 509.924 1014.79C505.724 1015.25 502.162 1017.95 498.841 1020.56C489.1 1028.19 479.369 1035.82 469.628 1043.46C465.1 1047 460.389 1050.79 458.236 1056.12C456.604 1060.14 456.566 1064.76 454.336 1068.48C450.696 1074.56 442.712 1076.13 435.665 1076.84C427.275 1077.69 418.857 1078.19 410.429 1078.34C407.832 1078.38 405.119 1078.36 402.822 1077.15C400.669 1076.01 399.163 1073.94 397.966 1071.82C388.592 1055.11 395.262 1034.32 402.078 1016.41C384.759 1012.42 363.694 1010.22 351.925 1023.54C346.867 1029.26 344.608 1036.91 340.408 1043.3C334.761 1051.9 325.232 1059.31 325.473 1069.59C325.531 1072.15 326.226 1074.78 325.454 1077.23C323.301 1084.06 313.541 1082.97 306.416 1082.11C283.536 1079.35 262.5 1094.13 245.084 1109.22C229.28 1122.91 214.288 1137.49 199.304 1152.06C191.62 1159.54 183.839 1167.13 178.471 1176.41C173.016 1185.85 170.304 1196.64 168.556 1207.4C168.189 1209.66 167.919 1212.19 169.251 1214.05C170.062 1215.19 171.356 1215.88 172.659 1216.4C181.715 1219.98 192.305 1216.6 201.525 1219.76C208.553 1222.16 213.747 1227.99 219.646 1232.51C225.544 1237.03 233.663 1240.37 240.267 1236.95C247.662 1233.13 248.984 1223.4 252.315 1215.77C258.812 1200.87 275.34 1192.22 291.559 1190.98C307.768 1189.74 323.794 1194.72 338.96 1200.57C357.322 1207.65 375.414 1216.31 390.078 1229.44C396.218 1234.93 404.608 1241.61 411.607 1237.27C415.497 1234.86 416.868 1229.96 418.104 1225.56C423.501 1206.35 432.237 1188.07 443.813 1171.81" fill="#335CDF"/>
</g>
<path opacity="0.85" d="M1358.77 806.943L1109.48 1320.97" stroke="#117AF6" stroke-width="3.86162" stroke-linecap="round" stroke-linejoin="round"/>
<path opacity="0.85" d="M1158.89 797.791L1097.28 1319.23" stroke="#117AF6" stroke-width="3.86162" stroke-linecap="round" stroke-linejoin="round"/>
<path opacity="0.85" d="M892.07 850.695L1081.58 1320.97" stroke="#117AF6" stroke-width="3.86162" stroke-linecap="round" stroke-linejoin="round"/>
<path opacity="0.85" d="M649.087 999.512L985.086 1367.48" stroke="#117AF6" stroke-width="3.86162" stroke-linecap="round" stroke-linejoin="round"/>
<path opacity="0.85" d="M497.364 1191.92L971.127 1380.27" stroke="#117AF6" stroke-width="3.86162" stroke-linecap="round" stroke-linejoin="round"/>
<path opacity="0.85" d="M404.936 1391.89L962.988 1395.38" stroke="#117AF6" stroke-width="3.86162" stroke-linecap="round" stroke-linejoin="round"/>
<path d="M265.425 1425.6C265.425 1425.6 312.286 1467.43 385.753 1448.27" stroke="#117AF6" stroke-width="3.86162" stroke-linecap="round" stroke-linejoin="round"/>
<path d="M817.501 1458.65C817.501 1458.65 989.228 1434.34 1035.63 1431.41C1082.03 1428.47 1080.75 1416.28 1114.14 1424.62C1147.53 1432.97 1167.43 1493.32 1141.75 1515.79C1141.75 1515.79 1113.07 1520.72 1115.64 1511.29C1118.21 1501.88 1128.28 1469.34 1111.26 1451.26C1111.26 1451.26 1109.27 1450.37 1110.21 1453.12C1111.16 1455.87 1125.92 1508.09 1104.73 1522.21C1104.73 1522.21 1082.9 1529.06 1089.32 1518.15C1095.74 1507.23 1105.94 1492.86 1087.89 1461.85C1087.89 1461.85 1085.85 1461.28 1086.84 1463.71C1087.83 1466.14 1103.45 1512.37 1072.63 1528.21C1072.63 1528.21 1052.51 1527.14 1056.15 1520.29C1056.15 1520.29 1073.28 1514.73 1074.34 1501.88C1075.41 1489.04 1076.77 1477.58 1061.29 1465.28C1061.29 1465.28 1079.05 1499.1 1064.5 1508.51C1049.94 1517.93 1042.24 1503.38 1042.24 1503.38C1042.24 1503.38 1053.58 1482.19 1047.16 1474.27C1040.74 1466.35 1036.24 1456.51 1020.84 1459.29C1005.43 1462.07 812.375 1487.76 803.387 1483.26C794.399 1478.76 817.511 1458.65 817.511 1458.65H817.501Z" fill="#F2A91F"/>
<path d="M826.912 1455.02L826.903 1455.01C854.032 1447.08 881.904 1442.09 909.991 1439.05L909.958 1438.75L909.991 1439.05C936.876 1436.13 963.907 1434.91 990.93 1433.8L990.917 1433.5L990.93 1433.8C992.297 1433.74 993.664 1433.69 995.032 1433.63C1008.57 1433.07 1022.12 1432.51 1035.65 1431.71L1035.65 1431.71C1036.81 1431.64 1037.39 1430.69 1037.39 1429.82C1037.39 1429.38 1037.25 1428.93 1036.95 1428.6C1036.64 1428.26 1036.19 1428.06 1035.62 1428.09C1022.26 1428.88 1008.9 1429.44 995.528 1429.99L993.719 1430.07C980.952 1430.6 968.183 1431.12 955.422 1431.84C927.815 1433.38 900.22 1435.83 872.96 1440.63C856.934 1443.45 841.071 1447.09 825.459 1451.67L825.458 1451.67C824.911 1451.83 824.542 1452.17 824.347 1452.6C824.155 1453.01 824.138 1453.48 824.253 1453.91C824.369 1454.33 824.623 1454.73 825.001 1454.98C825.387 1455.23 825.879 1455.32 826.429 1455.16L826.912 1455.02Z" fill="#9D6434" stroke="#9D6434" stroke-width="0.6"/>
<path d="M985.318 1530.59C1000.85 1525.13 1014.28 1514.8 1023.52 1501.17C1024.89 1499.16 1021.62 1497.26 1020.26 1499.26C1011.6 1512.03 998.872 1521.83 984.314 1526.94C982.035 1527.74 983.01 1531.39 985.318 1530.59Z" fill="#9D6434"/>
<path d="M1139.16 1443.97C1144.52 1450.74 1147.83 1458.93 1150 1467.22C1152.27 1475.95 1154.6 1486.08 1152.12 1494.96L1139.16 1443.97ZM1139.16 1443.97L1138.93 1444.16C1138.93 1444.16 1138.93 1444.16 1138.93 1444.16L1139.16 1443.97ZM1096.52 1522.37C1101.6 1522.07 1105.79 1519.85 1108.81 1515.73L1108.81 1515.73C1111.9 1511.53 1113.22 1506.28 1113.83 1501.13L1113.83 1501.13C1114.49 1495.69 1114.64 1490.17 1114.49 1484.69C1114.17 1473.56 1112.16 1462.54 1108.07 1452.17C1107.88 1451.7 1107.99 1451.17 1108.23 1450.76C1108.46 1450.34 1108.86 1449.98 1109.35 1449.9C1111.58 1449.49 1113.41 1450.25 1114.86 1451.55C1116.3 1452.84 1117.36 1454.68 1118.09 1456.47C1120.1 1461.4 1121.38 1466.72 1122.16 1471.95C1123.71 1482.25 1123.24 1492.78 1120.66 1502.87L1120.37 1502.8L1091.6 1463.56M1096.52 1522.37C1096.52 1522.37 1096.52 1522.37 1096.52 1522.37L1096.54 1522.67L1096.53 1522.37C1096.52 1522.37 1096.52 1522.37 1096.52 1522.37ZM1096.52 1522.37C1095.17 1522.45 1093.81 1522.46 1092.45 1522.47L1092.45 1522.47C1092.45 1522.47 1092.45 1522.47 1092.45 1522.47C1092.23 1522.47 1091.99 1522.49 1091.76 1522.5C1091.7 1522.5 1091.65 1522.51 1091.6 1522.51C1091.3 1522.53 1091.01 1522.54 1090.72 1522.53C1090.14 1522.5 1089.68 1522.37 1089.4 1522.03C1089.14 1521.72 1089.1 1521.37 1089.19 1520.98C1089.29 1520.57 1089.55 1520.13 1089.9 1519.67C1090.24 1519.21 1090.65 1518.77 1091.04 1518.35C1091.08 1518.31 1091.12 1518.27 1091.15 1518.23C1091.49 1517.87 1091.81 1517.53 1092.02 1517.24L1092.02 1517.24C1098.01 1509.09 1100.43 1498.69 1099.62 1488.72C1099.14 1482.71 1097.61 1476.83 1095.31 1471.27C1095.31 1471.27 1095.31 1471.27 1095.31 1471.27L1095.04 1471.38C1093.96 1468.78 1092.81 1466.13 1091.34 1463.72M1091.34 1463.72L1091.6 1463.56M1091.34 1463.72L1091.59 1463.56C1091.59 1463.56 1091.6 1463.56 1091.6 1463.56M1091.34 1463.72C1090.2 1461.83 1088.4 1460.03 1086.03 1460.79C1085.29 1461.03 1084.7 1461.85 1084.98 1462.65L1084.69 1462.75C1084.69 1462.75 1084.69 1462.75 1084.69 1462.75C1084.34 1461.75 1085.08 1460.78 1085.94 1460.51L1085.94 1460.51C1087.23 1460.09 1088.36 1460.38 1089.31 1461.01C1090.25 1461.64 1091.01 1462.6 1091.6 1463.56M1033.26 1503.09C1033.26 1503.09 1033.26 1503.09 1033.26 1503.09L1033.08 1502.85L1033.26 1503.09ZM1033.26 1503.09C1035.15 1501.61 1036.75 1499.88 1038.24 1498.03L1038.24 1498.03C1041.29 1494.27 1044.27 1490.04 1044.96 1485.04M1033.26 1503.09L1044.96 1485.04M1044.96 1485.04C1045.55 1480.79 1044.31 1476.16 1040.86 1473.35L1040.86 1473.35C1039.97 1472.62 1038.88 1472.91 1038.27 1473.52C1037.95 1473.83 1037.74 1474.24 1037.72 1474.69C1037.7 1475.14 1037.9 1475.6 1038.34 1475.96L1038.34 1475.96C1040.45 1477.68 1041.42 1479.75 1041.59 1481.98C1041.76 1484.21 1041.13 1486.62 1040.03 1488.98C1037.83 1493.71 1033.76 1498.17 1030.63 1500.56L1030.63 1500.56C1030.35 1500.78 1030.06 1501 1029.76 1501.22C1028.56 1502.12 1027.28 1503.09 1026.23 1504.2C1024.9 1505.6 1023.92 1507.27 1023.88 1509.4L1023.88 1509.41C1023.86 1511.43 1024.69 1513.4 1025.86 1515.14C1027.03 1516.89 1028.56 1518.44 1029.95 1519.66L1029.95 1519.66C1033.63 1522.84 1038.15 1523.68 1042.64 1523.17C1047.14 1522.66 1051.63 1520.81 1055.29 1518.58L1055.14 1518.32L1055.29 1518.58C1062.94 1513.92 1070.73 1507 1072.29 1497.61C1073.25 1491.85 1071.77 1486.15 1069.58 1480.9C1067.99 1477.08 1066.1 1473.39 1064.19 1469.72C1066.9 1472.07 1068.83 1475.14 1070.18 1478.54C1072.25 1483.78 1072.95 1489.82 1073 1495.23C1073.04 1501.11 1072.12 1506.17 1067.86 1510.35L1067.86 1510.35C1066.1 1512.09 1064.06 1513.52 1061.93 1514.81L1061.93 1514.81C1061.23 1515.24 1060.49 1515.62 1059.73 1516C1059.43 1516.16 1059.13 1516.31 1058.82 1516.47C1057.76 1517.03 1056.72 1517.63 1055.79 1518.41L1055.79 1518.41C1055 1519.07 1054.28 1519.97 1053.92 1520.96C1053.56 1521.96 1053.56 1523.07 1054.23 1524.12C1054.88 1525.15 1056.09 1525.93 1057.35 1526.55C1058.22 1526.98 1059.16 1527.35 1059.99 1527.67C1060.36 1527.82 1060.7 1527.96 1061.02 1528.09C1066.31 1530.32 1071.88 1530.94 1077.05 1527.86C1080.56 1525.78 1083.46 1522.97 1085.8 1519.72C1085.48 1520.58 1085.38 1521.53 1085.68 1522.58C1086.18 1524.33 1087.63 1525.68 1089.42 1526.03C1091.73 1526.49 1094.54 1526.23 1096.91 1526.02C1097.14 1525.99 1097.36 1525.97 1097.57 1525.96L1097.57 1525.96C1102.53 1525.51 1106.89 1523.44 1110.24 1519.72L1110.24 1519.72C1111.98 1517.79 1113.34 1515.63 1114.39 1513.33C1114.51 1513.74 1114.7 1514.14 1114.99 1514.54L1114.99 1514.54C1115.59 1515.38 1116.47 1516 1117.41 1516.47C1118.35 1516.94 1119.37 1517.26 1120.26 1517.53L1120.26 1517.53C1124.85 1518.87 1129.72 1518.33 1134.29 1517.55C1134.29 1517.55 1134.29 1517.55 1134.29 1517.55L1134.33 1517.55C1138.7 1516.81 1143.13 1516.06 1146.53 1512.79C1149.59 1509.85 1151.42 1505.84 1153.05 1502.07C1155.02 1497.53 1156.4 1492.88 1156.46 1487.87C1156.46 1487.87 1156.46 1487.87 1156.46 1487.87L1156.16 1487.87C1156.22 1482.88 1155.35 1477.84 1154.4 1472.95C1152.72 1464.38 1150.09 1455.87 1145.69 1448.28M1044.96 1485.04L1145.95 1448.13M1145.69 1448.28L1145.95 1448.13M1145.69 1448.28L1145.95 1448.13C1145.95 1448.13 1145.95 1448.13 1145.95 1448.13M1145.69 1448.28C1141.41 1440.9 1135.29 1434.82 1128.17 1430.17L1128.33 1429.92C1128.33 1429.92 1128.33 1429.92 1128.33 1429.92C1135.49 1434.59 1141.65 1440.71 1145.95 1448.13M1117.43 1502.1C1119.35 1494.61 1120.07 1486.85 1119.61 1479.12C1119.3 1474.11 1118.48 1469.14 1117.15 1464.31C1117.08 1464.04 1117 1463.72 1116.91 1463.36C1116.22 1460.65 1114.91 1455.5 1112.5 1453.73M1112.5 1453.73C1112.37 1453.63 1112.23 1453.54 1112.09 1453.46C1112.14 1453.61 1112.2 1453.76 1112.25 1453.92C1112.4 1454.02 1112.55 1454.15 1112.7 1454.28C1112.64 1454.1 1112.57 1453.91 1112.5 1453.73ZM1092.99 1421.18C1087.48 1421.24 1082 1422 1076.6 1422.95L1076.6 1422.95C1073.59 1423.48 1070.58 1424.09 1067.59 1424.69C1059.48 1426.33 1051.4 1427.95 1043.13 1428.1L1043.13 1428.1C1042.56 1428.11 1042.11 1428.35 1041.81 1428.7C1041.52 1429.05 1041.38 1429.5 1041.38 1429.94C1041.38 1430.38 1041.52 1430.83 1041.81 1431.17C1042.12 1431.52 1042.57 1431.73 1043.14 1431.72L1043.62 1431.71L1043.61 1431.69C1051.75 1431.49 1059.77 1429.85 1067.76 1428.23C1068.96 1427.98 1070.15 1427.74 1071.34 1427.5C1080.68 1425.64 1090 1424.08 1099.49 1425.07L1099.49 1425.07C1106.7 1425.82 1114.19 1426.86 1120.8 1429.86L1092.99 1421.18ZM1089.55 1467.15C1089.41 1466.67 1089.27 1466.19 1089.12 1465.71C1089.37 1466.13 1089.61 1466.59 1089.83 1467.04C1090.02 1467.68 1090.2 1468.31 1090.37 1468.95C1090.14 1468.4 1089.86 1467.77 1089.55 1467.15ZM1091.31 1470.39L1091.04 1470.51C1091.04 1470.51 1091.04 1470.51 1091.04 1470.51L1091.31 1470.39ZM1087.45 1517.21C1087.38 1517.29 1087.31 1517.38 1087.24 1517.46C1087.24 1517.46 1087.24 1517.46 1087.24 1517.46L1087.45 1517.21ZM1091.95 1511.11L1091.68 1510.97C1091.68 1510.97 1091.68 1510.97 1091.68 1510.97L1091.95 1511.11ZM1096.02 1495.78C1096.02 1495.78 1096.02 1495.78 1096.02 1495.79L1096.32 1495.81L1096.02 1495.78ZM1114.28 1512.85C1114.37 1512.66 1114.45 1512.46 1114.53 1512.27L1114.28 1512.85Z" fill="#9D6434" stroke="#9D6434" stroke-width="0.6"/>
<path d="M1057.74 219.539C1058.96 270.146 1058.96 320.772 1057.72 371.378C1057.36 385.792 1056.9 400.205 1056.35 414.619C1056.27 416.897 1059.8 416.897 1059.9 414.619C1061.84 364.041 1062.56 313.415 1062.04 262.799C1061.9 248.376 1061.64 233.962 1061.29 219.549C1061.23 217.28 1057.7 217.271 1057.74 219.549V219.539Z" fill="#9D6434"/>
<path d="M1098.84 276.74C1099.43 306.774 1100.01 336.807 1100.6 366.832C1100.76 375.472 1100.94 384.122 1101.1 392.762C1101.15 395.041 1104.68 395.041 1104.64 392.762C1104.05 362.729 1103.48 332.695 1102.89 302.671C1102.72 294.03 1102.55 285.38 1102.38 276.74C1102.34 274.462 1098.8 274.462 1098.84 276.74Z" fill="#9D6434"/>
<path d="M414.457 445.57C415.323 481.596 415.323 517.635 414.436 553.661C414.182 563.922 413.859 574.182 413.467 584.443C413.405 586.065 415.92 586.065 415.989 584.443C417.371 548.438 417.886 512.399 417.515 476.366C417.412 466.098 417.233 455.838 416.979 445.577C416.938 443.962 414.422 443.955 414.457 445.577V445.57Z" fill="#9D6434"/>
<path d="M443.713 486.291C444.132 507.671 444.544 529.051 444.963 550.425C445.08 556.576 445.204 562.734 445.321 568.884C445.355 570.506 447.871 570.506 447.843 568.884C447.424 547.504 447.011 526.124 446.592 504.75C446.475 498.599 446.352 492.442 446.235 486.291C446.201 484.669 443.685 484.669 443.713 486.291Z" fill="#9D6434"/>
<path d="M1580.48 445.029C1580.95 464.888 1580.95 484.755 1580.47 504.615C1580.33 510.271 1580.15 515.927 1579.93 521.583C1579.9 522.477 1581.28 522.477 1581.32 521.583C1582.08 501.735 1582.37 481.868 1582.16 462.005C1582.11 456.345 1582.01 450.689 1581.87 445.032C1581.84 444.142 1580.46 444.138 1580.48 445.032V445.029Z" fill="#9D6434"/>
<path d="M1596.61 467.475C1596.84 479.261 1597.06 491.047 1597.29 502.83C1597.36 506.22 1597.43 509.615 1597.49 513.006C1597.51 513.9 1598.9 513.9 1598.88 513.006C1598.65 501.22 1598.42 489.434 1598.19 477.651C1598.13 474.26 1598.06 470.866 1598 467.475C1597.98 466.581 1596.59 466.581 1596.61 467.475Z" fill="#9D6434"/>
<defs>
<linearGradient id="paint0_linear_209_3" x1="784.657" y1="608.741" x2="941.588" y2="1628.72" gradientUnits="userSpaceOnUse">
<stop stop-color="white" stop-opacity="0"/>
<stop offset="0.05" stop-color="#FEFDFC" stop-opacity="0.04"/>
<stop offset="0.13" stop-color="#FDFAF6" stop-opacity="0.15"/>
<stop offset="0.24" stop-color="#FCF4ED" stop-opacity="0.33"/>
<stop offset="0.37" stop-color="#FAECE0" stop-opacity="0.58"/>
<stop offset="0.52" stop-color="#F7E3CF" stop-opacity="0.9"/>
<stop offset="0.56" stop-color="#F7E0CA"/>
</linearGradient>
</defs>
</svg>
