<svg width="2000" height="2055" viewBox="0 0 2000 2055" fill="none" xmlns="http://www.w3.org/2000/svg">
<g opacity="0.54">
<path d="M397.17 957.231C397.17 957.231 772.96 887.771 976.94 462.621L1049.32 462.361C1049.32 462.361 1206.78 868.361 1616.32 968.171L397.17 957.241V957.231Z" fill="#F7D5B4"/>
<path d="M396.95 956.9L394.85 1082.11L1618.64 1090.35L1616.1 967.83L396.95 956.9Z" fill="#EFBC96"/>
<path d="M182.75 1735.07C182.75 1735.07 389.88 1528.9 444.97 1084.33L1579.17 1090.24C1579.17 1090.24 1636.65 1551.61 1820.85 1742.66L182.75 1735.07Z" fill="#EFBC96"/>
<path d="M444.97 1081.33C444.97 1081.33 414.81 1288.51 380.99 1365.33L715.44 1313.32C715.44 1313.32 1071.91 1367.68 1364.37 1222.52C1364.37 1222.52 1488.94 1298.82 1612.78 1280.36L1579.16 1089.23L444.96 1081.32L444.97 1081.33Z" fill="#E2AB86"/>
<path d="M609.41 1080.99C609.41 1080.99 463.34 1154.94 420.95 1128.57L444.97 1084.34C444.97 1084.34 379.72 1143.37 404.25 1250.72C404.25 1250.72 547.92 1262.25 622.25 1084.98L609.41 1081V1080.99Z" fill="#F7D5B4"/>
<path d="M1394.81 1090.89C1394.81 1090.89 1081.67 1241.34 635.62 1086.33L622.25 1084.97C622.25 1084.97 704.52 1324.17 1038.19 1300.72C1371.85 1277.27 1394.81 1090.89 1394.81 1090.89Z" fill="#F7D5B4"/>
<path d="M1405.56 1091.71C1405.56 1091.71 1420.79 1231.28 1612.12 1263.44C1612.12 1263.44 1644.59 1204.55 1579.17 1090.24C1579.17 1090.24 1600.55 1125.98 1597.59 1147.21C1597.59 1147.21 1550.56 1170.38 1405.56 1091.71Z" fill="#F7D5B4"/>
<path d="M985.59 463.701C985.59 463.701 843.14 843.491 589.57 958.311L750.23 960.111C750.23 960.111 918.1 854.111 999.57 463.131L985.58 463.691L985.59 463.701Z" fill="#EFBC96"/>
<path d="M935.02 963.1C935.02 963.1 999.98 818.94 1010.7 462.68L1021.08 462.52C1021.08 462.52 1022.32 861.44 1083.32 963.93L935.02 963.1Z" fill="#EFBC96"/>
<path d="M1030.79 464.04C1030.79 464.04 1084.68 804.59 1268.99 964.96L1420.04 967.08C1420.04 967.08 1161.06 841.65 1044.41 463.07L1030.79 464.05V464.04Z" fill="#EFBC96"/>
<path d="M442.32 1045.45C453.581 1045.45 462.71 1036.32 462.71 1025.06C462.71 1013.8 453.581 1004.67 442.32 1004.67C431.059 1004.67 421.93 1013.8 421.93 1025.06C421.93 1036.32 431.059 1045.45 442.32 1045.45Z" fill="#E0A07C"/>
<path d="M542.75 1048.33C554.011 1048.33 563.14 1039.2 563.14 1027.94C563.14 1016.68 554.011 1007.55 542.75 1007.55C531.489 1007.55 522.36 1016.68 522.36 1027.94C522.36 1039.2 531.489 1048.33 542.75 1048.33Z" fill="#E0A07C"/>
<path d="M646.14 1047.36C657.401 1047.36 666.53 1038.23 666.53 1026.97C666.53 1015.71 657.401 1006.58 646.14 1006.58C634.879 1006.58 625.75 1015.71 625.75 1026.97C625.75 1038.23 634.879 1047.36 646.14 1047.36Z" fill="#E0A07C"/>
<path d="M746.92 1047.41C758.181 1047.41 767.31 1038.28 767.31 1027.02C767.31 1015.76 758.181 1006.63 746.92 1006.63C735.659 1006.63 726.53 1015.76 726.53 1027.02C726.53 1038.28 735.659 1047.41 746.92 1047.41Z" fill="#E0A07C"/>
<path d="M848.91 1047.66C860.171 1047.66 869.3 1038.53 869.3 1027.27C869.3 1016.01 860.171 1006.88 848.91 1006.88C837.649 1006.88 828.52 1016.01 828.52 1027.27C828.52 1038.53 837.649 1047.66 848.91 1047.66Z" fill="#E0A07C"/>
<path d="M949.34 1050.54C960.601 1050.54 969.73 1041.41 969.73 1030.15C969.73 1018.89 960.601 1009.76 949.34 1009.76C938.079 1009.76 928.95 1018.89 928.95 1030.15C928.95 1041.41 938.079 1050.54 949.34 1050.54Z" fill="#E0A07C"/>
<path d="M1052.73 1049.58C1063.99 1049.58 1073.12 1040.45 1073.12 1029.19C1073.12 1017.93 1063.99 1008.8 1052.73 1008.8C1041.47 1008.8 1032.34 1017.93 1032.34 1029.19C1032.34 1040.45 1041.47 1049.58 1052.73 1049.58Z" fill="#E0A07C"/>
<path d="M1153.5 1049.63C1164.76 1049.63 1173.89 1040.5 1173.89 1029.24C1173.89 1017.98 1164.76 1008.85 1153.5 1008.85C1142.24 1008.85 1133.11 1017.98 1133.11 1029.24C1133.11 1040.5 1142.24 1049.63 1153.5 1049.63Z" fill="#E0A07C"/>
<path d="M1252.22 1054.09C1263.48 1054.09 1272.61 1044.96 1272.61 1033.7C1272.61 1022.44 1263.48 1013.31 1252.22 1013.31C1240.96 1013.31 1231.83 1022.44 1231.83 1033.7C1231.83 1044.96 1240.96 1054.09 1252.22 1054.09Z" fill="#E0A07C"/>
<path d="M1352.65 1056.97C1363.91 1056.97 1373.04 1047.84 1373.04 1036.58C1373.04 1025.32 1363.91 1016.19 1352.65 1016.19C1341.39 1016.19 1332.26 1025.32 1332.26 1036.58C1332.26 1047.84 1341.39 1056.97 1352.65 1056.97Z" fill="#E0A07C"/>
<path d="M1456.04 1056.01C1467.3 1056.01 1476.43 1046.88 1476.43 1035.62C1476.43 1024.36 1467.3 1015.23 1456.04 1015.23C1444.78 1015.23 1435.65 1024.36 1435.65 1035.62C1435.65 1046.88 1444.78 1056.01 1456.04 1056.01Z" fill="#E0A07C"/>
<path d="M1556.82 1056.06C1568.08 1056.06 1577.21 1046.93 1577.21 1035.67C1577.21 1024.41 1568.08 1015.28 1556.82 1015.28C1545.56 1015.28 1536.43 1024.41 1536.43 1035.67C1536.43 1046.93 1545.56 1056.06 1556.82 1056.06Z" fill="#E0A07C"/>
<path d="M782.74 1165.92C782.74 1165.92 980.8 1225.34 1133.91 1183.73" stroke="#D08619" stroke-miterlimit="10"/>
<path d="M635.62 1086.33C635.62 1086.33 743.01 1287.1 1048 1257.21C1349.68 1227.64 1380.72 1097.5 1380.72 1097.5" stroke="#D08619" stroke-miterlimit="10"/>
<path d="M1409.39 1099.7C1409.39 1099.7 1502.62 1240.58 1621.38 1224.73" stroke="#D08619" stroke-miterlimit="10"/>
<path d="M398.82 1215.13C398.82 1215.13 516.42 1231.79 609.58 1087" stroke="#D08619" stroke-miterlimit="10"/>
<path d="M403.45 1165.73C406.3 1166.51 423.93 1176.2 463.36 1157.31" stroke="#D08619" stroke-miterlimit="10"/>
<path opacity="0.3" d="M598.22 1084.69C598.22 1084.69 513.33 1626.9 386.37 1736.61L646.34 1737.67C646.34 1737.67 766.01 1404.5 765.17 1086.83L598.21 1084.69H598.22Z" fill="#F9DBC2"/>
<path opacity="0.3" d="M923.4 1087.2L916.25 1390.51C916.25 1390.51 1002.22 1352.52 1091.75 1399.85L1090.02 1086.55L923.4 1087.21V1087.2Z" fill="#F9DBC2"/>
<path opacity="0.38" d="M272.21 1734.37L881.41 1400.77C881.41 1400.77 882.24 1414.58 887.82 1418.45C887.82 1418.45 865.93 1427.64 863.94 1500.01C861.94 1572.38 863.13 1736.38 863.13 1736.38L272.21 1734.36V1734.37Z" fill="#CF9C7A"/>
<path opacity="0.3" d="M1252.94 1090.6C1252.94 1090.6 1247.8 1419.79 1345.48 1739.89L1593.56 1741.26C1593.56 1741.26 1475.55 1604.52 1412.28 1088.55L1252.94 1090.6Z" fill="#F9DBC2"/>
<path d="M1057.64 440.78L970.363 441.861C964.101 441.939 959.087 447.079 959.164 453.341C959.242 459.604 964.382 464.617 970.644 464.54L1057.92 463.458C1064.18 463.381 1069.19 458.241 1069.12 451.979C1069.04 445.716 1063.9 440.702 1057.64 440.78Z" fill="#F7D5B4"/>
<path d="M980.85 441.531C980.85 441.531 1004.93 417.091 1010.47 369.781L1020.2 362.211C1020.2 362.211 1024.78 430.011 1046.94 442.021L980.86 441.531H980.85Z" fill="#F9DFC5"/>
<path d="M1010.74 365.061C1010.74 365.061 1009.7 209.28 1011.83 198.8C1013.96 188.32 1018.61 209.05 1089.59 198.93C1160.56 188.81 1175.14 257.97 1252.88 264.92C1303.11 269.41 1346.98 261.78 1371.73 255.82C1377.73 254.37 1381.8 261.79 1377.32 266.03C1351.96 289.98 1299.33 331.18 1243.64 323.76C1165.92 313.4 1119.18 291.601 1071.33 328.941C1023.47 366.281 1010.76 365.051 1010.76 365.051L1010.74 365.061Z" fill="#EFBC96"/>
<path d="M1104.67 1738.64L1102.82 1494.28C1102.46 1447 1063.55 1409.13 1016.29 1410.04L974.21 1410.85C931.71 1411.67 897.47 1445.98 896.75 1488.48L891.74 1738.97L1104.69 1738.64H1104.67Z" fill="#E0976E"/>
</g>
<path d="M105.641 1738.79L1922.64 1744.69" stroke="#335CDF" stroke-width="11" stroke-linecap="round"/>
<path d="M1153.5 1854.55L1922.64 1854.55" stroke="#335CDF" stroke-width="11" stroke-linecap="round"/>
<path d="M774.219 1815.5L1091.75 1815.5" stroke="#335CDF" stroke-width="11" stroke-linecap="round"/>
<path d="M340.504 1847.88L658.035 1847.88" stroke="#335CDF" stroke-width="11" stroke-linecap="round"/>
<path d="M503.87 1744.35C503.87 1744.35 494.06 1806.07 486.83 1821.1C479.66 1836 663.49 1871.05 752.5 1824.78C754.42 1823.78 755.65 1821.86 754.95 1819.81C751.5 1809.7 742.49 1780.13 742.7 1747.62" fill="#0757B5"/>
<path d="M623.81 1772.29C690.267 1772.29 744.14 1758.68 744.14 1741.89C744.14 1725.1 690.267 1711.49 623.81 1711.49C557.354 1711.49 503.48 1725.1 503.48 1741.89C503.48 1758.68 557.354 1772.29 623.81 1772.29Z" fill="#117AF6"/>
<path d="M519.56 1730.8C511.83 1733.37 502.58 1738.3 503.57 1747.94C504.53 1757.25 516.15 1759.85 523.32 1762.68C533.7 1766.75 544.25 1770.56 555.17 1772.94C566.63 1775.42 578.35 1776.28 590.03 1776.9C613.45 1778.14 637.09 1778.57 660.58 1777.56C681.17 1776.67 702.03 1774.12 721.14 1765.97C729.34 1762.48 741.08 1757.62 742.71 1747.64C744.34 1737.66 735.45 1730.45 726.54 1728.67C722.07 1727.77 720.14 1734.65 724.65 1735.54C733.41 1737.29 740.23 1745.78 731.3 1752.61C725.06 1757.36 716.89 1760.38 709.51 1762.8C693.73 1767.96 677.11 1769.74 660.63 1770.45C642.73 1771.24 624.77 1771.1 606.87 1770.51C588.43 1769.92 569.64 1769.5 551.7 1764.8C542.12 1762.18 532.71 1758.96 523.53 1755.16C519.82 1753.68 513.69 1752.43 511.44 1748.91C507.62 1742.95 517.55 1739.04 521.49 1737.71C525.83 1736.26 523.96 1729.38 519.6 1730.84H519.56V1730.8Z" fill="#117AF6"/>
<path d="M499.28 1784.49C499.48 1788.45 500.8 1792.26 503.08 1795.51C505.36 1798.75 508.51 1801.28 512.16 1802.82C520.31 1806.32 528.82 1804.63 536.72 1801.27C545.89 1797.37 554.74 1795.64 564.48 1798.96C574.22 1802.3 578.84 1810.35 586.46 1816.52C592.78 1821.54 600.83 1823.87 608.86 1822.98C617.81 1822.03 624.13 1817.01 630.69 1811.27C634.56 1807.86 638.6 1804.77 643.82 1803.84C649.65 1802.82 655.71 1804.29 661.13 1806.49C669.37 1809.84 677.42 1817.44 686.86 1815.65C697.49 1813.68 702.76 1804.12 710.28 1797.5C714.74 1793.53 720.14 1790.71 725.42 1788.02C730.7 1785.34 737.13 1782.23 742.64 1785.71C746.53 1788.17 750.11 1782.01 746.23 1779.6C739.1 1775.1 731.07 1777.48 723.99 1780.83C715.78 1784.73 707.93 1789.33 701.71 1796.01C698.54 1799.43 695.65 1803.3 691.77 1805.95C686.18 1809.8 681.52 1809.01 675.88 1805.95C667.73 1801.5 659.4 1797.17 650.03 1796.52C640.98 1795.87 633.62 1799.45 626.91 1805.2C619.69 1811.39 613.05 1817.05 602.87 1815.94C592.51 1814.8 587.82 1807.06 580.79 1800.66C574.74 1795.16 567.18 1791.61 559.08 1790.47C550.02 1789.17 542.17 1791.38 533.9 1794.87C528.72 1797.06 523.2 1798.7 517.61 1797.23C511.6 1795.68 506.86 1790.92 506.47 1784.56C506.2 1780 499.07 1779.97 499.34 1784.56L499.27 1784.47L499.28 1784.49Z" fill="#117AF6"/>
<path d="M531.56 1774.8C530.28 1773.64 528.61 1773.02 526.89 1773.06C525.17 1773.09 523.52 1773.8 522.31 1775.03C521.11 1776.38 520.47 1778.14 520.53 1779.95C520.58 1781.76 521.32 1783.48 522.59 1784.76C523.89 1786.04 525.62 1786.79 527.43 1786.87C529.25 1786.95 531.03 1786.35 532.44 1785.2C535.49 1782.68 535.49 1778.07 532.96 1775.23C532.28 1774.56 531.37 1774.18 530.41 1774.18C529.45 1774.18 528.54 1774.56 527.86 1775.23C527.21 1775.91 526.84 1776.81 526.84 1777.75C526.84 1778.69 527.21 1779.59 527.86 1780.27C527.76 1780.18 527.68 1780.07 527.66 1779.94C527.59 1779.7 527.6 1779.77 527.71 1780.12V1780.15C527.77 1779.81 527.76 1779.77 527.71 1780.02V1779.92C527.41 1780.1 528.14 1779.47 527.71 1779.92C528.02 1779.74 528.12 1779.86 527.71 1779.82C528.41 1779.87 527.66 1779.82 527.51 1779.82C527.18 1779.82 527.88 1779.99 527.33 1779.73C527.77 1779.94 527.73 1780.11 527.55 1779.73C527.83 1780.31 527.43 1779.4 527.55 1779.81C527.67 1780.22 527.44 1779.43 527.43 1779.33C527.52 1779.95 527.62 1779.15 527.5 1779.5C527.42 1779.74 527.3 1779.98 527.14 1780.18C527.38 1779.94 527.4 1779.92 527.2 1780.08C527 1780.25 527.02 1780.24 527.31 1780.08L526.98 1780.23C527.33 1780.14 527.36 1780.13 527.07 1780.23C526.55 1780.23 527.73 1780.47 526.76 1780.23C527.36 1780.4 526.58 1780.13 526.4 1779.97C527.08 1780.63 527.98 1780.98 528.92 1780.98C529.86 1780.98 530.76 1780.62 531.44 1779.97C532.11 1779.3 532.49 1778.38 532.49 1777.43C532.49 1776.48 532.11 1775.56 531.44 1774.89L531.54 1774.8H531.56Z" fill="#117AF6"/>
<path d="M559.29 1810.11C558.55 1809.38 557.65 1808.82 556.66 1808.48C555.67 1808.15 554.62 1808.03 553.58 1808.16C552.54 1808.29 551.55 1808.64 550.67 1809.21C549.79 1809.77 549.05 1810.52 548.5 1811.41C546.08 1815.48 548.62 1820.09 552.72 1821.67C556.19 1822.99 560.75 1821.98 562.57 1818.51C564.38 1815.04 562.66 1810.23 558.71 1809.35C557.8 1809.12 556.83 1809.25 556.02 1809.72C555.2 1810.18 554.6 1810.94 554.33 1811.85C554.09 1812.76 554.21 1813.73 554.68 1814.54C555.14 1815.36 555.91 1815.96 556.82 1816.23C557.58 1816.4 556.56 1816.01 556.37 1815.87C556.37 1815.87 555.88 1815.17 556.18 1815.55C556.25 1815.36 556.33 1815.74 556.18 1815.55C556.05 1815.98 556.18 1815.37 556.18 1815.31C556.46 1814.82 556.63 1815.03 556.18 1815.07H555.92C555.46 1815.07 555.7 1815.07 555.43 1815.02C555.2 1814.97 554.98 1814.91 554.76 1814.83C554.71 1814.83 554.76 1815.13 554.76 1815.13V1814.88L554.42 1815.17C554.42 1815.17 554.35 1815.2 554.31 1815.2C554.27 1815.2 554.23 1815.2 554.2 1815.17C554.07 1815.17 554.11 1815.17 554.32 1815.17C554.41 1814.98 554.58 1815.41 554.32 1815.17C557.67 1818.3 562.72 1813.27 559.36 1810.09L559.31 1810.15L559.29 1810.11Z" fill="#117AF6"/>
<path d="M604.57 1788.63C602.44 1786.04 598.32 1785.91 595.65 1787.7C594.14 1788.73 593.1 1790.31 592.74 1792.1C592.37 1793.89 592.72 1795.75 593.7 1797.29C594.65 1798.87 596.1 1800.08 597.82 1800.72C599.54 1801.37 601.43 1801.41 603.19 1800.84C607.16 1799.42 609.36 1794.58 606.89 1790.87C606.4 1790.07 605.62 1789.49 604.71 1789.25C603.8 1789.01 602.84 1789.14 602.02 1789.59C601.21 1790.07 600.62 1790.86 600.38 1791.77C600.14 1792.69 600.27 1793.66 600.73 1794.47C601.1 1795 601.04 1794.69 600.84 1794.12C600.84 1794.03 600.84 1794.39 600.76 1794.4C600.68 1794.4 600.76 1794.16 600.82 1794.15C601.14 1794.09 600.48 1794.15 600.5 1794.15C600.95 1794.32 600.21 1793.98 600.11 1793.92C600 1793.79 599.89 1793.66 599.76 1793.54C599.88 1793.71 599.67 1793.04 599.68 1793.31C599.69 1793.59 599.5 1793.91 599.74 1793.19C599.74 1793.19 599.57 1793.71 599.49 1793.67L599.72 1793.46C599.47 1793.65 599.44 1793.68 599.66 1793.56C600.17 1793.36 599.18 1793.68 599.72 1793.56C599.97 1793.5 599.93 1793.52 599.57 1793.56H599.9C599.29 1793.41 599.9 1793.64 599.9 1793.56C599.62 1793.46 599.18 1793.11 599.56 1793.56C600.78 1795.05 603.34 1794.83 604.6 1793.56C605.25 1792.89 605.61 1791.98 605.61 1791.04C605.61 1790.1 605.25 1789.2 604.6 1788.52L604.57 1788.63Z" fill="#117AF6"/>
<path d="M647.95 1813.59C646.4 1813.17 644.76 1813.25 643.26 1813.83C641.76 1814.41 640.49 1815.45 639.62 1816.79C638.74 1818.21 638.4 1819.91 638.66 1821.55C638.92 1823.2 639.76 1824.7 641.02 1825.8C642.29 1826.97 643.95 1827.63 645.68 1827.67C647.41 1827.7 649.09 1827.08 650.4 1825.95C651.61 1824.86 652.43 1823.4 652.74 1821.8C653.05 1820.19 652.84 1818.53 652.13 1817.07C651.38 1815.3 648.77 1814.9 647.25 1815.79C645.42 1816.8 645.21 1818.85 645.97 1820.66C645.89 1820.52 645.84 1820.37 645.82 1820.21C645.89 1821 645.93 1820.09 645.82 1820.46C645.82 1820.46 645.72 1820.71 645.66 1820.68C645.54 1820.79 645.54 1820.79 645.66 1820.68L645.87 1820.6C646.09 1820.4 646.1 1820.8 645.74 1820.6C645.84 1820.6 646.01 1820.68 646.13 1820.72L645.8 1820.54L645.67 1820.39C645.85 1820.33 645.35 1820.28 645.67 1820.51C645.67 1820.68 645.67 1820.65 645.67 1820.43C645.67 1820.21 645.67 1820.19 645.67 1820.51C645.43 1820.89 645.67 1820.51 645.76 1820.41C645.32 1820.68 646 1820.41 645.91 1820.41C645.82 1820.41 645.63 1820.49 646.07 1820.41C645.82 1820.53 645.81 1820.56 646.07 1820.49C646.07 1820.62 645.11 1820.31 646.07 1820.58C650.48 1821.87 652.36 1814.99 647.96 1813.71L647.94 1813.6L647.95 1813.59Z" fill="#117AF6"/>
<path d="M687.55 1781.86C685.83 1781.45 684.02 1781.61 682.4 1782.32C680.78 1783.03 679.43 1784.24 678.56 1785.79C677.7 1787.48 677.52 1789.43 678.04 1791.26C678.57 1793.09 679.77 1794.64 681.4 1795.61C682.9 1796.56 684.7 1796.92 686.45 1796.62C688.2 1796.31 689.77 1795.37 690.86 1793.96C691.92 1792.57 692.48 1790.86 692.42 1789.11C692.37 1787.36 691.71 1785.69 690.56 1784.37C689.34 1782.89 686.78 1783.09 685.47 1784.37C684.8 1785.05 684.43 1785.96 684.43 1786.91C684.43 1787.86 684.8 1788.78 685.47 1789.46C685.36 1789.32 685.26 1788.89 685.29 1789.27C685.35 1789.84 685.29 1788.78 685.29 1789.36C685.29 1789.76 685.29 1788.99 685.22 1789.65C685.22 1789.34 685.22 1789.54 685.13 1789.77C684.91 1789.86 685.36 1789.35 685.13 1789.77C685.13 1789.77 685.61 1789.5 685.59 1789.65C685.59 1789.52 684.94 1789.83 685.39 1789.65C685.23 1789.71 684.84 1789.37 685.2 1789.65C685.13 1789.65 684.76 1789.24 684.83 1789.34C684.6 1789 684.91 1789 684.83 1789.12C684.75 1789.24 684.83 1789.26 684.83 1789.26C685 1789.09 685.19 1788.93 685.38 1788.78C685.38 1788.78 685.82 1788.78 685.68 1788.78C690.14 1789.79 692.04 1782.95 687.57 1781.91V1781.86H687.55Z" fill="#117AF6"/>
<path d="M738.48 1800.19C736.99 1799.22 735.21 1798.79 733.45 1798.98C731.68 1799.16 730.03 1799.96 728.78 1801.22C727.57 1802.55 726.86 1804.26 726.78 1806.05C726.7 1807.85 727.25 1809.61 728.33 1811.05C729.45 1812.47 731.04 1813.42 732.81 1813.75C734.58 1814.07 736.41 1813.75 737.96 1812.82C739.48 1811.82 740.55 1810.28 740.97 1808.5C741.39 1806.74 741.12 1804.87 740.21 1803.3C739.72 1802.5 738.94 1801.91 738.03 1801.68C737.12 1801.44 736.15 1801.57 735.33 1802.03C734.52 1802.51 733.93 1803.3 733.69 1804.21C733.45 1805.12 733.58 1806.09 734.04 1806.9C734.39 1807.49 734.11 1806.9 734.04 1806.63C734.17 1807.26 734.04 1806.46 734.04 1806.82C734.04 1807.18 733.99 1807.02 734.11 1806.73L733.95 1807.01C734.36 1806.64 734.36 1806.81 734.02 1806.85C734.58 1806.77 733.61 1806.69 734.02 1806.79C733.45 1806.62 734.43 1806.88 734.02 1806.79C733.14 1806.58 734.07 1806.69 734.02 1806.89L733.76 1806.65C733.91 1806.88 733.93 1806.89 733.76 1806.65C733.59 1806.42 733.65 1806.46 733.76 1806.65C733.87 1806.85 733.84 1806.79 733.76 1806.42C733.64 1806.97 733.76 1806.14 733.76 1806.42C733.76 1806.7 733.66 1805.87 733.7 1806.42C733.7 1806.2 733.77 1806.11 733.96 1806.03C733.44 1806.27 734.39 1805.96 733.96 1806.03C733.53 1806.11 734.42 1805.76 733.96 1806.03C734.35 1806.03 734.43 1806.03 734.18 1806.03C733.93 1806.03 734.01 1806.03 734.38 1806.08C733.85 1805.8 734.66 1806.27 734.77 1806.34C735.59 1806.81 736.56 1806.94 737.47 1806.7C738.38 1806.46 739.16 1805.87 739.64 1805.07C740.1 1804.25 740.22 1803.28 739.98 1802.37C739.74 1801.46 739.16 1800.68 738.36 1800.19H738.45H738.48Z" fill="#117AF6"/>
<path d="M555.09 1577.42C555.09 1577.42 525.16 1569.11 523.17 1600.7C521.17 1632.29 538.47 1649.58 538.8 1690.49C539.13 1731.39 541.13 1722.41 541.13 1722.41C541.13 1722.41 520.51 1723.08 525.5 1736.38C525.5 1736.38 534.81 1749.68 545.45 1734.38C556.09 1719.08 560.41 1680.18 560.08 1674.86C559.75 1669.54 555.09 1577.43 555.09 1577.43V1577.42Z" fill="#E7AB43"/>
<path d="M555.75 1569.44C555.75 1569.44 555.75 1612.34 560.07 1648.25C564.39 1684.16 545.44 1734.38 545.44 1734.38C545.44 1734.38 529.3 1735.59 533.71 1744.96C538.12 1754.33 550.09 1752.67 550.09 1752.67C550.09 1752.67 555.08 1758.99 563.39 1756.66C563.39 1756.66 568.05 1764.97 582.01 1760.65C595.98 1756.33 601.96 1753.33 602.3 1751.34C602.63 1749.34 604.63 1736.71 604.63 1736.71C604.63 1736.71 610.95 1743.36 624.25 1739.04C624.25 1739.04 624.58 1757.99 635.56 1759.66C646.53 1761.32 656.51 1765.98 661.83 1756.67C661.83 1756.67 678.39 1760.34 681.78 1754.01C681.78 1754.01 691.42 1751.02 692.42 1743.37C692.42 1743.37 705.72 1744.37 706.72 1737.72L707.05 1734.06C707.05 1734.06 718.69 1737.72 720.68 1735.06C722.68 1732.4 721.68 1714.77 704.05 1714.77C704.05 1714.77 702.72 1699.47 717.02 1660.23C731.32 1620.99 723.67 1595.05 716.02 1587.07C708.37 1579.09 690.75 1577.76 690.75 1577.76L692.41 1552.82C692.41 1552.82 681.1 1580.42 647.52 1577.76C613.93 1575.1 612.27 1565.79 612.27 1565.79C612.27 1565.79 598.64 1583.08 555.74 1569.45L555.75 1569.44Z" fill="#E7AB43"/>
<path d="M552.12 1572.45C550.08 1625.13 568.13 1682.42 543.22 1732.1C541.18 1736.17 547.29 1739.81 549.33 1735.69C575.02 1684.44 557.11 1626.74 559.21 1572.44C559.39 1567.85 552.25 1567.86 552.08 1572.44H552.12V1572.45Z" fill="#D08F42"/>
<path d="M553.15 1732.94C545.26 1731.69 533.44 1731.97 531.98 1742.26C530.59 1752.13 540.95 1756.52 549.02 1756.74C553.61 1756.9 553.6 1749.77 549.02 1749.62C545.52 1749.51 538.18 1748.32 539 1743.18C539.83 1738.04 547.94 1739.28 551.22 1739.81C555.7 1740.53 557.64 1733.7 553.11 1732.94H553.15Z" fill="#D08F42"/>
<path d="M563.72 1734.96C557.12 1735.61 550.76 1742.8 549.91 1749.22C548.95 1756.61 555.4 1761.57 562.32 1760.53C566.84 1759.85 564.92 1752.97 560.43 1753.66C556.64 1754.23 556.59 1750.07 557.81 1747.81C558.83 1745.93 561.44 1742.27 563.72 1742.04C568.25 1741.6 568.29 1734.48 563.72 1734.91V1734.96Z" fill="#D08F42"/>
<path d="M575.47 1738.78C570.13 1741.71 564.4 1747.12 563.95 1753.61C563.53 1759.54 568.2 1764.07 573.7 1765.28C581.04 1766.91 588.66 1762.43 595.15 1759.72C597.8 1758.59 601.7 1757.75 603.69 1755.49C605.97 1752.9 605.18 1748.85 605.34 1745.72C605.8 1736.68 608.01 1727.86 609.81 1719.02C611.66 1709.86 613.21 1700.69 614.51 1691.53C617.13 1673.11 618.83 1654.59 620.18 1636.03C620.52 1631.46 613.39 1631.48 613.05 1636.03C611.01 1663.52 608.27 1691.02 602.72 1718.1C601.47 1724.21 600.08 1730.32 599.17 1736.43C598.76 1739.2 598.42 1741.98 598.24 1744.77C598.17 1745.98 598.48 1748.25 598.11 1749.43C597.56 1751.15 596.63 1751.33 594.99 1752.1C589.9 1754.52 582.53 1758.63 576.75 1758.45C572.68 1758.33 570.2 1755.93 571.87 1751.81C573.12 1748.75 576.24 1746.46 579.05 1744.93C583.07 1742.72 579.48 1736.56 575.44 1738.82V1738.79L575.47 1738.78Z" fill="#D08F42"/>
<path d="M601.98 1740.47C609.11 1743.58 616.09 1746 623.55 1742.6C627.71 1740.71 624.1 1734.56 619.94 1736.49C615.24 1738.64 609.92 1736.27 605.57 1734.36C601.42 1732.53 597.78 1738.67 601.98 1740.47Z" fill="#D08F42"/>
<path d="M689.38 1553.15C685.39 1581.88 686.99 1611.06 682.67 1639.7C678.48 1667.46 669.84 1694.89 672.96 1723.2C673.46 1727.71 680.59 1727.76 680.09 1723.2C676.97 1694.82 685.81 1667.44 689.84 1639.64C693.91 1611.57 692.37 1583.05 696.27 1554.97C696.9 1550.48 690.03 1548.55 689.4 1553.08V1553.15H689.38Z" fill="#D08F42"/>
<path d="M631.27 1624.97L630.61 1675.77C630.39 1692.49 630.68 1709.47 626.41 1725.78C623.45 1737.05 618.95 1751.24 629.67 1759.93C633.86 1763.35 639.21 1764.7 644.5 1765.24C649.59 1765.76 656.88 1766.54 661.26 1763.2C671.49 1755.49 662.48 1739.36 652.19 1737.35C647.71 1736.47 645.79 1743.35 650.3 1744.22C654.8 1745.09 663.02 1754.22 656.17 1757.93C654.13 1759.04 649.6 1758.38 647.36 1758.26C644.39 1758.2 641.45 1757.69 638.62 1756.77C622.74 1751.07 633.14 1730.52 635.14 1719.17C637.78 1704.19 637.57 1688.89 637.77 1673.73L638.41 1624.92C638.47 1620.33 631.34 1620.33 631.28 1624.92V1624.97H631.27Z" fill="#D08F42"/>
<path d="M666.66 1761.34C671.15 1761.58 678.88 1762.6 682.58 1759.3C685.76 1756.41 686.15 1750.53 685.4 1746.6C685.01 1744.36 684.1 1742.25 682.75 1740.43C681.4 1738.6 679.64 1737.12 677.62 1736.09C675.6 1735.06 673.36 1734.52 671.09 1734.51C668.82 1734.5 666.58 1735.01 664.54 1736.02C660.47 1738.06 664.03 1744.17 668.14 1742.13C672.94 1739.78 677.99 1743.69 678.55 1748.6C678.68 1749.74 678.62 1750.91 678.37 1752.03C677.91 1753.81 677.7 1753.65 676.24 1754.07C673.48 1754.9 669.47 1754.33 666.67 1754.18C662.09 1753.94 662.11 1761.07 666.67 1761.31V1761.34H666.66Z" fill="#D08F42"/>
<path d="M685.18 1754.8C694.74 1754.41 696.72 1744.14 696.01 1736.32C695.14 1726.75 687.94 1723.63 679.17 1724.53C674.65 1724.99 674.6 1732.12 679.17 1731.66C683.74 1731.2 688.05 1730.92 688.88 1736.32C689.35 1739.37 689.64 1747.52 685.17 1747.68C680.7 1747.83 680.58 1754.99 685.17 1754.81L685.18 1754.8Z" fill="#D08F42"/>
<path d="M702.95 1720.48C707.25 1716.89 713.22 1720.12 715.36 1724.47C716.22 1726.2 717.48 1729.77 716.88 1731.75C716.7 1732.31 716.78 1732.47 717.11 1732.24L714.96 1732.06L709.95 1731.63C705.38 1731.24 705.41 1738.37 709.95 1738.76C714.49 1739.15 721.96 1741.19 723.67 1735.33C724.92 1731.04 723.67 1725.31 721.78 1721.39C717.39 1712.35 705.89 1708.76 697.91 1715.44C694.4 1718.39 699.46 1723.41 702.95 1720.48Z" fill="#D08F42"/>
<path d="M698.11 1730.53C701.49 1729.85 702.35 1733.7 702.7 1736.24C703.25 1740.18 699.16 1740.15 696.21 1740.19C691.63 1740.26 691.61 1747.39 696.21 1747.32C703.65 1747.21 711.03 1744.01 709.73 1735.29C708.65 1728.03 704.26 1722.05 696.21 1723.65C691.72 1724.55 693.61 1731.42 698.1 1730.52L698.11 1730.53Z" fill="#D08F42"/>
<path d="M552.06 1573.39C540.86 1570.44 529.38 1576.44 523.82 1586.33C516.95 1598.61 519 1613.23 522.48 1626.19C526.55 1641.61 530.72 1656.85 533.25 1672.64C535.86 1689.14 537.22 1705.82 537.32 1722.53L540.88 1718.97C532.73 1718.21 523.73 1721.84 521.71 1730.57C519.96 1738.09 525.78 1745.64 533.71 1744.95C538.24 1744.54 538.29 1737.41 533.71 1737.82C528.49 1738.28 527.27 1732.66 530.28 1729.14C532.97 1725.99 537.06 1725.74 540.89 1726.09C541.83 1726.09 542.73 1725.7 543.4 1725.04C544.07 1724.37 544.44 1723.47 544.45 1722.53C544.28 1694.86 540.73 1667.32 533.87 1640.52C530.63 1627.94 525.38 1615.06 526.54 1601.83C527.56 1589.95 536.72 1576.66 550.2 1580.21C554.64 1581.38 556.53 1574.51 552.09 1573.34L552.05 1573.39H552.06Z" fill="#D08F42"/>
<path d="M468 1474.29C474.18 1488.49 487.83 1497.99 502.08 1502.94C504.74 1503.86 505.91 1508.02 502.94 1509.45C490.52 1515.45 497.64 1532.87 504.77 1540C509.48 1544.68 515.33 1548.06 521.74 1549.79C528.15 1551.52 534.9 1551.54 541.33 1549.86C541.86 1549.72 542.41 1549.71 542.95 1549.81C543.49 1549.92 543.99 1550.14 544.42 1550.48C544.85 1550.81 545.21 1551.23 545.45 1551.72C545.7 1552.21 545.83 1552.74 545.84 1553.29C546.32 1567.67 567.64 1568.75 578.13 1569.77C589.63 1570.88 602.37 1570.69 611.2 1562.22C611.65 1561.79 612.19 1561.48 612.79 1561.33C613.39 1561.17 614.02 1561.17 614.62 1561.33C615.22 1561.49 615.77 1561.8 616.21 1562.23C616.65 1562.66 616.98 1563.2 617.16 1563.79C619 1569.7 626.74 1570.87 632 1571.81C639.83 1573.23 647.8 1574.39 655.78 1573.85C668.95 1572.95 684.08 1564.92 684.49 1550.08C684.55 1547.98 686.76 1545.74 689 1546.64C704.08 1552.64 722.93 1547.66 731.95 1533.85C740.97 1520.04 738.19 1500.75 726.54 1489.4C724.18 1487.08 726.12 1483.55 729.05 1483.29C753.43 1481.21 761.82 1452.78 761.03 1432.2C760.34 1414.18 752.59 1393.71 734.64 1386.58C732.51 1385.76 731.23 1383.51 732.51 1381.35C741.31 1366.54 747.19 1347.2 739.84 1330.54C733.76 1316.74 717.99 1306.7 702.94 1311.47C699.04 1312.7 696.73 1306.92 700.19 1304.95C706.87 1301.17 709.53 1293.11 707.64 1285.78C705.76 1278.45 699.67 1272.9 693.12 1269.57C685.47 1265.68 676.69 1264.7 668.23 1264.38C660.45 1264.08 650.68 1263.22 644.65 1269.13C642.56 1271.15 638.27 1269.8 638.54 1266.6C639.02 1261.16 632.46 1257.54 628.47 1255.05C624.45 1252.55 620.17 1250.5 615.7 1248.94C606.99 1245.88 597.72 1244.73 588.52 1245.57C571.07 1247.23 550.09 1260.83 557.14 1281.06C558.25 1284.29 554.46 1286.36 551.91 1285.13C532.99 1276.08 509 1275.82 493.72 1291.96C480.88 1305.54 481.03 1329.15 498.01 1339.42C501.52 1341.56 499.16 1346.86 495.26 1345.94C476.1 1341.39 456.9 1356.54 452.49 1374.87C447.49 1395.66 459.75 1417.2 476.17 1429.27C479.41 1431.61 477 1436.7 473.85 1435.98C464.26 1446.02 462.48 1461.63 468 1474.31V1474.29Z" fill="#D08F42"/>
<path d="M639.89 1343.75C640.8 1342.06 641.82 1340.43 642.95 1338.87C643.75 1337.52 644.87 1336.4 646.22 1335.6C649 1334.33 652.33 1337.79 654.12 1339.5C658.7 1343.84 663.07 1350.99 659.87 1357.38C659.2 1358.82 658.13 1360.04 656.78 1360.89C655.43 1361.74 653.87 1362.18 652.28 1362.16C649 1362.04 649.01 1367.13 652.28 1367.25C654.41 1367.27 656.52 1366.78 658.41 1365.81C660.31 1364.84 661.94 1363.42 663.17 1361.68C665.97 1357.94 666.46 1352.93 665.46 1348.44C664.3 1343.98 661.93 1339.93 658.61 1336.74C655.56 1333.69 651.4 1329.81 646.75 1330.24C645.44 1330.42 644.17 1330.87 643.04 1331.55C641.9 1332.23 640.91 1333.13 640.13 1334.2C638.37 1336.36 636.84 1338.68 635.55 1341.14C634.01 1344.03 638.4 1346.61 639.94 1343.71L639.9 1343.75H639.89Z" fill="#9D6434"/>
<path d="M578.58 1346.49C576.63 1344.42 574.55 1342.48 572.37 1340.66C570.35 1338.82 568.05 1337.3 565.57 1336.16C560.41 1334.12 554.83 1336.41 550.81 1339.79C547.41 1342.73 544.99 1346.64 543.89 1350.99C542.76 1355.46 542.87 1361 545.5 1364.95C547.19 1367.48 549.71 1368.87 552.42 1370.04C555.46 1371.35 558.62 1372.34 561.86 1372.99C562.51 1373.15 563.2 1373.06 563.78 1372.73C564.36 1372.4 564.8 1371.86 565 1371.22C565.17 1370.57 565.08 1369.87 564.75 1369.29C564.42 1368.7 563.87 1368.27 563.22 1368.09C560.89 1367.63 558.61 1366.99 556.38 1366.18C554.37 1365.58 552.49 1364.64 550.81 1363.39C548.21 1361.15 547.96 1356.74 548.53 1353.59C549.13 1350.2 550.72 1347.07 553.11 1344.59C555.6 1342.03 559.57 1339.58 563.29 1340.69C565.44 1341.34 567.29 1342.97 568.99 1344.39C571.11 1346.17 573.13 1348.06 575.03 1350.07C577.28 1352.45 580.89 1348.85 578.62 1346.46L578.58 1346.49Z" fill="#9D6434"/>
<path d="M564.49 1482.32C559.33 1480.66 556.01 1475.64 556.22 1470.22L558.78 1404.53C558.78 1404.53 559.54 1351.17 594.52 1333.32C594.52 1333.32 633.67 1312.4 655.86 1378.11C678.05 1443.83 667.57 1443.48 667.57 1443.48L566.61 1482.74C566.61 1482.74 565.81 1482.74 564.49 1482.31V1482.32Z" fill="#E7AB43"/>
<path d="M558.78 1358.49C559.58 1358.45 560.38 1358.47 561.17 1358.55H561.5C561.08 1358.55 561.02 1358.49 561.3 1358.55L561.77 1358.63C562.17 1358.7 562.55 1358.79 562.94 1358.89C563.33 1358.99 563.71 1359.11 564.09 1359.25L564.54 1359.41L564.84 1359.53L564.68 1359.46C565.41 1359.8 566.11 1360.18 566.79 1360.6C567.37 1360.94 568.07 1361.03 568.72 1360.86C569.37 1360.69 569.93 1360.27 570.28 1359.69C570.6 1359.1 570.69 1358.41 570.52 1357.76C570.35 1357.11 569.93 1356.55 569.36 1356.2C566.21 1354.2 562.53 1353.22 558.8 1353.38C558.13 1353.39 557.49 1353.66 557.01 1354.14C556.53 1354.62 556.26 1355.26 556.25 1355.93C556.26 1356.6 556.53 1357.24 557.01 1357.72C557.49 1358.2 558.13 1358.47 558.8 1358.48L558.78 1358.49Z" fill="#9D6434"/>
<path d="M647.16 1353.97C647.4 1353.75 647.66 1353.52 647.92 1353.32L647.41 1353.72C648.04 1353.24 648.72 1352.84 649.45 1352.54L648.84 1352.79C649.59 1352.47 650.38 1352.25 651.19 1352.14C651.83 1351.96 652.37 1351.54 652.71 1350.97C652.88 1350.67 652.99 1350.35 653.03 1350.01C653.07 1349.67 653.05 1349.33 652.96 1349C652.78 1348.36 652.36 1347.82 651.79 1347.48L651.19 1347.23C650.75 1347.11 650.28 1347.11 649.84 1347.23C647.48 1347.61 645.28 1348.71 643.57 1350.38C643.09 1350.86 642.82 1351.51 642.82 1352.18C642.82 1352.85 643.1 1353.5 643.57 1353.97C643.8 1354.21 644.08 1354.4 644.39 1354.53C644.7 1354.66 645.03 1354.73 645.36 1354.73C646.03 1354.71 646.68 1354.44 647.16 1353.98V1353.97Z" fill="#9D6434"/>
<path d="M606.68 1396.77C605.33 1397.26 604.17 1398.19 603.39 1399.4C602.72 1400.54 602.31 1401.82 602.21 1403.14C602.04 1405.77 602.54 1408.4 603.67 1410.78C604.17 1412.17 604.93 1413.46 605.9 1414.57C606.61 1415.29 607.56 1415.73 608.57 1415.78C609.58 1415.84 610.58 1415.52 611.37 1414.88C612.7 1413.7 612.7 1411.64 612.78 1410C612.85 1408.52 612.78 1407.04 612.59 1405.57C612.44 1403.85 612.01 1402.17 611.32 1400.59C610.96 1399.78 610.36 1399.09 609.61 1398.61C608.86 1398.13 607.98 1397.88 607.09 1397.89C606.42 1397.91 605.78 1398.18 605.31 1398.66C604.84 1399.13 604.56 1399.77 604.54 1400.44C604.54 1401.11 604.82 1401.76 605.29 1402.23C605.77 1402.71 606.41 1402.98 607.08 1402.98C607.38 1402.98 607.31 1402.98 606.91 1402.9C607.17 1402.98 607.12 1402.9 606.75 1402.82C606.97 1402.96 606.94 1402.93 606.64 1402.72C606.82 1402.91 606.8 1402.88 606.58 1402.61C606.76 1402.79 606.89 1403 606.96 1403.24C606.84 1402.92 606.82 1402.89 606.96 1403.16C607.1 1403.42 607.04 1403.39 607.07 1403.51C607.25 1404.16 607.4 1404.81 607.51 1405.48C607.51 1405.65 607.56 1405.83 607.59 1406C607.59 1405.75 607.59 1405.79 607.59 1406.09C607.59 1406.39 607.66 1406.78 607.69 1407.11C607.79 1408.5 607.77 1409.89 607.63 1411.27L607.57 1411.79C607.57 1411.49 607.57 1411.5 607.57 1411.79C607.68 1411.44 607.91 1411.15 608.23 1410.96C608.54 1410.77 608.91 1410.71 609.27 1410.77C609.59 1410.95 609.62 1410.95 609.36 1410.77C609.6 1410.97 609.62 1410.97 609.42 1410.77C609.6 1411.03 609.62 1411.03 609.42 1410.77C609.36 1410.69 609.31 1410.6 609.26 1410.52C608.65 1409.57 608.18 1408.55 607.88 1407.47C607.68 1406.85 607.52 1406.21 607.39 1405.57C607.39 1405.44 607.33 1405.29 607.31 1405.16C607.29 1405.03 607.31 1404.93 607.31 1405.3C607.25 1405.06 607.23 1404.81 607.25 1404.57V1403.47C607.25 1403.18 607.25 1403.23 607.25 1403.6C607.25 1403.43 607.43 1402.29 607.6 1402.23C607.45 1402.57 607.43 1402.61 607.55 1402.36C607.59 1402.26 607.65 1402.16 607.7 1402.06L607.88 1401.78C607.65 1402.07 607.62 1402.11 607.79 1401.9L608.01 1401.67C608.22 1401.5 608.17 1401.53 607.89 1401.76C607.89 1401.69 608.85 1401.3 608.03 1401.63C608.67 1401.44 609.22 1401 609.55 1400.42C609.88 1399.84 609.98 1399.15 609.81 1398.5C609.62 1397.85 609.19 1397.31 608.6 1396.98C608.01 1396.65 607.32 1396.56 606.67 1396.73L606.69 1396.8L606.68 1396.77Z" fill="#9D6434"/>
<path d="M641.93 1395.95C638.57 1397.9 638 1402.47 639.24 1405.86C639.65 1407.11 640.45 1408.21 641.51 1408.99C642.11 1409.39 642.81 1409.62 643.53 1409.64C644.25 1409.66 644.96 1409.47 645.58 1409.1C646.62 1408.36 647.38 1407.28 647.73 1406.05C648.03 1405.16 648.2 1404.23 648.22 1403.29C648.25 1402.29 648.09 1401.3 647.73 1400.37C647.54 1399.84 647.28 1399.33 646.96 1398.87C646.5 1398.24 645.94 1397.69 645.3 1397.23C644.7 1396.89 644 1396.8 643.33 1396.97C642.69 1397.15 642.15 1397.57 641.81 1398.14C641.64 1398.43 641.53 1398.76 641.48 1399.1C641.44 1399.44 641.46 1399.78 641.55 1400.11C641.76 1400.73 642.17 1401.26 642.72 1401.63C641.99 1401.09 642.67 1401.63 642.84 1401.82C643.01 1402.01 642.44 1401.24 642.75 1401.72C642.81 1401.81 642.86 1401.91 642.92 1402.02C642.98 1402.12 643.05 1402.51 642.85 1401.83C642.85 1401.94 642.93 1402.04 642.96 1402.16C643.04 1402.42 643.1 1402.69 643.14 1402.96L643.05 1402.28C643.12 1402.84 643.12 1403.4 643.05 1403.96L643.13 1403.29C643.04 1403.85 642.9 1404.39 642.71 1404.93C642.92 1404.2 642.87 1404.56 642.77 1404.77C642.67 1404.97 642.62 1405.16 642.51 1405.22L642.74 1404.9C642.56 1405.08 642.64 1405.03 642.97 1404.76C642.75 1404.88 642.84 1404.85 643.24 1404.66H643.02L643.69 1404.57H643.48L644.15 1404.66C644.15 1404.66 643.94 1404.66 643.95 1404.66C643.95 1404.66 644.56 1404.97 644.25 1404.78C643.93 1404.6 644.65 1405.16 644.43 1404.94L644.26 1404.77C644 1404.44 644.2 1404.7 644.26 1404.77C644.32 1404.84 644.52 1405.1 644.26 1404.77C644.2 1404.7 644.05 1404.28 643.99 1404.26C643.93 1404.24 644.2 1404.85 644.1 1404.52C644.08 1404.45 644.06 1404.38 644.03 1404.31L643.91 1403.86C643.82 1403.53 643.75 1403.19 643.71 1402.84L643.79 1403.52C643.7 1402.82 643.7 1402.11 643.79 1401.41L643.7 1402.08C643.74 1401.78 643.8 1401.49 643.89 1401.2C643.96 1400.97 644.22 1400.56 643.83 1401.29C643.89 1401.16 643.95 1401.03 644.02 1400.9C644.09 1400.78 644.18 1400.66 644.25 1400.53C643.85 1401.2 644.01 1400.83 644.2 1400.64C644.39 1400.46 644.75 1400.29 644.09 1400.64C644.22 1400.56 644.35 1400.47 644.48 1400.4C645.06 1400.05 645.47 1399.49 645.64 1398.84C645.81 1398.19 645.72 1397.5 645.38 1396.91C645.03 1396.34 644.47 1395.92 643.82 1395.75C643.17 1395.58 642.48 1395.67 641.9 1395.99V1395.96L641.93 1395.95Z" fill="#9D6434"/>
<path d="M631.48 1374.14C632.81 1372.77 634.28 1371.55 635.87 1370.49C636.45 1370.02 637.13 1369.68 637.85 1369.47C637.97 1369.47 638.27 1369.47 637.97 1369.47L638.23 1369.54C638.49 1369.66 638.73 1369.83 638.94 1370.03C640.22 1371.35 641.38 1372.79 642.41 1374.32L646.67 1379.93C647.03 1380.5 647.58 1380.9 648.23 1381.07C648.88 1381.24 649.56 1381.15 650.15 1380.83C650.73 1380.48 651.15 1379.93 651.32 1379.27C651.49 1378.62 651.4 1377.93 651.06 1377.34L646.12 1370.82C644.63 1368.87 643.26 1366.68 641.15 1365.33C638.82 1363.84 636.13 1364.31 633.86 1365.66C631.68 1367.02 629.68 1368.63 627.89 1370.47C625.59 1372.81 629.18 1376.41 631.48 1374.06V1374.12V1374.14Z" fill="#9D6434"/>
<path d="M605.68 1367.64C600.16 1365.86 594.62 1369.54 590.53 1372.89C586.26 1376.38 583.15 1381.69 584.52 1387.34C584.71 1387.98 585.14 1388.53 585.72 1388.86C586.3 1389.19 586.99 1389.28 587.64 1389.11C588.28 1388.92 588.83 1388.49 589.16 1387.91C589.49 1387.33 589.59 1386.64 589.42 1385.99C589.09 1384.33 589.34 1382.61 590.12 1381.11C591.11 1379.31 592.48 1377.73 594.12 1376.49C595.69 1375.2 597.4 1374.09 599.21 1373.18C600.06 1372.77 600.95 1372.48 601.88 1372.31C601.58 1372.31 602.14 1372.31 602.23 1372.31H602.95C603.41 1372.33 603.86 1372.43 604.29 1372.59C604.94 1372.76 605.63 1372.67 606.21 1372.34C606.8 1372.01 607.23 1371.46 607.41 1370.81C607.58 1370.16 607.49 1369.47 607.16 1368.88C606.83 1368.29 606.28 1367.86 605.64 1367.67L605.66 1367.63L605.68 1367.64Z" fill="#9D6434"/>
<path d="M470.6 1429.06C457.64 1440.48 454.58 1459.96 460.83 1475.69C467.58 1492.67 483.32 1503.94 500.1 1509.78L499.25 1503.26C484.18 1510.5 488.23 1531.28 496.85 1541.87C502.36 1548.48 509.65 1553.38 517.85 1556.01C526.05 1558.63 534.83 1558.86 543.15 1556.68L538.64 1553.24C539.23 1571.25 559.38 1574.52 573.46 1576.32C588.33 1578.21 604.68 1578.21 616.23 1567.16L610.27 1565.58C612.51 1572.71 619.03 1576.06 625.92 1577.74C636.02 1580.2 647.3 1581.75 657.64 1580.7C674.21 1579.04 691.09 1568.1 691.59 1549.97L687.08 1553.4C705.18 1560.61 727.41 1553.73 738.08 1537.34C748.74 1520.96 745.4 1497.74 731.56 1484.25L729.03 1490.36C757.02 1487.98 768.67 1458.19 768.18 1433.54C767.74 1411.53 758.11 1388.24 736.51 1379.65L738.64 1384.88C749.03 1367.4 755.03 1344.49 745.27 1325.37C737.25 1309.66 718.49 1299 701.03 1304.53L703.78 1311.05C711.65 1306.59 715.86 1297.72 715.29 1288.77C714.66 1279.06 708.47 1270.92 700.6 1265.64C691.38 1259.44 680 1257.71 669.12 1257.23C658.94 1256.78 647.42 1256.37 639.59 1264.02L645.7 1266.53C646.72 1255.06 631.11 1247.54 622.4 1243.83C611.23 1239.03 599.01 1237.2 586.92 1238.52C575.62 1239.84 564.06 1244.15 556.54 1253.06C549.63 1261.21 546.71 1272.59 550.29 1282.85L555.52 1278.78C532.91 1267.97 503.79 1268.29 486.74 1288.96C472.58 1306.12 474.52 1333.38 494.42 1345.41L497.17 1338.89C474.77 1333.56 452.01 1349.87 445.98 1371.47C439.15 1395.91 453.23 1421.06 472.58 1435.28C476.28 1438 479.84 1431.82 476.17 1429.17C459.76 1417.1 447.5 1395.57 452.49 1374.78C456.9 1356.45 476.09 1341.3 495.26 1345.85C499.16 1346.78 501.52 1341.47 498.01 1339.33C481.03 1329.06 480.88 1305.45 493.72 1291.87C508.99 1275.73 532.99 1275.99 551.91 1285.04C554.47 1286.26 558.25 1284.19 557.14 1280.97C550.09 1260.75 571.07 1247.14 588.52 1245.48C597.72 1244.65 606.98 1245.8 615.7 1248.85C620.17 1250.41 624.45 1252.46 628.47 1254.96C632.46 1257.44 639.02 1261.07 638.54 1266.51C638.26 1269.71 642.56 1271.05 644.65 1269.04C650.69 1263.13 660.45 1264 668.23 1264.29C676.69 1264.62 685.47 1265.59 693.12 1269.48C699.67 1272.81 705.76 1278.36 707.64 1285.69C709.52 1293.02 706.87 1301.09 700.19 1304.86C696.73 1306.83 699.04 1312.61 702.94 1311.38C717.99 1306.61 733.76 1316.65 739.84 1330.45C747.19 1347.11 741.31 1366.45 732.51 1381.26C731.23 1383.42 732.51 1385.67 734.64 1386.49C752.59 1393.62 760.34 1414.08 761.03 1432.11C761.81 1452.69 753.42 1481.12 729.05 1483.2C726.12 1483.46 724.17 1486.99 726.54 1489.31C738.19 1500.65 740.97 1519.95 731.95 1533.76C722.93 1547.57 704.08 1552.55 689 1546.55C686.76 1545.65 684.55 1547.89 684.49 1549.99C684.08 1564.83 668.95 1572.86 655.78 1573.76C647.81 1574.3 639.83 1573.14 632 1571.72C626.75 1570.77 619.01 1569.6 617.16 1563.7C616.98 1563.11 616.66 1562.57 616.21 1562.14C615.77 1561.71 615.22 1561.4 614.62 1561.24C614.02 1561.08 613.39 1561.08 612.79 1561.24C612.19 1561.4 611.64 1561.7 611.2 1562.13C602.36 1570.6 589.62 1570.8 578.13 1569.69C567.64 1568.67 546.32 1567.59 545.84 1553.21C545.84 1552.66 545.7 1552.13 545.45 1551.64C545.2 1551.15 544.85 1550.73 544.42 1550.4C543.99 1550.07 543.48 1549.84 542.95 1549.73C542.42 1549.62 541.86 1549.64 541.33 1549.78C534.91 1551.46 528.15 1551.44 521.74 1549.71C515.33 1547.98 509.48 1544.61 504.77 1539.92C497.64 1532.79 490.51 1515.37 502.94 1509.37C505.91 1507.94 504.74 1503.78 502.08 1502.86C487.82 1497.9 474.18 1488.41 468 1474.21C462.13 1460.74 464.5 1443.96 475.73 1434.06C479.18 1431.01 474.12 1425.99 470.64 1428.97L470.59 1429.03L470.6 1429.06Z" fill="#D08F42"/>
<path d="M561.2 1475.27C561.2 1475.27 560.18 1438.02 626.37 1431.82C692.56 1425.62 702.94 1484.58 688.49 1507.34C674.04 1530.11 640.91 1558.03 594.35 1544.58C547.79 1531.13 561.2 1475.27 561.2 1475.27Z" fill="#F1B965"/>
<path d="M595.09 1512.82C595.34 1512.58 595.6 1512.34 595.86 1512.12C595.86 1512.12 596.26 1511.79 596.05 1511.95C595.85 1512.1 596.22 1511.83 596.25 1511.81C596.79 1511.43 597.36 1511.09 597.94 1510.79L598.46 1510.53C598.46 1510.53 598.94 1510.33 598.69 1510.42C598.45 1510.51 598.88 1510.36 598.92 1510.34L599.36 1510.19C600.03 1509.97 600.71 1509.79 601.4 1509.66L601.86 1509.58C601.47 1509.58 602.26 1509.51 601.86 1509.58C602.25 1509.58 602.55 1509.52 602.88 1509.51C603.54 1509.48 604.2 1509.51 604.86 1509.57C604.91 1509.57 605.39 1509.63 605.09 1509.57H605.32C605.67 1509.63 606.01 1509.71 606.34 1509.79C606.67 1509.87 606.93 1509.95 607.23 1510.05L607.78 1510.24C608.18 1510.39 607.25 1510 607.92 1510.3C608.51 1510.62 609.2 1510.71 609.84 1510.54C610.48 1510.37 611.05 1509.96 611.4 1509.39C611.73 1508.8 611.82 1508.11 611.65 1507.46C611.48 1506.81 611.06 1506.25 610.48 1505.91C607.34 1504.5 603.85 1504.05 600.46 1504.63C597.07 1505.21 593.92 1506.79 591.43 1509.16C590.96 1509.64 590.7 1510.29 590.7 1510.96C590.7 1511.63 590.96 1512.28 591.43 1512.76C591.91 1513.23 592.56 1513.49 593.23 1513.49C593.9 1513.49 594.55 1513.23 595.03 1512.76L595.07 1512.82H595.09Z" fill="#9D6434"/>
<g opacity="0.78">
<path d="M652.02 1464.65C645.48 1465.16 639.04 1463.75 632.52 1463.63C626.74 1463.46 621.04 1464.95 616.08 1467.93C607.16 1473.48 598.64 1486.52 605.25 1496.76C608.46 1501.72 613.82 1504.56 619.51 1505.83C625.93 1507.27 632.75 1507.48 639.31 1507.59C645.87 1507.7 652.79 1507.99 658.9 1505.7C664.37 1503.7 668.95 1499.8 671.77 1494.7C673.55 1491.62 674.06 1487.97 673.22 1484.52C672.22 1481.45 670.52 1478.66 668.25 1476.37C664.11 1471.82 659.08 1466.68 652.8 1465.44C652.15 1465.28 651.46 1465.38 650.88 1465.71C650.3 1466.04 649.86 1466.58 649.67 1467.22C649.49 1467.87 649.58 1468.57 649.92 1469.15C650.25 1469.74 650.81 1470.17 651.46 1470.35C656.27 1471.29 659.81 1474.99 663.12 1478.34C666.17 1481.46 669.62 1485.31 668.21 1490.02C666.8 1494.72 662.77 1498.28 658.58 1500.28C653.62 1502.65 647.68 1502.47 642.29 1502.47C636.29 1502.52 630.29 1502.18 624.33 1501.45C619.55 1500.82 614.58 1499.47 611.09 1495.92C609.58 1494.43 608.54 1492.52 608.11 1490.44C607.79 1487.91 608.2 1485.35 609.29 1483.05C610.98 1479.09 613.72 1475.67 617.22 1473.16C621.61 1470.07 626.88 1468.48 632.24 1468.63C638.84 1468.63 645.37 1470.11 651.98 1469.65C652.65 1469.63 653.29 1469.36 653.76 1468.88C654.23 1468.4 654.51 1467.77 654.53 1467.1C654.53 1466.43 654.26 1465.78 653.78 1465.3C653.3 1464.82 652.66 1464.55 651.98 1464.55L652.04 1464.62L652.02 1464.65Z" fill="#9D6434"/>
<path d="M669.81 1486.8C669.81 1497.18 657.23 1505.59 641.71 1505.59C626.19 1505.59 606.29 1499.67 606.29 1489.3C606.29 1478.93 618.1 1464.03 640.54 1466.35C655.98 1467.95 669.8 1476.42 669.8 1486.8H669.81Z" fill="#9D6434"/>
</g>
<path d="M637.95 1504.34C637.11 1504.12 636.21 1504.2 635.42 1504.57C634.63 1504.94 634 1505.58 633.63 1506.37C633.03 1507.87 632.79 1509.49 632.93 1511.11V1520.99C632.93 1521.66 633.21 1522.31 633.68 1522.78C634.16 1523.26 634.8 1523.53 635.47 1523.53C636.14 1523.52 636.78 1523.25 637.26 1522.77C637.74 1522.29 638.01 1521.65 638.02 1520.98V1509.21C638.02 1508.58 637.88 1509.59 638.02 1509.1C638.02 1509.02 638.28 1508.34 638.11 1508.71C638.057 1508.84 638.057 1508.84 638.11 1508.71C638.19 1508.52 638.22 1508.52 637.99 1508.84C637.8 1509.01 637.57 1509.13 637.32 1509.2C637.07 1509.27 636.81 1509.27 636.56 1509.21C637.21 1509.38 637.9 1509.29 638.49 1508.96C639.07 1508.63 639.51 1508.08 639.69 1507.43C639.86 1506.78 639.77 1506.09 639.44 1505.51C639.11 1504.93 638.57 1504.49 637.92 1504.31L637.95 1504.34Z" fill="#9D6434"/>
<path d="M648.04 1518.73C639.31 1515.12 631.4 1522.86 622.69 1521.78C618.86 1521.22 615.24 1519.63 612.24 1517.18C610.66 1515.93 609.19 1514.42 607.36 1513.57C606.33 1513.06 605.19 1512.79 604.04 1512.79C602.89 1512.79 601.75 1513.06 600.72 1513.57C600.14 1513.91 599.72 1514.47 599.55 1515.12C599.38 1515.77 599.47 1516.46 599.81 1517.05C600.16 1517.62 600.72 1518.04 601.37 1518.2C602.02 1518.37 602.71 1518.28 603.29 1517.95C604.54 1517.34 606.16 1518.69 607.04 1519.44C608.58 1520.8 610.21 1522.05 611.94 1523.17C615.33 1525.28 619.16 1526.57 623.14 1526.94C627.36 1527.32 631.29 1526.06 635.24 1524.69C638.96 1523.39 642.89 1522.09 646.72 1523.67C647.37 1523.85 648.07 1523.76 648.65 1523.43C649.24 1523.1 649.67 1522.54 649.84 1521.89C650 1521.24 649.91 1520.55 649.58 1519.97C649.25 1519.39 648.71 1518.96 648.07 1518.76L648.05 1518.72L648.04 1518.73Z" fill="#9D6434"/>
<path d="M426.31 1631.3C426.31 1631.3 396.28 1622.29 420.3 1583.63C420.3 1583.63 431.19 1565.05 447.33 1563.92C447.33 1563.92 444.54 1579.17 453.23 1587.51C456.31 1590.47 458.27 1594.42 458.63 1598.68C459.46 1608.54 458.11 1624.28 442.26 1629.05C442.26 1629.05 432.31 1620.6 426.31 1631.3Z" fill="#D08F42"/>
<path d="M522.41 1584.75C522.41 1584.75 499.89 1565.61 477.74 1589.63C477.74 1589.63 456.72 1612.53 487.12 1646.69C517.53 1680.85 487.12 1701.12 469.85 1692.86C452.58 1684.6 441.32 1678.97 443.2 1642.56C443.2 1642.56 449.96 1629.42 435.32 1624.54C420.68 1619.66 423.31 1660.95 430.44 1677.84C437.57 1694.73 459.34 1722.14 499.51 1705.62C499.51 1705.62 520.16 1693.98 519.41 1671.84C519.41 1671.84 512.65 1654.95 504.39 1649.32C496.13 1643.69 474.74 1618.24 498.38 1605.02C511.14 1597.89 521.28 1602.77 521.28 1602.77L522.41 1584.75Z" fill="#E7AB43"/>
<path d="M523.08 1581.71C508.96 1571.64 488.66 1573.01 476.67 1585.82C464 1599.35 464.88 1617.72 473.4 1633.23C478.57 1642.57 485.79 1650.47 491.8 1659.22C494.39 1663.04 496.97 1667.13 497.21 1671.89C497.26 1674.37 496.79 1676.82 495.83 1679.11C494.87 1681.39 493.44 1683.45 491.64 1685.15C484.28 1692.18 472.67 1691.95 464.19 1687.16C455.41 1682.19 449.4 1673.15 446.78 1663.54C445.54 1658.97 445.04 1654.22 445.31 1649.49C445.6 1644.37 447.73 1639.4 447.59 1634.27C447.39 1626.44 439.13 1620.32 431.49 1621.34C422.01 1622.65 421.86 1633.58 422.01 1640.97C422.22 1651.46 422.78 1662.08 425.4 1672.29C429.99 1690.18 441.39 1705.26 459.55 1710.64C468.86 1713.39 479.87 1714.95 489.41 1712.6C498.35 1710.44 506.78 1704.7 513.01 1698.02C519.23 1691.35 523.43 1682.88 522.25 1673.66C520.95 1663.61 514.18 1655.56 507.97 1648C501.25 1639.78 489.68 1628.65 492.68 1616.97C495.68 1605.29 508.2 1601.03 518.72 1604.99C522.37 1606.35 523.89 1600.52 520.32 1599.17C505.5 1593.61 488.15 1602.23 486.28 1618.6C485.25 1627.52 490.17 1634.69 495.25 1641.51C500.79 1648.94 507.45 1655.76 512.23 1663.73C517.2 1672.03 517.83 1680.85 512.43 1689.13C507.12 1696.95 499.45 1702.87 490.53 1706.02C480.88 1709.27 469.2 1707.49 459.7 1704.38C450.62 1701.41 442.92 1695.26 438.01 1687.07C432.95 1678.86 430.39 1669.41 429.19 1659.91C428.57 1654.94 428.33 1649.94 428.15 1644.94C428.01 1640.55 426.73 1633.42 429.25 1629.57C432.87 1624.04 441.55 1629.57 441.55 1634.94C441.55 1639.25 439.77 1643.69 439.39 1648.06C438.69 1656.71 440.27 1665.39 443.98 1673.23C450.88 1687.89 466.2 1699.37 482.99 1696.08C499.26 1692.89 507.92 1675.46 499.98 1660.85C490.32 1643.07 468.33 1627.02 473.45 1604.2C478.18 1583.13 502.76 1574.57 520 1586.9C523.16 1589.16 526.18 1583.93 523.04 1581.68L523.08 1581.7V1581.71Z" fill="#D08F42"/>
<path d="M445.08 1631.81C450.75 1629.4 455.53 1625.28 458.75 1620.03C461.97 1614.78 463.48 1608.65 463.06 1602.5C462.54 1595.89 459.9 1590.36 455.95 1585.15C454.11 1582.72 452.05 1580.34 450.68 1577.6C448.44 1573.12 449.53 1568.68 450.83 1564.1C451.52 1561.67 449.3 1560.07 447.12 1560.39C429.64 1562.88 418.14 1577.54 412.14 1593.15C409.04 1601.18 406.67 1610.56 409.45 1619.01C411.66 1625.77 416.72 1631.35 423.73 1633.1C427.5 1634.04 429.11 1628.22 425.33 1627.28C409.18 1623.25 414.53 1602.1 419.3 1591.42C424.9 1578.96 434.6 1568.24 448.69 1566.23L444.97 1562.51C443.36 1568.23 442.33 1573.88 444.88 1579.5C447.42 1585.12 452.16 1588.98 454.77 1594.44C460.86 1607.04 454.44 1621.29 442 1626.64C438.44 1628.17 441.51 1633.37 445.04 1631.81H445.08Z" fill="#D08F42"/>
<path d="M560.46 1473.48C561.15 1452.53 561.48 1431.55 562.65 1410.62C563.6 1393.02 565.7 1374.77 573.75 1358.84C581.09 1344.37 595.05 1329.58 612.87 1333.25C631.47 1337.1 641.84 1354.63 648.2 1370.99C655.64 1390.24 660.79 1410.3 663.54 1430.75C663.88 1433.22 664.16 1435.71 664.43 1438.18C664.45 1438.85 664.72 1439.49 665.2 1439.96C665.67 1440.43 666.31 1440.71 666.98 1440.73C667.65 1440.73 668.3 1440.46 668.78 1439.98C669.26 1439.5 669.53 1438.86 669.53 1438.18C667.29 1416.75 662.51 1395.65 655.27 1375.35C648.79 1357.26 639.69 1338.21 620.85 1330.4C616.59 1328.58 612 1327.65 607.37 1327.67C602.74 1327.7 598.16 1328.68 593.92 1330.55C585.6 1334.25 578.98 1341.06 573.94 1348.49C563.33 1364.14 559.68 1383.23 558.18 1401.76C557.37 1411.54 557.16 1421.35 556.8 1431.16L555.67 1465.11L555.39 1473.47C555.28 1476.75 560.37 1476.75 560.48 1473.47H560.46V1473.48Z" fill="#E7AB44"/>
<path d="M689.16 1580.31C701.48 1582.35 713.6 1585.28 717.9 1598.48C722.1 1611.31 721.74 1626.58 719.32 1639.71C714.68 1664.81 701.14 1687.45 699.67 1713.26C699.42 1717.84 706.54 1717.83 706.8 1713.26C708.47 1684.11 725.67 1658.55 727.77 1629.36C728.7 1616.51 728.35 1600.31 721.41 1588.96C714.88 1578.29 702.61 1575.33 691.08 1573.45C686.59 1572.72 684.65 1579.56 689.19 1580.32L689.16 1580.31Z" fill="#D08F42"/>
<path d="M1504.49 1209.96C1510.63 1205.89 1512.94 1202.74 1518.7 1198.14C1524.21 1193.74 1525.35 1185.95 1526.08 1178.94C1526.21 1177.74 1526.31 1176.42 1524.73 1175.67C1524 1175.32 1523.17 1175.26 1522.36 1175.36C1518.62 1175.83 1517.39 1176.52 1514.12 1177.03C1510.8 1177.55 1508.8 1179.36 1504.81 1183.02C1504.1 1183.67 1503.43 1184.26 1502.77 1184.84C1500.33 1187 1498.18 1189.46 1496.38 1192.17L1485.07 1209.18C1479.26 1216.05 1387.96 1300.65 1377.11 1297.75C1369.74 1295.78 1345.7 1257.4 1316.89 1228.75C1299.59 1211.54 1277.41 1200.06 1253.45 1195.44C1234.37 1191.76 1220.89 1189.45 1214.14 1188.32C1212.32 1188.02 1210.6 1187.25 1209.17 1186.08C1207.74 1184.91 1206.64 1183.38 1205.99 1181.65C1203.77 1175.25 1201.9 1168.73 1200.4 1162.12V1159.57C1200.38 1157.45 1206.02 1154.77 1212.07 1146.13C1217.16 1138.87 1218.43 1132.63 1220.22 1127.89C1221.39 1124.74 1222.3 1119.49 1222.94 1114.65C1224.28 1105.05 1223.3 1095.28 1220.08 1086.14C1217.33 1078.64 1213.26 1072.28 1207.15 1068.77C1204.25 1067.1 1200.05 1067.47 1196.81 1068.42C1196.63 1068.48 1196.45 1068.55 1196.28 1068.63L1196.45 1068.91L1195.98 1068.8C1196.07 1068.75 1196.16 1068.64 1196.28 1068.64C1194.15 1065.48 1191.51 1062.7 1188.46 1060.41C1182.39 1055.94 1175.01 1058.4 1167.61 1055.1C1164.84 1053.87 1161.17 1055.01 1158.3 1053.99C1151.13 1051.52 1150.23 1050.05 1144.33 1053.1C1142.47 1054 1139.59 1050.64 1138.57 1052.43C1137.55 1054.23 1134.8 1053.58 1134.98 1055.64L1134.62 1055.78C1130.29 1053.63 1148.91 1067.38 1144.11 1066.84C1134.73 1065.87 1127.85 1062.26 1123.05 1069.94C1121.31 1072.75 1111.2 1071.34 1111.74 1074.6C1112.07 1077.15 1100.22 1073.71 1101.91 1075.64C1108.94 1084.19 1112.69 1085.86 1123.19 1091.1C1120.41 1100.29 1117.02 1112.56 1116.51 1120.13C1115.7 1132.26 1117.24 1161.57 1150.26 1166.05C1150.26 1166.05 1152.03 1180.43 1149.78 1191.4C1149.54 1192.53 1148.96 1193.56 1148.14 1194.36C1147.31 1195.16 1146.26 1195.7 1145.13 1195.91C1125.84 1199.59 1102.18 1196.76 1048.84 1251.03C1032.97 1267.13 1013.97 1285.11 996.02 1285.43C982.11 1285.67 931.69 1240.81 893.26 1213.93C893.26 1213.93 874.97 1190.32 850.36 1175.02C843.92 1171.02 841.05 1171.03 834.4 1176.35C820.27 1187.65 855.68 1194.64 849.7 1196.97C839.6 1200.9 824.43 1198.97 824.43 1198.97C825.28 1201.92 785.12 1177.82 774.77 1187C773.29 1188.31 770.03 1187.99 769.45 1194.09C767.68 1212.71 835.17 1231.22 843.38 1239.87C843.38 1239.87 956.11 1360.58 988.04 1363.91C1031.03 1366.31 1053.78 1340.28 1081.03 1315.85C1110 1289.91 1110.91 1306.82 1111.63 1323.52C1112.35 1340.22 1105.42 1389.19 1092.12 1421.11C1075.06 1456.6 1021.29 1508.9 1021.29 1508.9C1021.29 1508.9 824.17 1707.59 811.11 1714.61C798.05 1721.63 710.93 1651 715.29 1677.84C719.65 1704.68 802.04 1808.64 824.73 1810.37C847.43 1812.11 1179.38 1517.57 1198.2 1518.21C1217.02 1518.85 1336.4 1564.03 1353.83 1572.75C1371.26 1581.47 1387.52 1824.94 1396.24 1837.59C1404.96 1850.24 1561.75 1859.79 1570.79 1837.59C1579.84 1815.39 1468.1 1796.64 1459.4 1790.1C1450.69 1783.57 1487.71 1544.02 1475.94 1523.03C1465.88 1505.09 1336.75 1445.24 1299.36 1428.2C1293.19 1425.39 1289.11 1419.4 1288.71 1412.64C1286.71 1378.71 1281.96 1330.27 1278.93 1300.91C1278.39 1295.72 1285.38 1293.56 1287.87 1298.15C1304.24 1328.39 1342.87 1372.34 1366.06 1386.83C1370.1 1389.36 1375.16 1389.6 1379.42 1387.47C1418.22 1368.06 1512.37 1251.33 1515.78 1248.52L1538.56 1226.67C1544.88 1217.21 1553.82 1198.6 1557.03 1187.69C1560.01 1177.55 1562.34 1174.78 1559.03 1164.74C1556.8 1158.01 1545.1 1151.84 1540.34 1147.42C1539.38 1146.53 1538.35 1145.7 1537.19 1145.11C1530.34 1141.62 1526.72 1146.93 1525.22 1151.81C1524.17 1155.22 1523.59 1158.96 1521.22 1161.63C1519.45 1163.62 1516.84 1164.79 1515.31 1166.98C1514.18 1168.58 1513.76 1170.57 1513.42 1172.5C1511.99 1180.56 1511.46 1188.79 1511.85 1196.97" fill="#F2A91F"/>
<mask id="mask0_221_603" style="mask-type:alpha" maskUnits="userSpaceOnUse" x="715" y="1051" width="857" height="800">
<path d="M1504.49 1209.96C1510.63 1205.89 1512.94 1202.74 1518.7 1198.14C1524.21 1193.74 1525.35 1185.95 1526.08 1178.94C1526.21 1177.74 1526.31 1176.42 1524.73 1175.67C1524 1175.32 1523.17 1175.26 1522.36 1175.36C1518.62 1175.83 1517.39 1176.52 1514.12 1177.03C1510.8 1177.55 1508.8 1179.36 1504.81 1183.02C1504.1 1183.67 1503.43 1184.26 1502.77 1184.84C1500.33 1187 1498.18 1189.46 1496.38 1192.17L1485.07 1209.18C1479.26 1216.05 1387.96 1300.65 1377.11 1297.75C1369.74 1295.78 1345.7 1257.4 1316.89 1228.75C1299.59 1211.54 1277.41 1200.06 1253.45 1195.44C1234.37 1191.76 1220.89 1189.45 1214.14 1188.32C1212.32 1188.02 1210.6 1187.25 1209.17 1186.08C1207.74 1184.91 1206.64 1183.38 1205.99 1181.65C1203.77 1175.25 1201.9 1168.73 1200.4 1162.12V1159.57C1200.38 1157.45 1206.02 1154.77 1212.07 1146.13C1217.16 1138.87 1218.43 1132.63 1220.22 1127.89C1221.39 1124.74 1222.3 1119.49 1222.94 1114.65C1224.28 1105.05 1223.3 1095.28 1220.08 1086.14C1217.33 1078.64 1213.26 1072.28 1207.15 1068.77C1204.25 1067.1 1200.05 1067.47 1196.81 1068.42C1196.63 1068.48 1196.45 1068.55 1196.28 1068.63L1196.45 1068.91L1195.98 1068.8C1196.07 1068.75 1196.16 1068.64 1196.28 1068.64C1194.15 1065.48 1191.51 1062.7 1188.46 1060.41C1182.39 1055.94 1175.01 1058.4 1167.61 1055.1C1164.84 1053.87 1161.17 1055.01 1158.3 1053.99C1151.13 1051.52 1150.23 1050.05 1144.33 1053.1C1142.47 1054 1139.59 1050.64 1138.57 1052.43C1137.55 1054.23 1134.8 1053.58 1134.98 1055.64L1134.62 1055.78C1130.29 1053.63 1148.91 1067.38 1144.11 1066.84C1134.73 1065.87 1127.85 1062.26 1123.05 1069.94C1121.31 1072.75 1111.2 1071.34 1111.74 1074.6C1112.07 1077.15 1100.22 1073.71 1101.91 1075.64C1108.94 1084.19 1112.69 1085.86 1123.19 1091.1C1120.41 1100.29 1117.02 1112.56 1116.51 1120.13C1115.7 1132.26 1117.24 1161.57 1150.26 1166.05C1150.26 1166.05 1152.03 1180.43 1149.78 1191.4C1149.54 1192.53 1148.96 1193.56 1148.14 1194.36C1147.31 1195.16 1146.26 1195.7 1145.13 1195.91C1125.84 1199.59 1102.18 1196.76 1048.84 1251.03C1032.97 1267.13 1013.97 1285.11 996.02 1285.43C982.11 1285.67 931.69 1240.81 893.26 1213.93C893.26 1213.93 874.97 1190.32 850.36 1175.02C843.92 1171.02 841.05 1171.03 834.4 1176.35C820.27 1187.65 855.68 1194.64 849.7 1196.97C839.6 1200.9 824.43 1198.97 824.43 1198.97C825.28 1201.92 785.12 1177.82 774.77 1187C773.29 1188.31 770.03 1187.99 769.45 1194.09C767.68 1212.71 835.17 1231.22 843.38 1239.87C843.38 1239.87 956.11 1360.58 988.04 1363.91C1031.03 1366.31 1053.78 1340.28 1081.03 1315.85C1110 1289.91 1110.91 1306.82 1111.63 1323.52C1112.35 1340.22 1105.42 1389.19 1092.12 1421.11C1075.06 1456.6 1021.29 1508.9 1021.29 1508.9C1021.29 1508.9 824.17 1707.59 811.11 1714.61C798.05 1721.63 710.93 1651 715.29 1677.84C719.65 1704.68 802.04 1808.64 824.73 1810.37C847.43 1812.11 1179.38 1517.57 1198.2 1518.21C1217.02 1518.85 1336.4 1564.03 1353.83 1572.75C1371.26 1581.47 1387.52 1824.94 1396.24 1837.59C1404.96 1850.24 1561.75 1859.79 1570.79 1837.59C1579.84 1815.39 1468.1 1796.64 1459.4 1790.1C1450.69 1783.57 1487.71 1544.02 1475.94 1523.03C1465.88 1505.09 1336.75 1445.24 1299.36 1428.2C1293.19 1425.39 1289.11 1419.4 1288.71 1412.64C1286.71 1378.71 1281.96 1330.27 1278.93 1300.91C1278.39 1295.72 1285.38 1293.56 1287.87 1298.15C1304.24 1328.39 1342.87 1372.34 1366.06 1386.83C1370.1 1389.36 1375.16 1389.6 1379.42 1387.47C1418.22 1368.06 1512.37 1251.33 1515.78 1248.52L1538.56 1226.67C1544.88 1217.21 1553.82 1198.6 1557.03 1187.69C1560.01 1177.55 1562.34 1174.78 1559.03 1164.74C1556.8 1158.01 1545.1 1151.84 1540.34 1147.42C1539.38 1146.53 1538.35 1145.7 1537.19 1145.11C1530.34 1141.62 1526.72 1146.93 1525.22 1151.81C1524.17 1155.22 1523.59 1158.96 1521.22 1161.63C1519.45 1163.62 1516.84 1164.79 1515.31 1166.98C1514.18 1168.58 1513.76 1170.57 1513.42 1172.5C1511.99 1180.56 1511.46 1188.79 1511.85 1196.97" fill="#F2A91F"/>
</mask>
<g mask="url(#mask0_221_603)">
<path opacity="0.68" d="M739.65 1674.85C739.65 1674.85 721.69 1667.87 742.64 1712.76C763.59 1757.65 821.45 1791.57 837.41 1786.58C853.37 1781.59 1155.87 1518.41 1188.91 1515.56C1221.94 1512.71 1199.55 1530.19 1199.55 1530.19L833.42 1817.51L780.55 1834.47L769.58 1791.57L731.3 1752.59C731.3 1752.59 681.79 1669.86 705.73 1660.88C729.67 1651.9 739.65 1674.85 739.65 1674.85Z" fill="#D08F42"/>
<path opacity="0.68" d="M1351.19 1587.4C1351.19 1587.4 1373.14 1844.45 1391.09 1846.45C1409.05 1848.45 1540.73 1870.39 1582.63 1841.46C1623.3 1813.38 1467.54 1852.98 1410.91 1830.7C1407.98 1829.55 1407.41 1826.4 1405.89 1823.63C1385.77 1786.92 1395.15 1566.34 1353.84 1572.76" fill="#D08F42"/>
</g>
<path d="M1178.53 1106.14L1179.07 1106.85V1106.61C1179.68 1106.95 1180.41 1106.81 1180.92 1106.46C1181.26 1106.22 1181.53 1105.87 1181.63 1105.45C1181.73 1105.03 1181.65 1104.57 1181.33 1104.14L1181.33 1104.14C1179.3 1101.48 1176.75 1099.25 1173.82 1097.59L1173.82 1097.59C1170.88 1095.94 1167.64 1094.89 1164.27 1094.51C1163.82 1094.44 1163.37 1094.55 1163 1094.8C1162.63 1095.05 1162.36 1095.44 1162.28 1095.88L1162.28 1095.88L1162.27 1095.89C1162.2 1096.34 1162.31 1096.79 1162.56 1097.15L1162.56 1097.15L1162.57 1097.16C1162.83 1097.51 1163.22 1097.77 1163.66 1097.85L1163.68 1097.86L1163.69 1097.86C1166.61 1098.16 1169.44 1099.06 1171.99 1100.48C1174.55 1101.91 1176.78 1103.83 1178.53 1106.14Z" fill="#9D6434" stroke="#9D6434" stroke-width="0.6"/>
<path d="M1141.88 1096.49L1141.91 1096.5H1141.92C1142.33 1096.59 1142.79 1096.54 1143.17 1096.33C1143.57 1096.12 1143.87 1095.76 1144.01 1095.33L1144.01 1095.33L1144.01 1095.32C1144.13 1094.88 1144.07 1094.42 1143.85 1094.03C1143.63 1093.64 1143.27 1093.35 1142.84 1093.22L1142.83 1093.22L1142.82 1093.22C1140.27 1092.66 1137.64 1092.65 1135.1 1093.21C1132.55 1093.77 1130.17 1094.86 1128.12 1096.44L1128.1 1096.45L1128.09 1096.46C1127.76 1096.78 1127.58 1097.2 1127.57 1097.65C1127.56 1098.11 1127.74 1098.54 1128.05 1098.86L1128.05 1098.86L1128.06 1098.87C1128.39 1099.18 1128.82 1099.35 1129.26 1099.36C1129.71 1099.37 1130.15 1099.21 1130.47 1098.91C1132.07 1097.71 1133.92 1096.88 1135.89 1096.46L1135.89 1096.46C1137.86 1096.04 1139.91 1096.05 1141.88 1096.49Z" fill="#9D6434" stroke="#9D6434" stroke-width="0.6"/>
<path d="M1170.26 1114.93C1170.38 1115.08 1170.48 1115.22 1170.56 1115.37C1170.41 1115.69 1170.38 1116.02 1170.44 1116.33C1170.52 1116.75 1170.76 1117.12 1171.08 1117.38C1171.4 1117.65 1171.81 1117.81 1172.24 1117.8C1172.68 1117.79 1173.1 1117.59 1173.44 1117.16L1173.44 1117.16L1173.44 1117.16C1174.2 1116.17 1174.17 1115.13 1173.78 1114.2C1173.4 1113.29 1172.67 1112.46 1172.01 1111.82C1170.76 1110.55 1169.21 1109.61 1167.49 1109.06L1167.49 1109.06L1167.49 1109.06C1164.21 1108.08 1160.2 1109.24 1158.63 1112.49L1158.63 1112.5L1158.62 1112.5C1158.46 1112.91 1158.44 1113.36 1158.6 1113.78L1158.6 1113.78L1158.6 1113.78C1158.76 1114.18 1159.07 1114.52 1159.48 1114.7C1159.88 1114.88 1160.34 1114.91 1160.76 1114.76C1161.18 1114.62 1161.53 1114.32 1161.74 1113.93L1161.74 1113.93C1161.93 1113.56 1162.19 1113.23 1162.5 1112.96C1162.83 1112.69 1163.19 1112.48 1163.59 1112.35L1163.6 1112.35L1163.61 1112.35C1164.03 1112.18 1164.48 1112.09 1164.94 1112.08L1164.94 1112.08L1164.94 1112.08C1165.39 1112.06 1165.85 1112.11 1166.27 1112.24L1166.27 1112.24L1166.28 1112.24C1167.33 1112.53 1168.3 1113.05 1169.1 1113.77L1169.1 1113.77L1169.11 1113.78C1169.52 1114.13 1169.91 1114.51 1170.26 1114.93Z" fill="#9D6434" stroke="#9D6434" stroke-width="0.6"/>
<path d="M1140.02 1113.08L1140.07 1113.05C1140.23 1113.43 1140.52 1113.73 1140.88 1113.93L1140.88 1113.93L1140.88 1113.93C1141.28 1114.13 1141.72 1114.18 1142.15 1114.07L1142.16 1114.07L1142.17 1114.06C1142.59 1113.92 1142.96 1113.64 1143.17 1113.23C1143.38 1112.84 1143.41 1112.36 1143.28 1111.94L1143.27 1111.93L1143.27 1111.91C1142.65 1110.45 1141.66 1109.16 1140.39 1108.19C1139.12 1107.22 1137.63 1106.58 1136.03 1106.34L1136.03 1106.34L1136.03 1106.34C1134.47 1106.14 1132.88 1106.33 1131.42 1106.89L1131.42 1106.89L1131.42 1106.89C1129.96 1107.46 1128.67 1108.38 1127.67 1109.57C1127.39 1109.89 1127.25 1110.32 1127.27 1110.76C1127.29 1111.19 1127.48 1111.6 1127.79 1111.91L1127.8 1111.91L1127.81 1111.92C1128.14 1112.21 1128.58 1112.35 1129.01 1112.34C1129.44 1112.33 1129.87 1112.15 1130.18 1111.83L1130.19 1111.82L1130.2 1111.81C1130.79 1111.06 1131.57 1110.46 1132.47 1110.08C1133.36 1109.7 1134.34 1109.53 1135.31 1109.62C1136.32 1109.73 1137.27 1110.11 1138.09 1110.7C1138.73 1111.17 1139.27 1111.76 1139.67 1112.44L1139.31 1112.37L1140.01 1113.07L1140.02 1113.08Z" fill="#9D6434" stroke="#9D6434" stroke-width="0.6"/>
<path d="M1145.95 1138.32L1145.96 1138.39L1146.18 1138.42C1146.28 1138.43 1146.38 1138.44 1146.48 1138.44C1148.76 1138.84 1151.09 1139 1153.41 1138.91C1154.45 1138.92 1155.5 1138.91 1156.53 1138.9C1156.53 1138.91 1156.53 1138.91 1156.53 1138.91L1156.52 1138.92L1156.51 1138.94L1155.33 1140.78L1155.33 1140.78L1155.32 1140.79C1154.67 1141.92 1153.82 1142.93 1152.81 1143.76C1150.82 1145.24 1147.96 1145.36 1145.52 1144.89C1141.39 1144.06 1137.93 1140.87 1137.66 1136.87L1145.73 1138.23C1145.8 1138.26 1145.87 1138.29 1145.95 1138.32ZM1146.3 1134.49L1136.2 1132.78L1136.2 1132.78L1136.2 1132.78C1135.7 1132.7 1135.17 1132.81 1134.75 1133.09C1134.31 1133.37 1134.02 1133.8 1133.9 1134.29L1133.9 1134.3L1133.89 1134.31C1133.49 1136.63 1133.78 1139.01 1134.73 1141.16C1135.67 1143.31 1137.22 1145.16 1139.19 1146.47L1139.2 1146.47C1141.02 1147.67 1143.08 1148.48 1145.24 1148.84C1147.4 1149.19 1149.62 1149.09 1151.74 1148.55L1151.74 1148.55L1151.75 1148.55C1153.95 1147.94 1155.9 1146.63 1157.28 1144.83L1157.28 1144.83L1157.28 1144.83C1157.73 1144.22 1158.15 1143.56 1158.57 1142.91C1158.8 1142.55 1159.03 1142.19 1159.27 1141.84C1159.43 1141.61 1159.59 1141.37 1159.75 1141.14C1160.28 1140.38 1160.82 1139.6 1161.26 1138.79C1161.58 1138.3 1161.72 1137.71 1161.64 1137.12C1161.56 1136.52 1161.26 1135.99 1160.82 1135.6L1160.81 1135.59L1160.79 1135.58C1160.15 1135.11 1159.35 1134.92 1158.56 1135C1157.94 1134.99 1157.31 1135 1156.68 1135.01C1156.18 1135.02 1155.68 1135.03 1155.2 1135.03H1155.19L1155.18 1135.03C1152.4 1135.2 1149.61 1135.04 1146.87 1134.55C1146.67 1134.5 1146.48 1134.48 1146.3 1134.49Z" fill="#9D6434" stroke="#9D6434" stroke-width="0.6"/>
<path d="M1125.73 1066.64L1100.82 911.979C1100.24 907.849 1103.05 904.009 1107.16 903.309C1125.88 900.109 1177.87 893.249 1235.19 903.329C1239.26 904.049 1242.02 907.869 1241.46 911.969L1212.85 1067.98C1212.85 1067.98 1170.28 1054.35 1125.72 1066.65L1125.73 1066.64Z" fill="#117AF6"/>
<mask id="mask1_221_603" style="mask-type:alpha" maskUnits="userSpaceOnUse" x="1100" y="898" width="142" height="170">
<path d="M1125.73 1066.64L1100.82 911.979C1100.24 907.849 1103.05 904.009 1107.16 903.309C1125.88 900.109 1177.87 893.249 1235.19 903.329C1239.26 904.049 1242.02 907.869 1241.46 911.969L1212.85 1067.98C1212.85 1067.98 1170.28 1054.35 1125.72 1066.65L1125.73 1066.64Z" fill="#117AF6"/>
</mask>
<g mask="url(#mask1_221_603)">
<path opacity="0.37" d="M1114.86 1050.9C1114.86 1050.9 1202.65 1046.47 1237.24 981.289C1237.24 981.289 1221.28 1056.22 1219.5 1060.66C1217.72 1065.1 1197.77 1071.74 1197.77 1071.74H1129.49L1114.86 1050.9Z" fill="#0757B5"/>
</g>
<path d="M1228.19 1091.49L1201.95 1086.75C1181.88 1083.13 1161.34 1082.99 1141.22 1086.35L1110.51 1091.49C1103.76 1091.49 1098.3 1086.02 1098.3 1079.28C1098.3 1072.53 1103.77 1067.07 1110.51 1067.07L1148.53 1060.91C1163.16 1058.54 1178.08 1058.59 1192.69 1061.06L1228.19 1067.06C1234.94 1067.06 1240.4 1072.53 1240.4 1079.27C1240.4 1086.02 1234.93 1091.48 1228.19 1091.48V1091.49Z" fill="#0757B5"/>
<path d="M1438.72 1373.68C1490.84 1373.68 1533.09 1273.31 1533.09 1149.49C1533.09 1025.68 1490.84 925.305 1438.72 925.305C1386.61 925.305 1344.35 1025.68 1344.35 1149.49C1344.35 1273.31 1386.61 1373.68 1438.72 1373.68Z" stroke="#117AF6" stroke-width="9" stroke-miterlimit="10"/>
<path d="M1534.97 1186.35C1534.97 1186.35 1524.18 1173.76 1514.4 1175.4C1511.66 1175.86 1515.9 1171.14 1516.65 1169.01C1517.25 1167.31 1517.87 1165.58 1519.17 1164.15C1520.47 1162.72 1522.61 1161.63 1524.83 1161.82L1543.97 1168.79" fill="#F2A91F"/>
<path d="M1518.64 1175.44C1516.37 1176.02 1514.47 1177.7 1513.31 1179.73C1512.15 1181.76 1511.64 1184.12 1511.5 1186.46C1511.47 1186.95 1511.46 1187.46 1511.68 1187.89C1511.93 1188.39 1512.45 1188.7 1512.96 1188.94C1514.67 1189.75 1516.61 1190.09 1518.19 1191.13C1520.55 1192.68 1521.7 1195.47 1523.35 1197.75C1525 1200.03 1527.96 1202 1530.51 1200.8C1530.51 1200.8 1536.31 1190.41 1537.54 1186.83C1538.77 1183.25 1518.65 1175.42 1518.65 1175.42L1518.64 1175.44Z" fill="#E7AB43"/>
<path d="M1517.98 1192.4C1515.71 1192.98 1513.81 1194.66 1512.65 1196.69C1511.49 1198.72 1510.98 1201.08 1510.84 1203.42C1510.81 1203.91 1510.8 1204.42 1511.02 1204.85C1511.27 1205.35 1511.79 1205.66 1512.3 1205.9C1514.01 1206.71 1515.95 1207.05 1517.53 1208.09C1519.89 1209.64 1521.04 1212.43 1522.69 1214.71C1524.34 1216.99 1527.3 1218.96 1529.85 1217.76C1529.85 1217.76 1535.65 1207.37 1536.88 1203.79C1538.11 1200.21 1517.99 1192.38 1517.99 1192.38L1517.98 1192.4Z" fill="#E7AB43"/>
<path d="M785.2 1187.02C778.8 1179.2 806.82 1183.34 832.63 1201.98C833.76 1202.79 833.23 1204.57 831.84 1204.64C822.65 1205.09 799.37 1204.34 785.2 1187.02Z" fill="#E7AB43"/>
<path d="M795.18 1184.36C788.78 1176.54 816.8 1180.68 842.61 1199.32C843.74 1200.13 843.21 1201.91 841.82 1201.98C832.63 1202.43 809.35 1201.68 795.18 1184.36Z" fill="#F2A91F"/>
<path opacity="0.68" d="M1356.84 1276.22C1356.84 1276.22 1374.13 1306.73 1384.11 1311.72C1394.09 1316.71 1483.32 1211.4 1483.32 1211.4C1483.32 1211.4 1389.77 1300.96 1377.13 1297.75C1377.13 1297.75 1370.59 1294.95 1356.84 1276.22Z" fill="#D08F42"/>
<path d="M1554.7 1160.76C1550.55 1158.57 1541.57 1148.82 1537.08 1148.09C1535.3 1147.79 1533.51 1148.34 1531.71 1148.21C1529.91 1148.09 1528.08 1149.44 1526.8 1150.64C1526.03 1151.36 1525.46 1152.27 1525.09 1153.26L1523.08 1158.67C1522.74 1159.58 1522.4 1160.58 1522.73 1161.49C1522.9 1161.98 1536.25 1167.05 1536.74 1167.25" fill="#F2A91F"/>
<path d="M1535.63 1187.07C1535.63 1187.07 1524.84 1174.78 1515.06 1176.38C1512.32 1176.83 1516.56 1172.22 1517.31 1170.14C1517.91 1168.48 1518.53 1166.79 1519.83 1165.39C1521.13 1163.99 1523.27 1162.93 1525.49 1163.11L1544.63 1169.92" fill="#F2A91F"/>
<path d="M1518.26 1178.03C1515.95 1178.75 1515.97 1179.95 1514.89 1182.06C1513.81 1184.16 1513.43 1186.56 1513.42 1188.91C1513.42 1189.4 1513.44 1189.91 1513.69 1190.33C1513.98 1190.81 1514.54 1191.09 1515.08 1191.3C1516.89 1192.01 1518.92 1192.23 1520.61 1193.17C1523.14 1194.58 1524.5 1197.3 1526.34 1199.49C1528.18 1201.67 1531.36 1203.46 1533.92 1202.1C1533.92 1202.1 1543.46 1194.06 1540.68 1191.39C1528 1179.22 1518.27 1178.02 1518.27 1178.02L1518.26 1178.03Z" fill="#F2A91F"/>
<path d="M1518.64 1192.99C1516.37 1193.56 1514.47 1195.2 1513.31 1197.18C1512.15 1199.17 1511.64 1201.48 1511.5 1203.77C1511.47 1204.25 1511.46 1204.75 1511.68 1205.17C1511.93 1205.65 1512.45 1205.96 1512.96 1206.19C1514.67 1206.98 1516.61 1207.32 1518.19 1208.33C1520.55 1209.85 1526.01 1212.13 1527.66 1214.36C1529.31 1216.59 1532.43 1219 1534.98 1217.83C1534.98 1217.83 1536.31 1207.64 1537.54 1204.13C1538.77 1200.62 1518.64 1192.99 1518.64 1192.99Z" fill="#F2A91F"/>
<path d="M1554.8 1158.12C1553.01 1157.13 1551.46 1155.7 1549.92 1154.37C1547.9 1152.62 1545.92 1150.83 1543.84 1149.16C1542.06 1147.73 1540.21 1146.26 1538.07 1145.39C1536.89 1144.91 1535.67 1144.81 1534.4 1144.89C1533.5 1144.95 1532.61 1145.09 1531.71 1145.09C1530.81 1145.09 1529.98 1145.07 1529.12 1145.35C1526.28 1146.28 1523.96 1148.69 1522.93 1151.45C1522.33 1153.05 1521.77 1154.66 1521.19 1156.26C1520.61 1157.86 1519.67 1160.47 1521.49 1161.62C1522.69 1162.38 1524.14 1162.85 1525.44 1163.4C1528.83 1164.82 1532.26 1166.15 1535.68 1167.51C1537.47 1168.22 1538.25 1165.32 1536.48 1164.62C1533.95 1163.61 1531.4 1162.62 1528.88 1161.6C1527.34 1160.97 1525.79 1160.35 1524.27 1159.66C1523.88 1159.48 1523.45 1159.17 1523.04 1159.06C1523.01 1159.06 1522.95 1158.98 1522.93 1158.99L1523.16 1159.17C1523.45 1159.5 1523.56 1159.42 1523.48 1158.93C1523.69 1158.56 1523.75 1158 1523.9 1157.59C1524.42 1156.13 1524.96 1154.66 1525.49 1153.2C1526.2 1151.24 1527.27 1149.66 1529.16 1148.62C1530.53 1147.87 1532.21 1148.1 1533.73 1147.96C1534.89 1147.86 1536.01 1147.77 1537.11 1148.23C1538.88 1148.98 1540.48 1150.29 1541.96 1151.49C1544.03 1153.17 1546.01 1154.96 1548.03 1156.71C1549.68 1158.14 1551.36 1159.67 1553.28 1160.73C1554.97 1161.67 1556.49 1159.08 1554.79 1158.14L1554.8 1158.12Z" fill="#9D6434"/>
<path d="M1536.03 1185.29C1533.75 1182.63 1531.01 1180.28 1528.15 1178.27C1525.83 1176.64 1523.28 1175.24 1520.55 1174.43C1519.23 1174.04 1517.84 1173.8 1516.47 1173.77C1515.93 1173.76 1514.76 1173.64 1514.3 1173.92C1514.27 1173.94 1514.14 1173.92 1514.12 1173.94C1514.01 1174.07 1514.81 1174.52 1514.95 1174.71C1515.17 1175 1514.8 1175.23 1515.03 1174.84C1516.26 1172.77 1517.58 1170.78 1518.42 1168.51C1519.03 1166.87 1519.85 1165.23 1521.36 1164.24C1522.23 1163.68 1523.54 1163.12 1524.56 1163.32C1525.68 1163.54 1526.84 1164.15 1527.91 1164.54L1533.88 1166.71C1537.11 1167.89 1540.34 1169.06 1543.56 1170.24C1545.38 1170.9 1546.16 1168 1544.36 1167.35C1541.37 1166.26 1538.37 1165.17 1535.38 1164.08C1533.22 1163.29 1531.06 1162.51 1528.9 1161.72C1527.72 1161.29 1526.53 1160.74 1525.32 1160.42C1522.22 1159.6 1518.77 1161.93 1517.12 1164.37C1516.15 1165.81 1515.76 1167.52 1515.02 1169C1514.46 1170.12 1513.69 1171.14 1513.05 1172.22C1512.49 1173.15 1511.78 1174.32 1512.05 1175.46C1512.37 1176.8 1513.63 1177.01 1514.8 1176.87C1517.71 1176.52 1520.53 1177.38 1523.1 1178.71C1527.17 1180.83 1530.92 1183.95 1533.91 1187.43C1535.17 1188.9 1537.28 1186.77 1536.03 1185.31V1185.29Z" fill="#9D6434"/>
<path d="M1516.77 1174.06C1512.98 1175.4 1510.52 1178.77 1509.68 1182.63C1509.29 1184.4 1508.89 1186.67 1509.42 1188.45C1509.99 1190.38 1512.19 1190.94 1513.89 1191.42C1515.86 1191.97 1517.47 1192.56 1518.87 1194.12C1520.02 1195.41 1520.91 1196.91 1521.99 1198.26C1524.22 1201.04 1527.9 1203.09 1531.38 1201.37C1533.11 1200.51 1531.59 1197.93 1529.87 1198.78C1527.32 1200.04 1524.76 1197.05 1523.46 1195.26C1521.77 1192.92 1520.15 1190.56 1517.39 1189.4C1516.01 1188.82 1514.52 1188.59 1513.13 1188.05C1512.23 1187.7 1512.23 1187.45 1512.24 1186.53C1512.25 1185.61 1512.32 1184.74 1512.48 1183.86C1513.02 1180.93 1514.61 1177.99 1517.56 1176.95C1519.37 1176.31 1518.59 1173.41 1516.76 1174.06H1516.77Z" fill="#9D6434"/>
<path d="M1512.45 1190.66C1511.22 1193.37 1509.75 1196.08 1508.79 1198.9C1507.91 1201.49 1508.52 1204.01 1511.21 1205.07C1512.31 1205.5 1513.3 1205.88 1514.24 1206.63C1515.18 1207.38 1516.07 1208.34 1516.97 1209.2C1518.93 1211.08 1521.27 1212.73 1524.1 1212.69C1526.03 1212.66 1526.03 1209.66 1524.1 1209.69C1521.92 1209.72 1520.22 1208.19 1518.76 1206.76C1517.3 1205.33 1515.69 1203.68 1513.68 1202.81C1513.06 1202.54 1511.84 1202.39 1511.48 1201.73C1511.11 1201.04 1511.59 1199.92 1511.84 1199.28C1512.79 1196.87 1513.98 1194.53 1515.04 1192.17C1515.38 1191.43 1515.25 1190.56 1514.5 1190.12C1513.86 1189.74 1512.78 1189.92 1512.45 1190.66Z" fill="#9D6434"/>
<path d="M770.91 1199.03C769.6 1195.37 771.65 1191.84 774.74 1189.83C775.9 1189.07 776.89 1188.77 778.21 1189.23C779.77 1189.78 781.21 1190.62 782.78 1191.15C786.08 1192.26 789.32 1193.27 792.51 1194.68C796.5 1196.44 800.43 1198.35 804.39 1200.2C808.96 1202.34 813.56 1204.42 818.28 1206.19C820.09 1206.87 820.87 1203.97 819.08 1203.3C810.05 1199.93 801.56 1195.32 792.72 1191.53C790.92 1190.76 789.12 1190.01 787.27 1189.38C785.52 1188.78 783.7 1188.4 782 1187.65C780.51 1187 779.05 1186.14 777.4 1185.99C775.55 1185.83 773.86 1186.73 772.43 1187.81C768.73 1190.59 766.38 1195.23 768.03 1199.83C768.68 1201.63 771.58 1200.86 770.92 1199.03H770.91Z" fill="#9D6434"/>
<path d="M785.16 1187.01L785.14 1185.33C785.14 1185.06 785.25 1184.6 785.13 1184.37V1184.13C785.03 1184.27 784.93 1184.41 784.83 1184.55C784.88 1184.77 788.11 1184.37 788.38 1184.35C790.78 1184.1 792.81 1184.14 795.09 1185.04C797.03 1185.8 798.94 1186.62 800.87 1187.4C806.16 1189.55 811.46 1191.69 816.75 1193.84C818.89 1194.71 821.02 1195.57 823.15 1196.45C824.93 1197.19 825.71 1194.29 823.95 1193.56C819.04 1191.53 814.11 1189.56 809.19 1187.57C806.41 1186.44 803.63 1185.32 800.85 1184.19C798.41 1183.2 795.84 1181.82 793.25 1181.36C790.48 1180.87 787.61 1181.51 784.83 1181.57C781.62 1181.64 782.13 1184.64 782.16 1187.03C782.18 1188.96 785.18 1188.96 785.16 1187.03V1187.01Z" fill="#9D6434"/>
<path d="M797.82 1183.79C802.23 1180.98 807.31 1182.93 811.76 1184.54C815.77 1185.99 819.79 1187.47 823.69 1189.2C825.44 1189.98 826.97 1187.39 825.2 1186.61C820.88 1184.7 816.43 1183.04 811.98 1181.44C806.89 1179.62 801.24 1178.05 796.3 1181.2C794.68 1182.23 796.18 1184.83 797.81 1183.79H797.82Z" fill="#9D6434"/>
<path d="M811.82 1182.34C812.34 1181.45 813.02 1181.17 813.96 1181.19C814.9 1181.21 816.05 1181.66 816.92 1182.34C819.34 1184.23 820.94 1187.1 823.69 1188.68C825.37 1189.64 826.88 1187.05 825.2 1186.09C822.2 1184.37 820.66 1180.9 817.62 1179.22C814.78 1177.65 811 1177.77 809.23 1180.82C808.26 1182.49 810.85 1184 811.82 1182.33V1182.34Z" fill="#9D6434"/>
<path d="M844.77 1200.36C848.22 1199.15 851.84 1198.77 855.47 1199.22C856.28 1199.32 856.97 1198.46 856.97 1197.72C856.97 1196.83 856.28 1196.32 855.47 1196.22C851.61 1195.74 847.64 1196.18 843.97 1197.47C843.21 1197.74 842.7 1198.5 842.92 1199.32C843.12 1200.06 844 1200.64 844.77 1200.37V1200.36Z" fill="#9D6434"/>
<path d="M888.72 1213.38C888.75 1213.51 888.78 1213.65 888.8 1213.79L888.75 1213.39C888.8 1213.75 888.8 1214.12 888.75 1214.48L888.8 1214.08C888.77 1214.27 888.74 1214.46 888.68 1214.65C888.66 1214.74 888.63 1214.83 888.6 1214.91C888.58 1214.98 888.45 1215.28 888.57 1215.02C888.69 1214.76 888.53 1215.09 888.5 1215.15C888.46 1215.23 888.41 1215.31 888.37 1215.39C888.33 1215.47 888.28 1215.55 888.22 1215.62C888.18 1215.68 887.96 1215.97 888.14 1215.75C888.32 1215.53 888.11 1215.78 888.06 1215.84C888 1215.91 887.94 1215.97 887.87 1216.04C887.8 1216.11 887.74 1216.17 887.67 1216.23C887.64 1216.26 887.58 1216.33 887.54 1216.34C887.55 1216.34 887.85 1216.11 887.68 1216.23C887.53 1216.33 887.38 1216.43 887.22 1216.52C887.16 1216.55 886.82 1216.7 887.09 1216.59C887.36 1216.48 887.01 1216.61 886.95 1216.63C886.21 1216.88 885.64 1217.68 885.9 1218.48C886.14 1219.22 886.95 1219.79 887.75 1219.53C890.59 1218.59 892.34 1215.5 891.62 1212.58C891.43 1211.82 890.53 1211.29 889.77 1211.53C889.01 1211.77 888.52 1212.56 888.72 1213.38Z" fill="#9D6434"/>
<path d="M994.53 1285.78V1294.76C994.53 1295.54 995.22 1296.3 996.03 1296.26C996.84 1296.22 997.53 1295.6 997.53 1294.76V1285.78C997.53 1285 996.84 1284.24 996.03 1284.28C995.22 1284.32 994.53 1284.94 994.53 1285.78Z" fill="#9D6434"/>
<path d="M1110.39 1287.34L1110.39 1287.33C1110.26 1286.72 1109.91 1286.29 1109.44 1286.06C1108.99 1285.83 1108.47 1285.81 1108.01 1285.94C1107.1 1286.19 1106.25 1287.08 1106.52 1288.35C1108.53 1297.69 1109.65 1307.16 1109.89 1316.71L1109.89 1316.71C1109.91 1317.34 1110.17 1317.83 1110.57 1318.17C1110.95 1318.5 1111.45 1318.65 1111.93 1318.65C1112.4 1318.65 1112.9 1318.5 1113.28 1318.16C1113.67 1317.82 1113.91 1317.31 1113.89 1316.69C1113.64 1306.82 1112.47 1296.99 1110.39 1287.34Z" fill="#9D6434" stroke="#9D6434"/>
<path d="M1293.74 1421.25C1283.86 1423.47 1274.51 1427.78 1266.43 1433.87L1266.43 1433.87C1265.42 1434.64 1265.44 1435.87 1265.9 1436.68C1266.14 1437.09 1266.52 1437.44 1267 1437.59C1267.5 1437.73 1268.04 1437.64 1268.54 1437.26C1276.33 1431.39 1285.25 1427.25 1294.76 1425.11C1295.37 1424.97 1295.8 1424.62 1296.03 1424.15C1296.26 1423.7 1296.27 1423.18 1296.15 1422.72C1295.89 1421.81 1295.01 1420.95 1293.74 1421.24L1293.74 1421.25Z" fill="#9D6434" stroke="#9D6434"/>
<path opacity="0.68" d="M1150.28 1166.07C1150.28 1166.07 1159.2 1167.95 1168.07 1165.74C1176.94 1163.53 1148.16 1194.39 1148.16 1194.39C1148.16 1194.39 1152 1182.37 1150.28 1166.08V1166.07Z" fill="#D08F42"/>
<path d="M1456 1790C1453.35 1791.36 1450.71 1792.72 1448.06 1794.07C1447.13 1794.55 1446.78 1795.93 1447.34 1796.81C1447.95 1797.76 1449.08 1798.04 1450.08 1797.53C1452.73 1796.17 1455.37 1794.81 1458.02 1793.46C1458.95 1792.98 1459.3 1791.6 1458.74 1790.72C1458.13 1789.77 1457 1789.49 1456 1790Z" fill="#9D6434"/>
<path d="M809.12 1718.12C810.78 1720.12 812.44 1722.12 814.1 1724.11C814.41 1724.48 815.05 1724.7 815.51 1724.7C816 1724.7 816.59 1724.48 816.92 1724.11C817.25 1723.74 817.53 1723.23 817.51 1722.7C817.49 1722.17 817.28 1721.71 816.92 1721.29C815.26 1719.29 813.6 1717.29 811.94 1715.3C811.63 1714.93 810.99 1714.71 810.53 1714.71C810.04 1714.71 809.45 1714.93 809.12 1715.3C808.79 1715.67 808.51 1716.18 808.53 1716.71C808.55 1717.24 808.76 1717.7 809.12 1718.12Z" fill="#9D6434"/>
<path opacity="0.68" d="M944.49 1336.99C944.49 1336.99 986.06 1361.93 1013.66 1353.28C1041.26 1344.63 1098.13 1287.1 1107.77 1303.73C1107.77 1303.73 1098.79 1300.74 1084.16 1313.37C1069.53 1326 1035.9 1365.76 993.5 1364.33C989.27 1364.19 985.11 1363.23 981.22 1361.57C974.06 1358.52 961.48 1351.72 944.49 1336.98V1336.99Z" fill="#D08F42"/>
<path d="M1123.02 1574.51C1122.03 1575.29 1120.84 1574.96 1120.18 1574.3C1119.84 1573.97 1119.6 1573.51 1119.58 1573.01C1119.57 1572.49 1119.8 1571.99 1120.29 1571.6L1120.29 1571.6C1121.8 1570.4 1123.31 1569.21 1124.83 1568.01C1130.22 1563.74 1135.62 1559.47 1141.05 1555.24C1154.08 1545.07 1167.72 1534.72 1180.79 1525.61C1193.86 1516.5 1207.33 1507.84 1221.52 1500.52M1123.02 1574.51L1221.75 1500.96M1123.02 1574.51L1123.02 1574.51C1124.05 1573.7 1125.08 1572.89 1126.11 1572.07C1137.52 1563.05 1148.93 1554.04 1160.54 1545.28C1173.21 1535.73 1187.01 1525.8 1200.9 1517.03M1123.02 1574.51L1123.06 1574.47L1123.07 1574.46L1122.74 1574.09C1123.76 1573.29 1124.78 1572.48 1125.8 1571.68C1137.21 1562.66 1148.62 1553.64 1160.24 1544.88C1172.91 1535.33 1186.73 1525.39 1200.63 1516.61M1221.52 1500.52C1221.52 1500.52 1221.52 1500.52 1221.52 1500.52L1221.75 1500.96M1221.52 1500.52C1221.52 1500.52 1221.52 1500.52 1221.52 1500.52L1221.75 1500.96M1221.52 1500.52C1222.67 1499.92 1223.75 1500.52 1224.22 1501.34C1224.46 1501.75 1224.58 1502.25 1224.48 1502.75C1224.38 1503.26 1224.05 1503.71 1223.49 1503.99L1223.49 1504C1215.77 1507.99 1208.26 1512.39 1200.9 1517.03M1221.75 1500.96C1223.46 1500.07 1224.98 1502.66 1223.26 1503.55C1215.52 1507.55 1208 1511.96 1200.63 1516.61M1200.9 1517.03L1200.63 1516.61M1200.9 1517.03C1200.9 1517.03 1200.9 1517.03 1200.9 1517.03L1200.63 1516.61" fill="#9D6434" stroke="#9D6434"/>
<path opacity="0.68" d="M1111.64 1323.53C1111.64 1323.53 1120.73 1411.48 1087.81 1454.38C1054.89 1497.28 934.4 1596.26 934.4 1596.26C934.4 1596.26 988.72 1543 1033.28 1497.38C1055.05 1475.1 1070.86 1454.7 1082 1438.74C1091.74 1424.78 1097.5 1408.13 1101.62 1393.02C1111.1 1358.27 1111.65 1323.53 1111.65 1323.53H1111.64Z" fill="#D08F42"/>
<path d="M1283.24 1349.07C1283.24 1349.07 1273.15 1300.52 1275.37 1293.87C1277.59 1287.22 1282.46 1286.33 1286.45 1289.44C1290.44 1292.55 1325.47 1349.3 1325.47 1349.3C1325.47 1349.3 1299.22 1320.01 1287.88 1298.16C1287.88 1298.16 1286.3 1294.87 1282.19 1295.76C1278.37 1296.59 1278.95 1300.91 1278.95 1300.91L1283.25 1349.08L1283.24 1349.07Z" fill="#D08F42" stroke="#D08F42" stroke-miterlimit="10"/>
<path d="M909.77 1624.26C914.24 1627.67 920.15 1628.37 925.75 1628.95C929.3 1629.32 932.95 1629.68 936.39 1628.73C941.72 1627.27 945.71 1622.95 949.39 1618.82C955.93 1611.49 962.48 1604.15 969.02 1596.82C972.53 1592.89 976.08 1588.89 978.34 1584.13C980.44 1579.73 980.96 1573.65 977.08 1570.69C975.64 1569.6 973.81 1569.13 972.01 1569.03C964.48 1568.61 958.01 1574 952.42 1579.06C946.86 1584.09 941.31 1589.11 935.75 1594.14C926.03 1602.93 916.2 1611.86 909.02 1622.82" fill="#F1B965"/>
<path d="M1476.83 1569.91C1472.42 1570.69 1464.32 1571.02 1461.03 1567.99C1458 1565.19 1457.67 1560.62 1456.5 1556.66C1454.47 1549.77 1449.2 1543.92 1442.57 1541.17C1437.98 1539.27 1432.76 1538.74 1428.71 1535.88C1421.5 1530.78 1420.93 1519.22 1426.45 1512.32C1431.97 1505.42 1441.9 1503.1 1450.52 1505.04C1450.52 1505.04 1465.47 1511.54 1474.22 1522.11C1481.8 1531.27 1476.83 1569.92 1476.83 1569.92V1569.91Z" fill="#F1B965"/>
<path d="M1457.91 1538.23V1538.23L1457.92 1538.23C1464.82 1538.04 1471.39 1535.47 1476.65 1531.04L1476.65 1531.04C1477.21 1530.57 1477.43 1529.89 1477.41 1529.24C1477.39 1528.6 1477.15 1527.94 1476.68 1527.48C1475.64 1526.43 1474.15 1526.62 1473.18 1527.45C1468.93 1531.03 1463.45 1533.07 1457.89 1533.23C1457.1 1533.25 1456.48 1533.58 1456.07 1534.07C1455.66 1534.56 1455.47 1535.18 1455.47 1535.78C1455.47 1536.38 1455.66 1537 1456.07 1537.48C1456.5 1537.96 1457.12 1538.25 1457.91 1538.23H1457.91Z" fill="#9D6434" stroke="#9D6434"/>
<path opacity="0.68" d="M1123.21 1091.11C1123.21 1091.11 1194.92 1084.86 1222.95 1114.65C1222.95 1114.65 1224.6 1100.99 1221.38 1090.24C1221.38 1090.24 1184.36 1081.93 1161.97 1084.14C1161.97 1084.14 1144.35 1085.14 1120.51 1089.9L1123.21 1091.1V1091.11Z" fill="#D08F42"/>
</svg>
