<svg width="2000" height="2055" viewBox="0 0 2000 2055" fill="none" xmlns="http://www.w3.org/2000/svg">
<g opacity="0.8">
<path d="M223.648 382.865H1711C1729.98 382.865 1745.38 398.265 1745.38 417.238V1401C1745.38 1421.55 1728.69 1438.24 1708.14 1438.24H226.514C205.96 1438.24 189.276 1421.55 189.276 1401V417.238C189.276 398.265 204.676 382.865 223.648 382.865Z" fill="#F9DFC5"/>
<path opacity="0.36" d="M1487.48 637.342H466.436C437.246 637.342 413.583 661.005 413.583 690.194V1237.44C413.583 1266.63 437.246 1290.3 466.436 1290.3H1487.48C1516.67 1290.3 1540.33 1266.63 1540.33 1237.44V690.194C1540.33 661.005 1516.67 637.342 1487.48 637.342Z" fill="#EFBC96"/>
<g opacity="0.64">
<path d="M584.29 867.797H1375.93" stroke="#EFBC96" stroke-width="32.0836" stroke-linecap="round" stroke-linejoin="round"/>
<path d="M584.29 963.822H1375.93" stroke="#EFBC96" stroke-width="32.0836" stroke-linecap="round" stroke-linejoin="round"/>
<path d="M584.29 1059.84H1375.93" stroke="#EFBC96" stroke-width="32.0836" stroke-linecap="round" stroke-linejoin="round"/>
</g>
<path opacity="0.38" d="M223.648 382.865H1710.71C1729.69 382.865 1745.09 398.265 1745.09 417.238V519.274H189.276V417.238C189.276 398.265 204.676 382.865 223.648 382.865Z" fill="#EFBC96"/>
<path d="M261.785 469.953C271.861 469.953 280.03 461.784 280.03 451.708C280.03 441.631 271.861 433.463 261.785 433.463C251.709 433.463 243.54 441.631 243.54 451.708C243.54 461.784 251.709 469.953 261.785 469.953Z" fill="#EFBC96"/>
<path d="M314.36 469.953C324.436 469.953 332.604 461.784 332.604 451.708C332.604 441.631 324.436 433.463 314.36 433.463C304.283 433.463 296.115 441.631 296.115 451.708C296.115 461.784 304.283 469.953 314.36 469.953Z" fill="#EFBC96"/>
<path d="M366.934 469.953C377.01 469.953 385.179 461.784 385.179 451.708C385.179 441.631 377.01 433.463 366.934 433.463C356.858 433.463 348.689 441.631 348.689 451.708C348.689 461.784 356.858 469.953 366.934 469.953Z" fill="#EFBC96"/>
</g>
<path d="M393.745 1162.54C393.638 1161.35 393.553 1160.19 393.478 1159.03C392.879 1160.2 392.301 1161.36 391.735 1162.54C392.398 1162.54 393.071 1162.54 393.734 1162.54H393.745Z" fill="#E7AB44"/>
<path d="M599.23 933.946C661.109 880.602 718.902 863.491 766.086 851.876C782.257 847.898 796.684 844.465 803.015 843.257C805.432 842.807 807.656 841.663 809.421 839.952C811.185 838.241 812.405 836.048 812.918 833.653C817.709 810.296 816.041 774.811 816.041 774.811C745.788 765.272 742.494 702.891 744.227 677.074C745.307 660.968 752.526 634.863 758.44 615.292C736.099 604.148 728.099 600.597 713.148 582.395C709.555 578.278 707.245 573.187 706.539 567.765C705.374 560.824 706.774 553.702 710.485 547.723C720.688 531.361 733.415 529.414 753.371 531.468C763.595 532.623 773.541 535.553 782.759 540.141L783.519 539.842C783.134 535.457 784.085 531.051 786.267 527.222C788.438 523.393 791.732 520.324 795.7 518.41C808.244 511.907 824.158 511.907 839.408 517.18C845.515 519.351 851.322 521.95 857.225 524.57C872.978 531.585 884.422 540.451 897.341 549.969C903.822 554.835 909.447 560.749 913.981 567.476C913.746 567.476 913.543 567.712 913.35 567.829L914.345 568.064L913.981 567.476C914.345 567.294 914.719 567.134 915.104 567.016C921.992 564.984 930.922 564.204 937.103 567.754C950.107 575.23 958.77 588.748 964.631 604.725C971.497 624.168 973.582 644.98 970.716 665.406C969.347 675.705 967.422 686.881 964.93 693.576C961.134 703.65 958.428 716.933 947.594 732.386C934.718 750.781 922.719 756.481 922.762 760.994V766.416C925.959 780.48 927.702 826.937 932.429 840.562C932.429 840.562 1053.94 867.416 1136.97 948.887C1196.22 1007.03 1215.19 1065.01 1233.32 1192.64C1276.84 1499.1 1263.13 1576.86 1263.13 1576.86L1132.71 1578.36L1062.29 1102.51L1104.96 1576.22L911.5 1580.49L614.192 1574.1L646.201 1251.87C591.68 1255.55 562.067 1278.14 498.541 1274.8C458.297 1272.7 407.316 1245.49 394.408 1202.8C383.992 1168.33 403.392 1131.45 426.321 1105.66C426.321 1105.66 448.319 1064.06 599.252 933.936L599.23 933.946Z" fill="#F2A91F"/>
<path opacity="0.7" d="M635.667 1574.62L674.167 1273.81C674.862 1268.36 678.701 1263.84 683.963 1262.29C713.886 1253.48 815.271 1219.38 887.288 1143.77C887.288 1143.77 885.395 1149.93 857.889 1154.2C857.889 1154.2 752.141 1228.17 647.826 1248.09L614.16 1574.1L635.656 1574.61L635.667 1574.62Z" fill="#CB8F3F"/>
<path d="M795.432 571.188C808.319 588.491 809.988 610.64 811.046 631.612C811.613 642.948 811.346 654.295 810.961 665.631C810.266 686.004 809.26 706.367 811.26 726.665C815.645 754.374 822.896 781.528 833.088 807.665C842.638 828.648 854.135 848.658 867.663 867.341C875.941 877.383 884.796 886.816 894.678 895.297C907.64 904.462 833.195 907.306 847.215 914.771C880.326 932.375 913.607 949.55 946.6 967.399C979.55 985.227 1013.06 1001.6 1047.44 1016.4C1053.45 1018.89 1059.47 1021.36 1065.5 1023.8C1084.09 1031.32 1102.75 1038.71 1121.32 1046.34C1024.1 866.133 947.049 846.465 947.049 846.465C941.969 831.835 936.75 787.581 933.317 772.48V766.663C933.274 761.818 946.172 755.701 959.989 735.937C971.625 719.339 974.534 705.073 978.609 694.25C981.282 687.052 983.357 675.042 984.822 663.984C987.891 642.05 985.646 619.698 978.277 598.812C971.989 581.658 962.684 567.134 948.717 559.103C942.087 555.285 932.494 556.119 925.093 558.311C924.676 558.44 924.27 558.6 923.885 558.803L924.28 559.434L923.211 559.178C923.425 559.06 923.628 558.803 923.885 558.803" fill="#F2A91F"/>
<path d="M932.098 953.037L948.985 889.661C949.487 887.757 951.284 886.495 953.252 886.677C963.069 887.543 992.864 888.506 1023.15 872.785L1012.36 867.93C1012.36 867.93 982.961 879.02 944.493 875.908L924.462 944.93C924.462 944.93 926.847 945.786 928.965 948.192C931.221 950.738 932.109 953.048 932.109 953.048L932.098 953.037Z" fill="#CB8F3F"/>
<path d="M817.591 794.543C817.591 794.543 834.917 846.529 880.54 876.955C883.277 878.784 884.593 882.11 883.78 885.308L867.375 949.614C867.375 949.614 879.47 945.347 883.021 936.812C886.571 928.278 902.228 866.4 902.228 866.4C902.228 866.4 855.279 852.882 817.591 794.564V794.543Z" fill="#CB8F3F"/>
<path d="M905.062 676.807C904.848 684.828 903.576 692.774 901.255 700.453C899.929 706.067 897.159 711.243 893.234 715.468C885.213 722.922 879.866 707.704 878.219 701.95C874.166 686.379 874.251 670.027 878.476 654.498C879.759 649.718 885.513 630.746 893.897 635.216C898.624 637.836 900.891 644.884 902.271 649.718C904.634 658.541 905.618 667.685 905.201 676.807C905.201 678.176 905.747 679.481 906.709 680.443C907.672 681.406 908.987 681.951 910.345 681.951C911.703 681.951 913.019 681.406 913.981 680.443C914.944 679.481 915.489 678.176 915.489 676.807C915.928 666.54 914.751 656.274 911.992 646.37C910.281 639.055 906.335 632.457 900.688 627.505C888.143 618.147 876.679 631.259 872.005 642.264C864.38 661.503 862.968 682.646 867.995 702.72C870.775 713.928 878.946 732.183 893.705 727.189C901.266 724.665 905.843 716.901 908.773 709.96C912.987 699.405 915.254 688.165 915.457 676.796C915.618 670.166 905.33 670.219 905.073 676.796L905.062 676.807Z" fill="#844E25"/>
<path d="M873.759 612.49C880.176 607.549 887.929 604.651 896.025 604.169C904.11 603.699 912.153 605.667 919.104 609.827C923.521 612.479 927.328 605.453 922.943 602.811C914.751 597.967 905.308 595.656 895.801 596.17C886.293 596.683 877.16 599.998 869.535 605.699C869.086 605.977 868.69 606.34 868.38 606.768C868.07 607.196 867.845 607.677 867.728 608.191C867.61 608.704 867.588 609.239 867.674 609.752C867.76 610.265 867.941 610.768 868.219 611.217C868.497 611.666 868.861 612.062 869.278 612.372C869.706 612.682 870.187 612.907 870.701 613.024C871.214 613.142 871.749 613.163 872.262 613.078C872.786 612.992 873.278 612.811 873.727 612.522V612.479L873.759 612.49Z" fill="#9E6534"/>
<path d="M789.764 737.316C802.48 729.092 818.115 725.391 833.163 727.466C834.874 727.702 836.606 727.049 837.109 725.22C837.526 723.723 836.596 721.509 834.863 721.274C818.083 718.953 800.801 722.536 786.524 731.765C785.069 732.707 784.47 734.61 785.369 736.15C786.214 737.594 788.299 738.246 789.753 737.305L789.764 737.316Z" fill="#9E6534"/>
<path d="M959.765 542.495C867.653 542.495 792.716 617.432 792.716 709.555C792.716 781.625 838.595 843.172 902.677 866.551L845.023 1066.69C841.75 1078.04 848.306 1089.9 859.653 1093.16C861.632 1093.72 863.621 1094 865.589 1094C874.882 1094 883.427 1087.91 886.133 1078.53L944.504 875.898C949.53 876.357 954.631 876.603 959.775 876.603C1051.89 876.603 1126.83 801.667 1126.83 709.544C1126.83 617.421 1051.9 542.484 959.775 542.484L959.765 542.495ZM959.765 843.45C950.599 843.45 941.648 842.52 932.996 840.755C932.804 840.691 932.611 840.616 932.408 840.552C931.317 840.242 930.237 840.049 929.146 839.91C870.016 826.029 825.858 772.845 825.858 709.544C825.858 635.709 885.93 575.637 959.754 575.637C1033.58 575.637 1093.66 635.709 1093.66 709.544C1093.66 783.379 1033.59 843.45 959.754 843.45H959.765Z" fill="#117AF6"/>
<path opacity="0.4" d="M960.15 843.461C1034.1 843.461 1094.06 783.509 1094.06 709.555C1094.06 635.6 1034.1 575.648 960.15 575.648C886.195 575.648 826.243 635.6 826.243 709.555C826.243 783.509 886.195 843.461 960.15 843.461Z" fill="#E8EDF9"/>
<path d="M1095.25 709.899C1095.55 761.232 1066.77 812.256 1019.92 834.747C939.937 873.739 845.825 821.379 827.537 736.421C802.694 621.904 923.296 531.792 1026.08 587.906C1069.29 611.947 1095.71 660.896 1095.25 709.899ZM1094.29 709.899C1094.43 675.002 1078.87 640.962 1053.31 617.455C968.449 539.716 833.858 594.237 829.601 709.899C828.051 811.657 933.809 869.504 1022.05 824.373C1064.56 803.134 1094.9 758.088 1094.29 709.899Z" fill="white"/>
<path d="M1002.01 613.014C1037.97 617.741 1069.27 654.487 1063.19 691.244C1050.07 655.418 1032.05 635.772 1002.01 613.014Z" fill="white"/>
<mask id="path-23-outside-1_221_219" maskUnits="userSpaceOnUse" x="758.921" y="640.822" width="41" height="18" fill="black">
<rect fill="white" x="758.921" y="640.822" width="41" height="18"/>
<path d="M760.921 654.426C760.921 654.428 760.923 654.428 760.923 654.427C763.226 646.891 772.324 642.413 780.717 642.852C789.17 643.158 797.561 648.779 798.585 656.557C798.609 656.733 798.538 656.909 798.402 657.024C798.206 657.19 797.918 657.193 797.719 657.029C797.206 656.608 796.695 656.184 796.17 655.781C794.245 654.348 792.128 653.012 789.893 652.017C780.815 647.744 769.721 649.81 761.564 654.864C761.476 654.918 761.362 654.903 761.292 654.827L760.923 654.425C760.922 654.425 760.921 654.425 760.921 654.426Z"/>
</mask>
<path d="M760.921 654.426C760.921 654.428 760.923 654.428 760.923 654.427C763.226 646.891 772.324 642.413 780.717 642.852C789.17 643.158 797.561 648.779 798.585 656.557C798.609 656.733 798.538 656.909 798.402 657.024C798.206 657.19 797.918 657.193 797.719 657.029C797.206 656.608 796.695 656.184 796.17 655.781C794.245 654.348 792.128 653.012 789.893 652.017C780.815 647.744 769.721 649.81 761.564 654.864C761.476 654.918 761.362 654.903 761.292 654.827L760.923 654.425C760.922 654.425 760.921 654.425 760.921 654.426Z" fill="#9E6534"/>
<path d="M780.717 642.852L780.661 643.92L780.669 643.92L780.678 643.92L780.717 642.852ZM796.17 655.781L796.821 654.933L796.815 654.928L796.809 654.924L796.17 655.781ZM789.893 652.017L789.437 652.985L789.447 652.989L789.458 652.994L789.893 652.017ZM761.564 654.864L762.127 655.773L761.564 654.864ZM797.719 657.029L798.398 656.203L797.719 657.029ZM760.923 654.425L760.136 655.149L760.923 654.425ZM798.585 656.557L799.646 656.417L798.585 656.557ZM760.923 654.427L759.901 654.114L760.923 654.427ZM761.946 654.739C762.997 651.3 765.621 648.492 769.056 646.584C772.49 644.676 776.663 643.711 780.661 643.92L780.772 641.784C776.378 641.554 771.806 642.609 768.017 644.714C764.229 646.819 761.153 650.018 759.901 654.114L761.946 654.739ZM780.678 643.92C784.692 644.066 788.695 645.476 791.803 647.764C794.911 650.051 797.06 653.162 797.525 656.697L799.646 656.417C799.087 652.174 796.528 648.586 793.071 646.041C789.614 643.497 785.195 641.944 780.755 641.783L780.678 643.92ZM798.398 656.203C797.891 655.787 797.364 655.349 796.821 654.933L795.52 656.63C796.026 657.019 796.52 657.428 797.041 657.856L798.398 656.203ZM796.809 654.924C794.841 653.459 792.655 652.076 790.327 651.04L789.458 652.994C791.6 653.948 793.649 655.238 795.532 656.639L796.809 654.924ZM790.348 651.049C780.852 646.579 769.368 648.77 761 653.955L762.127 655.773C770.073 650.849 780.779 648.909 789.437 652.985L790.348 651.049ZM762.08 654.103L761.71 653.701L760.136 655.149L760.505 655.551L762.08 654.103ZM761 653.955C761.348 653.739 761.801 653.801 762.08 654.103L760.505 655.551C760.923 656.005 761.604 656.097 762.127 655.773L761 653.955ZM797.712 656.207C797.907 656.042 798.196 656.037 798.398 656.203L797.041 657.856C797.641 658.349 798.504 658.339 799.093 657.84L797.712 656.207ZM761.71 653.701C761.05 652.983 759.852 653.451 759.852 654.426H761.99C761.99 655.4 760.795 655.866 760.136 655.149L761.71 653.701ZM797.525 656.697C797.499 656.5 797.579 656.32 797.712 656.207L799.093 657.84C799.497 657.498 799.718 656.966 799.646 656.417L797.525 656.697ZM759.901 654.114C760.077 653.537 760.631 653.308 761.067 653.368C761.508 653.428 761.99 653.808 761.99 654.426H759.852C759.852 655.046 760.335 655.427 760.777 655.487C761.214 655.547 761.769 655.318 761.946 654.739L759.901 654.114Z" fill="#9E6534" mask="url(#path-23-outside-1_221_219)"/>
<path d="M780.592 621.389L780.592 621.389L800.202 631.216L800.204 630.682C800.204 630.682 800.203 630.682 800.203 630.682C796.925 630.671 793.74 629.637 791.082 627.724C788.425 625.811 786.429 623.123 785.363 620.022C784.873 618.5 783.408 618.093 782.268 618.405C781.694 618.561 781.153 618.907 780.813 619.43C780.464 619.966 780.356 620.646 780.592 621.389Z" fill="#9E6534" stroke="#9E6534" stroke-width="1.06945"/>
<path d="M540.186 1092.57C540.186 1092.57 585.349 1097.19 652.564 1084.39C719.779 1071.59 710.528 1071.59 742.901 1065.54C775.273 1059.5 794.823 1041 815.453 1033.53C815.453 1033.53 829.676 1019.31 830.393 990.864C831.109 962.416 844.264 962.769 849.237 961.7C854.21 960.63 880.529 942.492 880.529 942.492L870.219 979.474C870.219 979.474 870.936 1001.88 888.357 1007.92C905.779 1013.96 929.253 987.655 929.253 987.655L934.59 974.137C934.59 974.137 964.107 1001.16 952.011 1023.21C939.916 1045.27 900.089 1059.49 900.089 1059.49L881.245 1113.9L822.564 1132.4L554.056 1149.11L540.186 1092.57Z" fill="#F2A91F"/>
<path d="M1062.26 1102.52L1125.7 1566.68" stroke="#9D6434" stroke-width="6.41673" stroke-linecap="round" stroke-linejoin="round"/>
<g opacity="0.7">
<path d="M629.453 1101.81C675.685 1076.91 705.277 1041.67 742.601 1020.05L696.668 1084.03L629.453 1101.82V1101.81Z" fill="#CB8F3F"/>
</g>
<path d="M700.174 1234.66L700.347 1235.17L700.174 1234.66C679.621 1241.7 659.369 1247.76 637.736 1253.3C616.104 1258.85 594.259 1263.52 572.243 1267.26C570.72 1267.52 569.312 1266.87 568.902 1265.4C568.734 1264.77 568.839 1264 569.184 1263.34C569.528 1262.69 570.071 1262.23 570.721 1262.12L570.723 1262.12C573.473 1261.65 576.223 1261.17 578.962 1260.68L578.962 1260.68C600.837 1256.73 623.16 1251.7 644.017 1246.13C664.874 1240.57 685.517 1234.21 705.872 1227.04C725.231 1220.23 744.334 1212.68 763.085 1204.33L763.085 1204.33C780.765 1196.46 798.147 1187.88 815.07 1178.47C830.462 1169.92 845.483 1160.67 859.906 1150.55C860.454 1150.17 861.168 1150.1 861.866 1150.31C862.568 1150.51 863.188 1150.97 863.523 1151.54C864.268 1152.83 863.764 1154.34 862.523 1155.22C860.812 1156.4 859.103 1157.59 857.383 1158.76C842.653 1168.79 827.344 1177.95 811.669 1186.42C794.423 1195.74 776.737 1204.24 758.751 1212.03C739.535 1220.34 719.988 1227.89 700.174 1234.66Z" fill="#9D6434" stroke="#9D6434" stroke-width="1.06945"/>
<path d="M552.062 1115.86L552.288 1115.86C569.759 1116.1 587.205 1115.07 604.487 1112.49M552.062 1115.86L604.567 1113.02M552.062 1115.86L552.058 1115.86C551.292 1115.8 550.735 1115.47 550.356 1115.03C549.933 1114.53 549.709 1113.85 549.709 1113.16C549.709 1112.46 549.933 1111.8 550.352 1111.31C550.761 1110.84 551.383 1110.51 552.263 1110.52M552.062 1115.86L552.263 1110.52M604.487 1112.49L604.567 1113.02M604.487 1112.49C604.487 1112.49 604.487 1112.49 604.487 1112.49L604.567 1113.02M604.487 1112.49C619.518 1110.23 634.33 1106.75 649.038 1102.89M604.567 1113.02C619.624 1110.76 634.458 1107.27 649.173 1103.41M649.038 1102.89C649.038 1102.89 649.038 1102.89 649.037 1102.89L649.173 1103.41M649.038 1102.89C651.148 1102.34 653.259 1101.79 655.37 1101.23C669.91 1097.43 684.47 1093.61 698.762 1089.05C716.951 1083.23 734.746 1076.16 751.974 1067.93L751.974 1067.93C761.403 1063.42 770.777 1058.81 780.156 1054.2C784.763 1051.93 789.372 1049.66 793.989 1047.41M649.038 1102.89L649.173 1103.41M649.173 1103.41L833.654 995.493M854.263 963.249C857.065 962.126 859.642 960.928 862.123 959.217C865.417 956.95 868.765 954.758 872.133 952.608M854.263 963.249L854.064 962.753C854.064 962.753 854.064 962.753 854.064 962.753M854.263 963.249L854.064 962.753M854.263 963.249C851.75 964.254 849.236 965.142 846.573 965.666C843.365 966.308 840.734 968.35 838.852 970.981M854.064 962.753C856.85 961.636 859.386 960.456 861.82 958.777L861.82 958.777C865.12 956.505 868.473 954.309 871.845 952.158M854.064 962.753C851.562 963.753 849.085 964.627 846.47 965.141L846.469 965.142C843.096 965.816 840.357 967.958 838.417 970.67L838.852 970.981M871.845 952.158L872.133 952.608M871.845 952.158C872.344 951.838 872.843 951.52 873.341 951.203C875.137 950.06 876.926 948.92 878.677 947.728L878.677 947.727C880.09 946.768 880.16 945.136 879.458 943.928C879.109 943.327 878.591 942.88 878.01 942.697C877.447 942.52 876.771 942.574 876.038 943.072L876.038 943.072C873.391 944.869 870.702 946.595 868.02 948.316L867.591 948.592C864.764 950.406 861.948 952.22 859.186 954.118C856.746 955.795 854.268 956.979 851.622 958.005L851.62 958.005C850.333 958.499 849.035 958.975 847.701 959.376C847.015 959.583 846.358 959.715 845.734 959.839L845.669 959.852C845.062 959.973 844.488 960.087 843.91 960.255M871.845 952.158C871.845 952.157 871.846 952.157 871.846 952.157L872.133 952.608M872.133 952.608L843.91 960.255M843.91 960.255C843.91 960.255 843.91 960.255 843.91 960.255L843.761 959.741M843.91 960.255L875.737 942.63C873.096 944.423 870.412 946.146 867.728 947.868C864.76 949.773 861.792 951.678 858.883 953.677C856.487 955.324 854.049 956.49 851.429 957.506C850.145 957.998 848.862 958.469 847.547 958.864C846.863 959.07 846.206 959.2 845.557 959.329C844.956 959.449 844.362 959.566 843.761 959.741M843.91 960.255C836.556 962.396 831.665 969.548 829.831 976.812C828.822 980.815 828.458 984.931 828.156 989.102C828.123 989.556 828.091 990.01 828.059 990.466C827.796 994.18 827.531 997.932 826.844 1001.62C825.696 1007.81 824.115 1014.07 821.624 1019.9C821.623 1019.9 821.623 1019.9 821.623 1019.9L821.131 1019.69M843.91 960.255L843.761 959.741M843.761 959.741C836.157 961.955 831.173 969.313 829.312 976.681C828.18 981.176 827.853 985.8 827.525 990.427C827.262 994.145 826.999 997.866 826.318 1001.52C825.174 1007.7 823.602 1013.91 821.131 1019.69M808.843 1033.62C808.704 1033.68 808.576 1033.75 808.447 1033.81C807.979 1034.03 807.515 1034.26 807.051 1034.49C806.772 1034.63 806.493 1034.77 806.212 1034.9M808.843 1033.62L809.066 1034.11C809.066 1034.11 809.067 1034.1 809.067 1034.1M808.843 1033.62L809.067 1034.1M808.843 1033.62C809.421 1033.35 809.834 1033.2 810.199 1033.07C810.646 1032.91 811.021 1032.77 811.538 1032.49M809.067 1034.1C808.937 1034.16 808.816 1034.23 808.687 1034.29L808.676 1034.3C808.211 1034.51 807.756 1034.74 807.295 1034.97C807.015 1035.1 806.734 1035.24 806.447 1035.38M809.067 1034.1C809.624 1033.85 810.018 1033.71 810.382 1033.57C810.423 1033.56 810.462 1033.55 810.502 1033.53C810.908 1033.38 811.291 1033.24 811.797 1032.95M806.447 1035.38L806.212 1034.9M806.447 1035.38C806.446 1035.38 806.446 1035.38 806.446 1035.38L806.212 1034.9M806.447 1035.38C805.241 1035.97 804.034 1036.56 802.827 1037.15C801.027 1038.03 799.225 1038.91 797.421 1039.79L797.421 1039.79L797.186 1039.31M806.212 1034.9C805.006 1035.49 803.799 1036.08 802.591 1036.67C800.792 1037.55 798.991 1038.43 797.186 1039.31M797.186 1039.31L797.42 1039.79M797.186 1039.31L797.154 1039.32C782.417 1046.53 767.68 1053.73 752.943 1060.94C739.296 1067.62 725.329 1073.55 711.031 1078.69C695.227 1084.36 679.065 1088.72 662.876 1093.1C661.603 1093.44 660.329 1093.78 659.055 1094.13C644.382 1098.1 629.677 1101.99 614.726 1104.82C598.738 1107.85 582.546 1109.52 566.28 1109.92C561.607 1110.04 556.944 1110.05 552.27 1109.99L797.42 1039.79M797.42 1039.79L797.382 1039.81C782.647 1047.01 767.912 1054.21 753.178 1061.42L753.178 1061.42C739.514 1068.11 725.529 1074.05 711.211 1079.19C695.386 1084.87 679.204 1089.24 663.02 1093.61C661.745 1093.96 660.47 1094.3 659.195 1094.65L659.195 1094.65C644.523 1098.61 629.799 1102.51 614.826 1105.35C598.808 1108.38 582.587 1110.05 566.293 1110.46C561.612 1110.58 556.942 1110.59 552.263 1110.52M797.42 1039.79L552.263 1110.52M811.797 1032.95L811.538 1032.49M811.797 1032.95C811.797 1032.95 811.798 1032.95 811.798 1032.95L811.538 1032.49M811.797 1032.95L821.131 1019.69M811.538 1032.49C813.549 1031.37 815.356 1029.58 816.704 1027.71M816.704 1027.71L817.137 1028.02C817.137 1028.02 817.137 1028.02 817.138 1028.02L816.704 1027.71ZM816.704 1027.71C818.49 1025.23 819.944 1022.5 821.131 1019.69M838.852 970.981C834.875 976.541 834.464 983.359 834.062 990.019C833.951 991.866 833.84 993.701 833.654 995.493M838.852 970.981L838.417 970.67C835.805 974.322 834.702 978.484 834.139 982.734C833.858 984.858 833.71 987.015 833.579 989.146C833.562 989.427 833.545 989.708 833.528 989.988C833.417 991.836 833.307 993.658 833.123 995.438L833.122 995.439C832.463 1001.87 831.166 1008.18 829.229 1014.48C827.291 1020.78 824.727 1027 820.658 1032.15M833.654 995.493C832.991 1001.96 831.687 1008.31 829.74 1014.64C827.794 1020.97 825.206 1027.26 821.078 1032.49M833.654 995.493L821.078 1032.49M820.658 1032.15C818.957 1034.31 816.901 1036.24 814.53 1037.56L814.528 1037.56C813.748 1038 812.912 1038.39 812.086 1038.66C812.026 1038.68 811.968 1038.7 811.913 1038.72C811.909 1038.72 811.906 1038.72 811.902 1038.72M820.658 1032.15C820.658 1032.15 820.658 1032.15 820.658 1032.15L821.078 1032.49M820.658 1032.15L821.078 1032.49M811.902 1038.72L811.881 1038.67C811.833 1038.69 811.788 1038.71 811.745 1038.73M811.902 1038.72L811.978 1038.91C811.976 1038.91 811.973 1038.91 811.971 1038.91C811.966 1038.9 811.962 1038.9 811.957 1038.9L812.073 1039.17L812.094 1039.22M811.902 1038.72C811.902 1038.72 811.902 1038.72 811.901 1038.72C811.896 1038.73 811.891 1038.73 811.886 1038.73L811.864 1038.68C811.821 1038.7 811.782 1038.71 811.745 1038.73M811.745 1038.73C811.617 1038.78 811.527 1038.82 811.472 1038.85C811.461 1038.86 811.445 1038.87 811.427 1038.88C811.417 1038.88 811.406 1038.89 811.396 1038.89C811.392 1038.9 811.384 1038.9 811.373 1038.91M811.745 1038.73C811.704 1038.75 811.665 1038.77 811.63 1038.78C811.554 1038.82 811.502 1038.85 811.442 1038.88L811.433 1038.88C811.413 1038.89 811.393 1038.9 811.373 1038.91M811.373 1038.91C807.355 1040.86 803.35 1042.82 799.345 1044.78C797.56 1045.66 795.775 1046.53 793.989 1047.41M811.373 1038.91C811.356 1038.92 811.332 1038.94 811.307 1038.96C811.289 1038.98 811.242 1039.03 811.203 1039.1C811.166 1039.18 811.092 1039.37 811.194 1039.58C811.196 1039.58 811.197 1039.59 811.198 1039.59C807.318 1041.47 803.451 1043.37 799.582 1045.26C797.797 1046.14 796.011 1047.01 794.224 1047.89M793.989 1047.41L794.224 1047.89M793.989 1047.41C793.989 1047.41 793.989 1047.41 793.989 1047.41L794.224 1047.89M794.224 1047.89L812.094 1039.22M812.094 1039.22C811.907 1039.29 811.731 1039.35 811.688 1039.35C811.681 1039.36 811.673 1039.36 811.666 1039.36" fill="#9D6434" stroke="#9D6434" stroke-width="1.06945"/>
<path d="M869.815 974.333L869.773 974.489C868.406 979.56 868.973 985.07 870.412 990.128C871.85 995.179 874.257 1000.1 877.625 1004.18L877.625 1004.18C880.315 1007.44 884.435 1009.62 888.558 1010.53L888.559 1010.53C898.787 1012.81 908.329 1007.92 916.439 1001.79L916.439 1001.79C920.748 998.538 925.309 995.046 929 990.952C932.685 986.864 935.475 982.204 936.274 976.627C937.027 971.364 935.931 965.871 934.387 960.74C932.842 955.603 930.699 950.213 927.083 946.252L927.082 946.251C926.147 945.223 924.321 945.27 923.321 946.27C922.276 947.315 922.329 948.965 923.337 950.065L923.339 950.066C923.381 950.113 923.51 950.267 923.637 950.42C923.696 950.49 923.755 950.561 923.805 950.621C923.841 950.663 923.873 950.701 923.9 950.733L923.914 950.723C923.96 950.783 923.996 950.832 924.019 950.865C924.022 950.869 924.026 950.875 924.03 950.882C924.23 951.159 924.423 951.436 924.615 951.72L924.619 951.725L924.619 951.725C925.231 952.654 925.776 953.613 926.275 954.601M869.815 974.333L894.37 1005.76C894.821 1005.75 895.27 1005.72 895.704 1005.68L895.705 1005.68C895.918 1005.67 896.129 1005.65 896.325 1005.63C896.331 1005.63 896.335 1005.63 896.338 1005.63C896.351 1005.63 896.362 1005.63 896.37 1005.63C896.397 1005.63 896.422 1005.63 896.437 1005.63C896.455 1005.63 896.474 1005.63 896.493 1005.62C896.53 1005.62 896.572 1005.62 896.609 1005.61C896.646 1005.61 896.684 1005.6 896.713 1005.6C896.72 1005.6 896.73 1005.6 896.739 1005.59C896.745 1005.59 896.767 1005.59 896.793 1005.58C896.801 1005.58 896.814 1005.58 896.829 1005.57C896.839 1005.57 896.863 1005.56 896.893 1005.54C898.974 1005.19 901.03 1004.6 902.986 1003.79C907.783 1001.84 912.214 998.397 916.288 995.22C919.821 992.468 923.569 989.347 926.418 985.725C929.271 982.098 931.249 977.937 931.188 973.113V973.113C931.134 968.895 930.131 964.771 928.701 960.491L928.701 960.49C927.957 958.282 927.317 956.641 926.275 954.601M869.815 974.333L869.806 974.308C870.051 973.549 870.513 973.082 871.049 972.829C871.633 972.554 872.341 972.517 873.01 972.701C873.679 972.885 874.271 973.28 874.635 973.819C874.991 974.345 875.152 975.038 874.922 975.889L874.921 975.891C874.538 977.324 874.446 977.894 874.369 979.217C874.292 980.532 874.337 981.854 874.456 983.157L874.456 983.159C874.566 984.313 874.774 985.46 875.066 986.755C875.359 988.059 875.728 989.339 876.161 990.606C877.447 994.397 879.587 998.676 882.33 1001.44L882.332 1001.44C882.545 1001.66 882.783 1001.86 883.008 1002.05M869.815 974.333L883.008 1002.05M926.275 954.601C926.275 954.6 926.275 954.6 926.275 954.6L925.798 954.843L926.276 954.602C926.275 954.601 926.275 954.601 926.275 954.601ZM883.008 1002.05C883.018 1002.07 883.027 1002.09 883.033 1002.1C883.043 1002.11 883.053 1002.12 883.06 1002.13C883.073 1002.15 883.085 1002.16 883.093 1002.17C883.107 1002.19 883.121 1002.2 883.13 1002.21C883.139 1002.22 883.148 1002.23 883.157 1002.23C883.164 1002.24 883.171 1002.24 883.178 1002.25C883.189 1002.26 883.2 1002.27 883.211 1002.28C883.248 1002.31 883.291 1002.34 883.334 1002.38C883.377 1002.41 883.422 1002.44 883.462 1002.47C883.482 1002.49 883.502 1002.5 883.521 1002.51C883.537 1002.53 883.563 1002.54 883.591 1002.56C883.599 1002.56 883.61 1002.57 883.623 1002.58C883.635 1002.58 883.657 1002.59 883.686 1002.6C883.692 1002.61 883.699 1002.61 883.706 1002.61M883.008 1002.05L883.706 1002.61M883.706 1002.61C883.75 1002.64 883.795 1002.67 883.84 1002.7L883.841 1002.7C884.228 1002.97 884.636 1003.22 885.052 1003.46L885.053 1003.46C885.56 1003.76 886.073 1004.03 886.599 1004.27C886.607 1004.28 886.614 1004.28 886.621 1004.29C886.631 1004.3 886.64 1004.31 886.647 1004.31C886.668 1004.33 886.687 1004.34 886.696 1004.34C886.7 1004.35 886.704 1004.35 886.708 1004.35C886.714 1004.35 886.719 1004.36 886.723 1004.36C886.737 1004.37 886.749 1004.37 886.758 1004.38C886.776 1004.38 886.796 1004.39 886.813 1004.4C886.85 1004.42 886.893 1004.43 886.936 1004.45C886.98 1004.47 887.026 1004.48 887.068 1004.5C887.107 1004.51 887.15 1004.53 887.184 1004.54C887.193 1004.54 887.204 1004.55 887.216 1004.55C887.225 1004.55 887.249 1004.56 887.279 1004.57C887.288 1004.57 887.3 1004.57 887.314 1004.57C887.323 1004.57 887.336 1004.57 887.352 1004.57C887.387 1004.59 887.422 1004.6 887.459 1004.61C887.557 1004.65 887.661 1004.69 887.78 1004.73L887.78 1004.73L887.787 1004.74C888.517 1004.99 889.264 1005.21 890.025 1005.37C890.256 1005.43 890.489 1005.47 890.711 1005.51C890.806 1005.53 890.899 1005.55 890.99 1005.57L891.042 1005.58H891.064L891.067 1005.58C891.07 1005.58 891.074 1005.58 891.078 1005.58C891.087 1005.58 891.094 1005.58 891.098 1005.59C891.125 1005.59 891.148 1005.6 891.15 1005.6C891.156 1005.6 891.163 1005.6 891.17 1005.6C891.179 1005.6 891.187 1005.6 891.195 1005.61C891.209 1005.61 891.227 1005.61 891.248 1005.61C891.274 1005.62 891.305 1005.62 891.341 1005.63C891.409 1005.64 891.457 1005.64 891.489 1005.65C891.504 1005.65 891.519 1005.65 891.533 1005.65C891.535 1005.65 891.54 1005.65 891.547 1005.65C891.554 1005.65 891.562 1005.65 891.571 1005.65C891.577 1005.65 891.586 1005.65 891.598 1005.65C891.603 1005.65 891.617 1005.65 891.635 1005.65L891.654 1005.66L891.689 1005.66L891.705 1005.66L891.712 1005.66C891.713 1005.66 891.715 1005.66 891.717 1005.66C892.594 1005.74 893.479 1005.78 894.369 1005.76L883.706 1002.61ZM923.818 950.701C923.847 950.714 923.87 950.729 923.889 950.742L923.471 951.053C923.406 950.977 923.321 950.875 923.238 950.776C923.34 950.689 923.453 950.657 923.542 950.649C923.688 950.637 923.795 950.689 923.817 950.7L923.818 950.701ZM891.045 1005.58L891.046 1005.58C891.038 1005.57 891.036 1005.57 891.045 1005.58Z" fill="#9D6434" stroke="#9D6434" stroke-width="1.06945"/>
<path d="M932.134 973.814L932.407 974.095C938.376 980.247 943.474 987.152 947.562 994.693C950.944 1000.92 953.826 1008.4 952.905 1015.52C952.485 1018.78 951.112 1021.85 948.654 1024.27L948.653 1024.27C947.24 1025.65 945.627 1026.79 943.997 1027.85C943.499 1028.18 943.002 1028.49 942.508 1028.81C941.372 1029.53 940.253 1030.24 939.182 1031.01C935.333 1033.81 931.797 1036.92 928.238 1040.06C926.261 1041.8 924.276 1043.55 922.227 1045.25C922.227 1045.25 922.227 1045.25 922.226 1045.25L921.885 1044.84C918.954 1047.28 915.917 1049.54 912.506 1051.44L932.134 973.814ZM932.134 973.814L932.134 973.814L932.134 973.814Z" fill="#9D6434" stroke="#9D6434" stroke-width="1.06945"/>
<path d="M952.681 1023.26L952.688 1023.25C952.001 1021.94 952.366 1020.33 953.639 1019.58C954.852 1018.87 956.637 1019.29 957.281 1020.52L957.281 1020.52C960.864 1027.35 962.562 1034.82 963.264 1042.51L963.264 1042.51C963.881 1049.21 963.786 1056.02 963.508 1062.77C963.434 1064.55 963.211 1066.31 962.363 1067.75C961.51 1069.2 960.157 1070.23 958.681 1071.2C958.681 1071.2 958.681 1071.2 958.68 1071.2L952.681 1023.26ZM952.681 1023.26C958.536 1034.44 958.534 1047.46 958.235 1059.6C958.226 1060.01 958.23 1060.42 958.234 1060.83C958.237 1061.15 958.24 1061.47 958.238 1061.82C958.233 1062.58 958.198 1063.36 958.055 1064.12L958.055 1064.12C957.839 1065.26 957.037 1065.87 956.201 1066.43L956.199 1066.43C954.117 1067.8 952.074 1069.2 950.087 1070.7C948.445 1071.94 946.841 1073.21 945.241 1074.47C942.762 1076.42 940.294 1078.37 937.713 1080.21C932.488 1083.94 926.88 1087.16 920.754 1089.27C919.336 1089.76 918.466 1091.14 918.85 1092.57C919.029 1093.21 919.506 1093.81 920.127 1094.18C920.746 1094.54 921.461 1094.66 922.108 1094.45L952.681 1023.26Z" fill="#9D6434" stroke="#9D6434" stroke-width="1.06945"/>
<path d="M952.858 1073.69L952.984 1074.03C955.975 1082.27 953.766 1092.6 947.507 1099.03L952.858 1073.69ZM952.858 1073.69C952.782 1073.16 952.919 1072.6 953.221 1072.1C953.598 1071.47 954.2 1070.99 954.836 1070.82L954.836 1070.82C956.274 1070.43 957.623 1071.3 958.139 1072.73L958.139 1072.73C961.838 1082.93 958.523 1095.81 950.762 1103.34L952.858 1073.69ZM933.601 1109.75C933.491 1109.8 933.392 1109.84 933.301 1109.88L933.294 1109.88C932.832 1110.08 932.385 1110.29 931.95 1110.52L931.947 1110.52C928.322 1112.38 925.059 1114.95 921.802 1117.52C921.43 1117.81 921.058 1118.11 920.685 1118.4L920.685 1118.4C917.277 1121.07 914.001 1123.63 910.195 1125.94L910.193 1125.94C906.717 1128.04 903.294 1130.22 899.865 1132.41C899.256 1132.8 898.647 1133.19 898.037 1133.58C893.997 1136.16 889.934 1138.72 885.768 1141.1L933.601 1109.75ZM933.601 1109.75C933.622 1109.75 933.639 1109.75 933.65 1109.75C933.683 1109.74 933.708 1109.73 933.718 1109.73C933.726 1109.73 933.735 1109.72 933.742 1109.72C933.753 1109.72 933.761 1109.71 933.766 1109.71C933.796 1109.7 933.836 1109.68 933.875 1109.66C933.955 1109.63 934.088 1109.56 934.294 1109.46M933.601 1109.75L934.294 1109.46M934.294 1109.46C934.316 1109.45 934.337 1109.44 934.358 1109.43L934.332 1109.38C934.513 1109.27 934.702 1109.16 934.9 1109.05L934.935 1109.03C935.185 1108.89 935.449 1108.74 935.707 1108.58L935.707 1108.58L935.714 1108.58C936.42 1108.12 937.101 1107.65 937.777 1107.16C938.156 1106.89 938.535 1106.61 938.908 1106.33L938.91 1106.33L939.167 1106.14L939.424 1105.95C939.462 1105.92 939.588 1105.82 939.685 1105.75L939.686 1105.75L939.687 1105.75C939.701 1105.74 939.716 1105.73 939.731 1105.71L939.787 1105.67L939.791 1105.67C942.443 1103.62 945.135 1101.46 947.507 1099.03L934.294 1109.46ZM939.291 1105.38C939.228 1105.42 939.166 1105.47 939.128 1105.5C939.2 1105.61 939.292 1105.7 939.393 1105.75C939.491 1105.76 939.623 1105.74 939.67 1105.73L939.358 1105.32C939.336 1105.34 939.314 1105.36 939.291 1105.38Z" fill="#9D6434" stroke="#9D6434" stroke-width="1.06945"/>
<path d="M651.891 1093.06L651.891 1093.06C645.016 1098.2 637.528 1102.75 629.091 1104.42H629.081L629.031 1104.43C627.532 1104.72 626.104 1104.02 625.702 1102.57C625.529 1101.92 625.636 1101.16 625.982 1100.52C626.326 1099.88 626.875 1099.41 627.534 1099.29L627.432 1098.76L627.534 1099.29C637.051 1097.43 645.054 1091.75 652.434 1085.96L652.434 1085.96C667.707 1073.99 682.939 1061.85 697.317 1048.76L697.317 1048.76C699.391 1046.88 701.444 1044.95 703.498 1043.03C714.139 1033.06 724.798 1023.07 738.544 1017.9C739.166 1017.66 739.873 1017.79 740.5 1018.17C741.13 1018.55 741.613 1019.16 741.786 1019.78C742.177 1021.23 741.303 1022.55 739.868 1023.09L739.868 1023.09C731.103 1026.39 723.515 1032.14 716.603 1038.22L716.602 1038.22C713.259 1041.17 710.002 1044.22 706.753 1047.26L706.536 1047.46C703.358 1050.44 700.185 1053.41 696.934 1056.29L696.934 1056.29C689.627 1062.77 681.977 1069.12 674.505 1075.16C673.452 1076.01 672.4 1076.86 671.347 1077.72C664.924 1082.92 658.498 1088.12 651.891 1093.06Z" fill="#9D6434" stroke="#9D6434" stroke-width="1.06945"/>
<path d="M251.411 1580.5H1715.22" stroke="#335CDF" stroke-width="11.764" stroke-linecap="round" stroke-linejoin="round"/>
<path d="M251.411 1642.52H635.656" stroke="#335CDF" stroke-width="11.764" stroke-linecap="round" stroke-linejoin="round"/>
<path d="M1354.98 1642.52L1673.97 1642.52" stroke="#335CDF" stroke-width="11.764" stroke-linecap="round" stroke-linejoin="round"/>
<path d="M1064.74 1112.48L1173.58 1577.65L1131.62 1578.37L1064.74 1112.48Z" fill="#CB8F3F"/>
<path opacity="0.6" d="M426.289 1105.67C426.289 1105.67 678.167 852.153 813.314 853.575C813.314 853.575 822.917 851.084 823.623 840.057C824.329 829.031 816.864 795.953 816.864 795.953C816.864 795.953 815.688 822.989 812.897 833.651C810.105 844.314 802.993 843.255 802.993 843.255C802.993 843.255 719.897 859.254 664.413 889.135C608.93 919.015 545.394 982.07 545.394 982.07C545.394 982.07 459.859 1056.65 426.278 1105.67H426.289Z" fill="#CB8F3F"/>
<path d="M1027.34 1504.94C1027.34 1504.94 990.747 1498.08 924.43 1578.14C867.984 1646.29 842.435 1676.62 767.477 1668.38C739.457 1665.3 713.031 1653.76 691.535 1635.53C671.215 1618.3 646.65 1594.92 635.656 1574.62C635.656 1574.62 656.831 1575.91 681.974 1527.87C692.572 1507.62 709.47 1490.23 725.469 1476.88C748.483 1457.66 779.166 1450.32 808.448 1456.77L1027.32 1504.95L1027.34 1504.94Z" fill="#99CCFF"/>
<path d="M1452.74 1457.98C1452.74 1457.98 1370.4 1452.51 1324.67 1558.75C1278.95 1664.99 1258.37 1690.33 1198.89 1660.51C1139.42 1630.71 1153.14 1646.55 1132.56 1590.6C1111.96 1534.65 1073.04 1522.39 1073.04 1522.39C1073.04 1522.39 1088.9 1467.72 1120.6 1430.57C1142.5 1404.91 1177.29 1394.25 1209.99 1402.58L1452.74 1457.98Z" fill="#99CCFF"/>
<path d="M1594.79 1586.59C1594.79 1586.59 1550.98 1571.17 1524.74 1518.56C1498.49 1465.97 1461.06 1447.9 1427.59 1457.97C1394.11 1468.03 1363.37 1483.14 1344.02 1520.95C1344.02 1520.95 1480.63 1570.03 1594.79 1586.59Z" fill="#335CDF"/>
<path d="M1596.72 864.432C1596.72 864.432 1553.34 1292.14 1452.74 1457.98C1452.74 1457.98 1500.64 1472.83 1524.74 1518.57C1548.82 1564.31 1606.01 1616.91 1654.03 1575.73C1702.05 1534.55 1782.09 1437.37 1843.74 910.718L1596.72 864.432Z" fill="#99CCFF"/>
<path d="M1198.91 1660.52C1198.91 1660.52 1160.01 1618.05 1125.7 1566.68C1091.38 1515.3 1080.66 1516.68 1027.34 1504.94C974.031 1493.21 924.43 1578.14 924.43 1578.14C924.43 1578.14 924.43 1598.73 958.738 1607.87C993.046 1617.02 1198.89 1660.52 1198.89 1660.52H1198.91Z" fill="#335CDF"/>
<g opacity="0.5">
<path d="M1797.6 989.28C1796.83 989.28 1796.06 989.205 1795.28 989.056L1624.13 956.341C1617.46 955.068 1613.08 948.62 1614.36 941.946C1615.63 935.273 1622.07 930.899 1628.75 932.171L1799.9 964.886C1806.57 966.159 1810.94 972.607 1809.67 979.281C1808.55 985.174 1803.39 989.27 1797.61 989.27L1797.6 989.28Z" fill="white"/>
<path d="M1790.13 1030.18C1789.36 1030.18 1788.59 1030.1 1787.81 1029.95L1616.67 997.237C1609.99 995.965 1605.62 989.516 1606.89 982.843C1608.16 976.169 1614.6 971.795 1621.29 973.068L1792.43 1005.78C1799.1 1007.06 1803.48 1013.5 1802.21 1020.18C1801.08 1026.07 1795.93 1030.17 1790.14 1030.17L1790.13 1030.18Z" fill="white"/>
<path d="M1710.24 1060.06C1709.43 1060.06 1708.62 1059.97 1707.78 1059.81L1616.53 1041.32C1609.88 1039.97 1605.57 1033.48 1606.91 1026.83C1608.26 1020.18 1614.74 1015.87 1621.4 1017.22L1712.66 1035.71C1719.31 1037.05 1723.62 1043.55 1722.28 1050.2C1721.1 1056.03 1715.97 1060.06 1710.23 1060.06H1710.24Z" fill="white"/>
</g>
<path d="M927.382 1542.46C926.601 1542.44 925.81 1542.33 925.018 1542.15L751.67 1502.16C744.911 1500.59 740.676 1493.73 742.216 1486.81C743.756 1479.89 750.462 1475.55 757.231 1477.11L930.579 1517.11C937.338 1518.67 941.573 1525.53 940.033 1532.45C938.675 1538.56 933.274 1542.67 927.382 1542.46Z" fill="#CCE6FF"/>
<path d="M898.849 1577.19C898.089 1577.15 897.309 1577.02 896.539 1576.83L727.736 1533.62C721.159 1531.93 717.191 1525.24 718.87 1518.66C720.56 1512.08 727.244 1508.11 733.832 1509.79L902.635 1553C909.212 1554.69 913.179 1561.38 911.5 1567.96C910.014 1573.77 904.613 1577.54 898.838 1577.19H898.849Z" fill="#CCE6FF"/>
<path d="M791.347 1594.51C790.545 1594.46 789.721 1594.32 788.919 1594.1L699.203 1569.16C692.658 1567.34 688.829 1560.56 690.647 1554.01C692.465 1547.47 699.235 1543.64 705.791 1545.46L795.507 1570.4C802.052 1572.22 805.881 1579 804.063 1585.54C802.469 1591.27 797.069 1594.92 791.347 1594.51Z" fill="#CCE6FF"/>
<g opacity="0.5">
<path d="M1711.19 1393.29C1710.42 1393.29 1709.65 1393.21 1708.86 1393.06L1537.72 1360.35C1531.05 1359.07 1526.67 1352.63 1527.94 1345.95C1529.22 1339.28 1535.66 1334.9 1542.34 1336.18L1713.48 1368.89C1720.16 1370.16 1724.53 1376.61 1723.26 1383.29C1722.14 1389.18 1716.98 1393.28 1711.2 1393.28L1711.19 1393.29Z" fill="white"/>
<path d="M1695.18 1432.05C1694.41 1432.05 1693.64 1431.98 1692.85 1431.83L1521.71 1399.11C1515.04 1397.84 1510.66 1391.39 1511.94 1384.72C1513.21 1378.05 1519.65 1373.67 1526.33 1374.94L1697.47 1407.66C1704.15 1408.93 1708.52 1415.38 1707.25 1422.05C1706.13 1427.95 1700.97 1432.04 1695.19 1432.04L1695.18 1432.05Z" fill="white"/>
<path d="M1587.2 1449.27C1586.55 1449.27 1585.89 1449.21 1585.22 1449.07L1511.73 1434.17C1506.37 1433.08 1502.91 1427.86 1503.99 1422.49C1505.07 1417.13 1510.3 1413.67 1515.67 1414.75L1589.16 1429.65C1594.52 1430.74 1597.98 1435.96 1596.9 1441.33C1595.95 1446.02 1591.82 1449.26 1587.2 1449.26V1449.27Z" fill="white"/>
</g>
<path opacity="0.5" d="M1595.36 1078.7L1787.41 1115.68C1787.41 1115.68 1751.85 1296.34 1736.19 1326.21L1549.84 1288.16C1549.84 1288.16 1573.31 1212.41 1595.36 1078.69V1078.7Z" fill="white"/>
<path d="M1178.71 1480.68L1284.02 1509.61" stroke="#CCE6FF" stroke-width="21.3891" stroke-linecap="round" stroke-linejoin="round"/>
<path d="M1168.05 1514.82L1239.37 1533.56" stroke="#CCE6FF" stroke-width="21.3891" stroke-linecap="round" stroke-linejoin="round"/>
<path d="M1148.69 1488.78C1154.76 1472.93 1152.23 1457.23 1143.03 1453.71C1133.84 1450.19 1121.46 1460.18 1115.39 1476.04C1109.32 1491.89 1111.86 1507.59 1121.05 1511.11C1130.25 1514.64 1142.62 1504.64 1148.69 1488.78Z" fill="#CCE6FF"/>
<path d="M733.661 1659.45C733.661 1659.45 665.376 1640.25 603.497 1482.34L364.506 1429C364.506 1429 394.376 1576.23 524.539 1618.91C524.539 1618.91 673.91 1659.45 733.65 1659.45H733.661Z" fill="#335CDF"/>
<path d="M790.451 539.074C788.672 535.969 787.014 532.795 785.482 529.558L785.619 529.588L785.126 528.588C784.781 527.889 784.235 527.475 783.611 527.34C783.004 527.209 782.38 527.353 781.868 527.652C780.85 528.247 780.109 529.581 780.82 531.009M790.451 539.074L785.055 538.201C783.761 535.744 782.525 533.256 781.299 530.771L780.82 531.009C780.82 531.009 780.82 531.009 780.82 531.009M790.451 539.074C790.673 539.107 790.896 539.14 791.118 539.172C792.14 539.32 793.185 539.436 794.246 539.55C794.32 539.558 794.393 539.566 794.466 539.574C795.454 539.681 796.456 539.789 797.452 539.924C799.592 540.214 801.736 540.63 803.743 541.44C807.486 542.94 810.758 545.402 813.243 548.574C814.581 550.192 815.495 552.134 815.886 554.199C816.288 556.266 816.154 558.399 815.518 560.407L815.512 560.427L815.504 560.446C814.55 562.806 812.688 564.038 810.601 564.376C808.536 564.711 806.263 564.175 804.392 563.057L804.384 563.052L804.375 563.047C800.832 560.75 797.69 557.9 795.067 554.607C792.154 551.171 789.668 547.446 787.417 543.584C784.896 543.19 782.378 542.759 779.873 542.28M790.451 539.074L780.82 531.009M780.82 531.009C781.985 533.369 783.161 535.738 784.39 538.084C783.2 537.872 782.011 537.652 780.823 537.422L780.821 537.422C777.239 536.741 773.683 535.945 770.117 535.148C768.261 534.733 766.402 534.317 764.536 533.917C762.971 533.574 761.872 534.637 761.556 535.776C761.397 536.35 761.416 536.992 761.693 537.549C761.977 538.121 762.512 538.553 763.273 538.716C765.107 539.11 766.943 539.52 768.781 539.93C772.468 540.754 776.164 541.58 779.873 542.28M779.873 542.28C779.873 542.28 779.873 542.28 779.873 542.28L779.973 541.755L779.872 542.28C779.872 542.28 779.872 542.28 779.873 542.28ZM795.179 544.712L793.73 544.504C794.416 545.584 795.117 546.655 795.833 547.717C797.918 550.636 800.308 553.344 802.963 555.765L802.97 555.772L802.977 555.779C804.279 557.06 805.737 558.164 807.318 559.06C807.827 559.328 808.474 559.552 809.085 559.589C809.673 559.624 810.17 559.486 810.521 559.115C810.861 558.52 811.073 557.853 811.139 557.168C811.207 556.459 811.129 555.745 810.899 555.085L810.891 555.063L810.886 555.041C810.49 553.487 809.728 552.056 808.673 550.869L808.671 550.867C806.504 548.409 803.716 546.594 800.597 545.617C798.821 545.176 797.025 544.872 795.209 544.715L795.194 544.714L795.179 544.712Z" fill="#9E6534" stroke="#9E6534" stroke-width="1.06945"/>
</svg>
