<svg width="2000" height="2000" viewBox="0 0 2000 2000" fill="none" xmlns="http://www.w3.org/2000/svg">
<path d="M178.52 911.609L147.2 920.649C142.65 921.959 140.03 926.709 141.34 931.259L147.57 952.849C148.88 957.399 153.63 960.019 158.18 958.709L162.99 957.319L165.96 967.089C166.53 968.979 169.06 969.339 170.14 967.689L180.2 952.349L189.51 949.659C194.06 948.349 196.68 943.599 195.37 939.049L189.14 917.459C187.83 912.909 183.08 910.289 178.53 911.599L178.52 911.609Z" fill="#ED6568"/>
<path d="M177.72 925.929C171.56 919.259 167.03 928.439 166.92 928.669C166.71 928.529 158.11 922.959 156.24 931.839C154.38 940.629 170.48 944.169 171.22 944.329V944.349C171.22 944.349 171.23 944.349 171.24 944.339H171.26V944.319C171.81 943.809 183.83 932.529 177.73 925.919L177.72 925.929Z" fill="#FDFCFD"/>
<path d="M447.65 1305.86C441.52 1297.28 432.54 1290.58 421.42 1287.34C399.18 1280.87 374.97 1291.29 364.41 1311.9C350.27 1339.53 364.77 1372.86 394.52 1381.41C416.31 1387.67 440.03 1377.7 450.83 1357.77C455.71 1348.77 457.42 1339.14 456.55 1329.92C456.2 1326.18 457.58 1322.45 460.4 1319.96C460.52 1319.85 460.64 1319.75 460.77 1319.64C468.22 1313.43 475.36 1306.96 475.28 1305.44C475.22 1304.38 465.68 1307.71 457.46 1309.48C453.76 1310.28 449.85 1308.94 447.65 1305.86Z" fill="#2F71E4"/>
<path d="M400.88 1337.25C400.88 1337.25 407.16 1328.82 404.89 1320.32C402.62 1311.82 398.03 1308.26 399 1306.47C399.97 1304.67 404.39 1303.81 408.21 1307.61C412.03 1311.41 413.19 1316.48 413.19 1316.48C413.19 1316.48 419.7 1305.69 421.52 1305.58C423.33 1305.47 426.68 1306.92 426.8 1309.13C426.88 1310.66 425.05 1312.93 425.05 1312.93C425.05 1312.93 429.65 1314.04 430.42 1316.25C431.19 1318.46 429.33 1320.45 429.33 1320.45C429.33 1320.45 433.14 1320.44 434.3 1323.06C435.45 1325.69 433.84 1326.69 433.84 1326.69C433.84 1326.69 438.86 1327.42 438.84 1330.95C438.82 1334.48 421.63 1351.04 421.63 1351.04L400.89 1337.25H400.88Z" fill="#F9F9F9"/>
<path d="M420.04 1357.28L422.66 1352.95C423.07 1352.27 422.88 1351.38 422.23 1350.93L400.26 1335.74C399.6 1335.28 398.69 1335.43 398.2 1336.07L395.3 1339.87C394.78 1340.55 394.93 1341.52 395.63 1342.02L417.88 1357.75C418.59 1358.26 419.59 1358.05 420.04 1357.3V1357.28Z" fill="#C8DAFB"/>
<path d="M384.56 1356.92L405.97 1373.21C406.84 1373.87 408.09 1373.68 408.75 1372.78L418.21 1359.79C418.87 1358.89 418.67 1357.62 417.78 1356.98L395.87 1341.35C395 1340.73 393.78 1340.93 393.14 1341.82L384.18 1354.15C383.54 1355.04 383.71 1356.27 384.57 1356.92H384.56Z" fill="#12327B"/>
<g opacity="0.84">
<path d="M914.87 573.051H249.33V1220.31H914.87V573.051Z" fill="#FCF2E6"/>
<path d="M879.71 617.22C881.406 617.22 882.78 615.846 882.78 614.15C882.78 612.455 881.406 611.08 879.71 611.08C878.015 611.08 876.64 612.455 876.64 614.15C876.64 615.846 878.015 617.22 879.71 617.22Z" fill="#F7D5B4"/>
<path d="M889.88 617.22C891.576 617.22 892.95 615.846 892.95 614.15C892.95 612.455 891.576 611.08 889.88 611.08C888.185 611.08 886.81 612.455 886.81 614.15C886.81 615.846 888.185 617.22 889.88 617.22Z" fill="#F7D5B4"/>
<path d="M897.13 674.609H265.69V1130.12H897.13V674.609Z" fill="#F9DFC5"/>
<path d="M442.31 674.25L415.03 738.02L403.44 1130.12L325.7 1131.48L335.25 1010.78L307.97 1131.48L277.97 1132.16C277.97 1132.16 307.97 982.82 325.7 946.68C343.43 910.54 355.02 674.59 355.02 674.59L442.3 674.24L442.31 674.25Z" fill="#F7D5B4"/>
<path d="M500.27 674.25L509.13 1132.85L616.88 1130.12L585.51 674.25H500.27Z" fill="#F7D5B4"/>
<path d="M689.84 674.939C689.84 674.939 689.84 1046.25 674.84 1132.85L762.81 1132.17L760.76 675.289L689.84 674.939Z" fill="#F7D5B4"/>
<path d="M790.08 1130.12C790.08 1130.12 825.54 1036.7 883.5 1091.93C883.5 1091.93 877.36 1120.57 877.36 1130.12H790.08Z" fill="#F7D5B4"/>
<path d="M883.5 1130.12C883.5 1130.12 892.36 1093.3 896.46 1103.53C900.55 1113.76 897.82 1132.17 897.82 1132.17L883.5 1130.12Z" fill="#4A5EED"/>
<path d="M898.5 1075.57C898.5 1075.57 867.81 1053.75 855.54 1051.7C843.27 1049.65 866.45 1020.33 898.5 1041.47V1075.57Z" fill="#F7D5B4"/>
<mask id="mask0_146_4309" style="mask-type:alpha" maskUnits="userSpaceOnUse" x="265" y="674" width="633" height="457">
<path d="M897.13 674.609H265.69V1130.12H897.13V674.609Z" fill="#F9DFC5"/>
</mask>
<g mask="url(#mask0_146_4309)">
<path d="M555.27 947.14L556.11 946.24C559.46 942.65 561.59 938.1 562.2 933.23L562.44 930.21C551.21 927.51 541.57 923.63 534.36 915.16C527.99 907.69 523.12 899.86 519.08 885.56C518.08 882.26 517.36 878.87 516.92 875.45C515.26 859.91 516.1 843.74 526.84 836C529.99 833.75 534.94 833.77 538.65 834.55L538.68 834.61C537.21 837.29 536.18 840.19 535.66 843.2C535.35 845.26 536.52 848.28 538.59 847.5C539.21 847.2 539.72 846.71 540.05 846.11C541.48 844.2 542.25 841.88 542.23 839.49C542.17 838.42 541.81 837.39 541.18 836.53C540.55 835.66 539.68 835 538.68 834.62C540.62 830.95 543.17 827.63 546.21 824.8C552.29 819.26 557.63 814.14 565.31 809.73C568.17 808.08 570.99 806.39 574 805C581.5 801.54 589.67 800.6 596.41 803.28C598.61 804.04 600.51 805.48 601.84 807.38C603.17 809.28 603.88 811.56 603.84 813.88C599.82 816.45 596.05 819.41 592.61 822.71C591.25 823.77 590.25 825.21 589.75 826.86C589.42 828.5 590.54 830.42 592.28 830.42C593.24 830.31 594.15 829.89 594.85 829.22C599.33 825.7 602.97 820.86 603.71 815.43C603.78 814.92 603.81 814.41 603.81 813.89C608.38 810.93 613.43 808.8 618.74 807.61C628.75 805.55 635.35 805.8 641.44 813.42C643.66 815.97 644.86 819.26 644.81 822.64C644.87 825.76 643.96 828.82 642.2 831.39C635.55 841.45 631.66 843.7 620.86 850.58C624.98 860.18 626.43 871.54 627.09 882.03C627.42 888.78 626.37 895.53 624 901.85C621.63 908.18 617.98 913.95 613.29 918.82L622.97 944.31C623.33 945.26 624.2 945.9 625.22 945.97C633.99 946.54 649.5 948.99 669.3 954.43C685.32 958.83 700.81 964.98 715.64 972.47C742.53 986.05 810.42 1011.16 882.83 966.24C953.3 922.52 959.2 966.92 959.2 966.92C959.2 966.92 916.74 1087.06 696.24 1074.2C693.46 1074.04 691.12 1076.28 691.02 1079.06L686.43 1230.14L518 1230.82H442.99C439.58 1187.18 437.89 1161.03 434.13 1133.99C426.07 1076.13 417.6 1017.5 451.86 984.65C472.31 965.04 516.72 952.01 552.02 947.45C554.1 947.18 555.25 947.15 555.25 947.15" fill="#E7AB44"/>
<path d="M544.74 869.84C546.59 866.83 549.05 864.24 551.94 862.22C554.84 860.2 558.12 858.8 561.58 858.11C562.01 857.99 562.37 857.7 562.59 857.32C562.81 856.93 562.87 856.48 562.76 856.05C562.63 855.62 562.35 855.26 561.96 855.04C561.57 854.82 561.11 854.76 560.68 854.87C556.8 855.68 553.12 857.27 549.88 859.55C546.64 861.83 543.89 864.75 541.82 868.13C540.7 869.98 543.59 871.68 544.73 869.84H544.74Z" fill="#9D6434"/>
<path d="M591.711 847.94C594.101 847.43 596.571 847.46 598.951 848C601.331 848.55 603.561 849.61 605.481 851.11C605.801 851.41 606.231 851.58 606.671 851.58C607.111 851.58 607.541 851.41 607.861 851.11C608.181 850.79 608.351 850.37 608.351 849.92C608.351 849.47 608.171 849.05 607.861 848.73C605.501 846.83 602.741 845.48 599.791 844.78C596.841 844.08 593.771 844.04 590.811 844.67C590.381 844.8 590.021 845.08 589.801 845.47C589.581 845.86 589.521 846.32 589.631 846.75C589.761 847.18 590.041 847.54 590.431 847.76C590.821 847.98 591.281 848.04 591.711 847.93V847.94Z" fill="#9D6434"/>
<path d="M556.86 877.81C557.05 878.02 556.86 878.34 557.03 877.89C557.12 877.66 557.24 877.44 557.38 877.24C557.76 876.68 558.19 876.16 558.66 875.68C559.57 874.69 560.7 873.92 561.95 873.43C562.48 873.22 563.05 873.1 563.62 873.07C564.2 873.03 564.78 873.1 565.34 873.26C565.87 873.38 566.37 873.61 566.81 873.93C567.25 874.25 567.63 874.65 567.91 875.12C568.14 875.49 568.51 875.75 568.93 875.86C569.35 875.96 569.8 875.9 570.18 875.68C570.56 875.46 570.83 875.1 570.95 874.68C571.07 874.26 571.02 873.81 570.81 873.43C568.72 869.89 564.07 868.94 560.44 870.42C558.53 871.24 556.85 872.5 555.54 874.12C554.14 875.8 552.62 878.23 554.42 880.22C555.89 881.8 558.27 879.42 556.8 877.83H556.84L556.86 877.81Z" fill="#9D6434"/>
<path d="M593.661 869.429C594.411 868.419 595.411 867.619 596.561 867.109C597.711 866.599 598.981 866.409 600.231 866.539C601.441 866.709 602.581 867.179 603.561 867.899C604.541 868.619 605.331 869.569 605.851 870.669C606.081 871.039 606.441 871.309 606.851 871.419C607.271 871.529 607.711 871.479 608.091 871.279C608.451 871.049 608.72 870.689 608.83 870.269C608.94 869.849 608.901 869.409 608.701 869.029C607.881 867.419 606.67 866.039 605.181 865.029C603.691 864.009 601.961 863.389 600.161 863.229C598.331 863.089 596.49 863.439 594.83 864.219C593.17 865.009 591.741 866.209 590.681 867.719C590.461 868.109 590.401 868.559 590.511 868.999C590.621 869.429 590.901 869.799 591.291 870.029C591.671 870.229 592.111 870.279 592.531 870.169C592.951 870.059 593.311 869.799 593.541 869.439H593.661V869.429Z" fill="#9D6434"/>
<path d="M524.09 838.35C524.09 838.35 516.89 863.19 527.09 889.74C533.98 907.65 548.14 916.7 566.86 920.92C571.4 922.01 576.09 922.34 580.74 921.91C599.42 919.89 555.24 947.14 555.24 947.14C555.24 947.14 561.63 942.13 562.41 930.21C554.74 928.98 547.48 925.94 541.21 921.36C534.94 916.78 529.85 910.77 526.35 903.84C514.26 879.97 512.42 853.63 524.09 838.35Z" fill="#CC8F3F"/>
<path d="M599.19 807.121C601.42 810.141 602.43 813.881 602.03 817.611C601.82 820.531 600.63 823.301 598.66 825.471C597.68 826.681 596.35 827.551 594.85 827.961C593.5 828.301 590.58 828.561 590.55 826.491C590.52 824.421 592.74 822.731 594.28 821.691C596.2 820.461 598.17 819.341 600.21 818.321C605.01 815.771 609.92 813.441 614.67 810.831C616.25 809.951 614.84 807.531 613.25 808.401C608.12 811.231 602.79 813.721 597.62 816.511C593.82 818.571 586.94 821.861 587.8 827.231C588.6 832.221 595.51 831.531 598.6 829.321C601.62 827.091 603.73 823.841 604.51 820.171C605.09 817.701 605.13 815.131 604.64 812.641C604.15 810.151 603.13 807.801 601.65 805.731C600.53 804.311 598.12 805.731 599.22 807.151L599.18 807.121H599.19Z" fill="#9D6434"/>
<path d="M490.37 967.98C490.37 967.98 492.73 911.25 509.68 914.7C526.63 918.15 523.47 923.27 522.22 926.55C520.97 929.83 501.28 971.32 504.56 972.57C507.84 973.82 527.11 926.84 531.69 928C536.28 929.17 552.35 933.79 548.27 941.97C544.19 950.15 522.34 978.6 521.35 982.87C520.36 987.14 490.36 967.97 490.36 967.97L490.37 967.98Z" fill="#DD9D40"/>
<path d="M540.55 828.99C539.56 830.88 538.6 832.8 537.66 834.73C536.24 837.27 535.11 839.96 534.29 842.75C533.77 845 533.78 847.77 535.64 849.49C537.49 851.21 540.13 850.61 541.69 848.82C543.32 846.95 544.33 844.63 544.57 842.16C544.76 841.26 544.72 840.33 544.46 839.45C544.2 838.57 543.73 837.76 543.09 837.11C539.32 833.61 532.98 833.49 528.22 834.58C526.46 834.98 527.2 837.69 528.96 837.29C532.61 836.45 537.01 836.49 540.31 838.5C540.79 838.7 541.19 839.04 541.46 839.47C541.73 839.91 541.86 840.42 541.83 840.93C541.86 842.84 541.28 844.71 540.17 846.27C539.78 846.82 539.11 847.75 538.36 847.79C537.61 847.82 537.06 846.92 536.91 846.27C536.7 844.92 536.87 843.55 537.4 842.29C538.3 839.94 539.32 837.65 540.47 835.42C541.29 833.75 542.12 832.05 542.99 830.44C543.85 828.83 541.41 827.42 540.56 829.02V828.99H540.55Z" fill="#9D6434"/>
<path d="M642.48 814.801C642.48 814.801 643.6 830.381 633.27 838.851C621.77 848.301 618.15 849.931 618.15 849.931C623.39 860.211 626.45 871.471 627.14 882.991C627.05 871.881 624.92 860.881 620.86 850.541C620.86 850.541 631.4 844.261 634.7 840.691C638 837.121 650.29 826.391 642.48 814.811V814.801Z" fill="#CC8F3F"/>
<path d="M587.8 895.741L598.29 892.921L596.22 891.741C597.65 896.841 593.97 901.521 589.19 902.971C586.75 903.691 583.79 903.861 581.56 902.461C580.44 901.681 579.47 900.701 578.7 899.581L577.35 897.821C576.78 897.241 576.29 896.601 575.88 895.901V896.791C575.72 897.851 574.76 897.361 575.24 897.441C575.38 897.461 575.52 897.461 575.66 897.441L576.99 897.341C578.21 897.241 579.44 897.141 580.65 897.011C583.07 896.881 585.47 896.481 587.81 895.811C589.84 895.101 588.93 891.841 586.91 892.561C584.19 893.321 581.39 893.751 578.57 893.831C577.45 893.931 576.32 894.001 575.2 894.111C574.47 894.091 573.76 894.351 573.2 894.831C572.84 895.221 572.63 895.731 572.6 896.261C572.58 896.791 572.74 897.321 573.07 897.741C573.72 898.751 574.55 899.681 575.32 900.641C576.08 901.591 576.79 902.591 577.57 903.491C579.07 905.151 581.07 906.271 583.27 906.671C585.4 907.021 587.58 906.921 589.67 906.361C591.76 905.811 593.7 904.821 595.38 903.461C597.19 901.981 598.54 900.011 599.27 897.791C599.99 895.571 600.07 893.181 599.47 890.921C599.34 890.501 599.05 890.151 598.66 889.951C598.27 889.741 597.82 889.691 597.4 889.801L586.9 892.621C586.48 892.751 586.13 893.041 585.92 893.421C585.71 893.801 585.66 894.261 585.77 894.681C585.89 895.101 586.16 895.461 586.54 895.681C586.92 895.901 587.37 895.971 587.79 895.861V895.741H587.8Z" fill="#9D6434"/>
<path d="M399.57 1139C373.78 1119.68 371.62 1081.64 394.21 1058.57C417.37 1034.92 448.33 1002.99 453.4 996.201C461.66 985.141 456.49 956.851 469.02 948.241C476.85 942.861 501.9 949.351 515.47 958.471C523.61 963.941 523.84 972.011 524.34 974.431C525.67 980.891 521.82 1004.58 505.89 1012.49C492.52 1019.14 463.1 1071.97 448.96 1090.16C444.53 1095.85 442.77 1103.3 444.66 1110.25C446.86 1118.33 475.76 1128.05 495.82 1126.59C534.03 1123.82 449.4 1156.01 414.61 1146.48C409.02 1144.95 404.03 1142.32 399.58 1138.99L399.57 1139Z" fill="#E7AB44"/>
<path d="M506.03 990.639C506.78 988.729 506.89 986.629 506.37 984.649C504.11 975.989 495.6 955.579 482.58 963.369C467.17 972.589 471.99 976.639 478.41 980.119C484.82 983.599 495.08 1007.14 495.65 1006.67C502.58 1001.07 504.36 994.909 506.03 990.639Z" fill="#DD9D40"/>
<path d="M689.99 1053.8C689.99 1070.35 689.99 1086.91 689.99 1103.46C689.99 1105.39 692.99 1105.39 692.99 1103.46C692.99 1086.91 692.99 1070.35 692.99 1053.8C692.99 1051.87 689.99 1051.87 689.99 1053.8Z" fill="#9D6434"/>
<path d="M422.22 1031.05C427.77 1026.09 433.12 1020.91 438.25 1015.51C440.81 1012.81 443.32 1010.06 445.77 1007.26C448.22 1004.46 450.56 1001.86 452.55 998.86C456.68 992.66 456.99 985.48 458.03 978.33C458.58 974.54 459.29 970.78 460.15 967.05C460.94 963.65 461.7 960.09 463.18 956.9C464.55 953.94 466.61 951.59 469.52 950.11C472.28 948.7 475.44 948.18 478.51 948.21C482.39 948.26 486.19 949.17 489.921 950.18C493.651 951.19 497.45 952.28 501.21 953.34C507.72 955.17 514.22 957.29 518.73 962.62C522.58 967.16 524.111 973.4 521.891 979.04C520.631 982.24 518.31 984.56 515.25 986.07C511.98 987.69 508.7 988.87 505.78 991.14C500.5 995.24 496.79 1001.26 495.6 1007.85C495.26 1009.74 498.15 1010.55 498.49 1008.65C499.58 1002.57 502.931 997 507.891 993.28C510.611 991.24 513.741 990.17 516.76 988.67C519.59 987.27 521.95 985.19 523.55 982.45C526.7 977.05 526.58 970.41 523.8 964.91C520.73 958.84 515.05 954.9 508.81 952.59C505.21 951.25 501.46 950.31 497.76 949.28C493.86 948.19 489.98 946.99 486.01 946.16C479.37 944.76 471.82 944.6 466.04 948.71C460.26 952.82 458.52 960.5 457.02 967.2C456.15 971.09 455.45 975.02 454.92 978.96C454.42 982.66 454.13 986.41 453.2 990.04C452.13 994.21 449.93 997.67 447.21 1000.95C444.49 1004.23 441.58 1007.5 438.65 1010.66C432.75 1017.03 426.55 1023.12 420.08 1028.91C418.64 1030.2 420.77 1032.32 422.2 1031.03L422.22 1031.05Z" fill="#9D6434"/>
<path d="M507.37 991.28C508.29 983.86 506.03 976.26 501.41 970.41C497.1 964.97 490.08 960.98 482.97 961.95C479.17 962.47 476.05 964.57 473.63 967.48C471.21 970.39 468.43 973.92 470.12 977.71C471.81 981.5 475.81 982.28 479.19 983.64C482.13 984.82 484.081 987.03 485.511 989.79C488.601 995.75 489.45 1002.98 494.59 1007.74C496 1009.05 498.13 1006.93 496.71 1005.62C492.71 1001.92 491.5 996.32 489.53 991.45C488.54 989.01 487.39 986.63 485.66 984.62C483.52 982.12 480.701 981 477.671 979.91C474.641 978.82 471.27 976.67 473.31 973.04C474.96 970.1 477.52 966.96 480.69 965.63C486.59 963.15 493.501 966.34 497.641 970.64C502.891 976.09 505.3 983.82 504.37 991.28C504.13 993.19 507.14 993.17 507.37 991.28Z" fill="#9D6434"/>
<path d="M492.541 1014.12C488.531 1031.56 479.461 1047.12 470.831 1062.6C466.321 1070.69 461.861 1078.84 458.221 1087.36C456.411 1091.6 454.791 1095.93 453.391 1100.31C452.691 1102.5 452.071 1104.73 451.681 1107C451.381 1108.75 451.111 1110.58 451.571 1112.33C452.461 1115.71 455.831 1116.79 458.921 1115.64C463.261 1114.02 465.781 1110.25 468.021 1106.42C469.001 1104.75 466.401 1103.24 465.431 1104.91C463.621 1108 461.641 1111.38 458.131 1112.75C457.251 1113.1 455.971 1113.43 455.151 1112.75C454.331 1112.07 454.301 1110.8 454.341 1109.86C454.511 1105.77 456.061 1101.64 457.411 1097.82C458.861 1093.69 460.441 1089.62 462.251 1085.64C469.231 1070.31 478.491 1056.16 485.841 1041.01C489.901 1032.65 493.361 1023.97 495.441 1014.9C495.871 1013.02 492.981 1012.22 492.551 1014.1L492.541 1014.12Z" fill="#9D6434"/>
<path d="M468.511 947.96C462.981 955.35 459.691 964.31 459.041 973.51C458.771 977.36 458.341 982.64 462.161 984.95C463.751 985.91 465.621 986.08 467.411 986.35C469.381 986.65 470.741 987.18 472.291 988.43C473.961 989.78 475.961 990.81 478.081 989.75C479.991 988.8 481.021 986.58 481.321 984.56C481.601 982.67 478.711 981.86 478.431 983.76C478.261 984.89 477.771 986.99 476.351 987.19C474.931 987.39 473.561 985.5 472.521 984.84C471.221 984.01 469.701 983.68 468.201 983.45C466.701 983.22 465.111 983.16 463.801 982.43C462.311 981.6 462.021 979.9 461.951 978.33C461.861 976.37 461.941 974.39 462.121 972.44C462.491 968.55 463.401 964.7 464.751 961.03C466.281 956.88 468.451 953 471.091 949.46C472.251 947.91 469.641 946.42 468.501 947.95L468.511 947.96Z" fill="#9D6434"/>
<path d="M484.46 962.36C486.14 958.47 487.81 954.59 489.49 950.7C489.81 949.96 489.71 949.09 488.95 948.65C488.32 948.28 487.22 948.44 486.9 949.19C485.22 953.08 483.55 956.96 481.87 960.85C481.55 961.59 481.65 962.46 482.41 962.9C483.04 963.27 484.14 963.11 484.46 962.36Z" fill="#9D6434"/>
<path d="M499.63 968.181C501.23 962.751 504.05 957.731 507.88 953.561C509.18 952.141 507.07 950.011 505.76 951.441C501.58 956.001 498.49 961.451 496.74 967.391C496.19 969.251 499.09 970.041 499.63 968.191V968.181Z" fill="#9D6434"/>
<path d="M488.99 1072.85C487.51 1091.14 487.44 1109.53 488.78 1127.84C488.92 1129.75 491.92 1129.77 491.78 1127.84C490.43 1109.54 490.5 1091.15 491.99 1072.85C492.15 1070.93 489.15 1070.94 488.99 1072.85Z" fill="#9D6434"/>
</g>
<path d="M300.39 1171.6C295.4 1161.97 287.25 1171.11 287.05 1171.34C286.85 1171.11 278.7 1161.98 273.71 1171.6C268.77 1181.13 286.23 1190.3 287.03 1190.71V1190.73C287.03 1190.73 287.04 1190.73 287.05 1190.72L287.07 1190.73V1190.71C287.87 1190.3 305.33 1181.12 300.39 1171.6Z" fill="#ED6568"/>
<path d="M386.85 1184.67C388.13 1182.83 388.89 1180.6 388.89 1178.19C388.89 1171.91 383.8 1166.81 377.51 1166.81C371.22 1166.81 366.13 1171.9 366.13 1178.19C366.13 1184.48 371.22 1189.57 377.51 1189.57C379.26 1189.57 380.89 1189.14 382.37 1188.44L388.17 1191.12L386.85 1184.67V1184.67Z" stroke="#F7D5B4" stroke-width="2" stroke-miterlimit="10"/>
<path d="M414.45 1167.14L444.96 1167.13L427.27 1190.79L426 1175.8L414.45 1167.14Z" stroke="#F7D5B4" stroke-width="2" stroke-miterlimit="10"/>
<path d="M316.998 1169.8H319.236V1185.46H316.662V1172.55L313.507 1173.45L312.881 1171.25L316.998 1169.8ZM328.389 1176.2C329.522 1176.47 330.44 1177 331.141 1177.79C331.857 1178.56 332.215 1179.54 332.215 1180.72C332.215 1182.29 331.685 1183.52 330.626 1184.41C329.567 1185.31 328.269 1185.75 326.733 1185.75C325.539 1185.75 324.465 1185.48 323.511 1184.93C322.571 1184.37 321.892 1183.57 321.475 1182.51L323.667 1181.23C324.13 1182.58 325.152 1183.25 326.733 1183.25C327.628 1183.25 328.336 1183.02 328.858 1182.58C329.381 1182.11 329.642 1181.5 329.642 1180.72C329.642 1179.94 329.381 1179.33 328.858 1178.88C328.336 1178.44 327.628 1178.21 326.733 1178.21H326.151L325.122 1176.67L328.5 1172.22H321.945V1169.8H331.566V1171.99L328.389 1176.2ZM344.298 1185.46H341.412L336.825 1180.29V1185.46H334.408V1169.8H336.825V1179.22L341.166 1174.28H344.119L339.197 1179.76L344.298 1185.46Z" fill="#F7D5B4"/>
<path d="M296.56 653.062C309.666 653.062 320.29 642.437 320.29 629.332C320.29 616.226 309.666 605.602 296.56 605.602C283.454 605.602 272.83 616.226 272.83 629.332C272.83 642.437 283.454 653.062 296.56 653.062Z" fill="#F9DFC5"/>
<path d="M296.94 630.381C300.558 630.381 303.49 627.449 303.49 623.831C303.49 620.214 300.558 617.281 296.94 617.281C293.323 617.281 290.39 620.214 290.39 623.831C290.39 627.449 293.323 630.381 296.94 630.381Z" fill="#F7D5B4"/>
<path d="M296.94 631.041C290.88 631.041 285.96 635.961 285.96 642.021H307.92C307.92 635.961 303 631.041 296.94 631.041Z" fill="#F7D5B4"/>
<path opacity="0.64" d="M334.69 619.111H478.55" stroke="#F9DFC5" stroke-width="6" stroke-linecap="round" stroke-linejoin="round"/>
<path opacity="0.64" d="M334.69 639.551H451.52" stroke="#F9DFC5" stroke-width="6" stroke-linecap="round" stroke-linejoin="round"/>
</g>
<path d="M1857.98 343.932C1857.64 340.332 1857.15 336.682 1855.63 333.402C1854.11 330.122 1851.39 327.232 1847.9 326.312C1844.4 325.392 1840.19 326.932 1838.76 330.242L1835.59 330.992C1832.89 334.832 1831.75 339.532 1831.66 344.262L1323.71 375.952C1323.81 375.022 1325.87 380.522 1325.94 379.592L1325.78 375.962C1324.7 370.522 1324.02 362.772 1319.63 359.382C1315.24 355.992 1308.33 355.482 1304.41 359.392C1301.71 362.082 1300.94 366.122 1300.57 369.912C1299.98 375.922 1300.04 381.992 1300.76 387.982C1301.32 392.682 1302.37 397.512 1305.27 401.252C1306.81 403.242 1309.12 404.942 1311.63 404.712C1315.09 404.402 1317.15 400.782 1318.41 397.552C1319.45 394.882 1320.34 392.162 1321.11 389.402L1833.74 357.422C1834.58 360.252 1835.58 363.052 1836.57 365.822C1837.6 368.692 1838.67 371.632 1840.61 373.982C1842.55 376.332 1845.57 378.042 1848.58 377.582C1852.87 376.932 1855.4 372.422 1856.61 368.252C1858.88 360.402 1858.76 352.052 1857.99 343.912L1857.98 343.932Z" fill="#EFBC96"/>
<path d="M1855.87 338.881C1855.53 335.281 1855.04 331.631 1853.52 328.351C1852 325.071 1849.28 322.181 1845.79 321.261C1842.29 320.341 1838.08 321.881 1836.65 325.191L1833.48 325.941C1830.78 329.781 1829.64 334.481 1829.55 339.211L1321.6 370.901C1321.7 369.971 1323.76 375.471 1323.83 374.541L1323.67 370.911C1322.59 365.471 1321.91 357.721 1317.52 354.331C1313.13 350.941 1306.22 350.431 1302.3 354.341C1299.6 357.031 1298.83 361.071 1298.46 364.861C1297.87 370.871 1297.93 376.941 1298.65 382.931C1299.21 387.631 1300.26 392.461 1303.16 396.201C1304.7 398.191 1307.01 399.891 1309.52 399.661C1312.98 399.351 1315.04 395.731 1316.3 392.501C1317.34 389.831 1318.23 387.111 1319 384.351L1831.63 352.371C1832.47 355.201 1833.47 358.001 1834.46 360.771C1835.49 363.641 1836.56 366.581 1838.5 368.931C1840.44 371.281 1843.46 372.991 1846.47 372.531C1850.76 371.881 1853.29 367.371 1854.5 363.201C1856.77 355.351 1856.65 347.001 1855.88 338.861L1855.87 338.881Z" fill="#F7D5B4"/>
<path d="M1335.98 388.27L1791.43 359.59L1791.59 1248.62L1336.13 1204.12L1335.98 388.27Z" fill="#F9DFC5"/>
<path opacity="0.86" d="M1546.66 374.77L1551.86 1222.59" stroke="#EFBC96" stroke-width="4" stroke-miterlimit="10"/>
<path d="M1422.98 978.73L1792.23 1000.12" stroke="#EFBC96" stroke-width="4" stroke-miterlimit="10"/>
<path d="M1335.09 974.119L1422.98 978.209" stroke="#6559B9" stroke-width="4" stroke-miterlimit="10"/>
<path d="M1337.56 741.289L1528.15 741.949" stroke="#EFBC96" stroke-width="4" stroke-miterlimit="10"/>
<path d="M1408.9 1345.92C1408.9 1345.92 1302.94 1423.32 1270.13 1429.21C1270.13 1429.21 1295.36 1419.11 1297.03 1350.98C1298.7 1282.85 1317.03 1257.15 1336.54 1251.72C1351.68 1247.51 1376.91 1241.62 1408.89 1345.91L1408.9 1345.92Z" fill="#F9DFC5"/>
<path d="M1464.7 1442.1C1464.7 1442.1 1479.58 1459.46 1550.22 1379.54C1620.86 1299.62 1618.33 1286.17 1618.33 1286.17C1618.33 1286.17 1596.15 1261.55 1565.6 1264.2C1535.06 1266.84 1518.24 1312.27 1500.59 1377.87C1482.94 1443.48 1464.7 1442.1 1464.7 1442.1Z" fill="#F9DFC5"/>
<path d="M1789.73 741.9L1530.03 741.95" stroke="#EFBC96" stroke-width="4" stroke-miterlimit="10"/>
<path d="M1025.91 764.05C1022.75 757.04 1017.28 750.97 1009.79 747.06C994.81 739.26 976 743.26 965.52 756.51C951.47 774.26 957.09 800.17 977.15 810.52C991.84 818.1 1010.23 814.35 1020.8 801.63C1025.57 795.89 1028.17 789.24 1028.86 782.52C1029.14 779.79 1030.66 777.33 1033.03 775.95C1033.13 775.89 1033.23 775.83 1033.34 775.78C1039.55 772.4 1045.58 768.79 1045.74 767.69C1045.85 766.92 1038.55 767.94 1032.41 768.04C1029.65 768.08 1027.04 766.57 1025.91 764.05Z" fill="#2F71E4"/>
<path d="M987.99 779.839C987.99 779.839 993.68 774.699 993.27 768.299C992.86 761.899 990.08 758.699 991.03 757.549C991.98 756.399 995.26 756.409 997.46 759.679C999.65 762.939 999.75 766.739 999.75 766.739C999.75 766.739 1005.95 759.949 1007.26 760.129C1008.57 760.309 1010.76 761.819 1010.53 763.419C1010.37 764.529 1008.73 765.889 1008.73 765.889C1008.73 765.889 1011.86 767.339 1012.1 769.029C1012.34 770.719 1010.72 771.879 1010.72 771.879C1010.72 771.879 1013.45 772.419 1013.9 774.459C1014.35 776.499 1013.05 776.989 1013.05 776.989C1013.05 776.989 1016.54 778.229 1016.02 780.749C1015.5 783.269 1000.85 792.669 1000.85 792.669L987.98 779.849L987.99 779.839Z" fill="#F9F9F9"/>
<path d="M998.84 796.889L1001.33 794.159C1001.72 793.729 1001.71 793.069 1001.31 792.649L987.76 778.649C987.35 778.229 986.68 778.199 986.24 778.589L983.63 780.889C983.16 781.299 983.13 782.019 983.56 782.469L997.23 796.889C997.67 797.349 998.41 797.349 998.84 796.879V796.889Z" fill="#C8DAFB"/>
<path d="M973.51 791.578L986.51 806.278C987.04 806.878 987.96 806.918 988.56 806.368L997.18 798.428C997.78 797.878 997.82 796.938 997.27 796.358L983.82 782.058C983.28 781.488 982.38 781.458 981.8 781.998L973.63 789.538C973.04 790.078 972.99 790.988 973.51 791.578Z" fill="#12327B"/>
<path opacity="0.65" d="M1581.88 371.829C1581.88 371.829 1614.89 933.709 1183.46 1223.96C1183.46 1223.96 1242.6 1189.81 1242.62 1309.67C1242.64 1429.53 1252.74 1449.71 1280.49 1418.16C1308.24 1386.61 1282.98 1246.58 1346.07 1250.35C1409.15 1254.12 1421.8 1452.2 1464.7 1442.1C1507.59 1432 1503.78 1266.73 1565.6 1264.19C1627.42 1261.66 1666.54 1327.25 1628.72 1460.99C1628.72 1460.99 1612.33 1536.69 1686.75 1440.79C1761.17 1344.89 1857.64 1101.79 1829.73 354.119L1581.89 371.819L1581.88 371.829Z" fill="#FCF2E6"/>
<path d="M292.71 741.089C298.2 732.679 301.05 722.389 300.08 711.389C298.13 689.409 280.51 671.519 258.55 669.279C229.13 666.279 204.55 690.689 207.26 720.059C209.24 741.569 226.29 759.179 247.73 761.869C257.41 763.089 266.55 761.269 274.44 757.319C277.64 755.709 281.43 755.649 284.61 757.299C284.75 757.369 284.88 757.439 285.02 757.519C293.11 761.989 301.32 766.089 302.65 765.489C303.57 765.069 297.32 757.749 292.89 751.059C290.9 748.049 290.74 744.119 292.71 741.099V741.089Z" fill="#2F71E4"/>
<path d="M248.66 710.429C248.66 710.429 258.32 713.079 265.08 708.129C271.84 703.179 273.41 697.869 275.34 698.109C277.27 698.349 279.57 701.969 277.51 706.679C275.45 711.389 271.35 714.169 271.35 714.169C271.35 714.169 283.18 716.219 283.91 717.789C284.64 719.359 284.51 722.829 282.58 723.709C281.25 724.309 278.6 723.469 278.6 723.469C278.6 723.469 279.2 727.939 277.51 729.389C275.82 730.839 273.41 729.869 273.41 729.869C273.41 729.869 274.74 733.249 272.81 735.179C270.88 737.109 269.43 736.029 269.43 736.029C269.43 736.029 270.52 740.739 267.38 741.949C264.24 743.159 243.59 733.619 243.59 733.619L248.66 710.439V710.429Z" fill="#F9F9F9"/>
<path d="M237.51 734.359L242.26 735.189C243.01 735.319 243.73 734.849 243.91 734.109L249.8 709.349C249.98 708.599 249.54 707.849 248.8 707.639L244.43 706.379C243.65 706.149 242.83 706.619 242.64 707.409L236.37 732.599C236.17 733.409 236.7 734.219 237.52 734.359H237.51Z" fill="#C8DAFB"/>
<path d="M225.56 702.739L218.51 727.379C218.22 728.379 218.83 729.429 219.85 729.699L234.65 733.599C235.68 733.869 236.74 733.259 237 732.239L243.29 707.379C243.54 706.389 242.94 705.379 241.93 705.119L227.89 701.429C226.88 701.169 225.84 701.749 225.56 702.729V702.739Z" fill="#12327B"/>
<path d="M752.72 1179.76L699.47 1157.34C691.74 1154.08 682.83 1157.71 679.57 1165.45L664.12 1202.15C660.86 1209.88 664.5 1218.79 672.23 1222.05L680.4 1225.49L673.61 1242.27C672.3 1245.52 675.37 1248.82 678.7 1247.75L709.64 1237.8L725.47 1244.46C733.2 1247.72 742.11 1244.09 745.37 1236.35L760.82 1199.65C764.08 1191.92 760.45 1183.01 752.71 1179.75L752.72 1179.76Z" fill="#ED6568"/>
<path d="M735.68 1198.61C734.62 1182.55 718.14 1190.17 717.73 1190.37C717.59 1189.94 711.95 1172.69 699.47 1182.85C687.12 1192.9 705.37 1215.71 706.21 1216.75V1216.78C706.21 1216.78 706.22 1216.78 706.23 1216.78L706.25 1216.81V1216.78C707.59 1216.69 736.72 1214.52 735.67 1198.63L735.68 1198.61Z" fill="#FDFCFD"/>
<path d="M521.27 465.6L552.8 449.22C557.38 446.84 563.02 448.62 565.4 453.2L576.69 474.93C579.07 479.51 577.29 485.15 572.71 487.53L567.87 490.04L572.86 499.99C573.83 501.92 572.11 504.09 570.01 503.6L550.55 499.03L541.18 503.9C536.6 506.28 530.96 504.5 528.58 499.92L517.29 478.19C514.91 473.61 516.69 467.97 521.27 465.59V465.6Z" fill="#ED6568"/>
<path d="M532.66 476.309C532.51 466.409 542.99 470.269 543.25 470.369C543.31 470.099 545.92 459.239 554.07 464.849C562.14 470.399 552.08 485.289 551.62 485.969V485.989C551.62 485.989 551.62 485.989 551.61 485.989L551.6 486.009V485.989C550.77 485.999 532.8 486.109 532.66 476.319V476.309Z" fill="#FDFCFD"/>
<path d="M1526.4 1628.74H777.57C776.44 1628.74 775.35 1628.29 774.55 1627.49C773.75 1626.69 773.3 1625.6 773.3 1624.48C773.3 1623.36 773.75 1622.26 774.55 1621.46C775.35 1620.66 776.44 1620.21 777.57 1620.21H1526.4C1527.53 1620.21 1528.62 1620.66 1529.42 1621.46C1530.22 1622.26 1530.67 1623.35 1530.67 1624.48C1530.67 1625.61 1530.22 1626.69 1529.42 1627.49C1528.62 1628.29 1527.53 1628.74 1526.4 1628.74Z" fill="#3841E6"/>
<path d="M1424.7 1679.85H974.3C973.62 1679.85 972.97 1679.4 972.48 1678.6C972 1677.8 971.73 1676.71 971.73 1675.59C971.73 1674.47 972 1673.37 972.48 1672.57C972.96 1671.77 973.61 1671.32 974.3 1671.32H1424.7C1425.38 1671.32 1426.03 1671.77 1426.52 1672.57C1427 1673.37 1427.27 1674.46 1427.27 1675.59C1427.27 1676.72 1427 1677.8 1426.52 1678.6C1426.04 1679.4 1425.39 1679.85 1424.7 1679.85Z" fill="#3841E6"/>
<path d="M1530.3 1679.85H1465.07C1464.97 1679.85 1464.88 1679.4 1464.81 1678.6C1464.74 1677.8 1464.7 1676.71 1464.7 1675.59C1464.7 1674.47 1464.74 1673.37 1464.81 1672.57C1464.88 1671.77 1464.97 1671.32 1465.07 1671.32H1530.3C1530.4 1671.32 1530.49 1671.77 1530.56 1672.57C1530.63 1673.37 1530.67 1674.46 1530.67 1675.59C1530.67 1676.72 1530.63 1677.8 1530.56 1678.6C1530.49 1679.4 1530.4 1679.85 1530.3 1679.85Z" fill="#3841E6"/>
<path d="M901.33 465.221C904.59 463.941 908.43 465.581 910.7 468.241C912.97 470.901 914.02 474.381 914.91 477.771C915.42 479.721 915.86 481.951 914.75 483.631C914.04 484.691 912.85 485.301 911.71 485.871C906.94 488.241 902.16 490.611 897.39 492.981C896.14 483.581 902.1 474.421 901.24 464.981" fill="#F1B965"/>
<path d="M901.73 466.671C904.66 465.611 907.7 467.041 909.64 469.311C911.9 471.951 912.91 475.651 913.66 478.971C914.01 480.501 914.26 482.281 912.93 483.421C911.52 484.631 909.46 485.321 907.81 486.131C904.08 487.981 900.35 489.831 896.62 491.681L898.88 492.981C897.71 483.401 903.51 474.571 902.73 464.981C902.58 463.071 899.57 463.051 899.73 464.981C900.5 474.561 894.7 483.371 895.88 492.981C896.02 494.131 897.04 494.821 898.14 494.281C902.76 491.981 907.39 489.691 912.01 487.391C913.77 486.511 915.55 485.581 916.4 483.691C917.25 481.801 916.92 479.701 916.45 477.771C915.48 473.841 914.17 469.611 911.26 466.651C908.63 463.981 904.57 462.461 900.92 463.781C899.12 464.431 899.89 467.331 901.72 466.671H901.73Z" fill="#9D6434"/>
<path d="M955.65 447.242C954.75 447.242 953.9 446.882 953.26 446.252C949.78 442.902 940.55 431.882 940.17 431.392C939.48 430.532 939.11 429.452 939.14 428.352C939.16 427.252 939.58 426.182 940.31 425.352C940.63 424.962 941.04 424.642 941.51 424.432C941.97 424.222 942.48 424.122 942.99 424.132C943.5 424.142 944 424.282 944.45 424.512C944.9 424.752 945.29 425.092 945.6 425.502C948.18 428.612 955.46 437.212 958.07 439.692C958.84 440.482 959.31 441.522 959.4 442.622C959.49 443.722 959.18 444.822 958.54 445.722C958.21 446.182 957.78 446.562 957.28 446.832C956.78 447.092 956.22 447.242 955.66 447.252L955.65 447.242Z" fill="#D08F42"/>
<path d="M974.6 405.742C974.37 405.762 974.13 405.762 973.9 405.742C968.6 404.592 963.18 404.072 957.76 404.202C956.7 404.152 955.7 403.682 954.98 402.892C954.26 402.102 953.89 401.062 953.94 400.002C953.87 398.942 954.21 397.892 954.9 397.082C955.59 396.272 956.57 395.762 957.63 395.652C963.57 395.512 969.5 396.072 975.31 397.322C976.35 397.632 977.23 398.322 977.78 399.252C978.33 400.182 978.51 401.292 978.28 402.342C978.16 403.252 977.73 404.082 977.06 404.702C976.39 405.322 975.52 405.692 974.61 405.732L974.6 405.742Z" fill="#D08F42"/>
<path d="M975.69 362.901C975.49 363.031 975.28 363.151 975.05 363.231C969.88 365.281 964.96 367.921 960.38 371.081C959.96 371.361 959.48 371.551 958.97 371.631C958.47 371.711 957.95 371.681 957.46 371.541C956.97 371.401 956.52 371.151 956.13 370.821C955.75 370.491 955.44 370.071 955.23 369.611C954.72 368.641 954.56 367.521 954.8 366.451C955.04 365.381 955.65 364.421 956.52 363.761C961.53 360.301 966.92 357.421 972.58 355.161C973.07 354.991 973.58 354.931 974.1 354.971C974.61 355.011 975.11 355.171 975.56 355.421C976.01 355.671 976.4 356.011 976.71 356.421C977.02 356.831 977.24 357.301 977.35 357.801C977.65 358.721 977.64 359.711 977.35 360.621C977.05 361.541 976.47 362.331 975.68 362.901H975.69Z" fill="#D08F42"/>
<path d="M912.1 369.85C898.02 366.82 848.07 361.77 832.08 363.27C828.6 363.6 827.26 366.62 826.39 370.33C821.67 390.86 817.77 411.75 813.68 432.51C813.68 432.51 788.56 536.63 797.64 538.22C802.23 539.02 804.24 538.87 807.84 539.68C809.51 539.88 810.54 539.78 810.55 540.08L816.48 540.58C823.18 541.12 833.61 541.94 840.98 542.25C854.17 542.89 873.36 544.17 886.54 544.49C891.56 544.62 893.14 542.25 894.24 535.71C899.36 505.3 904.04 478.18 908.31 447.61C911.66 423.58 915.84 404.44 918.36 379.49C918.9 374.24 916.64 370.82 912.11 369.85H912.1Z" fill="#335CDF"/>
<path d="M838.19 380.441L833.17 405.711C832.87 406.781 833.02 407.921 833.56 408.891C834.11 409.861 835.02 410.561 836.09 410.861C837.16 411.161 838.3 411.011 839.27 410.471C840.24 409.921 840.94 409.011 841.24 407.941L846.16 382.671C846.31 382.141 846.35 381.591 846.28 381.041C846.21 380.491 846.04 379.971 845.77 379.491C845.5 379.011 845.14 378.591 844.7 378.251C844.27 377.911 843.77 377.661 843.24 377.521C842.71 377.371 842.16 377.331 841.61 377.401C841.06 377.471 840.54 377.641 840.06 377.911C839.58 378.181 839.16 378.541 838.82 378.981C838.48 379.411 838.23 379.911 838.09 380.441H838.19Z" fill="#D08F42"/>
<path d="M1412.54 723.91C1411.12 711.43 1397.85 715.54 1397.85 715.54C1378.34 693.15 1371.06 717.95 1371.06 717.95C1362.27 691.49 1361.4 689.65 1354.45 678.68C1350.85 672.97 1324.46 664.62 1332.23 683.98C1341.42 706.87 1353.85 732.51 1356.54 742.83" fill="#F2A91F"/>
<path d="M1119.82 785.53C1120.14 784.96 1120.3 784.31 1120.3 783.66C1120.3 783.01 1120.13 782.36 1119.82 781.79C1092.8 739.33 1126.75 692.71 1126.75 692.71C1126.75 692.71 1090.94 668.34 1116.22 642.07C1126.58 631.28 1144.62 648.45 1152.45 659.92C1153.15 668.37 1155.8 676.59 1159.15 680.08C1164.83 685.97 1160.69 671.98 1152.45 659.92C1150.78 640.58 1159.28 620.34 1193.21 654.9C1206.55 668.5 1213.77 678.01 1217.24 684.7C1215.44 685.41 1213.84 686.57 1212.6 688.06C1211.36 689.55 1210.51 691.33 1210.14 693.23C1209.24 697.88 1215.03 701.18 1218.38 697.73C1220.37 695.64 1220.91 691.77 1217.24 684.69C1222.73 682.47 1230.8 683.75 1239.66 692.12C1260.89 712.13 1252.38 779.16 1212.48 796.46C1203.74 800.28 1195.46 804.98 1188.48 807.141C1187.17 807.551 1186.08 808.46 1185.45 809.67L1183.2 832.46C1183.2 834.19 1183.68 835.891 1184.57 837.38C1189.37 845.43 1199.51 852.25 1216.74 864.73L1217.8 865.521C1231.45 874.711 1303.03 920.22 1402.75 936.32C1404.48 936.6 1406.25 936.51 1407.95 936.06C1409.65 935.61 1411.23 934.8 1412.59 933.69C1413.95 932.581 1415.06 931.201 1415.85 929.641C1416.64 928.07 1417.09 926.36 1417.17 924.61C1418.17 900.28 1414.66 847.07 1373.23 794.56C1373.23 794.56 1352 789.61 1346.79 776.96C1342.86 767.37 1354.91 765.6 1347.38 758.1C1339.85 750.6 1329.87 736.03 1310.36 720.97C1293.87 708.18 1317.58 700.89 1323.57 704C1335.11 709.96 1329.76 708.9 1350.73 727.31C1350.73 727.31 1344.35 702.26 1372.5 711.75C1372.5 711.75 1381.86 701.49 1389.39 711.53C1389.39 711.53 1406.18 706.61 1410.67 720.77C1410.67 720.77 1516.79 860.03 1508.84 964.36C1501.51 1061.53 1321.21 1031.33 1261.82 1009.44H1261.7C1257.1 1007.73 1243.47 1005.52 1235.19 1006.76C1234.18 1006.91 1233.21 1007.29 1232.36 1007.87C1231.52 1008.45 1230.81 1009.22 1230.31 1010.11C1230.31 1010.11 1138.69 1203.45 1137.95 1305.53C1137.45 1382.72 1156.89 1483.12 1164.74 1535.53C1190.73 1649.05 1238.18 1669.64 1199.38 1671.71C1149.94 1674.44 992.84 1675.29 974.24 1662.72C957.91 1651.7 1027.62 1628.3 1064.88 1612.33C1061.98 1601.91 1058.33 1583.66 1054.16 1561.03H1053.62C1053.62 1561.03 1024.79 1419.7 1010.34 1319.43C999.84 1246.58 1006.03 1196.72 1010.21 1174.89C1011.05 1170.52 1005.98 1167.51 1002.52 1170.3C981.42 1187.32 932.57 1252.32 926.6 1315.43C921.28 1371.07 945.23 1455.37 959.38 1517.91C984.75 1592.26 1000.67 1620.2 989.52 1620.2C939.96 1620.2 769.57 1624.32 768.5 1621.29C761.95 1602.73 824.01 1585.99 861.24 1570C848.95 1525.82 800.11 1345.07 804.46 1275.15C809.43 1195.23 816.77 1220.51 894.34 1062.26C926.71 996.16 992.09 904.85 979.73 898.6C896.01 856.25 847.15 800.24 820.66 762.82C793.32 727.78 794.37 547.71 794.37 547.71L858.65 541.23C858.65 541.23 869.33 664.68 905.03 712.9C932.12 749.5 967.07 779.17 991.78 793.41C1008.99 803.33 1039.01 806.6 1049.3 806.5C1073.26 809.03 1096.22 810.21 1106.96 804.59L1119.81 785.52L1119.82 785.53Z" fill="#F2A91F"/>
<mask id="mask1_146_4309" style="mask-type:alpha" maskUnits="userSpaceOnUse" x="768" y="541" width="742" height="1133">
<path d="M1119.82 785.53C1120.14 784.96 1120.3 784.31 1120.3 783.66C1120.3 783.01 1120.13 782.36 1119.82 781.79C1092.8 739.33 1126.75 692.71 1126.75 692.71C1126.75 692.71 1090.94 668.34 1116.22 642.07C1126.58 631.28 1144.62 648.45 1152.45 659.92C1153.15 668.37 1155.8 676.59 1159.15 680.08C1164.83 685.97 1160.69 671.98 1152.45 659.92C1150.78 640.58 1159.28 620.34 1193.21 654.9C1206.55 668.5 1213.77 678.01 1217.24 684.7C1215.44 685.41 1213.84 686.57 1212.6 688.06C1211.36 689.55 1210.51 691.33 1210.14 693.23C1209.24 697.88 1215.03 701.18 1218.38 697.73C1220.37 695.64 1220.91 691.77 1217.24 684.69C1222.73 682.47 1230.8 683.75 1239.66 692.12C1260.89 712.13 1252.38 779.16 1212.48 796.46C1203.74 800.28 1195.46 804.98 1188.48 807.141C1187.17 807.551 1186.08 808.46 1185.45 809.67L1183.2 832.46C1183.2 834.19 1183.68 835.891 1184.57 837.38C1189.37 845.43 1199.51 852.25 1216.74 864.73L1217.8 865.521C1231.45 874.711 1303.03 920.22 1402.75 936.32C1404.48 936.6 1406.25 936.51 1407.95 936.06C1409.65 935.61 1411.23 934.8 1412.59 933.69C1413.95 932.581 1415.06 931.201 1415.85 929.641C1416.64 928.07 1417.09 926.36 1417.17 924.61C1418.17 900.28 1414.66 847.07 1373.23 794.56C1373.23 794.56 1352 789.61 1346.79 776.96C1342.86 767.37 1354.91 765.6 1347.38 758.1C1339.85 750.6 1329.87 736.03 1310.36 720.97C1293.87 708.18 1317.58 700.89 1323.57 704C1335.11 709.96 1329.76 708.9 1350.73 727.31C1350.73 727.31 1344.35 702.26 1372.5 711.75C1372.5 711.75 1381.86 701.49 1389.39 711.53C1389.39 711.53 1406.18 706.61 1410.67 720.77C1410.67 720.77 1516.79 860.03 1508.84 964.36C1501.51 1061.53 1321.21 1031.33 1261.82 1009.44H1261.7C1257.1 1007.73 1243.47 1005.52 1235.19 1006.76C1234.18 1006.91 1233.21 1007.29 1232.36 1007.87C1231.52 1008.45 1230.81 1009.22 1230.31 1010.11C1230.31 1010.11 1138.69 1203.45 1137.95 1305.53C1137.45 1382.72 1156.89 1483.12 1164.74 1535.53C1190.73 1649.05 1238.18 1669.64 1199.38 1671.71C1149.94 1674.44 992.84 1675.29 974.24 1662.72C957.91 1651.7 1027.62 1628.3 1064.88 1612.33C1061.98 1601.91 1058.33 1583.66 1054.16 1561.03H1053.62C1053.62 1561.03 1024.79 1419.7 1010.34 1319.43C999.84 1246.58 1006.03 1196.72 1010.21 1174.89C1011.05 1170.52 1005.98 1167.51 1002.52 1170.3C981.42 1187.32 932.57 1252.32 926.6 1315.43C921.28 1371.07 945.23 1455.37 959.38 1517.91C984.75 1592.26 1000.67 1620.2 989.52 1620.2C939.96 1620.2 769.57 1624.32 768.5 1621.29C761.95 1602.73 824.01 1585.99 861.24 1570C848.95 1525.82 800.11 1345.07 804.46 1275.15C809.43 1195.23 816.77 1220.51 894.34 1062.26C926.71 996.16 992.09 904.85 979.73 898.6C896.01 856.25 847.15 800.24 820.66 762.82C793.32 727.78 794.37 547.71 794.37 547.71L858.65 541.23C858.65 541.23 869.33 664.68 905.03 712.9C932.12 749.5 967.07 779.17 991.78 793.41C1008.99 803.33 1039.01 806.6 1049.3 806.5C1073.26 809.03 1096.22 810.21 1106.96 804.59L1119.81 785.52L1119.82 785.53Z" fill="#E7AB44"/>
</mask>
<g mask="url(#mask1_146_4309)">
<path d="M1227.75 681.41C1227.75 681.41 1250.03 730.51 1234.42 761.22C1221.57 786.5 1199.18 794.48 1185 798.82C1179.64 800.46 1159.28 798.38 1172.14 806.36C1180.94 811.82 1167.27 839.17 1177.02 846.26C1186.78 853.35 1217.78 865.52 1217.78 865.52C1217.78 865.52 1185.45 840.49 1195.2 828.52C1204.95 816.55 1242.2 811.22 1249.29 803.68C1256.38 796.14 1275.88 737.17 1273.66 729.63C1271.44 722.09 1239.65 692.13 1239.65 692.13" fill="#CC8F3F"/>
</g>
<path d="M891.65 510.41C893.33 514.09 892.38 518.45 882.58 526.52L843.67 551.04L795.24 562.79C793.36 544.67 796.61 511.94 791.1 494.58C790.02 491.19 788.88 487.65 788.21 484.12C786.98 477.65 788.77 470.98 792.91 465.86C799.8 457.34 813.04 442.63 815.47 440.5C819.62 436.38 823.96 432.48 828.5 428.79C831.85 426.08 835.6 423.35 839.89 423.5C847.44 423.75 851.61 432.3 853.29 439.68C853.78 441.31 853.83 443.04 853.44 444.7C852.22 448.38 847.63 449.35 843.93 450.46C837.97 452.26 832.69 455.79 828.74 460.6C837.73 456.73 845.9 450.71 855.53 448.75C865.16 446.79 877.15 450.97 879.14 460.46C879.46 461.71 879.5 463.01 879.27 464.27C879.04 465.53 878.54 466.73 877.8 467.79C876.91 468.87 875.8 469.73 874.53 470.33C869.12 473.21 862.81 473.31 856.75 474.55C850.69 475.79 844.36 478.93 842.6 484.79L877.76 474.21C879.13 473.65 880.64 473.52 882.08 473.84C883.27 474.37 884.28 475.23 885.01 476.3C889.92 482.27 892.98 486.64 888.31 492.81C885.43 496.61 853.34 506.66 865.13 509.18C865.13 509.18 886.45 498.98 891.65 510.41Z" fill="#F2A91F"/>
<path d="M1148.46 657.181C1150.76 660.841 1154.63 663.111 1157.03 666.731C1159.43 670.351 1161 674.541 1162.45 678.651C1162.63 679.161 1163.47 681.081 1162.69 681.451C1162.09 681.741 1160.96 679.941 1160.6 679.461C1159.27 677.701 1158.13 675.781 1157.18 673.791C1155.21 669.681 1154.08 665.151 1153.68 660.621C1153.17 654.921 1153.73 649.201 1154.91 643.611C1155.31 641.731 1152.42 640.921 1152.02 642.811C1149.68 653.901 1149.74 665.751 1154.96 676.041C1156.36 678.801 1161.21 687.941 1165.05 683.291C1166.79 681.191 1165.6 678.511 1164.79 676.291C1163.9 673.851 1162.96 671.421 1161.83 669.091C1160.59 666.541 1159.07 664.111 1157.17 662.011C1155.27 659.911 1152.65 658.171 1151.06 655.651C1150.03 654.021 1147.44 655.521 1148.47 657.161L1148.46 657.181Z" fill="#9D6434"/>
<path d="M1211.29 677.571C1213.32 680.611 1215.15 683.771 1216.77 687.041C1217.96 689.461 1219.67 692.491 1219.18 695.301C1218.76 697.721 1216.27 698.331 1214.32 697.191C1212.06 695.861 1212.15 692.871 1213.32 690.821C1215.06 687.761 1218.81 686.791 1222.09 686.711C1224.02 686.661 1224.02 683.661 1222.09 683.711C1218.13 683.801 1213.92 684.991 1211.42 688.281C1209.23 691.151 1208.65 695.521 1211.14 698.401C1213.19 700.771 1217.14 701.621 1219.77 699.721C1222.99 697.391 1222.51 693.001 1221.26 689.731C1219.42 684.921 1216.73 680.331 1213.89 676.061C1212.82 674.461 1210.22 675.961 1211.3 677.571H1211.29Z" fill="#9D6434"/>
<path d="M1203.54 727.959C1201.96 724.099 1199.58 720.599 1196.56 717.679C1193.54 714.749 1189.95 712.469 1186.01 710.959C1185.53 710.729 1185.16 710.329 1184.98 709.839C1184.8 709.349 1184.82 708.809 1185.03 708.329C1185.26 707.859 1185.67 707.499 1186.18 707.319C1186.68 707.139 1187.23 707.169 1187.72 707.379C1192.14 709.109 1196.15 711.699 1199.52 714.999C1202.89 718.299 1205.54 722.239 1207.31 726.579C1208.26 728.949 1204.51 730.329 1203.54 727.959Z" fill="#9D6434"/>
<path d="M1156.68 701.1C1154.09 699.75 1151.24 698.97 1148.32 698.82C1145.4 698.67 1142.49 699.15 1139.8 700.22C1139.33 700.46 1138.79 700.51 1138.28 700.37C1137.77 700.23 1137.33 699.9 1137.06 699.45C1136.8 698.99 1136.73 698.45 1136.87 697.94C1137.01 697.43 1137.35 697.01 1137.82 696.75C1141.15 695.37 1144.75 694.74 1148.38 694.91C1152 695.08 1155.55 696.03 1158.76 697.71C1159.21 697.99 1159.54 698.43 1159.67 698.94C1159.8 699.45 1159.72 699.99 1159.46 700.44C1159.18 700.88 1158.73 701.2 1158.22 701.32C1157.71 701.44 1157.16 701.36 1156.69 701.1H1156.68Z" fill="#9D6434"/>
<path d="M1189.49 737.709C1189.22 737.919 1189.38 738.319 1189.28 737.769C1189.22 737.489 1189.12 737.209 1189 736.949C1188.67 736.229 1188.26 735.529 1187.8 734.879C1186.92 733.549 1185.75 732.429 1184.37 731.609C1183.78 731.249 1183.14 730.999 1182.47 730.849C1181.79 730.689 1181.09 730.639 1180.4 730.719C1179.75 730.749 1179.11 730.909 1178.53 731.189C1177.94 731.469 1177.42 731.859 1177 732.339C1176.65 732.719 1176.17 732.949 1175.64 732.979C1175.12 733.009 1174.6 732.849 1174.2 732.519C1173.8 732.189 1173.54 731.719 1173.49 731.209C1173.43 730.699 1173.58 730.189 1173.9 729.789C1177.07 726.119 1182.75 725.969 1186.73 728.419C1188.82 729.749 1190.55 731.559 1191.77 733.699C1193.09 735.939 1194.39 739.049 1191.87 740.989C1189.82 742.519 1187.48 739.279 1189.54 737.739H1189.49V737.709Z" fill="#9D6434"/>
<path d="M1148.24 723.3C1148 721.83 1147.37 720.45 1146.42 719.28C1145.47 718.11 1144.24 717.21 1142.84 716.65C1141.47 716.16 1140 716.01 1138.57 716.22C1137.14 716.43 1135.79 716.98 1134.63 717.84C1134.19 718.1 1133.66 718.18 1133.16 718.06C1132.66 717.95 1132.21 717.65 1131.92 717.22C1131.66 716.78 1131.58 716.26 1131.69 715.76C1131.8 715.27 1132.09 714.83 1132.51 714.54C1134.25 713.32 1136.29 712.56 1138.42 712.33C1140.56 712.1 1142.73 712.42 1144.72 713.24C1146.74 714.12 1148.5 715.49 1149.84 717.24C1151.17 718.98 1152.03 721.03 1152.33 723.18C1152.35 723.71 1152.17 724.22 1151.81 724.6C1151.45 724.99 1150.96 725.21 1150.43 725.24C1149.92 725.24 1149.42 725.04 1149.04 724.7C1148.66 724.35 1148.42 723.88 1148.37 723.38L1148.24 723.31V723.3Z" fill="#9D6434"/>
<path d="M1149.57 757.29L1137.43 751.74L1140.18 750.77C1137.4 756.54 1140.89 762.88 1146.4 765.61C1149.21 766.98 1152.77 767.8 1155.75 766.61C1157.26 765.91 1158.64 764.96 1159.81 763.79L1161.81 761.97C1162.62 761.4 1163.35 760.74 1163.99 759.99L1163.81 761.05C1163.78 762.34 1165.05 761.97 1164.45 761.96C1164.28 761.96 1164.11 761.92 1163.95 761.87L1162.36 761.47C1160.9 761.09 1159.43 760.72 1157.99 760.31C1155.08 759.65 1152.25 758.67 1149.56 757.38C1147.24 756.11 1149.01 752.43 1151.32 753.71C1154.46 755.18 1157.76 756.28 1161.17 756.97C1162.51 757.33 1163.86 757.64 1165.2 758.01C1166.09 758.14 1166.9 758.6 1167.48 759.28C1167.84 759.82 1167.99 760.47 1167.91 761.11C1167.83 761.75 1167.52 762.34 1167.03 762.77C1166.03 763.84 1164.83 764.77 1163.71 765.75C1162.59 766.73 1161.52 767.77 1160.4 768.67C1158.25 770.33 1155.59 771.24 1152.84 771.26C1150.18 771.23 1147.56 770.65 1145.14 769.55C1142.72 768.45 1140.57 766.87 1138.81 764.9C1136.92 762.76 1135.69 760.13 1135.27 757.34C1134.85 754.54 1135.25 751.69 1136.44 749.12C1136.69 748.65 1137.11 748.3 1137.62 748.13C1138.13 747.96 1138.69 747.99 1139.18 748.22L1151.34 753.78C1151.82 754.02 1152.19 754.44 1152.36 754.94C1152.54 755.44 1152.51 755.99 1152.28 756.47C1152.05 756.95 1151.64 757.32 1151.14 757.5C1150.64 757.68 1150.08 757.67 1149.58 757.45V757.3L1149.57 757.29Z" fill="#9D6434"/>
<path d="M1351.32 765.529C1354.81 760.519 1358.46 755.589 1362.83 751.309C1364.97 749.209 1367.28 747.279 1369.81 745.659C1372.34 744.039 1375.37 742.199 1378.34 741.839C1381.31 741.479 1383.6 745.039 1385.1 747.219C1386.94 749.879 1388.01 752.779 1386.33 755.809C1383.33 761.259 1376.53 763.169 1373.69 768.849C1370.15 775.939 1372.56 783.849 1374.99 790.859C1375.62 792.669 1378.52 791.889 1377.88 790.059C1375.61 783.499 1372.81 775.359 1377.08 768.959C1380.73 763.499 1388.57 761.509 1390.02 754.429C1390.73 750.939 1389.21 747.769 1387.19 745.009C1385.46 742.639 1383.48 739.759 1380.46 738.999C1377.16 738.169 1373.44 740.139 1370.62 741.669C1367.8 743.199 1365.35 744.999 1363.01 747.039C1357.41 751.909 1352.94 757.939 1348.72 763.999C1347.61 765.589 1350.21 767.089 1351.31 765.509L1351.32 765.529Z" fill="#9D6434"/>
<path d="M1368.57 714.57C1368.88 720.27 1369.86 725.92 1371.57 731.37C1372.69 734.93 1374.68 743.06 1379.97 741.69C1381.84 741.21 1381.05 738.31 1379.17 738.8C1377.54 739.22 1376.51 736.2 1376.07 735.1C1375.2 732.9 1374.44 730.66 1373.81 728.38C1372.56 723.87 1371.81 719.25 1371.56 714.58C1371.46 712.66 1368.46 712.65 1368.56 714.58L1368.57 714.57Z" fill="#9D6434"/>
<path d="M1388.47 748.529C1392.63 749.009 1396.95 746.569 1398.64 742.739C1400.64 738.219 1399.13 733.259 1397.56 728.859C1396.91 727.059 1394.01 727.829 1394.67 729.659C1395.93 733.179 1397.46 737.319 1396.12 741.029C1394.99 744.149 1391.69 745.899 1388.47 745.529C1387.66 745.439 1386.97 746.289 1386.97 747.029C1386.97 747.919 1387.66 748.439 1388.47 748.529Z" fill="#9D6434"/>
<path d="M1398.64 742.059C1403.14 741.629 1408.02 740.649 1411.34 737.319C1414.3 734.339 1415.65 729.649 1413.63 725.789C1412.73 724.079 1410.14 725.589 1411.04 727.299C1412.48 730.039 1411.1 733.459 1408.93 735.469C1406.21 737.989 1402.2 738.709 1398.64 739.049C1397.83 739.129 1397.14 739.679 1397.14 740.549C1397.14 741.299 1397.83 742.129 1398.64 742.049V742.059Z" fill="#9D6434"/>
<path d="M1390.98 712.36L1394.15 723.43C1394.37 724.21 1395.21 724.69 1396 724.48C1396.79 724.27 1397.27 723.42 1397.05 722.63L1393.88 711.56C1393.66 710.78 1392.82 710.3 1392.03 710.51C1391.24 710.72 1390.76 711.57 1390.98 712.36Z" fill="#9D6434"/>
<path d="M1340.22 704.051C1342.46 704.441 1344.69 704.131 1346.72 703.111C1347.42 702.761 1347.68 701.711 1347.26 701.061C1346.8 700.341 1345.96 700.141 1345.21 700.521C1345.1 700.581 1344.99 700.631 1344.87 700.681C1344.72 700.741 1344.76 700.731 1344.97 700.641C1344.91 700.661 1344.85 700.691 1344.8 700.711C1344.6 700.791 1344.39 700.861 1344.18 700.921C1343.73 701.061 1343.28 701.151 1342.81 701.211L1343.21 701.161C1342.47 701.251 1341.72 701.251 1340.98 701.161L1341.38 701.211C1341.26 701.191 1341.13 701.171 1341.01 701.151C1340.6 701.081 1340.22 701.091 1339.85 701.301C1339.54 701.481 1339.24 701.841 1339.16 702.201C1338.99 702.931 1339.38 703.901 1340.21 704.051H1340.22Z" fill="#9D6434"/>
<path d="M1323.76 731.61C1324.14 731.58 1324.52 731.53 1324.89 731.44C1325.26 731.35 1325.62 731.19 1325.96 731.02C1326.2 730.91 1326.42 730.77 1326.63 730.61C1326.94 730.38 1327.24 730.15 1327.49 729.86C1327.74 729.57 1327.93 729.21 1327.93 728.8C1327.93 728.43 1327.77 727.99 1327.49 727.74C1327.21 727.49 1326.83 727.28 1326.43 727.3C1326.03 727.32 1325.63 727.44 1325.37 727.74C1325.21 727.92 1325.03 728.08 1324.85 728.23L1325.15 728C1324.88 728.21 1324.59 728.38 1324.28 728.51L1324.64 728.36C1324.31 728.5 1323.97 728.59 1323.62 728.64L1324.02 728.59C1323.94 728.6 1323.85 728.61 1323.77 728.61C1323.37 728.64 1323 728.76 1322.71 729.05C1322.45 729.31 1322.25 729.74 1322.27 730.11C1322.29 730.48 1322.41 730.9 1322.71 731.17C1323.01 731.44 1323.38 731.64 1323.77 731.61H1323.76Z" fill="#9D6434"/>
<path d="M1248.88 978.999C1238.27 993.319 1229.28 1008.81 1222.14 1025.14C1220.11 1029.79 1218.22 1034.49 1216.48 1039.26C1215.82 1041.08 1218.72 1041.86 1219.37 1040.06C1225.41 1023.51 1233.31 1007.67 1242.89 992.879C1245.62 988.669 1248.48 984.549 1251.47 980.519C1252.62 978.969 1250.02 977.469 1248.88 979.009V978.999Z" fill="#9D6434"/>
<path d="M1242.99 989.9C1245.05 999.15 1252.24 1006.86 1261.27 1009.67C1263.12 1010.25 1263.91 1007.35 1262.07 1006.78C1254.01 1004.27 1247.72 997.33 1245.89 989.11C1245.47 987.23 1242.58 988.02 1243 989.91L1242.99 989.9Z" fill="#9D6434"/>
<path d="M976.47 898.08C991.37 907.72 1008.04 914.56 1025.43 918.15C1027.31 918.54 1028.12 915.65 1026.23 915.26C1009.07 911.71 992.7 905.01 977.99 895.49C976.36 894.44 974.86 897.03 976.48 898.08H976.47Z" fill="#9D6434"/>
<path d="M960.7 1222.38C969.01 1209.9 977.81 1197.74 986.47 1185.5C996.88 1170.79 1007.31 1156.09 1017.36 1141.13C1021.47 1135.01 1025.58 1128.85 1029.28 1122.47C1030.25 1120.8 1027.66 1119.28 1026.69 1120.96C1019.18 1133.9 1010.41 1146.16 1001.87 1158.43C991.57 1173.22 981.08 1187.89 970.71 1202.63C966.46 1208.67 962.2 1214.72 958.11 1220.87C957.04 1222.48 959.63 1223.99 960.7 1222.38Z" fill="#9D6434"/>
<path d="M1066.12 1612.72C1072.95 1619.2 1083.33 1620.89 1091.9 1617.09C1093.66 1616.31 1092.14 1613.72 1090.39 1614.5C1083.09 1617.74 1074.02 1616.08 1068.25 1610.6C1066.85 1609.27 1064.73 1611.39 1066.13 1612.72H1066.12Z" fill="#9D6434"/>
<path d="M863.21 1571.37C866.2 1572.03 869.2 1572.7 872.19 1573.36C872.95 1573.53 873.85 1573.13 874.04 1572.31C874.21 1571.55 873.81 1570.65 872.99 1570.46C870 1569.8 867 1569.13 864.01 1568.47C863.25 1568.3 862.35 1568.7 862.16 1569.52C861.99 1570.28 862.39 1571.18 863.21 1571.37Z" fill="#9D6434"/>
<path d="M806.78 1327.85C818.6 1332.37 833.49 1325.26 837.4 1313.22C839.42 1307.01 838.76 1300.29 839.1 1293.77C840.21 1272.29 852.13 1252.98 864.75 1235.56C869.55 1228.93 874.66 1222.06 876.01 1213.99C878.17 1201.07 868.89 1187.48 856.23 1184.13C843.57 1180.78 829.18 1187.51 823 1199.06C823 1199.06 805.44 1220.29 804.78 1270.83C804.12 1321.37 806.78 1327.84 806.78 1327.84V1327.85Z" fill="#FCB753"/>
<path d="M1010.29 1312.96C1009.78 1297.63 1043.79 1306.91 1053.12 1319.08C1062.45 1331.25 1065 1347.14 1067.25 1362.31C1068.86 1373.16 1070.47 1384.01 1072.08 1394.86C1073.08 1401.57 1074.06 1408.52 1072.3 1415.07C1069.39 1425.88 1059.76 1433.32 1050.57 1439.73C1045.63 1443.17 1035.4 1444.89 1031.13 1440.66C1031.13 1440.66 1011.18 1339.57 1010.29 1312.96Z" fill="#FCB753"/>
<path d="M822.74 766.181C830.55 767.141 838.49 765.691 845.51 762.151C847.23 761.281 845.72 758.691 844 759.561C837.43 762.861 830.03 764.071 822.74 763.181C821.93 763.081 821.25 763.941 821.24 764.681C821.24 765.571 821.94 766.081 822.74 766.181Z" fill="#9D6434"/>
</svg>
