<svg width="2000" height="2055" viewBox="0 0 2000 2055" fill="none" xmlns="http://www.w3.org/2000/svg">
<g clip-path="url(#clip0_316_1451)">
<path d="M632.081 1363.88C632.392 1245.04 686.084 1129.86 677.685 1011.34C674.595 967.728 663.105 923.949 670.322 880.812C677.747 836.453 704.147 797.858 719.576 755.614C727.81 733.071 732.932 709.367 742.7 687.446C766.466 634.148 818.064 594.911 875.261 583.318C932.458 571.725 993.947 587.051 1040.9 621.705C1082.94 652.751 1115.1 698.915 1164.04 717.248C1197.45 729.774 1234.93 727.617 1268.46 739.77C1328.83 761.628 1364.98 827.348 1368.86 891.431C1372.74 955.513 1350.07 1018.18 1323.17 1076.48C1299.99 1126.73 1272.61 1180.3 1283.25 1234.61C1292.5 1281.79 1328.96 1319.33 1342.85 1365.35C1360.73 1424.58 1337.54 1490.84 1295.59 1536.3C1284.06 1548.8 1270.81 1560.27 1254.96 1566.45C1227.59 1577.13 1196.38 1570.56 1169.35 1559C1142.33 1547.45 1117.4 1531.13 1089.68 1521.38C1045.48 1505.83 995.254 1508.28 952.781 1528.08C911.989 1547.1 878.931 1580.9 836.666 1596.37C774.471 1619.15 699.833 1595.09 658.066 1543.7C616.298 1492.31 607.07 1418.17 629.364 1355.81" fill="#FFEFD9"/>
<path d="M595.705 661.023L1667.39 870.669L1539.12 1528.6L463.29 1323.08L595.705 661.023Z" fill="#F7D5B4"/>
<path d="M634.32 714.818L1609.47 905.157L1499.12 1476.17L510.179 1288.59L634.32 714.818Z" fill="#FAE7D1"/>
<path d="M846.496 1158.89C817.131 1166.28 791.124 1184.98 774.305 1210.1C770.054 1216.44 766.446 1223.2 763.521 1230.28C760.431 1237.76 758.565 1246.83 763.604 1253.94C768.644 1261.05 777.955 1260.95 785.732 1258.5C793.945 1255.91 801.141 1251.01 807.881 1245.77C820.926 1235.59 832.228 1223.25 841.332 1209.43C845.812 1202.63 849.732 1195.48 853.05 1188.05C856.368 1180.63 859.976 1171.27 853.9 1164.18C851.598 1161.49 848.072 1159.72 844.464 1160.16C840.378 1160.66 837.599 1163.73 835.069 1166.69C829.491 1173.25 824.534 1180.36 820.345 1187.89C816.156 1195.41 812.485 1203.81 809.976 1212.25C807.466 1220.69 806.969 1229.67 812.941 1236.46C825.675 1250.91 844.651 1230.63 853.506 1221.42C865.078 1209.39 874.804 1195.5 882.084 1180.46C883.867 1176.77 885.485 1173.02 886.999 1169.2C888.347 1165.84 883.1 1163.91 881.316 1166.8C870.408 1184.53 859.271 1203.11 856.928 1224.22C856.492 1228.14 856.7 1232.76 859.665 1235.75C862.859 1238.99 867.608 1238.78 871.32 1236.56C875.655 1233.99 878.558 1229.61 881.524 1225.67C884.821 1221.3 888.015 1216.82 891.063 1212.25C897.866 1202.07 903.984 1191.47 909.458 1180.52C910.06 1179.32 910.018 1177.72 908.982 1176.75C904.419 1172.52 899.898 1177.81 897.492 1181.56C894.153 1186.77 891.374 1192.28 889.031 1198.01C886.688 1203.73 884.946 1209.43 883.722 1215.36C882.872 1219.49 882.415 1224.8 885.837 1227.97C890.13 1231.96 895.356 1228.1 899.131 1225.49C903.631 1222.37 907.965 1219.01 912.113 1215.45C920.408 1208.29 927.854 1200.18 934.428 1191.41C941.002 1182.64 946.601 1173.14 951.06 1163.12C953.051 1158.67 955.726 1153.67 955.83 1148.69C955.934 1143.71 952.284 1139.4 947.099 1140.81C941.914 1142.22 938.347 1148.46 935.444 1152.53C932.084 1157.21 929.056 1162.15 926.402 1167.27C921.01 1177.62 917.028 1188.72 914.664 1200.12C913.357 1206.47 912.507 1212.92 912.175 1219.39C911.864 1225.34 911.055 1232.85 914.809 1237.93C918.106 1242.39 923.955 1244.19 929.305 1243.4C935.506 1242.49 940.587 1238.2 944.341 1233.41C946.788 1230.3 942.412 1225.86 939.944 1229.01C937.29 1232.39 934.075 1235.71 929.824 1236.93C926.485 1237.91 922.109 1237.31 919.869 1234.38C917.298 1231.02 918.169 1225.07 918.314 1221.11C918.48 1216.48 918.895 1211.86 919.641 1207.3C922.586 1188.86 929.741 1171.21 940.566 1156.01C941.541 1154.64 947.182 1145.75 949.214 1146.8C951.247 1147.86 947.7 1155.26 947.182 1156.57C943.864 1164.68 939.716 1172.48 934.967 1179.84C925.469 1194.56 913.233 1207.65 899.048 1217.96C897.057 1219.41 895.024 1220.82 892.951 1222.17C891.686 1222.98 890.234 1224.32 889.612 1222.44C889.052 1220.69 889.404 1218.77 889.757 1217.02C890.317 1214.35 890.98 1211.72 891.748 1209.1C893.303 1203.83 895.315 1198.71 897.762 1193.8C898.986 1191.35 900.292 1188.96 901.702 1186.64C902.407 1185.48 903.113 1184.3 903.901 1183.2C904.191 1182.78 904.419 1182.39 904.792 1182.04L905.228 1181.64C905.954 1181.35 905.746 1181.19 904.626 1181.17L904.149 1177.39C895.73 1194.27 885.713 1210.37 874.12 1225.28C872.399 1227.5 868.562 1233.05 865.099 1231.98C861.947 1230.98 863.066 1225.09 863.398 1222.81C864.663 1213.85 867.691 1205.16 871.528 1197.01C875.924 1187.64 881.337 1178.78 886.75 1169.97L881.067 1167.56C875.717 1181 868.417 1193.76 859.499 1205.16C855.041 1210.84 850.167 1216.24 844.962 1221.25C839.756 1226.27 834.095 1232.29 827.313 1234.55C819.868 1237.02 814.683 1230.75 814.476 1223.7C814.248 1215.9 817.877 1207.65 821.009 1200.64C824.14 1193.63 827.707 1187.31 831.896 1181.15C834.095 1177.91 836.459 1174.8 838.968 1171.79C840.669 1169.76 843.137 1165.88 846.206 1166.38C849.649 1166.92 851.142 1170.88 851.08 1173.91C850.997 1177.75 849.275 1181.5 847.741 1184.96C844.837 1191.49 841.457 1197.82 837.62 1203.88C829.968 1216.01 820.532 1226.96 809.727 1236.35C804.19 1241.16 798.3 1245.75 791.85 1249.25C786.417 1252.2 776.69 1256.63 770.842 1252.55C764.455 1248.09 766.86 1238.82 769.245 1232.89C771.63 1226.96 774.928 1220.82 778.495 1215.24C792.576 1193.28 814.289 1176.09 839.01 1167.67C842.037 1166.63 845.128 1165.74 848.238 1164.95C852.116 1163.97 850.478 1157.98 846.579 1158.96L846.496 1158.89Z" fill="black"/>
<path d="M853.07 1171.87C874.493 1168.72 896.103 1166.69 917.733 1165.8C939.364 1164.91 960.33 1163.87 980.799 1168.49C992.413 1171.13 1003.13 1176.12 1013.81 1181.29C1017.4 1183.03 1020.55 1177.66 1016.95 1175.92C1007.3 1171.25 997.556 1166.56 987.187 1163.68C976.817 1160.8 966.096 1159.66 955.415 1159.24C933.225 1158.37 910.827 1159.51 888.72 1161.46C876.235 1162.56 863.813 1164.06 851.411 1165.88C847.471 1166.46 849.151 1172.45 853.07 1171.87Z" fill="black"/>
<path d="M1513.74 1492.58L1512.72 1492.37L507.587 1296.31L507.774 1295.29L622.458 698.436L623.474 698.643L1627.22 893.316L1627.03 894.332L1513.74 1492.58ZM510.013 1294.69L1512.1 1490.15L1624.81 894.954L624.096 700.862L510.013 1294.67V1294.69Z" fill="#9D6434"/>
<path d="M1387.85 1049.97C1387.85 1049.97 1487.17 1106.98 1486.24 1130.9C1485.31 1154.81 1431.07 1185.15 1408.08 1185.15C1385.08 1185.15 1360.25 1141.02 1342.79 1136.41C1342.79 1136.41 1383.25 1100.56 1387.85 1049.97Z" fill="#9D6434"/>
<path d="M442.592 1264.22C442.592 1264.22 380.066 1358.94 391.099 1378.25C402.132 1397.55 406.736 1396.64 418.681 1398.47C430.626 1400.29 476.604 1405.83 489.482 1392.95C502.361 1380.07 521.669 1321.23 521.669 1321.23C521.669 1321.23 493.153 1315.72 442.592 1264.22Z" fill="#9D6434"/>
<path d="M316.627 1101.47C316.627 1101.47 380.999 1093.19 393.857 1158.48C406.736 1223.76 472.021 1354.33 619.14 1334.11C766.259 1313.89 808.566 1211.82 828.786 1143.77C849.006 1075.73 845.335 1028.84 845.335 1028.84C845.335 1028.84 849.006 982.863 827.873 968.159C806.741 953.455 787.869 959.656 787.412 935.516C786.956 911.377 821.901 883.11 874.307 879.647C926.713 876.183 945.793 897.814 940.981 913.43C936.149 929.067 915.473 939.643 912.943 950.22C910.413 960.797 907.654 973.447 936.17 1030.21C964.685 1086.99 1016.41 1138.94 1063.3 1168.6C1110.19 1198.25 1194.32 1232.74 1315.02 1163.08C1315.02 1163.08 1398.25 1107.46 1396.86 1004.7C1396.86 1004.7 1395.72 962.871 1389.27 927.698C1382.84 892.525 1394.33 864.259 1435.01 849.078L1410.65 745.406C1410.65 745.406 1340.07 765.626 1308.8 764.258C1277.53 762.868 1164.21 764.942 1143.74 769.318C1123.27 773.694 1080.76 781.035 992.931 828.402C992.931 828.402 970.409 838.979 938.223 837.133C906.037 835.287 828.35 844.039 787.412 866.105C746.495 888.17 716.611 896.901 670.177 891.841C623.744 886.781 537.306 892.754 448.109 948.395C448.109 948.395 373.637 986.098 325.814 992.983L316.17 994.393C302.856 996.343 294.105 1009.35 297.298 1022.41L316.627 1101.47Z" fill="#F6CA45"/>
<mask id="mask0_316_1451" style="mask-type:alpha" maskUnits="userSpaceOnUse" x="296" y="745" width="1140" height="592">
<path d="M316.627 1101.47C316.627 1101.47 381 1093.19 393.858 1158.48C406.736 1223.76 472.021 1354.33 619.14 1334.11C766.26 1313.89 808.566 1211.82 828.786 1143.77C849.006 1075.73 845.336 1028.84 845.336 1028.84C845.336 1028.84 849.006 982.863 827.874 968.159C806.741 953.455 787.869 959.656 787.413 935.516C786.957 911.377 821.901 883.11 874.307 879.647C926.714 876.183 945.793 897.814 940.982 913.43C936.15 929.067 915.473 939.643 912.943 950.22C910.413 960.797 907.655 973.447 936.17 1030.21C964.686 1086.99 1016.41 1138.94 1063.3 1168.6C1110.19 1198.25 1194.32 1232.74 1315.02 1163.08C1315.02 1163.08 1398.25 1107.46 1396.86 1004.7C1396.86 1004.7 1395.72 962.871 1389.27 927.698C1382.84 892.525 1394.33 864.259 1435.02 849.078L1410.65 745.406C1410.65 745.406 1340.07 765.626 1308.8 764.258C1277.53 762.868 1164.21 764.942 1143.74 769.318C1123.27 773.694 1080.76 781.035 992.932 828.402C992.932 828.402 970.41 838.979 938.223 837.133C906.037 835.287 828.351 844.039 787.413 866.105C746.496 888.17 716.611 896.901 670.178 891.841C623.744 886.781 537.306 892.754 448.11 948.395C448.11 948.395 373.637 986.098 325.814 992.983L316.171 994.393C302.857 996.343 294.105 1009.35 297.299 1022.41L316.627 1101.47Z" fill="#F6CA45"/>
</mask>
<g mask="url(#mask0_316_1451)">
<path d="M354.33 1143.77L422.601 1129.3L423.617 1102.63C425.567 1051.76 451.615 1004.85 493.755 976.269L523.121 956.36C539.691 945.14 586.851 932.531 606.718 934.812L624.491 933.443C693.903 928.114 758.69 968.554 784.364 1033.26L792.909 1054.81L981.173 1001.01L987.519 935.289C996.603 894.351 1023.44 859.593 1060.73 840.452L1078.4 831.368C1096.67 816.934 1144.86 804.512 1169.38 803.869L1216.64 807.913C1266.99 812.206 1311.5 842.381 1334.14 887.57L1352.39 924.007L1452.87 897.607L1510.79 725.892C1510.79 725.892 1409.42 634.85 1403.2 632.797C1396.98 630.744 1012.18 696.941 1012.18 696.941L490.81 866.603C490.81 866.603 141.221 969.985 128.819 984.46C116.418 998.936 132.967 1077.56 157.791 1085.83C182.615 1094.1 354.33 1143.75 354.33 1143.75V1143.77Z" fill="#EC934F"/>
</g>
<path d="M796.619 1098.71C796.619 1200.79 710.513 1297.08 608.583 1302.39C509.204 1307.55 426.706 1214.89 421.003 1112.96C415.03 1006.3 521.232 933.199 623.307 933.199C725.383 933.199 796.64 996.638 796.64 1098.71H796.619Z" fill="#0755BF"/>
<mask id="mask1_316_1451" style="mask-type:alpha" maskUnits="userSpaceOnUse" x="420" y="933" width="377" height="370">
<path d="M796.619 1098.71C796.619 1200.79 710.513 1297.08 608.583 1302.39C509.204 1307.55 426.706 1214.89 421.003 1112.96C415.03 1006.3 521.232 933.199 623.307 933.199C725.383 933.199 796.64 996.638 796.64 1098.71H796.619Z" fill="#0755BF"/>
</mask>
<g mask="url(#mask1_316_1451)">
<path d="M641.205 919.407C641.205 919.407 482.12 1115.26 439.834 1232.04L460.987 1251.35C460.987 1251.35 481.207 1204.46 527.185 1168.6C573.162 1132.74 803.049 1035.27 803.049 1035.27C803.049 1035.27 750.642 912.066 641.205 919.407Z" fill="#698DCD"/>
<path d="M535.459 1305.62C535.459 1305.62 562.129 1230.21 598.898 1198.96C635.668 1167.71 807.632 1084.03 807.632 1084.03C807.632 1084.03 795.686 1231.15 717.523 1273.45C639.359 1315.76 535.459 1305.64 535.459 1305.64V1305.62Z" fill="#698DCD"/>
<path d="M449.042 998.483L773.641 994.812L795.707 1046.31C795.707 1046.31 578.699 1038.94 409.514 1075.73L449.062 998.504L449.042 998.483Z" fill="#5A6BA0"/>
</g>
<path d="M992.06 1030.88C1024.79 1127.56 1137.58 1192.51 1235.47 1163.54C1336.36 1133.68 1382.96 1021.4 1352.43 923.992C1316.14 808.167 1199.88 785.832 1103.2 818.557C1006.51 851.283 959.355 934.196 992.06 1030.9V1030.88Z" fill="#0755BF"/>
<mask id="mask2_316_1451" style="mask-type:alpha" maskUnits="userSpaceOnUse" x="981" y="804" width="381" height="367">
<path d="M992.06 1030.88C1024.79 1127.56 1137.58 1192.51 1235.47 1163.54C1336.36 1133.68 1382.96 1021.4 1352.43 923.992C1316.14 808.167 1199.88 785.832 1103.2 818.557C1006.51 851.283 959.355 934.196 992.06 1030.9V1030.88Z" fill="#0755BF"/>
</mask>
<g mask="url(#mask2_316_1451)">
<path d="M957.53 958.022L1276.61 808.145C1276.61 808.145 1347.41 837.573 1341.9 852.276C1336.38 866.98 1165.35 902.857 973.167 1010.43L957.53 958.022Z" fill="#596DA1"/>
<path d="M987.871 1050.91C987.871 1050.91 1185.9 1051.12 1202.12 1054.58C1270.85 1069.28 1327.17 1122.62 1327.17 1122.62C1327.17 1122.62 1369.48 1044.67 1358.45 1033.53C1347.41 1022.39 1273 990.934 1222.36 989.296C1171.72 987.657 970.409 1003.09 970.409 1003.09L987.871 1050.91Z" fill="#516499"/>
</g>
<path d="M1376.49 785.951L1382.28 797.669C1382.61 798.332 1383.23 798.788 1383.96 798.892L1396.9 800.779C1398.72 801.049 1399.45 803.289 1398.12 804.575L1388.77 813.7C1388.25 814.218 1388 814.944 1388.12 815.67L1390.34 828.548C1390.65 830.373 1388.75 831.742 1387.13 830.892L1375.56 824.815C1374.91 824.484 1374.15 824.484 1373.48 824.815L1361.91 830.892C1360.27 831.742 1358.39 830.373 1358.7 828.548L1360.92 815.67C1361.04 814.944 1360.79 814.218 1360.27 813.7L1350.92 804.575C1349.59 803.289 1350.34 801.049 1352.14 800.779L1365.08 798.892C1365.81 798.788 1366.43 798.332 1366.76 797.669L1372.55 785.951C1373.36 784.292 1375.72 784.292 1376.53 785.951H1376.49Z" fill="#FCFCFC"/>
<path d="M360.115 1020.42L365.901 1032.14C366.233 1032.8 366.855 1033.26 367.581 1033.36L380.522 1035.25C382.347 1035.52 383.073 1037.76 381.746 1039.04L372.393 1048.17C371.874 1048.69 371.625 1049.41 371.75 1050.14L373.969 1063.02C374.28 1064.84 372.372 1066.21 370.754 1065.36L359.182 1059.28C358.539 1058.95 357.772 1058.95 357.108 1059.28L345.536 1065.36C343.898 1066.21 342.011 1064.84 342.322 1063.02L344.541 1050.14C344.665 1049.41 344.416 1048.69 343.898 1048.17L334.545 1039.04C333.217 1037.76 333.964 1035.52 335.768 1035.25L348.709 1033.36C349.435 1033.26 350.057 1032.8 350.389 1032.14L356.175 1020.42C356.984 1018.76 359.348 1018.76 360.157 1020.42H360.115Z" fill="#FCFCFC"/>
<path d="M524.032 1473.71C512.709 1464.79 494.397 1466.67 485.127 1477.73C475.857 1488.78 477.163 1507.14 487.927 1516.76C494.273 1522.42 502.817 1524.93 511.175 1526.46C520.839 1528.25 531.726 1528.7 539.503 1522.71C547.446 1516.57 549.686 1504.92 546.637 1495.36C543.589 1485.8 536.227 1478.14 527.952 1472.46" fill="#F8E0BC"/>
<path d="M1380.12 1324.72C1369.81 1324.72 1359.67 1320.97 1351.73 1313.85L1335.49 1299.31C1329.56 1294 1321.39 1291.99 1313.67 1293.96L1285.39 1301.14C1272.42 1304.44 1258.47 1301.35 1248.1 1292.93L1231.13 1279.16C1224.73 1273.95 1216.22 1272.42 1208.4 1275.07L1186.28 1282.58C1172.24 1287.33 1157.01 1284.55 1145.59 1275.13L1126.38 1259.33C1120.33 1254.35 1112.22 1252.65 1104.69 1254.79L1077.09 1262.61C1063.23 1266.53 1048.49 1263.25 1037.62 1253.83L1009.79 1229.72L1022.01 1215.61L1049.84 1239.73C1055.93 1245.02 1064.23 1246.87 1072.01 1244.67L1099.61 1236.85C1113.05 1233.03 1127.48 1236.06 1138.27 1244.94L1157.47 1260.74C1163.9 1266.03 1172.44 1267.58 1180.32 1264.93L1202.45 1257.42C1216.39 1252.69 1231.53 1255.43 1242.93 1264.7L1259.9 1278.47C1265.73 1283.2 1273.54 1284.94 1280.84 1283.08L1309.13 1275.9C1322.88 1272.42 1337.42 1275.98 1348 1285.44L1364.23 1299.98C1370.77 1305.83 1379.95 1307.63 1388.21 1304.69L1421.08 1292.95L1427.36 1310.53L1394.49 1322.27C1389.83 1323.95 1384.97 1324.76 1380.18 1324.76L1380.12 1324.72Z" fill="#F7D5B4"/>
<path d="M1365.33 1383.51C1355.03 1383.51 1344.88 1379.76 1336.94 1372.64L1320.7 1358.11C1314.77 1352.8 1306.62 1350.79 1298.89 1352.76L1270.6 1359.93C1257.64 1363.23 1243.68 1360.14 1233.31 1351.72L1216.35 1337.95C1209.94 1332.74 1201.44 1331.21 1193.62 1333.86L1171.49 1341.37C1157.45 1346.12 1142.23 1343.34 1130.8 1333.93L1111.6 1318.12C1105.54 1313.15 1097.43 1311.45 1089.9 1313.58L1062.3 1321.4C1048.45 1325.32 1033.7 1322.04 1022.81 1312.63L994.984 1288.51L1007.2 1274.41L1035.03 1298.53C1041.13 1303.81 1049.42 1305.66 1057.2 1303.46L1084.8 1295.64C1098.24 1291.83 1112.7 1294.85 1123.46 1303.73L1142.64 1319.53C1149.07 1324.82 1157.62 1326.4 1165.5 1323.72L1187.62 1316.22C1201.56 1311.51 1216.7 1314.22 1228.11 1323.49L1245.07 1337.26C1250.9 1341.99 1258.72 1343.71 1266 1341.87L1294.28 1334.69C1308.03 1331.21 1322.57 1334.78 1333.15 1344.23L1349.38 1358.77C1355.92 1364.62 1365.1 1366.42 1373.36 1363.48L1406.23 1351.74L1412.51 1369.33L1379.64 1381.06C1374.98 1382.74 1370.12 1383.55 1365.33 1383.55V1383.51Z" fill="#F7D5B4"/>
</g>
<defs>
<clipPath id="clip0_316_1451">
<rect width="1542.8" height="1025.5" fill="white" transform="translate(124.588 579.5)"/>
</clipPath>
</defs>
</svg>
