<svg width="2000" height="2000" viewBox="0 0 2000 2000" fill="none" xmlns="http://www.w3.org/2000/svg">
<g clip-path="url(#clip0_146_3264)">
<g opacity="0.9">
<path d="M1719.77 362.48H250.78C240.74 362.48 232.6 370.62 232.6 380.66V1299.18C232.6 1309.22 240.74 1317.36 250.78 1317.36H1719.77C1729.81 1317.36 1737.95 1309.22 1737.95 1299.18V380.66C1737.95 370.62 1729.81 362.48 1719.77 362.48Z" fill="#FCF2E6"/>
<mask id="mask0_146_3264" style="mask-type:alpha" maskUnits="userSpaceOnUse" x="232" y="362" width="1506" height="956">
<path d="M1719.77 362.48H250.78C240.74 362.48 232.6 370.62 232.6 380.66V1299.18C232.6 1309.22 240.74 1317.36 250.78 1317.36H1719.77C1729.81 1317.36 1737.95 1309.22 1737.95 1299.18V380.66C1737.95 370.62 1729.81 362.48 1719.77 362.48Z" fill="#FFF3E5"/>
</mask>
<g mask="url(#mask0_146_3264)">
<path d="M212.38 469.22H1775.87V310H202.27L212.38 469.22Z" fill="#FFE7CF"/>
<path d="M305.02 431.408C313.326 431.408 320.06 424.674 320.06 416.368C320.06 408.062 313.326 401.328 305.02 401.328C296.714 401.328 289.98 408.062 289.98 416.368C289.98 424.674 296.714 431.408 305.02 431.408Z" fill="white"/>
<path d="M357.85 431.408C366.156 431.408 372.89 424.674 372.89 416.368C372.89 408.062 366.156 401.328 357.85 401.328C349.544 401.328 342.81 408.062 342.81 416.368C342.81 424.674 349.544 431.408 357.85 431.408Z" fill="white"/>
<path d="M410.67 431.408C418.977 431.408 425.71 424.674 425.71 416.368C425.71 408.062 418.977 401.328 410.67 401.328C402.364 401.328 395.63 408.062 395.63 416.368C395.63 424.674 402.364 431.408 410.67 431.408Z" fill="white"/>
<path opacity="0.8" d="M215.91 1214.8C215.91 1214.8 297.26 1072.8 305.02 1074.55C312.78 1076.3 466.6 1159.55 478.23 1159.55C489.86 1159.55 644.92 1150.91 672.06 1152.64C699.2 1154.37 758.64 1183.74 779.31 1185.47C799.98 1187.2 1168.31 1118.08 1199.31 1126.72C1230.31 1135.36 1296.23 1166.46 1337.58 1166.46C1378.93 1166.46 1578.12 1134.76 1594.16 1124.92C1644.87 1093.81 1749.8 1028.31 1749.8 1028.31C1749.8 1028.31 1752.65 1311.59 1752.65 1330.6C1752.65 1349.61 215.94 1337.51 215.94 1337.51L215.91 1214.8Z" fill="#FFD4B0"/>
<path d="M236.58 1104.22C236.58 1104.22 307.65 982.882 324.45 977.892C341.25 972.902 387.77 990.422 387.77 990.422C387.77 990.422 434.29 975.912 451.09 977.002C467.89 978.092 550.59 1081.76 564.8 1078.3C579.01 1074.84 593.23 1045.47 593.23 1045.47C593.23 1045.47 709.53 1059.29 726.33 1074.85C743.13 1090.41 748.33 1121.5 761.22 1124.95C774.11 1128.4 831 1095.55 840.05 1095.55C849.1 1095.55 992.53 1100.73 998.34 1107.64C1004.15 1114.55 1048.1 1059.26 1053.26 1059.26C1058.42 1059.26 1079.11 1081.73 1082.99 1083.45C1086.87 1085.17 1213.5 980.262 1222.54 990.392C1231.58 1000.52 1322.05 1051.04 1322.05 1051.04C1322.05 1051.04 1369.86 942.162 1377.61 949.742C1385.36 957.322 1448.68 1011.65 1448.68 1011.65H1480.99C1480.99 1011.65 1504.25 936.412 1510.71 941.652C1517.17 946.892 1589.54 994.052 1601.17 990.352C1612.8 986.652 1639.93 976.772 1648.98 990.352C1658.03 1003.93 1749.77 1028.2 1749.77 1028.2L1592.17 1126.68C1592.17 1126.68 1347.94 1182.05 1324.68 1182.87C1301.42 1183.69 1207.09 1137.05 1196.75 1137.05C1186.41 1137.05 792.24 1202.7 774.17 1202.7C756.1 1202.7 691.47 1166.42 678.55 1166.42C665.63 1166.42 483.39 1190.69 469.17 1182.87C457.7 1176.57 357.85 1115.67 319.72 1092.4C315.752 1089.98 311.004 1089.18 306.461 1090.16C301.918 1091.15 297.928 1093.84 295.32 1097.69L215.9 1214.8L236.58 1104.22Z" fill="#FFE7CF"/>
</g>
</g>
<g opacity="0.8">
<path d="M640.23 727.21C696.23 723.64 752.47 724.78 808.52 727.9C811.15 728.05 813.94 728.16 816.22 726.75C818.5 725.34 819.79 721.82 818.11 719.68C817.02 718.3 815.19 717.98 813.53 717.68C805.924 716.01 799.057 711.94 793.94 706.07C790.87 702.58 788.3 697.78 789.56 693.18C790.67 689.1 794.48 686.52 798.26 685.13C802.49 683.58 807.26 683.13 811.39 685.01C815.52 686.89 818.56 691.73 817.71 696.4C816.92 700.71 812.71 703.94 808.58 703.34C804.45 702.74 801.21 698.42 801.58 694.05C798.77 697.35 800.87 702.96 804.33 705.47C810.39 709.87 818.97 708.09 824.87 703.47C827.583 701.355 829.827 698.699 831.46 695.67C837.64 684.02 831.68 667.54 820.17 662.16C808.66 656.78 794.01 662.29 787.17 673.52C786.98 656.52 780.99 639.15 769.17 627.64C757.35 616.13 739.38 611.39 724.5 617.74C719.09 620.04 714.27 623.64 709.72 627.49C705.108 631.221 701.009 635.545 697.53 640.35C693.386 646.572 690.757 653.677 689.852 661.097C688.947 668.517 689.793 676.046 692.32 683.08C689.87 676.08 682.05 673.23 675.11 671.88C668.98 670.69 662.65 669.95 656.54 671.24C645.81 673.5 636.54 682.36 633.33 693.47C630.12 704.58 633.06 717.47 640.73 725.73" fill="#FFD8B7"/>
</g>
<g opacity="0.8">
<path d="M1311.33 609.118C1280.33 607.028 1249.26 607.698 1218.27 609.528C1216.81 609.767 1215.32 609.528 1214.01 608.848C1212.75 608.028 1212.01 605.968 1213.01 604.708C1213.68 604.016 1214.58 603.59 1215.54 603.508C1219.8 602.496 1223.6 600.11 1226.37 596.718C1228.07 594.718 1229.49 591.858 1228.79 589.168C1228.18 586.778 1226.07 585.268 1223.98 584.448C1222.84 583.934 1221.61 583.664 1220.36 583.654C1219.11 583.643 1217.87 583.893 1216.72 584.388C1215.52 585.003 1214.55 585.973 1213.92 587.165C1213.3 588.358 1213.05 589.714 1213.23 591.048C1213.66 593.568 1216.02 595.468 1218.23 595.118C1220.44 594.768 1222.3 592.228 1222.11 589.678C1223.67 591.608 1222.51 594.888 1220.59 596.368C1217.24 598.938 1212.5 597.898 1209.24 595.178C1207.72 593.921 1206.48 592.365 1205.59 590.608C1202.18 583.798 1205.47 574.148 1211.84 570.988C1218.21 567.828 1226.3 571.068 1230.07 577.648C1230.18 567.648 1233.49 557.518 1240.07 550.788C1246.65 544.058 1256.54 541.268 1264.77 544.988C1267.77 546.464 1270.53 548.39 1272.95 550.698C1275.52 552.904 1277.78 555.435 1279.69 558.228C1281.99 561.924 1283.44 566.082 1283.93 570.405C1284.43 574.728 1283.97 579.107 1282.57 583.228C1283.92 579.118 1288.25 577.468 1292.08 576.678C1295.44 575.829 1298.94 575.699 1302.35 576.298C1308.28 577.618 1313.41 582.808 1315.19 589.298C1316.06 592.544 1316.14 595.951 1315.43 599.235C1314.71 602.519 1313.23 605.585 1311.09 608.178" fill="#FFD8B7"/>
</g>
<g opacity="0.8">
<path d="M1649.88 728.392C1633.08 727.405 1616.23 727.479 1599.43 728.612C1598.64 728.742 1597.84 728.615 1597.13 728.252C1596.77 728.019 1596.51 727.657 1596.4 727.239C1596.3 726.822 1596.35 726.379 1596.56 726.002C1596.93 725.63 1597.41 725.4 1597.93 725.352C1600.24 724.803 1602.3 723.51 1603.8 721.672C1604.33 721.138 1604.73 720.488 1604.97 719.773C1605.21 719.058 1605.28 718.298 1605.17 717.552C1604.97 716.948 1604.63 716.401 1604.17 715.956C1603.72 715.511 1603.17 715.18 1602.56 714.992C1601.94 714.717 1601.27 714.576 1600.59 714.576C1599.91 714.576 1599.24 714.717 1598.62 714.992C1597.97 715.327 1597.44 715.853 1597.11 716.499C1596.77 717.144 1596.64 717.879 1596.73 718.602C1596.82 719.247 1597.16 719.832 1597.67 720.24C1598.18 720.648 1598.82 720.849 1599.47 720.802C1600.12 720.637 1600.69 720.243 1601.08 719.693C1601.46 719.142 1601.64 718.471 1601.57 717.802C1602.42 718.852 1601.79 720.632 1600.75 721.432C1598.93 722.822 1596.36 722.262 1594.6 720.792C1593.77 720.109 1593.09 719.266 1592.6 718.312C1590.75 714.622 1592.53 709.382 1595.98 707.682C1599.43 705.982 1603.83 707.682 1605.87 711.282C1605.93 705.872 1607.72 700.372 1611.27 696.722C1614.82 693.072 1620.19 691.572 1624.66 693.582C1626.29 694.382 1627.78 695.428 1629.09 696.682C1630.48 697.874 1631.71 699.246 1632.74 700.762C1633.99 702.765 1634.78 705.021 1635.04 707.366C1635.31 709.711 1635.06 712.087 1634.3 714.322C1635.04 712.092 1637.38 711.192 1639.46 710.762C1641.28 710.301 1643.18 710.233 1645.03 710.562C1646.72 711.006 1648.26 711.894 1649.49 713.134C1650.72 714.373 1651.6 715.919 1652.03 717.612C1652.5 719.371 1652.55 721.218 1652.17 723C1651.78 724.781 1650.98 726.444 1649.82 727.852" fill="#FFD8B7"/>
</g>
<g opacity="0.8">
<path d="M403.76 841.94C375.69 840.05 347.52 840.66 319.43 842.31C318.111 842.531 316.756 842.317 315.57 841.7C314.43 840.96 313.78 839.09 314.62 837.95C315.232 837.324 316.048 836.937 316.92 836.86C320.783 835.945 324.236 833.78 326.74 830.7C328.28 828.85 329.56 826.3 328.93 823.86C328.597 822.847 328.027 821.929 327.269 821.179C326.511 820.43 325.586 819.872 324.57 819.55C323.537 819.085 322.419 818.84 321.286 818.83C320.154 818.819 319.031 819.044 317.99 819.49C316.913 820.047 316.033 820.921 315.468 821.993C314.903 823.066 314.68 824.286 314.83 825.49C314.986 826.567 315.544 827.545 316.392 828.227C317.24 828.91 318.314 829.247 319.4 829.17C320.478 828.902 321.425 828.259 322.07 827.355C322.716 826.451 323.017 825.346 322.92 824.24C324.34 826 323.28 828.97 321.55 830.3C318.55 832.64 314.21 831.69 311.26 829.23C309.884 828.092 308.757 826.682 307.95 825.09C304.86 818.91 307.84 810.17 313.61 807.31C319.38 804.45 326.72 807.38 330.14 813.31C330.23 804.31 333.23 795.07 339.14 788.97C345.05 782.87 354.07 780.35 361.53 783.71C364.247 785.048 366.743 786.795 368.93 788.89C371.257 790.885 373.311 793.178 375.04 795.71C377.125 799.06 378.441 802.831 378.892 806.751C379.343 810.672 378.919 814.643 377.65 818.38C378.88 814.66 382.8 813.16 386.28 812.44C389.322 811.674 392.491 811.558 395.58 812.1C400.96 813.3 405.58 818 407.22 823.9C408.006 826.841 408.079 829.928 407.434 832.903C406.788 835.879 405.443 838.658 403.51 841.01" fill="#FFD8B7"/>
</g>
<g opacity="0.7">
<path d="M456.85 1190.87C456.85 1190.87 466.85 1124.7 456.85 1103.48C449.45 1087.82 434.47 1091.02 438.31 1132.57C442.15 1174.12 439.31 1190.1 439.31 1190.1L456.85 1190.87Z" fill="#FFD8B7"/>
<path d="M440.23 1130.65C440.23 1130.65 433.23 1129.65 431.92 1120.1C430.61 1110.55 437.67 1098.37 427.44 1099.33C417.21 1100.29 417.22 1119.14 423.93 1127.45C428.98 1133.45 434.425 1139.11 440.23 1144.39V1130.65Z" fill="#FFD8B7"/>
<path d="M456.85 1137.68C456.85 1137.68 464.52 1141.2 463.56 1128.68C462.6 1116.16 464.56 1114.3 468.67 1114.94C472.78 1115.58 482.42 1124.48 474.75 1138.09C467.08 1151.7 458.45 1152.33 458.45 1152.33L456.85 1137.68Z" fill="#FFD8B7"/>
</g>
<g opacity="0.8">
<path d="M1555.74 1045.88C1555.74 1045.88 1567.85 1044.23 1570.05 1027.73C1572.25 1011.23 1560.14 990.321 1577.75 991.971C1595.36 993.621 1595.35 1026.08 1583.8 1040.38C1572.25 1054.68 1555.74 1069.55 1555.74 1069.55V1045.88Z" fill="#FFD4B0"/>
<path d="M1527.17 1057.99C1527.17 1057.99 1513.96 1063.99 1515.61 1042.58C1517.26 1021.17 1513.96 1017.83 1506.81 1018.93C1499.66 1020.03 1483.16 1035.36 1496.36 1058.77C1509.56 1082.18 1524.42 1083.29 1524.42 1083.29L1527.17 1057.99Z" fill="#FFD4B0"/>
<path d="M1527.17 1149.55C1527.17 1149.55 1509.92 1035.66 1527.17 999.139C1539.9 972.139 1565.67 977.689 1559.07 1049.2C1552.47 1120.71 1557.42 1148.2 1557.42 1148.2L1527.17 1149.55Z" fill="#FFD4B0"/>
</g>
<path d="M1322.44 1027.19L1323.82 1028.32C1323.41 1027.88 1322.95 1027.5 1322.44 1027.19Z" fill="#E7AB44"/>
<path d="M578.17 377.25C549.805 393.128 526.033 416.079 509.17 443.87C486 482.25 478.35 533.61 502.67 571.27C526.99 608.93 589.09 620.02 617.08 584.99C628.26 570.99 630.94 547.39 616.26 537.14C608.64 531.82 598.5 531.65 589.38 533.46C555.8 540.12 531.38 569.46 515.83 599.98C473.19 683.98 479 786.61 514.13 873.98C549.26 961.35 610.96 1035.48 677.79 1101.82" stroke="#E8B18B" stroke-width="4" stroke-miterlimit="10" stroke-dasharray="12 12"/>
<path d="M177 1629.65H1821.59" stroke="#255DE8" stroke-width="11" stroke-miterlimit="10" stroke-linecap="round"/>
<path opacity="0.6" d="M1156.99 1184.05C1153.81 1049.67 1221.99 970.051 1221.99 970.051C1221.99 970.051 1195.49 990.841 1179.51 1016.47C1164.19 1041.07 1126.2 1129.68 1148.9 1195.98C1150.76 1201.39 1155.65 1207.5 1161.69 1210.2L1156.99 1184.05Z" fill="#CC8F3F"/>
<path d="M1278.09 949.67C1273.5 946.86 1269.26 943.502 1265.48 939.67C1257.65 929.804 1251.25 918.879 1246.48 907.22C1239.05 888.61 1224.11 882.3 1232.09 863.55C1237.09 851.85 1283.99 852.13 1289.09 896.17C1289.09 896.17 1334.64 863.55 1362.03 877.47C1362.03 877.47 1384.69 868.38 1399.39 880.78C1399.39 880.78 1434.92 883.7 1433.76 911.78C1433.76 911.78 1411.02 969.34 1314.35 958.2L1299.17 956.78C1291.68 956.091 1284.46 953.656 1278.09 949.67Z" fill="#F2A91F"/>
<path d="M705.64 949.67C710.229 946.859 714.46 943.502 718.24 939.67C726.073 929.804 732.469 918.879 737.24 907.22C744.67 888.61 759.61 882.3 751.63 863.55C746.63 851.85 699.73 852.13 694.63 896.17C694.63 896.17 649.08 863.55 621.69 877.47C621.69 877.47 599.03 868.38 584.33 880.78C584.33 880.78 548.8 883.7 549.96 911.78C549.96 911.78 572.7 969.34 669.37 958.2L684.56 956.78C692.045 956.088 699.264 953.653 705.64 949.67Z" fill="#F2A91F"/>
<path d="M620.87 346.909C621.224 341.529 620.711 336.127 619.35 330.909C618.59 328.019 617.35 324.959 614.85 323.589C612.35 322.219 609.41 322.879 607.17 324.489C604.979 326.25 603.261 328.529 602.17 331.119C600.46 334.719 599.28 338.809 600.09 342.719C600.9 346.629 604.19 350.149 608.01 349.959" fill="#EFBC96"/>
<path d="M627.79 357.828C632.121 358.023 636.384 358.985 640.38 360.668C644.64 362.408 649.58 366.998 649.97 371.578C650.44 377.098 646.08 381.968 640.49 383.098C635.06 384.208 629.44 380.638 626.42 375.988C624.12 372.448 623.12 368.248 622.17 364.138" fill="#EFBC96"/>
<path d="M638.74 351.442C638.68 348.492 638.21 345.392 636.39 343.072C634.57 340.752 631.13 339.732 628.61 341.262C626.09 342.792 626.01 347.192 628.8 348.132L628.94 348.472C623.51 346.242 617.46 345.082 612.03 347.122C605.88 349.432 601.58 357.192 604.84 362.892C608.1 368.592 616.63 368.892 621.84 365.092C626.22 361.912 628.66 356.822 630.17 351.542L630.26 351.762C631.257 353.111 632.578 354.187 634.1 354.892C635.67 355.472 637.75 355.022 638.44 353.492C638.696 352.84 638.798 352.139 638.74 351.442Z" fill="#EDCEB4"/>
<path d="M620.93 346.25C620.93 346.25 622.17 322.94 612.17 322.84C602.17 322.74 599.71 338.84 599.83 340.1C599.95 341.36 605.83 325.41 611.83 327.2C619.66 329.55 620.93 346.25 620.93 346.25Z" fill="#DDA680"/>
<path d="M627.79 357.828C627.79 357.828 639.66 358.308 646.28 364.298C648.063 365.844 649.289 367.934 649.768 370.245C650.247 372.556 649.952 374.961 648.93 377.088C647.69 379.558 645.23 381.998 640.49 383.088C640.49 383.088 648.49 376.928 645.49 370.368C641.11 360.468 627.79 357.828 627.79 357.828Z" fill="#DDA680"/>
<path d="M628.94 348.471C628.94 348.471 626.94 343.881 630.16 342.951C633.38 342.021 637.6 345.141 637.6 345.141C637.92 345.881 635.92 340.441 631.25 340.481C630.325 340.466 629.418 340.73 628.645 341.238C627.873 341.746 627.272 342.476 626.92 343.331C626.41 344.711 626.5 346.551 628.94 348.471Z" fill="#EFBC96"/>
<path d="M628.61 348.439C628.61 348.439 606.96 345.439 604.84 362.889C604.84 362.889 598.64 354.289 611.15 347.339C620.42 342.189 628.61 348.439 628.61 348.439Z" fill="#E5AD88"/>
<path d="M604.62 362.391L600.24 366.901C600.189 366.952 600.157 367.02 600.151 367.093C600.145 367.165 600.164 367.238 600.206 367.297C600.247 367.357 600.309 367.4 600.379 367.419C600.449 367.438 600.524 367.431 600.59 367.401L606.35 364.811L604.62 362.391Z" fill="#E5AD88"/>
<path d="M1285.6 938.281C1261.94 943.056 1239.97 954.038 1221.95 970.101C1192.95 957.551 1172.41 933.401 1138.33 928.521C1107.9 924.171 1073 947.301 1042.94 953.691L1035.8 955.171C1034.74 955.407 1033.62 955.261 1032.65 954.758C1031.69 954.255 1030.93 953.428 1030.51 952.421C1029.29 949.524 1028.94 946.333 1029.51 943.241L1030.91 916.341C1030.96 915.42 1031.23 914.525 1031.72 913.741C1032.21 912.956 1032.9 912.311 1033.72 911.871C1085.06 882.381 1086.79 809.351 1086.79 809.351C1086.79 809.351 1147.36 807.261 1137.11 757.271C1132.88 736.771 1098.72 743.621 1080.88 751.331C1078.62 754.31 1076.15 757.124 1073.49 759.751L1071.16 756.171C1074.16 754.471 1077.48 752.811 1080.88 751.331C1097.33 729.711 1102.41 699.411 1036.42 714.951C1010.34 721.061 994.8 726.951 985.73 732.261C986.06 732.717 986.364 733.191 986.64 733.681H983.46C984.17 733.211 984.92 732.741 985.73 732.261C980.89 725.531 970.4 721.061 953.66 724.261C913.59 732.091 865.04 817.431 903.75 874.511C911.26 885.581 927.33 900.261 933.98 908.011C934.595 908.731 935.06 909.565 935.349 910.467C935.637 911.368 935.743 912.318 935.66 913.261C933.299 928.342 929.226 943.104 923.52 957.261C920.2 958.781 916.88 958.121 912.52 953.571C899.92 940.471 881.86 928.731 854.21 933.281C839.402 935.839 825.572 942.387 814.21 952.221C801.56 963.031 787.71 979.451 776.84 992.061C769.01 981.321 748.96 963.531 748.96 963.531C701.31 904.811 612.51 956.141 612.51 956.141C663.39 988.251 690.09 1106.78 688.82 1168.98L690.18 1183.07C690.18 1183.07 703.91 1265.43 784.83 1254.69C814.72 1250.75 820.1 1233.03 829.94 1223.15C939.65 1225.74 1064.49 1232.01 1154.71 1229.84C1163.82 1245.66 1182.8 1251.45 1222.34 1246.24C1285.34 1237.86 1293.68 1186.17 1293.68 1186.17C1291.82 1094.56 1326.51 1010.41 1326.51 1010.41C1362.39 939.341 1408.83 939.471 1408.83 939.471C1408.83 939.471 1338.1 928.551 1285.6 938.281Z" fill="#F2A91F"/>
<path d="M939.37 792.214L939.404 792.391L939.544 792.505C942.466 794.896 946.035 796.361 949.795 796.714C953.782 797.4 957.856 797.399 961.843 796.711C965.327 796.143 968.64 794.804 971.54 792.791C974.44 790.778 976.854 788.142 978.605 785.076L978.605 785.076L978.608 785.07C978.995 784.369 979.022 783.657 978.798 783.038C978.577 782.431 978.126 781.941 977.595 781.63C977.065 781.32 976.42 781.17 975.793 781.293C975.153 781.419 974.578 781.821 974.203 782.526C972.829 784.912 970.948 786.968 968.693 788.549C966.437 790.131 963.86 791.198 961.147 791.675C957.983 792.196 954.755 792.196 951.592 791.675L951.567 791.671L951.542 791.669C948.444 791.475 945.476 790.355 943.022 788.455C941.814 787.368 940.309 787.747 939.446 788.597C939.01 789.026 938.699 789.604 938.656 790.236C938.616 790.837 938.822 791.444 939.319 791.957L939.37 792.214Z" fill="#9E6534" stroke="#9E6534"/>
<path d="M1026.67 796.159L1026.68 796.162L1026.68 796.165C1033.17 798.303 1040.07 798.846 1046.81 797.75C1047.6 797.738 1048.21 797.397 1048.62 796.889C1049.03 796.384 1049.22 795.733 1049.23 795.109C1049.23 794.486 1049.04 793.839 1048.62 793.356C1048.18 792.857 1047.53 792.575 1046.72 792.652L1046.71 792.654L1046.69 792.657C1040.87 793.585 1034.93 793.269 1029.24 791.73C1027.13 791.074 1025.22 789.899 1023.68 788.312C1022.14 786.725 1021.03 784.778 1020.44 782.649C1020.26 781.872 1019.82 781.332 1019.23 781.044C1018.66 780.761 1018 780.741 1017.4 780.903C1016.22 781.223 1015.1 782.331 1015.36 783.92L1015.42 784.34H1015.63C1016.4 786.97 1017.77 789.39 1019.62 791.416C1021.56 793.536 1023.97 795.162 1026.67 796.159Z" fill="#9E6534" stroke="#9E6534"/>
<path d="M963.845 822.5C963.867 822.659 963.901 822.814 963.947 822.966C963.839 825.932 963.356 828.873 962.511 831.719L962.507 831.732L962.503 831.746C962.015 833.815 961 835.723 959.559 837.284C959.066 837.726 958.802 837.869 958.619 837.894C958.483 837.913 958.296 837.877 957.912 837.565C956.547 836.107 955.618 834.294 955.23 832.334L955.227 832.318L955.223 832.301C953.607 826.278 953.607 819.934 955.223 813.91L955.226 813.898L955.229 813.885C955.703 811.668 956.651 809.579 958.009 807.763C958.338 807.333 958.749 806.974 959.218 806.705L959.232 806.697L959.245 806.689C959.327 806.635 959.422 806.606 959.52 806.606C959.609 806.606 959.697 806.63 959.773 806.675C961.317 807.995 962.351 809.814 962.697 811.816L962.701 811.838L962.707 811.86C963.625 815.297 964.008 818.854 963.84 822.407L963.838 822.454L963.845 822.5ZM950.546 808.176C947.381 816.099 946.8 824.819 948.885 833.092C949.489 835.528 950.682 838.682 952.548 840.966C953.484 842.112 954.607 843.061 955.934 843.575C957.271 844.093 958.78 844.153 960.444 843.573L960.469 843.565L960.492 843.554C962.043 842.825 963.431 841.792 964.573 840.514L964.573 840.514C965.707 839.24 966.57 837.75 967.11 836.133C968.768 831.971 969.686 827.554 969.826 823.08C969.89 822.893 969.937 822.699 969.965 822.5L969.97 822.466V822.431C969.97 819.225 969.858 815.179 969.019 811.405C968.182 807.639 966.603 804.061 963.603 801.886C962.106 800.8 960.654 800.325 959.275 800.336C957.898 800.347 956.643 800.842 955.533 801.611C953.33 803.137 951.635 805.785 950.555 808.153L950.55 808.164L950.546 808.176Z" fill="#9E6534" stroke="#9E6534"/>
<path d="M1037.21 824.993C1037.23 825.111 1037.25 825.228 1037.28 825.343C1037.16 828.351 1036.66 831.333 1035.79 834.215L1035.79 834.229L1035.78 834.243C1035.28 836.305 1034.28 838.21 1032.85 839.781C1032.36 840.203 1032.09 840.348 1031.91 840.374C1031.78 840.392 1031.59 840.36 1031.2 840.027C1029.83 838.6 1028.91 836.8 1028.56 834.852L1028.56 834.831L1028.55 834.811C1026.94 828.77 1026.94 822.41 1028.55 816.37L1028.56 816.36L1028.56 816.35C1029.05 814.14 1030 812.056 1031.33 810.228C1031.68 809.812 1032.1 809.467 1032.58 809.21L1032.59 809.203L1032.6 809.194C1032.68 809.145 1032.78 809.118 1032.87 809.118C1032.95 809.118 1033.04 809.139 1033.11 809.179C1034.66 810.502 1035.7 812.335 1036.03 814.351L1036.03 814.377L1036.04 814.402C1036.97 817.822 1037.37 821.366 1037.21 824.908L1037.21 824.95L1037.21 824.993ZM1043.2 825.552C1043.26 825.37 1043.3 825.181 1043.33 824.989L1043.33 824.96V824.93C1043.33 821.725 1043.22 817.701 1042.38 813.939C1041.53 810.183 1039.95 806.611 1036.94 804.397C1035.43 803.291 1033.98 802.806 1032.6 802.817C1031.22 802.827 1029.97 803.33 1028.86 804.109C1026.67 805.654 1024.98 808.332 1023.89 810.7L1023.88 810.712L1023.88 810.724C1020.71 818.642 1020.11 827.356 1022.17 835.631C1022.78 838.067 1023.98 841.223 1025.86 843.507C1026.8 844.653 1027.94 845.602 1029.28 846.115C1030.62 846.632 1032.14 846.692 1033.82 846.113L1033.85 846.105L1033.87 846.094C1035.41 845.378 1036.8 844.351 1037.93 843.079C1039.05 841.81 1039.91 840.323 1040.44 838.711C1042.11 834.515 1043.05 830.063 1043.2 825.552Z" fill="#9E6534" stroke="#9E6534"/>
<path opacity="0.6" d="M825.53 1206.11C833.23 1064.11 778.85 989.691 778.85 989.691C778.85 989.691 798.19 990.231 816.62 1030.69C835.79 1072.79 849.04 1123.51 833.62 1191.87C832.403 1197.32 829.573 1202.27 825.5 1206.09L825.53 1206.11Z" fill="#CC8F3F"/>
<path d="M592 949.5C592 949.5 683.9 963.491 688.9 1175.55C689.126 1184.72 691.465 1193.72 695.735 1201.84C700.005 1209.95 706.092 1216.98 713.52 1222.36C724.81 1230.56 739.36 1238.65 755.76 1241.91C793.39 1249.4 828.12 1219.48 826.69 1181.14C824.17 1114.55 807.63 980.201 716.32 939.551" stroke="#9E6534" stroke-width="6" stroke-miterlimit="10"/>
<path d="M1387 952C1387 952 1299.82 963.492 1294.82 1175.55C1294.59 1184.72 1292.25 1193.72 1287.98 1201.84C1283.71 1209.96 1277.63 1216.98 1270.2 1222.36C1258.91 1230.56 1244.36 1238.65 1227.96 1241.91C1190.33 1249.4 1155.6 1219.48 1157.03 1181.14C1159.52 1114.62 1176.1 980.232 1267.41 939.582" stroke="#9E6534" stroke-width="6" stroke-miterlimit="10"/>
<path d="M1320.43 904.328C1338.85 890.858 1358.54 877.328 1381.18 874.518C1387.98 873.688 1396.27 874.648 1399.39 880.738" stroke="#9E6534" stroke-width="6" stroke-linecap="round" stroke-linejoin="round"/>
<path d="M1368.55 874.261C1350.31 872.211 1324.8 878.101 1307.55 884.501C1300.61 887.081 1293.23 890.011 1289.05 896.131C1288.76 878.361 1275.34 861.631 1258.05 857.491C1252.31 856.111 1246.11 856.041 1240.67 858.331C1235.23 860.621 1230.67 865.501 1229.81 871.331C1228.65 878.891 1233.41 885.891 1236.39 892.941C1239.25 899.721 1245.21 902.941 1247.24 910.001C1258.65 949.881 1293.34 954.291 1293.34 954.291C1318.63 958.772 1344.49 959.022 1369.86 955.031C1375.54 954.233 1381.14 952.941 1386.6 951.171C1396.43 947.801 1405.26 942.081 1413.72 936.051C1419.2 932.151 1425.18 927.691 1428.91 922.861C1438.91 909.961 1433.33 902.171 1433.33 902.171C1428.5 890.531 1418.87 885.081 1408.33 882.171C1408.33 882.171 1383.53 873.531 1348.97 923.791C1339.57 915.731 1328.04 909.791 1315.72 908.621C1303.4 907.451 1290.31 911.621 1282.1 920.861" stroke="#9E6534" stroke-width="6" stroke-linecap="round" stroke-linejoin="round"/>
<path d="M663.29 904.328C644.87 890.858 625.18 877.328 602.54 874.518C595.74 873.688 587.45 874.648 584.33 880.738" stroke="#9E6534" stroke-width="6" stroke-linecap="round" stroke-linejoin="round"/>
<path d="M615.17 874.261C633.41 872.211 658.92 878.101 676.17 884.501C683.11 887.081 690.49 890.011 694.67 896.131C694.96 878.361 708.38 861.631 725.67 857.491C731.41 856.111 737.61 856.041 743.05 858.331C748.49 860.621 753.05 865.501 753.91 871.331C755.07 878.891 750.31 885.891 747.33 892.941C744.47 899.721 738.51 902.941 736.48 910.001C725.07 949.881 690.39 954.291 690.39 954.291C665.1 958.772 639.242 959.022 613.87 955.031C608.185 954.234 602.581 952.942 597.12 951.171C587.29 947.801 578.46 942.081 570.01 936.051C564.53 932.151 558.54 927.691 554.81 922.861C544.81 909.961 550.39 902.171 550.39 902.171C555.22 890.531 564.85 885.081 575.39 882.171C575.39 882.171 600.19 873.531 634.76 923.791C644.15 915.731 655.68 909.791 668 908.621C680.32 907.451 693.41 911.621 701.62 920.861" stroke="#9E6534" stroke-width="6" stroke-linecap="round" stroke-linejoin="round"/>
<path opacity="0.6" d="M964.17 973.989C948.09 972.679 942.78 970.299 935.53 964.599C934.573 963.783 933.864 962.716 933.48 961.518C933.097 960.32 933.055 959.039 933.36 957.819C935.08 949.579 942.56 934.339 943.14 919.689C943.85 901.509 923.53 898.419 929.97 903.739C936.41 909.059 935.59 913.299 935.59 913.299C934.54 926.819 926.66 948.779 924.19 955.399C923.905 956.198 923.381 956.889 922.688 957.378C921.995 957.866 921.168 958.129 920.32 958.129C918.32 958.129 915.6 957.129 912.42 953.649C907.883 948.893 902.786 944.706 897.24 941.179C931.58 1000.6 974.4 974.819 964.17 973.989Z" fill="#CC8F3F"/>
<path opacity="0.6" d="M1029.65 939.979C1029.65 939.979 1027.52 950.739 1032.65 954.759C1037.78 958.779 1087.73 938.109 1087.73 938.109C1087.73 938.109 1066.29 990.339 1017.46 988.009C997.46 987.009 1016.22 981.769 1025.13 974.109C1030.98 969.079 1027.04 942.029 1029.65 939.979Z" fill="#CC8F3F"/>
<path d="M991.63 729.239C986.79 731.239 976.02 738.659 975.28 743.849C974.933 745.579 975.224 747.377 976.1 748.909C977.93 751.619 982.31 751.579 984.74 749.399C987.17 747.219 987.91 743.649 987.59 740.399C987.202 736.993 985.858 733.767 983.713 731.093C981.568 728.419 978.71 726.407 975.47 725.289" stroke="#9E6534" stroke-width="4" stroke-linecap="round" stroke-linejoin="round"/>
<path d="M1082.75 744.48C1077.64 752.48 1072.46 760.62 1065.63 767.24C1062.02 770.74 1056.93 773.97 1052.25 772.13C1051.7 770.57 1052.82 768.95 1053.96 767.74C1059.49 761.89 1066.87 758.11 1074.4 755.24C1081.93 752.37 1089.74 750.24 1097.17 747.16" stroke="#9E6534" stroke-width="4" stroke-linecap="round" stroke-linejoin="round"/>
<g opacity="0.6">
<path d="M973.17 991.551C975.4 994.791 979.17 996.451 982.94 996.961C986.71 997.471 990.94 996.961 994.09 994.711C994.651 994.366 995.058 993.818 995.225 993.181C995.393 992.544 995.309 991.867 994.99 991.291C994.652 990.722 994.104 990.309 993.464 990.14C992.825 989.972 992.144 990.062 991.57 990.391C991.265 990.612 990.948 990.815 990.62 991.001L990.17 991.241C990.1 991.241 989.46 991.531 990 991.321C989.332 991.582 988.643 991.786 987.94 991.931L987.29 992.051C986.81 992.141 987.49 992.051 987.18 992.051C986.87 992.051 986.37 992.121 985.96 992.131C985.175 992.148 984.39 992.114 983.61 992.031C983.2 992.031 984.19 992.141 983.49 992.031L982.95 991.931C982.55 991.851 982.16 991.761 981.77 991.651C981.38 991.541 981.08 991.441 980.77 991.311C980.7 991.311 980.06 991.011 980.58 991.251L980.1 991.021C979.757 990.859 979.423 990.679 979.1 990.481L978.76 990.261C978.68 990.201 978.18 989.791 978.64 990.181C978.392 989.977 978.155 989.76 977.93 989.531C977.8 989.401 977.68 989.251 977.55 989.111C977.82 989.411 977.65 989.251 977.49 989.021C977.144 988.461 976.595 988.057 975.958 987.891C975.321 987.725 974.645 987.811 974.07 988.131C973.501 988.469 973.088 989.017 972.919 989.656C972.751 990.296 972.841 990.977 973.17 991.551Z" fill="#CC8F3F"/>
</g>
<path d="M973.175 878.568L973.848 877.804C981.358 870.432 993.884 874.996 994.06 886.096C994.077 887.202 994.526 888.064 995.208 888.642C995.88 889.211 996.752 889.486 997.605 889.486C998.456 889.487 999.325 889.214 999.984 888.64C1000.65 888.057 1001.08 887.189 1001.06 886.08C1000.79 868.812 979.745 860.442 968.184 873.668C966.699 875.358 967.218 877.445 968.413 878.645C969.013 879.248 969.814 879.666 970.676 879.709C971.554 879.752 972.442 879.402 973.175 878.568Z" fill="#9E6534" stroke="#9E6534"/>
<path d="M1307.79 1064.46C1298.85 1097.46 1294.71 1131.46 1293.29 1165.69L1292.66 1180.78C1292.65 1181.2 1292.78 1181.62 1293.05 1181.95L1315.87 1210.24H1328.87C1398.33 1111.52 1440.98 1094.91 1457.98 1092.65C1458.64 1092.56 1459.26 1092.3 1459.78 1091.88C1460.3 1091.47 1460.7 1090.92 1460.93 1090.29C1461.16 1089.67 1461.21 1088.99 1461.08 1088.34C1460.95 1087.69 1460.65 1087.08 1460.2 1086.59C1443.33 1068.3 1407.2 1048.37 1383.51 1040.9C1374.94 1038.21 1365.8 1037.93 1357.09 1040.09C1341.17 1044.02 1310.92 1052.92 1307.79 1064.46Z" fill="#1A3BA6"/>
<path d="M1293.42 1165.65C1293.42 1165.65 1294.36 1197.35 1279.42 1209.84L1328.81 1210.25L1293.42 1165.65Z" fill="#05163D"/>
<path d="M644.79 1204.63C644.79 1204.63 598.46 1154.01 504.95 1120.63C503.762 1120.21 502.702 1119.49 501.873 1118.54C501.044 1117.59 500.475 1116.45 500.219 1115.21C499.964 1113.98 500.031 1112.7 500.415 1111.5C500.799 1110.3 501.486 1109.22 502.41 1108.36C522.87 1089.55 576.54 1045.14 633.76 1039.55C640.481 1038.87 647.257 1040.11 653.299 1043.13C659.34 1046.15 664.398 1050.83 667.88 1056.62C682.59 1081.25 704.07 1131.87 692.34 1205.2L651.86 1204.98" fill="#1A3BA6"/>
<path d="M703 1205.01C696.873 1191.9 697.479 1194.36 697.799 1180.09L695.352 1149.55L644.79 1204.65" fill="#05163D"/>
<path d="M587.94 1065.83C568.078 1075.29 549.713 1087.62 533.43 1102.41C530.22 1105.31 534.94 1110.1 538.14 1107.21C554.028 1092.83 571.939 1080.87 591.3 1071.69C595.18 1069.84 591.8 1063.99 587.94 1065.83Z" fill="#335CDF"/>
<path d="M549 1120.65C560.63 1123.36 571.515 1128.61 580.87 1136.03C584.87 1139.22 590.55 1133.59 586.53 1130.38C576.172 1122.01 564.079 1116.05 551.13 1112.93C546.13 1111.74 543.99 1119.45 549 1120.65Z" fill="#335CDF"/>
<path d="M594.61 1144.14C595.338 1144.27 596.049 1144.48 596.73 1144.77L596.13 1144.52C596.919 1144.85 597.661 1145.29 598.34 1145.81L597.84 1145.42C598.259 1145.75 598.653 1146.11 599.02 1146.5C599.488 1146.97 600.123 1147.23 600.785 1147.23C601.447 1147.23 602.081 1146.97 602.55 1146.5C603.008 1146.02 603.264 1145.39 603.264 1144.73C603.264 1144.07 603.008 1143.43 602.55 1142.96C600.783 1141.08 598.471 1139.81 595.94 1139.32C595.288 1139.15 594.598 1139.24 594.01 1139.57C593.726 1139.73 593.478 1139.95 593.279 1140.22C593.08 1140.48 592.935 1140.78 592.851 1141.09C592.768 1141.41 592.748 1141.74 592.792 1142.07C592.836 1142.39 592.944 1142.71 593.11 1142.99C593.438 1143.56 593.978 1143.97 594.61 1144.14Z" fill="#335CDF"/>
<path d="M1410.17 1069.45C1419.31 1073.24 1427.62 1078.77 1434.66 1085.73C1438.34 1089.33 1444 1083.73 1440.31 1080.07C1432.25 1072.2 1422.74 1065.97 1412.31 1061.73C1407.55 1059.73 1405.48 1067.51 1410.18 1069.45H1410.17Z" fill="#335CDF"/>
<path d="M1388.84 1121.12C1396.26 1110.97 1407.11 1103.86 1419.38 1101.12C1424.38 1099.96 1422.27 1092.24 1417.25 1093.41C1402.98 1096.75 1390.43 1105.18 1381.93 1117.12C1378.93 1121.29 1385.84 1125.29 1388.84 1121.12Z" fill="#335CDF"/>
<path d="M1393.65 1058.25C1394.75 1058.49 1395.82 1058.82 1396.86 1059.25L1396.26 1059C1397.72 1059.61 1399.09 1060.4 1400.34 1061.36L1399.83 1060.97L1400.57 1061.56C1401.04 1062.01 1401.67 1062.28 1402.33 1062.3C1402.99 1062.29 1403.63 1062.03 1404.1 1061.56C1404.56 1061.09 1404.83 1060.45 1404.83 1059.79C1404.83 1059.13 1404.56 1058.5 1404.1 1058.03C1401.48 1055.77 1398.35 1054.18 1394.98 1053.42C1394.34 1053.24 1393.66 1053.33 1393.08 1053.65C1392.5 1053.98 1392.08 1054.52 1391.9 1055.16C1391.73 1055.8 1391.81 1056.49 1392.14 1057.06C1392.47 1057.64 1393.01 1058.06 1393.65 1058.24V1058.25Z" fill="#335CDF"/>
<path d="M644.71 1204.63C644.71 1204.63 574.17 1448.67 686.17 1626.89H1273.06C1273.06 1626.89 1381.06 1499.65 1328.82 1210.25L644.71 1204.63Z" fill="#117AF6"/>
<path d="M909.21 1433.44C923.398 1433.44 934.9 1421.94 934.9 1407.75C934.9 1393.56 923.398 1382.06 909.21 1382.06C895.022 1382.06 883.52 1393.56 883.52 1407.75C883.52 1421.94 895.022 1433.44 909.21 1433.44Z" fill="#7EB7FA"/>
<path d="M986.85 1433.44C1001.04 1433.44 1012.54 1421.94 1012.54 1407.75C1012.54 1393.56 1001.04 1382.06 986.85 1382.06C972.662 1382.06 961.16 1393.56 961.16 1407.75C961.16 1421.94 972.662 1433.44 986.85 1433.44Z" fill="#7EB7FA"/>
<path d="M1064.49 1433.44C1078.68 1433.44 1090.18 1421.94 1090.18 1407.75C1090.18 1393.56 1078.68 1382.06 1064.49 1382.06C1050.3 1382.06 1038.8 1393.56 1038.8 1407.75C1038.8 1421.94 1050.3 1433.44 1064.49 1433.44Z" fill="#7EB7FA"/>
<path d="M643.29 1463.46L648.66 1482.7C650.34 1488.7 657.24 1493.08 663.42 1491.08C669.6 1489.08 673.61 1482.8 671.8 1476.32L666.44 1457.08C664.75 1451.08 657.85 1446.7 651.67 1448.7C645.49 1450.7 641.49 1456.98 643.29 1463.46Z" fill="#7EB7FA"/>
<path d="M661 1522.16C666.189 1549.1 676.731 1574.72 692 1597.51C695.61 1602.88 702.58 1605.23 708.42 1601.81C713.75 1598.69 716.35 1590.81 712.72 1585.39C698.581 1564.36 688.852 1540.68 684.12 1515.78C682.9 1509.41 675.26 1505.78 669.36 1507.4C662.7 1509.23 659.76 1515.78 660.98 1522.16H661Z" fill="#7EB7FA"/>
<path d="M1286.44 1241.99C1293.23 1269.47 1298.05 1297.39 1300.87 1325.55C1301.51 1332 1305.93 1337.55 1312.87 1337.55C1318.87 1337.55 1325.51 1332.04 1324.87 1325.55C1321.91 1295.26 1316.8 1265.22 1309.58 1235.65C1305.9 1220.65 1282.75 1227.01 1286.44 1242.03V1241.99Z" fill="#7EB7FA"/>
<path d="M1302.56 1362.98V1382.23C1302.56 1388.5 1308.08 1394.52 1314.56 1394.23C1321.04 1393.94 1326.56 1388.95 1326.56 1382.23V1362.98C1326.56 1356.7 1321.04 1350.69 1314.56 1350.98C1308.08 1351.27 1302.56 1356.25 1302.56 1362.98Z" fill="#7EB7FA"/>
</g>
<path d="M179 1688.05H469.24" stroke="#255DE8" stroke-width="11" stroke-miterlimit="10" stroke-linecap="round"/>
<path d="M1279.9 1688.05H1825.25" stroke="#255DE8" stroke-width="11" stroke-miterlimit="10" stroke-linecap="round"/>
<path d="M520.52 1688.05H602.16" stroke="#255DE8" stroke-width="11" stroke-miterlimit="10" stroke-linecap="round"/>
<defs>
<clipPath id="clip0_146_3264">
<rect width="1646.25" height="1380.55" fill="white" transform="translate(177 310)"/>
</clipPath>
</defs>
</svg>
