<svg width="2000" height="2000" viewBox="0 0 2000 2000" fill="none" xmlns="http://www.w3.org/2000/svg">
<path d="M408.75 253.33V1182.84C408.75 1206.22 427.07 1225.17 449.67 1225.17H1574.45C1585.05 1225.2 1595.22 1229.42 1602.73 1236.9L1692.31 1325.5C1700.31 1333.5 1713.68 1327.56 1713.68 1316.05V253.33C1713.68 229.96 1695.36 211 1672.77 211H449.66C427.06 210.99 408.75 229.99 408.75 253.33Z" fill="#FCF2E6"/>
<g opacity="0.8">
<g opacity="0.8">
<path d="M1467.74 1108.35C1535.76 1108.35 1590.91 1053.2 1590.91 985.18C1590.91 917.155 1535.76 862.01 1467.74 862.01C1399.71 862.01 1344.57 917.155 1344.57 985.18C1344.57 1053.2 1399.71 1108.35 1467.74 1108.35Z" fill="#F6DDC8"/>
<path d="M1467.75 861.99V985.19H1590.92V982.33C1590.92 951.117 1578.77 921.13 1557.05 898.714C1535.33 876.299 1505.74 863.215 1474.54 862.23L1467.75 861.99Z" fill="#F4CAAB"/>
</g>
<g opacity="0.8">
<path d="M1613.13 379.391H1322.36C1312.99 379.391 1305.4 386.984 1305.4 396.351V775.811C1305.4 785.177 1312.99 792.771 1322.36 792.771H1613.13C1622.5 792.771 1630.09 785.177 1630.09 775.811V396.351C1630.09 386.984 1622.5 379.391 1613.13 379.391Z" fill="#F6DDC8"/>
<path d="M1586.73 431.92H1348.03V597.92H1586.73V431.92Z" fill="#F4CAAB"/>
<path opacity="0.7" d="M1429.41 519.54C1446.04 519.54 1459.52 506.06 1459.52 489.43C1459.52 472.801 1446.04 459.32 1429.41 459.32C1412.78 459.32 1399.3 472.801 1399.3 489.43C1399.3 506.06 1412.78 519.54 1429.41 519.54Z" fill="#EDB48E"/>
<path opacity="0.7" d="M1348.03 565.93C1348.03 565.93 1353.72 540.7 1383.83 543.93C1413.94 547.16 1485.97 548.6 1506.71 523.59C1526.64 499.59 1524.61 443.59 1563.71 431.91H1586.75V597.91H1348.05L1348.03 565.93Z" fill="#EDB48E"/>
<path d="M1537.26 623.701H1412.88C1409.93 623.701 1407.53 626.096 1407.53 629.051V642.761C1407.53 645.716 1409.93 648.111 1412.88 648.111H1537.26C1540.21 648.111 1542.61 645.716 1542.61 642.761V629.051C1542.61 626.096 1540.21 623.701 1537.26 623.701Z" fill="#F4CAAB"/>
<path d="M1537.26 670.08H1412.88C1409.93 670.08 1407.53 672.475 1407.53 675.43V689.14C1407.53 692.095 1409.93 694.49 1412.88 694.49H1537.26C1540.21 694.49 1542.61 692.095 1542.61 689.14V675.43C1542.61 672.475 1540.21 670.08 1537.26 670.08Z" fill="#F4CAAB"/>
<path d="M1537.26 716.461H1412.88C1409.93 716.461 1407.53 718.856 1407.53 721.811V735.521C1407.53 738.476 1409.93 740.871 1412.88 740.871H1537.26C1540.21 740.871 1542.61 738.476 1542.61 735.521V721.811C1542.61 718.856 1540.21 716.461 1537.26 716.461Z" fill="#F4CAAB"/>
</g>
<path d="M850.9 336.98H514.26C508.356 336.98 503.57 341.767 503.57 347.67V618.39C503.57 624.294 508.356 629.08 514.26 629.08H850.9C856.804 629.08 861.59 624.294 861.59 618.39V347.67C861.59 341.767 856.804 336.98 850.9 336.98Z" fill="#F7E0CA"/>
<path d="M569.29 390.92C573.92 387.92 578.271 384.51 582.29 380.73C585.73 377.47 590.16 373.58 590.62 368.55C590.74 367.509 590.644 366.455 590.338 365.454C590.032 364.452 589.522 363.525 588.84 362.73C588.026 361.955 587.065 361.351 586.014 360.952C584.963 360.554 583.843 360.369 582.72 360.41C578.083 360.396 573.555 361.81 569.75 364.46C565.777 367.209 562.206 370.497 559.14 374.23C555.95 377.92 552.42 381.98 551.23 386.83C550.653 388.874 550.754 391.05 551.516 393.033C552.278 395.016 553.662 396.698 555.46 397.83C558.85 399.96 563.21 400.29 567.09 399.73C577.39 398.25 586.73 391.24 591.7 382.22C591.778 382.087 591.824 381.939 591.834 381.785C591.845 381.632 591.821 381.479 591.763 381.337C591.705 381.194 591.615 381.068 591.5 380.966C591.385 380.864 591.248 380.79 591.1 380.75C589.833 380.54 588.532 380.776 587.42 381.418C586.308 382.06 585.452 383.068 585 384.27C584.496 385.518 584.401 386.895 584.728 388.201C585.055 389.507 585.787 390.676 586.82 391.54C592.16 396.35 599.82 393.12 605.37 390.37C608.679 388.862 611.557 386.548 613.74 383.64C613.851 383.449 613.895 383.226 613.866 383.007C613.837 382.789 613.736 382.585 613.58 382.43C611.58 380.3 607.85 381.15 606.46 383.6C604.74 386.6 606.92 390.38 609.76 391.74C613.37 393.47 617.82 392.51 621.35 391.03C624.915 389.546 628.039 387.17 630.42 384.13C630.543 384.006 630.632 383.852 630.678 383.684C630.723 383.515 630.724 383.337 630.679 383.168C630.635 382.999 630.547 382.845 630.424 382.721C630.301 382.596 630.148 382.506 629.98 382.46C627.13 381.74 625.26 384.67 625.48 387.23C625.79 390.9 629.87 392 632.96 391.82C637.069 391.463 641.089 390.415 644.85 388.72C648.765 387.068 652.388 384.795 655.58 381.99C655.703 381.866 655.792 381.712 655.838 381.544C655.883 381.375 655.884 381.197 655.839 381.028C655.795 380.86 655.707 380.705 655.584 380.581C655.461 380.457 655.308 380.366 655.14 380.32C651.88 379.54 649.99 383.58 651.5 386.13C653.26 389.13 657.56 389.84 660.71 389.95C664.188 390.056 667.638 389.288 670.742 387.715C673.847 386.143 676.507 383.817 678.48 380.95C678.95 380.25 678.3 379.53 677.61 379.44C675.15 379.13 673.46 381.94 673.99 384.14C674.69 387.14 678.12 388.46 680.72 389.21C683.784 390.233 687.118 390.087 690.08 388.8C691.342 388.213 692.444 387.331 693.292 386.227C694.14 385.123 694.709 383.831 694.95 382.46C695.06 381.68 694.29 380.79 693.48 381.33C692.524 382.019 691.852 383.031 691.587 384.179C691.322 385.327 691.483 386.532 692.04 387.57C693.34 390.2 696.45 391.26 699.16 391.57C702.078 391.919 705.037 391.556 707.784 390.511C710.53 389.466 712.983 387.771 714.93 385.57C715.091 385.413 715.195 385.206 715.224 384.982C715.254 384.759 715.207 384.532 715.091 384.339C714.975 384.146 714.798 383.997 714.587 383.917C714.376 383.838 714.145 383.831 713.93 383.9C713.246 384.004 712.598 384.272 712.041 384.681C711.484 385.09 711.034 385.629 710.73 386.25C710.05 387.64 710.83 388.75 711.91 389.69C714.07 391.58 717.19 391.89 719.91 391.9C728.55 391.9 737.21 391.45 745.84 391.22L760.84 390.82C762.13 390.82 762.13 388.82 760.84 388.82L733.67 389.55C729.27 389.66 724.87 389.84 720.47 389.9C717.58 389.9 713.79 389.78 712.27 386.9L712.37 387.67C712.484 387.182 712.75 386.744 713.129 386.417C713.508 386.09 713.981 385.891 714.48 385.85L713.48 384.18C712.01 385.861 710.211 387.222 708.193 388.179C706.175 389.135 703.982 389.666 701.75 389.74C699.512 389.901 697.278 389.393 695.33 388.28C693.73 387.22 692.45 384.4 694.48 383.04L693.01 381.92C692.37 386.49 687.59 388.32 683.47 387.76C681.263 387.533 679.147 386.764 677.31 385.52C676.861 385.254 676.493 384.87 676.246 384.41C675.999 383.95 675.883 383.431 675.91 382.91C675.921 382.701 675.974 382.496 676.066 382.308C676.158 382.12 676.286 381.952 676.443 381.814C676.601 381.676 676.784 381.571 676.983 381.505C677.181 381.439 677.391 381.413 677.6 381.43L676.74 379.93C675.268 382.055 673.372 383.851 671.17 385.206C668.969 386.56 666.51 387.444 663.95 387.8C661.437 388.169 658.873 387.981 656.44 387.25C655.16 386.84 653.51 386.11 653.01 384.73C652.66 383.73 653.33 381.95 654.6 382.25L654.16 380.58C649.221 384.815 643.307 387.756 636.95 389.14C634.34 389.73 630.46 390.66 628.23 388.61C627.06 387.54 627.23 383.8 629.43 384.35L628.99 382.68C625.54 387.09 620.1 390.45 614.39 390.61C611.66 390.69 608.39 389.53 607.92 386.47C607.799 385.905 607.862 385.316 608.102 384.79C608.341 384.264 608.744 383.829 609.25 383.55C609.693 383.258 610.222 383.125 610.75 383.173C611.279 383.22 611.775 383.444 612.16 383.81L612 382.6C610.036 385.161 607.47 387.198 604.53 388.53C601.53 390.06 598.09 391.64 594.67 391.94C591.75 392.2 588.31 391.23 586.91 388.41C585.73 386.02 587.51 382.04 590.56 382.65L589.96 381.18C585.912 388.497 579.251 394.018 571.31 396.64C567.742 397.938 563.89 398.249 560.16 397.54C556.62 396.74 553.37 394.47 552.91 390.62C552.35 385.98 555.68 381.56 558.43 378.17C561.051 374.839 563.963 371.747 567.13 368.93C570.172 366.167 573.804 364.136 577.75 362.99C581.38 362.06 587.4 361.63 588.46 366.35C589.63 371.5 584.46 375.88 581.16 379.03C577.188 382.815 572.873 386.223 568.27 389.21C567.2 389.91 568.2 391.64 569.27 390.94L569.29 390.92Z" fill="#EFBC96"/>
<path d="M547.9 433.05C550.329 430.44 553.386 428.494 556.78 427.4C559.18 426.64 564.78 425.13 566 428.4C567.11 431.4 564 434.88 562.12 436.85C559.607 439.472 556.648 441.625 553.38 443.21L554.59 444.78C559.253 439.032 565.469 434.745 572.5 432.43C575.35 431.51 580.41 429.72 581.21 434.04C581.91 437.86 578.21 440.4 575.48 442.25L576.69 443.82C580.58 440.56 584.69 437.13 589.61 435.59C591.48 435.01 595.4 433.84 596.04 436.59C596.65 439.18 594.15 441.07 592.34 442.42L593.7 443.78C597.1 438.95 602.32 435.7 607.7 433.47C609.99 432.52 614.26 431.32 615.64 434.39C616.89 437.17 613.3 439.73 611.35 440.99L612.56 442.56C618.485 437.112 626.328 434.236 634.37 434.56C635.52 434.56 638 434.41 638.37 435.81C638.74 437.21 637.37 438.65 636.37 439.4C635.107 440.169 633.928 441.068 632.85 442.08C632.23 442.74 632.85 444.15 633.85 443.75C637.351 442.325 640.95 441.155 644.62 440.25C646.281 439.73 647.995 439.395 649.73 439.25C651.52 439.25 652.49 440.73 654 441.45C659.77 444.24 665.59 439.87 668.86 435.35C670.25 433.43 671.37 430.08 668.69 428.65C666.41 427.43 663.87 429.65 662.69 431.39C661.11 433.72 659.92 437.05 661.29 439.73C662.47 442.05 665.05 442.98 667.46 443.33C671.321 443.765 675.209 443.895 679.09 443.72C683.5 443.66 687.9 443.39 692.28 442.94C693.55 442.81 693.56 440.8 692.28 440.94C686.112 441.578 679.91 441.832 673.71 441.7C669.77 441.61 661.14 441.92 662.93 435.53C663.286 434.264 663.883 433.079 664.69 432.04C665.28 431.3 666.59 429.98 667.69 430.37C670.22 431.27 666.02 435.82 665.23 436.64C663.452 438.67 660.981 439.964 658.3 440.27C657.06 440.365 655.818 440.115 654.71 439.55C653.71 438.99 652.9 438.05 651.79 437.55C650.493 437.135 649.103 437.107 647.79 437.47C646.16 437.77 644.55 438.15 642.95 438.56C639.675 439.424 636.458 440.496 633.32 441.77L634.32 443.44C636.56 441.02 640.89 439.88 640.48 435.79C640.11 432.04 634.96 432.41 632.24 432.5C624.446 432.789 617.006 435.829 611.24 441.08C611.063 441.252 610.955 441.482 610.938 441.728C610.92 441.974 610.995 442.218 611.146 442.413C611.297 442.607 611.515 442.739 611.757 442.783C612 442.827 612.25 442.78 612.46 442.65C615.06 440.97 618.4 438.31 617.92 434.81C617.44 431.31 613.8 430 610.76 430.45C607.09 430.98 603.3 433.12 600.21 435.09C597.025 437.074 594.259 439.663 592.07 442.71C591.51 443.51 592.64 444.71 593.43 444.08C595.75 442.36 598.34 440.25 598.21 437.08C598.08 433.91 595.5 432.55 592.62 432.87C585.88 433.62 580.38 438.15 575.36 442.35C574.5 443.07 575.64 444.55 576.58 443.92C579.18 442.16 582.11 440.14 583.07 436.97C583.83 434.5 583.19 431.3 580.86 429.87C578.05 428.16 573.92 429.77 571.12 430.76C564.129 433.223 557.953 437.565 553.27 443.31C553.1 443.482 552.998 443.71 552.983 443.952C552.968 444.194 553.041 444.433 553.189 444.624C553.336 444.816 553.549 444.948 553.786 444.995C554.024 445.042 554.27 445.001 554.48 444.88C557.526 443.392 560.32 441.435 562.76 439.08C564.94 436.97 567.17 434.46 567.99 431.46C568.74 428.72 567.86 425.84 564.99 424.8C562.12 423.76 558.49 424.62 555.74 425.57C552.234 426.798 549.077 428.857 546.54 431.57C545.66 432.51 547.07 433.93 547.95 432.99L547.9 433.05Z" fill="#EFBC96"/>
<path d="M699.68 433.74C702.75 438.84 709.01 440.12 714.51 439.13C717.667 438.606 720.712 437.544 723.51 435.99C725.63 434.74 727.23 432.49 726.36 429.99C725.49 427.49 722.79 427.23 720.73 428.5C718.45 429.9 716.54 432.13 716.93 434.96C717.82 441.35 725.31 441.87 730.33 440.96C736.54 439.88 743.23 435.42 742.59 428.33C742.592 428.153 742.546 427.978 742.458 427.824C742.37 427.67 742.243 427.542 742.089 427.454C741.936 427.365 741.761 427.319 741.584 427.32C741.406 427.321 741.233 427.37 741.08 427.46C740.211 427.954 739.504 428.689 739.045 429.577C738.585 430.464 738.392 431.466 738.49 432.46C738.573 433.499 738.9 434.504 739.444 435.394C739.987 436.283 740.733 437.032 741.62 437.58C743.878 438.904 746.452 439.595 749.07 439.58C752.114 439.707 755.157 439.314 758.07 438.42C761.02 437.52 763.6 435.89 766.44 434.74C768.8 433.74 771.74 433.22 774.03 434.68C775.18 435.41 775.61 436.59 776.36 437.68C777.013 438.632 777.936 439.367 779.01 439.79C781.161 440.533 783.515 440.426 785.59 439.49C788.47 438.31 790.7 436.05 793.43 434.61C795.82 433.36 799.2 432.92 801.06 435.26C801.86 436.26 803.27 434.85 802.48 433.85C799.48 430.07 794.05 431.7 790.66 433.94C788.52 435.37 786.48 437.22 783.96 437.94C781.75 438.58 779.21 438.4 777.86 436.31C777.345 435.325 776.695 434.416 775.93 433.61C775.106 432.901 774.131 432.388 773.08 432.11C770.823 431.572 768.453 431.761 766.31 432.65C763.6 433.65 761.15 435.26 758.4 436.21C755.607 437.18 752.666 437.651 749.71 437.6C746.98 437.55 743.71 437.18 741.71 435.11C740.15 433.51 739.84 430.34 742.08 429.18L740.58 428.32C740.99 432.94 737.48 436.57 733.38 438.08C729.68 439.45 723.61 440.55 720.43 437.51C719 436.15 718.29 433.93 719.43 432.2C720.27 430.97 723.73 428.06 724.43 430.75C725.02 432.9 722.68 434.21 721.04 434.93C718.82 435.924 716.495 436.665 714.11 437.14C709.46 438.03 703.94 437.07 701.32 432.71C701.182 432.492 700.964 432.337 700.714 432.275C700.463 432.214 700.199 432.252 699.976 432.381C699.752 432.51 699.588 432.72 699.516 432.968C699.444 433.216 699.47 433.482 699.59 433.71L699.68 433.74Z" fill="#EFBC96"/>
<path d="M545.33 475.461C548.098 472.3 551.234 469.48 554.67 467.061C556.383 465.867 558.162 464.772 560 463.781C561.669 462.824 563.436 462.05 565.27 461.471C566.881 460.905 568.629 460.856 570.27 461.331C571.051 461.665 571.73 462.201 572.234 462.885C572.739 463.569 573.051 464.375 573.14 465.221C573.338 466.969 573.261 468.737 572.91 470.461C572.738 471.892 572.423 473.302 571.97 474.671C570.9 477.671 568.43 479.541 565.66 480.961L567.03 482.331C568.53 479.121 570.29 476.011 573.38 474.091C575.002 473.141 576.722 472.37 578.51 471.791C580.23 471.191 583.13 470.301 584.21 472.411C585.46 474.861 583.21 477.191 581.32 478.411L582.68 478.771C582.32 477.951 583.45 476.951 583.98 476.511C584.872 475.774 585.818 475.105 586.81 474.511C588.836 473.271 590.997 472.264 593.25 471.511C595.175 470.795 597.199 470.38 599.25 470.281C600.903 470.156 602.553 470.563 603.96 471.441C604.656 471.94 605.146 472.676 605.34 473.511C605.406 473.742 605.419 473.985 605.379 474.222C605.339 474.459 605.247 474.684 605.11 474.881C604.93 475.081 604.49 475.291 604.25 475.081L604.4 476.291C605.174 474.853 606.241 473.595 607.534 472.597C608.826 471.6 610.313 470.885 611.9 470.501C615.9 469.341 620.22 469.791 624.32 470.211C624.585 470.211 624.839 470.105 625.027 469.918C625.215 469.73 625.32 469.476 625.32 469.211C625.32 468.946 625.215 468.691 625.027 468.504C624.839 468.316 624.585 468.211 624.32 468.211C619.92 467.761 615.32 467.341 611.01 468.671C609.246 469.153 607.598 469.987 606.164 471.123C604.731 472.259 603.542 473.674 602.67 475.281C602.559 475.472 602.515 475.694 602.544 475.913C602.573 476.132 602.673 476.335 602.83 476.491C603.343 476.93 604.002 477.16 604.677 477.134C605.352 477.108 605.992 476.828 606.47 476.351C606.946 475.813 607.256 475.15 607.364 474.441C607.473 473.731 607.374 473.005 607.08 472.351C606.63 471.317 605.92 470.417 605.02 469.739C604.119 469.061 603.058 468.627 601.94 468.481C599.486 468.089 596.976 468.263 594.6 468.991C591.686 469.777 588.891 470.951 586.29 472.481C583.94 473.861 579.48 476.361 580.99 479.711C581.056 479.824 581.144 479.924 581.249 480.004C581.353 480.083 581.473 480.142 581.6 480.175C581.727 480.209 581.86 480.217 581.99 480.199C582.121 480.181 582.246 480.137 582.36 480.071C584.64 478.611 586.82 476.301 586.55 473.381C586.507 472.721 586.324 472.077 586.013 471.493C585.703 470.908 585.273 470.396 584.75 469.991C583.637 469.218 582.269 468.903 580.93 469.111C579.598 469.302 578.294 469.658 577.05 470.171C575.964 470.565 574.899 471.015 573.86 471.521C572.133 472.353 570.577 473.499 569.27 474.901C567.626 476.82 566.278 478.973 565.27 481.291C565.161 481.482 565.119 481.703 565.148 481.921C565.178 482.138 565.279 482.34 565.435 482.495C565.59 482.65 565.793 482.749 566.011 482.777C566.229 482.805 566.45 482.761 566.64 482.651C569.45 481.211 572.08 479.271 573.4 476.321C574.007 474.914 574.43 473.435 574.66 471.921C575.064 469.995 575.245 468.028 575.2 466.061C575.195 465.032 574.983 464.014 574.575 463.069C574.168 462.124 573.575 461.271 572.83 460.561C572.077 459.955 571.211 459.506 570.281 459.239C569.352 458.973 568.379 458.895 567.42 459.011C565.4 459.227 563.434 459.796 561.61 460.691C559.541 461.668 557.537 462.777 555.61 464.011C551.263 466.775 547.331 470.142 543.93 474.011C543.08 475.011 544.49 476.401 545.34 475.431L545.33 475.461Z" fill="#EFBC96"/>
<path d="M871.4 447.199L1007.99 346.449" stroke="#F6DDC8" stroke-width="7" stroke-linecap="round" stroke-linejoin="round"/>
<path d="M972.66 340.32C985.891 344.861 999.815 347.051 1013.8 346.79L1012.28 341.2C1006.81 345.335 1002.78 351.082 1000.75 357.63C998.26 364.98 997.9 372.88 997.54 380.57C997.54 381.366 997.856 382.129 998.419 382.692C998.982 383.254 999.745 383.57 1000.54 383.57C1001.34 383.57 1002.1 383.254 1002.66 382.692C1003.22 382.129 1003.54 381.366 1003.54 380.57C1004.09 368.8 1004.8 354.01 1015.33 346.38C1015.89 346.033 1016.32 345.518 1016.57 344.909C1016.82 344.3 1016.87 343.629 1016.71 342.99C1016.54 342.358 1016.16 341.801 1015.64 341.403C1015.11 341.006 1014.48 340.791 1013.82 340.79C1000.37 341.035 986.985 338.916 974.27 334.53C973.504 334.318 972.685 334.42 971.993 334.812C971.301 335.203 970.793 335.854 970.58 336.62C970.385 337.389 970.494 338.203 970.885 338.893C971.277 339.583 971.92 340.094 972.68 340.32H972.66Z" fill="#F6DDC8"/>
<path d="M870.05 479.65L1010.01 559.78" stroke="#F6DDC8" stroke-width="7" stroke-linecap="round" stroke-linejoin="round"/>
<path d="M988.75 519.36C991.418 537.228 1001 553.333 1015.42 564.21L1017.73 558.73C1011.86 557.354 1005.77 557.206 999.838 558.295C993.908 559.384 988.268 561.687 983.27 565.06C982.597 565.473 982.11 566.13 981.908 566.894C981.707 567.657 981.808 568.469 982.19 569.16C982.388 569.501 982.652 569.8 982.966 570.039C983.281 570.278 983.639 570.453 984.021 570.553C984.402 570.654 984.8 570.678 985.192 570.624C985.583 570.57 985.959 570.44 986.3 570.24C990.606 567.275 995.48 565.235 1000.61 564.249C1005.75 563.262 1011.03 563.351 1016.13 564.51C1016.83 564.697 1017.58 564.624 1018.23 564.304C1018.88 563.984 1019.39 563.439 1019.67 562.77C1019.94 562.103 1019.97 561.362 1019.74 560.677C1019.52 559.993 1019.06 559.409 1018.45 559.03C1005.45 548.874 996.887 534.086 994.54 517.76C994.3 516.16 992.27 515.28 990.85 515.67C990.093 515.898 989.453 516.409 989.062 517.095C988.672 517.782 988.56 518.593 988.75 519.36Z" fill="#F6DDC8"/>
<path d="M1247.68 509.4H1035.37C1030.52 509.4 1026.58 513.336 1026.58 518.19V594.6C1026.58 599.455 1030.52 603.39 1035.37 603.39H1247.68C1252.53 603.39 1256.47 599.455 1256.47 594.6V518.19C1256.47 513.336 1252.53 509.4 1247.68 509.4Z" fill="#F7E0CA"/>
<path d="M1136.45 528.33V590.54" stroke="#EFBC96" stroke-miterlimit="10"/>
<path d="M1057.5 547.471C1059.86 551.651 1066.02 551.181 1069.97 550.171C1074.82 548.906 1079.09 546.006 1082.06 541.961C1082.13 541.847 1082.17 541.722 1082.19 541.591C1082.21 541.461 1082.2 541.328 1082.16 541.201C1082.13 541.074 1082.07 540.954 1081.99 540.85C1081.91 540.745 1081.81 540.657 1081.7 540.591C1079.49 539.061 1076.4 540.801 1075.87 543.261C1075.16 546.541 1078.39 549.101 1081.27 549.621C1083.12 549.856 1085 549.836 1086.85 549.561L1093.75 548.871L1107.07 547.541C1108.34 547.421 1108.35 545.421 1107.07 545.541L1087.34 547.541C1084.63 547.811 1081.18 548.461 1078.96 546.431C1078.08 545.631 1077.37 544.261 1078.06 543.121C1078.18 542.891 1078.34 542.687 1078.53 542.522C1078.73 542.357 1078.96 542.235 1079.21 542.162C1079.45 542.09 1079.71 542.07 1079.97 542.102C1080.22 542.134 1080.47 542.219 1080.69 542.351L1080.33 540.981C1077.81 544.376 1074.25 546.861 1070.19 548.061C1067.07 548.991 1061.19 549.981 1059.19 546.491C1059.05 546.273 1058.83 546.117 1058.58 546.056C1058.33 545.995 1058.07 546.032 1057.85 546.161C1057.62 546.29 1057.46 546.501 1057.39 546.749C1057.31 546.996 1057.34 547.262 1057.46 547.491L1057.5 547.471Z" fill="#EFBC96"/>
<path d="M1056.22 570.38C1059.22 569.78 1060.44 566.18 1059.37 563.56C1058.09 560.42 1054.14 560.17 1051.64 561.98C1048.72 564.11 1048.64 567.98 1050.92 570.65C1053.6 573.8 1057.92 574.28 1061.63 572.85C1063.86 571.912 1065.93 570.626 1067.76 569.04C1069.75 567.629 1071.27 565.654 1072.13 563.37C1072.18 563.2 1072.18 563.02 1072.13 562.849C1072.09 562.678 1072 562.522 1071.87 562.397C1071.75 562.272 1071.59 562.182 1071.42 562.137C1071.25 562.092 1071.07 562.093 1070.9 562.14C1069.39 562.417 1067.98 563.068 1066.79 564.032C1065.6 564.997 1064.67 566.244 1064.09 567.66C1062.93 570.51 1063.84 573.66 1067.25 573.97C1073.62 574.52 1080.11 570.34 1083.39 565.12C1083.48 564.968 1083.53 564.795 1083.53 564.619C1083.53 564.442 1083.49 564.268 1083.4 564.115C1083.31 563.962 1083.18 563.834 1083.03 563.745C1082.88 563.657 1082.71 563.61 1082.53 563.61C1078.7 563.8 1072.62 566.96 1075.25 571.68C1077.77 576.19 1084.62 574.46 1088.25 572.68C1089.93 571.85 1093.37 569.97 1091.56 567.68C1091.28 567.321 1090.92 567.034 1090.5 566.841C1090.09 566.648 1089.64 566.556 1089.18 566.572C1088.73 566.587 1088.28 566.71 1087.88 566.931C1087.49 567.151 1087.15 567.463 1086.89 567.84C1085.66 569.97 1087.25 572.51 1089.26 573.37C1090.54 573.839 1091.9 574.04 1093.26 573.96C1095.05 573.96 1096.85 573.89 1098.65 573.85L1123.6 573.35C1123.87 573.35 1124.12 573.245 1124.31 573.057C1124.49 572.87 1124.6 572.615 1124.6 572.35C1124.6 572.085 1124.49 571.83 1124.31 571.643C1124.12 571.455 1123.87 571.35 1123.6 571.35C1113.6 571.55 1103.6 571.79 1093.66 571.95C1091.91 571.95 1088.98 572.08 1088.48 569.86C1088.32 569.17 1088.57 568.41 1089.38 568.59C1090.72 568.89 1089.2 569.82 1088.67 570.14C1085.82 571.91 1081.41 573.65 1078.18 571.84C1077.81 571.661 1077.49 571.396 1077.24 571.068C1076.99 570.739 1076.82 570.356 1076.75 569.95C1076.68 569.544 1076.71 569.128 1076.83 568.735C1076.96 568.341 1077.17 567.983 1077.46 567.69C1078.82 566.383 1080.63 565.646 1082.52 565.63L1081.66 564.13C1080.36 566.181 1078.64 567.931 1076.61 569.264C1074.59 570.597 1072.3 571.482 1069.9 571.86C1068.9 572.01 1067.35 572.28 1066.39 571.77C1065.14 571.11 1065.51 569.39 1065.96 568.33C1066.45 567.226 1067.2 566.26 1068.16 565.518C1069.11 564.776 1070.23 564.282 1071.42 564.08L1070.19 562.85C1069.48 564.673 1068.25 566.248 1066.66 567.38C1065.15 568.709 1063.47 569.829 1061.66 570.71C1058.35 572.22 1054.01 572.07 1051.94 568.65C1051.5 568 1051.28 567.226 1051.31 566.442C1051.34 565.658 1051.62 564.904 1052.11 564.29C1052.57 563.731 1053.17 563.308 1053.85 563.068C1054.53 562.828 1055.26 562.78 1055.97 562.93C1058.56 563.67 1058.3 567.93 1055.72 568.47C1054.45 568.72 1054.99 570.65 1056.25 570.4L1056.22 570.38Z" fill="#EFBC96"/>
<path d="M1162.57 549.99C1161.71 547.2 1166.1 545.67 1168.02 544.99C1171.01 544 1174.13 543.488 1177.28 543.47L1176.28 542.2C1175.85 544.778 1174.77 547.202 1173.13 549.239C1171.49 551.276 1169.36 552.857 1166.93 553.83L1168.06 554.29C1167.25 552.8 1171.24 550.95 1172.14 550.44C1177.68 547.276 1183.71 545.081 1189.99 543.95L1188.76 543.25C1188.87 543.765 1188.88 544.298 1188.78 544.816C1188.68 545.334 1188.48 545.826 1188.18 546.263C1187.89 546.7 1187.51 547.072 1187.06 547.356C1186.62 547.641 1186.12 547.833 1185.6 547.92L1186.46 548.41C1186.01 547.53 1189.72 546.82 1190.11 546.72L1195.18 545.47C1196.7 544.998 1198.26 544.644 1199.84 544.41C1200.57 544.35 1201.59 544.41 1201.89 545.24C1202.09 545.8 1201.51 546.02 1201.46 545.66L1200.75 546.99C1210.62 544.45 1220.98 544.54 1230.81 547.25C1231.07 547.32 1231.34 547.286 1231.57 547.154C1231.8 547.023 1231.97 546.806 1232.04 546.55C1232.11 546.294 1232.08 546.02 1231.94 545.79C1231.81 545.559 1231.6 545.39 1231.34 545.32C1221.17 542.523 1210.44 542.437 1200.22 545.07C1200.09 545.104 1199.97 545.164 1199.87 545.244C1199.77 545.325 1199.68 545.425 1199.61 545.54C1199.55 545.654 1199.51 545.78 1199.49 545.91C1199.48 546.041 1199.49 546.173 1199.52 546.3C1199.84 548.3 1202.9 548.39 1203.73 546.7C1203.94 546.199 1204 545.647 1203.9 545.114C1203.8 544.58 1203.54 544.088 1203.16 543.7C1202.7 543.236 1202.13 542.89 1201.5 542.69C1200.88 542.49 1200.22 542.442 1199.57 542.55C1197.9 542.813 1196.26 543.187 1194.64 543.67L1189.09 545.03C1187.09 545.53 1183.3 546.71 1184.73 549.54C1184.82 549.691 1184.94 549.817 1185.09 549.904C1185.24 549.992 1185.42 550.039 1185.59 550.04C1186.42 549.944 1187.21 549.675 1187.93 549.251C1188.64 548.826 1189.26 548.256 1189.74 547.576C1190.22 546.896 1190.55 546.123 1190.71 545.307C1190.87 544.491 1190.86 543.65 1190.67 542.84C1190.64 542.713 1190.58 542.594 1190.5 542.49C1190.41 542.387 1190.31 542.3 1190.2 542.235C1190.09 542.17 1189.96 542.128 1189.83 542.112C1189.7 542.095 1189.57 542.105 1189.44 542.14C1184.38 543.081 1179.46 544.681 1174.82 546.9C1172.5 547.945 1170.29 549.194 1168.19 550.63C1166.66 551.74 1165.29 553.53 1166.32 555.42C1166.43 555.61 1166.6 555.759 1166.81 555.842C1167.01 555.925 1167.24 555.939 1167.45 555.88C1170.21 554.819 1172.65 553.065 1174.53 550.788C1176.41 548.511 1177.68 545.787 1178.2 542.88C1178.24 542.729 1178.25 542.57 1178.21 542.417C1178.18 542.264 1178.12 542.12 1178.02 541.997C1177.92 541.875 1177.8 541.777 1177.65 541.711C1177.51 541.646 1177.36 541.614 1177.2 541.62C1173.12 541.639 1169.07 542.451 1165.3 544.01C1162.71 545.09 1159.57 547.42 1160.56 550.63C1160.94 551.86 1162.87 551.33 1162.49 550.1L1162.57 549.99Z" fill="#EFBC96"/>
<path d="M1158.35 567.26C1159.48 571.06 1163.58 572.92 1167.35 572.57C1172.15 572.12 1175.77 568.37 1178.87 565.04C1179.4 564.47 1179.08 563.23 1178.16 563.33C1175.5 563.63 1174.32 566.63 1175.34 568.96C1176.63 571.96 1180.5 572.36 1183.34 572.35C1189.62 572.35 1196.27 569.85 1199.61 564.26C1199.7 564.108 1199.75 563.934 1199.75 563.756C1199.75 563.579 1199.7 563.404 1199.62 563.251C1199.53 563.097 1199.4 562.97 1199.25 562.882C1199.09 562.794 1198.92 562.748 1198.74 562.75C1198.33 562.782 1197.93 562.9 1197.57 563.096C1197.21 563.292 1196.9 563.561 1196.65 563.886C1196.4 564.211 1196.22 564.585 1196.12 564.984C1196.03 565.382 1196.02 565.797 1196.09 566.2C1196.31 568.48 1198.47 569.47 1200.51 569.66C1202.99 569.836 1205.48 569.674 1207.92 569.18C1210.35 568.816 1212.6 567.72 1214.39 566.04L1212.72 565.6C1213.38 568.6 1216.72 569.53 1219.43 569.79C1223.89 570.169 1228.37 570.001 1232.79 569.29C1234.06 569.1 1233.52 567.17 1232.26 567.36C1228.66 567.911 1225.01 568.099 1221.37 567.92C1219.21 567.81 1215.24 567.78 1214.64 565.07C1214.59 564.902 1214.5 564.749 1214.38 564.626C1214.25 564.503 1214.1 564.415 1213.93 564.371C1213.76 564.326 1213.58 564.327 1213.42 564.372C1213.25 564.418 1213.09 564.507 1212.97 564.63C1210.57 567.01 1207.1 567.45 1203.88 567.63C1202.39 567.72 1200.49 568.01 1199.11 567.31C1198.83 567.2 1198.59 567.014 1198.41 566.774C1198.24 566.533 1198.13 566.248 1198.11 565.95C1198.11 565.49 1198.22 564.78 1198.78 564.76L1197.92 563.26C1195.47 567.36 1190.92 569.51 1186.32 570.15C1183.99 570.594 1181.59 570.481 1179.32 569.82C1178.75 569.671 1178.24 569.363 1177.85 568.932C1177.45 568.502 1177.19 567.966 1177.09 567.39C1177.03 566.62 1177.36 565.44 1178.27 565.39L1177.57 563.68C1174.97 566.47 1172.04 569.68 1168.14 570.52C1165.14 571.14 1161.34 569.95 1160.4 566.79C1160.31 566.556 1160.14 566.364 1159.92 566.251C1159.7 566.138 1159.44 566.112 1159.2 566.178C1158.96 566.245 1158.75 566.399 1158.62 566.61C1158.48 566.821 1158.44 567.074 1158.48 567.32L1158.35 567.26Z" fill="#EFBC96"/>
<path d="M1246.54 298.439H1036.5C1031.58 298.439 1027.59 302.429 1027.59 307.349V380.469C1027.59 385.39 1031.58 389.379 1036.5 389.379H1246.54C1251.46 389.379 1255.45 385.39 1255.45 380.469V307.349C1255.45 302.429 1251.46 298.439 1246.54 298.439Z" fill="#F7E0CA"/>
<path d="M1051.6 348.58C1057.4 344.309 1062.6 339.262 1067.03 333.58C1069.11 330.9 1078.79 319.26 1070.62 318.24C1067.09 317.8 1063.54 319.24 1060.53 320.92C1057.58 322.475 1055.06 324.74 1053.2 327.51C1052.37 328.771 1051.88 330.226 1051.77 331.734C1051.67 333.241 1051.96 334.749 1052.62 336.11C1053.34 337.412 1054.34 338.536 1055.55 339.401C1056.77 340.266 1058.15 340.85 1059.62 341.11C1067.4 342.5 1075.06 336.72 1078.5 330.11C1078.6 329.885 1078.62 329.629 1078.54 329.394C1078.47 329.158 1078.31 328.958 1078.09 328.834C1077.88 328.709 1077.62 328.669 1077.38 328.72C1077.14 328.771 1076.93 328.91 1076.78 329.11C1075 331.42 1073.24 334.64 1074.1 337.65C1075.02 340.88 1078.5 341.74 1081.44 342.01C1084.47 342.218 1087.52 341.808 1090.39 340.804C1093.26 339.8 1095.9 338.224 1098.14 336.17C1100.73 333.831 1102.7 330.896 1103.9 327.62C1103.93 327.494 1103.94 327.361 1103.93 327.231C1103.91 327.1 1103.87 326.974 1103.81 326.86C1103.74 326.746 1103.65 326.646 1103.55 326.565C1103.45 326.484 1103.33 326.425 1103.2 326.39C1100.04 325.6 1097.36 328.39 1097.08 331.39C1096.76 334.86 1099.82 337.39 1102.82 338.39C1109.82 340.65 1117.82 336.39 1120.82 329.95C1120.92 329.778 1120.97 329.58 1120.96 329.382C1120.94 329.183 1120.87 328.992 1120.75 328.834C1120.63 328.676 1120.46 328.558 1120.27 328.495C1120.09 328.432 1119.88 328.427 1119.69 328.48C1116.69 329.35 1116.2 333.27 1117.83 335.59C1120.08 338.79 1124.93 338.59 1128.37 338.67C1136.75 338.84 1146.15 337.44 1151.23 329.95C1151.33 329.778 1151.38 329.58 1151.37 329.382C1151.35 329.183 1151.28 328.992 1151.16 328.834C1151.04 328.676 1150.87 328.558 1150.68 328.495C1150.5 328.432 1150.29 328.427 1150.1 328.48C1149.74 328.608 1149.42 328.806 1149.14 329.063C1148.86 329.319 1148.63 329.629 1148.47 329.974C1148.32 330.319 1148.23 330.692 1148.22 331.071C1148.21 331.449 1148.27 331.827 1148.41 332.18C1149.03 333.98 1151.06 334.65 1152.75 334.97C1157.42 335.822 1162.24 335.218 1166.56 333.24C1168.85 332.24 1171.5 330.9 1174 332C1176 332.9 1177.54 334.6 1179.71 335.29C1184.27 336.76 1189.42 334.84 1194 334.4C1199.94 333.832 1205.94 334.169 1211.78 335.4C1213.04 335.67 1213.57 333.74 1212.31 333.47C1207.86 332.517 1203.32 332.064 1198.77 332.12C1196.46 332.152 1194.16 332.319 1191.87 332.62C1189.72 332.9 1187.59 333.38 1185.44 333.62C1183.31 334.008 1181.1 333.746 1179.12 332.87C1177.44 331.99 1176.12 330.59 1174.28 329.93C1170.19 328.46 1166.28 331.55 1162.44 332.61C1160.09 333.267 1157.65 333.494 1155.22 333.28C1153.99 333.221 1152.77 332.982 1151.61 332.57C1151.05 332.35 1149.29 330.84 1150.61 330.38L1149.55 328.99C1145.61 334.81 1138.29 336.53 1131.67 336.71C1129.81 336.76 1127.95 336.71 1126.1 336.64C1124.55 336.661 1123 336.421 1121.53 335.93C1120.9 335.742 1120.34 335.39 1119.89 334.91C1119.45 334.43 1119.14 333.84 1119 333.2C1118.83 332.667 1118.87 332.092 1119.11 331.586C1119.34 331.079 1119.76 330.678 1120.27 330.46L1119.14 328.99C1117.97 331.489 1116.08 333.583 1113.71 335.007C1111.35 336.431 1108.62 337.121 1105.86 336.99C1103.35 336.83 1100.37 335.68 1099.35 333.2C1098.5 331.13 1100.15 327.71 1102.7 328.35L1102 327.12C1100.8 330.185 1098.88 332.915 1096.4 335.076C1093.92 337.237 1090.95 338.765 1087.75 339.53C1084.75 340.27 1080.82 340.53 1077.95 339.21C1074.03 337.33 1076.69 332.52 1078.53 330.13L1076.81 329.13C1074.15 334.21 1069.04 338.62 1063.17 339.25C1061.79 339.452 1060.38 339.329 1059.05 338.891C1057.73 338.454 1056.52 337.714 1055.53 336.73C1054.62 335.785 1054.02 334.58 1053.81 333.281C1053.61 331.981 1053.81 330.651 1054.39 329.47C1055.7 326.979 1057.68 324.902 1060.1 323.47C1062.69 321.78 1065.66 320.28 1068.8 320.12C1070.23 320.04 1072.19 320.12 1071.87 322.03C1071.52 323.291 1070.94 324.477 1070.16 325.53C1068.58 328.101 1066.85 330.576 1064.97 332.94C1060.8 338.175 1055.96 342.847 1050.59 346.84C1049.59 347.59 1050.59 349.33 1051.59 348.56L1051.6 348.58Z" fill="#EFBC96"/>
<path d="M1065.37 359.72C1067.01 361.231 1069.02 362.273 1071.2 362.738C1073.38 363.202 1075.64 363.072 1077.75 362.36C1082.33 360.93 1085.84 357.43 1088.56 353.61C1089.1 352.85 1088.21 351.97 1087.43 352.14C1084.88 352.7 1083.88 355.53 1084.43 357.87C1085.15 360.94 1088.43 362.19 1091.26 362.38C1094.96 362.491 1098.64 361.727 1101.99 360.15C1103.99 359.28 1109.62 356.79 1107.62 353.76C1107.55 353.647 1107.47 353.547 1107.36 353.467C1107.26 353.388 1107.14 353.33 1107.01 353.296C1106.88 353.263 1106.75 353.255 1106.62 353.273C1106.49 353.29 1106.36 353.334 1106.25 353.4C1103.82 354.52 1103.98 358 1105.68 359.68C1108.21 362.19 1112.83 361.32 1115.98 361.17C1124.76 360.75 1133.51 360.004 1142.23 358.93C1143.49 358.78 1143.5 356.78 1142.23 356.93C1135.14 357.804 1128.03 358.47 1120.9 358.93C1117.52 359.14 1114.07 359.47 1110.69 359.38C1109.32 359.38 1107.49 359.14 1106.69 357.82C1106.54 357.616 1106.43 357.382 1106.37 357.133C1106.31 356.884 1106.31 356.625 1106.36 356.374C1106.41 356.123 1106.51 355.886 1106.65 355.676C1106.8 355.467 1106.99 355.291 1107.21 355.16L1105.84 354.8C1106.68 356.08 1100.57 358.62 1099.76 358.92C1097.39 359.834 1094.89 360.345 1092.35 360.43C1090.35 360.43 1087.66 360.12 1086.61 358.18C1085.85 356.79 1086.15 354.49 1087.91 354.1L1086.78 352.63C1084.45 355.91 1081.41 359.01 1077.52 360.35C1073.87 361.6 1069.52 361.14 1066.74 358.35C1066.55 358.162 1066.3 358.056 1066.03 358.056C1065.76 358.056 1065.51 358.162 1065.32 358.35C1065.13 358.539 1065.03 358.794 1065.03 359.06C1065.03 359.327 1065.13 359.582 1065.32 359.77L1065.37 359.72Z" fill="#EFBC96"/>
<path d="M1184.17 348.381C1186.58 352.1 1188.26 356.244 1189.12 360.591C1189.17 360.76 1189.25 360.914 1189.38 361.038C1189.5 361.162 1189.66 361.251 1189.83 361.297C1189.99 361.342 1190.17 361.343 1190.34 361.298C1190.51 361.253 1190.67 361.164 1190.79 361.041C1194.79 357.041 1197.2 351.781 1200.92 347.541C1204.6 343.383 1209.06 339.986 1214.04 337.541C1215.2 336.971 1214.19 335.241 1213.04 335.811C1208.03 338.27 1203.53 341.664 1199.79 345.811C1195.93 350.111 1193.5 355.531 1189.39 359.601L1191.06 360.041C1190.16 355.524 1188.41 351.218 1185.91 347.351C1185.21 346.271 1183.48 347.271 1184.18 348.351L1184.17 348.381Z" fill="#EFBC96"/>
<path d="M1043.65 795.01H1248.76" stroke="#F6DDC8" stroke-width="7" stroke-linecap="round" stroke-linejoin="round"/>
<path d="M1043.65 827.17H1199.29" stroke="#F6DDC8" stroke-width="7" stroke-linecap="round" stroke-linejoin="round"/>
<path d="M1043.65 855.881H1171.69" stroke="#F6DDC8" stroke-width="7" stroke-linecap="round" stroke-linejoin="round"/>
<path d="M1043.65 663.57H1248.76" stroke="#F6DDC8" stroke-width="7" stroke-linecap="round" stroke-linejoin="round"/>
<path d="M1043.65 695.74H1199.29" stroke="#F6DDC8" stroke-width="7" stroke-linecap="round" stroke-linejoin="round"/>
<path d="M1043.65 724.439H1171.69" stroke="#F6DDC8" stroke-width="7" stroke-linecap="round" stroke-linejoin="round"/>
</g>
<path d="M248 1682.4H1876.83" stroke="#255DE8" stroke-width="11" stroke-miterlimit="10"/>
<path d="M1420 1744H1686.35" stroke="#255DE8" stroke-width="11" stroke-miterlimit="10"/>
<path d="M728.5 1802H1420" stroke="#255DE8" stroke-width="11" stroke-miterlimit="10" stroke-linecap="round"/>
<path d="M1209.21 925.531C1209.21 925.531 1224.84 905.591 1247.1 909.851C1269.36 914.111 1267.63 942.971 1255.74 942.371C1243.85 941.771 1224.24 953.801 1224.24 953.801L1209.21 925.531Z" fill="#E7AB43"/>
<path opacity="0.6" d="M1246.95 943.571C1249.77 942.597 1252.76 942.19 1255.74 942.371C1260.59 942.711 1266.97 936.021 1263.37 923.891C1259.77 911.761 1245.62 906.021 1229.29 911.291C1229.29 911.291 1252.07 907.871 1259.97 927.451C1259.97 927.451 1263.5 938.621 1253.23 938.301C1242.96 937.981 1246.95 943.571 1246.95 943.571Z" fill="#CC8F3F"/>
<path d="M981.63 494.129C928.5 517.519 871.83 546.229 817.36 597.459C816.557 598.21 816.021 599.201 815.831 600.284C815.642 601.366 815.81 602.481 816.31 603.459C821.69 614.059 832.11 635.069 842.19 655.389C850.27 671.679 857.9 687.059 861.87 694.929C861.381 693.942 861.227 692.823 861.431 691.74C861.635 690.658 862.185 689.671 863 688.929C864.58 687.509 901.89 653.809 922.4 638.199C923.26 637.559 1015.99 574.559 1034.7 578.199C1035.76 578.375 1036.77 578.775 1037.67 579.374C1038.56 579.972 1039.31 580.755 1039.88 581.669C1021.2 549.599 988.3 496.669 987.97 496.179C987.339 495.129 986.35 494.343 985.184 493.967C984.019 493.59 982.756 493.648 981.63 494.129Z" fill="#1A3BA6"/>
<path d="M1508.16 1573.71C1507.33 1574.05 1506.52 1574.46 1505.74 1574.86C1496.74 1579.46 1487.05 1582.8 1478.42 1588.1C1470.37 1593.1 1463.42 1599.61 1456.55 1606.1L1439.84 1621.9C1436.46 1625.09 1430.34 1630.59 1428.53 1636.14C1444.67 1649.26 1461.51 1661.49 1479 1672.75C1482.1 1674.71 1485.69 1675.75 1489.35 1675.75C1494.17 1675.74 1498.82 1673.93 1502.37 1670.66C1505.92 1667.39 1508.12 1662.92 1508.53 1658.11C1510.75 1631.52 1510.34 1603.1 1508.16 1573.71Z" fill="#1A3BA6"/>
<path d="M982.34 495.18C983.448 494.697 984.692 494.625 985.849 494.977C987.006 495.329 987.999 496.081 988.65 497.1C970.07 468.54 959.86 455.95 956.02 451.22C943.18 435.39 923.86 426.92 905.67 429.1C889.93 431 870.4 434.88 837.74 457.23C805.84 479.05 795.67 491.75 792.38 513.82C790.23 528.26 792.19 545 797.91 560.95C803.448 575.848 809.845 590.413 817.07 604.57C816.57 603.592 816.402 602.477 816.591 601.394C816.78 600.312 817.317 599.32 818.12 598.57C872.54 547.28 929.21 518.57 982.34 495.18Z" fill="#132A76"/>
<path d="M1439.84 1622.38L1456.55 1606.57C1463.43 1600.07 1470.37 1593.57 1478.43 1588.57C1487.05 1583.26 1496.73 1579.92 1505.75 1575.32C1506.53 1574.92 1507.33 1574.51 1508.16 1574.17C1504.16 1520.54 1494.28 1463.65 1483.48 1408.42V1408.35C1483.48 1408.33 1483.48 1408.31 1483.48 1408.29C1483.44 1408.1 1483.4 1407.91 1483.34 1407.73C1483.15 1407.15 1478.64 1393.6 1475.63 1387.36C1365.11 1158.58 1181.87 819.53 1039.92 581.17C1039.35 580.251 1038.6 579.465 1037.7 578.865C1036.81 578.265 1035.79 577.864 1034.73 577.69C1016.02 574.09 923.29 637.08 922.43 637.69C901.92 653.3 864.61 687 863.03 688.42C862.216 689.161 861.666 690.149 861.463 691.232C861.261 692.315 861.418 693.434 861.91 694.42C861.91 694.42 920.64 810.99 941.75 852.77C959.98 888.89 991.81 943.04 1019.89 990.77C1037.26 1020.35 1053.68 1048.28 1065.58 1069.67C1094.46 1121.57 1130.52 1187.99 1168.7 1258.31C1218.27 1349.62 1274.45 1453.11 1322.9 1539.31L1322.98 1539.43C1323.08 1539.59 1323.2 1539.75 1323.32 1539.9C1323.41 1540.03 1323.5 1540.15 1323.61 1540.26C1323.64 1540.31 1323.67 1540.35 1323.71 1540.39C1352.28 1569.39 1390.1 1605.66 1428.54 1636.54C1430.35 1631.07 1436.46 1625.57 1439.84 1622.38Z" fill="#117AF6"/>
<path d="M929.25 636.291C955.917 687.544 982.81 738.677 1009.93 789.691C1040.24 846.831 1070.73 903.877 1101.38 960.831C1133.49 1020.5 1165.77 1080.08 1198.24 1139.55C1229.51 1196.82 1260.98 1253.98 1292.66 1311.04C1321.29 1362.56 1350.17 1413.93 1379.31 1465.16C1382.52 1470.79 1385.74 1476.41 1388.96 1482.03C1390.55 1484.82 1394.88 1482.31 1393.27 1479.51C1364.55 1429.36 1336.16 1379.02 1308.1 1328.51C1276.61 1272 1245.36 1215.36 1214.35 1158.59C1181.83 1099.15 1149.5 1039.6 1117.35 979.951C1086.38 922.511 1055.59 864.981 1024.96 807.361C997.32 755.361 969.847 703.237 942.54 650.991C939.54 645.251 936.54 639.511 933.54 633.771C932.05 630.911 927.74 633.441 929.22 636.291H929.25Z" fill="#181D7E"/>
<path d="M1325.95 1535.29C1347.7 1520.78 1369.41 1506.19 1390.5 1490.75C1411.8 1475.15 1432.5 1458.75 1451.81 1440.63C1462.36 1430.76 1472.38 1420.33 1481.81 1409.39C1482.27 1408.92 1482.52 1408.28 1482.52 1407.63C1482.52 1406.97 1482.27 1406.33 1481.81 1405.86C1481.34 1405.4 1480.71 1405.13 1480.04 1405.13C1479.38 1405.13 1478.75 1405.4 1478.28 1405.86C1461.38 1425.54 1442.35 1443.31 1422.35 1459.8C1402.19 1476.42 1381.01 1491.8 1359.51 1506.58C1347.51 1514.83 1335.51 1522.91 1323.39 1530.97C1320.72 1532.75 1323.22 1537.08 1325.91 1535.29H1325.95Z" fill="#181D7E"/>
<path d="M918.22 941.71C918.22 941.71 969.78 1007.28 1028.54 1003.13L978.04 916.51L918.22 941.71Z" fill="#E2A040"/>
<path d="M979.29 1306.43C956.29 1247.37 939.21 1192.87 918.22 1134.58C898.1 1078.68 862.13 1000.92 862.13 1000.92C892.96 977.399 931.59 959.919 961.25 934.919C970.36 927.229 979.25 927.339 979.25 927.339L987.13 923.569C987.13 923.569 1027.85 910.499 1052.5 915.309C1077.15 920.119 1104.23 918.919 1107.24 918.009C1110.25 917.099 1117.46 903.279 1109.04 894.859C1100.62 886.439 1060.92 892.459 1067.54 884.639C1074.16 876.819 1108.44 881.639 1124.68 882.839C1140.92 884.039 1142.12 861.779 1136.68 853.359C1131.24 844.939 1072.32 846.749 1075.93 838.879C1079.54 831.009 1127.05 839.529 1139.68 843.139C1152.31 846.749 1158.93 822.689 1148.1 810.059C1137.27 797.429 1069.31 803.439 1069.92 797.279C1070.53 791.119 1098.79 794.779 1098.79 794.779C1098.79 794.779 1148.71 802.839 1132.47 773.369C1116.23 743.899 1037.47 764.949 1037.47 764.949C1037.47 764.949 1065.15 728.949 1039.27 728.259C1013.11 727.549 965.07 820.959 969.04 814.409L937.8 829.989C918.97 783.779 881.19 727.599 857.8 710.049C830.24 689.369 804.48 689.049 794.19 691.959C793.877 692.043 793.549 692.051 793.232 691.984C792.915 691.918 792.618 691.778 792.365 691.575C792.112 691.373 791.911 691.114 791.776 690.82C791.641 690.525 791.578 690.203 791.59 689.879L792.33 663.599C814.33 660.899 829.22 648.739 839.14 635.599C852.8 617.599 858.55 594.809 856.45 572.279C854.66 553.159 850.02 531.719 843.54 519.729C851.03 518.399 856.66 512.369 861.71 506.729C867.9 499.729 874.31 492.369 876.29 483.269C879.13 470.269 871.54 456.269 860.06 449.499C848.58 442.729 834.06 442.309 821.29 446.049C808.52 449.789 797.1 457.299 786.64 465.599C783.74 467.899 780.76 470.449 780.11 474.329C779.958 475.129 779.969 475.951 780.141 476.746C780.312 477.541 780.642 478.294 781.11 478.959C783.28 481.849 786.83 481.299 789.71 480.189C793.333 478.797 796.581 476.58 799.199 473.714C801.816 470.849 803.73 467.413 804.79 463.679C805.766 459.925 805.721 455.978 804.659 452.247C803.597 448.516 801.557 445.137 798.75 442.459C792.45 436.779 783.21 435.679 774.75 436.569C750.42 439.139 729.95 455.299 711.48 471.329C703.48 478.259 695.48 485.429 692.07 496.109C690.993 499.573 690.726 503.237 691.29 506.819C691.61 508.939 692.29 511.159 694.83 512.019C695.613 512.262 696.439 512.334 697.252 512.231C698.066 512.128 698.847 511.852 699.545 511.422C700.243 510.992 700.841 510.418 701.299 509.738C701.757 509.058 702.064 508.288 702.2 507.479C703.36 502.129 698.82 497.749 694.02 495.869C689.779 494.282 685.169 493.952 680.745 494.921C676.321 495.89 672.27 498.115 669.08 501.329C664.2 506.399 661.92 513.419 660.41 520.329C651.61 560.399 654.96 603.999 692.73 639.209L693.99 646.749C694.39 657.369 685.99 685.049 685.99 685.049C679.14 685.699 625.99 694.849 588.6 705.569C544.17 718.309 510.51 730.639 514.02 797.299C517.11 855.959 552.86 942.759 562.02 989.529C575.02 1056.23 574.43 1184.42 565.76 1237.6C558.82 1280.15 496.51 1206.11 475.51 1176.41C424.13 1103.69 350.26 945.989 334.93 946.149C316.93 946.339 183.37 1120.39 188.18 1138.43C192.99 1156.47 282.47 1098.05 282.52 1098.02L362 1241.88L374.34 1268.88C485.01 1466.8 582.92 1450.15 602.56 1443.88C631.56 1434.65 662.11 1420.55 684.15 1379.23C733.95 1285.82 735.9 1191.63 751.63 1192.13C780.31 1193.03 1004.07 1806.39 1029.93 1794.96C1152.01 1741.02 1282.45 1603.34 1237.93 1598.53C1193.41 1593.72 1106.2 1629.77 1106.24 1629.76L979.29 1306.43ZM838.51 834.239L862.13 874.239L845.03 881.599C841.97 868.399 838.51 834.239 838.51 834.239Z" fill="#F2A91F"/>
<path d="M1246.95 943.57C1246.95 943.57 1256.23 940.51 1267.05 956.06C1267.05 956.06 1276.37 967.18 1275.95 981.06C1275.95 981.06 1300.59 971.51 1297.43 1013.13C1297.43 1013.13 1323.75 1016.13 1315.28 1058.76C1306.81 1101.39 1269.52 1093.53 1282.15 1050.22C1282.15 1050.22 1267.15 1080.3 1248.47 1058.64C1229.79 1036.98 1266.47 1024.96 1268.92 1013.54C1271.37 1002.12 1254.48 1037.54 1236.44 1030.38C1218.4 1023.22 1214.79 1006.25 1218.44 999.07C1222.09 991.89 1250.06 989.83 1250.96 972.25C1251.55 959.91 1246.95 943.57 1246.95 943.57Z" fill="#F2A91F"/>
<path d="M1269.88 1011.92C1274.25 1007.92 1276.24 1002.1 1278.04 996.589C1278.64 994.759 1275.75 993.969 1275.15 995.799C1273.5 1000.8 1271.75 1006.11 1267.76 1009.8C1266.34 1011.11 1268.46 1013.23 1269.88 1011.92Z" fill="#9C6534"/>
<path d="M1292.49 1030.28C1288.77 1036.76 1285.23 1043.35 1280.85 1049.43C1280.74 1049.6 1280.67 1049.79 1280.64 1049.99C1280.6 1050.19 1280.61 1050.39 1280.66 1050.59C1280.71 1050.78 1280.79 1050.97 1280.92 1051.13C1281.04 1051.29 1281.19 1051.43 1281.36 1051.53C1281.54 1051.63 1281.73 1051.69 1281.93 1051.72C1282.13 1051.75 1282.33 1051.73 1282.53 1051.68C1282.72 1051.62 1282.9 1051.53 1283.06 1051.4C1283.21 1051.27 1283.34 1051.12 1283.44 1050.94C1287.82 1044.86 1291.36 1038.27 1295.08 1031.79C1295.26 1031.45 1295.31 1031.05 1295.2 1030.67C1295.1 1030.3 1294.85 1029.98 1294.51 1029.79C1294.18 1029.59 1293.78 1029.53 1293.4 1029.62C1293.02 1029.72 1292.7 1029.95 1292.49 1030.28Z" fill="#9C6534"/>
<path opacity="0.6" d="M1246.95 943.57C1246.95 943.57 1256.64 940.81 1267.05 956.06C1276.72 970.23 1275.87 977.5 1275.95 981.06C1275.95 981.06 1293.53 974.31 1297.02 996.81C1297.02 996.81 1298.02 1007.72 1297.43 1013.13C1297.43 1013.13 1310.3 1014.35 1314.73 1028.84C1319.16 1043.33 1315.28 1058.76 1315.28 1058.76C1315.28 1058.76 1319.44 1025.48 1293.79 1018.68C1293.79 1018.68 1295.46 981.57 1273.79 987.25C1273.79 987.25 1269 953.25 1248.96 952.42C1248.99 952.38 1247.81 946.99 1246.95 943.57Z" fill="#CC8F3F"/>
<path opacity="0.6" d="M519.28 826.26C519.28 826.26 605.84 1031.8 676.92 1064.55C676.92 1064.55 698.34 1078.55 752.92 1052.69C807.5 1026.83 857.99 1001.05 857.99 1001.05C857.99 1001.05 727.15 1128.2 657.65 1088.39C588.15 1048.58 537.82 901.63 537.82 901.63C537.82 901.63 520.54 843.53 519.28 826.26Z" fill="#CC8F3F"/>
<path opacity="0.6" d="M835.26 641.4C835.26 641.4 805.67 659.08 776.92 654.99C755.65 651.94 772.05 665.54 776.85 675.51C782.13 686.51 788.8 694.95 795.08 692C794.768 692.067 794.446 692.064 794.136 691.99C793.826 691.917 793.536 691.776 793.287 691.577C793.038 691.378 792.836 691.126 792.697 690.839C792.557 690.553 792.483 690.239 792.48 689.92C792.27 687.41 793.22 663.64 793.22 663.64C809.585 661.952 824.656 653.979 835.26 641.4Z" fill="#CC8F3F"/>
<path opacity="0.6" d="M403.13 1052.99C403.13 1052.99 440.64 1153.51 481.37 1212.9C522.1 1272.29 566.04 1290.53 587.52 1291.24C615.32 1292.16 596.22 1279.39 584.36 1268.49C570.96 1256.19 568.36 1225.91 570.99 1195.69C570.99 1195.69 570.24 1250.51 559.39 1249.69C559.39 1249.69 541.39 1259.69 487.06 1190.77C458.49 1154.61 423.25 1089.72 403.13 1052.99Z" fill="#CC8F3F"/>
<path opacity="0.6" d="M745.61 1197.3C745.61 1197.3 762.38 1175.07 778.34 1192.71C802.34 1219.24 1018.55 1767.14 1039.12 1772.41C1047.37 1774.52 1202.67 1694.49 1246.83 1608.14C1246.83 1608.14 1243.47 1644.96 1151.4 1718.37C1151.4 1718.37 1079.3 1776.17 1029.93 1794.93C1029.93 1794.93 1026.65 1797.05 1020.46 1787.07C1015 1778.47 1010 1769.6 1005.46 1760.48C959.28 1668.58 805.16 1276.88 759.35 1199.03C752.03 1186.55 745.61 1197.3 745.61 1197.3Z" fill="#CC8F3F"/>
<path opacity="0.6" d="M1043.36 1487.15C1043.36 1487.15 1103.36 1633.15 1093.88 1647.1C1084.4 1661.05 1073.03 1662.9 1067.97 1666.69C1063.17 1670.29 1087.13 1689.77 1120.1 1650.89C1126.3 1643.57 1133.29 1636.32 1141.26 1630.99C1151.07 1624.44 1161.76 1611.19 1180.12 1605.42C1180.12 1605.42 1133.17 1618.04 1106.26 1629.73L1043.36 1487.15Z" fill="#CC8F3F"/>
<path opacity="0.6" d="M795.08 691.989C795.08 691.989 845.19 678.989 889.36 744.829C933.53 810.669 937.8 829.989 937.8 829.989C937.8 829.989 907.43 773.769 869.54 733.849C853.179 716.616 832.76 703.758 810.15 696.449C805.5 694.989 800.44 693.419 795.08 691.989Z" fill="#CC8F3F"/>
<path opacity="0.6" d="M983.24 925.439C983.24 925.439 974.3 939.809 965.65 949.439C955.88 960.339 955.91 973.619 964.36 983.299C964.36 983.299 939.21 967.129 932.48 955.799L983.24 925.439Z" fill="#CC8F3F"/>
<path opacity="0.6" d="M838.52 834.23L834.86 885.641L844.77 880.591L838.52 834.23Z" fill="#CC8F3F"/>
<path opacity="0.6" d="M694.01 646.721C694.01 646.721 700.92 676.941 695.65 693.371C690.38 709.801 558.87 705.061 522.96 748.491C522.96 748.491 533.6 725.591 550.03 719.491C550.03 719.491 592.77 696.871 684.18 685.031C684.18 684.991 689.09 686.201 694.01 646.721Z" fill="#CC8F3F"/>
<path d="M686.94 681.99C671.35 684.04 655.83 686.72 640.39 689.71C613.18 694.99 585.46 701.02 559.82 711.77C550.07 715.85 540.39 720.7 533.05 728.48C521.17 741.06 514.6 757.48 512.44 774.48C510.414 790.195 511.955 806.164 516.95 821.2C521.34 834.09 527.77 846.53 533.48 858.87C548.31 890.87 564.07 922.58 581.32 953.4C597.32 981.96 614.38 1010.93 636.24 1035.48C647.69 1048.33 661.34 1061.9 677.72 1068C698.53 1075.75 721.38 1069.62 741.01 1061.35C770.36 1048.98 798.52 1032.95 826.61 1018.02C876.67 991.4 925.61 963.24 974.13 933.89L980.8 929.89C984.1 927.89 981.09 922.7 977.8 924.71C937.22 949.28 896.54 973.44 854.8 996.09C825.61 1011.95 796.26 1027.52 766.61 1042.5C751.11 1050.33 735.52 1058.5 718.61 1062.82C707.95 1065.56 696.61 1066.73 685.8 1064.21C674.99 1061.69 665.98 1055.55 657.8 1048.33C634.52 1027.79 617.14 1002.02 601.15 975.62C582.94 945.62 566.69 914.33 551.36 882.72C544.693 868.934 538.203 855.05 531.89 841.07C526.36 828.78 520.89 816.82 518.79 803.38C514.22 773.96 522.35 738.55 550.02 723.07C572.47 710.51 599.12 704.64 624.02 699.19C643.92 694.84 664.02 691.19 684.17 688.37L686.6 688.03H686.91C690.68 687.53 690.73 681.53 686.91 682.03L686.94 681.99Z" fill="#9C6534"/>
<path d="M743.75 1158.75C745.68 1170.07 742.75 1182.06 740.81 1193.21C738.87 1204.36 736.61 1215.46 734.08 1226.5C733.08 1230.88 739.83 1232.75 740.83 1228.36C743.65 1216.06 746.11 1203.69 748.21 1191.24C750.11 1179.91 752.46 1168.36 750.5 1156.89C749.74 1152.46 742.99 1154.34 743.75 1158.75Z" fill="#9C6534"/>
<path d="M685.14 1052.37C688.184 1053.38 691.411 1053.72 694.6 1053.37C695.52 1053.34 696.396 1052.97 697.047 1052.32C697.698 1051.67 698.075 1050.79 698.1 1049.87C698.1 1048.14 696.49 1046.16 694.6 1046.37C692.041 1046.69 689.443 1046.42 687 1045.6C682.72 1044.17 680.88 1050.93 685.14 1052.35V1052.37Z" fill="#9C6534"/>
<path d="M500.3 1413.42C496.64 1409.65 493.8 1404.79 493.57 1399.54C493.11 1389.01 503.37 1380.54 513.78 1378.91C524.19 1377.28 534.67 1380.49 544.88 1383.1C567.18 1388.81 591.28 1391.57 612.88 1383.52C620.71 1380.59 628.04 1376.3 636.13 1374.21C644.22 1372.12 653.69 1372.66 659.75 1378.42C666.31 1384.64 666.85 1395.42 663.09 1403.6C659.33 1411.78 652.09 1417.92 644.61 1422.97C623.03 1437.5 596.9 1445.56 570.91 1444.3C544.92 1443.04 519.27 1432.2 501.22 1413.46" fill="#FCB753"/>
<path d="M1022.16 1425.47C1004.85 1437.16 970.16 1434.75 960.81 1416.05C957.86 1410.11 956.56 1403.47 953.81 1397.42C950.14 1389.25 944.02 1382.42 939.81 1374.52C930.05 1356.3 931.18 1334.11 936.05 1314.03C937.63 1307.52 939.74 1300.8 944.51 1296.03C949.28 1291.26 962.62 1288.94 967.93 1293.03L1022.16 1425.47Z" fill="#FCB753"/>
<path opacity="0.6" d="M648.48 826.26C648.48 826.26 720.99 869.99 746.34 931.91L721.43 943.14C723.71 941.82 714.52 906.43 694.08 878.06C694.08 878.06 660.59 834.73 648.48 826.26Z" fill="#CC8F3F"/>
<path d="M968.45 811.811C896.57 855.291 821.58 893.201 745.19 928.061C729.57 935.191 713.9 942.201 698.19 949.221C694.67 950.791 697.72 955.971 701.19 954.4C769.18 923.99 836.64 892.641 901.99 856.991C925.443 844.177 948.607 830.844 971.48 816.991C974.78 814.991 971.76 809.811 968.48 811.811H968.45Z" fill="#9C6534"/>
<path d="M761.447 602.498C760.604 603.343 760.181 604.715 760.868 605.949H760.71L761.253 606.537C766.087 611.767 772.126 615.736 778.845 618.098C785.564 620.459 792.759 621.141 799.802 620.085L799.824 620.082L799.846 620.076C800.571 619.868 801.186 619.385 801.558 618.729C801.931 618.074 802.031 617.298 801.838 616.57L801.839 616.569L801.835 616.557C801.616 615.841 801.131 615.237 800.481 614.868C799.836 614.501 799.077 614.393 798.356 614.565C792.293 615.378 786.123 614.709 780.375 612.616C774.621 610.521 769.462 607.061 765.339 602.534C764.733 601.863 764.007 601.589 763.294 601.628C762.593 601.667 761.939 602.006 761.447 602.498Z" fill="#9E6534" stroke="#9E6534" stroke-width="0.7"/>
<path d="M760.403 554.914C760.415 555.01 760.432 555.105 760.453 555.199C760.349 558.22 759.852 561.215 758.975 564.109L758.972 564.119L758.97 564.129C758.479 566.186 757.481 568.087 756.066 569.658C755.567 570.081 755.281 570.255 755.055 570.287C754.87 570.314 754.65 570.251 754.253 569.898C752.874 568.47 751.952 566.663 751.605 564.709L751.602 564.694L751.598 564.68C749.994 558.703 749.994 552.408 751.598 546.431L751.6 546.424L751.602 546.417C752.093 544.218 753.034 542.144 754.366 540.326C754.719 539.905 755.147 539.552 755.629 539.287L755.64 539.281L755.65 539.274C755.752 539.208 755.87 539.172 755.991 539.17C756.101 539.171 756.208 539.203 756.3 539.261C757.867 540.589 758.911 542.43 759.245 544.457L759.248 544.475L759.252 544.492C760.168 547.866 760.555 551.362 760.4 554.855L760.399 554.885L760.403 554.914ZM747.245 540.89C744.128 548.67 743.542 557.233 745.57 565.365C746.162 567.755 747.341 570.844 749.172 573.075C750.09 574.193 751.184 575.112 752.466 575.608C753.756 576.107 755.212 576.17 756.825 575.611L756.841 575.605L756.857 575.598C758.363 574.901 759.709 573.901 760.811 572.661C761.911 571.423 762.744 569.973 763.259 568.399C764.87 564.331 765.779 560.021 765.95 555.653C766.047 555.418 766.113 555.171 766.147 554.916L766.15 554.893V554.87C766.15 551.711 766.04 547.756 765.214 544.063C764.389 540.373 762.836 536.891 759.907 534.738C758.443 533.662 757.039 533.198 755.714 533.209C754.39 533.219 753.183 533.702 752.11 534.457C749.976 535.957 748.327 538.563 747.253 540.873L747.249 540.881L747.245 540.89Z" fill="#9E6534" stroke="#9E6534" stroke-width="0.7"/>
<path d="M822.652 554.95C822.662 555.034 822.676 555.117 822.693 555.199C822.584 558.22 822.087 561.214 821.215 564.108L821.212 564.118L821.21 564.128C820.719 566.185 819.72 568.086 818.306 569.658C817.808 570.079 817.519 570.254 817.29 570.287C817.102 570.313 816.879 570.249 816.483 569.897C815.111 568.466 814.193 566.66 813.845 564.708L813.842 564.693L813.838 564.679C812.234 558.702 812.234 552.407 813.838 546.43L813.84 546.423L813.842 546.415C814.329 544.215 815.271 542.141 816.606 540.325C816.957 539.902 817.385 539.55 817.867 539.287L817.879 539.28L817.89 539.273C817.991 539.208 818.108 539.172 818.228 539.169C818.34 539.173 818.448 539.205 818.543 539.263C820.109 540.587 821.149 542.429 821.474 544.455L821.477 544.474L821.483 544.492C822.414 547.877 822.808 551.387 822.65 554.894L822.649 554.922L822.652 554.95ZM809.495 540.929C806.378 548.709 805.792 557.272 807.82 565.404C808.412 567.795 809.591 570.883 811.421 573.114C812.338 574.232 813.431 575.151 814.712 575.647C816 576.146 817.454 576.209 819.065 575.65L819.081 575.644L819.096 575.637C820.605 574.943 821.954 573.944 823.058 572.703C824.16 571.465 824.994 570.013 825.509 568.438C827.112 564.38 828.017 560.082 828.188 555.726C828.292 555.481 828.363 555.221 828.397 554.953L828.4 554.931V554.909C828.4 551.75 828.29 547.795 827.464 544.102C826.639 540.412 825.086 536.93 822.157 534.777C820.693 533.701 819.289 533.237 817.964 533.248C816.64 533.258 815.433 533.741 814.36 534.496C812.226 535.996 810.577 538.602 809.503 540.912L809.499 540.92L809.495 540.929Z" fill="#9E6534" stroke="#9E6534" stroke-width="0.7"/>
<path d="M756.94 511.382V511.312L756.563 511.34C749.764 511.861 743.209 514.107 737.52 517.867C731.83 521.627 727.194 526.777 724.049 532.828L724.049 532.828L724.048 532.831C723.219 534.466 724.055 536.002 725.25 536.704C725.85 537.056 726.567 537.219 727.252 537.076C727.949 536.93 728.575 536.476 728.982 535.668C731.634 530.478 735.561 526.047 740.396 522.791C745.228 519.538 750.807 517.565 756.61 517.059C757.354 517.039 758.062 516.734 758.588 516.208C759.118 515.679 759.423 514.966 759.44 514.218L759.44 514.218L759.44 514.208C759.437 513.453 759.136 512.731 758.602 512.197C758.152 511.746 757.566 511.462 756.94 511.382Z" fill="#9E6534" stroke="#9E6534" stroke-width="0.7"/>
<path d="M817.7 519.629V519.58C824.154 521.283 829.725 525.378 833.276 531.043C833.452 531.382 833.695 531.682 833.99 531.925C834.289 532.172 834.635 532.355 835.006 532.463C835.378 532.571 835.768 532.603 836.153 532.555C836.537 532.508 836.908 532.383 837.242 532.187C837.576 531.992 837.867 531.73 838.097 531.418C838.327 531.107 838.491 530.752 838.579 530.374C838.667 529.997 838.677 529.606 838.609 529.225C838.541 528.845 838.397 528.483 838.185 528.161C833.788 521.109 826.828 516.037 818.769 514.011C818.042 513.812 817.265 513.909 816.608 514.281C815.951 514.654 815.469 515.273 815.268 516.002C815.067 516.73 815.163 517.509 815.536 518.166C815.909 518.824 816.528 519.306 817.257 519.507L817.7 519.629Z" fill="#9E6534" stroke="#9E6534" stroke-width="0.7"/>
<path d="M681.26 496.9C683.672 495.859 686.305 495.432 688.922 495.657C691.54 495.882 694.061 496.753 696.26 498.19C698.26 499.538 699.92 501.332 701.11 503.43C702.25 505.43 703.27 508.13 702.31 510.43C701.901 511.346 701.222 512.115 700.365 512.635C699.507 513.155 698.511 513.401 697.51 513.34C696.573 513.188 695.686 512.816 694.921 512.254C694.157 511.693 693.536 510.958 693.11 510.11C690.38 505.39 692.91 499.8 695.22 495.47C698.424 489.517 702.103 483.832 706.22 478.47C706.519 477.954 706.601 477.34 706.45 476.763C706.298 476.186 705.924 475.693 705.41 475.39C704.891 475.104 704.281 475.029 703.708 475.179C703.135 475.33 702.641 475.696 702.33 476.2C697.831 482.004 693.887 488.218 690.55 494.76C687.67 500.53 685.75 507.76 689.93 513.39C690.787 514.651 691.915 515.704 693.232 516.472C694.549 517.241 696.021 517.704 697.54 517.83C699.072 517.876 700.592 517.547 701.969 516.873C703.346 516.198 704.537 515.199 705.44 513.96C709.64 508.31 705.67 500.41 701.11 496.31C698.31 493.784 694.857 492.095 691.145 491.435C687.432 490.776 683.608 491.172 680.11 492.58C679.543 492.752 679.064 493.136 678.772 493.651C678.479 494.167 678.396 494.775 678.54 495.35C678.701 495.922 679.081 496.408 679.598 496.701C680.114 496.995 680.726 497.074 681.3 496.92L681.26 496.9Z" fill="#9C6534"/>
<path d="M844.43 519.77C844.43 519.77 852.5 519.58 862.61 506.77C862.61 506.77 874.33 496.02 877.19 483.31C880.05 470.6 871.83 444.9 839.4 443.74C839.4 443.74 880.04 457.32 866.99 489.97C862.32 501.77 854.52 512.074 844.43 519.77Z" fill="#CC8F3F"/>
<path opacity="0.6" d="M805.65 452.549C805.65 452.549 802.49 426.799 760.92 439.829C760.92 439.829 741.32 445.739 720.92 464.109C720.9 464.109 776.12 427.609 805.65 452.549Z" fill="#CC8F3F"/>
<path d="M799.92 447.051C806.22 459.901 798.18 475.591 786.06 481.621C783.97 482.621 779.67 483.301 779.2 480.031C778.75 477.031 781.63 473.831 783.45 471.731C787.966 466.655 793.238 462.307 799.08 458.841C805.821 454.866 812.79 451.29 819.95 448.131C820.462 447.826 820.834 447.333 820.986 446.757C821.137 446.18 821.056 445.568 820.76 445.051C820.449 444.546 819.955 444.181 819.381 444.032C818.807 443.883 818.198 443.961 817.68 444.251C803.59 450.771 788.73 457.781 778.86 470.251C776.42 473.331 773.96 477.171 774.86 481.251C775.76 485.331 780.24 487.411 784.21 486.841C788.34 486.241 792.08 483.351 795.14 480.671C798.082 478.098 800.579 475.057 802.53 471.671C804.926 467.615 806.295 463.034 806.516 458.328C806.738 453.623 805.805 448.934 803.8 444.671C802.53 442.071 798.64 444.341 799.91 446.941L799.92 447.051Z" fill="#9C6534"/>
<path opacity="0.6" d="M189.06 1138.43C189.06 1138.43 197.06 1140.58 244.13 1112.43C270.79 1096.5 288.48 1076.43 297.13 1069.43C297.766 1068.9 298.55 1068.58 299.375 1068.52C300.2 1068.45 301.024 1068.65 301.735 1069.07C302.445 1069.49 303.007 1070.13 303.343 1070.88C303.679 1071.64 303.772 1072.48 303.61 1073.29C302.07 1081.78 303.94 1106.73 305.14 1113.43C306.96 1123.61 331.06 1184.11 331.06 1184.11L283.4 1097.99C283.4 1097.99 195.92 1155.87 189.06 1138.43Z" fill="#CC8F3F"/>
<path d="M1107.75 1135.85V1134.58C1107.76 1134.38 1107.71 1134.18 1107.62 1134C1107.56 1133.82 1107.45 1133.65 1107.31 1133.52C1107.18 1133.37 1107.01 1133.27 1106.83 1133.21C1106.65 1133.12 1106.45 1133.07 1106.25 1133.08L1105.85 1133.13C1105.6 1133.2 1105.37 1133.34 1105.19 1133.52L1104.96 1133.82C1104.82 1134.05 1104.75 1134.31 1104.75 1134.58V1135.85C1104.74 1136.05 1104.79 1136.24 1104.88 1136.42C1104.94 1136.61 1105.04 1136.78 1105.19 1136.91C1105.32 1137.05 1105.49 1137.15 1105.67 1137.22C1105.85 1137.31 1106.05 1137.35 1106.25 1137.35L1106.65 1137.29C1106.9 1137.22 1107.12 1137.09 1107.31 1136.91L1107.55 1136.6C1107.68 1136.37 1107.75 1136.11 1107.75 1135.85Z" fill="#CC8F3F"/>
<path d="M646.97 828.851C647.37 829.081 647.74 829.351 648.12 829.621C647.24 829.011 648.12 829.621 648.35 829.821L649.13 830.511C650.27 831.511 651.35 832.651 652.4 833.771C655.22 836.771 657.88 839.921 660.49 843.111C665.74 849.541 670.27 855.461 675.2 862.321C680.67 869.921 685.77 877.821 690.95 885.621C696.284 893.388 701.047 901.533 705.2 909.991C707.425 914.737 709.346 919.62 710.95 924.611C713.03 930.961 714.69 937.441 716.15 943.961C716.241 944.355 716.41 944.727 716.649 945.054C716.887 945.381 717.189 945.656 717.536 945.863C717.884 946.071 718.269 946.206 718.67 946.26C719.071 946.314 719.479 946.287 719.869 946.18C720.259 946.072 720.624 945.887 720.94 945.636C721.257 945.384 721.519 945.071 721.712 944.715C721.904 944.359 722.023 943.968 722.061 943.565C722.098 943.162 722.054 942.756 721.93 942.371C719.59 931.274 716.181 920.43 711.75 909.991C707.846 901.423 703.237 893.195 697.97 885.391C688.08 870.271 677.97 855.391 666.67 841.261C663.67 837.551 660.67 833.871 657.43 830.361C655.22 827.961 652.84 825.261 649.97 823.631C646.6 821.721 643.58 826.901 646.97 828.811V828.851Z" fill="#9C6534"/>
</svg>
