<svg width="2000" height="2000" viewBox="0 0 2000 2000" fill="none" xmlns="http://www.w3.org/2000/svg">
<g clip-path="url(#clip0_142_1063)">
<path d="M1475.93 732.709C1452.5 732.709 1429.61 725.764 1410.13 712.751C1390.66 699.738 1375.48 681.242 1366.51 659.602C1357.55 637.963 1355.21 614.151 1359.78 591.178C1364.34 568.206 1375.62 547.104 1392.19 530.542C1408.75 513.98 1429.85 502.701 1452.82 498.131C1475.79 493.562 1499.61 495.907 1521.25 504.87C1542.89 513.834 1561.38 529.013 1574.39 548.488C1587.41 567.963 1594.35 590.86 1594.35 614.282C1594.32 645.681 1581.83 675.783 1559.63 697.986C1537.43 720.188 1507.32 732.675 1475.93 732.709ZM1475.93 518.704C1457.02 518.704 1438.53 524.313 1422.81 534.821C1407.08 545.33 1394.83 560.265 1387.6 577.738C1380.37 595.212 1378.48 614.438 1382.17 632.984C1385.87 651.53 1394.98 668.564 1408.36 681.93C1421.74 695.295 1438.78 704.393 1457.33 708.071C1475.88 711.749 1495.11 709.843 1512.57 702.594C1530.04 695.345 1544.96 683.078 1555.46 667.345C1565.95 651.612 1571.54 633.121 1571.52 614.21C1571.47 588.879 1561.38 564.601 1543.46 546.698C1525.54 528.795 1501.26 518.728 1475.93 518.704Z" fill="#FFD4B0"/>
<g opacity="0.9">
<path d="M1476.02 560.18C1482.28 577.669 1482.28 596.792 1476.02 614.281C1469.74 596.794 1469.74 577.667 1476.02 560.18Z" fill="#F9BB91"/>
</g>
<path d="M1476.02 624.506C1474.26 624.506 1472.54 623.984 1471.07 623.007C1469.61 622.029 1468.47 620.64 1467.8 619.015C1467.12 617.389 1466.95 615.601 1467.29 613.875C1467.64 612.149 1468.48 610.564 1469.73 609.32C1470.97 608.076 1472.56 607.229 1474.28 606.886C1476.01 606.543 1477.8 606.719 1479.42 607.392C1481.05 608.065 1482.44 609.205 1483.41 610.668C1484.39 612.131 1484.91 613.851 1484.91 615.61C1484.91 617.97 1483.97 620.232 1482.31 621.901C1480.64 623.569 1478.38 624.506 1476.02 624.506Z" fill="#F9BB91"/>
<g opacity="0.9">
<path d="M1439.14 597.379C1446.13 597.386 1453.02 598.994 1459.28 602.078C1465.55 605.162 1471.02 609.641 1475.29 615.17C1468.31 615.167 1461.41 613.561 1455.15 610.477C1448.88 607.392 1443.41 602.911 1439.14 597.379Z" fill="#F9BB91"/>
</g>
<path d="M1478.45 514.211H1473.89V544.718H1478.45V514.211Z" fill="#F9BB91"/>
<g opacity="0.9">
<path d="M1478.45 679.371H1473.89V709.878H1478.45V679.371Z" fill="#F9BB91"/>
</g>
<g opacity="0.9">
<path d="M1571 609.223H1540.49V613.789H1571V609.223Z" fill="#F9BB91"/>
</g>
<path d="M1411.29 609.223H1380.78V613.789H1411.29V609.223Z" fill="#F9BB91"/>
<path d="M1186.84 482.395C1107.29 434.97 1007.93 370.827 930.561 319.908C918.355 311.886 904.82 301.426 904.747 286.818C904.747 274.23 917.19 263.06 929.706 264.533C936.328 265.316 942.185 268.972 947.898 272.538L981.807 294.04C1037.67 329.423 1088.72 361.44 1142.97 399.296" fill="#255DE8"/>
<path d="M1698.92 809.824H1242.46V1356.15H1698.92V809.824Z" fill="#FFF3E5"/>
<path d="M1698.92 809.824H1242.46V853.102H1698.92V809.824Z" fill="#FCE0C8"/>
<path d="M1318.06 1055.97H1407.45L1416.15 1107.43C1418.55 1121.69 1424.58 1135.09 1433.67 1146.34L1439.78 1153.91H1350.39L1346.75 1149.87C1336.06 1137.92 1329.01 1123.16 1326.43 1107.34L1318.06 1055.97Z" fill="#FFD4B0"/>
<path opacity="0.9" d="M1363.87 1036.83H1347.82V1067.14H1363.87V1036.83Z" fill="#F9BB91"/>
<path d="M1387.95 1078.64H1335.89V1080.62H1387.95V1078.64Z" fill="#F9BB91"/>
<path d="M1393.05 1095.76H1340.98V1097.74H1393.05V1095.76Z" fill="#F9BB91"/>
<path d="M1398.14 1110.73H1346.07V1112.71H1398.14V1110.73Z" fill="#F9BB91"/>
<path d="M1318.06 1055.97C1318.06 1055.97 1310.58 1111.29 1315.04 1140.3C1315.54 1143.45 1317.2 1146.29 1319.69 1148.27C1322.19 1150.25 1325.33 1151.22 1328.5 1151L1346.79 1149.87C1346.79 1149.87 1323.41 1133.23 1319.5 1055.97H1318.06Z" fill="#FCE0C8"/>
<path d="M1465.81 923.848H1555.21V988.046C1555.2 997.586 1558.47 1006.84 1564.46 1014.26L1575.16 1027.5H1485.82L1476.45 1017.04C1469.61 1009.4 1465.82 999.505 1465.81 989.246V923.848Z" fill="#FFD4B0"/>
<path opacity="0.9" d="M1518.75 904.258H1502.7V934.565H1518.75V904.258Z" fill="#F9BB91"/>
<path d="M1542.65 949.258H1483.09V951.241H1542.65V949.258Z" fill="#F9BB91"/>
<path d="M1535.16 964.23H1483.09V966.213H1535.16V964.23Z" fill="#F9BB91"/>
<path d="M1523.75 980.641H1483.09V982.623H1523.75V980.641Z" fill="#F9BB91"/>
<path d="M1465.81 923.848V989.337C1465.96 996.103 1467.57 1002.76 1470.55 1008.84C1473.52 1014.91 1477.78 1020.27 1483.04 1024.54H1466.45C1465.25 1024.54 1464.07 1024.29 1462.97 1023.81C1461.87 1023.32 1460.89 1022.62 1460.08 1021.74C1459.27 1020.85 1458.65 1019.81 1458.26 1018.68C1457.87 1017.55 1457.72 1016.34 1457.83 1015.15L1465.81 923.848Z" fill="#FCE0C8"/>
<path d="M1498.43 1180.98H1587.82V1245.16C1587.81 1254.7 1591.08 1263.96 1597.08 1271.38L1607.78 1284.64H1518.38L1509.03 1274.16C1502.2 1266.52 1498.42 1256.62 1498.43 1246.36V1180.98Z" fill="#FFD4B0"/>
<path opacity="0.9" d="M1553.09 1165.83H1537.05V1196.14H1553.09V1165.83Z" fill="#F9BB91"/>
<path d="M1574.85 1208.73H1515.29V1210.71H1574.85V1208.73Z" fill="#F9BB91"/>
<path d="M1567.36 1223.7H1515.29V1225.68H1567.36V1223.7Z" fill="#F9BB91"/>
<path d="M1498.43 1180.98C1498.43 1180.98 1483.88 1237.89 1484.6 1264.27C1485.33 1290.64 1518.39 1284.64 1518.39 1284.64C1518.39 1284.64 1498.37 1268.39 1498.37 1246.44L1498.43 1180.98Z" fill="#FCE0C8"/>
<path d="M239.356 1758.24H1761.22" stroke="#255DE8" stroke-width="11" stroke-miterlimit="10" stroke-linecap="round"/>
<path d="M799.42 380.465H342.958V895.612H799.42V380.465Z" fill="#FFF3E5"/>
<path d="M799.42 380.465H342.958V421.268H799.42V380.465Z" fill="#FCE0C8"/>
<g opacity="0.8">
<path d="M421.982 540.535C428.282 540.535 433.389 535.428 433.389 529.129C433.389 522.829 428.282 517.723 421.982 517.723C415.683 517.723 410.576 522.829 410.576 529.129C410.576 535.428 415.683 540.535 421.982 540.535Z" fill="#FAC199"/>
<path d="M421.982 604.203C428.282 604.203 433.389 599.096 433.389 592.797C433.389 586.497 428.282 581.391 421.982 581.391C415.683 581.391 410.576 586.497 410.576 592.797C410.576 599.096 415.683 604.203 421.982 604.203Z" fill="#FBCBA8"/>
<path d="M421.982 666.058C428.282 666.058 433.389 660.952 433.389 654.652C433.389 648.353 428.282 643.246 421.982 643.246C415.683 643.246 410.576 648.353 410.576 654.652C410.576 660.952 415.683 666.058 421.982 666.058Z" fill="#FBCBA8"/>
<path d="M421.982 726.105C428.282 726.105 433.389 720.998 433.389 714.699C433.389 708.4 428.282 703.293 421.982 703.293C415.683 703.293 410.576 708.4 410.576 714.699C410.576 720.998 415.683 726.105 421.982 726.105Z" fill="#FBCBA8"/>
<path d="M421.982 789.777C428.282 789.777 433.389 784.67 433.389 778.371C433.389 772.072 428.282 766.965 421.982 766.965C415.683 766.965 410.576 772.072 410.576 778.371C410.576 784.67 415.683 789.777 421.982 789.777Z" fill="#FBCBA8"/>
<path d="M728.947 532.765H460.222C459.257 532.765 458.331 532.382 457.649 531.699C456.967 531.017 456.583 530.092 456.583 529.127C456.583 528.162 456.967 527.236 457.649 526.554C458.331 525.872 459.257 525.488 460.222 525.488H728.947C729.912 525.488 730.837 525.872 731.519 526.554C732.202 527.236 732.585 528.162 732.585 529.127C732.585 530.092 732.202 531.017 731.519 531.699C730.837 532.382 729.912 532.765 728.947 532.765Z" fill="#FFD4B0"/>
<path d="M728.947 596.437H460.222C459.257 596.437 458.331 596.053 457.649 595.371C456.967 594.689 456.583 593.763 456.583 592.798C456.583 591.834 456.967 590.908 457.649 590.226C458.331 589.543 459.257 589.16 460.222 589.16H728.947C729.912 589.16 730.837 589.543 731.519 590.226C732.202 590.908 732.585 591.834 732.585 592.798C732.585 593.763 732.202 594.689 731.519 595.371C730.837 596.053 729.912 596.437 728.947 596.437Z" fill="#FFDABB"/>
<path d="M728.947 658.288H460.222C459.257 658.288 458.331 657.905 457.649 657.223C456.967 656.54 456.583 655.615 456.583 654.65C456.583 653.685 456.967 652.76 457.649 652.077C458.331 651.395 459.257 651.012 460.222 651.012H728.947C729.912 651.012 730.837 651.395 731.519 652.077C732.202 652.76 732.585 653.685 732.585 654.65C732.585 655.615 732.202 656.54 731.519 657.223C730.837 657.905 729.912 658.288 728.947 658.288Z" fill="#FFDABB"/>
<path d="M728.947 718.339H460.222C459.257 718.339 458.331 717.956 457.649 717.273C456.967 716.591 456.583 715.666 456.583 714.701C456.583 713.736 456.967 712.81 457.649 712.128C458.331 711.446 459.257 711.062 460.222 711.062H728.947C729.912 711.062 730.837 711.446 731.519 712.128C732.202 712.81 732.585 713.736 732.585 714.701C732.585 715.666 732.202 716.591 731.519 717.273C730.837 717.956 729.912 718.339 728.947 718.339Z" fill="#FFDABB"/>
<path d="M728.947 781.991H460.222C459.257 781.991 458.331 781.608 457.649 780.926C456.967 780.244 456.583 779.318 456.583 778.353C456.583 777.388 456.967 776.463 457.649 775.78C458.331 775.098 459.257 774.715 460.222 774.715H728.947C729.912 774.715 730.837 775.098 731.519 775.78C732.202 776.463 732.585 777.388 732.585 778.353C732.585 779.318 732.202 780.244 731.519 780.926C730.837 781.608 729.912 781.991 728.947 781.991Z" fill="#FFDABB"/>
</g>
<path d="M1252.57 490.998C1253.38 489.42 1254.58 488.07 1256.05 487.072C1257.51 486.075 1259.21 485.46 1260.97 485.286C1278.35 483.303 1300.83 464.202 1307.22 458.417C1312.6 452.921 1317.43 446.914 1321.64 440.481C1331.13 427.014 1337.25 411.468 1339.49 395.147C1341.31 381.649 1340 368.861 1333.43 358.764C1330.34 353.98 1323.7 351.251 1318.04 350.178C1317.72 350.161 1317.4 350.161 1317.08 350.178V350.742L1316.44 350.214H1317.02C1316.24 343.776 1314.4 337.512 1311.57 331.677C1305.85 320.162 1300.96 309.665 1292.3 298.932C1289.06 294.912 1285.92 290.874 1282.33 287.144C1273.38 277.885 1262.1 271.936 1250.77 272.027C1247.24 271.925 1243.77 272.904 1240.82 274.832C1237.87 276.761 1235.58 279.546 1234.25 282.815H1233.61C1228.74 276.167 1222.74 270.418 1215.9 265.824C1202.62 256.91 1192.94 253.617 1179.79 261.294C1175.14 263.804 1171.59 267.935 1169.8 272.9C1167.96 277.411 1167.57 282.384 1168.69 287.126C1172.67 305.554 1177.06 311.012 1188.9 327.147C1177.53 338.899 1162.83 354.853 1156.16 365.914C1145.48 383.632 1124.99 429.256 1171.51 461.765C1171.51 461.765 1170.54 479.956 1148.97 482.394C1104.46 487.342 1061.2 604.768 1015.17 627.78C992.068 639.332 918.756 645.972 900.037 711.461C876.697 793.123 842.279 875.967 783.975 895.614C761.468 903.431 738.466 909.739 715.12 914.497C672.188 922.792 621.106 957.12 611.738 999.815C545.684 1300.34 533.732 1454.84 533.732 1454.84C443.521 1452.37 366.789 1464.9 384.053 1489.82C401.316 1514.74 611.447 1566.55 644.064 1568.48C676.681 1570.41 728.127 1128.99 756.851 1110.51C811.844 1075.07 951.992 1037.13 967.218 1032.87C971.584 1031.65 1049.72 1008.07 1049.72 1015.61C1049.72 1070.4 977.715 1281.73 998.78 1321.41C1024.81 1370.52 1184.88 1640.28 1184.88 1640.28C1119.66 1661.39 1032.43 1731.82 1045.86 1747.18C1059.29 1762.53 1130.43 1748.4 1195.9 1731.68C1265.45 1713.94 1347.48 1675.59 1324.43 1621.58C1278.4 1513.69 1167.73 1352.95 1177.31 1274.29C1186.9 1195.63 1231.12 1139.07 1266.45 1037.42C1306.74 921.701 1314.42 812.988 1314.42 812.988C1341.27 627.635 1310.58 571.296 1310.58 571.296C1283.71 525.981 1250.55 515.575 1250.55 515.575C1247.71 508.462 1248.73 502.259 1250.55 494.8L1252.57 490.998Z" fill="#F2A91F"/>
<mask id="mask0_142_1063" style="mask-type:alpha" maskUnits="userSpaceOnUse" x="381" y="257" width="960" height="1497">
<path d="M1252.57 490.998C1253.38 489.42 1254.58 488.07 1256.05 487.072C1257.51 486.075 1259.21 485.46 1260.98 485.286C1278.35 483.303 1300.83 464.202 1307.22 458.417C1312.6 452.921 1317.43 446.914 1321.64 440.481C1331.13 427.014 1337.25 411.468 1339.49 395.147C1341.31 381.649 1340 368.861 1333.43 358.764C1330.34 353.98 1323.7 351.251 1318.04 350.178C1317.72 350.161 1317.4 350.161 1317.08 350.178V350.742L1316.44 350.214H1317.02C1316.24 343.776 1314.4 337.512 1311.57 331.677C1305.85 320.162 1300.96 309.665 1292.3 298.932C1289.06 294.912 1285.92 290.874 1282.33 287.144C1273.38 277.885 1262.1 271.936 1250.77 272.027C1247.24 271.925 1243.77 272.904 1240.82 274.832C1237.87 276.761 1235.58 279.546 1234.25 282.815H1233.62C1228.74 276.167 1222.74 270.418 1215.9 265.824C1202.62 256.91 1192.94 253.617 1179.79 261.294C1175.14 263.804 1171.59 267.935 1169.8 272.9C1167.96 277.411 1167.57 282.384 1168.69 287.126C1172.67 305.554 1177.06 311.012 1188.9 327.147C1177.53 338.899 1162.83 354.853 1156.16 365.914C1145.48 383.632 1124.99 429.256 1171.51 461.765C1171.51 461.765 1170.55 479.956 1148.97 482.394C1104.46 487.342 1061.2 604.768 1015.17 627.78C992.068 639.332 918.756 645.972 900.037 711.461C876.698 793.123 842.279 875.967 783.975 895.614C761.469 903.431 738.466 909.739 715.121 914.497C672.189 922.792 621.107 957.12 611.738 999.815C545.685 1300.34 533.733 1454.84 533.733 1454.84C443.521 1452.37 366.789 1464.9 384.053 1489.82C401.317 1514.74 611.447 1566.55 644.064 1568.48C676.682 1570.41 728.128 1128.99 756.852 1110.51C811.845 1075.07 951.992 1037.13 967.219 1032.87C971.585 1031.65 1049.72 1008.07 1049.72 1015.61C1049.72 1070.4 977.715 1281.73 998.781 1321.41C1024.81 1370.52 1184.88 1640.28 1184.88 1640.28C1119.66 1661.39 1032.44 1731.82 1045.86 1747.18C1059.29 1762.53 1130.43 1748.4 1195.9 1731.68C1265.45 1713.94 1347.48 1675.59 1324.43 1621.58C1278.4 1513.69 1167.73 1352.95 1177.31 1274.29C1186.9 1195.63 1231.12 1139.07 1266.45 1037.42C1306.75 921.701 1314.42 812.988 1314.42 812.988C1341.27 627.635 1310.58 571.296 1310.58 571.296C1283.71 525.981 1250.55 515.575 1250.55 515.575C1247.71 508.462 1248.73 502.259 1250.55 494.8L1252.57 490.998Z" fill="#F2A91F"/>
</mask>
<g mask="url(#mask0_142_1063)">
<path opacity="0.8" d="M1105.62 1506.36C1105.62 1506.36 1187.14 1627.22 1205.95 1640.19C1224.76 1653.16 1079.39 1697.99 1045.73 1747.23C1012.08 1796.48 1032.85 1662.24 1032.85 1662.24L1091.23 1579.25L1105.62 1506.36Z" fill="#D78D28"/>
<path d="M384.052 1489.87C384.052 1489.87 448.632 1468.04 533.951 1484.42C537.421 1485.08 540.992 1485 544.43 1484.19C547.868 1483.37 551.094 1481.84 553.897 1479.69C556.699 1477.54 559.015 1474.82 560.691 1471.71C562.367 1468.6 563.365 1465.17 563.621 1461.64L589.598 1104.69L434.352 1439.83L370.864 1471.61L384.052 1489.8" fill="#D78D28"/>
<path opacity="0.6" d="M756.833 1110.57C756.833 1110.57 819.558 1052.36 952.483 1019.17C1085.41 985.993 1083.79 961.07 1083.79 961.07C1083.79 961.07 1084.74 995.452 1049.79 1015.64C1014.84 1035.84 756.906 1110.55 756.906 1110.55" fill="#D78D28"/>
<path opacity="0.8" d="M1147.26 434.004C1147.26 434.004 1170.8 465.493 1206.86 470.078C1210.62 470.569 1169.87 501.713 1130.74 495.819C1091.61 489.925 1147.01 472.406 1147.01 472.406L1161.27 463.984L1149.61 452.305L1147.26 434.004Z" fill="#D78D28"/>
<path opacity="0.5" d="M1159.05 479.59C1159.05 479.59 1161.54 564.89 1114.99 597.744C1068.44 630.598 1004.36 606.84 952.483 629.324C900.601 651.809 947.244 626.559 947.244 626.559L980.589 553.248L1039.8 533.473L1070.93 506.55L1090.81 456.414L1152.43 461.599L1159.05 479.59Z" fill="#D78D28"/>
<path opacity="0.6" d="M960.906 813.656C944.099 834.819 931.921 859.274 925.16 885.44C913.59 929.536 923.341 932.119 883.756 936.667C844.171 941.215 814.373 886.732 814.373 886.732L846.791 848.22L874.86 845.128L926.597 824.626L960.906 813.711" fill="#D78D28"/>
</g>
<path d="M926.597 823.812C923.322 844.915 907.823 862.942 899.455 872.639L860.361 847.934L878.971 841.749L926.597 823.812Z" fill="#4498F4"/>
<path d="M717.994 756.701C699.675 743.858 675.771 729.032 656.27 718.081C649.266 714.151 641.389 710.204 633.53 711.914C626.781 713.387 621.597 718.754 617.631 724.411C615.094 727.699 613.239 731.459 612.173 735.472C610.354 743.549 613.847 752.081 619.323 758.302C624.798 764.524 632.057 768.853 639.115 773.092L714.501 817.952L741.351 835.325L791.051 807.51L772.514 776.348L717.994 756.701Z" fill="#255DE8"/>
<path d="M652.651 715.882C655.27 706.513 662.547 698.491 668.932 691.142C684.34 673.441 699.858 655.668 717.667 640.442C751.612 611.517 793.435 592.653 836.84 582.393C843.607 580.792 850.829 579.173 855.704 574.207C864.2 565.511 861.58 551.303 858.797 539.461C849.083 498.093 844.644 454.233 856.341 413.375C866.547 377.756 893.415 339.882 914.972 309.684L1162.87 467.95C1143.88 496.765 1125.01 545.209 1099.2 568.003C1065.53 597.692 1018.9 602.312 975.15 612.354C964.726 614.737 953.065 617.521 947.353 626.562C938.53 640.569 949.755 658.943 947.026 675.26L944.897 686.321L793.107 764.744C793.107 764.744 722.997 740.204 717.667 758.65L652.651 715.882Z" fill="#4498F4"/>
<mask id="mask1_142_1063" style="mask-type:alpha" maskUnits="userSpaceOnUse" x="652" y="309" width="511" height="456">
<path d="M652.651 715.886C655.27 706.517 662.547 698.495 668.932 691.146C684.34 673.445 699.858 655.672 717.667 640.446C751.612 611.521 793.435 592.657 836.84 582.397C843.607 580.796 850.829 579.177 855.704 574.21C864.2 565.515 861.58 551.307 858.797 539.465C849.083 498.097 844.644 454.237 856.341 413.379C866.547 377.76 893.415 339.885 914.972 309.688L1162.87 467.954C1143.88 496.769 1125.01 545.213 1099.2 568.007C1065.53 597.696 1018.9 602.316 975.15 612.358C964.726 614.741 953.065 617.524 947.353 626.566C938.53 640.573 949.755 658.947 947.026 675.264L944.897 686.325L793.107 764.748C793.107 764.748 722.997 740.208 717.667 758.654L652.651 715.886Z" fill="#4498F4"/>
</mask>
<g mask="url(#mask1_142_1063)">
<path d="M1141.16 458.781C1141.16 458.781 1106.16 559.289 1038.07 581.338C969.983 603.386 947.243 626.562 947.243 626.562L1003.64 650.72L1098.96 635.148L1148.24 573.552L1171.74 512.61V479.592L1150.82 463.384L1141.16 458.781Z" fill="#268FEF"/>
<path d="M603.642 691.273L627.636 613.759L669.131 566.734L806.586 482.398C806.586 482.398 862.98 534.008 862.18 566.734C861.379 599.461 842.26 591.711 767.693 629.331C693.126 666.951 655.506 735.879 655.506 735.879L603.642 691.273Z" fill="#1383D6"/>
</g>
<path d="M652.651 715.882C655.27 706.513 662.547 698.491 668.932 691.142C684.34 673.441 699.858 655.668 717.667 640.442C751.612 611.517 793.435 592.653 836.84 582.393C843.607 580.792 850.829 579.173 855.704 574.207C864.2 565.511 861.58 551.303 858.797 539.461C849.083 498.093 844.644 454.233 856.341 413.375C866.547 377.756 893.415 339.882 914.972 309.684L1162.87 467.95C1143.88 496.765 1125.01 545.209 1099.2 568.003C1065.53 597.692 1018.9 602.312 975.15 612.354C964.726 614.737 953.065 617.521 947.353 626.562C938.53 640.569 949.755 658.943 947.026 675.26L944.897 686.321L793.107 764.744C793.107 764.744 722.997 740.204 717.667 758.65L652.651 715.882Z" stroke="#255DE8" stroke-width="5.45746" stroke-miterlimit="10"/>
<path d="M829.781 884.351C841.405 892.083 854.376 898.704 864.982 907.782C869.42 911.584 877.479 915.55 882.827 917.896C887.608 919.94 892.875 920.569 898.002 919.708C903.129 918.847 907.901 916.532 911.752 913.039C919.265 905.908 918.101 893.865 913.717 884.497C909.842 876.22 899.928 872.709 892.214 867.815L861.853 848.514L759.58 791.102L735.604 832.706L829.817 884.351" fill="#255DE8"/>
<path d="M949.171 686.34C949.171 686.34 854.993 730.964 795.398 761.562C787.266 765.8 727.234 729.399 719.958 755.522C712.681 781.645 739.586 776.57 739.586 776.57C739.586 776.57 765.891 774.441 762.635 799.473C762.635 799.473 759.36 807.605 743.843 810.388C728.326 813.171 714.991 812.334 714.5 830.872C714.009 849.409 733.383 851.464 744.098 845.097C754.813 838.73 776.042 822.558 780.19 829.926C783.701 836.129 744.152 850.082 731.873 854.229C731.377 854.392 730.921 854.659 730.537 855.013C730.154 855.367 729.85 855.799 729.648 856.281C729.447 856.762 729.351 857.281 729.367 857.803C729.384 858.325 729.513 858.837 729.745 859.305C732.291 864.526 738.84 873.367 754.922 875.077C754.922 875.077 774.932 873.421 784.337 861.924C793.742 850.427 803.675 846.225 805.603 851.573C807.532 856.922 803.493 857.759 783.373 862.852C763.253 867.946 751.12 875.477 752.066 877.26C753.012 879.043 758.287 888.884 781.7 882.717C805.112 876.55 811.679 867.909 819.993 870.311C807.851 874.025 796.075 878.841 784.81 884.7C784.81 884.7 792.924 896.343 816.373 895.16C816.373 895.16 818.192 904.474 866.163 834.164L925.176 797.254L949.171 686.34Z" fill="#F2A91F"/>
<path d="M926.597 825.684C926.597 825.684 925.124 844.748 899.455 872.636" stroke="#255DE8" stroke-width="5.45746" stroke-miterlimit="10" stroke-linecap="round"/>
<path d="M874.587 376.264C876.074 375.666 877.703 375.52 879.273 375.844C880.842 376.167 882.281 376.946 883.41 378.083C893.181 388.068 900.715 400.018 905.513 413.138C912.08 431.239 913.189 450.776 916.882 469.677C920.315 487.12 925.99 504.045 933.764 520.032C937.984 528.709 942.969 537.259 950.136 543.68C963.071 554.996 981.062 557.743 997.434 563.527C1013.81 569.312 1030.43 583.156 1030.69 600.347C1004.47 606.15 991.031 609.261 964.817 615.064C960.531 616.429 956.445 618.356 952.665 620.794C950.216 622.704 948.181 625.092 946.683 627.813C945.185 630.534 944.256 633.53 943.951 636.621C943.819 642.477 944.387 648.327 945.643 654.048C948.354 667.474 948.281 671.949 944.879 686.375C944.697 687.193 939.931 688.412 935.329 691.323C935.547 671.858 924.85 649.592 914.754 632.964C904.658 616.337 891.723 601.657 879.208 586.758C876.668 583.894 874.334 580.855 872.222 577.662C869.976 573.834 868.082 569.809 866.565 565.638C846.663 514.137 842.916 445.574 860.125 402.187C863.381 393.946 865.582 386.051 871.04 379.065C871.982 377.855 873.241 376.929 874.678 376.391L874.587 376.264Z" fill="#255DE8"/>
<mask id="mask2_142_1063" style="mask-type:alpha" maskUnits="userSpaceOnUse" x="849" y="375" width="182" height="317">
<path d="M874.586 376.264C876.073 375.666 877.703 375.52 879.272 375.844C880.841 376.167 882.28 376.946 883.409 378.083C893.18 388.068 900.714 400.018 905.512 413.138C912.079 431.239 913.189 450.776 916.882 469.677C920.315 487.12 925.989 504.045 933.763 520.032C937.984 528.709 942.968 537.259 950.136 543.68C963.07 554.996 981.061 557.743 997.434 563.527C1013.81 569.312 1030.43 583.156 1030.69 600.347C1004.47 606.15 991.03 609.261 964.816 615.064C960.53 616.429 956.444 618.356 952.664 620.794C950.215 622.704 948.18 625.092 946.682 627.813C945.184 630.534 944.255 633.53 943.951 636.621C943.819 642.477 944.387 648.327 945.642 654.048C948.353 667.474 948.28 671.949 944.878 686.375C944.696 687.193 939.93 688.412 935.328 691.323C935.546 671.858 924.849 649.592 914.753 632.964C904.657 616.337 891.723 601.657 879.207 586.758C876.667 583.894 874.333 580.855 872.221 577.662C869.975 573.834 868.081 569.809 866.564 565.638C846.662 514.137 842.915 445.574 860.124 402.187C863.38 393.946 865.581 386.051 871.039 379.065C871.981 377.855 873.241 376.929 874.677 376.391L874.586 376.264Z" fill="#255DE8"/>
</mask>
<g mask="url(#mask2_142_1063)">
<path d="M864.472 391.305C864.472 391.305 884.356 393.288 907.714 491.85C931.072 590.411 968.692 570.31 994.651 583.28C1020.61 596.251 1030.62 600.289 1030.62 600.289L1036.8 545.715L980.607 525.613L952.501 508.095L931.763 464.017L930.453 431.053L925.178 401.11L907.732 378.953L888.303 371.312L870.949 378.935L864.472 391.305Z" fill="#104BC1"/>
</g>
<path d="M1207.61 366.894C1207.54 367 1207.49 367.111 1207.45 367.226C1206.52 368.793 1205.4 370.509 1204.09 372.003C1202.69 373.582 1201.11 374.883 1199.34 375.517C1198.56 375.791 1198.09 375.714 1197.8 375.54C1197.49 375.357 1197.25 374.993 1197.1 374.437C1196.79 373.319 1196.93 371.746 1197.14 370.63C1198.18 365.775 1200.52 361.293 1203.91 357.665L1203.92 357.656L1203.92 357.647C1205.08 356.286 1206.5 355.166 1208.09 354.353C1208.51 354.162 1208.97 353.992 1209.4 353.951C1209.82 353.91 1210.14 353.995 1210.38 354.243C1210.82 354.735 1211 355.491 1211.01 356.391C1211.02 357.281 1210.86 358.218 1210.71 358.989C1210.11 361.774 1209.06 364.443 1207.61 366.891L1207.61 366.894ZM1204.41 376.576C1206.94 374.398 1209.07 371.797 1210.72 368.889C1210.74 368.849 1210.77 368.808 1210.8 368.765C1212.49 365.906 1213.69 362.783 1214.35 359.526C1214.92 357.273 1214.73 354.895 1213.81 352.76L1213.8 352.739L1213.79 352.719C1213.18 351.592 1212.36 350.885 1211.41 350.526C1210.47 350.171 1209.44 350.173 1208.45 350.378C1206.49 350.786 1204.52 352.02 1203.21 353.164L1203.21 353.164C1198.51 357.309 1195.19 362.805 1193.73 368.903L1193.73 368.903L1193.73 368.906C1193.32 370.643 1193.04 373.115 1193.51 375.213C1193.75 376.267 1194.19 377.262 1194.92 378.014C1195.67 378.777 1196.69 379.255 1198.02 379.325L1198.05 379.326L1198.08 379.325C1200.45 379.197 1202.7 378.222 1204.41 376.576Z" fill="#A76127" stroke="#A76127"/>
<path d="M1264.92 390.965C1265.48 388.71 1265.29 386.331 1264.36 384.198L1264.35 384.178L1264.34 384.159C1263.73 383.034 1262.92 382.326 1261.98 381.964C1261.04 381.606 1260.03 381.606 1259.05 381.809C1257.09 382.212 1255.13 383.441 1253.78 384.578L1253.78 384.578L1253.77 384.586C1249.07 388.742 1245.76 394.244 1244.3 400.344H1244.3L1244.3 400.346C1243.89 402.082 1243.61 404.554 1244.08 406.653C1244.32 407.707 1244.75 408.701 1245.49 409.454C1246.24 410.217 1247.26 410.695 1248.6 410.765L1248.62 410.766L1248.65 410.765C1251.02 410.631 1253.25 409.656 1254.96 408.016C1257.48 405.843 1259.61 403.251 1261.25 400.355C1261.28 400.312 1261.31 400.267 1261.34 400.22L1261.34 400.214L1261.35 400.208C1263.06 397.354 1264.27 394.228 1264.92 390.965ZM1261.27 390.429C1260.69 393.135 1259.69 395.731 1258.3 398.122C1258.22 398.213 1258.16 398.311 1258.1 398.415C1257.14 400.041 1255.98 401.86 1254.59 403.434C1253.2 405.013 1251.62 406.313 1249.84 406.938L1249.84 406.939C1249.06 407.218 1248.59 407.142 1248.3 406.969C1247.99 406.788 1247.76 406.425 1247.61 405.867C1247.31 404.747 1247.44 403.169 1247.66 402.052C1248.7 397.197 1251.04 392.717 1254.43 389.086L1254.43 389.08L1254.44 389.075C1255.62 387.729 1257.05 386.621 1258.64 385.812C1259.06 385.622 1259.53 385.456 1259.96 385.416C1260.38 385.377 1260.7 385.463 1260.93 385.701C1261.37 386.193 1261.55 386.949 1261.56 387.847C1261.57 388.735 1261.41 389.667 1261.27 390.429Z" fill="#A76127" stroke="#A76127"/>
<path d="M607.753 1016.64C612.829 980.933 628.637 959.085 663.11 935.727C697.583 912.369 725.998 914.752 725.998 914.752C731.055 915.389 734.675 920.373 735.385 925.412C736.094 930.451 734.548 935.509 732.82 940.293C732.82 940.293 688.578 986.9 655.015 1030.54C621.451 1074.18 605.734 1030.8 607.753 1016.64Z" fill="#FCB753"/>
<mask id="path-66-outside-1_142_1063" maskUnits="userSpaceOnUse" x="712.413" y="744.035" width="158" height="156" fill="black">
<rect fill="white" x="712.413" y="744.035" width="158" height="156"/>
<path d="M810.389 764.888C804.156 764.307 797.985 763.194 791.943 761.559C785.857 760.135 779.871 758.312 774.024 756.102C760.089 750.644 745.081 741.003 729.618 746.86C726.65 747.881 723.972 749.606 721.815 751.887C719.657 754.168 718.084 756.937 717.23 759.958C715.775 765.416 716.684 771.892 721.068 775.803C726.526 780.66 734.13 780.005 740.879 780.114C744.232 780.035 747.561 780.703 750.623 782.072C753.685 783.441 756.403 785.476 758.579 788.028C762.691 793.012 763.218 799.834 758.397 804.546C753.577 809.257 746.391 810.221 740.06 811.022C732.984 811.895 725.507 812.841 719.904 817.807C717.558 819.991 715.761 822.698 714.658 825.707C713.555 828.716 713.177 831.943 713.555 835.126C715.011 847.314 728.727 855.518 740.133 850.752C744.669 848.658 749.042 846.226 753.213 843.475C757.997 840.547 762.745 837.527 767.766 834.925C769.635 833.881 771.596 833.01 773.624 832.324C774.934 831.906 779.372 830.996 779.081 833.506C778.899 834.871 776.935 835.926 775.843 836.454C774.771 836.925 773.664 837.314 772.532 837.618C770.295 838.345 768.094 839.182 765.911 840.074C755.087 844.385 744.572 849.479 733.693 853.645C731.874 854.354 729.91 855.045 727.963 855.609C727.718 855.683 727.492 855.811 727.303 855.983C727.113 856.156 726.965 856.369 726.869 856.606C726.773 856.844 726.731 857.1 726.748 857.355C726.764 857.611 726.837 857.86 726.963 858.083C733.748 873.055 753.177 880.804 768.385 874.456C770.863 873.277 773.18 871.785 775.279 870.017C778.208 867.779 781.046 865.414 783.92 863.104C786.794 860.794 789.796 858.374 793.016 856.282C795.028 854.7 797.344 853.548 799.82 852.899C801.348 852.662 804.313 852.899 804.586 854.918C804.786 856.446 802.767 857.483 801.657 858.029C798.564 859.484 795.108 859.175 791.852 859.993C784.32 861.903 777.298 865.724 770.277 869.089C766.802 870.726 763.327 872.418 759.744 873.801C758.349 874.351 756.921 874.813 755.469 875.183C753.767 875.34 752.198 876.164 751.103 877.475C748.992 880.823 753.922 884.188 756.56 885.48C759.636 886.948 762.978 887.777 766.384 887.917C774.514 888.14 782.615 886.87 790.287 884.17C794.144 882.933 797.928 881.496 801.639 879.895C805.35 878.294 808.588 876.402 812.117 874.71C814.336 873.637 817.011 872.6 819.394 873.71V870.708C817.138 872.039 814.755 873.142 812.281 874.001C808.642 875.438 805.004 876.766 801.366 878.112C797.728 879.458 794.18 880.75 790.633 882.187C788.103 883.076 785.666 884.209 783.356 885.571C783.137 885.703 782.951 885.883 782.812 886.098C782.673 886.313 782.584 886.556 782.552 886.81C782.521 887.064 782.547 887.322 782.63 887.564C782.712 887.806 782.849 888.027 783.029 888.208C787.78 891.968 793.199 894.794 799.001 896.54C804.549 898.359 811.298 900.178 817.192 898.596C820.365 897.457 823.226 895.587 825.542 893.138C828.571 890.214 831.296 886.99 833.674 883.515C836.275 879.877 838.604 876.057 841.169 872.382C843.734 868.707 845.862 865.851 849.701 860.958C856.213 852.644 862.908 844.494 868.693 835.653C869.875 833.834 866.964 832.142 865.782 833.961C856.068 848.806 843.952 861.903 834.22 876.748C829.908 883.315 825.124 890.519 818.175 894.612C813.791 897.231 807.26 895.521 802.694 894.212C796.429 892.662 790.556 889.825 785.448 885.88L785.121 888.536C787.368 887.196 789.745 886.086 792.216 885.225C795.854 883.788 799.492 882.46 803.13 881.132C806.769 879.804 810.316 878.476 813.863 877.057C816.391 876.155 818.827 875.016 821.14 873.655C821.389 873.504 821.594 873.292 821.736 873.039C821.879 872.785 821.954 872.5 821.954 872.209C821.954 871.918 821.879 871.633 821.736 871.379C821.594 871.126 821.389 870.914 821.14 870.763C816.447 868.562 811.881 870.926 807.697 873.164C804.516 874.889 801.242 876.438 797.891 877.803C790.284 881.05 782.265 883.229 774.06 884.279C767.766 884.97 759.598 885.025 754.832 880.077C754.595 879.84 754.031 879.404 754.159 879.076C754.286 878.749 755.068 878.712 755.269 878.64C755.942 878.458 756.633 878.349 757.288 878.148C758.802 877.712 760.29 877.189 761.745 876.584C765.383 875.147 768.785 873.491 772.259 871.836C779.081 868.58 786.049 864.76 793.471 863.068C796.873 862.304 800.202 862.467 803.458 860.903C806.714 859.338 809.097 856.155 807.042 852.517C805.222 849.424 800.893 848.878 797.746 849.824C794.971 850.834 792.364 852.257 790.014 854.045C783.957 858.265 778.499 863.25 772.605 867.688C770.472 869.448 768.07 870.854 765.492 871.854C761.659 873.133 757.593 873.561 753.577 873.109C749.532 872.669 745.615 871.425 742.057 869.451C738.499 867.477 735.371 864.812 732.857 861.612C731.623 859.967 730.574 858.192 729.728 856.319L728.727 858.775C733.292 857.348 737.769 855.653 742.134 853.699C747.774 851.316 753.377 848.842 759.016 846.422C763.709 844.421 768.439 842.366 773.314 840.783C775.965 840.175 778.426 838.925 780.482 837.145C782.629 834.98 783.12 831.596 780.482 829.595C776.716 826.757 771.259 829.359 767.621 831.142C762.763 833.543 758.143 836.454 753.522 839.291C749.149 842.124 744.625 844.718 739.969 847.059C737.629 848.183 735.05 848.723 732.455 848.631C729.86 848.539 727.326 847.819 725.071 846.532C722.211 844.996 719.891 842.621 718.424 839.726C716.957 836.831 716.413 833.555 716.866 830.341C717.372 826.972 718.863 823.827 721.152 821.302C723.44 818.777 726.424 816.986 729.728 816.152C736.586 814.114 743.881 814.333 750.721 812.313C756.669 810.494 762.436 806.965 764.546 800.816C766.656 794.668 763.91 788.482 759.653 784.171C754.926 779.462 748.551 776.78 741.88 776.694C735.531 776.476 727.017 777.804 722.378 772.31C718.74 767.89 719.413 761.05 722.287 756.429C725.926 750.462 733.511 748.334 740.151 748.388C748.247 748.388 755.814 751.645 763.073 754.901C769.322 757.817 775.757 760.315 782.338 762.378C788.823 764.351 795.42 765.937 802.093 767.126C804.822 767.599 807.551 767.999 810.334 768.199C812.499 768.344 812.481 764.979 810.334 764.834L810.389 764.888Z"/>
</mask>
<path d="M810.389 764.888C804.156 764.307 797.985 763.194 791.943 761.559C785.857 760.135 779.871 758.312 774.024 756.102C760.089 750.644 745.081 741.003 729.618 746.86C726.65 747.881 723.972 749.606 721.815 751.887C719.657 754.168 718.084 756.937 717.23 759.958C715.775 765.416 716.684 771.892 721.068 775.803C726.526 780.66 734.13 780.005 740.879 780.114C744.232 780.035 747.561 780.703 750.623 782.072C753.685 783.441 756.403 785.476 758.579 788.028C762.691 793.012 763.218 799.834 758.397 804.546C753.577 809.257 746.391 810.221 740.06 811.022C732.984 811.895 725.507 812.841 719.904 817.807C717.558 819.991 715.761 822.698 714.658 825.707C713.555 828.716 713.177 831.943 713.555 835.126C715.011 847.314 728.727 855.518 740.133 850.752C744.669 848.658 749.042 846.226 753.213 843.475C757.997 840.547 762.745 837.527 767.766 834.925C769.635 833.881 771.596 833.01 773.624 832.324C774.934 831.906 779.372 830.996 779.081 833.506C778.899 834.871 776.935 835.926 775.843 836.454C774.771 836.925 773.664 837.314 772.532 837.618C770.295 838.345 768.094 839.182 765.911 840.074C755.087 844.385 744.572 849.479 733.693 853.645C731.874 854.354 729.91 855.045 727.963 855.609C727.718 855.683 727.492 855.811 727.303 855.983C727.113 856.156 726.965 856.369 726.869 856.606C726.773 856.844 726.731 857.1 726.748 857.355C726.764 857.611 726.837 857.86 726.963 858.083C733.748 873.055 753.177 880.804 768.385 874.456C770.863 873.277 773.18 871.785 775.279 870.017C778.208 867.779 781.046 865.414 783.92 863.104C786.794 860.794 789.796 858.374 793.016 856.282C795.028 854.7 797.344 853.548 799.82 852.899C801.348 852.662 804.313 852.899 804.586 854.918C804.786 856.446 802.767 857.483 801.657 858.029C798.564 859.484 795.108 859.175 791.852 859.993C784.32 861.903 777.298 865.724 770.277 869.089C766.802 870.726 763.327 872.418 759.744 873.801C758.349 874.351 756.921 874.813 755.469 875.183C753.767 875.34 752.198 876.164 751.103 877.475C748.992 880.823 753.922 884.188 756.56 885.48C759.636 886.948 762.978 887.777 766.384 887.917C774.514 888.14 782.615 886.87 790.287 884.17C794.144 882.933 797.928 881.496 801.639 879.895C805.35 878.294 808.588 876.402 812.117 874.71C814.336 873.637 817.011 872.6 819.394 873.71V870.708C817.138 872.039 814.755 873.142 812.281 874.001C808.642 875.438 805.004 876.766 801.366 878.112C797.728 879.458 794.18 880.75 790.633 882.187C788.103 883.076 785.666 884.209 783.356 885.571C783.137 885.703 782.951 885.883 782.812 886.098C782.673 886.313 782.584 886.556 782.552 886.81C782.521 887.064 782.547 887.322 782.63 887.564C782.712 887.806 782.849 888.027 783.029 888.208C787.78 891.968 793.199 894.794 799.001 896.54C804.549 898.359 811.298 900.178 817.192 898.596C820.365 897.457 823.226 895.587 825.542 893.138C828.571 890.214 831.296 886.99 833.674 883.515C836.275 879.877 838.604 876.057 841.169 872.382C843.734 868.707 845.862 865.851 849.701 860.958C856.213 852.644 862.908 844.494 868.693 835.653C869.875 833.834 866.964 832.142 865.782 833.961C856.068 848.806 843.952 861.903 834.22 876.748C829.908 883.315 825.124 890.519 818.175 894.612C813.791 897.231 807.26 895.521 802.694 894.212C796.429 892.662 790.556 889.825 785.448 885.88L785.121 888.536C787.368 887.196 789.745 886.086 792.216 885.225C795.854 883.788 799.492 882.46 803.13 881.132C806.769 879.804 810.316 878.476 813.863 877.057C816.391 876.155 818.827 875.016 821.14 873.655C821.389 873.504 821.594 873.292 821.736 873.039C821.879 872.785 821.954 872.5 821.954 872.209C821.954 871.918 821.879 871.633 821.736 871.379C821.594 871.126 821.389 870.914 821.14 870.763C816.447 868.562 811.881 870.926 807.697 873.164C804.516 874.889 801.242 876.438 797.891 877.803C790.284 881.05 782.265 883.229 774.06 884.279C767.766 884.97 759.598 885.025 754.832 880.077C754.595 879.84 754.031 879.404 754.159 879.076C754.286 878.749 755.068 878.712 755.269 878.64C755.942 878.458 756.633 878.349 757.288 878.148C758.802 877.712 760.29 877.189 761.745 876.584C765.383 875.147 768.785 873.491 772.259 871.836C779.081 868.58 786.049 864.76 793.471 863.068C796.873 862.304 800.202 862.467 803.458 860.903C806.714 859.338 809.097 856.155 807.042 852.517C805.222 849.424 800.893 848.878 797.746 849.824C794.971 850.834 792.364 852.257 790.014 854.045C783.957 858.265 778.499 863.25 772.605 867.688C770.472 869.448 768.07 870.854 765.492 871.854C761.659 873.133 757.593 873.561 753.577 873.109C749.532 872.669 745.615 871.425 742.057 869.451C738.499 867.477 735.371 864.812 732.857 861.612C731.623 859.967 730.574 858.192 729.728 856.319L728.727 858.775C733.292 857.348 737.769 855.653 742.134 853.699C747.774 851.316 753.377 848.842 759.016 846.422C763.709 844.421 768.439 842.366 773.314 840.783C775.965 840.175 778.426 838.925 780.482 837.145C782.629 834.98 783.12 831.596 780.482 829.595C776.716 826.757 771.259 829.359 767.621 831.142C762.763 833.543 758.143 836.454 753.522 839.291C749.149 842.124 744.625 844.718 739.969 847.059C737.629 848.183 735.05 848.723 732.455 848.631C729.86 848.539 727.326 847.819 725.071 846.532C722.211 844.996 719.891 842.621 718.424 839.726C716.957 836.831 716.413 833.555 716.866 830.341C717.372 826.972 718.863 823.827 721.152 821.302C723.44 818.777 726.424 816.986 729.728 816.152C736.586 814.114 743.881 814.333 750.721 812.313C756.669 810.494 762.436 806.965 764.546 800.816C766.656 794.668 763.91 788.482 759.653 784.171C754.926 779.462 748.551 776.78 741.88 776.694C735.531 776.476 727.017 777.804 722.378 772.31C718.74 767.89 719.413 761.05 722.287 756.429C725.926 750.462 733.511 748.334 740.151 748.388C748.247 748.388 755.814 751.645 763.073 754.901C769.322 757.817 775.757 760.315 782.338 762.378C788.823 764.351 795.42 765.937 802.093 767.126C804.822 767.599 807.551 767.999 810.334 768.199C812.499 768.344 812.481 764.979 810.334 764.834L810.389 764.888Z" fill="#A76127"/>
<path d="M810.389 764.888C804.156 764.307 797.985 763.194 791.943 761.559C785.857 760.135 779.871 758.312 774.024 756.102C760.089 750.644 745.081 741.003 729.618 746.86C726.65 747.881 723.972 749.606 721.815 751.887C719.657 754.168 718.084 756.937 717.23 759.958C715.775 765.416 716.684 771.892 721.068 775.803C726.526 780.66 734.13 780.005 740.879 780.114C744.232 780.035 747.561 780.703 750.623 782.072C753.685 783.441 756.403 785.476 758.579 788.028C762.691 793.012 763.218 799.834 758.397 804.546C753.577 809.257 746.391 810.221 740.06 811.022C732.984 811.895 725.507 812.841 719.904 817.807C717.558 819.991 715.761 822.698 714.658 825.707C713.555 828.716 713.177 831.943 713.555 835.126C715.011 847.314 728.727 855.518 740.133 850.752C744.669 848.658 749.042 846.226 753.213 843.475C757.997 840.547 762.745 837.527 767.766 834.925C769.635 833.881 771.596 833.01 773.624 832.324C774.934 831.906 779.372 830.996 779.081 833.506C778.899 834.871 776.935 835.926 775.843 836.454C774.771 836.925 773.664 837.314 772.532 837.618C770.295 838.345 768.094 839.182 765.911 840.074C755.087 844.385 744.572 849.479 733.693 853.645C731.874 854.354 729.91 855.045 727.963 855.609C727.718 855.683 727.492 855.811 727.303 855.983C727.113 856.156 726.965 856.369 726.869 856.606C726.773 856.844 726.731 857.1 726.748 857.355C726.764 857.611 726.837 857.86 726.963 858.083C733.748 873.055 753.177 880.804 768.385 874.456C770.863 873.277 773.18 871.785 775.279 870.017C778.208 867.779 781.046 865.414 783.92 863.104C786.794 860.794 789.796 858.374 793.016 856.282C795.028 854.7 797.344 853.548 799.82 852.899C801.348 852.662 804.313 852.899 804.586 854.918C804.786 856.446 802.767 857.483 801.657 858.029C798.564 859.484 795.108 859.175 791.852 859.993C784.32 861.903 777.298 865.724 770.277 869.089C766.802 870.726 763.327 872.418 759.744 873.801C758.349 874.351 756.921 874.813 755.469 875.183C753.767 875.34 752.198 876.164 751.103 877.475C748.992 880.823 753.922 884.188 756.56 885.48C759.636 886.948 762.978 887.777 766.384 887.917C774.514 888.14 782.615 886.87 790.287 884.17C794.144 882.933 797.928 881.496 801.639 879.895C805.35 878.294 808.588 876.402 812.117 874.71C814.336 873.637 817.011 872.6 819.394 873.71V870.708C817.138 872.039 814.755 873.142 812.281 874.001C808.642 875.438 805.004 876.766 801.366 878.112C797.728 879.458 794.18 880.75 790.633 882.187C788.103 883.076 785.666 884.209 783.356 885.571C783.137 885.703 782.951 885.883 782.812 886.098C782.673 886.313 782.584 886.556 782.552 886.81C782.521 887.064 782.547 887.322 782.63 887.564C782.712 887.806 782.849 888.027 783.029 888.208C787.78 891.968 793.199 894.794 799.001 896.54C804.549 898.359 811.298 900.178 817.192 898.596C820.365 897.457 823.226 895.587 825.542 893.138C828.571 890.214 831.296 886.99 833.674 883.515C836.275 879.877 838.604 876.057 841.169 872.382C843.734 868.707 845.862 865.851 849.701 860.958C856.213 852.644 862.908 844.494 868.693 835.653C869.875 833.834 866.964 832.142 865.782 833.961C856.068 848.806 843.952 861.903 834.22 876.748C829.908 883.315 825.124 890.519 818.175 894.612C813.791 897.231 807.26 895.521 802.694 894.212C796.429 892.662 790.556 889.825 785.448 885.88L785.121 888.536C787.368 887.196 789.745 886.086 792.216 885.225C795.854 883.788 799.492 882.46 803.13 881.132C806.769 879.804 810.316 878.476 813.863 877.057C816.391 876.155 818.827 875.016 821.14 873.655C821.389 873.504 821.594 873.292 821.736 873.039C821.879 872.785 821.954 872.5 821.954 872.209C821.954 871.918 821.879 871.633 821.736 871.379C821.594 871.126 821.389 870.914 821.14 870.763C816.447 868.562 811.881 870.926 807.697 873.164C804.516 874.889 801.242 876.438 797.891 877.803C790.284 881.05 782.265 883.229 774.06 884.279C767.766 884.97 759.598 885.025 754.832 880.077C754.595 879.84 754.031 879.404 754.159 879.076C754.286 878.749 755.068 878.712 755.269 878.64C755.942 878.458 756.633 878.349 757.288 878.148C758.802 877.712 760.29 877.189 761.745 876.584C765.383 875.147 768.785 873.491 772.259 871.836C779.081 868.58 786.049 864.76 793.471 863.068C796.873 862.304 800.202 862.467 803.458 860.903C806.714 859.338 809.097 856.155 807.042 852.517C805.222 849.424 800.893 848.878 797.746 849.824C794.971 850.834 792.364 852.257 790.014 854.045C783.957 858.265 778.499 863.25 772.605 867.688C770.472 869.448 768.07 870.854 765.492 871.854C761.659 873.133 757.593 873.561 753.577 873.109C749.532 872.669 745.615 871.425 742.057 869.451C738.499 867.477 735.371 864.812 732.857 861.612C731.623 859.967 730.574 858.192 729.728 856.319L728.727 858.775C733.292 857.348 737.769 855.653 742.134 853.699C747.774 851.316 753.377 848.842 759.016 846.422C763.709 844.421 768.439 842.366 773.314 840.783C775.965 840.175 778.426 838.925 780.482 837.145C782.629 834.98 783.12 831.596 780.482 829.595C776.716 826.757 771.259 829.359 767.621 831.142C762.763 833.543 758.143 836.454 753.522 839.291C749.149 842.124 744.625 844.718 739.969 847.059C737.629 848.183 735.05 848.723 732.455 848.631C729.86 848.539 727.326 847.819 725.071 846.532C722.211 844.996 719.891 842.621 718.424 839.726C716.957 836.831 716.413 833.555 716.866 830.341C717.372 826.972 718.863 823.827 721.152 821.302C723.44 818.777 726.424 816.986 729.728 816.152C736.586 814.114 743.881 814.333 750.721 812.313C756.669 810.494 762.436 806.965 764.546 800.816C766.656 794.668 763.91 788.482 759.653 784.171C754.926 779.462 748.551 776.78 741.88 776.694C735.531 776.476 727.017 777.804 722.378 772.31C718.74 767.89 719.413 761.05 722.287 756.429C725.926 750.462 733.511 748.334 740.151 748.388C748.247 748.388 755.814 751.645 763.073 754.901C769.322 757.817 775.757 760.315 782.338 762.378C788.823 764.351 795.42 765.937 802.093 767.126C804.822 767.599 807.551 767.999 810.334 768.199C812.499 768.344 812.481 764.979 810.334 764.834L810.389 764.888Z" stroke="#A76127" stroke-width="1.4" mask="url(#path-66-outside-1_142_1063)"/>
<path d="M1002.2 1241C1004.93 1237.85 1007.66 1237.18 1011.97 1237.16C1015.46 1237 1018.94 1237.74 1022.06 1239.31C1032.05 1244.06 1035.53 1256.37 1037.07 1267.31C1039.87 1286.97 1040.26 1307.84 1050.41 1324.9C1054.61 1331.99 1060.36 1338.14 1063.8 1345.62C1067.23 1353.1 1068.03 1361.46 1064.83 1368.76C1061.63 1376.05 1053.81 1381.49 1045.91 1380.47C1039.87 1379.73 1034.82 1375.65 1030.47 1371.38C1016.35 1357.5 1006.15 1340.02 998.725 1321.66C996.827 1317.36 995.483 1312.84 994.723 1308.2C994.295 1304.22 994.259 1300.21 994.614 1296.23C995.439 1280.18 997.39 1264.2 1000.45 1248.42L1002.2 1241Z" fill="#FCB753"/>
<path d="M1024.76 1364.54C1030.41 1364.96 1036.09 1364.28 1041.49 1362.56C1043.55 1361.9 1042.68 1358.64 1040.6 1359.32C1035.49 1360.93 1030.11 1361.55 1024.76 1361.14C1024.31 1361.14 1023.88 1361.31 1023.56 1361.63C1023.24 1361.95 1023.06 1362.38 1023.06 1362.83C1023.1 1363.26 1023.29 1363.67 1023.6 1363.98C1023.91 1364.29 1024.32 1364.47 1024.76 1364.5V1364.54Z" fill="#A76127"/>
<path d="M611.555 1005.85C616.018 1009.35 621.113 1011.96 626.563 1013.53C628.636 1014.13 629.728 1010.94 627.636 1010.34C622.48 1008.85 617.657 1006.38 613.428 1003.07C613.247 1002.92 613.036 1002.8 612.808 1002.74C612.581 1002.68 612.343 1002.66 612.109 1002.7C611.876 1002.73 611.653 1002.82 611.454 1002.94C611.255 1003.07 611.086 1003.24 610.957 1003.44C610.828 1003.64 610.742 1003.86 610.705 1004.09C610.668 1004.32 610.68 1004.56 610.742 1004.79C610.804 1005.02 610.913 1005.23 611.062 1005.41C611.212 1005.6 611.398 1005.74 611.609 1005.85H611.555Z" fill="#A76127"/>
<path d="M1227.43 277.629C1228.86 280.02 1230.35 282.371 1231.91 284.677C1231.28 286.453 1230.84 288.295 1230.6 290.174C1230.13 293.852 1230.44 297.588 1231.51 301.139C1232.52 304.577 1234.11 307.82 1236.2 310.731L1236.2 310.731L1236.2 310.734L1236.25 310.794C1237.14 311.984 1238.16 313.342 1239.38 314.294C1240.63 315.268 1242.11 315.83 1243.89 315.356C1245.89 314.888 1247.21 313.817 1248 312.392C1248.78 310.974 1249.04 309.224 1248.95 307.405C1248.78 303.77 1247.27 299.79 1245.83 297.448L1245.83 297.447C1244.25 294.9 1242.37 292.456 1240.51 290.034C1239.71 288.987 1238.91 287.945 1238.14 286.901L1238.14 286.901L1238.14 286.898C1237.46 286.021 1236.8 285.133 1236.16 284.235C1236.34 283.819 1236.54 283.409 1236.75 283.004C1238 280.786 1239.71 278.858 1241.76 277.349C1243.81 275.838 1246.16 274.78 1248.65 274.245L1248.65 274.245L1248.65 274.243C1249.23 274.103 1249.62 273.768 1249.83 273.344C1250.04 272.926 1250.06 272.438 1249.93 271.993C1249.69 271.104 1248.85 270.323 1247.67 270.598C1242.18 271.818 1237.36 275.105 1234.23 279.777L1234.23 279.777L1234.22 279.785C1234.05 280.079 1233.87 280.375 1233.71 280.675C1232.62 279.021 1231.58 277.336 1230.59 275.622L1230.58 275.614L1230.57 275.605C1230.3 275.226 1229.89 274.961 1229.43 274.864C1228.98 274.767 1228.5 274.844 1228.09 275.079C1227.69 275.315 1227.38 275.693 1227.24 276.14C1227.1 276.586 1227.13 277.07 1227.32 277.497L1227.33 277.53L1227.36 277.556L1227.43 277.629ZM1234.23 291.726C1234.32 290.695 1234.47 289.673 1234.69 288.667C1235.88 290.306 1237.1 291.92 1238.35 293.51L1238.35 293.51L1238.35 293.514C1240.33 295.912 1242.07 298.488 1243.57 301.21C1244.16 302.444 1244.74 303.954 1245.04 305.489C1245.35 307.028 1245.39 308.575 1244.92 309.892C1244.72 310.444 1244.35 311.006 1243.87 311.377C1243.4 311.746 1242.85 311.917 1242.26 311.733C1241.65 311.541 1241.1 311.054 1240.59 310.46C1240.23 310.033 1239.91 309.57 1239.61 309.143C1239.49 308.975 1239.38 308.812 1239.27 308.66C1237.54 306.247 1236.2 303.577 1235.3 300.748L1235.3 300.746C1234.34 297.841 1233.98 294.774 1234.23 291.726Z" fill="#A76127" stroke="#A76127" stroke-width="0.4"/>
<path d="M1314.48 346.523L1314.42 346.586L1314.32 346.272C1314.14 345.699 1314.23 345.192 1314.49 344.797C1314.74 344.406 1315.15 344.14 1315.59 344.018C1316.04 343.895 1316.53 343.913 1316.97 344.111C1317.4 344.31 1317.77 344.688 1317.94 345.26C1317.94 345.26 1317.94 345.261 1317.94 345.261L1317.75 345.32C1318.16 346.568 1318.5 347.833 1318.78 349.113L1314.48 346.523ZM1314.48 346.523C1314.78 347.368 1315.03 348.225 1315.23 349.091M1314.48 346.523L1315.23 349.091M1315.23 349.091C1314.69 349.175 1314.16 349.307 1313.64 349.487C1312.44 349.903 1311.34 350.565 1310.41 351.432L1310.41 351.431L1310.4 351.439C1308.77 353.124 1307.59 355.203 1306.99 357.475" fill="#A76127" stroke="#A76127" stroke-width="0.4"/>
<path d="M1231.03 336.487L1231.05 336.493L1231.07 336.498C1231.53 336.574 1231.99 336.48 1232.38 336.234C1232.76 335.988 1233.04 335.608 1233.16 335.166C1233.28 334.725 1233.24 334.254 1233.03 333.846C1232.83 333.437 1232.47 333.12 1232.05 332.955L1232.02 332.946L1232 332.94C1227.09 331.581 1221.94 331.328 1216.92 332.199C1211.9 333.07 1207.13 335.044 1202.96 337.979L1202.96 337.979L1202.96 337.981C1201.99 338.672 1202.03 339.821 1202.46 340.563C1202.68 340.938 1203.03 341.264 1203.48 341.401C1203.94 341.543 1204.44 341.461 1204.89 341.12C1208.63 338.458 1212.92 336.661 1217.43 335.859C1221.96 335.057 1226.6 335.272 1231.03 336.487Z" fill="#A76127" stroke="#A76127"/>
<path d="M1278.95 365.8L1278.95 365.8C1278.71 365.377 1278.64 364.873 1278.76 364.398C1278.88 363.923 1279.19 363.517 1279.61 363.269C1280.04 363.021 1280.54 362.952 1281.02 363.076C1281.49 363.2 1281.9 363.507 1282.14 363.93L1278.95 365.8ZM1278.95 365.8L1278.96 365.803M1278.95 365.8L1278.96 365.803M1278.96 365.803C1281.09 369.392 1283.34 373.204 1284.88 377.195C1286.42 381.18 1287.23 385.311 1286.51 389.531C1286.32 390.697 1287.12 391.509 1287.95 391.742C1288.37 391.86 1288.85 391.85 1289.26 391.633C1289.69 391.408 1289.99 390.99 1290.08 390.423M1278.96 365.803L1290.08 390.423M1290.08 390.423C1291.7 380.705 1286.81 371.874 1282.14 363.93L1290.08 390.423Z" fill="#A76127" stroke="#A76127"/>
<path d="M1216.75 416.885C1218.72 417.768 1220.34 419.277 1221.35 421.178C1223.81 425.362 1221.08 434.749 1217.72 438.314C1215.96 440.29 1213.79 441.855 1211.37 442.899C1207.53 444.445 1205.69 444.354 1202.71 442.735C1199.19 440.752 1196.16 438.004 1193.85 434.694L1193.27 433.876C1191.49 431.655 1189.31 429.801 1186.83 428.418C1182.65 425.837 1178.29 423.569 1173.78 421.633C1172.85 421.138 1172.03 420.459 1171.37 419.637C1170.71 418.814 1170.23 417.865 1169.94 416.848C1169.64 415.828 1169.57 414.754 1169.73 413.701C1170.04 411.291 1170.93 408.991 1172.31 406.99C1173.69 404.988 1175.52 403.342 1177.66 402.186C1179.05 401.428 1180.59 401.009 1182.17 400.965C1183.76 400.921 1185.33 401.252 1186.75 401.931C1188.19 402.495 1189.52 403.308 1190.68 404.333C1193.72 407.116 1202.29 411.282 1216.75 416.885Z" fill="#A76127"/>
<path d="M1217.74 414.261C1217.7 414.241 1217.65 414.222 1217.61 414.204L1217.61 414.204C1216.47 413.761 1215.32 413.321 1214.16 412.88C1206.3 409.873 1198.23 406.784 1191.81 401.736C1189.42 399.72 1186.44 398.547 1183.32 398.399C1180.19 398.25 1177.11 399.139 1174.54 400.926L1174.54 400.926L1174.53 400.933C1169.96 404.186 1166.18 410.299 1166.99 416.307L1166.99 416.311C1167.47 419.737 1169.32 421.901 1171.63 423.488C1172.76 424.271 1174.01 424.919 1175.25 425.514C1175.75 425.754 1176.24 425.98 1176.72 426.203C1177.46 426.549 1178.19 426.887 1178.92 427.253L1178.92 427.255C1180.77 428.179 1182.56 429.224 1184.37 430.288C1184.84 430.564 1185.32 430.841 1185.8 431.118C1188.21 432.526 1190.05 434.52 1191.91 436.694C1192.12 436.931 1192.32 437.169 1192.53 437.41C1194.17 439.34 1195.91 441.373 1198.08 443.019C1200.34 444.972 1203.1 446.27 1206.05 446.774L1206.12 446.787L1206.2 446.789C1209.24 446.856 1212.23 446.011 1214.79 444.363C1217.35 442.812 1219.55 440.731 1221.24 438.261C1222.93 435.791 1224.07 432.989 1224.59 430.043C1225.85 424.049 1224.64 417.339 1218.07 414.388L1218.07 414.387C1217.96 414.338 1217.85 414.296 1217.74 414.261ZM1199.66 412.775C1204.98 415.233 1210.42 417.435 1215.84 419.557C1217.75 420.54 1218.73 421.971 1219.16 423.626C1219.64 425.45 1219.45 427.614 1218.86 429.833L1218.85 429.854L1218.85 429.875C1218.39 431.981 1217.48 433.962 1216.18 435.684C1214.88 437.406 1213.23 438.827 1211.33 439.852L1211.3 439.869L1211.27 439.888C1210.39 440.448 1209.4 440.822 1208.37 440.985C1207.37 441.144 1206.34 441.1 1205.36 440.855C1202.87 439.786 1200.65 438.199 1198.83 436.201L1198.81 436.189L1198.8 436.178C1197.94 435.286 1197.21 434.334 1196.44 433.328C1196.11 432.888 1195.76 432.437 1195.39 431.976L1195.39 431.976L1195.39 431.97C1193.6 429.762 1191.42 427.891 1188.97 426.447C1187.25 425.411 1185.49 424.365 1183.68 423.39C1182.17 422.561 1180.63 421.788 1179.07 421.055C1178.59 420.822 1178.08 420.603 1177.6 420.392C1177.43 420.319 1177.27 420.247 1177.11 420.176C1176.46 419.892 1175.87 419.613 1175.32 419.296C1174.23 418.668 1173.41 417.925 1172.94 416.806L1172.94 416.806L1172.94 416.795C1172.08 414.824 1172.47 412.48 1173.66 410.249C1174.85 408.025 1176.74 406.088 1178.56 405.032L1178.56 405.032L1178.57 405.025C1179.56 404.434 1180.67 404.076 1181.82 403.978C1182.96 403.881 1184.11 404.045 1185.17 404.456C1186.97 405.231 1188.64 406.284 1190.11 407.575L1190.16 407.618L1190.22 407.654C1193.2 409.648 1196.36 411.363 1199.66 412.775Z" fill="#A76127" stroke="#A76127" stroke-width="2"/>
<path d="M1216.75 416.885C1218.72 417.768 1220.34 419.277 1221.35 421.178C1223.81 425.362 1221.08 434.749 1217.72 438.314C1215.96 440.29 1213.79 441.855 1211.37 442.899C1207.53 444.445 1205.69 444.354 1202.71 442.735C1199.19 440.752 1196.16 438.004 1193.85 434.694L1193.27 433.876C1191.49 431.655 1189.31 429.801 1186.83 428.418C1182.65 425.837 1178.29 423.569 1173.78 421.633C1172.85 421.138 1172.03 420.459 1171.37 419.637C1170.71 418.814 1170.23 417.865 1169.94 416.848C1169.64 415.828 1169.57 414.754 1169.73 413.701C1170.04 411.291 1170.93 408.991 1172.31 406.99C1173.69 404.988 1175.52 403.342 1177.66 402.186C1179.05 401.428 1180.59 401.009 1182.17 400.965C1183.76 400.921 1185.33 401.252 1186.75 401.931C1188.19 402.495 1189.52 403.308 1190.68 404.333C1193.72 407.116 1202.29 411.282 1216.75 416.885Z" fill="#A76127"/>
<mask id="mask3_142_1063" style="mask-type:alpha" maskUnits="userSpaceOnUse" x="1169" y="400" width="54" height="45">
<path d="M1216.75 416.885C1218.72 417.768 1220.34 419.277 1221.35 421.178C1223.81 425.362 1221.08 434.749 1217.72 438.314C1215.96 440.29 1213.79 441.855 1211.37 442.899C1207.53 444.445 1205.69 444.354 1202.71 442.735C1199.19 440.752 1196.16 438.004 1193.85 434.694L1193.27 433.876C1191.5 431.655 1189.31 429.801 1186.83 428.418C1182.65 425.837 1178.29 423.569 1173.78 421.633C1172.85 421.138 1172.03 420.459 1171.37 419.637C1170.71 418.814 1170.23 417.865 1169.94 416.848C1169.64 415.828 1169.57 414.754 1169.73 413.701C1170.04 411.291 1170.93 408.991 1172.31 406.99C1173.69 404.988 1175.52 403.342 1177.66 402.186C1179.05 401.428 1180.59 401.009 1182.18 400.965C1183.76 400.921 1185.33 401.252 1186.75 401.931C1188.19 402.495 1189.52 403.308 1190.68 404.333C1193.72 407.116 1202.29 411.282 1216.75 416.885Z" fill="#A76127"/>
</mask>
<g mask="url(#mask3_142_1063)">
<path d="M1180.62 425.021C1180.62 425.021 1195.74 421.565 1203.96 428.86C1203.96 428.86 1209.58 424.403 1221.73 429.951C1233.89 435.5 1206.82 449.962 1206.82 449.962L1189.97 442.995L1182.02 429.296L1180.62 424.967" fill="#F9B282"/>
</g>
<path opacity="0.6" d="M1040.13 783.845C1040.13 783.845 1147.68 737.875 1198.4 704.348C1198.4 704.348 1208.53 726.578 1202.23 750.791C1195.94 775.004 1022.14 791.103 1022.14 791.103L1040.13 783.845Z" fill="#D78D28"/>
<path d="M978.625 807.147C973.007 809.149 967.42 811.236 961.831 813.324C956.146 815.447 950.459 817.572 944.734 819.608M978.625 807.147L877.042 844.114M978.625 807.147C981.763 806.027 984.912 804.965 988.059 803.904C993.14 802.191 998.217 800.479 1003.24 798.524M978.625 807.147L1003.24 798.524M944.734 819.608C940.25 821.206 935.727 822.69 931.205 824.174C925.325 826.104 919.444 828.034 913.645 830.214C908.639 832.093 903.648 834.015 898.656 835.937C891.469 838.704 884.28 841.471 877.042 844.114M944.734 819.608L944.852 819.938C944.852 819.938 944.852 819.938 944.852 819.938M944.734 819.608L944.852 819.938M877.042 844.114C877.024 844.121 877.007 844.127 876.989 844.134C876.985 844.135 876.982 844.136 876.978 844.138L876.989 844.167V844.416M877.042 844.114L877.104 844.464C877.102 844.465 877.1 844.466 877.099 844.466C877.072 844.476 877.045 844.486 877.018 844.496L876.989 844.416M876.989 844.416L876.908 844.195C876.905 844.196 876.901 844.197 876.898 844.198C876.88 844.203 876.862 844.209 876.844 844.214L876.898 844.517H876.989V844.416ZM944.852 819.938C950.53 817.918 956.172 815.811 961.809 813.706L961.952 813.652C967.542 811.564 973.127 809.478 978.743 807.477L978.743 807.477C981.868 806.361 985.011 805.301 988.157 804.24C993.245 802.525 998.339 800.807 1003.37 798.85M944.852 819.938L1003.37 798.85M1003.37 798.85C1022.52 791.509 1041.45 783.677 1060.37 775.849C1063.02 774.752 1065.67 773.656 1068.32 772.561C1068.32 772.561 1068.32 772.561 1068.32 772.561L1068.18 772.238M1003.37 798.85L887.781 836.217C891.89 834.674 896.025 833.068 900.156 831.463C906.728 828.909 913.289 826.36 919.713 824.081C924.361 822.432 929.037 820.887 933.707 819.344C934.297 819.15 934.887 818.955 935.476 818.76C940.736 817.02 945.984 815.266 951.18 813.349L951.181 813.349C954.478 812.136 957.769 810.894 961.062 809.652C968.766 806.745 976.477 803.835 984.282 801.284M1068.18 772.238C1087.5 764.27 1106.38 755.538 1125.21 746.478C1128 745.136 1130.8 743.805 1133.59 742.474C1144.85 737.113 1156.11 731.751 1167.05 725.631C1180.3 718.172 1193.19 710.095 1205.93 701.818L1213.51 696.852M1068.18 772.238C1065.53 773.333 1062.88 774.429 1060.23 775.525C1041.31 783.354 1022.39 791.184 1003.24 798.524M1068.18 772.238L1003.24 798.524M1213.51 696.852L1213.7 697.145M1213.51 696.852L1213.71 697.145M1213.51 696.852C1215.33 695.669 1213.62 692.759 1211.8 693.941C1199.78 701.855 1187.66 709.641 1175.28 716.99L1213.7 697.145M1213.7 697.145L1213.71 697.145M1213.7 697.145C1213.7 697.145 1213.71 697.145 1213.71 697.145M1213.71 697.145C1214.81 696.427 1214.82 695.179 1214.33 694.332C1214.08 693.908 1213.68 693.554 1213.2 693.398C1212.71 693.239 1212.15 693.298 1211.61 693.648L1211.61 693.648L1211.61 693.649C1199.59 701.561 1187.48 709.344 1175.1 716.689C1168.26 720.743 1161.35 724.651 1154.3 728.322C1148.99 731.088 1143.54 733.668 1138.09 736.252C1136.3 737.097 1134.52 737.942 1132.74 738.795L1132.74 738.795C1132.04 739.132 1131.34 739.468 1130.64 739.805C1112.4 748.563 1094.24 757.288 1075.58 765.202M1075.58 765.202C1053.75 774.345 1031.85 783.277 1009.88 791.996M1075.58 765.202L1075.71 765.525M1075.58 765.202C1075.58 765.202 1075.58 765.202 1075.58 765.203L1075.71 765.525M1009.88 791.996C1001.41 795.34 992.917 798.412 984.282 801.284M1009.88 791.996C1009.88 791.996 1009.88 791.996 1009.88 791.995L1010.01 792.321M1009.88 791.996L1010.01 792.321M984.282 801.284C984.283 801.284 984.283 801.284 984.283 801.284L984.392 801.617M984.282 801.284C984.282 801.285 984.282 801.285 984.281 801.285L984.392 801.617M984.392 801.617C993.033 798.743 1001.53 795.668 1010.01 792.321M984.392 801.617C976.594 804.165 968.895 807.07 961.194 809.976C957.899 811.219 954.604 812.462 951.301 813.678L1010.01 792.321M1010.01 792.321C1031.98 783.601 1053.88 774.669 1075.71 765.525M1010.01 792.321L1075.71 765.525M1075.71 765.525C1094.39 757.607 1112.55 748.879 1130.78 740.122C1131.49 739.785 1132.19 739.448 1132.89 739.111L1075.71 765.525Z" fill="#A76127" stroke="#A76127" stroke-width="0.7"/>
<path d="M1198.22 704.896C1197.95 705.319 1197.86 705.853 1198.04 706.442V706.458L1198.06 706.508C1199.44 711.004 1200.42 715.61 1201.01 720.275L1201.01 720.283L1201.02 720.292C1201.83 724.902 1202.23 729.575 1202.23 734.256L1202.23 734.275L1202.23 734.293C1202.28 734.795 1202.52 735.26 1202.89 735.598C1203.27 735.936 1203.76 736.123 1204.26 736.123C1204.77 736.123 1205.25 735.936 1205.63 735.598C1206 735.26 1206.24 734.795 1206.29 734.293L1206.29 734.274L1206.29 734.256C1206.28 729.36 1205.85 724.474 1205 719.652C1204.41 714.813 1203.4 710.036 1201.97 705.375L1201.97 705.375L1201.96 705.365C1201.54 704.129 1200.34 703.794 1199.4 704.053C1198.93 704.184 1198.49 704.469 1198.22 704.896Z" fill="#A76127" stroke="#A76127" stroke-width="0.7"/>
<path d="M1357.65 400.386C1357.43 400.35 1357.23 400.263 1357.05 400.132C1356.88 400.001 1356.74 399.83 1356.65 399.633C1356.55 399.436 1356.51 399.22 1356.52 399.003C1356.53 398.785 1356.59 398.573 1356.7 398.385C1360.46 392.018 1376.04 370.152 1409.8 376.118C1449.18 383.086 1426.3 422.707 1404.34 416.667C1382.88 410.755 1384.28 404.697 1357.65 400.386Z" fill="#00B6FF"/>
<path d="M1366.47 394.949C1366.47 394.949 1366.23 387.672 1382.04 382.215C1397.85 376.757 1412.96 377.34 1419.55 386.29C1426.13 395.24 1423.04 407.428 1411.65 408.01C1400.27 408.593 1376.93 397.095 1368.43 397.441C1368.43 397.496 1365.88 397.132 1366.47 394.949Z" fill="#00C6FF"/>
<path d="M1415.51 388.51L1410.74 384.708C1409.72 384.017 1408.87 383.103 1408.25 382.034C1408.05 381.688 1407.95 381.291 1407.97 380.89C1407.99 380.489 1408.12 380.102 1408.36 379.778C1409.14 378.996 1410.45 379.469 1411.44 379.978L1419.86 384.399C1420.77 384.828 1421.61 385.379 1422.37 386.036C1422.75 386.365 1423.06 386.769 1423.27 387.223C1423.49 387.677 1423.61 388.171 1423.62 388.674C1423.62 389.178 1423.46 389.669 1423.15 390.067C1422.84 390.466 1422.4 390.75 1421.91 390.875C1421.29 390.924 1420.66 390.811 1420.09 390.548C1418.92 390.061 1417.81 389.451 1416.77 388.728" fill="#85E2FF"/>
<path d="M1377.6 402.101C1377.42 402.101 1377.45 401.755 1377.6 401.792C1380.58 402.101 1387.91 403.393 1399.52 408.65C1412.38 414.471 1419.29 407.886 1421.35 405.43C1421.4 405.382 1421.46 405.349 1421.52 405.336C1421.58 405.322 1421.65 405.329 1421.71 405.354C1421.77 405.38 1421.83 405.424 1421.86 405.479C1421.9 405.535 1421.92 405.6 1421.91 405.667C1421.53 408.614 1419.22 416.381 1404.98 413.725C1392.9 411.451 1394.32 407.085 1377.6 402.101Z" fill="#7EDAFF"/>
<path d="M1350.57 425.199C1350.35 424.757 1350.3 424.25 1350.42 423.773C1350.54 423.295 1350.83 422.878 1351.24 422.597C1354.24 420.778 1362.3 418.104 1378.29 426.054C1399.47 436.568 1382.37 455.488 1375.91 455.961C1370.32 456.379 1361.7 450.612 1356.88 440.389C1352.42 430.911 1353.35 431.202 1350.57 425.199Z" fill="#00B6FF"/>
<path d="M1357.53 428.383C1357.47 428.62 1357.42 428.864 1357.41 429.11C1357.41 430.748 1357.81 436.587 1366.79 443.664C1377.4 451.923 1382.42 443.482 1382.84 441.099C1383.26 438.715 1383.55 430.82 1365.68 426.418C1365.76 426.345 1358.81 424.763 1357.53 428.383Z" fill="#00C6FF"/>
<path d="M1377.6 435.66C1376.35 435.343 1375.21 434.717 1374.27 433.841C1372.27 432.021 1368.81 428.383 1370.23 426.71C1372.21 424.345 1381.27 429.929 1381.35 433.75C1381.37 436.06 1379.29 436.042 1377.6 435.66Z" fill="#85E2FF"/>
<path d="M1357.88 438.242C1358.46 438.415 1358.98 438.757 1359.37 439.225C1361.19 441.298 1366.32 447.156 1371.07 448.429C1375.82 449.703 1380.58 447.174 1382.29 446.155C1382.53 446.01 1382.79 446.283 1382.69 446.574C1382.19 448.367 1381.11 449.941 1379.61 451.042C1378.11 452.144 1376.28 452.71 1374.42 452.65C1367.14 452.65 1357.88 438.242 1357.88 438.242Z" fill="#85E2FF"/>
<path d="M796.522 764.565L796.509 764.572C796.048 764.781 795.526 764.811 795.043 764.657C794.561 764.504 794.154 764.176 793.899 763.738L793.899 763.738C793.645 763.301 793.562 762.784 793.667 762.289C793.772 761.794 794.057 761.356 794.467 761.059L794.483 761.047L794.501 761.037L804.051 755.671C828.939 741.662 854.013 727.942 879.635 715.222C892.376 708.897 905.274 702.914 918.168 696.933L918.382 696.834C931.348 690.819 944.31 684.804 957.112 678.439L957.112 678.439C981.303 666.453 1005.2 653.921 1029.05 641.188C1052.97 628.381 1076.83 615.502 1100.63 602.55L1100.8 602.858L1100.63 602.55C1124.83 589.398 1149.02 576.262 1173.55 563.743L1173.55 563.743C1174.72 563.147 1175.81 563.751 1176.31 564.598C1176.55 565.023 1176.67 565.535 1176.57 566.03C1176.46 566.535 1176.13 566.986 1175.56 567.277L796.522 764.565ZM796.522 764.565L796.536 764.558C821.568 750.441 846.629 736.401 872.236 723.379C886.967 715.888 901.924 708.939 916.89 701.987C927.951 696.848 939.017 691.707 949.999 686.344L949.846 686.029M796.522 764.565L949.846 686.029M949.846 686.029L949.999 686.344C974.308 674.462 998.325 661.981 1022.23 649.301M949.846 686.029L1022.23 649.301M1022.23 649.301C1046.13 636.621 1070.06 623.831 1093.85 610.878M1022.23 649.301L1093.85 610.878M1093.85 610.878C1095.73 609.856 1097.62 608.833 1099.5 607.81M1093.85 610.878L1099.5 607.81M1099.5 607.81C1121.81 595.678 1144.1 583.554 1166.61 571.879L1099.5 607.81ZM1166.61 571.879L1175.56 567.278L1166.61 571.879Z" fill="#A76127" stroke="#A76127" stroke-width="0.7"/>
<path d="M533 1455C538.05 1458.19 542.238 1461.8 545.972 1466.47C546.913 1467.65 547.779 1470.39 549 1471" stroke="#A76127" stroke-width="5" stroke-linecap="round"/>
<path d="M1184 1639.5C1189.6 1642.14 1194.45 1642 1200.5 1642" stroke="#A76127" stroke-width="5" stroke-linecap="round"/>
</g>
<path d="M1562.17 1823.36H1761.22" stroke="#255DE8" stroke-width="11" stroke-miterlimit="10" stroke-linecap="round"/>
<path d="M243.304 1823.36H354.836" stroke="#255DE8" stroke-width="11" stroke-miterlimit="10" stroke-linecap="round"/>
<defs>
<clipPath id="clip0_142_1063">
<rect width="1521.87" height="1534" fill="white" transform="translate(239.356 257)"/>
</clipPath>
</defs>
</svg>
