<svg width="2000" height="2000" viewBox="0 0 2000 2000" fill="none" xmlns="http://www.w3.org/2000/svg">
<path d="M262.7 1611.44C201.32 1570.21 145.56 1525.18 128.76 1450.22C122.86 1423.91 120.68 1394.83 132.76 1371.03C147.99 1341.1 181.95 1327.37 213.9 1324.35C266.4 1319.35 313.61 1310.02 351.63 1336.24C352.989 1337.2 354.616 1337.72 356.283 1337.71C357.95 1337.71 359.574 1337.18 360.927 1336.21C362.281 1335.24 363.297 1333.87 363.834 1332.29C364.37 1330.71 364.4 1329 363.92 1327.41C354.61 1294.19 357.75 1276.99 357.03 1232.19C356.19 1179.25 382.54 1129.86 414.52 1089.19C452.11 1041.39 504.3 999.309 562.96 1001.47C609.47 1003.18 651.82 1033.1 681.27 1071.31C710.72 1109.52 729.27 1155.62 747.49 1201.05C736.4 1066.54 805.49 928.299 916.76 862.569C957.53 838.479 1006.02 823.569 1051.04 836.569C1096.06 849.569 1133.82 897.569 1125.52 946.299C1177.52 894.999 1263.01 901.159 1324.05 939.679C1385.09 978.199 1427.57 1041.83 1468.83 1103.15C1474.32 1111.3 1480.34 1119.88 1489.19 1123.4C1503.19 1128.97 1518.12 1120.07 1531.75 1113.58C1605.36 1078.52 1697.43 1116.35 1744.92 1185.52C1792.41 1254.69 1801.23 1346.94 1787.47 1431.25C1828.23 1499.99 1780.47 1606.17 1704.4 1615.79" fill="#FFF3E5"/>
<path d="M282.54 538.789C394.59 531.659 507.03 533.939 619.13 540.179C624.38 540.469 629.97 540.689 634.52 537.889C639.07 535.089 641.67 528.019 638.3 523.739C636.13 520.979 632.47 520.349 629.15 519.639C613.938 516.299 600.2 508.163 589.96 496.429C583.82 489.429 578.68 479.829 581.2 470.639C583.43 462.479 591.04 457.309 598.61 454.539C607.08 451.429 616.61 450.449 624.86 454.299C633.11 458.149 639.23 467.689 637.54 477.029C635.96 485.639 627.45 492.109 619.28 490.919C611.11 489.729 604.55 481.059 605.21 472.319C599.58 478.929 603.78 490.139 610.71 495.169C622.83 503.969 639.99 500.399 651.78 491.119C657.209 486.885 661.703 481.574 664.98 475.519C677.33 452.239 665.41 419.269 642.38 408.519C619.35 397.769 590.06 408.799 576.38 431.249C576 397.169 564.03 362.499 540.38 339.489C516.73 316.479 480.81 306.989 451.04 319.679C440.23 324.289 430.58 331.479 421.48 339.199C412.38 346.919 403.89 355.069 397.1 364.909C380.43 389.089 376.36 422.469 386.69 450.369C381.78 436.319 366.14 430.669 352.27 427.969C340.01 425.579 327.35 424.119 315.12 426.689C293.66 431.199 275.12 448.939 268.7 471.149C262.28 493.359 268.16 519.149 283.5 535.659" fill="#F7E0CA"/>
<path d="M902.54 686.552C831.63 681.742 760.48 683.282 689.54 687.492C686.21 687.692 682.67 687.832 679.8 685.942C676.93 684.052 675.27 679.292 677.4 676.402C678.78 674.542 681.1 674.112 683.19 673.642C692.956 671.295 701.673 665.791 707.99 657.982C711.88 653.262 715.13 646.792 713.54 640.592C712.13 635.082 707.31 631.592 702.54 629.722C697.18 627.632 691.12 626.972 685.93 629.562C680.74 632.152 676.85 638.632 677.93 644.932C678.93 650.732 684.31 655.102 689.49 654.292C694.67 653.482 698.81 647.652 698.39 641.752C701.96 646.212 699.3 653.752 694.91 657.172C687.24 663.102 676.38 660.692 668.91 654.432C665.428 651.537 662.579 647.956 660.54 643.912C652.72 628.212 660.26 605.972 674.83 598.712C689.4 591.452 707.95 598.892 716.58 614.042C716.82 591.042 724.39 567.672 739.37 552.152C754.35 536.632 777.07 530.232 795.91 538.792C802.75 541.892 808.91 546.792 814.62 551.952C820.501 557.028 825.685 562.859 830.04 569.292C840.59 585.602 843.17 608.122 836.64 626.932C839.74 617.462 849.64 613.642 858.42 611.822C866.17 610.212 874.18 609.232 881.92 610.962C895.5 613.962 907.22 625.962 911.3 640.962C915.38 655.962 911.64 673.302 901.93 684.472" fill="#F7E0CA"/>
<path d="M586.02 766.509C531.38 762.829 476.55 764.009 421.88 767.229C419.32 767.379 416.6 767.489 414.38 766.039C412.16 764.589 410.89 760.949 412.53 758.739C413.59 757.319 415.38 756.989 417 756.619C424.517 754.831 431.234 750.613 436.11 744.619C439.11 741.009 441.61 736.049 440.38 731.309C439.29 727.089 435.58 724.419 431.89 722.989C427.76 721.379 423.09 720.879 419.09 722.869C415.09 724.859 412.09 729.809 412.93 734.629C413.69 739.069 417.84 742.409 421.83 741.799C425.82 741.189 429.01 736.709 428.69 732.199C431.44 735.609 429.39 741.399 426.01 743.999C420.1 748.539 411.73 746.699 406.01 741.899C403.337 739.704 401.148 736.98 399.58 733.899C393.58 721.899 399.37 704.899 410.58 699.299C421.79 693.699 436.1 699.439 442.75 711.029C442.93 693.439 448.75 675.539 460.31 663.659C471.87 651.779 489.36 646.879 503.88 653.429C509.15 655.809 513.88 659.519 518.3 663.499C522.817 667.392 526.804 671.86 530.16 676.789C538.29 689.269 540.28 706.509 535.24 720.909C537.64 713.659 545.24 710.739 552.03 709.349C558.03 708.109 564.18 707.349 570.14 708.689C580.6 711.019 589.64 720.169 592.78 731.639C595.92 743.109 593.04 756.399 585.56 764.949" fill="#F7E0CA"/>
<path d="M295.54 516.621C285.33 499.621 288.29 476.091 301.93 461.681C313.87 448.731 333.33 444.551 349.93 449.531C352.182 450.241 354.381 451.11 356.51 452.131C354.431 453.136 352.301 454.034 350.13 454.821C339.19 459.321 328.36 463.511 319.42 471.181C306.32 482.441 300.84 500.111 295.56 516.621H295.54Z" fill="#FCF2E6"/>
<path d="M899.96 667.61C906.27 657.12 904.44 642.53 895.96 633.61C888.58 625.61 876.54 623.01 866.28 626.09C864.888 626.532 863.528 627.07 862.21 627.7C863.494 628.321 864.809 628.876 866.15 629.36C872.92 632.15 879.62 634.74 885.15 639.49C893.26 646.49 896.65 657.39 899.92 667.6L899.96 667.61Z" fill="#FCF2E6"/>
<path d="M580.54 753.03C585.41 744.95 584 733.71 577.54 726.84C571.85 720.66 562.54 718.67 554.66 721.04C553.591 721.386 552.546 721.801 551.53 722.28C552.506 722.765 553.507 723.195 554.53 723.57C559.74 725.71 564.91 727.71 569.17 731.37C575.42 736.74 578.03 745.16 580.54 753.03Z" fill="#FCF2E6"/>
<path d="M1533.66 956.041L1526.88 1186.31L1594.22 1199.31C1595.79 1199.61 1597.29 1200.23 1598.62 1201.12C1599.96 1202.01 1601.1 1203.16 1601.98 1204.5C1602.86 1205.84 1603.46 1207.34 1603.75 1208.92C1604.04 1210.5 1604.02 1212.12 1603.67 1213.68L1603.25 1215.56C1602.59 1218.6 1600.77 1221.27 1598.17 1222.99C1595.58 1224.71 1592.42 1225.36 1589.36 1224.8L1526.88 1213.35L1524.42 1608.84L1492.42 1607.61L1487.54 1063.48C1487.53 1062.83 1487.38 1062.2 1487.09 1061.61C1486.81 1061.03 1486.41 1060.51 1485.91 1060.1C1485.41 1059.69 1484.83 1059.39 1484.2 1059.22C1483.57 1059.06 1482.92 1059.03 1482.28 1059.14L1416.02 1070.69C1414.73 1070.92 1413.41 1070.88 1412.14 1070.59C1410.86 1070.3 1409.65 1069.77 1408.59 1069.01C1407.52 1068.25 1406.62 1067.29 1405.93 1066.18C1405.24 1065.07 1404.77 1063.83 1404.56 1062.54L1403.45 1055.7C1403.24 1054.42 1403.29 1053.11 1403.58 1051.84C1403.88 1050.58 1404.43 1049.38 1405.19 1048.33C1405.94 1047.27 1406.91 1046.38 1408.01 1045.7C1409.12 1045.02 1410.35 1044.56 1411.63 1044.35L1489.29 1031.77L1486.21 951.121L1533.66 956.041Z" fill="#F6DDC8"/>
<g opacity="0.8">
<path d="M1644.89 967.122L1337.89 935.722L1270.14 650.042C1270.14 650.042 1455.05 591.352 1474.96 456.922C1474.96 456.922 1487.48 611.922 1715.9 677.752L1644.89 967.122Z" fill="#FCF2E6"/>
<mask id="mask0_138_3" style="mask-type:alpha" maskUnits="userSpaceOnUse" x="1270" y="456" width="446" height="512">
<path d="M1644.89 967.122L1337.89 935.722L1270.14 650.042C1270.14 650.042 1455.05 591.352 1474.96 456.922C1474.96 456.922 1487.48 611.922 1715.9 677.752L1644.89 967.122Z" fill="#FCF2E6"/>
</mask>
<g mask="url(#mask0_138_3)">
<path opacity="0.7" d="M1512.11 507.2C1512.11 507.2 1435.76 747.94 1274.45 798.42L1238.12 621.72L1475.78 413L1512.11 507.2Z" fill="#F7E0CA"/>
</g>
<path d="M1462.85 596.273C1447.79 596.633 1436.3 602.213 1429.13 615.463C1421.96 628.713 1422.44 644.963 1426.54 659.463C1427.87 664.493 1429.85 669.325 1432.45 673.833C1436.17 679.81 1441.26 684.806 1447.32 688.4C1453.37 691.994 1460.19 694.08 1467.22 694.483C1474.25 694.768 1481.25 693.456 1487.71 690.647C1494.16 687.838 1499.89 683.604 1504.47 678.263C1511.59 670.004 1515.42 659.414 1515.22 648.513C1514.87 637.333 1509.97 626.813 1504.34 617.153C1501.24 612.174 1497.1 607.924 1492.2 604.693C1492.2 604.693 1482.54 595.793 1462.85 596.273Z" fill="#FAD1B6"/>
<path d="M1470.54 602.023C1468.97 625.629 1468.18 649.276 1468.15 672.963C1468.15 679.696 1468.21 686.423 1468.33 693.143C1468.33 693.408 1468.44 693.662 1468.62 693.85C1468.81 694.037 1469.06 694.143 1469.33 694.143C1469.6 694.143 1469.85 694.037 1470.04 693.85C1470.22 693.662 1470.33 693.408 1470.33 693.143C1469.9 669.483 1470.23 645.816 1471.33 622.143C1471.66 615.429 1472.04 608.716 1472.49 602.003C1472.57 600.713 1470.57 600.723 1470.49 602.003L1470.54 602.023Z" fill="#EFBC96"/>
<path d="M1511.54 650.47C1488.37 650.173 1465.28 647.803 1442.54 643.39C1436.18 642.157 1429.85 640.754 1423.54 639.18C1423.28 639.11 1423.01 639.144 1422.78 639.275C1422.55 639.407 1422.38 639.624 1422.31 639.88C1422.24 640.136 1422.27 640.41 1422.41 640.64C1422.54 640.871 1422.75 641.04 1423.01 641.11C1445.57 646.711 1468.59 650.262 1491.79 651.72C1498.34 652.134 1504.9 652.384 1511.46 652.47C1511.73 652.47 1511.98 652.365 1512.17 652.177C1512.35 651.99 1512.46 651.735 1512.46 651.47C1512.46 651.205 1512.35 650.951 1512.17 650.763C1511.98 650.576 1511.73 650.47 1511.46 650.47H1511.54Z" fill="#EFBC96"/>
<path d="M1578.29 880.001C1561.29 878.831 1555.07 877.941 1538.12 876.001C1534.54 875.723 1531 875.052 1527.56 874.001C1526.96 873.85 1526.42 873.527 1526.01 873.071C1525.68 872.514 1525.53 871.875 1525.56 871.23C1524.7 851.495 1525.55 831.722 1528.08 812.131C1528.82 806.381 1529.87 800.311 1533.73 795.991C1536.13 793.495 1539.09 791.606 1542.37 790.481C1549.28 787.955 1556.76 787.391 1563.97 788.853C1571.18 790.314 1577.85 793.743 1583.23 798.76C1586.14 801.441 1588.45 804.714 1589.99 808.361C1592.22 813.941 1591.99 820.15 1591.7 826.15C1590.75 844.424 1589.15 862.65 1586.9 880.83L1578.29 880.001Z" fill="#FAD1B6"/>
<path d="M1560.54 790.153C1558.67 812.533 1556.39 834.913 1555.54 857.363C1555.31 863.683 1555.18 870.016 1555.16 876.363C1555.16 876.628 1555.27 876.882 1555.45 877.07C1555.64 877.257 1555.89 877.363 1556.16 877.363C1556.43 877.363 1556.68 877.257 1556.87 877.07C1557.05 876.882 1557.16 876.628 1557.16 876.363C1557.25 853.953 1559.04 831.693 1560.91 809.363L1562.51 790.183C1562.61 788.903 1560.61 788.903 1560.51 790.183L1560.54 790.153Z" fill="#EFBC96"/>
<path d="M1589.98 837.462C1569.1 837.803 1548.24 836.071 1527.7 832.292C1526.44 832.062 1525.9 833.992 1527.17 834.222C1543.29 837.2 1559.61 838.925 1575.99 839.382C1580.66 839.516 1585.32 839.542 1589.99 839.462C1590.26 839.462 1590.51 839.357 1590.7 839.17C1590.88 838.982 1590.99 838.728 1590.99 838.462C1590.99 838.197 1590.88 837.943 1590.7 837.755C1590.51 837.568 1590.26 837.462 1589.99 837.462H1589.98Z" fill="#EFBC96"/>
<path d="M1757.54 813.084C1759.46 806.414 1763.36 800.624 1766.31 794.414C1769.16 788.243 1771.04 781.669 1771.88 774.924C1772.72 767.954 1773.18 760.943 1773.24 753.924C1773.32 750.634 1773.24 747.544 1771.18 744.804C1769.43 742.566 1767.22 740.723 1764.71 739.394C1759.9 736.753 1754.44 735.516 1748.96 735.823C1743.48 736.131 1738.2 737.971 1733.71 741.134C1728.6 744.894 1725.12 750.364 1722.1 755.844C1718.59 762.093 1715.96 768.796 1714.28 775.764C1712.39 783.944 1711.52 792.384 1710.34 800.694L1706.72 826.174C1706.54 827.434 1708.47 827.974 1708.65 826.704C1710.65 812.334 1712.5 797.904 1714.81 783.564C1715.81 776.679 1717.71 769.956 1720.46 763.564C1723.1 757.654 1726.27 751.564 1730.58 746.684C1734.2 742.667 1738.94 739.826 1744.19 738.527C1749.44 737.228 1754.95 737.53 1760.03 739.394C1762.57 740.319 1764.94 741.671 1767.03 743.394C1768.32 744.349 1769.37 745.591 1770.09 747.021C1770.82 748.451 1771.2 750.03 1771.21 751.634C1771.28 758.271 1770.94 764.907 1770.21 771.504C1769.57 778.923 1767.7 786.185 1764.68 792.994C1761.68 799.514 1757.53 805.544 1755.52 812.524C1755.45 812.78 1755.48 813.053 1755.61 813.285C1755.74 813.517 1755.96 813.687 1756.22 813.759C1756.47 813.83 1756.74 813.797 1756.98 813.667C1757.21 813.537 1757.38 813.32 1757.45 813.064L1757.54 813.084Z" fill="#FCF2E6"/>
<path d="M1757.91 810.293C1760.45 803.013 1762.99 795.736 1765.54 788.463C1766.89 784.887 1767.96 781.209 1768.73 777.463C1769.23 773.932 1770.1 770.463 1771.33 767.113C1772.67 764.164 1773.62 761.05 1774.15 757.853C1774.48 754.914 1774.21 751.94 1773.38 749.103C1772.59 746.332 1771.26 743.745 1769.46 741.491C1767.67 739.237 1765.44 737.362 1762.92 735.973C1757.85 733.231 1751.93 732.516 1746.36 733.973C1740.36 735.593 1735.48 739.823 1731.69 744.573C1727.36 750.079 1723.96 756.253 1721.61 762.853C1719.08 769.753 1717.03 776.923 1715.18 784.043C1714.18 788.043 1713.37 792.043 1712.74 796.043C1712.48 797.995 1712.06 799.921 1711.48 801.803C1710.82 803.669 1710.01 805.475 1709.05 807.203C1707.2 810.56 1705.66 814.082 1704.45 817.723C1703.28 821.577 1702.58 825.56 1702.38 829.583C1702.37 829.739 1702.41 829.895 1702.47 830.037C1702.54 830.179 1702.64 830.304 1702.76 830.401C1702.88 830.498 1703.02 830.565 1703.18 830.597C1703.33 830.629 1703.49 830.624 1703.64 830.583C1719.73 827.003 1735.69 822.866 1751.5 818.173C1754.66 817.233 1758.24 816.173 1759.87 813.063C1760.46 811.923 1758.73 810.913 1758.14 812.063C1757.21 813.863 1755.44 814.773 1753.6 815.433C1751.51 816.173 1749.34 816.743 1747.21 817.353C1742.36 818.773 1737.49 820.136 1732.6 821.443C1722.82 824.063 1712.99 826.47 1703.11 828.663L1704.38 829.663C1704.78 822.737 1706.68 815.981 1709.95 809.863C1711.56 807.102 1712.85 804.166 1713.79 801.113C1714.65 797.843 1714.94 794.443 1715.6 791.113C1716.96 784.273 1719.03 777.573 1721.06 770.903C1723.09 764.233 1725.39 757.853 1728.98 751.903C1732.22 746.563 1736.3 741.333 1741.74 738.103C1744.21 736.621 1746.96 735.677 1749.81 735.333C1752.67 734.988 1755.56 735.251 1758.31 736.103C1761.02 736.94 1763.51 738.353 1765.62 740.245C1767.74 742.137 1769.41 744.463 1770.54 747.063C1773.01 752.633 1772.62 758.433 1770.44 764.063C1769.72 765.903 1768.92 767.713 1768.32 769.603C1767.78 771.399 1767.38 773.234 1767.13 775.093C1766.47 779.016 1765.46 782.874 1764.13 786.623C1761.46 794.363 1758.72 802.083 1756.02 809.813C1755.59 811.033 1757.52 811.553 1757.95 810.343L1757.91 810.293Z" fill="#FCF2E6"/>
<path d="M1769.67 668.312C1769.67 668.312 1751.67 667.112 1724.17 659.732C1632.01 635.022 1554.64 572.622 1509.66 488.472C1493.66 458.562 1476.75 421.572 1474.96 396.172L1471.27 395.992C1471.27 395.992 1470.45 526.702 1316.11 606.742C1316.11 606.742 1237.3 642.042 1204.11 636.742L1208.62 661.742C1208.62 661.742 1291.94 660.512 1385.94 589.502C1479.94 518.492 1475.01 456.922 1475.01 456.922C1475.01 456.922 1490.27 583.532 1660.95 660.512C1660.95 660.512 1686.81 674.642 1764.39 688.602L1875.54 641.222L1875.95 624.392L1769.67 668.312Z" fill="#EFBC96"/>
<path d="M1875.98 624.39V617.39C1875.98 617.39 1783.63 616.16 1699.48 541.46C1615.33 466.76 1586.2 352.23 1586.2 352.23L1474.96 396.15C1474.96 396.15 1477.42 448.28 1538.96 538.58C1600.5 628.88 1718.74 662.58 1769.64 668.29L1875.98 624.39Z" fill="#F6DCC8"/>
<mask id="mask1_138_3" style="mask-type:alpha" maskUnits="userSpaceOnUse" x="1474" y="352" width="402" height="317">
<path d="M1875.98 624.39V617.39C1875.98 617.39 1783.63 616.16 1699.48 541.46C1615.33 466.76 1586.2 352.23 1586.2 352.23L1474.96 396.15C1474.96 396.15 1477.42 448.28 1538.96 538.58C1600.5 628.88 1718.74 662.58 1769.64 668.29L1875.98 624.39Z" fill="#F6DCC8"/>
</mask>
<g mask="url(#mask1_138_3)">
<path opacity="0.4" d="M1497.13 387.55C1497.13 387.55 1536.21 620.55 1820.57 687.55C1820.57 687.55 1546.38 682.21 1451.97 398.17L1497.13 387.5" fill="#EFBC96"/>
</g>
<path d="M1715.9 677.751L1644.89 967.131L1762.28 911.301L1820.57 665.031L1764.33 687.601L1715.9 677.751Z" fill="#F7E0CA"/>
<path d="M1738.42 817.16C1727.06 819.51 1716.35 824.06 1705.42 827.82L1706.65 829.05C1711.86 816.38 1712.07 802.52 1714.36 789.19C1715.64 782.286 1717.42 775.482 1719.67 768.83C1721.5 763.17 1723.67 757.52 1727.09 752.6C1730.58 747.527 1735.61 743.709 1741.44 741.71C1747.31 739.731 1753.55 739.049 1759.71 739.71C1762.66 739.938 1765.51 740.856 1768.04 742.39C1770.47 744.034 1772.24 746.486 1773.04 749.31C1774.78 755.07 1773.63 761.39 1772.54 767.15C1769.62 782.471 1764.21 797.212 1756.54 810.79L1757.14 810.33L1738.41 817.18C1737.21 817.62 1737.72 819.55 1738.94 819.11L1748.3 815.68L1754.74 813.33C1755.74 812.98 1756.74 812.7 1757.67 812.26C1758.6 811.82 1758.84 810.78 1759.26 810.02C1759.84 808.96 1760.4 807.89 1760.96 806.82C1761.96 804.82 1762.96 802.82 1763.96 800.7C1765.81 796.64 1767.47 792.5 1768.96 788.28C1771.96 779.819 1774.11 771.084 1775.4 762.2C1776.4 755.28 1776.4 746.85 1770.62 741.89C1764.84 736.93 1755.76 737.04 1748.62 738.02C1740.62 739.11 1733.12 742.4 1727.79 748.54C1722.71 754.39 1719.87 761.78 1717.55 769.07C1716.15 773.47 1714.81 777.91 1713.75 782.41C1712.69 786.91 1712.04 791.18 1711.45 795.6C1710.26 804.52 1709.45 813.6 1706.97 822.23C1706.35 824.371 1705.62 826.477 1704.78 828.54C1704.49 829.24 1705.33 830 1706.01 829.77C1716.94 826.01 1727.65 821.46 1739.01 819.11C1740.21 818.79 1739.67 816.9 1738.42 817.16Z" fill="#EFBC96"/>
<path d="M1751.41 739.91C1748.97 750.63 1746.49 761.36 1744.1 772.1C1741.88 782.1 1740.57 792.23 1738.34 802.2C1737.17 807.802 1735.39 813.26 1733.05 818.48C1732.5 819.64 1734.23 820.66 1734.77 819.48C1739.07 810.28 1740.91 800.29 1742.61 790.35C1744.41 779.82 1746.75 769.43 1749.11 759.01L1753.34 740.43C1753.62 739.17 1751.69 738.64 1751.41 739.9V739.91Z" fill="#EFBC96"/>
<path d="M1768.22 777.061C1761.22 782.331 1752.41 784.141 1743.85 785.181C1734.06 786.381 1724.21 787.181 1714.4 788.181C1713.13 788.311 1713.12 790.311 1714.4 790.181L1738.69 787.711C1745.56 787.011 1752.53 786.241 1759.09 783.981C1762.72 782.775 1766.14 781.007 1769.23 778.741C1770.23 777.981 1769.23 776.241 1768.23 777.021L1768.22 777.061Z" fill="#EFBC96"/>
<g opacity="0.5">
<path d="M1684.38 693.853C1675.64 720.633 1667.34 747.546 1659.49 774.593C1657.29 782.193 1655.12 789.796 1652.99 797.403C1652.92 797.658 1652.95 797.932 1653.08 798.164C1653.21 798.396 1653.43 798.566 1653.69 798.638C1653.94 798.709 1654.21 798.676 1654.45 798.546C1654.68 798.415 1654.85 798.199 1654.92 797.943C1662.52 770.809 1670.56 743.809 1679.05 716.943C1681.44 709.416 1683.86 701.889 1686.31 694.363C1686.71 693.143 1684.78 692.613 1684.38 693.833V693.853Z" fill="#EFBC96"/>
<path d="M1645.94 701.469C1637.58 724.802 1630.11 748.429 1623.54 772.349C1621.69 779.069 1619.92 785.809 1618.22 792.569C1618.15 792.825 1618.18 793.098 1618.32 793.329C1618.45 793.559 1618.66 793.729 1618.92 793.799C1619.18 793.869 1619.45 793.835 1619.68 793.704C1619.91 793.572 1620.08 793.355 1620.15 793.099C1626.21 769.059 1633.17 745.276 1641.03 721.749C1643.24 715.142 1645.52 708.559 1647.87 701.999C1648.31 700.779 1646.37 700.259 1645.94 701.469Z" fill="#EFBC96"/>
<path d="M1675.13 759.65C1655.49 754.698 1635.48 751.403 1615.29 749.801C1614.01 749.701 1614.02 751.701 1615.29 751.801C1635.3 753.396 1655.14 756.664 1674.6 761.571C1674.85 761.615 1675.1 761.566 1675.31 761.433C1675.52 761.3 1675.68 761.093 1675.74 760.853C1675.81 760.612 1675.78 760.355 1675.67 760.133C1675.56 759.91 1675.36 759.738 1675.13 759.65Z" fill="#EFBC96"/>
<path d="M1690.23 738.342C1683.41 737.102 1676.5 735.552 1669.53 735.912C1668.25 735.982 1668.24 737.982 1669.53 737.912C1676.33 737.552 1683.05 739.062 1689.7 740.272C1690.96 740.502 1691.5 738.572 1690.23 738.342Z" fill="#EFBC96"/>
<path d="M1693.83 711.141L1608.21 700.141L1583.96 697.041C1582.69 696.871 1582.7 698.871 1583.96 699.041L1669.58 710.041L1693.83 713.151C1695.11 713.311 1695.09 711.311 1693.83 711.151V711.141Z" fill="#EFBC96"/>
<path d="M1633.81 732.791L1589.09 725.601C1587.83 725.401 1587.29 727.321 1588.56 727.531L1633.28 734.721C1634.53 734.921 1635.08 733.001 1633.81 732.791Z" fill="#EFBC96"/>
<path d="M1617.32 671.789L1595.82 731.949C1595.39 733.169 1597.32 733.689 1597.75 732.479L1619.25 672.329C1619.68 671.109 1617.75 670.589 1617.32 671.789Z" fill="#EFBC96"/>
<path d="M1522.13 888.531C1518.54 898.365 1515.24 908.291 1512.23 918.311C1512.19 918.557 1512.23 918.81 1512.37 919.021C1512.5 919.233 1512.71 919.387 1512.95 919.453C1513.19 919.52 1513.45 919.494 1513.67 919.38C1513.89 919.267 1514.06 919.075 1514.15 918.841C1517.17 908.841 1520.47 898.918 1524.06 889.071C1524.5 887.851 1522.57 887.331 1522.13 888.531Z" fill="#EFBC96"/>
<path d="M1534.37 898.7C1519.7 895.773 1504.99 893.243 1490.22 891.11C1488.96 890.93 1488.42 892.85 1489.69 893.04C1504.47 895.166 1519.19 897.696 1533.84 900.63C1535.1 900.88 1535.64 898.96 1534.37 898.7Z" fill="#EFBC96"/>
<path d="M1506.38 880.84L1492.1 921.27C1491.67 922.49 1493.6 923.01 1494.02 921.8L1508.31 881.37C1508.74 880.15 1506.81 879.63 1506.38 880.84Z" fill="#EFBC96"/>
<path d="M1535.96 914.639L1490.48 905.589C1489.23 905.339 1488.69 907.269 1489.95 907.519L1535.43 916.519C1536.68 916.769 1537.22 914.839 1535.96 914.589V914.639Z" fill="#EFBC96"/>
<path d="M1345.76 649.339C1346.43 670.357 1348.17 691.328 1350.98 712.169C1351.78 718.109 1352.66 724.035 1353.63 729.949C1353.84 731.209 1355.77 730.679 1355.56 729.419C1352.17 708.761 1349.83 687.944 1348.56 667.049C1348.2 661.149 1347.93 655.245 1347.74 649.339C1347.74 648.059 1345.74 648.049 1345.74 649.339H1345.76Z" fill="#EFBC96"/>
<path d="M1368.43 691.101C1351.81 690.336 1335.25 688.626 1318.83 685.981C1317.57 685.771 1317.03 687.701 1318.29 687.901C1334.89 690.593 1351.63 692.329 1368.43 693.101C1369.71 693.161 1369.71 691.161 1368.43 691.101Z" fill="#EFBC96"/>
<path d="M1309.48 637.3C1312.32 662.56 1315.82 687.737 1319.97 712.83C1321.15 719.97 1322.39 727.1 1323.68 734.22C1323.91 735.48 1325.84 734.95 1325.61 733.69C1321.1 708.77 1317.24 683.747 1314.03 658.62C1313.13 651.52 1312.28 644.414 1311.48 637.3C1311.34 636.04 1309.34 636.02 1309.48 637.3Z" fill="#EFBC96"/>
<path d="M1359.82 661.539L1303.19 655.219L1287.12 653.429C1285.84 653.289 1285.85 655.289 1287.12 655.429L1343.75 661.749L1359.82 663.539C1361.1 663.679 1361.09 661.679 1359.82 661.539Z" fill="#EFBC96"/>
<path d="M1442.23 524.632L1431.29 583.262C1431.06 584.522 1432.98 585.062 1433.22 583.802L1444.16 525.162C1444.39 523.912 1442.46 523.372 1442.23 524.632Z" fill="#EFBC96"/>
<path d="M1448.14 564.91C1434.81 563.623 1421.49 562.183 1408.19 560.59C1406.91 560.44 1406.93 562.44 1408.19 562.59C1421.49 564.177 1434.81 565.617 1448.14 566.91C1449.42 567.03 1449.41 565.03 1448.14 564.91Z" fill="#EFBC96"/>
<path d="M1488.95 502.511C1487.82 519.169 1485.3 535.703 1481.41 551.941C1480.31 556.541 1479.1 561.117 1477.77 565.671C1477.7 565.927 1477.73 566.2 1477.87 566.431C1478 566.661 1478.21 566.83 1478.47 566.901C1478.73 566.971 1479 566.937 1479.23 566.805C1479.46 566.674 1479.63 566.457 1479.7 566.201C1484.37 550.068 1487.7 533.575 1489.63 516.891C1490.19 512.111 1490.63 507.317 1490.95 502.511C1491.04 501.221 1489.04 501.231 1488.95 502.511Z" fill="#EFBC96"/>
<path d="M1484.54 531.002C1473.46 531.093 1462.41 529.922 1451.6 527.512C1450.34 527.232 1449.81 529.152 1451.07 529.442C1462.06 531.895 1473.28 533.089 1484.54 533.002C1484.81 533.002 1485.06 532.897 1485.25 532.709C1485.43 532.522 1485.54 532.267 1485.54 532.002C1485.54 531.737 1485.43 531.483 1485.25 531.295C1485.06 531.108 1484.81 531.002 1484.54 531.002Z" fill="#EFBC96"/>
</g>
<path d="M1750.99 481.959L1719.59 492.429L1663.26 477.649L1694.66 466.879L1750.99 481.959Z" fill="#EFBC96"/>
<path d="M1719.6 492.431L1698.97 598.631L1720.32 592.061C1723.54 591.071 1726.43 589.218 1728.67 586.702C1730.91 584.187 1732.43 581.105 1733.04 577.791L1751.04 481.941L1719.6 492.431Z" fill="#F7E0CA"/>
<path d="M1698.97 598.629L1667.53 582.629C1665.69 581.692 1664.16 580.258 1663.1 578.489C1662.03 576.721 1661.49 574.691 1661.53 572.629L1663.25 477.629L1719.59 492.409L1698.97 598.629Z" fill="#FEF2E5"/>
<path d="M1472.85 897.471C1476.68 875.308 1479.17 852.934 1480.31 830.471C1481.41 808.931 1481.03 786.321 1471.16 767.211C1468.28 761.41 1464.3 756.221 1459.45 751.931C1449.45 743.391 1435.97 740.551 1423.01 739.131C1417.31 738.511 1411.52 738.131 1405.9 739.131C1401.06 740.031 1396.48 741.981 1391.9 743.921C1386.23 746.341 1380.38 748.921 1376.19 753.481C1373.53 756.634 1371.42 760.206 1369.93 764.051C1364.82 775.981 1361.8 788.699 1361 801.651C1360.34 812.231 1361.17 822.851 1362 833.431C1363.68 854.831 1365.42 876.551 1372.67 896.731L1472.85 897.471Z" fill="#F4D3BA"/>
<mask id="mask2_138_3" style="mask-type:alpha" maskUnits="userSpaceOnUse" x="1360" y="738" width="121" height="160">
<path d="M1472.85 897.471C1476.68 875.308 1479.17 852.934 1480.31 830.471C1481.41 808.931 1481.03 786.321 1471.16 767.211C1468.28 761.41 1464.3 756.221 1459.45 751.931C1449.45 743.391 1435.97 740.551 1423.01 739.131C1417.31 738.511 1411.52 738.131 1405.9 739.131C1401.06 740.031 1396.48 741.981 1391.9 743.921C1386.23 746.341 1380.38 748.921 1376.19 753.481C1373.53 756.634 1371.42 760.206 1369.93 764.051C1364.82 775.981 1361.8 788.699 1361 801.651C1360.34 812.231 1361.17 822.851 1362 833.431C1363.68 854.831 1365.42 876.551 1372.67 896.731L1472.85 897.471Z" fill="#F4D3BA"/>
</mask>
<g mask="url(#mask2_138_3)">
<path d="M1452.17 739.098C1452.17 739.098 1393.71 728.578 1389.74 799.468C1385.77 870.358 1389.04 911.208 1389.04 911.208L1356.87 903.048C1356.87 903.048 1336.98 805.358 1358.59 767.608C1380.2 729.858 1415.82 708.638 1452.17 739.098Z" fill="#EFBC96"/>
</g>
<path d="M1471.26 396.002L1474.96 396.172L1586.19 352.262H1583.68L1471.26 396.002Z" fill="#EFBC96"/>
</g>
<path d="M1564.09 403.309C1563.96 403.287 1563.83 403.302 1563.72 403.352C1563.6 403.401 1563.5 403.484 1563.43 403.589C1563.35 403.694 1563.31 403.817 1563.31 403.945C1563.3 404.072 1563.34 404.199 1563.4 404.309C1577.94 426.489 1582.53 452.709 1600.4 472.309C1608.72 481.439 1609.64 481.019 1613.23 482.439C1617.23 484.049 1621.06 481.129 1625.05 479.359C1626.41 478.749 1627.89 477.879 1628.16 476.409C1628.25 475.791 1628.19 475.16 1627.99 474.568C1627.8 473.976 1627.46 473.439 1627.02 472.999C1605.37 450.079 1594.66 421.999 1585.72 396.819C1585.59 396.462 1585.36 396.149 1585.06 395.918C1584.75 395.688 1584.39 395.548 1584.01 395.515C1583.63 395.483 1583.25 395.559 1582.92 395.735C1582.58 395.911 1582.3 396.179 1582.11 396.509C1579.47 401.069 1576.24 403.679 1568.4 403.729C1566.96 403.726 1565.52 403.571 1564.11 403.269L1564.09 403.309Z" fill="#FCF2E6"/>
<path opacity="0.6" d="M811.43 1606.15H794.11C794.11 1606.15 797.58 1570.49 846.8 1554.84C846.8 1554.84 882.8 1539.84 883.69 1495.14C884.53 1453.43 876.13 1275.57 876.13 1275.57C876.13 1275.57 913.63 1513.67 889.39 1545.39C868.79 1572.39 824.26 1569.06 811.39 1606.15" fill="#CC8F3F"/>
<path d="M1299.54 1103.62C1356.9 1178.99 1381.05 1260 1379.28 1423.16C1379.28 1423.16 1391.61 1584.48 1293.7 1607.33C1214.05 1625.91 1026.78 1607 1026.78 1607L789.52 1607.72L770.62 1607.33C754.53 1606.99 660.02 1615.33 649.92 1606.47C639.82 1597.61 711.17 1550.06 753.48 1546.9C753.48 1546.9 773.86 1297.83 771.78 1214.49C771.28 1194.61 785.39 1134.94 843.3 1127.76C907.21 1119.84 930.21 1090.19 930.21 1090.19C935.809 1077.14 937.132 1062.65 933.99 1048.8L931.54 1038.09C930.27 1036.09 928.8 1037.73 927.06 1039.32C923.4 1042.67 917.95 1045.32 913.46 1046.85C887.11 1056.09 878.91 1057.2 850.73 1050.64C840.57 1048.27 838.1 1046.17 828.32 1039.85C803.86 1024.05 795.19 980.262 800.55 940.282C802.267 927.845 807.354 916.114 815.26 906.362L814.33 906.432C795.24 902.562 788.09 901.162 772.74 890.102C766.82 885.842 765.42 882.012 763.81 878.502C761.797 873.502 761.683 867.939 763.49 862.862C768.18 848.002 777.86 843.812 794.01 841.282C802.377 840.071 810.892 840.332 819.17 842.052L819.7 841.652C817.17 834.722 819.06 827.422 824.87 822.092C833.45 814.222 846.12 811.022 859.3 811.932C864.54 812.322 869.76 813.222 874.99 814.062C888.99 816.312 899.91 820.942 912.16 825.772C918.323 828.279 924.025 831.797 929.03 836.182C928.88 836.312 928.75 836.462 928.62 836.592H929.47C929.32 836.462 929.18 836.322 929.03 836.202C929.286 835.981 929.557 835.777 929.84 835.592C934.84 832.592 941.84 830.052 947.46 831.592C959.4 834.802 969.12 843.702 977.06 855.162C979.97 859.432 982.55 866.252 984.79 870.872C999.66 898.772 996.78 939.252 993.5 959.502C997.5 966.502 1003.7 974.342 1010.3 982.122C1013.24 985.552 1022.5 984.822 1027.02 984.872C1063.36 985.172 1222.11 1001.87 1299.54 1103.62Z" fill="#F2A91F"/>
<mask id="mask3_138_3" style="mask-type:alpha" maskUnits="userSpaceOnUse" x="647" y="811" width="732" height="805">
<path d="M1298.54 1103.62C1355.9 1178.99 1380.05 1260 1378.28 1423.16C1378.28 1423.16 1390.61 1584.48 1292.7 1607.33C1213.05 1625.91 1025.78 1607 1025.78 1607L788.52 1607.72L769.62 1607.33C753.53 1606.99 659.02 1615.33 648.92 1606.47C638.82 1597.61 710.17 1550.06 752.48 1546.9C752.48 1546.9 772.86 1297.83 770.78 1214.49C770.28 1194.61 784.39 1134.94 842.3 1127.76C906.21 1119.84 929.21 1090.19 929.21 1090.19C934.809 1077.14 936.132 1062.65 932.99 1048.8L930.54 1038.09C929.27 1036.09 927.8 1037.73 926.06 1039.32C922.4 1042.67 916.95 1045.32 912.46 1046.85C886.11 1056.09 877.91 1057.2 849.73 1050.64C839.57 1048.27 837.1 1046.17 827.32 1039.85C802.86 1024.05 794.19 980.262 799.55 940.282C801.267 927.845 806.354 916.114 814.26 906.362L813.33 906.432C794.24 902.562 787.09 901.162 771.74 890.102C765.82 885.842 764.42 882.012 762.81 878.502C760.797 873.502 760.684 867.939 762.49 862.862C767.18 848.002 776.86 843.812 793.01 841.282C801.378 840.071 809.892 840.332 818.17 842.052L818.7 841.652C816.17 834.722 818.06 827.422 823.87 822.092C832.45 814.222 845.12 811.022 858.3 811.932C863.54 812.322 868.76 813.222 873.99 814.062C887.99 816.312 898.91 820.942 911.16 825.772C917.323 828.279 923.025 831.797 928.03 836.182C927.88 836.312 927.75 836.462 927.62 836.592H928.47C928.32 836.462 928.18 836.322 928.03 836.202C928.287 835.981 928.557 835.777 928.84 835.592C933.84 832.592 940.84 830.052 946.46 831.592C958.4 834.802 968.12 843.702 976.06 855.162C978.97 859.432 981.55 866.252 983.79 870.872C998.66 898.772 996.78 939.252 993.5 959.502C998.375 966.877 1002.7 974.342 1009.3 982.122C1012.24 985.552 1021.5 984.822 1026.02 984.872C1062.36 985.172 1221.11 1001.87 1298.54 1103.62Z" fill="#F2A91F"/>
</mask>
<g mask="url(#mask3_138_3)">
<path opacity="0.56" d="M774.06 846.051C774.06 846.051 752.75 883.121 815.11 904.751C815.11 904.751 797.2 928.861 767.26 912.411C737.32 895.961 702.62 890.741 715.93 868.411C729.24 846.081 774.06 846.061 774.06 846.061" fill="#D78D28"/>
<path opacity="0.6" d="M770.69 1259.5C770.69 1259.5 780.88 1548.11 770.18 1556.66C759.48 1565.21 700.34 1565.35 643.76 1605.82C613.15 1627.71 583.06 1577.7 583.06 1577.7L709.06 1516.88L702.64 1444.17V1326.54L733.99 1241.54" fill="#CC8F3F"/>
<path opacity="0.6" d="M1026.78 983.312C1026.78 983.312 1259.2 1011.73 1351.96 1192.84L1365.59 1086.17L1210.25 956.902L1080.93 971.552L1026.78 983.312Z" fill="#CC8F3F"/>
<path opacity="0.6" d="M940.325 829.727C973 852.5 999.125 897.875 993.375 959.5L1006 930.5L1004.25 856.5L979.115 834.898L940.325 829.688" fill="#CC8F3F"/>
<path opacity="0.56" d="M814.35 906.262C807.915 927.267 804.897 949.169 805.41 971.132C806.05 993.952 813.32 1017.42 828.28 1039.85C828.28 1039.85 801.15 1027.62 798.36 975.572C795.93 930.372 807.27 913.542 814.35 906.262Z" fill="#D78D28"/>
</g>
<path d="M788.35 1159.93C788.35 1159.93 782.02 1135.03 723.72 1138.36C665.42 1141.69 638.85 1155.96 619.13 1164.26C599.41 1172.56 604 1193.79 618.54 1194.79C633.08 1195.79 670.84 1194.79 670.84 1194.79C670.84 1194.79 661.41 1220.79 682.84 1224.97C682.84 1224.97 681.98 1250.82 707.7 1241.65C707.7 1241.65 715.42 1271.65 737.7 1254.99C737.7 1254.99 749.7 1247.48 751.42 1241.65C753.14 1235.82 777.07 1244.15 777.07 1244.15C777.07 1244.15 774.4 1183.33 788.35 1159.93Z" fill="#E7AB43"/>
<path d="M669.922 1195.64L669.923 1195.64C674.268 1194.25 678.541 1192.57 682.796 1190.89C685.496 1189.83 688.19 1188.77 690.891 1187.79L690.894 1187.79C694.349 1186.5 697.876 1185.42 701.457 1184.54C701.563 1184.52 701.669 1184.49 701.776 1184.47C705.094 1183.68 708.752 1182.81 711.996 1183.36C714.692 1183.82 716.31 1185.64 716.983 1187.92C717.662 1190.22 717.364 1192.96 716.208 1195.14L716.208 1195.15C714.768 1197.88 712.369 1199.89 709.614 1201.56C707.571 1202.79 705.37 1203.81 703.246 1204.8C702.496 1205.15 701.754 1205.49 701.033 1205.84L701.033 1205.84C694.124 1209.17 687.124 1213.12 682.228 1219.33C681.532 1220.2 681.829 1221.24 682.407 1221.81C682.698 1222.1 683.096 1222.31 683.537 1222.33C683.997 1222.34 684.441 1222.14 684.779 1221.72L684.783 1221.72C689.367 1215.9 695.887 1212.2 702.538 1208.99L702.538 1208.99C703.217 1208.66 703.918 1208.33 704.631 1207.99C707.007 1206.87 709.521 1205.69 711.828 1204.26C714.837 1202.4 717.554 1200.09 719.242 1196.88C720.53 1194.44 721.089 1191.46 720.723 1188.66C720.357 1185.85 719.055 1183.2 716.587 1181.48C713.404 1179.24 709.277 1179.64 705.837 1180.14L705.837 1180.14L705.834 1180.14C701.928 1180.75 698.079 1181.67 694.325 1182.91C690.016 1184.3 685.806 1185.95 681.614 1187.6L681.607 1187.61C677.407 1189.26 673.224 1190.91 668.947 1192.28L668.947 1192.28C667.869 1192.63 667.588 1193.67 667.805 1194.46C667.914 1194.86 668.156 1195.24 668.53 1195.49C668.916 1195.74 669.402 1195.81 669.922 1195.64Z" fill="#A76127" stroke="#A76127"/>
<path d="M714.994 1232.7L714.658 1232.95L714.686 1232.99C714.056 1233.69 714.252 1234.63 714.682 1235.21C714.916 1235.53 715.252 1235.79 715.655 1235.9C716.021 1236 716.418 1235.97 716.788 1235.75L716.813 1235.79L717.03 1235.59L717.133 1235.51C719.788 1233.52 722.523 1231.47 724.987 1229.13C727.561 1227.52 730.34 1226.38 733.433 1226.24L733.446 1226.24L733.458 1226.24C734.858 1226.1 736.271 1226.27 737.602 1226.72C738.933 1227.18 740.152 1227.91 741.178 1228.87L741.52 1228.51L741.178 1228.87C742.048 1229.69 742.686 1230.73 743.026 1231.87C743.366 1233.01 743.397 1234.23 743.116 1235.38C743.056 1235.6 743.04 1235.83 743.067 1236.06C743.095 1236.29 743.168 1236.51 743.281 1236.71C743.394 1236.91 743.545 1237.08 743.726 1237.22C743.907 1237.37 744.114 1237.47 744.336 1237.53C744.557 1237.59 744.789 1237.61 745.017 1237.58C745.246 1237.55 745.466 1237.48 745.666 1237.37C745.866 1237.26 746.042 1237.1 746.184 1236.92C746.326 1236.74 746.43 1236.54 746.492 1236.31L746.492 1236.31L746.494 1236.31C746.903 1234.73 746.925 1233.09 746.558 1231.51C746.192 1229.92 745.448 1228.46 744.39 1227.22C743.247 1225.88 741.834 1224.78 740.242 1224.01C738.653 1223.24 736.919 1222.81 735.154 1222.75C733.354 1222.64 731.633 1222.82 729.983 1223.23C730.115 1223.02 730.243 1222.82 730.369 1222.61C733.351 1217.64 734.64 1211.27 731.848 1205.82C730.64 1203.33 728.649 1201.3 726.179 1200.05C723.708 1198.79 720.894 1198.39 718.17 1198.89L718.166 1198.89C714.944 1199.5 712.051 1201.2 709.347 1202.78C709.29 1202.81 709.234 1202.84 709.178 1202.88C709.178 1202.88 709.178 1202.88 709.178 1202.88L700.069 1208.18L700.068 1208.18C699.072 1208.76 698.062 1209.33 697.048 1209.91C694.776 1211.2 692.484 1212.5 690.296 1213.93L690.296 1213.93C687.782 1215.58 685.286 1217.75 684.572 1220.98L684.571 1220.98C684.332 1222.09 685.085 1222.86 685.877 1223.08C686.276 1223.19 686.729 1223.18 687.127 1222.98C687.539 1222.77 687.844 1222.39 687.959 1221.85L687.996 1221.68L687.979 1221.65C688.513 1219.56 690.193 1218.08 692.077 1216.89L692.077 1216.89L692.084 1216.89C693.639 1215.87 695.266 1214.95 696.892 1214.02C697.763 1213.53 698.634 1213.03 699.494 1212.52C699.494 1212.52 699.495 1212.52 699.495 1212.52L707.492 1207.83C707.492 1207.83 707.492 1207.83 707.493 1207.83C708.094 1207.48 708.691 1207.12 709.286 1206.77C711.236 1205.6 713.169 1204.45 715.201 1203.5L715.203 1203.5C717.628 1202.36 720.302 1201.67 722.852 1202.37C724.896 1202.99 726.669 1204.28 727.878 1206.04L727.881 1206.05C730.736 1210.12 730.215 1215.38 727.918 1219.72L727.918 1219.72C726.492 1222.42 724.521 1224.72 722.296 1226.8C719.66 1228.56 717.238 1230.68 714.994 1232.7Z" fill="#A76127" stroke="#A76127"/>
<path d="M753.935 1188.31C754.475 1187.77 754.769 1186.81 754.22 1185.98V1185.94L754.112 1185.8C748.502 1178.72 742.384 1171.32 733.516 1167.98C731.034 1167.05 728.461 1166.44 725.898 1165.9C725.363 1165.78 724.829 1165.67 724.296 1165.56C722.267 1165.14 720.257 1164.72 718.284 1164.17L718.28 1164.17C713.347 1162.83 708.578 1160.95 704.065 1158.55C700.342 1156.56 696.699 1153.98 694.68 1150.28C694.191 1149.36 693.736 1148.3 693.542 1147.25C693.349 1146.21 693.42 1145.21 693.929 1144.34C694.93 1142.95 696.432 1142.01 698.119 1141.7L698.135 1141.7L698.151 1141.7C700.425 1141.13 702.75 1141.32 705.171 1141.56C705.304 1141.58 705.436 1141.59 705.57 1141.6C707.841 1141.83 710.198 1142.07 712.538 1141.65C713.851 1141.42 715.078 1140.97 716.259 1140.48C716.628 1140.33 716.99 1140.18 717.349 1140.03C718.152 1139.68 718.937 1139.35 719.751 1139.06C722.222 1138.25 724.82 1137.89 727.42 1137.99L727.42 1137.99L727.431 1137.99C738.83 1138.2 750.449 1141.96 760.363 1147.47C760.56 1147.59 760.778 1147.66 761.004 1147.69C761.232 1147.73 761.463 1147.71 761.685 1147.65C761.908 1147.59 762.116 1147.49 762.299 1147.35C762.482 1147.21 762.636 1147.04 762.752 1146.84C762.868 1146.64 762.943 1146.42 762.974 1146.2C763.005 1145.97 762.991 1145.74 762.933 1145.51C762.874 1145.29 762.772 1145.08 762.633 1144.9C762.494 1144.72 762.321 1144.56 762.122 1144.45L762.122 1144.45L762.114 1144.44C752.659 1139.15 742.222 1135.85 731.444 1134.74C728.656 1134.42 725.84 1134.42 723.052 1134.74L723.038 1134.75L723.023 1134.75C720.251 1135.24 717.555 1136.08 715.002 1137.27C712.507 1138.26 709.81 1138.62 707.141 1138.34C704.564 1137.98 701.957 1137.85 699.356 1137.98L699.339 1137.98L699.323 1137.98C697.392 1138.2 695.287 1138.82 693.559 1139.93C691.824 1141.04 690.447 1142.67 690.057 1144.91L690.057 1144.92C689.642 1147.33 690.312 1149.72 691.473 1151.84C692.633 1153.96 694.303 1155.85 695.951 1157.29L695.958 1157.29L695.964 1157.3C699.75 1160.38 704.01 1162.83 708.579 1164.55C713.831 1166.64 719.266 1168.23 724.815 1169.3L724.815 1169.3L724.823 1169.3C727.892 1169.85 730.895 1170.71 733.782 1171.89C736.191 1172.99 738.44 1174.41 740.468 1176.11L740.471 1176.12C744.685 1179.6 748.134 1183.9 751.558 1188.21L751.558 1188.21C751.897 1188.64 752.34 1188.85 752.803 1188.83C753.247 1188.82 753.645 1188.6 753.935 1188.31Z" fill="#A76127" stroke="#A76127"/>
<path d="M653.75 1167.6C653.261 1169.14 653.316 1170.81 653.906 1172.31C654.495 1173.82 655.584 1175.08 656.99 1175.88C657.132 1175.96 657.289 1176.02 657.451 1176.04C657.614 1176.06 657.779 1176.05 657.938 1176.01C658.097 1175.97 658.246 1175.89 658.377 1175.79C658.507 1175.7 658.617 1175.57 658.7 1175.43C658.783 1175.29 658.837 1175.13 658.859 1174.97C658.881 1174.81 658.871 1174.64 658.829 1174.48C658.787 1174.32 658.715 1174.17 658.615 1174.04C658.516 1173.91 658.392 1173.8 658.25 1173.72L657.84 1173.47L657.65 1173.34C657.53 1173.26 657.82 1173.49 657.65 1173.34C657.407 1173.14 657.183 1172.93 656.98 1172.69L656.8 1172.48C656.86 1172.55 656.91 1172.63 656.8 1172.48L656.54 1172.09L656.32 1171.68L656.2 1171.43C656.2 1171.43 656.3 1171.68 656.2 1171.43C656.092 1171.14 656.006 1170.85 655.94 1170.55C655.94 1170.47 655.94 1170.39 655.94 1170.32C655.94 1170.08 655.94 1170.49 655.94 1170.32C655.94 1170.15 655.94 1170.02 655.94 1169.86C655.93 1169.71 655.93 1169.55 655.94 1169.4C655.94 1169.32 655.94 1169.25 655.94 1169.17C655.94 1168.93 655.94 1169.34 655.94 1169.17C655.994 1168.85 656.074 1168.54 656.18 1168.24C656.266 1167.92 656.223 1167.58 656.061 1167.29C655.898 1167 655.628 1166.79 655.31 1166.7C654.991 1166.62 654.652 1166.66 654.366 1166.83C654.079 1166.99 653.865 1167.25 653.77 1167.57L653.75 1167.6Z" fill="#A76127"/>
<path d="M809.525 842.92C812.601 843.103 815.665 843.42 818.71 843.871C818.975 844.396 819.272 844.911 819.602 845.414L819.602 845.414L819.607 845.422C820.883 847.293 822.383 849.002 824.074 850.51C824.988 851.354 825.921 852.176 826.849 852.995L826.849 852.995C827.142 853.253 827.472 853.559 827.823 853.885C828.537 854.547 829.339 855.291 830.103 855.887C832.989 858.373 836.581 859.894 840.375 860.238L840.385 860.239L840.395 860.239C842.153 860.328 844.308 859.942 846.012 858.979C847.73 858.009 849.047 856.41 848.919 854.105C848.83 852.089 847.725 850.523 846.331 849.297C844.941 848.074 843.213 847.145 841.779 846.406L841.779 846.406L841.774 846.403C838.74 844.881 835.571 843.645 832.308 842.709L832.306 842.709C828.746 841.7 825.136 840.885 821.492 840.266C821.49 840.26 821.488 840.253 821.486 840.247L821.486 840.246C821.301 839.674 821.149 839.091 821.03 838.501L821.03 838.501L821.029 838.496C820.964 838.191 820.917 837.883 820.868 837.552C820.869 837.516 820.87 837.472 820.87 837.42C820.87 837.414 820.87 837.407 820.87 837.4C820.87 837.273 820.87 837.069 820.812 836.861C820.738 836.148 820.709 835.422 820.69 834.682C820.682 832.887 820.787 831.093 821.006 829.311L821.01 829.279L821.01 829.247C821.006 828.718 820.795 828.212 820.421 827.839C820.048 827.465 819.542 827.253 819.013 827.25L819.013 827.25L819 827.25C818.476 827.26 817.975 827.473 817.604 827.844C817.239 828.209 817.027 828.7 817.011 829.215C816.628 832.603 816.494 836.216 817.235 839.634C815.435 839.406 813.628 839.224 811.817 839.091C811.817 839.091 811.817 839.091 811.817 839.091L809.517 838.921L809.497 838.92L809.477 838.92C808.948 838.923 808.442 839.135 808.069 839.509C807.695 839.882 807.483 840.388 807.48 840.917L807.48 840.917L807.48 840.93C807.49 841.454 807.703 841.955 808.074 842.326C808.445 842.697 808.946 842.91 809.47 842.92L809.47 842.92H809.48H809.525ZM824.42 845.175L824.11 844.812C825.362 845.064 826.61 845.339 827.854 845.636L827.854 845.636C830.937 846.37 833.961 847.331 836.901 848.513C838.181 849.045 839.433 849.645 840.65 850.309L840.661 850.315L840.673 850.32C841.959 850.941 843.14 851.758 844.175 852.742C844.541 853.093 844.81 853.532 844.957 854.017C844.966 854.112 844.964 854.208 844.953 854.302L844.953 854.302L844.952 854.314C844.93 854.554 844.834 854.781 844.678 854.965C843.831 855.771 842.707 856.224 841.537 856.23L841.523 856.23L841.508 856.231C838.675 856.41 835.792 855.134 833.389 853.399C832.296 852.555 831.25 851.651 830.258 850.691L830.251 850.684L830.243 850.677C829.9 850.37 829.557 850.066 829.215 849.762C828.694 849.301 828.175 848.84 827.656 848.37C826.796 847.59 826.066 846.919 825.318 846.151L825.318 846.151L825.314 846.146C825.001 845.834 824.702 845.515 824.425 845.181L824.425 845.181L824.42 845.175Z" fill="#A76127" stroke="#A76127"/>
<path opacity="0.6" d="M1054.2 1176.44C1089.29 1162.68 1104.2 1185.31 1125.71 1203.65C1125.71 1203.65 1157 1235.93 1155.89 1231.65C1153.65 1223.1 1142.01 1208.87 1134.69 1193.65C1125.2 1173.9 1096.01 1138.93 1083.91 1131.96C1083.91 1131.96 1068.77 1145.57 1050.63 1131.96C1050.63 1131.99 1052.54 1177.1 1054.2 1176.44Z" fill="#CC8F3F"/>
<path d="M796.94 1597.87C801.73 1583.28 813.31 1572.87 826.56 1565.81C831.256 1563.34 836.109 1561.19 841.09 1559.37C842.59 1558.82 841.94 1556.37 840.43 1556.96C824.73 1562.79 808.94 1571.46 799.77 1585.96C797.57 1589.46 795.81 1593.22 794.53 1597.16C794.03 1598.69 796.44 1599.35 796.94 1597.83V1597.87Z" fill="#A76127"/>
<path opacity="0.6" d="M1041.32 1246.79C1041.32 1246.79 1032.01 1300.79 1041.32 1367.87C1050.63 1434.95 1062.73 1608.08 1080.16 1607.3L1025.77 1606.98C1025.77 1606.98 1030.15 1536.53 1019.98 1423.14C1009.81 1309.75 1027.48 1239.17 1041.32 1246.79Z" fill="#CC8F3F"/>
<path d="M1054.04 1242.36V1242.43C1044.4 1241.25 1035.47 1247.08 1030.42 1254.93L1030.42 1254.93C1024.6 1263.97 1023.33 1275.08 1022.15 1285.43C1022.08 1286.1 1022 1286.77 1021.92 1287.44L1021.92 1287.44C1019.07 1312.72 1017.55 1338.12 1017.35 1363.55C1017.05 1389.15 1017.79 1414.74 1018.94 1440.29C1019.73 1457.9 1020.72 1475.44 1021.7 1492.97C1022.14 1500.88 1022.59 1508.79 1023.01 1516.71C1023.17 1519.7 1023.34 1522.71 1023.51 1525.72C1024.78 1547.92 1026.05 1570.28 1023.42 1592.33L1023.42 1592.33C1023.04 1595.54 1022.56 1598.74 1021.99 1601.92C1021.79 1603.02 1022.55 1603.79 1023.33 1604.01C1023.73 1604.12 1024.18 1604.11 1024.58 1603.91C1024.99 1603.7 1025.28 1603.3 1025.38 1602.77L1025.38 1602.77C1029.65 1578.96 1028.44 1554.72 1027.24 1530.77L1027.17 1529.38L1026.67 1529.41L1027.17 1529.38C1026.54 1516.88 1025.84 1504.38 1025.14 1491.88C1024.44 1479.38 1023.74 1466.88 1023.11 1454.38C1021.85 1429.39 1020.89 1404.4 1020.79 1379.41C1020.69 1354.42 1021.45 1329.54 1023.65 1304.72C1024.2 1298.51 1024.84 1292.31 1025.58 1286.12L1025.58 1286.12L1025.58 1286.11C1026.13 1280.41 1027.04 1274.76 1028.3 1269.17C1030.78 1259.24 1036.44 1249.24 1046.76 1246.33L1046.76 1246.33C1049.05 1245.67 1051.45 1245.51 1053.81 1245.86L1053.81 1245.86C1054.9 1246.02 1055.66 1245.25 1055.88 1244.47C1055.99 1244.08 1055.98 1243.62 1055.77 1243.23C1055.55 1242.82 1055.15 1242.54 1054.62 1242.45L1054.04 1242.36Z" fill="#A76127" stroke="#A76127"/>
<path d="M888.831 942.942C888.836 942.94 888.842 942.937 888.847 942.934C888.884 942.915 888.961 942.864 889.004 942.76C889.004 942.76 889.004 942.76 889.004 942.76C889.068 942.779 889.123 942.795 889.142 942.8L888.98 943.107C888.981 943.107 888.982 943.108 888.982 943.108C888.973 943.103 888.959 943.095 888.944 943.084C888.934 943.076 888.905 943.055 888.877 943.019C888.866 943.004 888.846 942.971 888.831 942.942ZM888.831 942.942C888.828 942.935 888.825 942.928 888.822 942.922C888.809 942.879 888.801 942.779 888.809 942.724C888.811 942.715 888.813 942.706 888.816 942.698C888.791 942.689 888.768 942.68 888.748 942.672L888.72 942.971L888.72 942.971L888.722 942.971L888.728 942.97C888.733 942.97 888.745 942.969 888.761 942.966C888.773 942.963 888.799 942.957 888.831 942.942ZM893.5 959.359L893.5 959.359L893.5 959.364C893.5 959.367 893.5 959.369 893.5 959.372C893.5 959.373 893.5 959.375 893.5 959.376H893.5V959.381C893.5 959.402 893.5 959.422 893.501 959.443C893.527 962.715 893.144 965.978 892.361 969.155C891.819 971.252 891.105 973.574 889.647 975.099L889.631 975.116L889.617 975.134C889.488 975.312 889.324 975.462 889.135 975.575C888.991 975.662 888.835 975.726 888.672 975.765C888.653 975.766 888.631 975.768 888.61 975.769C888.573 975.772 888.528 975.776 888.486 975.78C888.472 975.781 888.457 975.783 888.444 975.784C888.438 975.784 888.432 975.785 888.426 975.785C888.402 975.779 888.379 975.773 888.357 975.768C888.336 975.762 888.32 975.758 888.307 975.755C888.302 975.754 888.298 975.753 888.294 975.752C888.092 975.651 887.901 975.53 887.724 975.391C886.304 974.146 885.568 972.078 885.006 970.203C883.202 963.841 883.015 957.13 884.462 950.677L884.462 950.677C884.982 948.335 885.669 945.802 887.14 943.973C887.309 943.772 887.491 943.583 887.685 943.405C887.693 943.402 887.7 943.398 887.706 943.395C887.74 943.377 887.777 943.356 887.811 943.335C887.88 943.292 887.959 943.238 888.029 943.187C888.097 943.138 888.167 943.084 888.214 943.042C888.218 943.039 888.221 943.036 888.225 943.032C888.276 943.011 888.318 942.993 888.352 942.978C888.366 942.972 888.378 942.967 888.389 942.962C888.419 942.949 888.438 942.941 888.453 942.935C888.458 942.934 888.462 942.932 888.464 942.931C888.467 942.932 888.47 942.932 888.474 942.932C888.481 942.933 888.489 942.934 888.497 942.936C888.512 942.946 888.525 942.953 888.532 942.957C888.596 942.992 888.688 943.024 888.751 943.046C888.825 943.071 888.904 943.095 888.963 943.113C888.984 943.119 889.003 943.124 889.019 943.129C889.748 943.549 890.368 944.394 890.884 945.417C891.403 946.447 891.791 947.605 892.074 948.558C893.06 952.052 893.54 955.669 893.501 959.299C893.5 959.319 893.5 959.339 893.5 959.359ZM888.325 975.875C888.335 975.869 888.344 975.864 888.353 975.859L888.325 976.121C888.314 976.118 888.302 976.115 888.291 976.112C888.236 976.098 888.188 976.086 888.173 976.082C888.175 976.075 888.177 976.068 888.18 976.061L888.22 975.977C888.255 975.925 888.297 975.893 888.325 975.875ZM888.365 976.119C888.364 976.062 888.378 976.01 888.397 975.969L888.365 976.119ZM896.013 972.549C897.388 968.296 898.049 963.845 897.97 959.377C897.969 959.276 897.963 959.179 897.952 959.085C897.966 955.188 897.449 951.307 896.417 947.548L896.418 947.548L896.416 947.543C895.655 944.939 894.504 941.943 892.314 940.051C891.427 939.217 890.287 938.702 889.074 938.588C887.859 938.474 886.64 938.769 885.612 939.426L885.611 939.426C883.201 940.977 881.91 943.863 881.049 946.367L881.049 946.367L881.046 946.375C878.63 954.028 878.386 962.201 880.34 969.984C880.845 972.085 881.927 975.195 883.627 977.442C884.479 978.567 885.504 979.502 886.715 979.967C887.94 980.438 889.318 980.415 890.831 979.687C892.231 979.023 893.275 977.883 894.09 976.6C894.905 975.317 895.506 973.869 896.007 972.566L896.01 972.558L896.013 972.549ZM887.738 942.964C887.843 942.892 887.952 942.81 887.994 942.77L888.121 943.075C888.118 943.076 888.114 943.078 888.109 943.08C888.102 943.082 888.075 943.091 888.037 943.094C888.037 943.094 888.036 943.094 888.036 943.094C888.019 943.095 887.873 943.109 887.757 942.986C887.75 942.978 887.744 942.971 887.738 942.964Z" fill="#A76127" stroke="#A76127" stroke-width="0.7"/>
<path d="M879.349 926.667C879.908 927.631 881.128 928.307 882.435 927.66H882.458L882.535 927.618C889.093 924.11 897.274 925.814 902.356 931.141C902.868 931.681 903.478 931.895 904.073 931.853C904.657 931.811 905.197 931.525 905.6 931.119C906.003 930.712 906.287 930.166 906.338 929.577C906.389 928.979 906.197 928.357 905.682 927.827C902.471 924.448 898.25 922.202 893.652 921.429C889.055 920.655 884.33 921.396 880.189 923.539L880.189 923.539L880.184 923.542C879.529 923.894 879.161 924.423 879.044 925.006C878.929 925.579 879.062 926.173 879.349 926.667Z" fill="#A76127" stroke="#A76127" stroke-width="0.7"/>
<path d="M831.289 954.595C831.323 954.586 831.35 954.584 831.366 954.583C831.37 954.583 831.375 954.583 831.38 954.583C831.361 954.594 831.337 954.611 831.312 954.635C831.309 954.638 831.304 954.642 831.3 954.647M831.289 954.595C831.278 954.559 831.264 954.533 831.257 954.519C831.236 954.485 831.215 954.463 831.211 954.458L831.21 954.458C831.203 954.45 831.198 954.446 831.198 954.446L830.988 954.701C831.012 954.711 831.046 954.727 831.085 954.747C831.137 954.663 831.21 954.623 831.258 954.605C831.269 954.601 831.279 954.597 831.289 954.595ZM831.289 954.595C831.292 954.606 831.295 954.618 831.298 954.631C831.299 954.636 831.299 954.641 831.3 954.647M831.3 954.647C831.283 954.664 831.262 954.69 831.243 954.724C831.231 954.747 831.217 954.778 831.208 954.814C831.229 954.826 831.248 954.837 831.267 954.848C831.305 954.773 831.307 954.699 831.3 954.647ZM835.11 941.68L835.11 941.685C835.11 941.685 835.11 941.686 835.11 941.687C835.11 941.687 835.11 941.688 835.11 941.688H835.11V941.692C835.11 941.707 835.11 941.723 835.11 941.738C835.127 944.335 834.828 946.925 834.22 949.45L834.218 949.458L834.216 949.465C833.896 951.125 833.202 952.69 832.187 954.042C832.06 954.189 831.914 954.32 831.755 954.431C831.724 954.451 831.693 954.47 831.662 954.489C831.661 954.489 831.659 954.489 831.658 954.489C831.619 954.494 831.581 954.503 831.552 954.511C831.522 954.519 831.488 954.531 831.455 954.544C831.453 954.545 831.45 954.547 831.447 954.548C831.422 954.533 831.398 954.52 831.376 954.507C831.302 954.465 831.216 954.419 831.152 954.391C831.139 954.384 831.122 954.377 831.106 954.371C830.572 953.921 830.161 953.276 829.827 952.544C829.478 951.778 829.227 950.947 829.007 950.196C827.649 945.264 827.497 940.078 828.562 935.075L828.564 935.065L828.566 935.055C828.863 933.123 829.571 931.278 830.643 929.644L830.643 929.644L830.646 929.639C830.845 929.324 831.124 929.067 831.453 928.895C831.46 928.892 831.468 928.89 831.475 928.887C831.494 928.884 831.514 928.881 831.534 928.879C831.554 928.877 831.572 928.875 831.586 928.873C831.589 928.873 831.591 928.873 831.593 928.873C831.597 928.872 831.601 928.872 831.604 928.872C831.608 928.872 831.61 928.872 831.61 928.872H831.61C831.612 928.872 831.614 928.872 831.617 928.872C831.643 928.885 831.67 928.898 831.695 928.91C831.717 928.921 831.734 928.93 831.746 928.937C831.748 928.938 831.749 928.939 831.75 928.939C832.254 929.305 832.701 929.948 833.083 930.716C833.461 931.479 833.757 932.329 833.974 933.068C834.755 935.856 835.138 938.74 835.111 941.635C835.11 941.65 835.11 941.665 835.11 941.68ZM838.218 931.712C837.662 929.425 836.476 927.34 834.795 925.692L834.795 925.692L834.786 925.684C834.001 924.965 833.001 924.525 831.94 924.434C830.88 924.342 829.82 924.603 828.924 925.175C826.809 926.478 825.777 928.943 825.04 931.035L825.04 931.035L825.036 931.046C823.046 937.332 822.854 944.048 824.481 950.437C824.931 952.248 825.861 954.832 827.316 956.69C828.045 957.621 828.923 958.393 829.962 958.777C831.012 959.166 832.193 959.146 833.485 958.55C835.851 957.484 837.091 954.847 837.879 952.671L837.879 952.671L837.882 952.663C839.064 949.128 839.632 945.417 839.56 941.69C839.599 938.317 839.147 934.956 838.218 931.712ZM831.661 928.797C831.655 928.799 831.647 928.802 831.638 928.804L831.733 928.539C831.774 928.559 831.82 928.581 831.86 928.602C831.854 928.619 831.847 928.635 831.841 928.647C831.819 928.68 831.769 928.733 831.743 928.754C831.721 928.768 831.68 928.789 831.661 928.797ZM831.61 928.489C831.621 928.492 831.634 928.496 831.649 928.5C831.652 928.514 831.654 928.529 831.656 928.544C831.663 928.629 831.638 928.694 831.622 928.727C831.618 928.735 831.614 928.743 831.61 928.75C831.597 928.773 831.583 928.79 831.575 928.8C831.569 928.807 831.564 928.813 831.559 928.818C831.558 928.818 831.558 928.818 831.557 928.818L831.553 928.81L831.525 928.528C831.557 928.524 831.588 928.522 831.61 928.522C831.647 928.522 831.634 928.511 831.61 928.499C831.582 928.485 831.54 928.469 831.54 928.468C831.54 928.468 831.558 928.473 831.61 928.489ZM831.684 928.608C831.674 928.673 831.647 928.723 831.622 928.758L831.684 928.608Z" fill="#A76127" stroke="#A76127" stroke-width="0.7"/>
<path d="M823.188 908.784C823.764 908.936 824.374 908.868 824.902 908.597L824.904 908.599C831.246 905.739 839.076 908.446 843.026 914.02C843.341 914.55 843.851 914.935 844.447 915.092C845.048 915.251 845.688 915.165 846.226 914.853L846.226 914.853C846.493 914.697 846.727 914.49 846.915 914.244C847.102 913.998 847.239 913.718 847.317 913.418C847.396 913.119 847.415 912.808 847.373 912.501C847.33 912.195 847.228 911.9 847.072 911.633L847.064 911.62L847.056 911.608C841.579 903.865 831.404 900.535 822.626 904.491L822.609 904.499L822.593 904.508C822.057 904.822 821.666 905.336 821.508 905.937C821.349 906.538 821.435 907.178 821.747 907.716L821.747 907.716L821.753 907.725C822.078 908.248 822.591 908.628 823.188 908.784Z" fill="#A76127" stroke="#A76127" stroke-width="0.7"/>
<g opacity="0.6">
<path d="M897.54 1540.32C907.393 1537.84 917.777 1538.5 927.23 1542.23C927.869 1542.4 928.55 1542.32 929.127 1541.99C929.703 1541.67 930.128 1541.13 930.31 1540.49C930.469 1539.85 930.376 1539.17 930.05 1538.6C929.725 1538.03 929.191 1537.6 928.56 1537.41C918.238 1533.42 906.929 1532.76 896.21 1535.5C893.1 1536.3 894.42 1541.12 897.54 1540.32Z" fill="#CC8F3F"/>
</g>
<g opacity="0.6">
<path d="M1120.78 1092.3C1121.09 1095.77 1120.56 1099.27 1119.23 1102.49C1117.9 1105.71 1115.8 1108.56 1113.13 1110.8C1112.67 1111.27 1112.41 1111.9 1112.41 1112.56C1112.41 1113.22 1112.67 1113.86 1113.13 1114.33C1113.61 1114.79 1114.24 1115.04 1114.9 1115.04C1115.56 1115.04 1116.19 1114.79 1116.67 1114.33C1119.81 1111.64 1122.27 1108.24 1123.86 1104.42C1125.44 1100.6 1126.1 1096.45 1125.78 1092.33C1125.76 1091.67 1125.49 1091.04 1125.03 1090.58C1124.56 1090.11 1123.94 1089.85 1123.28 1089.83C1122.62 1089.83 1121.99 1090.1 1121.52 1090.57C1121.05 1091.03 1120.79 1091.67 1120.78 1092.33V1092.3Z" fill="#CC8F3F"/>
</g>
<path opacity="0.6" d="M1221.11 1379.49C1221.11 1379.49 1301.38 1492.61 1271.26 1519.88C1239.74 1548.42 1238.98 1545.67 1241.67 1528.62C1242.77 1521.62 1242.31 1512.08 1243.9 1501.62C1250.25 1459.79 1221.11 1379.49 1221.11 1379.49Z" fill="#CC8F3F"/>
<path d="M769.42 1271.71C781.29 1271.41 799.64 1243.17 803.85 1232.07C808.06 1220.97 808.68 1208.84 811.97 1197.43C815.222 1186.23 820.993 1175.92 828.84 1167.29C839.61 1155.48 847.08 1154.94 856 1141.69C859.15 1137.02 861 1129.69 856.42 1126.53C856.42 1126.53 833.54 1122.9 806.85 1142.04C780.16 1161.18 773.51 1185.04 771.78 1197.57C770.05 1210.1 769.42 1271.71 769.42 1271.71Z" fill="#FCB753"/>
<path d="M877.72 1206.32C875.8 1233.05 921.41 1180.47 928.93 1154.98C928.93 1154.98 935.03 1131.55 953.19 1119.68C953.19 1119.68 958.86 1102.91 944.82 1109.18C930.78 1115.45 921.19 1137.18 921.19 1137.18C921.19 1137.18 910.19 1142.64 906.45 1124.18C906.45 1124.17 881.86 1148.79 877.72 1206.32Z" fill="#FCB753"/>
<path d="M853.735 1552.81L853.811 1552.82L853.974 1552.72C863.599 1546.39 870.84 1536.86 875.986 1526.73C881.131 1516.6 884.739 1504.95 884.8 1493.36C884.874 1480.36 884.333 1467.32 883.794 1454.32C883.677 1451.5 883.56 1448.68 883.45 1445.86C882.829 1429.86 882.069 1413.85 881.289 1397.85C881.167 1395.33 881.044 1392.8 880.921 1390.27C879.478 1360.61 878.036 1330.95 877.29 1301.27C876.56 1271.27 876.131 1241.12 878.159 1211.2C879.888 1185.7 884.052 1159.08 897.744 1137.12C899.442 1134.4 901.284 1131.77 903.262 1129.25C903.957 1128.38 903.664 1127.34 903.089 1126.77C902.799 1126.48 902.402 1126.27 901.962 1126.25C901.502 1126.23 901.059 1126.44 900.72 1126.86L900.72 1126.86L900.717 1126.86C884.901 1146.97 878.677 1172.43 875.893 1197.3C874.461 1210.06 873.89 1222.89 873.63 1235.71C873.25 1251.71 873.23 1267.72 873.45 1283.79C873.9 1315.8 875.341 1347.8 876.881 1379.7C877.046 1383.12 877.212 1386.54 877.378 1389.97C878.765 1418.48 880.157 1447.13 880.88 1475.69L880.88 1475.69C880.928 1477.48 880.998 1479.27 881.068 1481.06C881.28 1486.48 881.493 1491.9 881.082 1497.25C880.57 1503.09 879.326 1508.84 877.378 1514.37L877.377 1514.38C873.537 1525.59 867.286 1536.39 858.637 1544.54L858.637 1544.55C856.615 1546.45 854.429 1548.18 852.105 1549.71C851.16 1550.33 851.157 1551.41 851.569 1552.12C851.776 1552.48 852.108 1552.79 852.532 1552.93C852.914 1553.05 853.333 1553.02 853.735 1552.81Z" fill="#A76127" stroke="#A76127"/>
<path d="M977.903 1128.16L975.873 1131.68L975.873 1131.68L964.673 1151.07L977.903 1128.16ZM977.903 1128.16C977.372 1135.62 975.742 1142.98 973.053 1149.98M977.903 1128.16L973.053 1149.98M973.053 1149.98C972.735 1150.81 972.399 1151.64 972.06 1152.48C970.759 1155.7 969.422 1159 968.945 1162.52C968.611 1164.67 968.739 1166.88 969.321 1168.98C969.904 1171.08 970.928 1173.04 972.326 1174.71L972.329 1174.72C977.768 1181.13 986.914 1181.24 993.927 1177.84M973.053 1149.98L1048.06 1131.08C1048.06 1131.08 1048.06 1131.08 1048.06 1131.08C1047.98 1130.24 1048.53 1129.66 1049.14 1129.44C1049.74 1129.22 1050.52 1129.27 1051.04 1129.8C1058.33 1137.04 1071.17 1137.58 1078.97 1130.84C1079.82 1130.11 1080.87 1130.38 1081.45 1130.96C1081.74 1131.25 1081.96 1131.65 1081.98 1132.1C1082 1132.56 1081.81 1133.01 1081.4 1133.37L1081.4 1133.37C1073.28 1140.38 1060.75 1140.89 1051.95 1135.03C1052.32 1138.83 1052.69 1142.63 1053.06 1146.43L1053.21 1147.99C1053.66 1152.62 1054.11 1157.24 1054.56 1161.87L1054.56 1161.88C1055.15 1168.23 1054.87 1175.4 1048.6 1179.34C1042 1183.54 1033.83 1180.66 1028.96 1175.43L1028.96 1175.43C1023.6 1169.66 1022.14 1162.44 1021.25 1155.14C1021.09 1153.87 1020.96 1152.6 1020.82 1151.34C1020.29 1146.45 1019.76 1141.61 1018.29 1137.13C1016.56 1140.48 1015.21 1144.02 1013.92 1147.61C1013.64 1148.39 1013.36 1149.18 1013.09 1149.96C1011.69 1153.93 1010.27 1157.92 1008.43 1161.73M993.927 1177.84C993.926 1177.84 993.926 1177.84 993.926 1177.84L993.71 1177.39L993.928 1177.84C993.928 1177.84 993.927 1177.84 993.927 1177.84ZM993.927 1177.84C1000.68 1174.6 1005.3 1168.21 1008.43 1161.73M1008.43 1161.73C1008.43 1161.73 1008.43 1161.73 1008.43 1161.73L1007.98 1161.51L1008.43 1161.73ZM991.522 1070.12L991.523 1070.12C1005.53 1067.34 1019.68 1065.35 1033.91 1064.15V1064.09L1034.37 1064.05C1034.91 1064.01 1035.37 1064.19 1035.68 1064.53C1035.98 1064.86 1036.11 1065.29 1036.11 1065.71C1036.1 1066.52 1035.57 1067.46 1034.45 1067.55C1031.1 1067.86 1027.74 1068.18 1024.39 1068.55C1010.46 1070.1 996.628 1072.44 982.961 1075.54L982.96 1075.54C969.695 1078.54 956.379 1081.92 943.999 1087.51C936.64 1090.96 929.505 1094.87 922.637 1099.21L922.631 1099.22L922.63 1099.22C918.147 1101.95 914.494 1105.86 912.066 1110.52C909.638 1115.18 908.526 1120.41 908.849 1125.65C909.011 1127.81 909.251 1130.14 910.443 1131.8C910.947 1132.47 911.583 1133.04 912.312 1133.46C913.042 1133.88 913.851 1134.15 914.688 1134.25L914.695 1134.25C915.545 1134.36 916.409 1134.29 917.23 1134.05C918.046 1133.8 918.802 1133.39 919.45 1132.84C920.219 1132.07 920.858 1131.17 921.342 1130.19L921.351 1130.17L921.362 1130.15C922.107 1128.92 922.892 1127.7 923.718 1126.51C927.098 1121.57 931.119 1117.11 935.676 1113.24L935.678 1113.24C937.972 1111.31 940.396 1109.53 942.933 1107.93C945.193 1106.5 947.974 1104.9 951.003 1105.6L951.01 1105.61L951.017 1105.61C952.416 1105.98 953.681 1106.74 954.66 1107.8C955.64 1108.87 956.293 1110.19 956.543 1111.62L956.545 1111.63L956.544 1111.63C956.958 1114.37 956.303 1117.16 954.713 1119.43C953.237 1121.67 951.24 1123.41 949.171 1125.01C948.516 1125.51 947.858 1126 947.205 1126.49C945.77 1127.55 944.362 1128.6 943.075 1129.76L943.075 1129.76C939.078 1133.37 935.513 1137.71 933.711 1142.78L933.24 1142.61L933.711 1142.78C931.966 1147.69 931.905 1153.54 934.533 1158.09L934.537 1158.1L934.537 1158.1C935.683 1160.16 937.389 1161.86 939.458 1162.99C941.526 1164.12 943.872 1164.65 946.225 1164.5C951.252 1164.1 954.874 1160.18 957.603 1156.05L957.603 1156.05C960.113 1152.26 962.347 1148.27 964.584 1144.29C965.501 1142.65 966.419 1141.02 967.357 1139.39L991.522 1070.12ZM991.522 1070.12C984.421 1071.54 977.366 1073.15 970.358 1074.97C963.531 1076.64 956.802 1078.69 950.199 1081.1L950.199 1081.1M991.522 1070.12L950.199 1081.1M950.199 1081.1L950.192 1081.1M950.199 1081.1L950.192 1081.1M950.192 1081.1C940.482 1084.8 931.534 1089.79 922.67 1095.06C918.901 1097.16 915.525 1099.91 912.693 1103.16L912.693 1103.16M950.192 1081.1L912.693 1103.16M912.693 1103.16L912.686 1103.17M912.693 1103.16L912.686 1103.17M912.686 1103.17C909.15 1107.41 906.759 1112.48 905.739 1117.91H905.739M912.686 1103.17L905.739 1117.91M905.739 1117.91L905.738 1117.91M905.739 1117.91L905.738 1117.91M905.738 1117.91C905.226 1120.71 905.102 1123.56 905.372 1126.39L905.373 1126.39M905.738 1117.91L905.373 1126.39M905.373 1126.39C905.601 1128.66 905.916 1131.24 907.271 1133.32L907.271 1133.32M905.373 1126.39L907.271 1133.32M907.271 1133.32L907.275 1133.33M907.271 1133.32L907.275 1133.33M907.275 1133.33C908.455 1135.09 910.174 1136.43 912.174 1137.14C914.175 1137.85 916.351 1137.89 918.378 1137.26L918.385 1137.26M907.275 1133.33L918.385 1137.26M918.385 1137.26C920.55 1136.55 922.397 1135.11 923.603 1133.18C923.821 1132.83 924.037 1132.49 924.252 1132.15C925.613 1129.98 926.941 1127.87 928.498 1125.79C932.249 1120.9 936.701 1116.58 941.712 1112.99L941.713 1112.99M918.385 1137.26L941.713 1112.99M941.713 1112.99C942.922 1112.12 944.164 1111.29 945.439 1110.52L945.44 1110.52M941.713 1112.99L945.44 1110.52M945.44 1110.52C946.835 1109.67 948.271 1108.82 949.738 1108.94L949.738 1108.94M945.44 1110.52L949.738 1108.94M949.738 1108.94C951.149 1109.06 952.114 1109.88 952.663 1111.01C953.219 1112.15 953.333 1113.6 953.006 1114.86C952.35 1117.37 950.653 1119.32 948.578 1121.07C947.541 1121.94 946.425 1122.75 945.31 1123.56L945.215 1123.63C944.138 1124.41 943.064 1125.19 942.099 1126L942.098 1126M949.738 1108.94L942.098 1126M942.098 1126C933.524 1133.2 926.498 1144.15 929.869 1155.94M942.098 1126L929.869 1155.94M929.869 1155.94C930.577 1158.46 931.864 1160.79 933.627 1162.73C935.391 1164.67 937.583 1166.17 940.03 1167.12L940.03 1167.12L940.04 1167.12C942.537 1168.02 945.226 1168.25 947.839 1167.79C950.451 1167.32 952.895 1166.18 954.928 1164.48C958.844 1161.32 961.409 1156.81 963.823 1152.56C964.107 1152.06 964.39 1151.56 964.673 1151.07L929.869 1155.94ZM969.803 1168.84C970.367 1170.88 971.358 1172.77 972.71 1174.39L972.512 1152.7C971.214 1155.91 969.907 1159.14 969.44 1162.59C969.116 1164.68 969.239 1166.81 969.803 1168.84Z" fill="#A76127" stroke="#A76127"/>
<path d="M262.7 1611.45H1714.88" stroke="#255DE8" stroke-width="11" stroke-miterlimit="10" stroke-linecap="round"/>
<path d="M827 993C841.943 997.916 857.264 1001.59 872.81 1004C875.94 1004.49 879.32 1004.89 882.16 1003.46C877.88 1010.58 873.37 1017.87 866.62 1022.71C859.87 1027.55 850.25 1029.39 843.26 1024.91C837.39 1021.15 834.71 1014.1 832.41 1007.53L827.71 994.21" fill="white"/>
<mask id="mask4_138_3" style="mask-type:alpha" maskUnits="userSpaceOnUse" x="826" y="993" width="57" height="35">
<path d="M827 993C841.943 997.916 857.264 1001.59 872.81 1004C875.94 1004.49 879.32 1004.89 882.16 1003.46C877.88 1010.58 873.37 1017.87 866.62 1022.71C859.87 1027.55 850.25 1029.39 843.26 1024.91C837.39 1021.15 834.71 1014.1 832.41 1007.53L827.71 994.21" fill="white"/>
</mask>
<g mask="url(#mask4_138_3)">
<path d="M824.12 1000.79C824.12 1000.79 844.93 1015.6 885.64 1014.92C899.93 1014.68 851.19 1032.92 840.03 1027.48C828.87 1022.04 836.74 1015.48 836.74 1015.48" fill="#894A1A"/>
<path d="M866.54 1014.17C869.39 1017.87 827.54 1016.48 836.25 1023.44C858.61 1041.35 875 1014.77 875 1014.77L866.54 1014.17Z" fill="#F08484"/>
</g>
<path d="M825.842 993.692C825.852 993.823 825.88 993.958 825.928 994.094C826.542 995.843 827.142 997.607 827.744 999.375C829.233 1003.75 830.732 1008.15 832.467 1012.44L832.467 1012.44C834.406 1017.22 836.98 1022 841.337 1025.15L841.337 1025.15C846.162 1028.64 851.82 1029.15 857.185 1027.86C862.543 1026.58 867.639 1023.51 871.41 1019.8L871.411 1019.8C876.066 1015.22 879.529 1009.63 882.839 1004.12L883.165 1003.97L883.02 1003.82C883.043 1003.78 883.065 1003.74 883.088 1003.71C883.5 1003.03 883.301 1002.33 882.844 1001.9C882.409 1001.5 881.717 1001.33 881.087 1001.63L881.086 1001.63C881.026 1001.65 880.967 1001.68 880.907 1001.71L880.842 1001.64L880.765 1001.77C878.959 1002.53 876.888 1002.61 874.737 1002.39C873.173 1002.24 871.618 1001.93 870.116 1001.64C869.416 1001.5 868.728 1001.36 868.056 1001.25L868.055 1001.25C863.477 1000.45 858.921 999.552 854.389 998.54C845.165 996.471 836.058 993.955 827.066 990.993L827.066 990.993L827.065 990.993C826.623 990.849 826.202 990.907 825.865 991.125C825.542 991.334 825.336 991.663 825.244 992.002C825.089 992.57 825.236 993.297 825.842 993.692ZM830.611 998.509C830.205 997.307 829.798 996.105 829.385 994.904C837.829 997.579 846.39 999.869 855.043 1001.77L855.043 1001.77C859.912 1002.83 864.807 1003.76 869.729 1004.57C870.039 1004.62 870.352 1004.68 870.667 1004.73C873.223 1005.16 875.938 1005.62 878.597 1005.34C873.573 1013.47 867.688 1021.6 858.413 1024.46L858.412 1024.46C853.69 1025.92 848.416 1025.92 844.144 1023.41C839.861 1020.88 837.343 1016.43 835.472 1011.88L835.472 1011.88C833.658 1007.51 832.136 1003.02 830.611 998.509Z" fill="#A76127" stroke="#A76127"/>
<path d="M1033.73 1067.45C1033.51 1067.36 1033.31 1067.22 1033.15 1067.05C1032.86 1066.71 1032.73 1066.28 1032.73 1065.87C1032.73 1065.05 1033.27 1064.12 1034.4 1064.06C1036.98 1063.91 1039.57 1063.83 1042.16 1063.83C1061.46 1063.57 1080.71 1065.93 1099.38 1070.84L1099.38 1070.85C1116.68 1075.48 1133.37 1082.14 1149.11 1090.69L1149.11 1090.69C1164.39 1099.03 1178.92 1108.69 1192.54 1119.54C1205.8 1130.08 1218.5 1141.3 1230.58 1153.17C1233.32 1155.84 1235.99 1158.55 1238.66 1161.25C1242.12 1164.75 1245.56 1168.24 1249.13 1171.63L1249.13 1171.63C1255.85 1178.01 1263.61 1184.11 1273 1184.98L1273 1184.98C1274.11 1185.09 1274.64 1186.02 1274.65 1186.84C1274.65 1187.25 1274.52 1187.69 1274.22 1188.01C1273.9 1188.35 1273.45 1188.53 1272.91 1188.48C1272.9 1188.48 1272.9 1188.48 1272.9 1188.48L1272.95 1187.98C1270.67 1187.78 1268.42 1187.32 1266.24 1186.6L1033.73 1067.45ZM1033.73 1067.45L1033.66 1067.65L1034.43 1067.61C1053.99 1066.65 1073.59 1068.39 1092.68 1072.79C1110.14 1076.93 1127.04 1083.19 1142.99 1091.43C1158.44 1099.47 1173.15 1108.87 1186.91 1119.54C1200.3 1129.94 1213.09 1141.07 1225.24 1152.89L1225.24 1152.89C1229.63 1157.1 1233.91 1161.4 1238.21 1165.71C1239.88 1167.39 1241.55 1169.06 1243.24 1170.74C1243.24 1170.74 1243.24 1170.74 1243.24 1170.74L1243.59 1170.39L1033.73 1067.45Z" fill="#A76127" stroke="#A76127"/>
<path d="M1084.73 1132.94V1132.96L1084 1132.6C1083.52 1132.35 1083.22 1131.96 1083.13 1131.5C1083.04 1131.07 1083.14 1130.63 1083.35 1130.27C1083.77 1129.57 1084.71 1129.04 1085.71 1129.54L1085.72 1129.54L1085.72 1129.54C1087.61 1130.51 1089.44 1131.61 1091.18 1132.82L1091.19 1132.82L1091.19 1132.82C1098.12 1137.68 1103.63 1144.17 1108.52 1150.94C1112.69 1156.72 1116.57 1162.72 1120.43 1168.7C1121.76 1170.76 1123.09 1172.81 1124.43 1174.85C1126.45 1177.94 1128.48 1181.02 1130.51 1184.1C1139.88 1198.33 1149.29 1212.61 1158.17 1227.18L1158.17 1227.18C1163.54 1236.05 1168.55 1245.06 1173.54 1254.05L1173.55 1254.06L1173.55 1254.06C1178.22 1262.52 1182.91 1270.89 1188.2 1278.94C1207.7 1308.6 1233.05 1333.96 1262.68 1353.48C1263.63 1354.1 1263.63 1355.19 1263.22 1355.9C1263.01 1356.25 1262.67 1356.56 1262.25 1356.7C1261.81 1356.84 1261.32 1356.78 1260.86 1356.48L1261.14 1356.06L1260.86 1356.48C1259.01 1355.25 1257.16 1354 1255.33 1352.73C1226.24 1332.52 1201.51 1306.67 1182.61 1276.72L1182.61 1276.71C1177.81 1269.06 1173.48 1261.17 1169.16 1253.29C1168.68 1252.42 1168.21 1251.56 1167.73 1250.69M1084.73 1132.94L1118.7 1171.55M1084.73 1132.94C1091.9 1136.78 1097.72 1142.59 1102.75 1149M1084.73 1132.94L1103.14 1148.69M1167.73 1250.69L1168.17 1250.45L1167.73 1250.69C1167.73 1250.69 1167.73 1250.69 1167.73 1250.69ZM1167.73 1250.69C1162.8 1241.72 1157.63 1232.88 1152.23 1224.17L1152.22 1224.17C1143.82 1210.61 1135.04 1197.28 1126.25 1183.94C1123.59 1179.91 1120.93 1175.87 1118.28 1171.82M1118.28 1171.82C1118.28 1171.82 1118.28 1171.82 1118.28 1171.82L1118.7 1171.55M1118.28 1171.82L1118.7 1171.55M1118.28 1171.82C1117.19 1170.16 1116.12 1168.5 1115.04 1166.83C1111.11 1160.75 1107.19 1154.67 1102.75 1149M1118.7 1171.55C1117.62 1169.9 1116.54 1168.23 1115.47 1166.57C1111.54 1160.49 1107.6 1154.38 1103.14 1148.69M1102.75 1149C1102.75 1149 1102.75 1149 1102.75 1149L1103.14 1148.69M1102.75 1149L1103.14 1148.69" fill="#A76127" stroke="#A76127"/>
<path d="M1217.95 1376L1217.95 1376C1224.25 1392.57 1229.49 1409.52 1233.63 1426.76C1237.78 1444 1240.46 1461.55 1241.62 1479.24L1241.62 1479.25C1242.8 1496.93 1242.05 1514.69 1239.37 1532.21C1239.03 1534.38 1238.65 1536.55 1238.24 1538.71L1238.24 1538.71C1238.03 1539.81 1238.8 1540.58 1239.58 1540.8C1239.98 1540.91 1240.43 1540.9 1240.83 1540.69C1241.24 1540.48 1241.53 1540.09 1241.63 1539.55C1244.88 1521.99 1246.16 1504.13 1245.47 1486.28L1245.47 1486.28C1244.75 1468.38 1242.46 1450.58 1238.64 1433.08L1238.64 1433.07C1234.79 1415.54 1229.77 1398.29 1223.62 1381.42C1217.61 1364.61 1210.61 1348.15 1203.17 1331.94C1195.74 1315.73 1187.69 1299.6 1179.56 1283.62C1179.56 1283.62 1179.56 1283.62 1179.56 1283.62L1176.56 1277.72L1176.56 1277.71C1176.31 1277.23 1175.91 1276.94 1175.46 1276.84C1175.03 1276.75 1174.59 1276.86 1174.23 1277.07C1173.52 1277.48 1172.99 1278.42 1173.52 1279.43L1173.66 1279.7H1173.69C1181.73 1295.43 1189.66 1311.19 1197.16 1327.16C1204.69 1343.23 1211.74 1359.42 1217.95 1376Z" fill="#A76127" stroke="#A76127"/>
<g opacity="0.6">
<path d="M936.95 1078.99C942.62 1077.55 948.498 1077.11 954.32 1077.68C954.981 1077.67 955.614 1077.41 956.082 1076.94C956.55 1076.47 956.815 1075.84 956.82 1075.18C956.807 1074.52 956.54 1073.89 956.074 1073.42C955.607 1072.96 954.979 1072.69 954.32 1072.68C948.047 1072.09 941.721 1072.6 935.62 1074.17C935.303 1074.26 935.007 1074.4 934.748 1074.61C934.489 1074.81 934.273 1075.06 934.111 1075.34C933.949 1075.63 933.844 1075.94 933.804 1076.27C933.764 1076.6 933.788 1076.93 933.875 1077.24C933.962 1077.56 934.111 1077.86 934.313 1078.12C934.515 1078.37 934.766 1078.59 935.051 1078.75C935.337 1078.92 935.651 1079.02 935.977 1079.06C936.303 1079.1 936.633 1079.08 936.95 1078.99Z" fill="#CC8F3F"/>
</g>
<path opacity="0.6" d="M895.87 1052.17C895.87 1052.17 920.94 1040.88 933.54 1018.3C942.65 1001.97 940.14 1036.3 939.6 1039.85C938.53 1046.75 934.79 1065.78 934.79 1065.78L934.27 1057.09C934.141 1054.94 933.85 1052.8 933.4 1050.7L930.83 1038.6C930.77 1038.32 930.64 1038.06 930.454 1037.85C930.267 1037.63 930.03 1037.47 929.763 1037.37C929.496 1037.27 929.209 1037.24 928.927 1037.28C928.645 1037.32 928.378 1037.43 928.15 1037.6C927.58 1038.02 926.89 1038.6 926.07 1039.33C922.063 1042.69 917.445 1045.25 912.47 1046.86C903.83 1049.79 895.87 1052.17 895.87 1052.17Z" fill="#CC8F3F"/>
<path d="M925.548 839.381C925.483 839.311 925.418 839.241 925.353 839.171L925.348 839.165L925.343 839.16C923.724 837.306 921.994 835.55 920.165 833.902C919.329 833.227 918.457 832.6 917.551 832.023L917.544 832.018L917.536 832.013L914.854 830.163L914.684 830.072C914.447 829.945 914.238 829.772 914.07 829.562C913.901 829.353 913.777 829.112 913.704 828.853C913.63 828.594 913.61 828.324 913.644 828.057C913.678 827.791 913.765 827.533 913.9 827.301C914.036 827.069 914.216 826.867 914.432 826.706C914.647 826.545 914.893 826.429 915.154 826.366C915.415 826.302 915.686 826.291 915.951 826.335C916.216 826.378 916.469 826.474 916.696 826.617C916.696 826.618 916.697 826.618 916.697 826.618L916.43 827.041C919.019 828.649 921.467 830.472 923.75 832.491L925.548 839.381ZM925.548 839.381C925.101 840.441 924.768 841.551 924.559 842.692C924.065 845.381 924.274 848.151 925.164 850.736C925.552 851.999 926.193 853.171 927.049 854.178C927.906 855.188 928.961 856.012 930.148 856.599L930.16 856.605L930.171 856.61C931.565 857.214 933.181 857.265 934.542 856.739C935.917 856.207 937.031 855.081 937.351 853.374C937.874 850.631 936.847 847.763 935.564 845.513L935.56 845.505L935.555 845.497C934.132 843.203 932.482 841.058 930.63 839.094C930.538 838.99 930.446 838.886 930.354 838.781C930.428 838.673 930.503 838.567 930.58 838.461C931.854 836.808 933.578 835.558 935.546 834.863C938.179 833.94 940.897 833.278 943.66 832.886L943.693 832.881L943.725 832.872C944.236 832.729 944.669 832.39 944.931 831.929C945.193 831.468 945.262 830.922 945.122 830.41L945.119 830.396L945.114 830.382C944.95 829.892 944.605 829.482 944.15 829.236C943.704 828.995 943.185 828.929 942.693 829.05C939.875 829.451 937.104 830.127 934.417 831.068C931.932 831.908 929.715 833.394 927.993 835.373L927.993 835.373L927.986 835.381C927.874 835.515 927.763 835.652 927.656 835.79C926.499 834.543 925.317 833.318 924.099 832.133L925.548 839.381ZM928.38 843.999C928.431 843.589 928.504 843.184 928.598 842.784C929.126 843.4 929.645 844.022 930.15 844.653L930.156 844.661L930.162 844.668C931.484 846.196 932.501 847.963 933.157 849.873L933.157 849.874C933.448 850.714 933.549 851.608 933.453 852.492C933.441 852.586 933.41 852.678 933.362 852.76C933.313 852.844 933.248 852.918 933.171 852.976C933.093 853.035 933.005 853.077 932.911 853.101C932.817 853.125 932.719 853.131 932.623 853.116L932.595 853.112L932.566 853.111C931.814 853.087 931.122 852.681 930.516 852.053C929.914 851.428 929.44 850.624 929.132 849.909C928.385 848.035 928.126 846.001 928.38 843.999Z" fill="#A76127" stroke="#A76127"/>
<path opacity="0.6" d="M1150.02 1068.09C1150.02 1068.09 1169.42 1104.53 1177.74 1110.64C1186.06 1116.75 1192.55 1116.56 1182.09 1097.79C1171.63 1079.02 1150.02 1068.09 1150.02 1068.09Z" fill="#CC8F3F"/>
<path d="M1150.17 1073.91L1150.17 1073.91L1150.18 1073.92L1171.82 1108.68L1171.82 1108.68C1172.1 1109.14 1172.52 1109.4 1172.97 1109.47C1173.41 1109.55 1173.85 1109.45 1174.21 1109.24C1174.56 1109.03 1174.87 1108.7 1175.01 1108.28C1175.16 1107.84 1175.11 1107.35 1174.83 1106.89L1174.82 1106.89L1153.18 1072.13C1153.18 1072.13 1153.18 1072.13 1153.18 1072.13C1152.9 1071.67 1152.48 1071.4 1152.03 1071.33C1151.59 1071.25 1151.15 1071.35 1150.79 1071.56C1150.44 1071.77 1150.13 1072.1 1149.99 1072.53C1149.84 1072.96 1149.89 1073.45 1150.17 1073.91Z" fill="#A76127" stroke="#A76127"/>
<path d="M597.366 1035.67C597.366 1035.67 599.306 1013.48 621.476 1015.88C643.646 1018.28 658.656 1047.29 658.656 1047.29L737.876 1073.67C737.876 1073.67 726.116 1096.74 696.956 1109.24C696.956 1109.24 675.736 1131.91 643.956 1127.39C612.176 1122.87 602.446 1075.57 602.446 1075.57C599.862 1062.4 598.165 1049.07 597.366 1035.67Z" fill="#1A3BA6"/>
<mask id="mask5_138_3" style="mask-type:alpha" maskUnits="userSpaceOnUse" x="597" y="1015" width="141" height="113">
<path d="M597.366 1035.67C597.366 1035.67 599.306 1013.48 621.476 1015.88C643.646 1018.28 658.656 1047.29 658.656 1047.29L737.876 1073.67C737.876 1073.67 726.116 1096.74 696.956 1109.24C696.956 1109.24 675.736 1131.91 643.956 1127.39C612.176 1122.87 602.446 1075.57 602.446 1075.57C599.862 1062.4 598.165 1049.07 597.366 1035.67Z" fill="#1A3BA6"/>
</mask>
<g mask="url(#mask5_138_3)">
<path d="M598.656 1055.53C598.656 1055.53 616.086 1025.98 645.226 1041.97C645.226 1041.97 616.336 1068.36 641.666 1099.77C666.996 1131.18 722.366 1104.92 737.866 1073.3L658.656 1046.95L637.346 1003.46L600.476 1010.13L583.596 1029.96L589.486 1049.72C589.656 1050.34 598.656 1055.53 598.656 1055.53Z" fill="#335CDF"/>
</g>
<path d="M622.856 1089.56C623.769 1090.65 624.907 1091.54 626.192 1092.16C627.477 1092.79 628.88 1093.12 630.306 1093.16C631.136 1093.16 631.116 1091.89 630.306 1091.87C629.045 1091.83 627.807 1091.53 626.676 1090.97C625.545 1090.41 624.549 1089.61 623.756 1088.63C623.695 1088.57 623.623 1088.52 623.545 1088.49C623.466 1088.46 623.382 1088.45 623.297 1088.45C623.213 1088.45 623.13 1088.47 623.052 1088.5C622.975 1088.54 622.905 1088.59 622.846 1088.65C622.788 1088.71 622.742 1088.78 622.712 1088.86C622.681 1088.94 622.666 1089.02 622.668 1089.11C622.67 1089.19 622.688 1089.27 622.722 1089.35C622.756 1089.43 622.805 1089.5 622.866 1089.56H622.856Z" fill="#7EB7FA"/>
<path d="M615.546 1095.56C616.4 1096.45 617.457 1097.11 618.626 1097.5C619.794 1097.89 621.04 1097.99 622.256 1097.8C622.419 1097.75 622.557 1097.64 622.64 1097.49C622.722 1097.35 622.743 1097.17 622.696 1097.01C622.648 1096.85 622.538 1096.71 622.39 1096.63C622.243 1096.55 622.069 1096.52 621.906 1096.57C620.906 1096.7 619.889 1096.59 618.938 1096.26C617.987 1095.92 617.13 1095.36 616.436 1094.63C616.313 1094.51 616.148 1094.45 615.977 1094.45C615.807 1094.45 615.644 1094.52 615.526 1094.65C615.408 1094.77 615.344 1094.94 615.348 1095.11C615.352 1095.28 615.423 1095.44 615.546 1095.56Z" fill="#7EB7FA"/>
<path d="M633.247 1111.58C633.645 1113 634.485 1114.26 635.645 1115.18C636.806 1116.1 638.228 1116.63 639.707 1116.69C639.876 1116.69 640.039 1116.62 640.159 1116.5C640.279 1116.38 640.347 1116.21 640.347 1116.05C640.347 1115.88 640.279 1115.71 640.159 1115.59C640.039 1115.47 639.876 1115.4 639.707 1115.4C638.506 1115.35 637.353 1114.91 636.417 1114.16C635.48 1113.41 634.807 1112.38 634.497 1111.22C634.297 1110.42 633.056 1110.78 633.256 1111.58H633.247Z" fill="#7EB7FA"/>
<path d="M644.326 1111.9C644.226 1113.65 645.766 1115.02 647.096 1115.9C648.413 1116.75 649.914 1117.28 651.476 1117.45C651.646 1117.45 651.809 1117.38 651.929 1117.26C652.049 1117.14 652.116 1116.98 652.116 1116.81C652.116 1116.64 652.049 1116.48 651.929 1116.36C651.809 1116.24 651.646 1116.17 651.476 1116.17C650.202 1116.01 648.98 1115.57 647.896 1114.88C646.896 1114.25 645.546 1113.21 645.626 1111.88C645.624 1111.71 645.554 1111.54 645.433 1111.43C645.311 1111.31 645.147 1111.24 644.976 1111.24C644.807 1111.25 644.647 1111.32 644.529 1111.44C644.41 1111.56 644.341 1111.72 644.336 1111.89L644.326 1111.9Z" fill="#7EB7FA"/>
<path d="M658.257 1127.31L653.177 1150.32" stroke="#335CDF" stroke-width="2" stroke-linecap="round" stroke-linejoin="round"/>
<path d="M640.417 1153.09L653.487 1149.46L646.937 1158" stroke="#335CDF" stroke-width="2" stroke-linecap="round" stroke-linejoin="round"/>
<path d="M676.886 1120.98L671.806 1143.99" stroke="#335CDF" stroke-width="2" stroke-linecap="round" stroke-linejoin="round"/>
<path d="M659.046 1146.76L672.116 1143.12L665.566 1151.67" stroke="#335CDF" stroke-width="2" stroke-linecap="round" stroke-linejoin="round"/>
<path d="M656.586 1061.34L729.616 1084.32" stroke="#7EB7FA" stroke-linecap="round" stroke-linejoin="round"/>
<path d="M662.376 1077.68L720.046 1094.73" stroke="#7EB7FA" stroke-linecap="round" stroke-linejoin="round"/>
<path d="M669.986 1095.73L703.456 1105.48" stroke="#7EB7FA" stroke-linecap="round" stroke-linejoin="round"/>
<path d="M737.876 1073.58C737.876 1073.58 723.516 1038.43 717.646 1030.34C717.646 1030.34 736.436 1024.06 748.786 1030.45C748.786 1030.45 742.816 1060.31 737.876 1073.58Z" fill="#335CDF"/>
<path d="M597.367 1035.59C597.367 1035.59 580.256 1046.49 579.216 1047.23C578.176 1047.97 598.216 1046.02 598.216 1046.02L597.367 1035.59Z" fill="#132A76"/>
<path d="M718.296 1030.55L736.436 1049.14L748.306 1030.58" stroke="#7EB7FA" stroke-linecap="round" stroke-linejoin="round"/>
<path d="M614.135 1032.41C615.855 1032.41 617.25 1031.01 617.25 1029.29C617.25 1027.57 615.855 1026.18 614.135 1026.18C612.415 1026.18 611.02 1027.57 611.02 1029.29C611.02 1031.01 612.415 1032.41 614.135 1032.41Z" fill="#132A76"/>
<path d="M1014.68 464.339C1021.47 467.639 986.28 466.289 976.04 457.629C973.04 455.119 970.26 451.559 970.96 447.739C971.66 443.919 975.47 441.639 979.2 441.339C982.93 441.039 986.57 442.339 990.08 443.669C987.57 439.359 985 434.869 984.53 429.899C984.4 429.232 984.41 428.546 984.56 427.883C984.71 427.22 984.996 426.596 985.4 426.049C986.75 424.599 989.12 424.939 990.98 425.619C993.72 426.619 998.98 428.169 1001.26 430.049C1001.26 430.049 1004.82 459.539 1014.68 464.339Z" fill="#132A76"/>
<path d="M1065.44 369.898C1051.73 364.118 1036.44 364.228 1024.09 374.558C1019.63 371.826 1015.5 368.602 1011.77 364.948C1011.63 364.837 1011.47 364.763 1011.29 364.735C1011.12 364.707 1010.94 364.726 1010.78 364.789C1010.61 364.852 1010.47 364.957 1010.36 365.094C1010.25 365.23 1010.17 365.394 1010.15 365.568C1009.57 372.082 1011.34 378.589 1015.15 383.908C1014.46 384.828 1013.82 385.798 1013.15 386.768C1003.99 385.518 991.906 387.768 997.756 388.988C1001.3 389.748 1004.76 393.658 1007.36 397.648C996.696 423.578 999.586 460.288 1020.67 469.168C1041.91 478.118 1074.1 464.578 1085.04 438.628C1095.98 412.678 1086.66 378.838 1065.44 369.898Z" fill="#335CDF"/>
<path d="M1026.7 418.951C1025.48 419.496 1024.39 420.292 1023.49 421.285C1022.6 422.279 1021.92 423.45 1021.51 424.721C1018.23 434.901 1010.03 464.171 1020.32 474.461C1030.61 484.751 1053.32 445.991 1060.82 432.331C1061.53 431.02 1061.73 429.493 1061.37 428.045C1061.02 426.598 1060.14 425.334 1058.9 424.501C1052.18 420.061 1039.54 413.171 1026.7 418.951Z" fill="#7296EA"/>
<mask id="mask6_138_3" style="mask-type:alpha" maskUnits="userSpaceOnUse" x="1015" y="416" width="47" height="61">
<path d="M1026.7 418.951C1025.48 419.496 1024.39 420.292 1023.49 421.285C1022.6 422.279 1021.92 423.45 1021.51 424.721C1018.23 434.901 1010.03 464.171 1020.32 474.461C1030.61 484.751 1053.32 445.991 1060.82 432.331C1061.53 431.02 1061.73 429.493 1061.37 428.045C1061.02 426.598 1060.14 425.334 1058.9 424.501C1052.18 420.061 1039.54 413.171 1026.7 418.951Z" fill="#7296EA"/>
</mask>
<g mask="url(#mask6_138_3)">
<path d="M1038.43 414C1038.43 414 1020.17 439.83 1021.43 479.69L1005.21 476.21L1001.68 433.02L1019.88 414.02L1038.43 414Z" fill="#5581E6"/>
</g>
<path d="M1060.1 401.169C1059.53 400.98 1058.91 401.019 1058.37 401.276C1057.83 401.533 1057.41 401.989 1057.2 402.549C1056.82 403.691 1056.82 404.926 1057.2 406.069C1057.95 409.063 1059.34 411.856 1061.29 414.249C1061.76 414.946 1062.47 415.436 1063.29 415.619C1063.74 415.639 1064.19 415.523 1064.58 415.286C1064.97 415.049 1065.28 414.702 1065.47 414.289C1065.84 413.458 1066.01 412.549 1065.96 411.639C1065.96 407.639 1064.71 403.319 1061.28 401.359" fill="#1A3BA6"/>
<path d="M1086.48 399.42C1091.77 400.171 1097.17 399.748 1102.28 398.18C1102.5 400.049 1102.34 401.943 1101.82 403.752C1101.3 405.561 1100.43 407.249 1099.25 408.718C1098.07 410.188 1096.62 411.409 1094.97 412.312C1093.32 413.215 1091.5 413.782 1089.63 413.98C1089.53 414.006 1089.42 414.011 1089.31 413.994C1089.2 413.977 1089.1 413.938 1089.01 413.88C1088.9 413.75 1088.83 413.59 1088.81 413.42C1087.81 408.82 1088.87 403.63 1086.32 399.68" fill="#1A3BA6"/>
<path d="M1200.07 479.062C1200.07 479.062 1192.43 488.133 1152.66 484.573C1152.66 484.573 1158.48 495.143 1165.16 495.383C1165.16 495.383 1157.26 497.833 1155.06 505.253C1155.06 505.253 1192.31 510.123 1216.28 498.143C1216.28 498.143 1202.54 489.252 1200.07 479.062Z" fill="#132A76"/>
<path d="M1198.07 480.061C1198.07 480.061 1293.07 422.511 1299.71 417.651C1306.35 412.791 1350 392.901 1355.06 440.871C1360.12 488.841 1295.42 526.011 1249.06 514.521C1205.87 503.791 1198.07 480.061 1198.07 480.061Z" fill="#335CDF"/>
<path d="M1309.54 447.301C1310.04 447.324 1310.52 447.476 1310.95 447.743C1311.37 448.01 1311.71 448.382 1311.95 448.823C1312.18 449.263 1312.3 449.758 1312.29 450.257C1312.27 450.756 1312.13 451.244 1311.87 451.671C1304.07 464.671 1278.74 499.991 1242.61 482.671C1206.09 465.201 1214.61 402.861 1218.51 382.521C1218.62 381.969 1218.88 381.46 1219.27 381.055C1219.66 380.65 1220.16 380.368 1220.71 380.242C1221.26 380.116 1221.83 380.152 1222.36 380.345C1222.88 380.538 1223.34 380.881 1223.68 381.331C1235.8 397.671 1274.54 446.131 1309.54 447.301Z" fill="#7296EA"/>
<path d="M1311.22 412.22C1311.22 412.22 1294.47 375.15 1269.03 364.97C1268.49 364.75 1267.91 364.675 1267.33 364.752C1266.75 364.83 1266.21 365.057 1265.75 365.411C1265.29 365.765 1264.93 366.234 1264.71 366.771C1264.48 367.308 1264.41 367.894 1264.48 368.47C1266.27 381.86 1270.32 417.2 1264.48 425.65L1274.6 433.42L1311.22 412.22Z" fill="#5581E6"/>
<path d="M1264.64 436.18C1262.68 436.627 1260.87 437.559 1259.36 438.89C1257.94 440.15 1256.42 442.01 1256.26 443.97C1256.1 445.93 1257.82 447.14 1259.62 447.52C1262.07 447.984 1264.56 448.218 1267.06 448.22C1270.03 448.272 1272.99 448.078 1275.93 447.64L1275.66 446.64C1273.4 447.531 1271.26 448.686 1269.27 450.08C1267.62 451.28 1266.08 452.88 1265.79 454.98C1265.5 457.08 1266.98 458.41 1268.89 458.92C1271.2 459.448 1273.58 459.593 1275.94 459.35C1278.76 459.119 1281.53 458.444 1284.14 457.35C1284.73 457.11 1284.47 456.14 1283.88 456.35C1279.84 458.009 1275.45 458.641 1271.1 458.19C1269.56 458.02 1267.02 457.72 1266.77 455.78C1266.52 453.84 1268.12 452.11 1269.54 451.03C1271.51 449.586 1273.66 448.402 1275.93 447.51C1276.06 447.475 1276.18 447.388 1276.24 447.268C1276.31 447.149 1276.33 447.008 1276.3 446.875C1276.26 446.743 1276.17 446.63 1276.05 446.561C1275.93 446.493 1275.79 446.475 1275.66 446.51C1271.16 447.167 1266.6 447.234 1262.08 446.71C1260.59 446.54 1257.92 446.46 1257.34 444.71C1256.76 442.96 1258.52 440.91 1259.66 439.8C1261.11 438.39 1262.93 437.407 1264.9 436.96C1265.53 436.82 1265.27 435.86 1264.64 435.96V436.18Z" fill="#5581E6"/>
<path d="M1267.03 471.482C1264.44 472.394 1261.79 473.11 1259.1 473.622C1256.44 474.22 1253.72 474.492 1250.99 474.432C1249.77 474.423 1248.6 473.951 1247.71 473.112C1247.27 472.683 1247 472.119 1246.92 471.512C1246.85 470.905 1246.99 470.291 1247.31 469.772C1247.94 468.751 1248.69 467.805 1249.53 466.952C1250.36 466.048 1251.23 465.19 1252.15 464.382C1254.24 462.535 1256.55 460.95 1259.02 459.662C1259.13 459.603 1259.21 459.506 1259.26 459.389C1259.3 459.272 1259.3 459.144 1259.25 459.029C1259.2 458.914 1259.11 458.821 1259 458.768C1258.89 458.715 1258.76 458.705 1258.64 458.742C1255.93 459.567 1253.18 460.254 1250.4 460.802C1247.78 461.424 1245.06 461.536 1242.4 461.132C1241.2 460.925 1240.12 460.262 1239.4 459.282C1238.74 458.243 1238.39 457.034 1238.4 455.802C1238.46 453.236 1239.39 450.767 1241.04 448.802C1242.96 446.586 1245.17 444.635 1247.6 443.002C1248.11 442.622 1247.6 441.762 1247.09 442.142C1242.73 445.352 1237.81 449.192 1237.42 455.062C1237.26 457.522 1238.09 460.252 1240.42 461.462C1242.75 462.672 1245.91 462.412 1248.49 462.082C1252 461.546 1255.47 460.747 1258.86 459.692L1258.54 458.792C1256.15 460.041 1253.91 461.557 1251.86 463.312C1250.8 464.224 1249.8 465.199 1248.86 466.232C1247.92 467.163 1247.11 468.208 1246.43 469.342C1246.17 469.852 1246.03 470.413 1246 470.984C1245.98 471.556 1246.08 472.126 1246.3 472.656C1246.51 473.186 1246.84 473.663 1247.26 474.056C1247.67 474.448 1248.17 474.747 1248.71 474.932C1250.01 475.396 1251.4 475.56 1252.78 475.412C1254.29 475.322 1255.78 475.152 1257.31 474.922C1260.72 474.416 1264.06 473.582 1267.31 472.432C1267.91 472.222 1267.65 471.252 1267.04 471.432L1267.03 471.482Z" fill="#5581E6"/>
<path d="M1250.95 423.871C1249.81 424.763 1248.44 425.322 1247 425.488C1245.56 425.654 1244.1 425.42 1242.78 424.811C1241.49 424.191 1240.04 423.031 1240.19 421.441C1240.36 419.691 1242.03 418.691 1243.47 418.041C1244.05 417.781 1243.55 416.921 1242.96 417.181C1241.27 417.941 1239.55 419.181 1239.23 421.121C1238.91 423.061 1240.23 424.561 1241.82 425.431C1243.36 426.274 1245.11 426.642 1246.86 426.491C1248.61 426.34 1250.28 425.675 1251.65 424.581C1252.15 424.181 1251.44 423.481 1250.95 423.871Z" fill="#5581E6"/>
<path d="M1232.76 409.11C1229.07 410.004 1225.54 411.454 1222.28 413.41C1221.01 414.2 1219.77 415.5 1220.06 417.13C1220.32 418.57 1221.71 419.18 1223.06 419.34C1225.2 419.513 1227.35 419.416 1229.46 419.05L1229.19 418.05C1227.38 418.573 1225.75 419.583 1224.48 420.969C1223.21 422.355 1222.35 424.064 1221.98 425.91C1221.64 427.69 1221.63 429.91 1223.21 431.08C1224.79 432.25 1227.21 432.27 1229.13 432.37C1232.09 432.515 1235.05 432.424 1237.99 432.1C1238.62 432.03 1238.63 431.03 1237.99 431.1C1235.74 431.349 1233.48 431.46 1231.22 431.43C1229.15 431.53 1227.07 431.341 1225.05 430.87C1224.66 430.783 1224.28 430.618 1223.96 430.384C1223.63 430.15 1223.35 429.853 1223.14 429.51C1222.79 428.634 1222.69 427.678 1222.86 426.75C1223.06 425.075 1223.72 423.49 1224.77 422.17C1225.95 420.64 1227.6 419.532 1229.46 419.01C1230.1 418.83 1229.81 417.96 1229.19 418.01C1228.09 418.16 1226.98 418.25 1225.87 418.3C1224.92 418.395 1223.97 418.395 1223.02 418.3C1222.59 418.336 1222.17 418.223 1221.81 417.98C1221.46 417.736 1221.2 417.378 1221.08 416.966C1220.97 416.554 1221 416.113 1221.17 415.72C1221.34 415.327 1221.64 415.005 1222.02 414.81C1222.77 414.231 1223.57 413.738 1224.43 413.34C1225.31 412.88 1226.21 412.45 1227.12 412.06C1229.04 411.24 1231.02 410.571 1233.05 410.06C1233.18 410.025 1233.3 409.939 1233.37 409.821C1233.43 409.703 1233.45 409.562 1233.42 409.43C1233.39 409.297 1233.3 409.184 1233.18 409.114C1233.06 409.045 1232.92 409.025 1232.79 409.06L1232.76 409.11Z" fill="#5581E6"/>
<path d="M1282.21 396.949C1280.7 396.692 1279.15 396.927 1277.79 397.619C1277.17 397.89 1276.62 398.315 1276.21 398.854C1275.8 399.393 1275.53 400.028 1275.43 400.699C1275.45 401.303 1275.65 401.886 1276.01 402.373C1276.37 402.86 1276.86 403.228 1277.43 403.429C1278.93 404.048 1280.46 404.563 1282.03 404.969L1282.16 403.969C1279.03 403.629 1276.16 406.179 1275.49 409.129C1275.25 409.911 1275.23 410.744 1275.43 411.536C1275.64 412.328 1276.05 413.049 1276.64 413.619C1277.94 414.719 1279.79 414.929 1281.42 415.129C1283.85 415.409 1286.3 415.409 1288.73 415.129C1289.36 415.059 1289.37 414.059 1288.73 414.129C1286.5 414.369 1284.25 414.369 1282.02 414.129C1280.27 413.949 1277.59 413.799 1276.66 412.009C1275.73 410.219 1276.57 408.199 1277.66 406.879C1278.18 406.198 1278.86 405.658 1279.65 405.309C1280.43 404.959 1281.29 404.812 1282.14 404.879C1282.72 404.949 1282.79 404.059 1282.28 403.879C1281.07 403.499 1279.86 403.149 1278.66 402.739C1277.8 402.449 1276.66 401.979 1276.47 400.969C1276.26 399.799 1277.4 398.829 1278.32 398.359C1279.44 397.792 1280.72 397.593 1281.96 397.789C1282.59 397.889 1282.87 396.929 1282.23 396.789L1282.21 396.949Z" fill="#5581E6"/>
<path d="M1294.99 399.079C1292.99 399.299 1291.99 401.669 1291.99 403.469C1291.99 405.759 1294.18 406.389 1296.05 406.589V405.589C1294.41 405.589 1292.66 407.089 1293.61 408.809C1294.56 410.529 1297.27 410.809 1299.04 410.499C1299.67 410.379 1299.4 409.419 1298.77 409.499C1298.08 409.664 1297.36 409.672 1296.67 409.521C1295.98 409.37 1295.33 409.065 1294.77 408.629C1293.77 407.629 1294.97 406.549 1296.08 406.549C1296.21 406.549 1296.34 406.496 1296.43 406.402C1296.53 406.308 1296.58 406.181 1296.58 406.049C1296.58 405.916 1296.53 405.789 1296.43 405.695C1296.34 405.601 1296.21 405.549 1296.08 405.549C1294.77 405.409 1293.01 405.079 1293.02 403.429C1293.02 402.279 1293.66 400.189 1295.02 400.039C1295.66 399.969 1295.66 398.969 1295.02 399.039L1294.99 399.079Z" fill="#5581E6"/>
<path d="M1343.19 443.858C1343.33 444.816 1343.26 445.792 1342.99 446.722C1342.73 447.652 1342.26 448.514 1341.63 449.25C1341 449.986 1340.23 450.578 1339.35 450.989C1338.47 451.399 1337.52 451.617 1336.55 451.628C1336.42 451.628 1336.29 451.681 1336.2 451.775C1336.1 451.868 1336.05 451.996 1336.05 452.128C1336.05 452.261 1336.1 452.388 1336.2 452.482C1336.29 452.575 1336.42 452.628 1336.55 452.628C1337.67 452.616 1338.77 452.363 1339.78 451.887C1340.79 451.411 1341.69 450.722 1342.41 449.868C1343.13 449.014 1343.66 448.015 1343.96 446.938C1344.26 445.861 1344.33 444.732 1344.15 443.628C1344.06 442.998 1343.09 443.268 1343.15 443.898L1343.19 443.858Z" fill="#7296EA"/>
<path d="M1338.74 462.648C1338.79 463.144 1338.73 463.645 1338.58 464.119C1338.42 464.593 1338.18 465.03 1337.85 465.405C1337.52 465.779 1337.12 466.083 1336.67 466.297C1336.22 466.511 1335.73 466.63 1335.23 466.648C1335.1 466.648 1334.97 466.701 1334.88 466.795C1334.78 466.889 1334.73 467.016 1334.73 467.148C1334.73 467.281 1334.78 467.408 1334.88 467.502C1334.97 467.596 1335.1 467.648 1335.23 467.648C1335.86 467.631 1336.48 467.487 1337.05 467.223C1337.62 466.959 1338.13 466.582 1338.56 466.115C1338.98 465.647 1339.3 465.099 1339.5 464.503C1339.71 463.907 1339.79 463.276 1339.74 462.648C1339.74 462.517 1339.68 462.391 1339.59 462.298C1339.5 462.205 1339.37 462.151 1339.24 462.148C1339.11 462.148 1338.98 462.201 1338.89 462.295C1338.79 462.389 1338.74 462.516 1338.74 462.648Z" fill="#7296EA"/>
<path d="M1329.7 458.419C1329.82 458.638 1329.87 458.884 1329.86 459.132C1329.85 459.38 1329.77 459.62 1329.64 459.829C1329.36 460.339 1329.03 460.815 1328.64 461.249C1328.01 462.16 1327.1 462.833 1326.04 463.159C1325.41 463.299 1325.68 464.269 1326.31 464.159C1327.63 463.762 1328.77 462.926 1329.54 461.789C1330.34 460.789 1331.43 459.249 1330.54 457.939C1330.18 457.409 1329.32 457.939 1329.68 458.449L1329.7 458.419Z" fill="#7296EA"/>
<path d="M1309.96 489.79C1307.92 492.269 1305.01 493.86 1301.82 494.23C1301.19 494.3 1301.18 495.3 1301.82 495.23C1305.27 494.863 1308.44 493.166 1310.66 490.5C1311.07 490.01 1310.37 489.3 1309.96 489.79Z" fill="#7296EA"/>
<path d="M1295.38 489.792C1294.14 490.835 1292.64 491.511 1291.04 491.742C1290.98 491.759 1290.92 491.788 1290.87 491.829C1290.82 491.869 1290.77 491.919 1290.74 491.975C1290.71 492.032 1290.69 492.095 1290.68 492.159C1290.68 492.224 1290.68 492.289 1290.7 492.352C1290.74 492.478 1290.82 492.586 1290.93 492.652C1291.05 492.718 1291.18 492.735 1291.31 492.702C1293.08 492.435 1294.73 491.668 1296.08 490.492C1296.13 490.447 1296.17 490.392 1296.19 490.332C1296.22 490.272 1296.23 490.207 1296.23 490.142C1296.23 490.076 1296.22 490.011 1296.19 489.951C1296.17 489.891 1296.13 489.836 1296.08 489.792C1296.03 489.745 1295.98 489.708 1295.92 489.683C1295.86 489.658 1295.8 489.645 1295.73 489.645C1295.66 489.645 1295.6 489.658 1295.54 489.683C1295.48 489.708 1295.43 489.745 1295.38 489.792Z" fill="#7296EA"/>
<path d="M1286.83 501.062C1284.59 502.372 1282.02 502.991 1279.43 502.842C1278.79 502.842 1278.79 503.842 1279.43 503.842C1282.2 503.996 1284.95 503.328 1287.34 501.922C1287.45 501.853 1287.53 501.743 1287.56 501.616C1287.59 501.488 1287.57 501.354 1287.51 501.241C1287.44 501.128 1287.33 501.046 1287.21 501.013C1287.08 500.979 1286.94 500.997 1286.83 501.062Z" fill="#7296EA"/>
<path d="M1273.28 494.969C1272.12 495.608 1270.76 495.762 1269.49 495.399C1269.36 495.365 1269.22 495.384 1269.1 495.454C1268.98 495.523 1268.89 495.637 1268.86 495.769C1268.83 495.902 1268.85 496.043 1268.91 496.161C1268.98 496.279 1269.1 496.365 1269.23 496.399C1270.76 496.824 1272.4 496.634 1273.79 495.869C1274.35 495.559 1273.85 494.689 1273.28 494.999V494.969Z" fill="#7296EA"/>
<path d="M1267.11 502.791C1265.12 503.653 1262.91 503.884 1260.79 503.451C1258.66 503.018 1256.72 501.943 1255.23 500.371C1254.79 499.891 1254.09 500.601 1254.52 501.071C1256.17 502.8 1258.32 503.977 1260.66 504.439C1263.01 504.901 1265.44 504.625 1267.62 503.651C1268.2 503.391 1267.69 502.521 1267.11 502.791Z" fill="#7296EA"/>
<path d="M1328.73 425.79C1330.69 425.951 1332.57 426.69 1334.11 427.912C1335.66 429.134 1336.81 430.786 1337.42 432.66C1337.66 433.337 1337.74 434.057 1337.67 434.77C1337.39 436.77 1335.33 438.05 1333.35 438.04C1331.37 437.901 1329.5 437.065 1328.07 435.68C1326.91 434.747 1325.96 433.578 1325.29 432.25C1324.91 431.505 1324.74 430.674 1324.78 429.84C1324.96 427.95 1326.64 426.59 1328.29 425.66" fill="#132A76"/>
<path d="M1348.1 421.55C1348.1 421.55 1356.94 418.03 1360.1 413.64C1363.26 409.25 1363.21 429.36 1353.44 431.64C1353.42 431.66 1351.74 423.62 1348.1 421.55Z" fill="#1A3BA6"/>
<path d="M809.5 1683.06H1714.88" stroke="#255DE8" stroke-width="11" stroke-miterlimit="10" stroke-linecap="round"/>
<path d="M752.03 1683.06H786.81" stroke="#255DE8" stroke-width="11" stroke-miterlimit="10" stroke-linecap="round"/>
<path d="M272.35 1683.06H527.91" stroke="#255DE8" stroke-width="11" stroke-miterlimit="10" stroke-linecap="round"/>
</svg>
