<svg width="2000" height="2000" viewBox="0 0 2000 2000" fill="none" xmlns="http://www.w3.org/2000/svg">
<path d="M1788.41 300.766H232.984C212.78 300.766 196.401 317.144 196.401 337.349V1297.25C196.401 1317.45 212.78 1333.83 232.984 1333.83H1788.41C1808.62 1333.83 1825 1317.45 1825 1297.25V337.349C1825 317.144 1808.62 300.766 1788.41 300.766Z" fill="#FFF3E5"/>
<g opacity="0.42">
<mask id="mask0_142_1833" style="mask-type:alpha" maskUnits="userSpaceOnUse" x="196" y="300" width="1629" height="1034">
<path d="M1788.41 300.766H232.984C212.78 300.766 196.401 317.144 196.401 337.349V1297.25C196.401 1317.45 212.78 1333.83 232.984 1333.83H1788.41C1808.62 1333.83 1825 1317.45 1825 1297.25V337.349C1825 317.144 1808.62 300.766 1788.41 300.766Z" fill="#FFF3E5"/>
</mask>
<g mask="url(#mask0_142_1833)">
<path d="M174.527 416.251H1866.01V244H163.58L174.527 416.251Z" fill="#FFE7CF"/>
</g>
</g>
<path opacity="0.42" d="M1065.36 1227.38C1105.2 1227.38 1137.5 1195.08 1137.5 1155.24C1137.5 1115.4 1105.2 1083.1 1065.36 1083.1C1025.52 1083.1 993.223 1115.4 993.223 1155.24C993.223 1195.08 1025.52 1227.38 1065.36 1227.38Z" fill="#FFE7CF"/>
<path d="M1349.7 1227.38C1389.54 1227.38 1421.84 1195.08 1421.84 1155.24C1421.84 1115.4 1389.54 1083.1 1349.7 1083.1C1309.86 1083.1 1277.56 1115.4 1277.56 1155.24C1277.56 1195.08 1309.86 1227.38 1349.7 1227.38Z" fill="#FFE7CF"/>
<g opacity="0.42">
<mask id="mask1_142_1833" style="mask-type:alpha" maskUnits="userSpaceOnUse" x="1277" y="1083" width="145" height="145">
<path d="M1349.7 1227.38C1389.54 1227.38 1421.84 1195.08 1421.84 1155.24C1421.84 1115.4 1389.54 1083.1 1349.7 1083.1C1309.86 1083.1 1277.56 1115.4 1277.56 1155.24C1277.56 1195.08 1309.86 1227.38 1349.7 1227.38Z" fill="#FFE7CF"/>
</mask>
<g mask="url(#mask1_142_1833)">
<path d="M1349.7 1155.24L1307.76 1096.55L1221.58 1120.71L1251.62 1180.3L1282.69 1184.36L1349.7 1155.24Z" fill="#FFD4B0"/>
</g>
</g>
<path d="M1634.03 1227.38C1673.87 1227.38 1706.17 1195.08 1706.17 1155.24C1706.17 1115.4 1673.87 1083.1 1634.03 1083.1C1594.19 1083.1 1561.89 1115.4 1561.89 1155.24C1561.89 1195.08 1594.19 1227.38 1634.03 1227.38Z" fill="#FFE7CF"/>
<g opacity="0.42">
<mask id="mask2_142_1833" style="mask-type:alpha" maskUnits="userSpaceOnUse" x="1561" y="1083" width="146" height="145">
<path d="M1634.03 1227.38C1673.87 1227.38 1706.17 1195.08 1706.17 1155.24C1706.17 1115.4 1673.87 1083.1 1634.03 1083.1C1594.19 1083.1 1561.89 1115.4 1561.89 1155.24C1561.89 1195.08 1594.19 1227.38 1634.03 1227.38Z" fill="#FFE7CF"/>
</mask>
<g mask="url(#mask2_142_1833)">
<path d="M1634.03 1083.1V1155.24H1706.17L1759.66 1077.41L1634.03 1083.1Z" fill="#FFD4B0"/>
</g>
</g>
<path d="M274.739 381.844C283.73 381.844 291.018 374.555 291.018 365.564C291.018 356.574 283.73 349.285 274.739 349.285C265.748 349.285 258.459 356.574 258.459 365.564C258.459 374.555 265.748 381.844 274.739 381.844Z" fill="#FFE0BF"/>
<path d="M331.907 381.844C340.898 381.844 348.187 374.555 348.187 365.564C348.187 356.574 340.898 349.285 331.907 349.285C322.916 349.285 315.628 356.574 315.628 365.564C315.628 374.555 322.916 381.844 331.907 381.844Z" fill="#FFE0BF"/>
<path d="M389.056 381.844C398.047 381.844 405.336 374.555 405.336 365.564C405.336 356.574 398.047 349.285 389.056 349.285C380.065 349.285 372.777 356.574 372.777 365.564C372.777 374.555 380.065 381.844 389.056 381.844Z" fill="#FFE0BF"/>
<path d="M1769.58 970.875H944.123V973.028H1769.58V970.875Z" fill="#FFDFC2"/>
<g opacity="0.42">
<path d="M1042.3 759.023H944.123V971.943H1042.3V759.023Z" fill="#FFDFC2"/>
<path d="M1224.13 873.766H1125.95V971.945H1224.13V873.766Z" fill="#FFDFC2"/>
<path d="M1405.94 657.242H1307.76V971.942H1405.94V657.242Z" fill="#FFDFC2"/>
<path d="M1587.77 746.625H1489.59V971.94H1587.77V746.625Z" fill="#FFDFC2"/>
<path d="M1769.6 873.766H1671.42V971.945H1769.6V873.766Z" fill="#FFDFC2"/>
<path d="M993.223 628.467L1177.63 778.784L1361.59 509.742L1538.67 693.202L1720.5 794.781" stroke="#FFD7B6" stroke-width="4.02456" stroke-miterlimit="10"/>
<path d="M993.223 642.795C1001.14 642.795 1007.55 636.381 1007.55 628.468C1007.55 620.555 1001.14 614.141 993.223 614.141C985.31 614.141 978.896 620.555 978.896 628.468C978.896 636.381 985.31 642.795 993.223 642.795Z" fill="#FFDFC2"/>
<path d="M1178.86 791.764C1186.77 791.764 1193.18 785.35 1193.18 777.437C1193.18 769.524 1186.77 763.109 1178.86 763.109C1170.94 763.109 1164.53 769.524 1164.53 777.437C1164.53 785.35 1170.94 791.764 1178.86 791.764Z" fill="#FFDFC2"/>
<path d="M1362.6 524.069C1370.51 524.069 1376.92 517.654 1376.92 509.741C1376.92 501.829 1370.51 495.414 1362.6 495.414C1354.68 495.414 1348.27 501.829 1348.27 509.741C1348.27 517.654 1354.68 524.069 1362.6 524.069Z" fill="#FFDFC2"/>
<path d="M1538.67 708.577C1546.58 708.577 1553 702.162 1553 694.249C1553 686.336 1546.58 679.922 1538.67 679.922C1530.76 679.922 1524.34 686.336 1524.34 694.249C1524.34 702.162 1530.76 708.577 1538.67 708.577Z" fill="#FFDFC2"/>
<path d="M1720.5 809.108C1728.41 809.108 1734.83 802.693 1734.83 794.781C1734.83 786.868 1728.41 780.453 1720.5 780.453C1712.59 780.453 1706.17 786.868 1706.17 794.781C1706.17 802.693 1712.59 809.108 1720.5 809.108Z" fill="#FFDFC2"/>
<path d="M360.623 634.623C399.064 634.623 430.227 603.46 430.227 565.019C430.227 526.577 399.064 495.414 360.623 495.414C322.181 495.414 291.018 526.577 291.018 565.019C291.018 603.46 322.181 634.623 360.623 634.623Z" fill="#FFE7CF"/>
<path d="M778.654 556.63H486.873C484.84 556.63 482.89 555.823 481.452 554.385C480.014 552.947 479.207 550.997 479.207 548.964C479.207 546.93 480.014 544.98 481.452 543.542C482.89 542.105 484.84 541.297 486.873 541.297H778.654C780.687 541.297 782.637 542.105 784.075 543.542C785.513 544.98 786.32 546.93 786.32 548.964C786.32 550.997 785.513 552.947 784.075 554.385C782.637 555.823 780.687 556.63 778.654 556.63Z" fill="#FFDFC2"/>
<path d="M642.08 588.766H486.773C484.804 588.665 482.95 587.813 481.593 586.384C480.236 584.955 479.479 583.06 479.479 581.089C479.479 579.119 480.236 577.223 481.593 575.795C482.95 574.366 484.804 573.513 486.773 573.412H642.08C643.121 573.359 644.163 573.518 645.14 573.88C646.118 574.242 647.012 574.798 647.768 575.517C648.524 576.235 649.126 577.099 649.537 578.057C649.948 579.015 650.16 580.047 650.16 581.089C650.16 582.132 649.948 583.164 649.537 584.122C649.126 585.08 648.524 585.944 647.768 586.662C647.012 587.38 646.118 587.937 645.14 588.299C644.163 588.66 643.121 588.819 642.08 588.766Z" fill="#FFDFC2"/>
<path d="M360.623 566.872C369.325 566.872 376.379 559.817 376.379 551.116C376.379 542.414 369.325 535.359 360.623 535.359C351.921 535.359 344.867 542.414 344.867 551.116C344.867 559.817 351.921 566.872 360.623 566.872Z" fill="#FFD4B0"/>
<path d="M360.622 567.531C353.423 567.531 346.518 570.391 341.427 575.482C336.337 580.573 333.477 587.477 333.477 594.677H387.808C387.808 591.109 387.105 587.575 385.738 584.279C384.371 580.983 382.368 577.989 379.843 575.468C377.318 572.947 374.321 570.948 371.023 569.586C367.725 568.224 364.19 567.526 360.622 567.531Z" fill="#FFD4B0"/>
</g>
<path d="M418.616 800.051C418.616 800.051 228.194 780.189 219.843 981.035C212.74 1152.08 266.126 1626.98 282.123 1763.81C283.334 1774.12 288.211 1783.66 295.865 1790.68C303.518 1797.7 313.438 1801.73 323.818 1802.04C438.015 1805.55 724.06 1817.32 899.329 1801.16L867.475 1263.14C867.475 1263.14 642.1 1294.41 578.753 1304.83C515.407 1315.25 417.771 1205.52 410.547 1156.16C403.323 1106.8 351.144 1009.93 410.547 881.226C469.949 752.52 418.616 800.051 418.616 800.051Z" fill="#4498F4" stroke="#255DE8" stroke-width="6.03683" stroke-miterlimit="10"/>
<path d="M849.405 1300.51C849.405 1300.51 710.719 1453.16 512.972 1432.75C315.226 1412.35 388.352 1263.58 364.486 1227.02C340.621 1190.46 294.157 1077.39 330.278 888.654C330.278 888.654 363.943 799.872 418.697 800.114C418.697 800.114 348.026 1172.67 499.993 1250.86C651.96 1329.06 849.405 1300.51 849.405 1300.51Z" fill="#2183DB"/>
<path d="M293.734 1584.64C295.438 1611.28 297.893 1637.85 301.099 1664.35C302.736 1677.9 304.554 1691.4 306.553 1704.87C308.384 1717.23 310.094 1729.71 312.589 1741.94C314.843 1752.79 319.17 1764.28 329.472 1769.81C335.167 1772.87 340.258 1764.2 334.543 1761.12C326.816 1756.97 324.16 1748 322.47 1739.97C319.934 1728.18 318.345 1716.1 316.554 1704.15C312.744 1678.86 309.638 1653.48 307.237 1628C305.895 1613.56 304.748 1599.1 303.796 1584.64C303.765 1583.32 303.225 1582.05 302.288 1581.12C301.351 1580.18 300.09 1579.64 298.765 1579.61C297.434 1579.62 296.161 1580.15 295.219 1581.09C294.278 1582.04 293.745 1583.31 293.734 1584.64Z" fill="#0977C9"/>
<path d="M351.225 1774.26C360.406 1778.84 370.779 1780.48 380.926 1778.94C382.21 1778.58 383.298 1777.73 383.954 1776.57C384.61 1775.41 384.78 1774.03 384.428 1772.75C384.039 1771.48 383.184 1770.42 382.036 1769.76C380.889 1769.11 379.534 1768.92 378.25 1769.23C379.437 1769.06 377.566 1769.23 377.344 1769.23L375.996 1769.33C374.95 1769.33 373.984 1769.33 372.857 1769.33C371.73 1769.33 370.744 1769.33 369.698 1769.19L368.128 1769.02C367.766 1769.02 367.826 1769.02 368.35 1769.02L367.464 1768.88C365.418 1768.54 363.4 1768.04 361.427 1767.39C360.421 1767.07 359.415 1766.71 358.449 1766.33C359.274 1766.65 358.268 1766.33 358.006 1766.13L356.377 1765.34C355.806 1765.01 355.175 1764.79 354.52 1764.7C353.865 1764.61 353.2 1764.65 352.56 1764.82C351.921 1764.99 351.322 1765.28 350.796 1765.68C350.27 1766.08 349.828 1766.58 349.495 1767.15C349.162 1767.72 348.944 1768.35 348.855 1769.01C348.766 1769.66 348.807 1770.33 348.975 1770.97C349.143 1771.61 349.435 1772.21 349.835 1772.73C350.235 1773.26 350.735 1773.7 351.306 1774.03L351.225 1774.26Z" fill="#0977C9"/>
<path d="M735.229 791.3C735.229 791.3 742.272 789.287 742.151 780.313C742.03 771.338 753.339 680.645 753.339 680.645C753.339 680.645 711.725 686.279 661.962 689.941C658.923 690.163 663.974 697.266 665.041 700.123C666.389 703.886 667.757 707.669 669.065 711.473C676.47 734.312 679.589 758.318 686.391 781.359C687.84 786.269 689.711 791.42 693.897 794.459C699.249 798.202 706.473 797.075 712.892 795.787L735.309 791.3" fill="#255DE8"/>
<path d="M735.692 792.829C737.4 792.236 738.949 791.258 740.219 789.97C741.49 788.683 742.447 787.12 743.016 785.404C743.716 782.52 744.034 779.557 743.962 776.59C744.505 769.145 745.371 761.699 746.196 754.274C748.389 734.493 750.784 714.773 753.198 695.032C753.782 690.243 754.386 685.434 754.969 680.645C755.13 679.498 753.862 678.994 752.957 679.115C752.715 679.115 753.52 679.115 752.957 679.115L751.79 679.276L747.262 679.86C741.909 680.524 736.537 681.168 731.164 681.872C713.268 683.925 695.345 685.709 677.396 687.225L669.789 687.828C667.041 687.857 664.297 688.079 661.579 688.492C658.802 689.116 659.386 691.974 660.211 693.966C661.479 696.964 663.209 699.661 664.236 702.759C666.006 707.71 667.717 712.7 669.206 717.771C675.243 738.155 678.301 759.244 684.097 779.669C685.101 784.38 687.015 788.851 689.731 792.829C691.147 794.55 692.909 795.956 694.902 796.954C696.895 797.952 699.075 798.521 701.302 798.624C706.594 799.027 711.906 797.659 717.058 796.612L735.611 792.889C737.623 792.487 736.758 789.428 734.766 789.831L719.312 792.93C714.635 794.065 709.89 794.892 705.105 795.405C700.799 795.707 696.291 795.103 693.132 791.863C690.5 788.726 688.67 784.997 687.799 780.997C682.125 761.84 679.046 742.019 673.894 722.741C672.587 717.872 671.158 713.042 669.528 708.253C668.41 704.43 666.99 700.703 665.282 697.105C664.598 695.777 663.833 694.469 663.27 693.08C663.048 692.577 662.948 691.954 662.686 691.491C662.686 691.491 662.686 691.008 662.686 690.947C662.042 691.45 661.982 691.632 662.505 691.531H663.612C668.723 691.155 673.834 690.746 678.945 690.303C695.889 688.881 712.812 687.198 729.715 685.253C737.764 684.327 745.813 683.381 753.862 682.295L751.85 680.765C750.294 693.174 748.778 705.597 747.302 718.033C745.109 736.364 742.795 754.716 741.145 773.129C740.622 778.904 741.507 787.939 734.907 789.891C734.524 790.023 734.206 790.295 734.018 790.653C733.829 791.011 733.784 791.428 733.892 791.818C734 792.207 734.252 792.542 734.598 792.752C734.943 792.962 735.356 793.033 735.752 792.95L735.692 792.829Z" fill="#0E3D9B"/>
<path d="M728.688 765.299C715.589 771.336 698.504 771.819 684.076 770.592L671.54 715.113C687.477 717.407 705.849 718.071 720.559 711.531L737.341 718.755L728.688 765.299Z" fill="white"/>
<path d="M728.186 764.436C714.562 770.654 698.726 770.815 684.076 769.608L685.022 770.332L674.035 721.655L672.506 714.854L671.278 716.081C687.759 718.415 705.487 719.2 721.062 712.399H720.056L736.838 719.623L736.376 718.496L728.809 759.224L727.723 765.04C727.501 766.287 729.413 766.811 729.634 765.563L737.221 724.814L738.287 719.019C738.348 718.812 738.337 718.59 738.257 718.389C738.177 718.189 738.032 718.021 737.845 717.912L722.632 711.352C722.06 711.028 721.452 710.771 720.821 710.588C719.734 710.427 718.285 711.433 717.259 711.815C715.83 712.338 714.361 712.801 712.872 713.224C706.638 714.859 700.221 715.697 693.776 715.719C686.422 715.776 679.075 715.258 671.802 714.169C671.633 714.129 671.457 714.134 671.291 714.181C671.124 714.229 670.973 714.319 670.852 714.443C670.73 714.566 670.643 714.719 670.598 714.886C670.553 715.053 670.551 715.229 670.594 715.397L681.581 764.094L683.111 770.875C683.168 771.086 683.295 771.272 683.47 771.403C683.644 771.534 683.858 771.603 684.076 771.6C699.108 772.868 715.226 772.546 729.192 766.167C730.339 765.623 729.333 763.913 728.186 764.436Z" fill="#0E3D9B"/>
<path d="M722.37 683.604C707.614 685.334 692.783 686.629 677.879 687.487C674.237 687.689 670.574 687.87 666.932 688.011L661.439 688.212C660.453 688.212 657.253 688.836 656.71 687.85C656.166 686.864 657.434 684.167 657.696 683.121C658.098 681.612 658.481 680.102 659.004 678.633C659.465 677.191 660.207 675.854 661.188 674.7C662.169 673.547 663.369 672.599 664.719 671.912C670.172 669.276 677.114 669.9 682.99 669.558C690.375 669.135 697.74 668.572 705.125 667.828C710.578 667.264 716.092 666.781 721.485 665.815C724.328 665.325 727.197 664.996 730.077 664.829C735.401 664.411 740.758 664.825 745.954 666.057C750.342 667.476 754.483 669.566 758.229 672.255C759.96 673.321 761.57 670.584 759.819 669.498L754.466 666.157C752.736 665.071 751.126 667.828 752.877 668.914L758.229 672.255L759.839 669.518C756.267 667.025 752.392 664.997 748.309 663.481C743.218 662.021 737.924 661.396 732.633 661.63C728.855 661.71 725.088 662.074 721.364 662.716C715.991 663.622 710.558 664.125 705.145 664.729C697.096 665.534 689.047 666.144 680.998 666.56C674.961 666.862 668.099 666.56 662.586 669.518C656.549 672.778 655.301 679.579 653.752 685.616C653.067 688.333 653.249 690.747 656.408 691.411C657.938 691.603 659.486 691.603 661.016 691.411C663.028 691.411 665.202 691.271 667.274 691.17C685.693 690.405 704.045 688.943 722.33 686.783C724.342 686.542 724.342 683.362 722.33 683.604H722.37Z" fill="#0E3D9B"/>
<path d="M853.208 1292.68C853.208 1292.68 818.436 1803.66 848.56 1802.13C880.213 1800.52 898.022 1798.3 898.022 1798.3L853.208 1292.68Z" fill="#2183DB"/>
<path d="M675.323 668.368C677.536 661.647 683.01 657.945 689.67 656.415C697.616 654.728 705.698 653.765 713.818 653.538C717.842 653.377 721.726 653.296 725.69 653.216C729.318 652.865 732.977 653.397 736.355 654.765C736.838 655.007 736.355 654.765 736.959 655.047C737.616 655.395 738.243 655.799 738.83 656.254C740.85 657.941 742.229 660.272 742.734 662.855C743.177 664.867 746.236 664.022 745.793 662.009C745.387 660.038 744.57 658.175 743.395 656.542C742.219 654.908 740.712 653.542 738.971 652.532C734.983 650.531 730.52 649.667 726.073 650.036C718.929 650.157 711.765 650.318 704.642 650.942C697.84 651.545 690.375 652.21 683.976 654.765C681.198 655.901 678.702 657.632 676.665 659.836C674.628 662.041 673.098 664.664 672.184 667.523C671.54 669.535 674.598 670.3 675.242 668.368H675.323Z" fill="#0E3D9B"/>
<path d="M698.646 637.541C701.825 631.786 705.025 625.729 705.95 619.129C706.876 612.529 704.723 607.377 701.362 602.004C694.48 590.997 686.572 579.366 686.894 565.783C686.894 565.517 686.788 565.261 686.599 565.072C686.411 564.883 686.155 564.777 685.888 564.777C685.621 564.777 685.365 564.883 685.176 565.072C684.988 565.261 684.882 565.517 684.882 565.783C684.56 578.239 691.039 589.267 697.438 599.489C700.98 605.144 704.642 610.476 704.099 617.459C703.556 624.441 700.074 630.599 696.895 636.495C696.764 636.722 696.729 636.991 696.797 637.244C696.865 637.497 697.03 637.712 697.257 637.843C697.484 637.974 697.753 638.009 698.006 637.941C698.259 637.873 698.475 637.708 698.605 637.481L698.646 637.541Z" fill="#A76127"/>
<path d="M714.482 583.794C717.259 591.24 721.726 598.122 723.336 605.929C724.108 609.866 724.087 613.917 723.275 617.845C722.463 621.774 720.876 625.501 718.607 628.809C717.903 629.875 719.613 630.821 720.338 629.815C724.801 623.256 726.686 615.281 725.63 607.418C724.423 598.766 719.453 591.32 716.454 583.271C716.012 582.084 714.08 582.607 714.442 583.814L714.482 583.794Z" fill="#A76127"/>
<path d="M750.763 667.501C750.763 667.501 715.568 665.489 713.093 681.748C710.618 698.007 719.13 705.895 726.475 705.392C726.475 705.392 712.61 711.53 717.118 726.159C717.118 726.159 719.593 735.033 723.497 737.87C723.497 737.87 711.986 749.018 716.856 759.04C721.726 769.061 727.642 764.09 727.642 764.09C727.642 764.09 717.782 771.294 726.495 784.354C735.208 797.414 745.109 787.855 745.109 787.855L747.946 796.206L771.57 792.182L750.763 667.501Z" fill="#F2A91F"/>
<path d="M607.308 847.543C576.399 834.201 539.917 834.946 506.694 829.11L505.829 828.909C504.938 828.694 504.169 828.135 503.69 827.354C503.211 826.573 503.061 825.635 503.273 824.743L505.004 819.451C505.264 818.529 505.78 817.699 506.492 817.058C507.204 816.417 508.084 815.991 509.028 815.829C579.035 806.995 578.11 716.382 578.11 716.382C578.11 716.382 624.734 734.151 624.07 687.607C623.809 668.752 592.84 668.812 575.393 672.555L575.574 671.871C593.282 655.128 598.051 625.83 541.064 632.531C516.916 635.368 501.704 636.193 492.648 639.413C492.789 639.714 492.89 640.016 493.01 640.318L489.549 640.64C490.495 640.217 491.562 639.815 492.648 639.413C489.469 632.551 483.694 622.59 468.501 626.192C433.85 634.442 396.743 699.016 410.326 750.551C412.982 760.612 415.86 764.637 418.617 770.774C420.373 774.608 420.736 778.935 419.643 783.009L411.392 821.665C411.071 822.791 411.171 823.938 410.366 824.784L408.213 827.037C385.394 850.42 362.534 867.283 346.215 895.616C316.514 947.17 311.845 1009.25 313.535 1068.67C314.26 1093.68 314.059 1118.98 321.202 1142.95C327.963 1165.64 335.65 1186.91 351.044 1204.92C355.23 1209.81 360.16 1214.74 366.519 1215.87C370.953 1216.33 375.436 1215.83 379.659 1214.4C390.646 1211.5 407.469 1208.61 418.476 1205.73C425.478 1222.15 417.953 1274.63 428.678 1300.73C448.921 1349.97 496.17 1387.46 596.985 1381.22C756.096 1371.54 854.074 1291.79 854.074 1291.79L896.03 1792.37C896.349 1796.36 898.165 1800.08 901.113 1802.79C904.061 1805.5 907.923 1806.99 911.927 1806.98L1145.73 1805.87C1154.25 1805.87 1190.45 1804.8 1193.04 1794.94C1196.5 1781.74 1185.52 1756.51 1094.44 1725.92L1019.42 1696.72L1025.08 1227.86C1039.16 1234.91 1320.6 1375.1 1341.91 1373.25C1363.22 1371.4 1452.38 1130.41 1446.83 1110.04C1441.28 1089.68 1333.56 1185.67 1322.45 1210.66C1311.34 1235.65 1036.14 1033.3 877.758 1021.66C877.758 1021.66 843.71 1030.68 800.406 1058.01C808.455 1019.49 811.534 915.819 811.534 915.819C813.164 873.561 808.455 822.892 803.586 781.339C776.903 794.298 760.603 786.289 731.405 791.4C727.622 792.064 724.905 808.867 722.833 817.318C720.66 826.132 718.909 848.83 716.575 866.88C711.967 902.659 709.673 911.392 706.795 946.225C702.891 993.352 699.007 958.962 693.876 944.997C691.562 938.699 675.444 906.039 671.419 900.727C657.695 882.435 635.077 859.536 607.308 847.543Z" fill="#F2A91F"/>
<path d="M721.968 825.99C722.79 817.68 724.311 809.454 726.515 801.4C729.312 792.707 728.91 790.352 733.458 792.123C742.614 795.705 789.801 790.715 803.344 781.156L807.852 821.663C796.635 813.363 782.837 809.313 768.914 810.234C755.029 811.481 737.301 815.707 721.968 825.99Z" fill="#D78D28"/>
<path d="M760.442 779.43C753.118 780.094 742.151 790.94 742.151 790.94C742.151 790.94 757.283 796.816 764.286 796.232C778.834 794.985 781.41 791.041 790.164 787.66C792.176 786.895 803.586 783.334 803.606 781.885C801.693 770.003 802.179 757.858 805.034 746.167C806.624 739.647 809.401 733.389 809.783 726.688C809.893 719.127 808.751 711.6 806.403 704.412C804.981 698.677 802.916 693.121 800.245 687.851C796.178 680.511 790.109 674.479 782.744 670.457C775.38 666.435 767.025 664.588 758.651 665.132C756.16 665.272 753.725 665.931 751.504 667.068C749.282 668.205 747.323 669.794 745.753 671.733C737.18 683.062 749.878 698.596 745.531 711.515C744.762 713.24 744.09 715.007 743.519 716.808C742.251 722.844 746.558 728.278 748.61 733.992C751.367 741.74 749.958 750.252 750.119 758.462C750.28 766.672 752.977 775.989 760.442 779.43Z" fill="#F2A91F"/>
<path d="M745.753 670.139C739.716 670.622 733.78 669.495 727.803 669.937C721.827 670.38 714.844 673.58 712.51 679.476C709.874 686.096 713.113 694.648 716.273 700.584C717.014 702.153 718.109 703.528 719.47 704.603C720.831 705.679 722.423 706.424 724.121 706.782C728.145 707.547 732.17 706.601 736.194 706.239C738.617 705.915 741.08 706.079 743.438 706.722C745.643 707.549 747.738 708.644 749.677 709.982C751.85 711.33 754.003 712.678 756.136 714.006C757.665 715.012 761.629 716.763 761.77 718.876L763.783 717.327C756.136 715.495 749.053 712.034 741.648 709.499C738.145 708.257 734.524 707.38 730.842 706.883C727.521 706.46 723.316 705.997 720.458 708.151C717.924 710.482 716.311 713.645 715.911 717.065C715.229 720.701 715.465 724.449 716.595 727.971C717.581 730.97 719.251 734.23 722.632 735.014C726.012 735.799 730.077 733.908 733.518 733.224C738.152 732.293 742.885 731.955 747.604 732.217C750.152 732.35 752.687 732.666 755.19 733.163C756.921 733.505 759.919 733.666 760.724 735.517L762.092 733.123L735.027 735.678C728.004 736.322 720.841 737.067 717.037 743.728C715.601 746.398 714.764 749.349 714.583 752.376C714.402 755.402 714.883 758.432 715.991 761.255C717.118 763.891 719.291 766.426 722.41 766.285C723.877 766.097 725.266 765.521 726.435 764.615C728.064 763.552 729.822 762.7 731.667 762.08C735.81 760.792 740.154 760.267 744.485 760.53C746.678 760.53 748.852 760.792 751.025 761.013C751.95 761.114 757.363 761.275 756.921 762.724L758.45 761.556C750.577 761.906 742.733 762.753 734.967 764.092C729.956 764.957 721.625 765.903 721.605 772.684C721.808 775.785 722.521 778.831 723.718 781.699C724.57 784.289 725.939 786.678 727.743 788.722C732.129 793.511 738.609 793.089 744.002 790.352C750.703 786.951 756.398 779.164 764.628 780.089C766.64 780.331 766.64 777.152 764.628 776.91C758.832 776.246 753.802 779.607 749.375 782.947C744.948 786.287 739.313 790.996 733.417 788.823C728.568 787.092 726.777 781.337 725.63 776.749C724.905 773.912 724.08 770.913 727.159 769.263C729.694 768.202 732.373 767.523 735.108 767.251C742.832 765.901 750.636 765.061 758.47 764.736C758.814 764.723 759.146 764.603 759.42 764.395C759.694 764.186 759.896 763.897 760 763.569C760.986 760.47 758.088 758.739 755.472 758.377C752.058 757.861 748.619 757.526 745.169 757.371C738.327 757.089 731.244 757.874 725.368 761.637C724.06 762.462 722.551 763.79 720.961 762.824C719.649 761.766 718.757 760.275 718.446 758.618C717.675 755.691 717.606 752.623 718.245 749.664C718.788 746.785 720.258 744.163 722.43 742.198C725.388 739.703 729.433 739.361 733.136 739.019L762.133 736.282C762.409 736.274 762.68 736.195 762.917 736.053C763.155 735.911 763.353 735.71 763.492 735.471C763.631 735.231 763.707 734.96 763.712 734.683C763.717 734.406 763.651 734.132 763.521 733.888C762.354 731.191 758.993 730.668 756.438 730.145C752.821 729.402 749.143 728.998 745.451 728.937C741.879 728.893 738.31 729.163 734.786 729.742C732.995 730.044 731.184 730.426 729.413 730.889C727.642 731.579 725.76 731.941 723.859 731.956C720.177 731.533 719.07 725.919 718.808 722.88C718.416 719.243 719.161 715.573 720.941 712.376C722.954 709.016 727.139 709.579 730.54 710.002C733.935 710.468 737.273 711.284 740.501 712.437C748.047 714.972 755.23 718.474 762.978 720.385C763.213 720.446 763.459 720.453 763.698 720.405C763.936 720.357 764.161 720.255 764.355 720.108C764.548 719.961 764.706 719.772 764.816 719.555C764.926 719.338 764.986 719.099 764.99 718.856C764.749 715.294 761.408 713.624 758.732 711.873C755.331 709.64 751.91 707.366 748.328 705.374C745.085 703.521 741.372 702.654 737.643 702.878C733.82 703.08 729.956 704.086 726.113 703.784C721.746 703.422 719.573 700.544 718.064 696.761C716.522 693.42 715.465 689.876 714.924 686.237C714.622 684.433 714.809 682.581 715.468 680.875C716.126 679.168 717.231 677.67 718.667 676.538C721.088 674.711 723.934 673.534 726.938 673.117C733.216 672.392 739.535 673.741 745.813 673.238C747.825 673.077 747.825 669.897 745.813 670.058L745.753 670.139Z" fill="#A76127"/>
<path d="M504.564 732.644C504.564 732.809 504.584 732.972 504.621 733.13C504.501 735.611 504.077 738.069 503.358 740.448L503.352 740.467L503.348 740.486C502.928 742.402 502.016 744.176 500.703 745.634C500.077 746.21 499.588 746.288 499.204 746.191C498.774 746.082 498.33 745.719 497.895 745.13C497.032 743.96 496.417 742.189 496.129 741.146C494.724 735.885 494.724 730.349 496.129 725.088C496.369 724.218 496.98 722.192 497.883 720.595C498.338 719.79 498.837 719.15 499.355 718.802C499.608 718.632 499.851 718.541 500.089 718.522C500.312 718.505 500.56 718.549 500.84 718.694C502.281 719.892 503.247 721.565 503.565 723.412L503.569 723.434L503.575 723.456C504.369 726.443 504.703 729.534 504.565 732.622L504.564 732.633V732.644ZM506.461 744.081C507.889 740.459 508.661 736.613 508.742 732.721C508.743 732.703 508.743 732.684 508.743 732.665C508.748 732.604 508.75 732.544 508.751 732.484C508.892 728.994 508.484 725.502 507.541 722.137C506.955 719.58 505.577 717.273 503.602 715.546L503.588 715.533L503.572 715.522C502.437 714.673 501.296 714.316 500.192 714.354C499.093 714.392 498.079 714.818 497.184 715.451C495.406 716.708 494.019 718.837 493.233 720.72L493.233 720.72L493.23 720.729C490.603 727.363 490.118 734.654 491.841 741.578C492.312 743.483 493.25 746.045 494.73 747.929C495.473 748.875 496.372 749.675 497.443 750.12C498.526 750.57 499.751 750.642 501.1 750.181L501.128 750.172L501.153 750.16C502.41 749.563 503.53 748.713 504.444 747.664C505.354 746.62 506.041 745.4 506.461 744.081Z" fill="#A76127" stroke="#A76127"/>
<path d="M551.289 738.339C551.289 738.511 551.31 738.682 551.352 738.847C551.242 741.388 550.816 743.907 550.083 746.344L550.079 746.357L550.076 746.37C549.624 748.224 548.714 749.936 547.429 751.348C546.803 751.924 546.314 752.003 545.929 751.906C545.499 751.797 545.055 751.434 544.62 750.845C543.757 749.675 543.142 747.904 542.854 746.86C541.449 741.6 541.449 736.063 542.854 730.803C543.094 729.932 543.705 727.901 544.606 726.301C545.06 725.495 545.557 724.854 546.072 724.507C546.323 724.338 546.564 724.249 546.798 724.231C547.02 724.215 547.266 724.26 547.545 724.408C548.994 725.594 549.968 727.262 550.29 729.108L550.294 729.129L550.3 729.15C551.092 732.138 551.425 735.229 551.289 738.317L551.289 738.328V738.339ZM553.186 749.776C554.617 746.154 555.389 742.306 555.467 738.413C555.468 738.395 555.468 738.377 555.468 738.359C555.472 738.311 555.474 738.264 555.474 738.218C555.619 734.72 555.211 731.222 554.266 727.851C553.667 725.295 552.293 722.986 550.33 721.243L550.314 721.228L550.296 721.215C549.161 720.372 548.02 720.018 546.916 720.058C545.818 720.097 544.804 720.523 543.909 721.156C542.131 722.413 540.744 724.542 539.958 726.435L539.958 726.435L539.955 726.442C537.318 733.075 536.832 740.369 538.566 747.294C539.037 749.188 539.975 751.744 541.455 753.629C542.198 754.574 543.097 755.376 544.167 755.823C545.249 756.276 546.474 756.352 547.824 755.897L547.854 755.887L547.882 755.873C549.134 755.265 550.25 754.411 551.162 753.36C552.071 752.314 552.759 751.095 553.186 749.776Z" fill="#A76127" stroke="#A76127"/>
<path d="M564.024 707.832L564.024 707.832L564.02 707.828C561.236 704.602 557.557 702.276 553.45 701.143C549.342 700.009 544.991 700.12 540.947 701.462L540.947 701.462L540.94 701.464C539.674 701.904 539.344 703.151 539.603 704.103C539.734 704.583 540.022 705.039 540.465 705.321C540.923 705.612 541.497 705.685 542.112 705.468C545.426 704.354 548.998 704.259 552.366 705.197C555.735 706.135 558.745 708.063 561.007 710.731C561.43 711.232 561.964 711.46 562.507 711.436C563.032 711.412 563.508 711.157 563.859 710.803C564.553 710.102 564.886 708.853 564.024 707.832Z" fill="#A76127" stroke="#A76127"/>
<path d="M671.641 1073.16C679.046 1073.54 686.471 1073.62 693.876 1073.4C696.432 1073.4 696.452 1069.38 693.876 1069.38C686.471 1069.6 679.046 1069.52 671.641 1069.14C669.085 1069 669.085 1072.98 671.641 1073.16Z" fill="#A76127"/>
<path d="M483.826 709.905H483.744C485.851 707.591 488.402 705.717 491.249 704.4C492.688 703.735 494.376 703.097 496.072 702.83C497.767 702.564 499.43 702.675 500.86 703.459L500.875 703.467L500.891 703.475C501.364 703.692 501.9 703.725 502.395 703.568C502.891 703.411 503.31 703.075 503.571 702.625C503.832 702.176 503.916 701.645 503.807 701.137C503.698 700.629 503.403 700.18 502.981 699.877L502.961 699.863L502.94 699.85C498.917 697.53 494.066 698.707 490.239 700.347C486.319 702.005 482.848 704.57 480.111 707.83L480.111 707.83L480.11 707.832C479.253 708.86 479.581 710.108 480.278 710.808C480.63 711.161 481.107 711.415 481.632 711.436C482.174 711.457 482.707 711.228 483.13 710.728L483.826 709.905Z" fill="#A76127" stroke="#A76127"/>
<path d="M527.504 777.458L527.514 777.447L527.523 777.436C528.382 776.405 528.045 775.153 527.347 774.452C526.995 774.098 526.517 773.843 525.992 773.824C525.452 773.803 524.924 774.034 524.508 774.534C523.127 776.037 521.369 777.143 519.417 777.739C517.46 778.335 515.38 778.397 513.391 777.918L513.382 777.916L513.373 777.914C508.621 776.956 504.413 774.221 501.608 770.267L501.608 770.267L501.606 770.264C500.82 769.172 499.504 769.209 498.651 769.703C498.219 769.954 497.845 770.349 497.694 770.85C497.536 771.374 497.643 771.944 498.053 772.458L498.203 772.646H498.282C501.694 777.511 506.853 780.875 512.688 782.032C515.341 782.626 518.103 782.517 520.701 781.715C523.301 780.913 525.646 779.445 527.504 777.458Z" fill="#A76127" stroke="#A76127"/>
<path d="M695.687 1040.62C691.26 1040.3 683.956 1036.82 681.058 1042.39C680.888 1042.69 680.799 1043.03 680.8 1043.38C680.801 1043.73 680.892 1044.07 681.064 1044.37C681.236 1044.67 681.484 1044.93 681.783 1045.1C682.081 1045.28 682.421 1045.38 682.769 1045.39C686.391 1045.77 689.832 1044.38 693.414 1044.36C694.597 1044.32 695.776 1044.52 696.875 1044.96C697.779 1045.31 698.529 1045.97 698.988 1046.82C699.133 1047.32 699.472 1047.75 699.931 1048.01C700.39 1048.27 700.933 1048.34 701.443 1048.2C701.945 1048.06 702.371 1047.72 702.63 1047.27C702.89 1046.81 702.962 1046.28 702.831 1045.77C702.11 1044.2 700.961 1042.87 699.516 1041.92C698.07 1040.98 696.387 1040.47 694.661 1040.44C690.637 1040.05 686.793 1041.83 682.769 1041.4L684.499 1044.4C684.499 1044.4 684.922 1043.72 684.761 1043.92L685.022 1043.64C684.882 1043.74 684.882 1043.74 685.022 1043.64C685.315 1043.41 685.663 1043.27 686.029 1043.23C686.612 1043.11 685.707 1043.23 686.31 1043.23H687.155C687.638 1043.23 688.162 1043.23 688.463 1043.36C690.898 1043.74 693.253 1044.44 695.728 1044.6C696.261 1044.6 696.773 1044.39 697.151 1044.01C697.528 1043.64 697.74 1043.12 697.74 1042.59C697.74 1042.06 697.528 1041.54 697.151 1041.17C696.773 1040.79 696.261 1040.58 695.728 1040.58L695.687 1040.62Z" fill="#A76127"/>
<path d="M705.729 1011.93C703.674 1012.88 701.398 1013.24 699.149 1012.99C696.794 1012.99 694.44 1012.99 692.106 1012.99C687.575 1012.85 683.14 1014.32 679.589 1017.14C677.959 1018.57 679.75 1020.78 681.601 1020.46C686.45 1019.59 691.339 1018.97 696.251 1018.61C698.338 1018.33 700.448 1018.26 702.549 1018.38C704.562 1018.63 705.085 1019.83 705.447 1021.77C705.91 1024.28 709.753 1023.21 709.29 1020.7C709.181 1019.51 708.769 1018.37 708.092 1017.38C707.416 1016.39 706.498 1015.6 705.427 1015.06C703.122 1014.32 700.676 1014.13 698.283 1014.5C692.339 1014.82 686.419 1015.49 680.555 1016.51L682.567 1019.83C685.747 1017.04 690.214 1016.86 694.259 1016.84C696.472 1016.84 698.686 1016.84 700.899 1016.84C703.331 1016.94 705.747 1016.4 707.902 1015.27C709.914 1013.84 708.023 1010.4 705.89 1011.82L705.729 1011.93Z" fill="#A76127"/>
<path d="M501.382 635.128H501.325L501.27 635.141C499.08 635.642 496.934 636.301 494.848 637.11C493.548 634.725 491.872 632.562 489.881 630.705C487.491 628.19 484.744 626.041 481.727 624.327L481.727 624.327L481.721 624.324C481.15 624.009 480.565 623.982 480.054 624.164C479.555 624.341 479.155 624.707 478.903 625.138C478.651 625.569 478.529 626.096 478.633 626.614C478.739 627.145 479.074 627.622 479.648 627.936C483.935 630.351 487.631 633.689 490.469 637.707L490.469 637.707L490.476 637.717C490.719 638.043 490.942 638.383 491.143 638.734C489.15 639.714 487.224 640.837 485.383 642.097L485.383 642.097L485.375 642.103C483.042 643.769 481.093 645.915 479.659 648.397L479.659 648.397L479.655 648.404C478.06 651.267 477.118 655.149 479.72 658.037L479.729 658.047L479.738 658.056C480.889 659.207 482.384 659.949 483.996 660.171C485.608 660.393 487.249 660.082 488.667 659.286L488.676 659.281L488.684 659.276C491.548 657.524 493.639 654.749 494.534 651.513C494.718 650.99 494.884 650.451 495.047 649.92C495.117 649.692 495.187 649.467 495.257 649.244L495.431 648.722C495.446 648.703 495.458 648.685 495.466 648.672C495.481 648.645 495.492 648.622 495.498 648.607C495.511 648.578 495.52 648.552 495.525 648.535C495.531 648.516 495.536 648.498 495.54 648.482C495.548 648.451 495.555 648.417 495.56 648.387C495.562 648.374 495.565 648.36 495.567 648.344C495.853 647.576 496.033 646.773 496.103 645.957C496.394 644.354 496.421 642.72 496.188 641.119C498.214 640.319 500.303 639.675 502.437 639.195L502.449 639.192L502.46 639.189C502.996 639.042 503.452 638.688 503.727 638.204C504.002 637.721 504.074 637.149 503.926 636.612C503.779 636.076 503.425 635.621 502.942 635.346C502.48 635.082 501.935 635.005 501.42 635.128H501.382ZM487.667 645.674C489.113 644.673 490.616 643.766 492.168 642.956L492.169 642.968C492.196 643.839 492.151 644.71 492.036 645.573C491.93 645.986 491.844 646.404 491.777 646.826C491.076 649.153 490.156 651.408 489.029 653.561C488.521 654.472 487.725 655.188 486.764 655.596C485.813 656 484.755 656.078 483.755 655.82C483.223 655.591 482.89 655.28 482.685 654.932C482.472 654.572 482.375 654.138 482.378 653.65C482.382 652.662 482.793 651.54 483.286 650.641C484.378 648.694 485.872 647.001 487.667 645.674Z" fill="#A76127" stroke="#A76127"/>
<path d="M580.046 669.709C580.079 669.67 580.113 669.631 580.146 669.591C581.788 667.65 583.426 665.713 585.14 663.816C586.056 662.819 585.749 661.573 585.05 660.869C584.699 660.515 584.222 660.261 583.696 660.23C583.155 660.198 582.612 660.406 582.169 660.887L581.887 661.193L581.948 661.274C580.221 663.167 578.562 665.101 576.908 667.028C576.082 667.99 575.258 668.951 574.427 669.904L599.863 670.402M580.046 669.709C581.825 669.653 583.604 669.602 585.381 669.56C590.223 669.422 595.069 669.536 599.899 669.903M580.046 669.709C579.901 669.881 579.756 670.052 579.611 670.224C579.386 670.231 579.161 670.238 578.937 670.246M599.899 669.903C599.899 669.903 599.9 669.903 599.9 669.903L599.863 670.402M599.899 669.903C599.898 669.903 599.898 669.903 599.897 669.903L599.863 670.402M599.899 669.903C601.234 669.997 601.872 671.114 601.872 672.097C601.872 672.593 601.715 673.108 601.367 673.497C601.006 673.899 600.475 674.125 599.828 674.08L599.825 674.08C594.828 673.705 589.814 673.592 584.805 673.739L584.805 673.739C581.985 673.82 579.162 673.928 576.333 674.041C576.485 673.869 576.636 673.696 576.787 673.523C579.464 673.416 582.135 673.316 584.791 673.239C589.817 673.091 594.848 673.205 599.863 673.581C601.875 673.722 601.875 670.542 599.863 670.402" fill="#A76127" stroke="#A76127"/>
<path d="M644.334 1190.28L667.596 1161.96L692.548 1139.71L732.673 1107.75L781.652 1070.36L829.222 1041.61L865.725 1024.56L892.367 1021.85L920.942 1026.58L964.206 1044.87L973.623 1057.57L952.776 1086.92L809.804 1148.24L747.846 1190.28L695.929 1214.02L644.334 1211.1V1190.28Z" fill="#F2A91F"/>
<path opacity="0.79" d="M889.55 1191.82C889.55 1191.82 858.199 1245.03 834.675 1272.47C765.654 1352.96 695.828 1365.42 695.828 1365.42C695.828 1365.42 802.096 1342.42 865.242 1283.66C885.002 1265.27 903.616 1245.77 919.573 1229.83C947.021 1202.55 993.806 1217.76 1000.06 1255.99C1000.16 1256.54 1000.25 1257.08 1000.33 1257.62C1008.66 1312.28 1019.54 1678.19 1019.54 1678.19L1024.9 1233.74C1024.9 1233.74 1019.84 1161.72 957.806 1166.33C905.789 1170.17 888.503 1189.79 893.132 1187.29" fill="#D78D28"/>
<path d="M1074.77 1251.32C1075.33 1251.61 1075.65 1252.05 1075.76 1252.55C1075.88 1253.08 1075.75 1253.64 1075.47 1254.11C1074.92 1255.05 1073.7 1255.73 1072.4 1255.14L1072.4 1255.14C1067.07 1252.7 1061.71 1250.08 1056.61 1247.34C1052.6 1245.19 1048.68 1242.86 1044.76 1240.54C1043.71 1239.91 1042.65 1239.29 1041.59 1238.67L1041.59 1238.67C1039.58 1237.46 1037.46 1236.45 1035.34 1235.44L1035.3 1235.42C1033.19 1234.42 1031.07 1233.41 1029.06 1232.21C1025.39 1230.15 1022.41 1227.04 1020.51 1223.29L1020.5 1223.28L1020.5 1223.28C1018.64 1218.99 1017.1 1214.57 1015.9 1210.05C1013.16 1201.21 1008.65 1193.02 1002.63 1185.99C996.471 1179.04 988.35 1174.12 979.338 1171.87L979.337 1171.87C961.68 1167.39 943.199 1167.27 925.487 1171.52L925.478 1171.53C918.017 1173.03 910.875 1175.82 904.374 1179.78C899.12 1183.23 894.996 1188.48 891.078 1193.47C890.706 1193.94 890.336 1194.41 889.967 1194.88L889.967 1194.88C880.079 1207.28 871.295 1220.61 862.521 1233.93C861.821 1234.99 861.12 1236.06 860.42 1237.12C851.343 1250.93 841.509 1264.24 830.964 1276.96C817.107 1293.95 801.341 1309.28 783.977 1322.66L783.975 1322.66C769.651 1333.46 754.239 1342.74 737.99 1350.34L737.99 1350.34C702.539 1366.88 663.914 1374.53 625.411 1379.7L625.406 1379.7C624.701 1379.78 624.147 1379.56 623.774 1379.16C623.408 1378.77 623.239 1378.22 623.241 1377.67C623.247 1376.58 623.943 1375.37 625.344 1375.18L625.344 1375.18C630.998 1374.41 636.65 1373.61 642.282 1372.7L642.282 1372.7C679.496 1366.81 716.41 1357.48 749.658 1339.39L749.658 1339.39C766.936 1330.01 783.043 1318.61 797.641 1305.44C813.618 1290.56 828.216 1274.26 841.256 1256.75L841.258 1256.75C848.13 1247.8 854.4 1238.35 860.688 1228.88C862.532 1226.1 864.378 1223.32 866.241 1220.54C871.273 1213.04 876.386 1205.63 881.761 1198.4C886.33 1192 891.354 1185.94 896.795 1180.26L896.8 1180.26L896.806 1180.25C901.855 1175.64 907.855 1172.18 914.384 1170.14C922.573 1167.33 931.07 1165.52 939.692 1164.75C949.002 1163.8 958.389 1163.91 967.674 1165.08C976.716 1165.93 985.506 1168.53 993.559 1172.73L993.566 1172.73L993.573 1172.74C1001.48 1177.51 1008.04 1184.21 1012.64 1192.22C1014.97 1196.13 1017 1200.22 1018.69 1204.45M1074.77 1251.32L1018.46 1204.54M1074.77 1251.32V1251.23L1074.62 1251.16C1064.6 1246.61 1055.18 1241.21 1045.66 1235.75C1044.89 1235.31 1044.12 1234.87 1043.35 1234.43M1074.77 1251.32L1043.23 1234.65M1018.69 1204.45L1018.46 1204.54M1018.69 1204.45C1018.69 1204.45 1018.69 1204.45 1018.69 1204.45L1018.46 1204.54M1018.69 1204.45C1019.59 1206.67 1020.29 1208.95 1020.96 1211.22C1021.03 1211.45 1021.1 1211.67 1021.16 1211.89C1021.77 1213.95 1022.38 1215.99 1023.12 1218L1023.12 1218.01L1023.12 1218.01C1024.43 1222.11 1027.13 1225.62 1030.76 1227.94M1018.46 1204.54C1019.44 1206.97 1020.18 1209.47 1020.92 1211.97C1021.53 1214.02 1022.14 1216.07 1022.88 1218.09C1024.21 1222.24 1026.95 1225.8 1030.63 1228.15M1030.76 1227.94C1030.76 1227.94 1030.76 1227.94 1030.76 1227.94L1030.63 1228.15M1030.76 1227.94C1030.76 1227.94 1030.76 1227.94 1030.77 1227.94L1030.63 1228.15M1030.76 1227.94C1032.76 1229.17 1034.89 1230.2 1037.04 1231.22L1037.43 1231.4C1039.44 1232.36 1041.45 1233.32 1043.35 1234.43M1030.63 1228.15C1032.77 1229.46 1035.05 1230.55 1037.32 1231.63C1039.33 1232.59 1041.34 1233.54 1043.23 1234.65M1043.23 1234.65L1043.35 1234.43C1043.35 1234.43 1043.35 1234.43 1043.35 1234.43M1043.23 1234.65L1043.35 1234.43C1043.35 1234.43 1043.35 1234.43 1043.35 1234.43" fill="#A76127" stroke="#A76127" stroke-width="0.5"/>
<g opacity="0.44">
<path d="M423.989 988.363C436.09 1006.62 446.278 1026.07 454.395 1046.42C456.47 1051.08 457.899 1056.01 458.641 1061.07C458.797 1061.91 458.714 1062.78 458.399 1063.58C457.938 1064.3 457.273 1064.87 456.488 1065.21C450.012 1068.69 443.229 1071.57 436.224 1073.8C435.712 1074.05 435.154 1074.19 434.585 1074.21C434.016 1074.23 433.45 1074.12 432.924 1073.91C431.917 1073.09 431.268 1071.91 431.113 1070.63C424.745 1044.83 421.609 1018.34 421.776 991.764" fill="#D78D28"/>
</g>
<path d="M426.967 1069.74L426.969 1069.75L426.972 1069.76C427.125 1070.2 427.44 1070.57 427.854 1070.79C428.269 1071.01 428.751 1071.06 429.202 1070.93L429.135 1070.69L429.202 1070.93C429.653 1070.81 430.04 1070.52 430.283 1070.12C430.527 1069.72 430.609 1069.24 430.512 1068.78L430.512 1068.78L430.509 1068.77C423.879 1043.15 421.743 1016.58 424.198 990.236L424.198 990.235C424.25 989.66 424.06 989.204 423.723 988.896C423.392 988.594 422.942 988.453 422.495 988.453C421.606 988.453 420.626 989.022 420.521 990.189C418.051 1016.88 420.232 1043.8 426.967 1069.74Z" fill="#A76127" stroke="#A76127" stroke-width="0.5"/>
<path d="M512.489 1041.83L512.489 1041.83C476.606 1057.01 441.251 1073.55 406.427 1091.43V1091.45L406.291 1091.52C405.76 1091.79 405.233 1091.79 404.782 1091.61C404.336 1091.43 403.975 1091.07 403.747 1090.66C403.519 1090.25 403.415 1089.76 403.507 1089.3C403.601 1088.83 403.897 1088.4 404.427 1088.12L404.428 1088.12C424.571 1077.77 444.878 1067.77 465.43 1058.33L465.43 1058.33C482.918 1050.31 500.548 1042.64 518.259 1035.19L518.26 1035.19C527.415 1031.39 536.62 1027.68 545.826 1023.96L546.279 1023.78C555.637 1020 564.995 1016.22 574.308 1012.36C589.774 1005.74 605.893 1000.97 622.364 998.15L622.366 998.149C632.704 996.484 643.129 995.391 653.543 994.3C660.147 993.607 666.747 992.916 673.317 992.079L673.317 992.079C673.904 992.004 674.371 992.195 674.684 992.548C674.99 992.892 675.13 993.367 675.13 993.839C675.13 994.773 674.566 995.837 673.381 995.987C673.38 995.987 673.38 995.987 673.38 995.987L673.348 995.739C666.686 996.604 660 997.291 653.313 997.978C641.443 999.199 629.568 1000.42 617.81 1002.63L512.489 1041.83ZM512.489 1041.83C527.16 1035.6 541.918 1029.66 556.688 1023.71M512.489 1041.83L556.688 1023.71M556.688 1023.71C560.671 1022.1 564.654 1020.5 568.637 1018.89L556.688 1023.71Z" fill="#A76127" stroke="#A76127" stroke-width="0.5"/>
<g opacity="0.79">
<path d="M624.05 941.176C621.052 952.767 621.475 964.921 622.038 976.874C622.32 983.313 623.004 990.537 627.914 994.702C632.824 998.868 641.316 991.684 647.634 990.839" fill="#D78D28"/>
</g>
<path d="M623.104 940.569C626.505 949.444 630.449 958.096 634.252 966.729C636.144 971.076 638.056 975.442 639.806 979.869C641.557 984.296 642.805 988.884 646.487 991.943C648.057 993.231 650.331 990.997 648.741 989.709C645.099 986.751 643.952 981.66 642.261 977.636C640.571 973.611 638.78 969.365 636.989 965.26C633.307 956.829 629.463 948.417 626.183 939.805C625.459 937.913 622.38 938.738 623.104 940.65V940.569Z" fill="#A76127"/>
<path d="M547.583 798.305C547.583 798.305 517.781 816.717 494.781 809.251C464.094 799.291 488.644 835.31 500.577 836.357C512.509 837.403 545.672 835.471 566.016 836.699C566.016 836.699 511.845 829.918 505.748 829.314C499.651 828.71 505.748 818.105 505.748 818.105C505.748 818.105 506.171 815.791 513.133 815.469C520.096 815.147 539.071 807.118 547.583 798.305Z" fill="#D78D28"/>
<path opacity="0.79" d="M971.53 1043.8C971.53 1043.8 1300.62 1243.8 1323.78 1242.86C1346.94 1241.91 1361.59 1173.55 1446.89 1110.04C1446.89 1110.04 1444.34 1100.95 1424.17 1115.18C1404.01 1129.4 1371.19 1154.15 1344.02 1183.45C1344.02 1183.45 1325.43 1202.89 1322.51 1210.68C1319.59 1218.47 1291.36 1203.74 1291.36 1203.74L1137 1120.05C1083.33 1091.52 1028.09 1066.06 971.53 1043.8Z" fill="#D78D28"/>
<path opacity="0.54" d="M468.562 626.191C468.562 626.191 424.815 659.998 419.724 697.044C414.632 734.09 422.339 756.486 428.276 769.244C430.529 774.114 419.985 824.944 417.671 828.647C415.357 832.349 349.535 886.439 330.197 930.79C330.197 930.79 341.627 895.676 359.878 875.935C378.13 856.195 410.427 824.783 410.427 824.783L420.086 781.157C420.561 777.632 420.074 774.044 418.677 770.774C416.363 765.26 405.336 747.492 408.113 716.442C410.704 689.786 421.85 664.683 439.887 644.885C439.887 644.885 455.14 628.908 468.562 626.191Z" fill="#D78D28"/>
<path opacity="0.44" d="M313.294 1063.12C313.294 1063.12 324.16 1147.43 353.942 1187.29C368.591 1206.93 399.319 1205.41 425.036 1199.15C424.742 1200.78 423.966 1202.28 422.807 1203.47C421.648 1204.65 420.16 1205.46 418.536 1205.79C412.62 1207.22 376.761 1215.21 376.761 1215.21C376.761 1215.21 366.358 1218.87 359.818 1213.19C359.818 1213.19 350.078 1206.85 340.641 1190.51C332.331 1175.52 325.826 1159.59 321.263 1143.07C314.501 1117.31 314.36 1091.43 313.294 1063.12Z" fill="#D78D28"/>
<path d="M415.617 1203.19C416.019 1203.87 416.85 1204.4 417.783 1204.18V1204.23L418.132 1204.09C431.333 1198.43 444.561 1192.82 457.792 1187.21C471.736 1181.3 485.684 1175.38 499.608 1169.41C527.963 1157.34 556.238 1144.94 584.311 1132.12C600.987 1124.52 617.583 1116.73 634.099 1108.76C634.626 1108.51 634.927 1108.11 635.025 1107.66C635.121 1107.22 635.017 1106.75 634.79 1106.37C634.338 1105.6 633.342 1105.05 632.272 1105.57C603.351 1119.52 574.19 1132.94 544.787 1145.81L544.887 1146.04L544.787 1145.81C517.24 1157.89 489.512 1169.76 461.783 1181.53C446.624 1187.94 431.472 1194.39 416.326 1200.87C415.792 1201.09 415.483 1201.47 415.381 1201.92C415.283 1202.35 415.39 1202.81 415.617 1203.19Z" fill="#A76127" stroke="#A76127" stroke-width="0.5"/>
<path d="M362.776 1196.73C363.655 1198.64 365.048 1200.27 366.801 1201.43C368.553 1202.59 370.595 1203.25 372.697 1203.31C373.231 1203.31 373.742 1203.1 374.12 1202.72C374.497 1202.34 374.709 1201.83 374.709 1201.3C374.709 1200.77 374.497 1200.25 374.12 1199.88C373.742 1199.5 373.231 1199.29 372.697 1199.29H372.033C371.832 1199.29 371.731 1199.15 372.154 1199.29H371.852C371.442 1199.21 371.039 1199.1 370.644 1198.97C370.468 1198.89 370.287 1198.82 370.101 1198.76C370.343 1198.76 370.524 1198.76 370.101 1198.76L369.819 1198.62C369.453 1198.43 369.097 1198.23 368.753 1198L368.511 1197.82C368.27 1197.64 368.511 1197.82 368.511 1197.82C368.373 1197.68 368.225 1197.55 368.069 1197.44C367.76 1197.15 367.471 1196.85 367.203 1196.53C367.142 1196.45 367.075 1196.38 367.002 1196.31C367.183 1196.53 367.224 1196.59 367.143 1196.47L367.042 1196.33L366.7 1195.83C366.478 1195.46 366.283 1195.08 366.117 1194.68C365.856 1194.23 365.43 1193.9 364.93 1193.75C364.413 1193.63 363.866 1193.7 363.4 1193.95C362.95 1194.22 362.618 1194.64 362.475 1195.14C362.37 1195.66 362.44 1196.2 362.676 1196.67L362.776 1196.73Z" fill="#A76127"/>
<path d="M975.877 1045.29C976.058 1048.81 965.997 1052.47 962.757 1053.82C959.409 1054.94 955.844 1055.25 952.353 1054.73C935.953 1053.24 919.594 1047.7 903.354 1050.4C892.066 1052.29 881.783 1058.05 870.735 1060.97C861.872 1063.25 852.638 1063.71 843.591 1062.33C834.543 1060.95 825.87 1057.74 818.094 1052.92C818.094 1052.92 812.681 1051.04 822.642 1044.87C832.603 1038.69 864.155 1023.74 868.924 1023.34C873.693 1022.93 893.836 1019.67 916.636 1025.87C939.435 1032.07 975.877 1045.29 975.877 1045.29Z" fill="#FCB753"/>
<path d="M955.188 1035.4L955.208 1035.14L955.519 1035.25C956.621 1035.66 956.947 1036.75 956.723 1037.62C956.611 1038.05 956.356 1038.45 955.967 1038.69C955.572 1038.93 955.068 1038.99 954.502 1038.78L954.5 1038.78C952.356 1037.99 950.185 1037.23 947.988 1036.49L947.987 1036.49C937.372 1032.87 926.55 1029.9 915.578 1027.58L915.574 1027.58C904.436 1025.06 893.044 1023.82 881.624 1023.91C874.379 1023.97 867.22 1025.49 860.573 1028.37C853.315 1031.61 846.438 1035.03 839.094 1038.71C831.75 1042.39 824.448 1046.13 817.227 1050.02L817.226 1050.02C809.67 1054.06 802.453 1058.64 795.228 1063.25L795.228 1063.25C777.769 1074.35 760.932 1086.32 744.496 1098.87C739.382 1102.79 734.245 1106.66 729.109 1110.54C718.491 1118.55 707.881 1126.56 697.511 1134.87C697.408 1135.01 697.291 1135.16 697.164 1135.3C697.166 1135.33 697.166 1135.36 697.163 1135.37C697.153 1135.4 697.131 1135.45 697.12 1135.46C697.1 1135.49 697.08 1135.5 697.074 1135.51L697.074 1135.51C697.06 1135.52 697.048 1135.52 697.046 1135.53L697.045 1135.53C697.038 1135.53 697.031 1135.53 697.03 1135.53L697.025 1135.54L697.018 1135.54C697.013 1135.54 697.004 1135.55 696.991 1135.55C696.967 1135.57 696.931 1135.58 696.881 1135.61L696.872 1135.62L696.872 1135.62C696.868 1135.62 696.864 1135.62 696.86 1135.63C696.639 1135.84 696.399 1136.06 696.151 1136.26C695.592 1136.72 694.983 1137.15 694.453 1137.52C694.329 1137.6 694.21 1137.68 694.097 1137.76C693.722 1138.01 693.418 1138.22 693.228 1138.37L693.227 1138.37C688.681 1141.99 684.176 1145.69 679.772 1149.49L679.772 1149.49C678.6 1150.49 677.451 1151.58 676.291 1152.68C676.119 1152.85 675.946 1153.01 675.774 1153.17C674.784 1154.12 673.782 1155.07 672.754 1156C670.337 1158.18 667.755 1160.21 664.764 1161.6C661.757 1163 658.545 1163.34 655.315 1163.29C653.7 1163.27 652.076 1163.15 650.469 1163.02C650.243 1163.01 650.017 1162.99 649.791 1162.97C648.414 1162.86 647.052 1162.75 645.714 1162.69C631.237 1162.33 616.754 1163.07 602.389 1164.91L602.386 1164.91L601.889 1164.96C594.775 1165.77 587.407 1166.61 580.674 1167.94C573.782 1169.31 567.008 1171.1 560.211 1173.11C553.409 1175.12 546.638 1177.17 540.111 1179.8C533.801 1182.38 527.661 1185.36 521.728 1188.72L521.719 1188.73L521.709 1188.73C521.294 1188.92 520.822 1188.95 520.385 1188.81C519.949 1188.67 519.58 1188.38 519.35 1187.98C519.121 1187.59 519.047 1187.12 519.143 1186.67C519.239 1186.22 519.498 1185.83 519.87 1185.56L519.883 1185.55L519.896 1185.55C532.98 1178.47 546.832 1172.91 561.181 1168.98C574.499 1165.27 588.111 1162.69 601.867 1161.29C615.549 1159.54 629.337 1158.75 643.13 1158.93L643.134 1158.93C645.625 1159 648.11 1159.16 650.594 1159.32C651.705 1159.39 652.815 1159.46 653.926 1159.52L653.934 1159.52L653.942 1159.52C657.093 1159.9 660.288 1159.46 663.221 1158.25C666.149 1156.64 668.836 1154.63 671.202 1152.27L671.208 1152.26L671.213 1152.26C673.588 1150.15 675.984 1148.05 678.4 1145.97L678.401 1145.97C682.226 1142.71 686.111 1139.51 690.058 1136.37L955.188 1035.4ZM955.188 1035.4C934.357 1027.76 912.085 1021.77 889.825 1020.61L889.825 1020.61C881.167 1020.17 871.664 1020.28 863.381 1023.46L863.38 1023.46C857.543 1025.74 851.87 1028.53 846.255 1031.3C845.644 1031.61 845.034 1031.91 844.425 1032.21L844.424 1032.21C843.62 1032.61 842.814 1033 842.007 1033.4C828.704 1039.99 815.215 1046.67 802.549 1054.55C783.882 1066.11 765.765 1078.47 748.199 1091.65L748.198 1091.65C742.89 1095.67 737.621 1099.72 732.353 1103.77C729.191 1106.2 726.031 1108.63 722.862 1111.05C719.854 1113.35 716.813 1115.63 713.767 1117.91C708.264 1122.03 702.747 1126.17 697.382 1130.45L697.382 1130.45L695.598 1131.89C695.368 1131.95 695.146 1132.04 694.938 1132.16L694.687 1132.31L694.841 1132.5L694.586 1132.71C694.586 1132.71 694.586 1132.71 694.586 1132.71C694.511 1132.77 694.444 1132.83 694.383 1132.89C694.106 1133.09 693.842 1133.31 693.592 1133.54L690.058 1136.37L955.188 1035.4Z" fill="#A76127" stroke="#A76127" stroke-width="0.5"/>
<path opacity="0.79" d="M1102.07 1805.69L929.474 1790.11C926.723 1789.87 924.123 1788.74 922.056 1786.91C919.988 1785.08 918.561 1782.63 917.984 1779.93L880.213 1603.52L896.312 1793.43C896.625 1797.1 898.309 1800.52 901.027 1803C903.745 1805.49 907.299 1806.85 910.981 1806.84L1102.07 1805.69Z" fill="#D78D28"/>
<path d="M1227.23 1313.19L1290.15 1338.5C1291.44 1338.85 1292.81 1338.68 1293.97 1338.02C1295.13 1337.37 1295.99 1336.28 1296.35 1335C1296.67 1333.71 1296.49 1332.35 1295.83 1331.2C1295.17 1330.04 1294.1 1329.19 1292.83 1328.8L1229.89 1303.49C1228.6 1303.14 1227.24 1303.31 1226.08 1303.97C1224.92 1304.62 1224.07 1305.71 1223.71 1306.99C1223.39 1308.28 1223.58 1309.64 1224.23 1310.79C1224.89 1311.94 1225.96 1312.8 1227.23 1313.19Z" fill="#D78D28"/>
<path d="M1306.29 1343.51C1308.02 1345.55 1310.13 1347.23 1312.51 1348.46C1315.24 1349.85 1318.21 1350.69 1321.26 1350.91C1322.6 1350.91 1323.88 1350.37 1324.83 1349.42C1325.77 1348.48 1326.29 1347.2 1326.29 1345.87C1326.29 1344.54 1325.77 1343.26 1324.83 1342.32C1323.85 1341.42 1322.59 1340.9 1321.26 1340.85H1320.38L1321.73 1341.03C1320.25 1340.83 1318.81 1340.43 1317.44 1339.85L1318.63 1340.35C1317.32 1339.78 1316.08 1339.06 1314.95 1338.2L1315.97 1338.98C1315.03 1338.24 1314.18 1337.41 1313.42 1336.49C1312.47 1335.54 1311.19 1335.02 1309.85 1335.02C1308.52 1335.02 1307.24 1335.54 1306.29 1336.49C1305.35 1337.43 1304.83 1338.71 1304.82 1340.05L1305.01 1341.4C1305.24 1342.23 1305.68 1342.99 1306.29 1343.61V1343.51Z" fill="#D78D28"/>
<path d="M852.202 1272.47L897.237 1790.78C897.552 1794.77 899.366 1798.5 902.315 1801.21C905.264 1803.92 909.129 1805.41 913.134 1805.39L1146.94 1804.3C1155.45 1804.3 1191.63 1803.21 1194.23 1793.35C1197.71 1780.15 1186.72 1754.92 1095.63 1724.35L1020.61 1695.17L1024.98 1233.74" fill="#EA9C1F"/>
<path d="M685.384 1078.98C684.843 1082.9 685.215 1086.9 686.471 1090.67C687.145 1092.57 688.257 1094.29 689.718 1095.69C691.179 1097.09 692.948 1098.13 694.882 1098.72C695.412 1098.95 695.987 1099.08 696.568 1099.07C697.149 1099.07 697.722 1098.94 698.248 1098.69C698.774 1098.44 699.24 1098.09 699.615 1097.64C699.989 1097.2 700.263 1096.68 700.417 1096.12C700.572 1095.56 700.603 1094.97 700.509 1094.4C700.415 1093.82 700.198 1093.28 699.873 1092.8C699.547 1092.31 699.122 1091.91 698.625 1091.61C698.128 1091.31 697.572 1091.11 696.995 1091.05C696.713 1091.05 696.431 1090.85 696.13 1090.79C697.055 1091.01 696.673 1091.01 696.371 1090.79C696.237 1090.73 696.109 1090.65 695.989 1090.57L695.606 1090.32C695.184 1090.08 696.21 1090.87 695.868 1090.55L695.123 1089.84L694.822 1089.5C694.459 1089.12 694.922 1089.64 695.003 1089.76C694.822 1089.48 694.6 1089.2 694.419 1088.9C694.238 1088.59 694.117 1088.37 693.976 1088.09C693.695 1087.45 693.836 1087.81 693.976 1088.09C694.258 1088.73 693.976 1088.09 693.976 1087.93C693.74 1087.28 693.558 1086.6 693.433 1085.92C693.433 1085.78 693.272 1084.93 693.433 1085.58C693.594 1086.22 693.433 1085.58 693.433 1085.37C693.433 1085.17 693.433 1084.59 693.433 1084.21C693.433 1082.5 693.433 1080.77 693.594 1079.06C693.594 1077.99 693.17 1076.96 692.415 1076.21C691.661 1075.46 690.637 1075.03 689.57 1075.03C688.502 1075.03 687.478 1075.46 686.724 1076.21C685.969 1076.96 685.545 1077.99 685.545 1079.06L685.384 1078.98Z" fill="#F2A91F"/>
<path d="M687.739 1089.48L660.975 1099.77C658.601 1100.67 659.627 1104.51 662.022 1103.59L688.785 1093.31C691.16 1092.4 690.133 1088.56 687.739 1089.48Z" fill="#A76127"/>
<path d="M718.997 835.013C718.618 835.214 718.339 835.578 718.236 836.099L704.018 946.929C703.213 954.113 702.428 961.317 701.865 968.521L701.616 968.501C701.616 968.501 701.616 968.501 701.616 968.501C701.57 969.076 701.764 969.531 702.103 969.838C702.436 970.139 702.887 970.28 703.334 970.28C704.223 970.28 705.2 969.71 705.293 968.54L705.293 968.54C706.41 954.391 708.158 940.279 709.903 926.18L710.041 925.066L710.041 925.066C712.416 905.789 714.924 886.533 717.567 867.297C718.955 857.235 720.344 847.175 721.792 837.114L721.792 837.113C721.955 835.953 721.148 835.142 720.291 834.906C719.86 834.787 719.39 834.804 718.997 835.013Z" fill="#A76127" stroke="#A76127" stroke-width="0.5"/>
<path d="M854.134 1272.48C854.134 1272.48 860.735 1206.94 927.784 1194.79C1016.73 1178.69 1025.06 1233.74 1025.06 1233.74" fill="#EA9C1F"/>
<path d="M608.918 672.215C608.918 672.215 618.979 682.397 616.484 700.608C615.498 708.013 611.232 715.056 603.947 717.149C597.065 719.161 594.731 718.88 578.17 716.384C578.17 716.384 604.33 729.847 617.671 711.334C631.013 692.821 624.352 673.382 608.918 672.215Z" fill="#D78D28"/>
<path d="M696.15 1096.6C697.901 1068.91 704.501 1041.85 707.278 1014.28C709.753 989.468 709.29 963.449 715.931 939.161C717.118 934.915 718.406 930.468 721.444 927.268C725.026 923.546 730.379 922.198 735.43 921.111C766.419 914.45 798.011 911.05 829.524 907.81L932.029 897.004C941.386 896.018 952.152 895.474 958.813 902.115C966.862 910.164 964.346 923.425 961.268 934.311L934.464 1029.01C934.464 1029.01 887.598 1014 863.571 1025.33C839.545 1036.66 781.652 1070.36 781.652 1070.36C781.652 1070.36 687.074 1125.44 696.15 1096.52" fill="#255DE8"/>
<path d="M698.142 1096.6C699.33 1078.33 702.589 1060.38 705.467 1042.27C706.896 1033.24 708.244 1024.16 709.17 1015.06C710.055 1006.45 710.558 997.819 711.182 989.186C712.289 971.76 713.556 954.092 718.607 937.27C719.435 933.451 721.449 929.993 724.362 927.389C727.512 925.31 731.075 923.937 734.806 923.365C743.559 921.352 752.434 919.803 761.288 918.354C798.132 912.317 835.46 909.238 872.567 905.335L928.548 899.419C935.732 898.674 943.419 897.406 950.502 899.6C953.738 900.526 956.603 902.443 958.693 905.081C960.783 907.72 961.993 910.947 962.153 914.309C962.817 921.473 960.906 928.556 958.974 935.378L951.388 962.182L936.356 1015.25L932.593 1028.55L935.048 1027.16C927.903 1024.94 920.624 1023.17 913.255 1021.87C900.095 1019.43 886.19 1017.84 873.009 1020.4C867.453 1021.65 862.102 1023.69 857.112 1026.43C851.88 1029.07 846.689 1031.81 841.537 1034.48C829.826 1040.78 818.235 1047.26 806.664 1053.82C796.603 1059.54 786.542 1065.43 776.48 1071.13C761.598 1079.68 746.277 1087.44 730.58 1094.39C723.065 1097.93 715.183 1100.63 707.077 1102.44C705.707 1102.74 704.313 1102.91 702.911 1102.96C702.308 1102.96 701.704 1102.96 701.1 1102.96H700.758C700.215 1102.96 701.181 1102.96 700.658 1102.96L699.833 1102.78C699.189 1102.71 698.597 1102.39 698.183 1101.89C698.283 1101.89 697.82 1101.17 697.941 1101.53C697.862 1101.32 697.802 1101.11 697.76 1100.89C697.659 1100.38 697.76 1101.15 697.76 1100.45C697.716 1099.34 697.901 1098.24 698.303 1097.21C699.048 1094.75 695.204 1093.7 694.46 1096.14C693.97 1097.35 693.739 1098.65 693.781 1099.96C693.822 1101.26 694.136 1102.55 694.701 1103.73C695.391 1104.69 696.294 1105.49 697.342 1106.04C698.389 1106.6 699.552 1106.91 700.738 1106.94C707.62 1107.63 715.086 1104.75 721.424 1102.42C738.87 1095.62 755.792 1087.55 772.053 1078.27C780.606 1073.58 788.977 1068.63 797.428 1063.8C819.08 1051.41 840.753 1038.71 863.25 1027.9C875.323 1022.11 889.409 1022.65 902.328 1024.26C912.501 1025.53 922.55 1027.64 932.372 1030.58L934.062 1031.1C934.571 1031.24 935.114 1031.17 935.573 1030.91C936.032 1030.65 936.371 1030.22 936.517 1029.71L952.233 974.155L959.98 946.788C962.582 938.973 964.6 930.975 966.017 922.862C966.902 916.06 966.5 908.635 962.234 902.96C957.968 897.286 950.744 894.911 943.681 894.629C935.169 894.267 926.496 895.776 918.064 896.642L889.269 899.66C851.035 903.685 812.802 907.025 774.569 912.418C765.071 913.766 755.573 915.275 746.135 917.086C741.628 917.932 737.1 918.797 732.633 919.863C728.999 920.594 725.541 922.022 722.451 924.069C715.911 928.838 714.241 937.793 712.55 945.218C710.627 954.11 709.283 963.117 708.526 972.183C706.856 990.414 706.393 1008.71 703.918 1026.86C701.362 1045.57 697.659 1064.14 695.526 1082.92C695.003 1087.51 694.581 1092.11 694.299 1096.72C694.118 1099.28 698.102 1099.26 698.323 1096.72L698.142 1096.6Z" fill="#0E3D9B"/>
<path opacity="0.4" d="M849.405 989.83C849.359 993.901 848.064 997.858 845.696 1001.17C843.328 1004.48 840.001 1006.98 836.164 1008.34C827.23 1011.08 818.899 1005.2 818.899 994.781C818.899 984.357 827.23 975.785 836.164 975.624C843.892 975.382 849.405 981.842 849.405 989.83Z" fill="white"/>
<path d="M707.298 1122.96C706.252 1123.83 702.328 1126.61 701.261 1127.49C698.645 1129.85 695.063 1132.26 692.488 1134.67C685.827 1140.91 680.575 1144.45 672.365 1151.58C669.834 1153.83 667.144 1155.91 664.316 1157.78C660.43 1158.23 656.514 1158.38 652.604 1158.22C645.763 1157.8 634.776 1158.88 626.203 1159.02C614.411 1159.2 574.186 1175.42 568.35 1164.42C561.207 1150.93 570.222 1136.97 581.289 1129.2C592.357 1121.43 637.13 1106.78 650.009 1103.71C664.957 1100.16 679.604 1095.45 693.816 1089.62C694.161 1089.44 694.526 1089.3 694.903 1089.2L704.964 1086.36L748.811 1073.98L776.42 1066.26C778.814 1065.59 782.316 1064.85 783.282 1067.04C784.248 1069.24 780.666 1070.46 778.754 1071.95C773.482 1075.98 767.787 1079.22 762.535 1083.26C744.847 1096.88 730.62 1105.09 712.912 1118.66L707.298 1122.96Z" fill="#0746AA" stroke="#0E3D9B" stroke-width="1.00614" stroke-miterlimit="10"/>
<path d="M138.024 1803.94H1739.92" stroke="#255DE8" stroke-width="11" stroke-linecap="round" stroke-linejoin="round"/>
<path d="M1447.13 1861.98H1744.63" stroke="#255DE8" stroke-width="11" stroke-linecap="round" stroke-linejoin="round"/>
<path d="M171.066 1861.98H468.562" stroke="#255DE8" stroke-width="11" stroke-linecap="round" stroke-linejoin="round"/>
<path d="M1368.09 1861.98H1426.87" stroke="#255DE8" stroke-width="11" stroke-linecap="round" stroke-linejoin="round"/>
</svg>
