<svg width="2000" height="2000" viewBox="0 0 2000 2000" fill="none" xmlns="http://www.w3.org/2000/svg">
<g opacity="0.7">
<path d="M1644 386.449H336.831C311.978 386.449 291.831 406.596 291.831 431.449V1497.9C291.831 1522.76 311.978 1542.9 336.83 1542.9H1644C1668.85 1542.9 1689 1522.76 1689 1497.9V431.449C1689 406.596 1668.85 386.449 1644 386.449Z" fill="#FDF1E4"/>
<path d="M504.444 1267.9L401.067 1164.31C394.145 1157.37 388.679 1149.12 384.987 1140.04C381.296 1130.96 379.453 1121.23 379.569 1111.43C379.684 1101.62 381.754 1091.94 385.657 1082.95C389.561 1073.96 395.22 1065.84 402.302 1059.06L574.882 893.831C577.956 890.884 582.073 889.277 586.33 889.361C590.588 889.444 594.639 891.213 597.594 894.279L765.231 1061.89L504.444 1267.9Z" fill="#FCE0C8"/>
<path d="M400.854 1061.79C400.854 1061.79 395.932 1123.11 451.626 1142.75C451.626 1142.75 425.59 1158.67 420.626 1182.36C420.626 1182.46 347.056 1130.09 400.854 1061.79Z" fill="#FDD2AE"/>
<path d="M571.767 953.36L450.364 1069.7C443.95 1075.85 443.733 1086.03 449.88 1092.44C456.027 1098.86 466.21 1099.08 472.624 1092.93L594.027 976.589C600.441 970.442 600.658 960.259 594.511 953.845C588.364 947.43 578.182 947.213 571.767 953.36Z" fill="#FDD2AE"/>
<path d="M503.272 1187.94C521.453 1187.94 536.19 1173.2 536.19 1155.02C536.19 1136.84 521.453 1122.11 503.272 1122.11C485.092 1122.11 470.354 1136.84 470.354 1155.02C470.354 1173.2 485.092 1187.94 503.272 1187.94Z" fill="#FDD2AE"/>
<path d="M493.897 1168.28H512.626L505.552 1133.85" stroke="#FFBE92" stroke-width="4.26122" stroke-linecap="round" stroke-linejoin="round"/>
<path opacity="0.7" d="M537.809 1115.5L638.395 1017.75" stroke="#FFD4B0" stroke-width="10.6531" stroke-linecap="round" stroke-linejoin="round"/>
<path d="M948.528 766.018L907.854 645.51C906.942 642.808 905.501 640.314 903.616 638.173C901.731 636.032 899.439 634.287 896.874 633.04C894.308 631.793 891.52 631.069 888.672 630.909C885.824 630.749 882.973 631.157 880.284 632.109L636.968 718.399C624.606 722.781 613.263 729.628 603.626 738.525C593.989 747.422 586.258 758.182 580.903 770.155C575.548 782.128 572.68 795.064 572.473 808.178C572.266 821.292 574.724 834.312 579.697 846.448L685.227 1103.87L1018.92 1000.26L948.528 766.018Z" fill="#FFF3E5" stroke="#F7B98F" stroke-width="2.13061" stroke-miterlimit="10"/>
<path d="M621.606 726.619C621.606 726.619 592.885 785.062 640.526 836.196C640.526 836.196 596.507 840.458 590.35 867.389C590.35 867.367 541.09 776.539 621.606 726.619Z" fill="#FCE0C8"/>
<path d="M853.895 699.456L668.364 762.905C659.903 765.799 655.389 775.004 658.283 783.466L659.751 787.76C662.645 796.222 671.851 800.736 680.312 797.842L865.843 734.393C874.305 731.499 878.819 722.293 875.925 713.832L874.456 709.537C871.563 701.076 862.357 696.562 853.895 699.456Z" fill="#FCE0C8"/>
<path opacity="0.7" d="M683.437 880.345L912.712 802.961" stroke="#FFD4B0" stroke-width="10.6531" stroke-linecap="round" stroke-linejoin="round"/>
<path opacity="0.7" d="M696.391 915.858L925.666 838.475" stroke="#FFD4B0" stroke-width="10.6531" stroke-linecap="round" stroke-linejoin="round"/>
<path opacity="0.7" d="M712.179 954.552L941.454 877.168" stroke="#FFD4B0" stroke-width="10.6531" stroke-linecap="round" stroke-linejoin="round"/>
<path opacity="0.7" d="M720.531 991.394L949.806 914.01" stroke="#FFD4B0" stroke-width="10.6531" stroke-linecap="round" stroke-linejoin="round"/>
<path opacity="0.7" d="M733.485 1026.91L962.76 949.527" stroke="#FFD4B0" stroke-width="10.6531" stroke-linecap="round" stroke-linejoin="round"/>
<path d="M1452.93 802.492H1073.96C1027.82 802.492 990.415 839.895 990.415 886.033V1123.4C990.415 1169.54 1027.82 1206.95 1073.96 1206.95H1452.93C1499.07 1206.95 1536.47 1169.54 1536.47 1123.4V886.033C1536.47 839.895 1499.07 802.492 1452.93 802.492Z" fill="#FCE0C8"/>
<path d="M1485.19 1062.92H1174.33" stroke="#FFD4B0" stroke-width="6.39184" stroke-linecap="round" stroke-linejoin="round"/>
<path d="M1485.19 1123.94H1174.33" stroke="#FFD4B0" stroke-width="6.39184" stroke-linecap="round" stroke-linejoin="round"/>
<path d="M1367.38 852.944C1366.64 852.944 1365.92 853.168 1365.31 853.588C1364.7 854.009 1364.23 854.604 1363.96 855.297C1363.7 855.99 1363.65 856.747 1363.82 857.468C1363.99 858.189 1364.38 858.84 1364.93 859.336C1373.71 866.644 1391.29 883.689 1385.09 898.859C1376.97 918.78 1336.28 926.109 1336.28 965.994C1336.28 1005.88 1371.26 1032.32 1431.9 1021.73C1492.54 1011.14 1477.07 954.191 1466.88 943.197C1456.7 932.203 1432.3 910.662 1435.14 902.928C1437.97 895.194 1459.15 877.702 1453.06 863.043C1446.96 848.385 1420.5 859.783 1411.96 863.448C1403.41 867.113 1375.33 853.285 1367.6 852.795L1367.38 852.944Z" fill="#FCCDA9"/>
<path d="M1407.53 946.413C1408.12 945.41 1408.84 944.48 1409.66 943.644C1411.32 941.916 1413.43 940.681 1415.74 940.071C1418.06 939.462 1420.51 939.503 1422.8 940.189C1425.1 940.876 1427.16 942.182 1428.77 943.964C1430.37 945.745 1431.46 947.935 1431.9 950.291C1432.4 953.076 1432.01 955.949 1430.77 958.494C1429.37 961.624 1427.46 964.503 1425.12 967.016C1420.18 972.449 1414.86 977.518 1409.19 982.186L1408.1 983.06C1407.63 983.401 1407.5 983.422 1407.06 983.06C1403.18 980.013 1399.56 976.668 1396 973.238C1393.25 970.665 1390.67 967.903 1388.31 964.971C1386.22 962.447 1384.63 959.557 1383.6 956.449C1383.05 954.667 1382.89 952.787 1383.14 950.939C1383.38 949.091 1384.02 947.317 1385.02 945.74C1386.01 944.162 1387.33 942.817 1388.89 941.797C1390.45 940.777 1392.22 940.106 1394.06 939.83C1396.55 939.404 1399.12 939.727 1401.43 940.758C1403.74 941.79 1405.69 943.484 1407.04 945.625L1407.53 946.413Z" fill="#FCC097"/>
<g opacity="0.7">
<path d="M1384.24 905.184C1397.94 910.361 1412.73 911.939 1427.21 909.765C1427.75 909.611 1428.21 909.249 1428.49 908.758C1428.76 908.267 1428.83 907.687 1428.68 907.144C1428.61 906.874 1428.48 906.621 1428.31 906.4C1428.14 906.179 1427.92 905.994 1427.68 905.855C1427.44 905.717 1427.17 905.628 1426.89 905.593C1426.61 905.558 1426.33 905.579 1426.06 905.653C1412.33 907.639 1398.32 906.061 1385.37 901.072C1384.82 900.922 1384.24 900.995 1383.75 901.275C1383.26 901.555 1382.9 902.018 1382.75 902.564C1382.6 903.109 1382.67 903.691 1382.95 904.183C1383.23 904.674 1383.69 905.035 1384.24 905.184Z" fill="#FFE1CA"/>
<path d="M1400.98 887.929C1406.22 893.669 1409.51 900.917 1410.38 908.638C1410.38 909.203 1410.61 909.745 1411 910.145C1411.4 910.544 1411.95 910.769 1412.51 910.769C1413.08 910.769 1413.62 910.544 1414.02 910.145C1414.42 909.745 1414.64 909.203 1414.64 908.638C1413.74 899.768 1410 891.424 1403.99 884.839C1402.14 882.815 1399.13 885.841 1400.98 887.843V887.929Z" fill="#FFE1CA"/>
<path d="M1418.75 879.555C1421.48 887.864 1423.4 899.796 1414.75 905.463C1412.45 906.955 1414.6 910.641 1416.88 909.128C1418.99 907.678 1420.8 905.818 1422.18 903.659C1423.56 901.499 1424.5 899.085 1424.93 896.557C1425.75 890.43 1425.02 884.196 1422.8 878.426C1421.93 875.848 1417.82 876.956 1418.69 879.555H1418.75Z" fill="#FFE1CA"/>
</g>
</g>
<path d="M1198.75 933.631C1197.13 931.872 1196.1 929.652 1195.8 927.281C1195.51 924.91 1195.95 922.505 1197.08 920.4C1198.09 918.653 1199.51 917.183 1200.47 915.415C1203.67 909.406 1201.03 900.266 1206.76 896.58C1215.91 905.444 1222.02 916.984 1224.21 929.541" fill="#F2A91F"/>
<path d="M1253.4 1044.53C1205.18 1015.45 1084.44 1004.16 1060.75 1003.05C1058.4 1003.05 1060.75 1005.41 1060.75 1003.05C1060.75 1003.05 1045.17 964.271 1041.25 951.722C1050.14 942.492 1057.04 931.539 1061.53 919.537C1066.02 907.536 1068 894.742 1067.35 881.944C1066.09 862.066 1063.35 840.504 1055.53 822.287C1076.02 809.248 1083.4 804.987 1096.01 785.897C1099.35 781.026 1101.08 775.227 1100.95 769.32C1101.05 762.894 1098.78 756.658 1094.56 751.807C1082.99 737.361 1070.48 736.892 1051.48 740.813C1041.41 743.072 1031.83 747.098 1023.16 752.702C1023.16 753.678 1023.1 754.653 1022.97 755.62C1021.57 765.933 1014.66 775.116 1006.18 781.784C1004.84 783.056 1003.12 783.856 1001.28 784.064C997.979 784.064 995.87 780.421 996.488 777.31C997.458 774.198 999.353 771.456 1001.92 769.448C1008.47 763.194 1015.6 757.586 1023.23 752.702C1023.28 748.294 1021.95 743.981 1019.42 740.371C1016.89 736.762 1013.28 734.04 1009.12 732.589C996.339 727.518 980.849 729.307 966.51 735.87C960.8 738.49 955.452 741.686 950.019 744.818C935.488 753.192 925.347 762.907 913.799 773.432C908.041 778.797 903.216 785.083 899.524 792.033C901.416 792.772 903.058 794.038 904.254 795.68C905.451 797.323 906.153 799.273 906.278 801.301C906.285 805.823 904.828 810.226 902.123 813.85C901.497 814.992 900.528 815.909 899.353 816.471C895.433 817.941 893.196 812.21 893.792 808.311C894.805 802.609 896.741 797.111 899.524 792.033C899.151 791.891 898.766 791.784 898.373 791.713C891.47 790.456 882.735 790.605 877.067 794.675C856.698 809.333 855.1 840.014 858.254 869.502C859.109 875.992 860.477 882.403 862.345 888.677C869.993 915.8 879.262 930.65 891.321 944.819C905.021 960.884 923.28 968.256 944.586 973.369L944.117 979.1C942.967 988.337 938.925 996.973 932.57 1003.77L930.972 1005.5C930.972 1005.5 769.62 1036.16 633.559 1120.96C511.561 1197 411.805 1285.35 425.484 1369.3C442.529 1474.13 698.202 1475.98 778.718 1469.03C778.718 1469.03 772.816 1538.81 780.423 1543.35L1236.37 1541.22C1237.04 1541.2 1237.69 1541.02 1238.29 1540.72C1238.88 1540.41 1239.4 1539.98 1239.81 1539.45C1240.21 1538.92 1240.5 1538.31 1240.64 1537.66C1240.78 1537.01 1240.78 1536.33 1240.63 1535.68C1236.57 1517.72 1224.72 1458.74 1233.56 1417.96C1233.56 1417.96 1267.65 1463.58 1343.42 1422.42C1419.18 1381.25 1374.95 1238.57 1374.95 1238.57C1374.95 1238.57 1354.98 1111.92 1261.92 1045.51L1253.4 1044.53ZM784.449 1347.06C784.449 1347.06 665.135 1347.76 615.513 1338.34C615.513 1338.34 721.106 1254.33 777.44 1223.8C798.895 1212.06 784.449 1347.06 784.449 1347.06Z" fill="#F2A91F"/>
<path d="M911.242 858.825C914.767 853.13 919.421 848.218 924.918 844.392C930.415 840.566 936.637 837.908 943.202 836.581C943.995 836.33 944.66 835.781 945.057 835.05C945.454 834.319 945.553 833.463 945.332 832.661C945.072 831.874 944.522 831.215 943.794 830.819C943.065 830.424 942.214 830.32 941.412 830.53C934.044 832.067 927.069 835.094 920.914 839.425C914.758 843.755 909.553 849.299 905.618 855.714C903.487 859.229 909.005 862.447 911.136 858.931L911.242 858.825Z" fill="#A76127"/>
<path d="M1000.32 817.301C1004.86 816.351 1009.55 816.407 1014.06 817.463C1018.57 818.52 1022.8 820.551 1026.44 823.415C1027.06 823.989 1027.86 824.308 1028.7 824.308C1029.54 824.308 1030.35 823.989 1030.96 823.415C1031.56 822.816 1031.9 822.004 1031.9 821.157C1031.9 820.31 1031.56 819.498 1030.96 818.899C1026.48 815.288 1021.26 812.724 1015.66 811.393C1010.06 810.062 1004.24 809.999 998.618 811.207C997.809 811.441 997.122 811.981 996.704 812.713C996.287 813.445 996.171 814.311 996.381 815.127C996.62 815.939 997.164 816.626 997.9 817.043C998.635 817.46 999.504 817.576 1000.32 817.365V817.301Z" fill="#A76127"/>
<path d="M934.231 873.974C934.615 874.358 934.231 874.954 934.572 874.102C934.735 873.673 934.95 873.265 935.211 872.888C935.92 871.822 936.734 870.83 937.64 869.926C939.365 868.043 941.501 866.585 943.883 865.665C944.896 865.266 945.97 865.043 947.058 865.004C948.156 864.916 949.261 865.031 950.318 865.345C951.324 865.577 952.274 866.007 953.112 866.611C953.95 867.215 954.658 867.98 955.197 868.861C955.639 869.56 956.336 870.061 957.139 870.257C957.943 870.453 958.792 870.33 959.507 869.913C960.222 869.496 960.747 868.818 960.973 868.022C961.198 867.226 961.106 866.373 960.715 865.644C956.773 858.932 947.931 857.121 941.071 859.934C937.445 861.481 934.25 863.887 931.76 866.943C929.097 870.16 926.242 874.763 929.629 878.512C932.442 881.538 936.937 877 934.146 873.996L934.231 873.974Z" fill="#A76127"/>
<path d="M1004.03 857.97C1005.45 856.054 1007.35 854.541 1009.54 853.581C1011.72 852.62 1014.12 852.246 1016.49 852.495C1018.78 852.819 1020.95 853.707 1022.81 855.08C1024.67 856.452 1026.16 858.265 1027.15 860.357C1027.58 861.088 1028.28 861.62 1029.1 861.833C1029.92 862.047 1030.79 861.926 1031.53 861.496C1032.26 861.067 1032.79 860.364 1033 859.543C1033.22 858.722 1033.09 857.85 1032.67 857.118C1031.13 854.025 1028.81 851.388 1025.94 849.467C1023.07 847.546 1019.75 846.409 1016.3 846.168C1012.86 845.926 1009.41 846.59 1006.3 848.092C1003.19 849.594 1000.53 851.883 998.576 854.732C998.363 855.094 998.224 855.495 998.166 855.911C998.108 856.327 998.133 856.75 998.239 857.157C998.345 857.564 998.529 857.945 998.783 858.28C999.036 858.616 999.353 858.898 999.715 859.11C1000.08 859.323 1000.48 859.462 1000.89 859.52C1001.31 859.578 1001.73 859.553 1002.14 859.447C1002.55 859.341 1002.93 859.156 1003.26 858.903C1003.6 858.649 1003.88 858.333 1004.09 857.97H1004.03Z" fill="#A76127"/>
<path d="M1156.26 866.365C1156.6 863.571 1157.27 860.825 1158.24 858.184C1163.06 846.316 1171.82 839.2 1184.51 837.773C1197.21 836.345 1207.12 841.288 1214.34 851.622C1218.14 857.376 1220.01 864.187 1219.69 871.074C1219.53 879.381 1218.02 887.606 1215.22 895.427C1209.39 912.343 1202.34 928.813 1194.12 944.708C1193.63 945.709 1193.06 946.711 1192.53 947.712C1191.99 948.714 1191.57 949.076 1190.22 948.714C1178.59 945.624 1167.28 941.576 1156.03 937.357C1147.39 934.243 1138.98 930.549 1130.84 926.3C1123.77 922.647 1117.43 917.713 1112.16 911.747C1109.22 908.291 1107.05 904.239 1105.82 899.87C1104.59 895.5 1104.32 890.916 1105.03 886.431C1105.73 881.947 1107.4 877.668 1109.91 873.889C1112.43 870.109 1115.73 866.917 1119.59 864.533C1131.08 857.545 1142.73 857.949 1154.15 865.023L1156.26 866.365Z" fill="#255DE8"/>
<path d="M872.102 799.105C872.102 799.105 858.424 846.213 877.77 896.581C890.83 930.543 917.697 947.716 953.193 955.748C961.819 957.795 970.722 958.421 979.549 957.602C1014.98 953.767 931.163 1005.48 931.163 1005.48C931.163 1005.48 943.307 995.953 944.777 973.347C930.234 971.01 916.452 965.26 904.56 956.568C892.668 947.876 883.005 936.489 876.363 923.341C853.438 878.045 850.029 828.082 872.102 799.105Z" fill="#D78D28"/>
<path d="M1294.09 996.741C1291.85 990.57 1289.16 984.573 1286.04 978.801C1285.22 977.03 1284.03 975.459 1282.54 974.199C1281.77 973.616 1280.88 973.19 1279.94 972.942C1284.08 964.015 1284.67 952.488 1277.66 945.713C1271.14 939.427 1260.32 939.726 1252.31 943.965C1246.64 947.25 1241.65 951.589 1237.61 956.749C1240.21 952.341 1241.55 947.309 1241.51 942.194C1241.46 937.078 1240.03 932.071 1237.35 927.709C1224.38 927.781 1211.47 929.638 1199 933.227C1192.61 935.102 1185.03 938.98 1184.98 945.713C1184.98 949.1 1187.11 952.104 1188.05 955.386C1188.89 958.046 1189.09 960.868 1188.62 963.619C1188.15 966.369 1187.02 968.966 1185.34 971.195C1177.63 969.81 1176.42 959.199 1177.95 951.508C1179.49 943.816 1181.13 934.122 1174.71 929.584C1167.26 924.343 1157.41 931.928 1152.41 939.555C1133.89 967.828 1136.34 1013.62 1145.31 1036.37C1150.51 1049.62 1160.22 1063.58 1154.47 1076.6L1258 1048.15C1257.76 1047.56 1257.55 1046.96 1257.34 1046.36L1262.24 1045.32L1268.08 1034.47C1274.17 1023.12 1280.69 1011.31 1291.51 1004.2C1292.94 1003.49 1294.09 1002.34 1294.79 1000.92C1295.04 999.485 1294.79 998.012 1294.09 996.741Z" fill="#F2A91F"/>
<path d="M1141.52 1024.23C1141.52 1024.23 1160.8 1039.93 1165.34 1061.19C1170.03 1082.99 1180.25 1230.66 1209.93 1317.38C1239.76 1404.73 1268.76 1436.39 1278.35 1439.95C1278.35 1439.95 1240.36 1439.65 1212.98 1390.16C1185.6 1340.67 1165.17 1273.68 1163.48 1217.81C1163.48 1217.81 1155.64 1144.03 1156.5 1082.97C1156.5 1082.97 1157.28 1064.24 1154.98 1055.63C1152.68 1047.02 1141.52 1024.23 1141.52 1024.23Z" fill="#D78D28"/>
<path d="M1216.49 1396.29C1216.49 1396.29 1213.85 1507.08 1220.56 1541.43L1236.44 1541.11C1237.72 1540.91 1238.89 1540.23 1239.68 1539.2C1240.47 1538.16 1240.84 1536.87 1240.7 1535.57C1240.7 1530.39 1222.67 1480.88 1233.62 1417.85L1216.49 1396.29Z" fill="#D78D28"/>
<path d="M1189.41 959.434C1201.91 961.9 1214.76 962.016 1227.3 959.774C1230.66 959.178 1229.24 954.043 1225.87 954.64C1214.27 956.7 1202.38 956.585 1190.82 954.299C1187.48 953.638 1186.05 958.773 1189.41 959.434Z" fill="#A76127"/>
<path d="M1211.36 959.112C1208.93 960.781 1207.03 963.117 1205.9 965.839C1204.77 968.56 1204.44 971.551 1204.97 974.452C1205.16 975.131 1205.61 975.707 1206.23 976.058C1206.84 976.408 1207.57 976.505 1208.25 976.327C1208.92 976.12 1209.48 975.664 1209.83 975.054C1210.17 974.445 1210.27 973.726 1210.1 973.046C1210.1 972.94 1210.1 972.407 1210.1 972.854C1210.1 972.854 1210.1 973.302 1210.1 972.854C1210.1 972.854 1210.1 972.301 1210.1 972.045C1210.06 971.506 1210.06 970.964 1210.1 970.426C1210.1 969.808 1210.1 970.852 1210.1 970.426V970.085C1210.1 969.808 1210.21 969.552 1210.27 969.275L1210.53 968.423L1210.66 968.082C1210.66 968.082 1210.89 967.507 1210.66 967.89C1210.42 968.274 1210.66 967.89 1210.66 967.784L1210.85 967.379C1210.98 967.144 1211.1 966.91 1211.25 966.676C1211.4 966.441 1211.53 966.207 1211.68 965.973L1211.89 965.674C1211.64 965.973 1212.15 965.269 1211.89 965.674C1212.23 965.252 1212.59 964.853 1212.98 964.481L1213.6 963.927C1213.85 963.714 1213.6 963.927 1213.47 963.927C1213.63 963.833 1213.78 963.726 1213.92 963.608C1214.22 963.431 1214.48 963.197 1214.7 962.919C1214.91 962.64 1215.06 962.323 1215.15 961.985C1215.24 961.646 1215.26 961.294 1215.21 960.947C1215.17 960.6 1215.05 960.266 1214.88 959.964C1214.7 959.662 1214.47 959.398 1214.19 959.186C1213.91 958.974 1213.59 958.819 1213.25 958.73C1212.91 958.641 1212.56 958.62 1212.22 958.667C1211.87 958.714 1211.53 958.829 1211.23 959.006L1211.36 959.112Z" fill="#A76127"/>
<path d="M1275.6 975.628C1268.86 982.335 1263.04 989.9 1258.28 998.127C1254.53 1004.52 1251.44 1016.62 1241.83 1014.85C1236.94 1013.9 1232.19 1012.31 1227.7 1010.14C1226.7 1009.79 1225.79 1009.2 1225.06 1008.44C1224.32 1007.67 1223.76 1006.75 1223.44 1005.73C1223.11 1003.89 1223.11 1002.01 1223.44 1000.17C1223.99 992.661 1225.96 985.322 1229.26 978.547C1234.37 969.155 1241.33 960.893 1249.71 954.258C1252.37 952.127 1248.58 948.356 1245.94 950.487C1237.44 957.238 1230.34 965.574 1225.02 975.031C1221.08 982.764 1218.72 991.201 1218.07 999.853C1217.6 1004.11 1217.71 1008.63 1220.82 1011.89C1224.27 1015.49 1230.34 1017.17 1234.97 1018.58C1239.59 1019.99 1245.24 1021.5 1250.01 1019.07C1253.69 1016.83 1256.59 1013.51 1258.32 1009.57C1260.95 1004.26 1263.88 999.113 1267.1 994.143C1270.73 988.856 1274.86 983.92 1279.41 979.399C1279.91 978.899 1280.19 978.221 1280.19 977.514C1280.19 976.806 1279.91 976.128 1279.41 975.628C1278.91 975.128 1278.23 974.847 1277.53 974.847C1276.82 974.847 1276.14 975.128 1275.64 975.628H1275.6Z" fill="#A76127"/>
<path d="M1248.69 1021.39C1251.58 1025.55 1256 1028.4 1260.98 1029.31C1263.37 1029.77 1265.84 1029.71 1268.2 1029.14C1269.62 1028.54 1270.9 1027.64 1271.93 1026.5C1273.68 1024.7 1275.27 1022.75 1276.68 1020.68L1283.08 1012.57C1286.29 1008.46 1289.72 1003.77 1295.16 1002.77C1298.52 1002.15 1297.1 997.014 1293.75 997.632C1289.13 998.777 1285.04 1001.47 1282.16 1005.26C1278.37 1009.67 1274.92 1014.38 1271.32 1018.94C1270.24 1020.49 1268.99 1021.92 1267.61 1023.2C1267.14 1023.66 1266.63 1024.08 1266.1 1024.46H1265.97C1266.63 1024.01 1266.71 1023.86 1266.2 1024.01C1265.69 1024.16 1265.09 1024.14 1264.75 1024.14C1262.53 1024.22 1260.33 1023.76 1258.33 1022.79C1256.33 1021.82 1254.6 1020.37 1253.29 1018.58C1251.33 1015.78 1246.71 1018.45 1248.69 1021.26V1021.39Z" fill="#A76127"/>
<path d="M1192.25 989.816C1192.59 984.864 1191.42 979.924 1188.9 975.647C1187.77 973.962 1186.33 972.514 1184.64 971.386C1183.47 970.463 1182.35 969.482 1181.28 968.446C1180.61 967.87 1179.83 967.615 1179.27 966.912C1178.68 966.015 1178.33 964.98 1178.25 963.907C1178.05 961.324 1178.18 958.724 1178.63 956.173C1179.38 949.781 1180.27 943.262 1178.42 936.998C1178.22 936.337 1177.76 935.781 1177.16 935.448C1176.55 935.115 1175.84 935.031 1175.17 935.214C1174.5 935.396 1173.94 935.832 1173.58 936.427C1173.23 937.022 1173.12 937.731 1173.29 938.404C1175.1 944.604 1173.88 950.975 1173.18 957.239C1172.69 961.692 1172.24 967.125 1175.46 970.747C1176.48 971.897 1177.59 972.536 1178.74 973.644C1179.89 974.752 1181.62 975.775 1183 976.925C1186.43 980.121 1187.26 985.597 1186.96 990.007C1186.84 993.438 1192.16 993.416 1192.29 990.007L1192.25 989.816Z" fill="#A76127"/>
<path d="M843.978 1482.73C843.978 1482.73 789.818 1485.95 780.613 1543.32C780.613 1543.32 777.652 1542.98 777.183 1518.69C776.714 1494.41 776.949 1468.18 776.949 1468.18C776.949 1468.18 801.515 1469.01 816.45 1461.15C816.45 1461.15 834.624 1480.71 843.978 1482.73Z" fill="#D78D28"/>
<path d="M1153.32 1077.77C1150.08 1127.75 1155.3 1177.91 1162.1 1227.29C1167.94 1269.74 1175.61 1312.52 1191.54 1352.38C1200.16 1374.48 1211.8 1395.27 1226.12 1414.17C1228.26 1416.83 1232.81 1414.17 1230.73 1411.46C1204.8 1377.84 1189.61 1337.72 1179.89 1296.71C1175.01 1276.11 1171.37 1255.18 1168.41 1234.22C1164.95 1210.23 1162.01 1186.11 1159.99 1161.95C1157.48 1133.94 1157.03 1105.79 1158.65 1077.72C1158.88 1074.29 1153.56 1074.32 1153.32 1077.72V1077.77Z" fill="#A76127"/>
<path d="M1142.22 982.808C1144.66 983.542 1147.22 983.844 1149.76 983.703C1150.46 983.684 1151.13 983.402 1151.64 982.915C1152.13 982.415 1152.42 981.743 1152.43 981.04C1152.41 980.332 1152.13 979.655 1151.64 979.144C1151.14 978.655 1150.46 978.38 1149.76 978.377C1148.48 978.445 1147.2 978.395 1145.93 978.228H1146.63C1145.61 978.101 1144.61 977.887 1143.63 977.588C1142.95 977.405 1142.23 977.497 1141.62 977.844C1141.01 978.191 1140.56 978.766 1140.37 979.442C1140.19 980.123 1140.28 980.846 1140.63 981.458C1140.97 982.071 1141.55 982.525 1142.22 982.723V982.808Z" fill="#A76127"/>
<path d="M786.515 1231.94C786.515 1231.94 804.285 1298.14 800.386 1351.02H782.659C782.659 1351.02 791.48 1309.51 786.515 1231.94Z" fill="#D78D28"/>
<path d="M1158.24 1079.28C1159.7 1071.49 1159.34 1063.47 1157.18 1055.84C1155.58 1051.06 1153.6 1046.41 1151.25 1041.95C1149.12 1037.28 1146.99 1032.6 1144.86 1027.84C1143.09 1024.43 1141.78 1020.8 1140.96 1017.04C1140.52 1013.65 1135.38 1015.1 1135.83 1018.47C1136.59 1021.99 1137.81 1025.4 1139.45 1028.61C1141.45 1033.36 1143.58 1038.05 1145.84 1042.72C1147.61 1046.51 1149.68 1050.24 1151.13 1054.18C1153.92 1061.75 1154.66 1069.92 1153.26 1077.87C1152.64 1081.22 1157.77 1082.66 1158.39 1079.28H1158.24Z" fill="#A76127"/>
<path d="M899.545 816.403C900.72 815.841 901.689 814.924 902.315 813.782C905.019 810.158 906.477 805.755 906.469 801.233C906.345 799.205 905.643 797.255 904.446 795.613C903.249 793.97 901.608 792.705 899.715 791.965C896.933 797.043 894.997 802.541 893.984 808.243C893.387 812.206 895.625 817.873 899.545 816.403Z" fill="#F2A91F"/>
<path d="M996.615 777.243C995.997 780.354 998.106 784.061 1001.41 783.997C1003.25 783.789 1004.97 782.989 1006.31 781.718C1014.83 775.049 1021.69 765.866 1023.1 755.554C1023.22 754.586 1023.29 753.611 1023.29 752.635C1015.67 757.519 1008.53 763.127 1001.98 769.381C999.44 771.398 997.568 774.14 996.615 777.243Z" fill="#F2A91F"/>
<path d="M805.84 1459.74C797.318 1463.32 787.624 1463.79 778.483 1464.28C769.137 1464.4 759.808 1465.11 750.551 1466.41C747.185 1467.01 748.612 1472.14 751.957 1471.54C761.204 1469.88 770.728 1470.01 780.081 1469.41C789.435 1468.82 798.788 1468.33 807.268 1464.79C810.379 1463.49 809.015 1458.4 805.84 1459.65V1459.74Z" fill="#A76127"/>
<path d="M1014.51 739.892C1018.75 745.609 1020.68 752.717 1019.9 759.792C1019.5 765.34 1017.25 770.592 1013.51 774.707C1011.67 777 1009.15 778.655 1006.31 779.437C1003.73 780.076 998.192 780.587 998.128 776.667C998.064 772.746 1002.39 769.529 1005.2 767.569C1008.84 765.246 1012.59 763.112 1016.45 761.177C1025.55 756.362 1034.86 751.952 1043.89 746.966C1046.88 745.304 1044.19 740.702 1041.19 742.364C1031.45 747.754 1021.35 752.463 1011.55 757.768C1004.35 761.646 991.289 767.91 992.93 778.094C994.464 787.533 1007.55 786.255 1013.4 782.057C1019.14 777.831 1023.13 771.644 1024.61 764.671C1025.71 759.985 1025.79 755.12 1024.86 750.399C1023.93 745.678 1022 741.21 1019.2 737.293C1017.07 734.609 1012.53 737.293 1014.6 739.999L1014.51 739.892Z" fill="#A76127"/>
<path d="M903.295 781.357C901.42 784.958 899.588 788.601 897.819 792.245C895.139 797.066 892.995 802.168 891.428 807.457C890.447 811.718 890.447 816.981 893.963 820.241C897.478 823.501 902.379 822.371 905.468 818.941C908.555 815.401 910.455 810.982 910.901 806.307C911.252 804.6 911.179 802.834 910.689 801.162C910.199 799.491 909.306 797.965 908.089 796.719C900.93 790.071 888.807 789.858 879.88 791.925C876.535 792.692 877.962 797.827 881.307 797.06C888.21 795.462 896.562 795.568 902.805 799.382C903.706 799.751 904.469 800.394 904.985 801.219C905.501 802.045 905.745 803.012 905.681 803.984C905.733 807.607 904.628 811.152 902.528 814.105C901.782 815.17 900.525 816.938 899.098 816.981C897.67 817.024 896.626 815.34 896.349 814.126C895.954 811.567 896.278 808.948 897.287 806.562C898.987 802.11 900.936 797.757 903.125 793.523C904.659 790.37 906.257 787.131 907.876 784.084C909.495 781.038 904.872 778.353 903.274 781.4L903.295 781.357Z" fill="#A76127"/>
<path d="M441.421 1343.28C439.195 1345.79 437.86 1348.96 437.625 1352.3C437.39 1355.64 438.268 1358.96 440.121 1361.75C440.492 1362.35 441.077 1362.78 441.755 1362.95C442.434 1363.13 443.153 1363.03 443.764 1362.69C444.371 1362.33 444.811 1361.75 444.99 1361.07C445.17 1360.38 445.074 1359.66 444.723 1359.05C444.34 1358.53 444.004 1357.97 443.722 1357.39L443.551 1357C443.551 1357.19 443.658 1357.3 443.551 1357C443.445 1356.7 443.338 1356.41 443.253 1356.09C443.168 1355.77 443.083 1355.47 443.019 1355.15V1354.72C442.891 1354.04 443.019 1355.06 443.019 1354.72C443.019 1354.38 443.019 1353.42 443.019 1352.76V1351.91C443.019 1351.57 443.019 1352.38 443.019 1351.91C443.007 1351.77 443.007 1351.63 443.019 1351.48C443.154 1350.85 443.332 1350.22 443.551 1349.61C443.551 1349.44 443.658 1349.33 443.551 1349.61C443.551 1349.44 443.701 1349.27 443.786 1349.12C443.871 1348.97 444.063 1348.61 444.212 1348.35C444.374 1348.07 444.552 1347.8 444.745 1347.54C444.574 1347.71 445.021 1347.14 444.745 1347.54L445.107 1347.14C445.354 1346.89 445.551 1346.6 445.685 1346.27C445.819 1345.95 445.888 1345.6 445.888 1345.25C445.888 1344.9 445.819 1344.56 445.685 1344.23C445.551 1343.91 445.354 1343.61 445.107 1343.37C444.859 1343.12 444.565 1342.92 444.242 1342.79C443.918 1342.65 443.571 1342.59 443.221 1342.59C442.871 1342.59 442.524 1342.65 442.201 1342.79C441.877 1342.92 441.583 1343.12 441.336 1343.37L441.421 1343.28Z" fill="#A76127"/>
<path d="M1305.06 1423.99C1312.25 1423.28 1319.07 1420.43 1324.62 1415.81C1325.07 1415.36 1325.32 1414.75 1325.32 1414.12C1325.32 1413.48 1325.07 1412.87 1324.62 1412.42C1324.17 1411.99 1323.56 1411.74 1322.93 1411.74C1322.3 1411.74 1321.69 1411.99 1321.24 1412.42C1316.61 1416.19 1310.99 1418.55 1305.06 1419.2C1304.44 1419.22 1303.84 1419.47 1303.39 1419.92C1302.95 1420.36 1302.69 1420.96 1302.68 1421.59C1302.68 1422.22 1302.94 1422.82 1303.38 1423.27C1303.83 1423.72 1304.43 1423.98 1305.06 1423.99Z" fill="#A76127"/>
<path d="M1096.63 754.445C1096.63 754.445 1098.76 784.018 1079.16 800.083C1057.34 818.001 1050.48 821.091 1050.48 821.091C1060.42 840.594 1066.22 861.942 1067.52 883.795C1067.35 862.714 1063.31 841.844 1055.61 822.22C1055.61 822.22 1075.6 810.331 1081.86 803.535C1088.12 796.738 1111.43 776.412 1096.63 754.445Z" fill="#D78D28"/>
<path d="M797.787 1387.49C797.787 1387.49 793.227 1414.83 797.787 1429.25C792.313 1428.02 787.437 1424.92 783.993 1420.49C780.55 1416.06 778.753 1410.57 778.91 1404.96C778.91 1385.7 797.787 1387.49 797.787 1387.49Z" fill="#D78D28"/>
<path d="M1327.29 1268.26C1328.82 1271.78 1329.7 1275.55 1329.89 1279.39C1331.46 1294.77 1332.36 1310.2 1332.57 1325.68C1339.47 1315.67 1343.06 1303.75 1342.84 1291.59C1342.94 1288.35 1342.21 1285.13 1340.71 1282.24C1339.35 1280 1337.24 1278.3 1335.96 1276C1333.95 1272.38 1333.64 1266.92 1329.57 1265.79" fill="#D78D28"/>
<path d="M1256.98 1072.53C1261.24 1085.57 1265.69 1098.63 1270.93 1111.35C1276.32 1123.98 1282.49 1136.27 1289.4 1148.14C1302.67 1171.3 1312.7 1196.16 1319.23 1222.03C1322.8 1236.48 1325.2 1251.19 1326.41 1266.03C1326.69 1269.42 1332.02 1269.44 1331.74 1266.03C1328.57 1226.25 1317.02 1187.6 1297.86 1152.59C1291.19 1140.39 1284.08 1128.5 1278.43 1115.76C1272.04 1101.25 1267.03 1086.14 1262 1071.01C1260.94 1067.78 1255.78 1069.16 1256.87 1072.44L1256.98 1072.53Z" fill="#A76127"/>
<path d="M931.163 1005.47C931.163 1005.47 659.51 1085.16 493.982 1226.46C493.982 1226.46 659.02 1059.36 931.163 1005.47Z" fill="#D78D28"/>
<path d="M1198.77 935.654C1208.41 936.274 1218.02 934.115 1226.47 929.433C1229.47 927.771 1226.79 923.169 1223.78 924.831C1216.16 929.033 1207.49 930.942 1198.81 930.328C1198.1 930.328 1197.43 930.608 1196.93 931.108C1196.43 931.607 1196.15 932.285 1196.15 932.991C1196.15 933.697 1196.43 934.375 1196.93 934.874C1197.43 935.374 1198.1 935.654 1198.81 935.654H1198.77Z" fill="#A76127"/>
<path d="M992.908 907.958L1012.83 902.61L1008.89 900.479C1011.62 910.152 1004.63 919.015 995.55 921.785C990.927 923.128 985.302 923.447 981.083 920.805C978.966 919.32 977.127 917.474 975.65 915.351L973.115 912.006C972.026 910.916 971.081 909.691 970.302 908.362V910.067C970.004 912.048 968.172 911.154 969.088 911.303C969.322 911.303 969.663 911.303 969.876 911.303L972.39 911.09C974.713 910.919 977.035 910.706 979.358 910.472C983.947 910.238 988.495 909.473 992.908 908.192C996.765 906.85 995.039 900.671 991.204 902.034C986.05 903.474 980.743 904.29 975.395 904.463C973.264 904.634 971.133 904.762 969.003 904.975C967.617 904.948 966.271 905.442 965.232 906.36C964.549 907.1 964.151 908.059 964.108 909.065C964.065 910.071 964.38 911.06 964.997 911.857C966.212 913.774 967.81 915.543 969.258 917.354C970.586 919.229 972.008 921.035 973.52 922.765C976.355 925.913 980.154 928.034 984.322 928.795C988.367 929.459 992.507 929.26 996.469 928.21C1000.43 927.159 1004.13 925.282 1007.31 922.701C1010.74 919.895 1013.3 916.163 1014.67 911.947C1016.04 907.732 1016.17 903.212 1015.05 898.924C1014.81 898.114 1014.27 897.427 1013.54 897.01C1012.81 896.592 1011.94 896.476 1011.12 896.687L991.204 902.034C990.41 902.28 989.742 902.825 989.343 903.554C988.944 904.284 988.845 905.139 989.067 905.941C989.289 906.742 989.814 907.425 990.531 907.845C991.248 908.265 992.101 908.39 992.908 908.192V907.958Z" fill="#A76127"/>
<path d="M854.389 1260.84H1157.13C1157.13 1260.84 1188.02 1368.67 1157.13 1496.76H856.413C856.413 1496.76 830.079 1380.32 854.389 1260.84Z" fill="#4498F4"/>
<path d="M854.674 1261.92L894.687 1221.9H1119.98L1157.43 1261.92H854.674Z" fill="#007CFF"/>
<path d="M965.245 1243.11C965.245 1243.11 951.076 1197.05 968.803 1173.76C986.53 1150.47 1031.57 1173.76 1011.42 1208.45C1011.42 1208.45 1048.87 1184.39 1061.53 1220.85C1061.53 1220.85 1064.57 1240.02 1047.36 1243.11H965.245Z" fill="#0058BB"/>
<path d="M1007.48 1350.46C998.959 1318.5 949.955 1328.39 950.871 1357.09C951.894 1386.92 1006.4 1424.93 1006.4 1424.93C1006.4 1424.93 1063.07 1386.96 1064.07 1357.09C1065.05 1328.37 1016.05 1318.42 1007.48 1350.46Z" fill="#255DE8"/>
<path d="M951.894 1244.19H1062.77" stroke="#255DE8" stroke-width="2.13061" stroke-miterlimit="10"/>
<path d="M616.684 1339.3C681.987 1347.61 762.823 1352.85 807.715 1349.72H807.928C815.523 1349.16 822.632 1345.76 827.849 1340.22C839.035 1328.31 851.861 1321.83 872.166 1316.48L879.261 1315.99C884.172 1316.22 889.067 1316.73 893.919 1317.52C900.78 1318.85 907.491 1322.62 910.517 1329.14C912.061 1332.31 912.291 1335.96 911.156 1339.3C908.684 1346.2 901.632 1347.82 895.262 1349.12L860.17 1356.07C858.604 1356.18 857.141 1356.89 856.08 1358.05C855.594 1358.99 855.478 1360.08 855.753 1361.11C856.029 1362.13 856.677 1363.02 857.571 1363.59C859.43 1364.65 861.544 1365.19 863.686 1365.14C870.858 1365.59 878.049 1365.63 885.226 1365.27C888.347 1365.07 891.431 1364.48 894.409 1363.52C897.286 1362.48 901.93 1361.39 904.423 1360.39C906.568 1359.48 908.93 1359.19 911.232 1359.57C913.533 1359.94 915.68 1360.97 917.42 1362.52C921.639 1366.67 924.633 1371.89 926.07 1377.63C927.114 1381.08 927.839 1385.02 926.07 1388.09C924.109 1390.66 921.274 1392.42 918.102 1393.03C894.431 1400.04 869.098 1395.16 844.425 1396.21C843.554 1396.21 842.699 1396.45 841.95 1396.9C841.201 1397.34 840.585 1397.98 840.164 1398.74C838.204 1402.58 843.147 1405.39 847.025 1405.99C866.2 1408.84 885.61 1401.62 904.871 1403.52C908.194 1403.84 911.795 1404.6 913.883 1407.2C915.333 1409.5 916.095 1412.16 916.078 1414.87C917.058 1424.63 917.718 1435.69 904.658 1440.59C901.017 1441.87 897.153 1442.4 893.301 1442.14C881.907 1441.6 870.635 1439.54 859.787 1436.01C855.739 1434.53 851.605 1433.3 847.408 1432.32C846.317 1432.13 845.193 1432.3 844.208 1432.81C843.222 1433.31 842.428 1434.13 841.946 1435.12C841.464 1436.12 841.321 1437.25 841.538 1438.33C841.754 1439.42 842.319 1440.41 843.147 1441.14C845.642 1443.33 848.536 1445.02 851.669 1446.11C858.571 1448.58 865.934 1449.49 873.231 1448.79C878.792 1448.24 884.289 1446.66 889.892 1446.94C895.496 1447.21 901.483 1449.52 903.954 1454.52C905.46 1458.26 905.625 1462.41 904.423 1466.26C903.559 1469.72 901.984 1472.97 899.8 1475.79C890.83 1487.23 875.809 1488.1 862.301 1486.84C852.628 1485.95 842.763 1484.12 834.603 1478.98C825.122 1473.12 818.666 1463.51 812.977 1453.9" fill="#F2A91F"/>
<path d="M651.286 1342.43C651.286 1342.43 617.196 1339.98 616.941 1337.74C616.749 1336.06 670.909 1293.57 725.793 1256.33C737.32 1248.51 756.304 1235.75 769.215 1228.38C778.547 1223.07 780.891 1220.47 784.62 1227.06C784.62 1227.06 781.53 1219.39 776.715 1220.03C736.042 1225.46 570.387 1318.91 577.545 1348.08C586.238 1383.4 762.589 1364.46 805.01 1359.39C816.794 1357.77 828.073 1353.56 838.034 1347.05C853.225 1336.61 891.299 1320.27 906.214 1327.88C906.214 1327.88 899.928 1314.58 872.124 1317.99C855.137 1320.36 839.537 1328.66 828.084 1341.43C828.084 1341.43 818.283 1351.29 806.458 1350.93L651.286 1342.43Z" fill="#D78D28"/>
<path d="M615.513 1341C655.717 1346.12 696.178 1349.65 736.659 1351.42C754.173 1352.17 771.729 1352.59 789.264 1352.19C796.613 1352.36 803.962 1351.89 811.231 1350.8C815.853 1349.88 820.216 1347.95 824.014 1345.16C827.402 1342.66 830.108 1339.43 833.24 1336.64C840.196 1330.57 848.224 1325.86 856.911 1322.74C861.555 1320.82 866.351 1319.3 871.25 1318.18C873.541 1317.9 875.845 1317.74 878.153 1317.72C878.86 1317.72 879.537 1317.43 880.037 1316.94C880.536 1316.44 880.817 1315.76 880.817 1315.05C880.817 1314.35 880.536 1313.67 880.037 1313.17C879.537 1312.67 878.86 1312.39 878.153 1312.39H878.004C877.298 1312.39 876.62 1312.67 876.121 1313.17C875.622 1313.67 875.341 1314.35 875.341 1315.05C875.341 1315.76 875.622 1316.44 876.121 1316.94C876.62 1317.43 877.298 1317.72 878.004 1317.72C886.122 1318.16 895.411 1318.25 902.165 1323.4C906.427 1326.73 909.644 1332.61 907.321 1338.02C905.446 1342.28 900.823 1343.94 896.562 1344.97C884.119 1347.91 871.421 1349.93 858.871 1352.47C857.667 1352.56 856.496 1352.91 855.43 1353.48C854.364 1354.04 853.425 1354.82 852.671 1355.77C852.11 1356.74 851.815 1357.84 851.815 1358.96C851.815 1360.09 852.11 1361.19 852.671 1362.16C855.292 1367.23 861.875 1366.95 866.755 1367.15C873.044 1367.53 879.352 1367.47 885.632 1366.95C890.53 1366.24 895.352 1365.07 900.035 1363.46C902.127 1362.64 904.26 1361.93 906.427 1361.33C907.843 1361.08 909.296 1361.15 910.687 1361.51C912.077 1361.88 913.371 1362.54 914.48 1363.46C918.635 1366.89 920.872 1372.37 922.449 1377.39C923.432 1379.79 923.633 1382.44 923.024 1384.96C921.98 1387.71 918.763 1388.75 916.249 1389.52C910.205 1391.28 903.991 1392.38 897.712 1392.82C885.184 1393.82 872.635 1392.95 860.128 1392.59C857.145 1392.59 854.163 1392.44 851.18 1392.44C848.065 1392.24 844.938 1392.36 841.848 1392.8C837.586 1393.71 834.476 1398.51 836.841 1402.6C839.206 1406.69 844.575 1407.63 848.9 1408.05C855.089 1408.56 861.314 1408.44 867.479 1407.69C879.666 1406.43 892.322 1403.6 904.594 1405.3C905.869 1405.33 907.122 1405.64 908.261 1406.21C909.401 1406.78 910.397 1407.6 911.178 1408.61C912.184 1410.93 912.678 1413.45 912.627 1415.98C913.139 1419.74 913.01 1423.56 912.243 1427.27C909.324 1438.52 896.306 1438.97 886.804 1438.09C880.335 1437.5 873.923 1436.39 867.628 1434.79C861.236 1433.19 855.292 1430.7 848.964 1429.17C844.703 1428.17 840.548 1428.68 838.503 1432.98C836.457 1437.29 838.673 1441.01 842.125 1443.63C851.435 1450.56 864.688 1451.62 875.81 1450.03C881.52 1449.2 887.528 1447.7 893.238 1449.34C895.695 1449.86 897.881 1451.25 899.393 1453.26C900.905 1455.26 901.64 1457.75 901.462 1460.25C901.057 1471.2 892.578 1479.43 882.436 1482.18C872.72 1484.8 861.748 1483.82 851.989 1481.96C840.74 1480.1 830.563 1474.18 823.375 1465.32C819.961 1460.99 816.877 1456.4 814.15 1451.6C813.794 1450.99 813.21 1450.55 812.527 1450.37C811.843 1450.19 811.117 1450.29 810.506 1450.64C809.896 1451 809.452 1451.58 809.272 1452.27C809.093 1452.95 809.192 1453.68 809.548 1454.29C815.279 1463.96 821.799 1473.65 831.386 1479.85C840.974 1486.05 853.502 1488.16 865.029 1488.8C874.617 1489.36 884.993 1488.53 893.302 1483.24C902.144 1477.62 908.962 1465.96 906.32 1455.25C903.486 1443.83 890.404 1442.46 880.753 1443.89C874.293 1445.16 867.688 1445.52 861.13 1444.96C855.526 1444.21 848.005 1442.59 843.957 1438.29C843.66 1438.02 843.427 1437.7 843.277 1437.33C843.127 1436.96 843.064 1436.56 843.093 1436.17C843.122 1435.77 843.242 1435.39 843.443 1435.05C843.645 1434.7 843.923 1434.41 844.255 1434.2C846.237 1433.07 850.37 1435.07 852.352 1435.71C858.644 1437.87 865.045 1439.71 871.527 1441.21C877.993 1442.56 884.553 1443.41 891.15 1443.76C897.037 1444.3 902.956 1443.13 908.195 1440.4C916.036 1436.01 918.443 1427.85 918.102 1419.35C917.911 1414.89 917.911 1409.46 915.503 1405.58C912.605 1400.92 906.789 1400.11 901.782 1399.77C888.742 1398.89 875.916 1401.9 862.983 1402.77C857.231 1403.22 850.2 1403.9 844.596 1402.02C843.169 1401.53 839.334 1399.47 842.466 1398.12C844.001 1397.77 845.585 1397.67 847.153 1397.83H852.096C865.306 1397.83 878.515 1399.04 891.747 1398.55C898.187 1398.39 904.602 1397.67 910.922 1396.42C916.014 1395.38 922.449 1394.29 926.028 1390.03C929.608 1385.77 928.819 1380.12 927.264 1375.11C925.783 1369.79 923.092 1364.89 919.402 1360.78C917.6 1358.82 915.326 1357.35 912.797 1356.52C910.269 1355.69 907.57 1355.52 904.956 1356.02C902.634 1356.49 900.397 1357.58 898.117 1358.15C895.837 1358.73 893.046 1359.79 890.49 1360.46C884.334 1361.68 878.046 1362.09 871.783 1361.69C868.715 1361.69 865.625 1361.54 862.557 1361.35C861.154 1361.37 859.762 1361.1 858.466 1360.56C856.911 1359.67 856.655 1358.32 858.594 1357.77C864.986 1355.92 871.847 1355.11 878.345 1353.83C884.843 1352.55 891.235 1351.44 897.521 1349.99C902.112 1349.25 906.357 1347.09 909.665 1343.82C911.383 1341.78 912.549 1339.35 913.049 1336.73C913.549 1334.12 913.367 1331.42 912.52 1328.9C909.09 1318.42 898.415 1314.29 888.402 1313.03C884.907 1312.6 881.413 1312.37 877.898 1312.18V1317.72H878.047V1312.39C875.916 1312.54 873.786 1312.64 871.655 1312.84C867.678 1313.44 863.782 1314.49 860.043 1315.97C852.029 1318.47 844.395 1322.05 837.352 1326.62C834.168 1328.78 831.155 1331.18 828.34 1333.8C824.995 1336.91 822.14 1340.34 818.091 1342.62C810.954 1346.65 802.602 1346.44 794.655 1346.71C757.731 1348.01 720.595 1345.73 683.863 1342.75C661.065 1340.89 638.339 1338.53 615.683 1335.68C612.296 1335.25 612.338 1340.58 615.683 1341H615.513Z" fill="#A76127"/>
<path d="M108.257 1544.65H1890.68" stroke="#255DE8" stroke-width="11" stroke-miterlimit="10" stroke-linecap="round"/>
<path d="M108.257 1624.74H562.61" stroke="#255DE8" stroke-width="11" stroke-miterlimit="10" stroke-linecap="round"/>
<path d="M1789.84 1621.48H1891.15" stroke="#255DE8" stroke-width="11" stroke-miterlimit="10" stroke-linecap="round"/>
</svg>
