<svg width="2000" height="2055" viewBox="0 0 2000 2055" fill="none" xmlns="http://www.w3.org/2000/svg">
<path opacity="0.75" d="M525.42 990.469C525.42 955.409 525.42 920.349 525.42 885.289C526 884.329 526.81 883.439 527.11 882.399C534.51 857.209 551.48 843.019 577.22 839.399C597.5 836.549 617.83 833.969 638.2 831.919C644.82 831.249 647.86 828.689 650.09 822.489C654.69 809.679 660.05 797.109 665.75 784.729C667.9 780.049 667.89 776.969 664.59 772.849C651.41 756.399 638.51 739.719 625.72 722.959C606.13 697.309 607.97 667.659 630.56 644.829C649.36 625.829 668.3 606.959 687.28 588.129C710.68 564.929 739.89 562.869 766.03 582.719C782.82 595.459 799.49 608.389 815.94 621.559C820.07 624.869 823.15 624.829 827.83 622.689C840.49 616.919 853.39 611.609 866.44 606.769C871.93 604.729 874.25 601.849 874.87 596.009C877.04 575.649 879.68 555.339 882.31 535.039C886.51 502.579 909.44 482.489 942.29 482.419C969.62 482.359 996.95 482.239 1024.28 482.459C1052.51 482.689 1075.47 501.499 1080.1 529.159C1083.82 551.389 1086.21 573.839 1088.89 596.229C1089.52 601.499 1091.18 604.469 1096.66 606.449C1110.02 611.279 1123.16 616.829 1136.08 622.759C1140.84 624.949 1143.95 624.679 1147.97 621.459C1164.21 608.489 1180.67 595.789 1197.12 583.089C1223.04 563.079 1252.56 564.699 1275.96 587.669C1295.04 606.389 1313.93 625.319 1332.68 644.359C1356.06 668.099 1357.7 697.229 1337.29 723.849C1324.82 740.109 1312.3 756.329 1299.5 772.329C1296.1 776.579 1295.69 779.889 1298.05 784.969C1303.8 797.319 1309.15 809.899 1313.66 822.739C1315.92 829.159 1319.34 831.199 1325.76 831.909C1347.58 834.329 1369.43 836.799 1391.08 840.409C1418.92 845.059 1437.88 867.739 1438.17 895.879C1438.47 924.389 1438.46 952.909 1438.17 981.419C1437.89 1009.58 1418.95 1032.37 1391.2 1037.03C1369.56 1040.67 1347.71 1043.23 1325.88 1045.55C1318.9 1046.29 1315.74 1048.99 1313.43 1055.48C1308.98 1068.03 1303.74 1080.34 1298.12 1092.42C1295.8 1097.41 1295.93 1100.74 1299.39 1105.06C1312.21 1121.04 1324.72 1137.27 1337.19 1153.52C1357.82 1180.41 1356.02 1209.48 1332.12 1233.69C1313.55 1252.5 1294.86 1271.2 1276.02 1289.75C1252.67 1312.75 1223.22 1314.46 1197.2 1294.47C1180.72 1281.81 1164.28 1269.08 1148.01 1256.15C1144.07 1253.02 1140.96 1252.42 1136.13 1254.65C1123.22 1260.6 1110.05 1266.03 1096.75 1271.06C1091.98 1272.86 1089.5 1275.05 1088.95 1280.27C1087.27 1296.2 1085.29 1312.11 1083.17 1328C1081.18 1342.95 1080.27 1358.13 1070.88 1371.13C1061.48 1384.13 1048.36 1390.85 1033.52 1395.12H930.11C929.04 1394.62 928.02 1393.95 926.9 1393.66C901.47 1386.99 886.66 1370.47 882.73 1344.72C879.55 1323.89 877.14 1302.94 874.88 1281.99C874.22 1275.87 872.01 1272.73 866.05 1270.58C853.23 1265.97 840.64 1260.67 828.25 1254.99C823.31 1252.73 819.96 1252.68 815.58 1256.19C799.37 1269.2 782.93 1281.94 766.37 1294.51C740.12 1314.45 710.82 1312.64 687.51 1289.65C668.47 1270.87 649.57 1251.95 630.78 1232.93C607.72 1209.59 605.97 1180.32 626 1154.14C638.81 1137.39 651.99 1120.92 664.57 1104C666.35 1101.6 666.93 1096.87 665.87 1094.04C660.65 1080.18 654.97 1066.46 648.75 1053.02C647.35 1050 643.38 1046.71 640.18 1046.24C619.93 1043.22 599.57 1040.85 579.22 1038.46C563.26 1036.58 548.77 1031.08 539.19 1017.91C533.24 1009.73 529.88 999.679 525.36 990.469H525.42ZM976.22 1128.9C1078.95 1133.61 1166.95 1050.87 1171.98 944.839C1176.87 841.689 1093.7 753.229 987.49 748.639C884.49 744.189 796.4 827.009 791.72 932.679C787.14 1036.11 869.8 1124.02 976.22 1128.89V1128.9Z" fill="#F9DFC5"/>
<path d="M1680.44 950.24C1680.44 1341.38 1363.36 1658.46 972.22 1658.46C581.08 1658.46 264 1341.38 264 950.24C264 559.1 581.09 239.351 972.22 242.021C1243.76 243.871 1492.01 387.301 1588.25 620.091" stroke="#F7D5B4" stroke-width="48" stroke-miterlimit="10"/>
<path d="M1697.11 737.158H1611.11V820.838H1697.11V737.158Z" fill="#F7D5B4"/>
<path d="M1571.02 858.609L1724.43 705.199" stroke="#EFBC96" stroke-width="4" stroke-linecap="round" stroke-linejoin="round"/>
<path d="M1737.47 714.859C1749.98 714.859 1760.13 704.714 1760.13 692.199C1760.13 679.684 1749.98 669.539 1737.47 669.539C1724.96 669.539 1714.81 679.684 1714.81 692.199C1714.81 704.714 1724.96 714.859 1737.47 714.859Z" fill="#EFBC96"/>
<path d="M1563.34 889C1575.85 889 1586 878.854 1586 866.34C1586 853.825 1575.85 843.68 1563.34 843.68C1550.83 843.68 1540.68 853.825 1540.68 866.34C1540.68 878.854 1550.83 889 1563.34 889Z" fill="#EFBC96"/>
<path d="M997.09 768.549C997.09 768.549 1262.84 658.159 1281.92 649.989C1296.75 643.629 1336.28 619.989 1353.16 609.769C1358.24 606.689 1364.21 605.429 1370.1 606.169L1550.4 628.869L1552.44 634.319L1432.52 771.179C1429.01 775.179 1424.27 777.889 1419.04 778.869C1392.52 783.829 1306.52 801.119 1257.39 825.109C1198.79 853.729 841.05 953.209 841.05 953.209C841.05 953.209 823.33 937.539 873.76 803.979L997.09 768.549Z" fill="#117AF6"/>
<path d="M970.86 821.869L1226.81 729.329C1232.25 727.359 1238.26 730.119 1240.32 735.519L1250.18 761.329C1252.28 766.819 1249.51 772.959 1244.02 775.039L966.77 879.619L970.86 821.869Z" fill="#7EB7FA"/>
<path d="M854.84 469.15C862.82 461.38 878.09 451.3 889.17 450.14C906.71 448.31 921.4 466.18 922.39 483.78C923.5 503.45 901.52 510.19 896.1 527.47C892.22 539.83 896.71 546.86 897.93 559.06C901.32 592.97 886.69 624.13 856.23 638.81C856.27 644.46 853.36 654.34 853.67 659.54C853.94 664.05 854.67 687.32 850.55 689.16C823.14 701.37 781.36 689.96 766.56 686.73C760.83 685.48 757.12 679.93 758.17 674.17L767.49 619.14C752.87 610.63 739.68 591.72 733.15 576.74C723.26 554.05 724.89 541.93 727.18 516.24C728.99 495.92 748.37 457.09 769.33 451.37C777.53 449.13 788.09 454.95 787.46 463.43C789.9 449.7 802.97 443.47 815.17 435.99C825.39 429.73 838.21 429.05 848.81 434.65C858.97 440.02 866.27 450.14 854.86 469.15H854.84Z" fill="#F2A91F"/>
<mask id="mask0_305_434" style="mask-type:alpha" maskUnits="userSpaceOnUse" x="725" y="430" width="198" height="265">
<path d="M854.84 469.15C862.82 461.38 878.09 451.3 889.17 450.14C906.71 448.31 921.4 466.18 922.39 483.78C923.5 503.45 901.52 510.19 896.1 527.47C892.22 539.83 896.71 546.86 897.93 559.06C901.32 592.97 886.69 624.13 856.23 638.81C856.27 644.46 853.36 654.34 853.67 659.54C853.94 664.05 854.67 687.32 850.55 689.16C823.14 701.37 781.36 689.96 766.56 686.73C760.83 685.48 757.12 679.93 758.17 674.17L767.49 619.14C752.87 610.63 739.68 591.72 733.15 576.74C723.26 554.05 724.89 541.93 727.18 516.24C728.99 495.92 748.37 457.09 769.33 451.37C777.53 449.13 788.09 454.95 787.46 463.43C789.9 449.7 802.97 443.47 815.17 435.99C825.39 429.73 838.21 429.05 848.81 434.65C858.97 440.02 866.27 450.14 854.86 469.15H854.84Z" fill="#E7AB43"/>
</mask>
<g mask="url(#mask0_305_434)">
<path opacity="0.7" d="M787.45 463.429C787.45 463.429 758.41 451.709 741.79 508.249C725.17 564.789 768.74 609.599 785.02 617.989C806.97 629.299 827.59 629.299 813.62 634.619C799.65 639.939 773.72 632.959 761.74 655.899C749.77 678.849 761.74 655.899 761.74 655.899L752.76 628.299C752.76 628.299 729.48 598.039 728.82 596.039C728.16 594.039 718.18 555.799 717.85 554.799C717.52 553.799 714.52 519.549 715.19 516.559C715.86 513.569 725.83 480.649 725.83 479.649C725.83 478.649 753.1 444.729 754.43 444.069C755.76 443.409 778.04 438.079 781.37 439.409C784.7 440.739 793.34 447.059 792.01 448.059C790.68 449.059 787.46 463.429 787.46 463.429" fill="#CB8F3F"/>
</g>
<path d="M971.24 1543.78C956.93 1584.66 1117.32 1585.71 1101.6 1618.27C1086.38 1649.78 862.6 1660.58 789.01 1608.96C765.7 1592.61 1001.59 1260.63 971.24 1251.15C928.67 1237.85 743.09 1203.17 716.51 1207.25C689.94 1211.34 507.01 1715.65 507.01 1732C507.01 1748.35 658.41 1788.01 654.66 1819.13C650.17 1856.37 327.48 1823.68 317.26 1807.32C307.04 1790.97 360.7 1672.91 360.7 1672.91L572.58 916.56L544.64 960.02L494.9 977.06C494.9 977.06 342.2 1080.32 371.35 950.74C382.74 900.12 468.25 813.34 472.6 808.99C482.82 798.77 556.13 717.87 606.75 693.82C679.41 659.31 755.19 654.08 755.19 654.08L834.91 661.58C834.91 661.58 902.63 683.96 945.92 707.75C983.96 728.65 1047.88 890.28 1052.23 890C1052.23 890 1167.11 857.58 1171.2 833.05C1175.29 808.52 1208.85 808.17 1221.82 797.61C1233.37 788.22 1247.04 783.98 1257.26 806.47C1267.48 828.96 1194.69 855.1 1219.22 840.79C1243.75 826.48 1342.05 795.08 1342.05 795.08C1316.21 838.63 1255.99 867.22 1214.22 901.39C1136.05 965.35 1057.66 1017.33 1025.01 1018.64C983.52 1020.3 925.58 895.3 905.23 848.18C902.7 842.32 894.21 842.9 892.49 849.05C881.19 889.46 830.63 1022.79 848.84 1040.99C875.44 1067.59 1073.83 1090.89 1112.21 1112.82C1125.5 1120.41 1193.84 1162.18 1155.87 1238.11C1117.9 1314.05 971.21 1543.79 971.21 1543.79L971.24 1543.78Z" fill="#F2A91F"/>
<mask id="mask1_305_434" style="mask-type:alpha" maskUnits="userSpaceOnUse" x="315" y="654" width="1028" height="1183">
<path d="M971.24 1543.78C956.93 1584.66 1117.32 1585.71 1101.6 1618.27C1086.38 1649.78 862.6 1660.58 789.01 1608.96C765.7 1592.61 1001.59 1260.63 971.24 1251.15C928.67 1237.85 743.09 1203.17 716.51 1207.25C689.94 1211.34 507.01 1715.65 507.01 1732C507.01 1748.35 658.41 1788.01 654.66 1819.13C650.17 1856.37 327.48 1823.68 317.26 1807.32C307.04 1790.97 360.7 1672.91 360.7 1672.91L572.58 916.56L544.64 960.02L494.9 977.06C494.9 977.06 342.2 1080.32 371.35 950.74C382.74 900.12 468.25 813.34 472.6 808.99C482.82 798.77 556.13 717.87 606.75 693.82C679.41 659.31 755.19 654.08 755.19 654.08L834.91 661.58C834.91 661.58 902.63 683.96 945.92 707.75C983.96 728.65 1047.88 890.28 1052.23 890C1052.23 890 1167.11 857.58 1171.2 833.05C1175.29 808.52 1208.85 808.17 1221.82 797.61C1233.37 788.22 1247.04 783.98 1257.26 806.47C1267.48 828.96 1194.69 855.1 1219.22 840.79C1243.75 826.48 1342.05 795.08 1342.05 795.08C1316.21 838.63 1255.99 867.22 1214.22 901.39C1136.05 965.35 1057.66 1017.33 1025.01 1018.64C983.52 1020.3 925.58 895.3 905.23 848.18C902.7 842.32 894.21 842.9 892.49 849.05C881.19 889.46 830.63 1022.79 848.84 1040.99C875.44 1067.59 1073.83 1090.89 1112.21 1112.82C1125.5 1120.41 1193.84 1162.18 1155.87 1238.11C1117.9 1314.05 971.21 1543.79 971.21 1543.79L971.24 1543.78Z" fill="#E7AB43"/>
</mask>
<g mask="url(#mask1_305_434)">
<path opacity="0.7" d="M761.74 655.89C761.74 655.89 634.04 671.85 571.53 731.71C509.01 791.57 413.91 864.06 377.99 957.17C377.99 957.17 369.34 983.11 381.98 1002.4C381.98 1002.4 394.62 1021.69 381.98 1002.4L360.94 1011.99L346.73 939.22L378.65 852.76L471.1 757.65L548.25 694.47L659.98 656.56L733.14 647.91L761.74 655.89Z" fill="#CB8F3F"/>
<path opacity="0.7" d="M879.01 891.55C879.01 891.55 840.13 1022.15 824.92 1044.96C812.95 1062.92 762.4 1065.58 791.67 1072.23C818.94 1078.43 845.54 1070.23 866.82 1074.23C888.1 1078.22 1053.34 1109.08 1100.26 1123.45C1132.85 1133.43 1165.45 1171.8 1152.14 1216.56C1138.83 1261.32 1063.02 1404.11 1063.02 1404.11C1063.02 1404.11 1214.66 1249.81 1214.66 1245.82C1214.66 1241.83 1225.3 1118.12 1225.3 1118.12L1170.76 1079.55L1047.05 1051.62L911.37 1031.67L859.49 1005.07L875.45 890.68" fill="#CB8F3F"/>
<path d="M1063.02 1404.11C1063.02 1404.11 948.63 1527.82 949.96 1549.1C951.29 1570.38 1061.69 1589 1061.69 1589L1009.81 1526.48L1063.02 1404.1" fill="#CB8F3F"/>
<path d="M765.06 1213.9C765.06 1213.9 715.84 1195.28 699.88 1199.27C683.92 1203.26 483.06 1714.04 488.38 1739.32C493.7 1764.59 624.06 1781.89 654.65 1819.13C685.24 1856.37 673.27 1756.61 644.01 1745.97C614.75 1735.33 529.62 1710.06 540.26 1684.78C550.9 1659.51 636.03 1413.43 636.03 1413.43L722.49 1225.88L765.06 1213.91" fill="#CB8F3F"/>
<path d="M576.18 908.621C576.18 908.621 383.31 1682.11 368.67 1696.74C354.04 1711.37 326.1 1812.46 326.1 1812.46C326.1 1812.46 266.24 1823.1 262.25 1819.11C258.26 1815.12 246.29 1711.37 246.29 1711.37L306.15 1445.34L400.59 1188.62L576.17 908.621" fill="#CB8F3F"/>
<path d="M854.18 669.201C854.18 669.201 911.76 690.231 951.95 725.731C961.34 734.021 974.54 756.211 980.55 767.631C1020.45 843.451 1043.06 898.651 1051.05 898.651C1065.68 898.651 1157.46 862.741 1165.44 852.091C1173.42 841.441 1171.21 833.031 1171.21 833.031C1171.21 833.031 1153.95 777.961 1135.09 774.451C1116.23 770.941 1104.26 826.811 1065.68 790.901C1027.1 754.991 898.74 661.211 898.74 661.211L854.18 669.191" fill="#CB8F3F"/>
</g>
<path d="M895.76 519.501C891.5 520.431 887.57 522.521 884.33 525.421C883.35 526.291 883.37 528.081 884.33 528.961C885.37 529.921 886.82 529.891 887.87 528.961C888.21 528.651 888.56 528.361 888.92 528.071C889.17 527.871 888.95 528.081 888.82 528.141C888.94 528.091 889.06 527.961 889.17 527.881C889.36 527.741 889.54 527.611 889.73 527.481C890.51 526.951 891.33 526.461 892.18 526.031C892.59 525.821 893.01 525.631 893.43 525.441C893.73 525.311 893.45 525.461 893.31 525.491C893.42 525.471 893.53 525.401 893.63 525.361C893.84 525.281 894.06 525.201 894.28 525.121C895.2 524.791 896.14 524.531 897.1 524.321C898.38 524.041 899.25 522.481 898.85 521.241C898.41 519.891 897.15 519.191 895.77 519.491L895.76 519.501Z" fill="#9D6434"/>
<path d="M892.25 541.15C892.73 545.35 894.26 549.39 895.03 553.55C895.8 557.71 896.17 561.67 896.29 565.78C896.38 568.99 901.38 569 901.29 565.78C901.17 561.55 900.74 557.33 900.02 553.15C899.67 551.14 899.25 549.13 898.75 547.15C898.25 545.17 897.48 543.18 897.25 541.15C897.1 539.81 896.21 538.65 894.75 538.65C893.52 538.65 892.1 539.8 892.25 541.15Z" fill="#9D6434"/>
<path d="M603.95 845.51C601.59 849.98 598.42 854.04 595.47 857.71C591.15 863.09 586.57 868.27 581.95 873.4C572.2 884.21 562.11 894.7 552.36 905.51C548.34 909.97 544.3 914.47 540.76 919.34C539.97 920.43 540.57 922.13 541.66 922.76C542.92 923.5 544.28 922.96 545.08 921.86C545.37 921.46 545.67 921.06 545.97 920.67C546.04 920.57 546.12 920.48 546.19 920.38C546.4 920.1 545.92 920.72 546.14 920.44C546.34 920.18 546.54 919.93 546.74 919.67C547.49 918.73 548.26 917.79 549.03 916.87C550.88 914.67 552.77 912.51 554.69 910.37C559.32 905.2 564.05 900.12 568.78 895.04C578.67 884.42 588.68 873.86 597.87 862.62C601.62 858.03 605.47 853.3 608.25 848.03C609.75 845.19 605.44 842.66 603.93 845.51H603.95Z" fill="#9D6434"/>
<path d="M896.6 832.88C890.77 846.37 886.13 860.33 882.82 874.66C882.1 877.79 886.92 879.13 887.64 875.99C890.85 862.11 895.26 848.49 900.92 835.41C901.46 834.17 901.29 832.73 900.02 831.99C898.96 831.37 897.14 831.64 896.6 832.89V832.88Z" fill="#9D6434"/>
<path d="M1051.27 890.01C1050.76 895.16 1049.95 900.2 1048.81 905.34C1048.53 906.61 1049.19 908.1 1050.56 908.42C1051.83 908.71 1053.33 908.04 1053.64 906.67C1054.86 901.18 1055.73 895.61 1056.28 890.01C1056.41 888.7 1055.04 887.45 1053.78 887.51C1052.32 887.58 1051.42 888.61 1051.28 890.01H1051.27Z" fill="#9D6434"/>
<path d="M379.16 979.091C379.69 982.581 380.81 985.931 382.37 989.091C382.95 990.261 384.71 990.681 385.79 989.991C386.99 989.221 387.31 987.831 386.69 986.571C386.51 986.211 386.34 985.851 386.18 985.491C386.09 985.291 385.97 985.081 385.91 984.861C386.12 985.491 385.96 984.981 385.91 984.831C385.6 984.061 385.33 983.291 385.08 982.501C384.6 980.951 384.24 979.371 384 977.761C383.91 977.181 383.33 976.551 382.85 976.271C382.31 975.961 381.52 975.821 380.92 976.021C380.32 976.221 379.73 976.591 379.43 977.171C379.1 977.801 379.07 978.391 379.18 979.101L379.16 979.091Z" fill="#9D6434"/>
<path d="M502.08 1731.72C494.85 1738.82 485.2 1743.38 475.09 1744.27C473.48 1744.41 472.09 1745.55 472.09 1747.27C472.09 1748.78 473.47 1750.41 475.09 1750.27C486.82 1749.24 497.91 1744.23 506.33 1735.97C509.09 1733.26 504.85 1729.02 502.09 1731.73L502.08 1731.72Z" fill="#9D6434"/>
<path d="M935.22 1543.89C943.72 1552.3 956.36 1555.78 967.97 1553.01C971.72 1552.12 970.13 1546.33 966.37 1547.22C956.92 1549.47 946.47 1546.58 939.45 1539.64C936.7 1536.92 932.46 1541.16 935.21 1543.88L935.22 1543.89Z" fill="#9D6434"/>
<path d="M966.6 1253.46C978.51 1256.59 990.87 1258.03 1003.19 1257.68C1007.04 1257.57 1007.06 1251.57 1003.19 1251.68C991.38 1252.01 979.63 1250.68 968.2 1247.68C964.46 1246.7 962.87 1252.48 966.6 1253.47V1253.46Z" fill="#9D6434"/>
<path d="M1162.34 1220.99C1157.91 1231.63 1149.97 1235.29 1142.44 1234.87C1134.91 1234.45 1127.95 1228.83 1125.96 1221.55C1124.67 1216.82 1125.34 1211.8 1125.06 1206.9C1124.32 1193.74 1116.61 1181.68 1106.48 1173.24C1096.36 1164.8 1083.98 1159.54 1071.51 1155.25C1063.63 1152.54 1055.46 1150.08 1048.76 1145.13C1042.05 1140.18 1036.97 1132.05 1038.21 1123.8C1039.48 1115.35 1047.08 1108.98 1055.27 1106.54C1063.46 1104.11 1074.02 1102.72 1082.53 1103.47C1082.53 1103.47 1116.67 1106.57 1143.72 1138.05C1143.72 1138.05 1163.73 1155.33 1166.33 1174.85C1170.76 1208.1 1162.34 1220.96 1162.34 1220.96V1220.99Z" fill="#F1BA66"/>
<path d="M1020.97 1008.54C1022.06 1009.52 1023.36 1010.28 1024.8 1010.61C1026.24 1010.94 1027.77 1010.96 1029.22 1010.55C1029.95 1010.35 1030.63 1009.83 1031.01 1009.17C1031.39 1008.51 1031.55 1007.58 1031.31 1006.86C1031.07 1006.14 1030.63 1005.43 1029.93 1005.07C1029.23 1004.71 1028.41 1004.55 1027.62 1004.77C1027.36 1004.84 1027.09 1004.9 1026.82 1004.94L1027.62 1004.83C1027.13 1004.89 1026.64 1004.89 1026.16 1004.83L1026.96 1004.94C1026.45 1004.87 1025.95 1004.73 1025.47 1004.54L1026.19 1004.84C1025.74 1004.65 1025.32 1004.4 1024.93 1004.1L1025.54 1004.57C1025.43 1004.49 1025.33 1004.4 1025.23 1004.31C1024.64 1003.78 1023.92 1003.43 1023.11 1003.43C1022.37 1003.43 1021.5 1003.76 1020.99 1004.31C1020.48 1004.86 1020.08 1005.63 1020.11 1006.43C1020.14 1007.23 1020.4 1008.02 1020.99 1008.55L1020.97 1008.54Z" fill="#9D6434"/>
<path d="M584.26 1509.66C581.28 1514.15 574.81 1515.13 569.72 1513.37C564.63 1511.61 560.6 1507.73 556.75 1503.97C553.24 1500.54 549.62 1496.94 548.03 1492.3C546.44 1487.66 547.1 1482.57 547.9 1477.73C553.25 1445 563.78 1413.12 578.96 1383.64C583.15 1375.51 588.13 1367.12 596.28 1362.97C609.83 1356.06 627.51 1364.48 634.6 1377.93L584.28 1509.67L584.26 1509.66Z" fill="#F1BA66"/>
<path d="M576.18 908.619L360.93 1011.98C349.19 1017.15 343.5 1030.56 347.95 1042.59L357.1 1067.33C361.64 1079.59 375.08 1086.05 387.48 1081.93L539.67 1031.4L576.17 908.619H576.18Z" fill="#117AF6"/>
<path d="M1548.49 628.201L1562.71 624.301C1564.23 623.881 1565.83 624.661 1566.44 626.121L1566.74 626.841C1567.43 628.481 1566.63 630.361 1564.97 631.001L1551.48 636.211L1548.48 628.201H1548.49Z" fill="#132A76"/>
<path d="M1222.8 777.701L1152.77 803.871C1148.88 805.321 1144.56 803.251 1143.27 799.311L1135.09 774.451C1133.85 770.691 1135.84 766.621 1139.57 765.281L1209.3 740.281C1213.1 738.921 1217.29 740.901 1218.65 744.701L1227.13 768.381C1228.48 772.141 1226.55 776.291 1222.81 777.691L1222.8 777.701Z" fill="#0757B5"/>
<path d="M1361.85 605.471C1361.85 605.471 1375.31 692.331 1430.61 772.281L1442.79 758.951C1442.79 758.951 1399.67 699.501 1378.93 607.631L1361.86 605.471H1361.85Z" fill="#0757B5"/>
<path d="M205.135 1836.26H981.876" stroke="#335CDF" stroke-width="11" stroke-linecap="round" stroke-linejoin="round"/>
<path d="M1048.75 1836.26H1647.73" stroke="#335CDF" stroke-width="11" stroke-linecap="round" stroke-linejoin="round"/>
<path d="M264 1900.26H572.593" stroke="#335CDF" stroke-width="11" stroke-linecap="round" stroke-linejoin="round"/>
<path d="M1451.54 1900.26H1760.13" stroke="#335CDF" stroke-width="11" stroke-linecap="round" stroke-linejoin="round"/>
</svg>
